%
M48
M72
T01C0.0120
T02C0.0200
T03C0.0256
T04C0.0400
T05C0.1300
%
T01
X15633Y9590
X15633Y10140
X16133Y10140
X16633Y10140
X17133Y10140
X17133Y9600
X18433Y10190
X18683Y9300
X18683Y8500
X18683Y7900
X18083Y7900
X17533Y7900
X18033Y8500
X20183Y8700
X20183Y7900
X20183Y9500
X21583Y9690
X22333Y9690
X22333Y10140
X22333Y10640
X21583Y10640
X21583Y11140
X21583Y11640
X22333Y11640
X22333Y11140
X22333Y12140
X21583Y12140
X21583Y12640
X22333Y12640
X22333Y13140
X21583Y13140
X21583Y13640
X21583Y14140
X22333Y14140
X22333Y13640
X22333Y14640
X21583Y14640
X21583Y15140
X22333Y15140
X22333Y15640
X21583Y15640
X21583Y16140
X21583Y16640
X22333Y16640
X22333Y16140
X23333Y16140
X23333Y16640
X24333Y16640
X24333Y16140
X24333Y15640
X24333Y15140
X24333Y14640
X24333Y14140
X24333Y13640
X24333Y13140
X24333Y12640
X24333Y12140
X24333Y11640
X24333Y11140
X24333Y10640
X24333Y10140
X24333Y9690
X25133Y9690
X25133Y10140
X25133Y10640
X25133Y11140
X25133Y11640
X25133Y12140
X25133Y12640
X25133Y13140
X25133Y13640
X25133Y14140
X25133Y14640
X25133Y15140
X25133Y15640
X25133Y16140
X25133Y16640
X26083Y17190
X26583Y17190
X27083Y17190
X27583Y17190
X28483Y17140
X28833Y16890
X28483Y16640
X28733Y16190
X28483Y15640
X29033Y15640
X28633Y15190
X28083Y15190
X27583Y15190
X27683Y16190
X29733Y15990
X29833Y15390
X29833Y14087
X29833Y13690
X29833Y13340
X28083Y12290
X28083Y11790
X28233Y11290
X28233Y10790
X28233Y10290
X28233Y9790
X28026Y9417
X28333Y9000
X28333Y8500
X28833Y8500
X29333Y8500
X29333Y9000
X28833Y9000
X29233Y9790
X29233Y10290
X29233Y10790
X30233Y10790
X30233Y10290
X30233Y9790
X31083Y11640
X31133Y12200
X27333Y12680
X26833Y12890
X26483Y12843
X26933Y12190
X26683Y11840
X26233Y11990
X26747Y10904
X27083Y10840
X27383Y9460
X26283Y8850
X26070Y9454
X23333Y9690
X23333Y10140
X23333Y10640
X23333Y11140
X23333Y11640
X23333Y12140
X23333Y12640
X23333Y13140
X23333Y13640
X23333Y14140
X23333Y14640
X23333Y15140
X23333Y15640
X20933Y14540
X20333Y14390
X20933Y14140
X20333Y14740
X19843Y15220
X19353Y15260
X18833Y15240
X18833Y14840
X17833Y14890
X17833Y14490
X17833Y14087
X18533Y13190
X18533Y12590
X20133Y11990
X17133Y11640
X16633Y11640
X16133Y11640
X15633Y11640
X15633Y10890
X16133Y10890
X16633Y10890
X17133Y10890
X17133Y12390
X16633Y12390
X16133Y12240
X15633Y12240
X16633Y12890
X17133Y12890
X16133Y13390
X15633Y13390
X15633Y14140
X16133Y14140
X17624Y15280
X15633Y15640
X15633Y16390
X15643Y17190
X16333Y17100
X16933Y17100
X17733Y17290
X17033Y17890
X17033Y18390
X16333Y18390
X15633Y18390
X15633Y17890
X16333Y17890
X17633Y19490
X19813Y18420
X19223Y17580
X18833Y17640
X20383Y16640
X21833Y18090
X21083Y19490
X24333Y18990
X24333Y18390
X25333Y18990
X25833Y18390
X28333Y18040
X29333Y17690
X30733Y17490
X30733Y18090
X30733Y16890
X27033Y13690
X26083Y14140
X25883Y14490
T02
X26663Y9140
T03
X20461Y18639
X18186Y18639
T04
X22833Y19990
X23833Y19990
X24833Y19990
X25833Y19990
X26833Y19990
X27833Y19990
X28833Y19990
X27833Y8000
X26833Y8000
X25833Y8000
X24833Y8000
X23833Y8000
X22833Y8000
X21833Y8000
X20833Y8000
T05
X16333Y8500
X30333Y8500
X30333Y19490
X16333Y19490
M30
