G75*
%MOIN*%
%OFA0B0*%
%FSLAX25Y25*%
%IPPOS*%
%LPD*%
%AMOC8*
5,1,8,0,0,1.08239X$1,22.5*
%
%ADD10C,0.00299*%
%ADD11C,0.00800*%
%ADD12R,0.00157X0.13858*%
%ADD13R,0.00157X0.14331*%
%ADD14R,0.00157X0.14646*%
%ADD15R,0.00157X0.14961*%
%ADD16R,0.00157X0.15118*%
%ADD17R,0.00157X0.15276*%
%ADD18R,0.00157X0.15433*%
%ADD19R,0.00157X0.02835*%
%ADD20R,0.00157X0.11969*%
%ADD21R,0.00157X0.02520*%
%ADD22R,0.00157X0.01102*%
%ADD23R,0.00157X0.03150*%
%ADD24R,0.00157X0.04567*%
%ADD25R,0.00157X0.02205*%
%ADD26R,0.00157X0.00787*%
%ADD27R,0.00157X0.02677*%
%ADD28R,0.00157X0.04409*%
%ADD29R,0.00157X0.02047*%
%ADD30R,0.00157X0.00630*%
%ADD31R,0.00157X0.01890*%
%ADD32R,0.00157X0.01732*%
%ADD33R,0.00157X0.01575*%
%ADD34R,0.00157X0.00945*%
%ADD35R,0.00157X0.02362*%
%ADD36R,0.00157X0.01260*%
%ADD37R,0.00157X0.01417*%
%ADD38R,0.00157X0.04252*%
%ADD39R,0.00157X0.00315*%
%ADD40R,0.00157X0.04094*%
%ADD41R,0.00157X0.00472*%
%ADD42R,0.00157X0.03937*%
%ADD43R,0.00157X0.03307*%
%ADD44R,0.00157X0.03780*%
%ADD45R,0.00157X0.03465*%
%ADD46R,0.00157X0.02992*%
%ADD47R,0.00157X0.12913*%
%ADD48R,0.00157X0.13386*%
%ADD49R,0.00157X0.13701*%
%ADD50R,0.00157X0.14016*%
%ADD51R,0.00157X0.14173*%
%ADD52R,0.00157X0.14488*%
%ADD53R,0.00157X0.07087*%
%ADD54R,0.00157X0.04882*%
%ADD55R,0.00157X0.05039*%
%ADD56R,0.00157X0.05197*%
%ADD57R,0.00157X0.03622*%
%ADD58R,0.00157X0.00157*%
%ADD59R,0.00157X0.11024*%
%ADD60R,0.07205X0.00118*%
%ADD61R,0.07913X0.00118*%
%ADD62R,0.08386X0.00079*%
%ADD63R,0.08858X0.00157*%
%ADD64R,0.09094X0.00118*%
%ADD65R,0.09331X0.00118*%
%ADD66R,0.09567X0.00079*%
%ADD67R,0.03661X0.00118*%
%ADD68R,0.02126X0.00118*%
%ADD69R,0.02953X0.00118*%
%ADD70R,0.02244X0.00157*%
%ADD71R,0.00591X0.00157*%
%ADD72R,0.01535X0.00157*%
%ADD73R,0.02598X0.00157*%
%ADD74R,0.02244X0.00118*%
%ADD75R,0.00472X0.00118*%
%ADD76R,0.01181X0.00118*%
%ADD77R,0.02362X0.00118*%
%ADD78R,0.00945X0.00118*%
%ADD79R,0.00354X0.00118*%
%ADD80R,0.00827X0.00118*%
%ADD81R,0.02480X0.00157*%
%ADD82R,0.00354X0.00157*%
%ADD83R,0.00236X0.00157*%
%ADD84R,0.02480X0.00118*%
%ADD85R,0.02598X0.00118*%
%ADD86R,0.01063X0.00118*%
%ADD87R,0.02835X0.00118*%
%ADD88R,0.00472X0.00157*%
%ADD89R,0.04252X0.00157*%
%ADD90R,0.04370X0.00118*%
%ADD91R,0.00591X0.00118*%
%ADD92R,0.04488X0.00118*%
%ADD93R,0.00709X0.00157*%
%ADD94R,0.04488X0.00157*%
%ADD95R,0.00236X0.00118*%
%ADD96R,0.00118X0.00118*%
%ADD97R,0.00118X0.00157*%
%ADD98R,0.04370X0.00157*%
%ADD99R,0.04252X0.00118*%
%ADD100R,0.02717X0.00118*%
%ADD101R,0.03071X0.00157*%
%ADD102R,0.03425X0.00118*%
%ADD103R,0.09567X0.00118*%
%ADD104R,0.08858X0.00118*%
%ADD105R,0.08386X0.00118*%
%ADD106R,0.00157X0.12756*%
%ADD107R,0.01181X0.00236*%
%ADD108R,0.00945X0.00236*%
%ADD109R,0.01654X0.00236*%
%ADD110R,0.01417X0.00236*%
%ADD111R,0.00472X0.00236*%
%ADD112R,0.02126X0.00236*%
%ADD113R,0.00709X0.00236*%
%ADD114R,0.03543X0.00236*%
%ADD115R,0.02835X0.00236*%
%ADD116R,0.04016X0.00236*%
%ADD117R,0.03307X0.00236*%
%ADD118R,0.03780X0.00236*%
%ADD119R,0.01890X0.00236*%
%ADD120R,0.04252X0.00236*%
%ADD121R,0.04488X0.00236*%
%ADD122R,0.03071X0.00236*%
%ADD123R,0.02598X0.00236*%
%ADD124R,0.02362X0.00236*%
%ADD125R,0.00236X0.00236*%
%ADD126R,0.00472X0.00079*%
%ADD127R,0.01339X0.00079*%
%ADD128R,0.01260X0.00079*%
%ADD129R,0.00551X0.00079*%
%ADD130R,0.01102X0.00079*%
%ADD131R,0.01417X0.00079*%
%ADD132R,0.01654X0.00079*%
%ADD133R,0.01496X0.00079*%
%ADD134R,0.01890X0.00079*%
%ADD135R,0.02126X0.00079*%
%ADD136R,0.02205X0.00079*%
%ADD137R,0.01575X0.00079*%
%ADD138R,0.02520X0.00079*%
%ADD139R,0.02441X0.00079*%
%ADD140R,0.02756X0.00079*%
%ADD141R,0.02598X0.00079*%
%ADD142R,0.02913X0.00079*%
%ADD143R,0.04252X0.00079*%
%ADD144R,0.03150X0.00079*%
%ADD145R,0.04331X0.00079*%
%ADD146R,0.01732X0.00079*%
%ADD147R,0.03307X0.00079*%
%ADD148R,0.04409X0.00079*%
%ADD149R,0.01811X0.00079*%
%ADD150R,0.03386X0.00079*%
%ADD151R,0.03543X0.00079*%
%ADD152R,0.04488X0.00079*%
%ADD153R,0.03622X0.00079*%
%ADD154R,0.04567X0.00079*%
%ADD155R,0.03780X0.00079*%
%ADD156R,0.01969X0.00079*%
%ADD157R,0.02047X0.00079*%
%ADD158R,0.03701X0.00079*%
%ADD159R,0.01024X0.00079*%
%ADD160R,0.00709X0.00079*%
%ADD161R,0.02283X0.00079*%
%ADD162R,0.00236X0.00079*%
%ADD163R,0.02362X0.00079*%
%ADD164R,0.01181X0.00079*%
%ADD165R,0.00157X0.00079*%
%ADD166R,0.00394X0.00079*%
%ADD167R,0.00630X0.00079*%
%ADD168R,0.00866X0.00079*%
%ADD169R,0.03858X0.00079*%
%ADD170R,0.03465X0.00079*%
%ADD171R,0.02992X0.00079*%
%ADD172R,0.04173X0.00079*%
%ADD173R,0.02835X0.00079*%
%ADD174R,0.03228X0.00079*%
%ADD175R,0.04646X0.00079*%
%ADD176R,0.05276X0.00079*%
%ADD177R,0.05748X0.00079*%
%ADD178R,0.06299X0.00079*%
%ADD179R,0.06693X0.00079*%
%ADD180R,0.07165X0.00079*%
%ADD181R,0.07480X0.00079*%
%ADD182R,0.07795X0.00079*%
%ADD183R,0.08268X0.00079*%
%ADD184R,0.08504X0.00079*%
%ADD185R,0.08898X0.00079*%
%ADD186R,0.09213X0.00079*%
%ADD187R,0.09449X0.00079*%
%ADD188R,0.09764X0.00079*%
%ADD189R,0.10000X0.00079*%
%ADD190R,0.10236X0.00079*%
%ADD191R,0.10551X0.00079*%
%ADD192R,0.10709X0.00079*%
%ADD193R,0.11024X0.00079*%
%ADD194R,0.11181X0.00079*%
%ADD195R,0.11417X0.00079*%
%ADD196R,0.11654X0.00079*%
%ADD197R,0.11811X0.00079*%
%ADD198R,0.12047X0.00079*%
%ADD199R,0.12283X0.00079*%
%ADD200R,0.12441X0.00079*%
%ADD201R,0.12598X0.00079*%
%ADD202R,0.12835X0.00079*%
%ADD203R,0.12992X0.00079*%
%ADD204R,0.13150X0.00079*%
%ADD205R,0.13307X0.00079*%
%ADD206R,0.13465X0.00079*%
%ADD207R,0.13622X0.00079*%
%ADD208R,0.13858X0.00079*%
%ADD209R,0.13937X0.00079*%
%ADD210R,0.14094X0.00079*%
%ADD211R,0.14252X0.00079*%
%ADD212R,0.14409X0.00079*%
%ADD213R,0.14567X0.00079*%
%ADD214R,0.14724X0.00079*%
%ADD215R,0.14882X0.00079*%
%ADD216R,0.14961X0.00079*%
%ADD217R,0.15118X0.00079*%
%ADD218R,0.15197X0.00079*%
%ADD219R,0.15354X0.00079*%
%ADD220R,0.15512X0.00079*%
%ADD221R,0.15591X0.00079*%
%ADD222R,0.15669X0.00079*%
%ADD223R,0.15827X0.00079*%
%ADD224R,0.15984X0.00079*%
%ADD225R,0.16063X0.00079*%
%ADD226R,0.16142X0.00079*%
%ADD227R,0.16220X0.00079*%
%ADD228R,0.16378X0.00079*%
%ADD229R,0.16457X0.00079*%
%ADD230R,0.16535X0.00079*%
%ADD231R,0.16693X0.00079*%
%ADD232R,0.16772X0.00079*%
%ADD233R,0.16850X0.00079*%
%ADD234R,0.16929X0.00079*%
%ADD235R,0.17008X0.00079*%
%ADD236R,0.17087X0.00079*%
%ADD237R,0.17244X0.00079*%
%ADD238R,0.17323X0.00079*%
%ADD239R,0.17480X0.00079*%
%ADD240R,0.17559X0.00079*%
%ADD241R,0.17717X0.00079*%
%ADD242R,0.17795X0.00079*%
%ADD243R,0.17874X0.00079*%
%ADD244R,0.17953X0.00079*%
%ADD245R,0.18031X0.00079*%
%ADD246R,0.18110X0.00079*%
%ADD247R,0.18189X0.00079*%
%ADD248R,0.18268X0.00079*%
%ADD249R,0.18346X0.00079*%
%ADD250R,0.18425X0.00079*%
%ADD251R,0.18504X0.00079*%
%ADD252R,0.18583X0.00079*%
%ADD253R,0.18661X0.00079*%
%ADD254R,0.02677X0.00079*%
%ADD255R,0.05827X0.00079*%
%ADD256R,0.06220X0.00079*%
%ADD257R,0.06142X0.00079*%
%ADD258R,0.06063X0.00079*%
%ADD259R,0.05984X0.00079*%
%ADD260R,0.05906X0.00079*%
%ADD261R,0.05669X0.00079*%
%ADD262R,0.05512X0.00079*%
%ADD263R,0.05591X0.00079*%
%ADD264R,0.05433X0.00079*%
%ADD265R,0.05354X0.00079*%
%ADD266R,0.05197X0.00079*%
%ADD267R,0.05118X0.00079*%
%ADD268R,0.04961X0.00079*%
%ADD269R,0.04803X0.00079*%
%ADD270R,0.04724X0.00079*%
%ADD271R,0.04094X0.00079*%
%ADD272R,0.04016X0.00079*%
%ADD273R,0.03937X0.00079*%
%ADD274R,0.05039X0.00079*%
%ADD275R,0.03071X0.00079*%
%ADD276R,0.04882X0.00079*%
%ADD277R,0.00079X0.00079*%
%ADD278R,0.07244X0.00079*%
%ADD279R,0.07087X0.00079*%
%ADD280R,0.07008X0.00079*%
%ADD281R,0.06929X0.00079*%
%ADD282R,0.06850X0.00079*%
%ADD283R,0.06614X0.00079*%
%ADD284R,0.06535X0.00079*%
%ADD285R,0.06378X0.00079*%
%ADD286R,0.00157X0.11181*%
%ADD287R,0.00157X0.11496*%
%ADD288R,0.00157X0.11654*%
%ADD289R,0.00157X0.13071*%
%ADD290R,0.00157X0.13228*%
%ADD291R,0.00157X0.11811*%
%ADD292R,0.00157X0.14803*%
%ADD293R,0.00157X0.15906*%
%ADD294R,0.00157X0.16063*%
%ADD295R,0.00157X0.16220*%
%ADD296R,0.00157X0.16378*%
%ADD297R,0.00157X0.09921*%
%ADD298R,0.10039X0.00079*%
%ADD299R,0.10512X0.00157*%
%ADD300R,0.10748X0.00118*%
%ADD301R,0.10984X0.00118*%
%ADD302R,0.11220X0.00079*%
%ADD303R,0.03543X0.00157*%
%ADD304R,0.02835X0.00157*%
%ADD305R,0.03543X0.00118*%
%ADD306R,0.03661X0.00157*%
%ADD307R,0.00709X0.00118*%
%ADD308R,0.03780X0.00118*%
%ADD309R,0.03780X0.00157*%
%ADD310R,0.00945X0.00157*%
%ADD311R,0.00827X0.00157*%
%ADD312R,0.01654X0.00157*%
%ADD313R,0.02717X0.00157*%
%ADD314R,0.01417X0.00118*%
%ADD315R,0.01299X0.00118*%
%ADD316R,0.01181X0.00157*%
%ADD317R,0.03189X0.00118*%
%ADD318R,0.02008X0.00118*%
%ADD319R,0.02362X0.00157*%
%ADD320R,0.01890X0.00157*%
%ADD321R,0.01890X0.00118*%
%ADD322R,0.02126X0.00157*%
%ADD323R,0.11220X0.00118*%
%ADD324R,0.10512X0.00118*%
%ADD325R,0.10039X0.00118*%
%ADD326R,0.08622X0.00118*%
%ADD327R,0.09094X0.00079*%
%ADD328R,0.09567X0.00157*%
%ADD329R,0.09803X0.00118*%
%ADD330R,0.10276X0.00079*%
%ADD331R,0.01299X0.00157*%
%ADD332R,0.01772X0.00118*%
%ADD333R,0.10276X0.00118*%
%ADD334R,0.00157X0.10551*%
%ADD335R,0.00157X0.07874*%
%ADD336R,0.00157X0.08031*%
%ADD337R,0.00157X0.08346*%
%ADD338R,0.00157X0.08504*%
%ADD339R,0.00157X0.09606*%
%ADD340R,0.00157X0.09764*%
%ADD341R,0.00157X0.10079*%
%ADD342R,0.00157X0.08661*%
%ADD343R,0.00157X0.23425*%
%ADD344R,0.00118X0.23543*%
%ADD345R,0.00157X0.23819*%
%ADD346R,0.00118X0.23976*%
%ADD347R,0.00157X0.24094*%
%ADD348R,0.00118X0.24252*%
%ADD349R,0.00157X0.13898*%
%ADD350R,0.00118X0.04961*%
%ADD351R,0.00118X0.02205*%
%ADD352R,0.00118X0.06063*%
%ADD353R,0.00118X0.02756*%
%ADD354R,0.00118X0.03701*%
%ADD355R,0.00157X0.01772*%
%ADD356R,0.00157X0.01929*%
%ADD357R,0.00157X0.00433*%
%ADD358R,0.00157X0.01535*%
%ADD359R,0.00157X0.01811*%
%ADD360R,0.00157X0.00984*%
%ADD361R,0.00157X0.01496*%
%ADD362R,0.00118X0.01929*%
%ADD363R,0.00118X0.00827*%
%ADD364R,0.00118X0.01654*%
%ADD365R,0.00118X0.01772*%
%ADD366R,0.00118X0.00433*%
%ADD367R,0.00118X0.02047*%
%ADD368R,0.00118X0.01102*%
%ADD369R,0.00118X0.01496*%
%ADD370R,0.00118X0.00709*%
%ADD371R,0.00157X0.00551*%
%ADD372R,0.00157X0.01378*%
%ADD373R,0.00157X0.01654*%
%ADD374R,0.00118X0.00394*%
%ADD375R,0.00118X0.01260*%
%ADD376R,0.00118X0.00551*%
%ADD377R,0.00118X0.00984*%
%ADD378R,0.00157X0.02323*%
%ADD379R,0.00157X0.00669*%
%ADD380R,0.00157X0.00709*%
%ADD381R,0.00118X0.02480*%
%ADD382R,0.00118X0.00669*%
%ADD383R,0.00157X0.02598*%
%ADD384R,0.00157X0.00394*%
%ADD385R,0.00157X0.00827*%
%ADD386R,0.00118X0.02598*%
%ADD387R,0.00118X0.01811*%
%ADD388R,0.00118X0.02087*%
%ADD389R,0.00157X0.02756*%
%ADD390R,0.00118X0.02874*%
%ADD391R,0.00157X0.02874*%
%ADD392R,0.00118X0.00276*%
%ADD393R,0.00157X0.00118*%
%ADD394R,0.00157X0.00276*%
%ADD395R,0.00118X0.01378*%
%ADD396R,0.00118X0.01535*%
%ADD397R,0.00118X0.01220*%
%ADD398R,0.00118X0.00945*%
%ADD399R,0.00157X0.01220*%
%ADD400R,0.00157X0.08268*%
%ADD401R,0.00118X0.08425*%
%ADD402R,0.00118X0.15433*%
%ADD403R,0.00157X0.26299*%
%ADD404R,0.00118X0.26181*%
%ADD405R,0.00157X0.26024*%
%ADD406R,0.00118X0.25906*%
%ADD407R,0.00157X0.25748*%
%ADD408R,0.00118X0.25630*%
%ADD409R,0.00157X0.14055*%
%ADD410R,0.00118X0.05787*%
%ADD411R,0.00118X0.06772*%
%ADD412R,0.00118X0.03031*%
%ADD413R,0.00157X0.02480*%
%ADD414R,0.00118X0.02323*%
%ADD415R,0.00118X0.02362*%
%ADD416R,0.00118X0.02638*%
%ADD417R,0.00118X0.02913*%
%ADD418R,0.00157X0.03031*%
%ADD419R,0.00118X0.03307*%
%ADD420R,0.00157X0.09370*%
%ADD421R,0.00118X0.09803*%
%ADD422R,0.00118X0.15551*%
%ADD423C,0.00300*%
%ADD424R,0.00551X0.00276*%
%ADD425R,0.00276X0.00276*%
%ADD426R,0.04409X0.00276*%
%ADD427R,0.01654X0.00276*%
%ADD428R,0.01654X0.00315*%
%ADD429R,0.05512X0.00315*%
%ADD430R,0.03031X0.00315*%
%ADD431R,0.01929X0.00276*%
%ADD432R,0.05787X0.00276*%
%ADD433R,0.04134X0.00276*%
%ADD434R,0.03583X0.00276*%
%ADD435R,0.02205X0.00236*%
%ADD436R,0.01929X0.00236*%
%ADD437R,0.05787X0.00236*%
%ADD438R,0.04685X0.00236*%
%ADD439R,0.04134X0.00236*%
%ADD440R,0.02205X0.00315*%
%ADD441R,0.01929X0.00315*%
%ADD442R,0.05787X0.00315*%
%ADD443R,0.05236X0.00315*%
%ADD444R,0.02480X0.00315*%
%ADD445R,0.04409X0.00315*%
%ADD446R,0.02480X0.00276*%
%ADD447R,0.02756X0.00276*%
%ADD448R,0.04685X0.00276*%
%ADD449R,0.05512X0.00276*%
%ADD450R,0.06339X0.00276*%
%ADD451R,0.02205X0.00276*%
%ADD452R,0.03031X0.00236*%
%ADD453R,0.02480X0.00236*%
%ADD454R,0.03307X0.00315*%
%ADD455R,0.03307X0.00276*%
%ADD456R,0.03858X0.00276*%
%ADD457R,0.04961X0.00276*%
%ADD458R,0.07992X0.00276*%
%ADD459R,0.03858X0.00315*%
%ADD460R,0.04685X0.00315*%
%ADD461R,0.03583X0.00315*%
%ADD462R,0.03031X0.00276*%
%ADD463R,0.01378X0.00276*%
%ADD464R,0.06063X0.00276*%
%ADD465R,0.05236X0.00236*%
%ADD466R,0.03583X0.00236*%
%ADD467R,0.01378X0.00236*%
%ADD468R,0.00827X0.00276*%
%ADD469R,0.07441X0.00118*%
%ADD470R,0.08150X0.00118*%
%ADD471R,0.08622X0.00079*%
%ADD472R,0.09094X0.00157*%
%ADD473R,0.09803X0.00079*%
%ADD474R,0.06614X0.00118*%
%ADD475R,0.01063X0.00157*%
%ADD476R,0.01772X0.00157*%
%ADD477R,0.01535X0.00118*%
%ADD478R,0.03898X0.00157*%
%ADD479R,0.02008X0.00157*%
D10*
X0160355Y0174992D02*
X0159449Y0175898D01*
X0160276Y0177000D01*
X0160236Y0177079D01*
X0160197Y0177118D01*
X0160158Y0177197D01*
X0160158Y0177236D01*
X0160118Y0177315D01*
X0160079Y0177354D01*
X0160040Y0177433D01*
X0160040Y0177472D01*
X0159961Y0177630D01*
X0159961Y0177669D01*
X0159922Y0177748D01*
X0159922Y0177787D01*
X0159882Y0177866D01*
X0159882Y0177945D01*
X0159843Y0177984D01*
X0158465Y0178220D01*
X0158465Y0179480D01*
X0159882Y0179716D01*
X0159882Y0179874D01*
X0159922Y0179913D01*
X0159922Y0179992D01*
X0159961Y0180031D01*
X0160000Y0180110D01*
X0160000Y0180189D01*
X0160040Y0180228D01*
X0160040Y0180307D01*
X0160079Y0180346D01*
X0160118Y0180425D01*
X0160158Y0180464D01*
X0160158Y0180543D01*
X0160197Y0180583D01*
X0160236Y0180661D01*
X0160276Y0180701D01*
X0159449Y0181842D01*
X0160355Y0182709D01*
X0161496Y0181921D01*
X0161536Y0181961D01*
X0161614Y0182000D01*
X0161654Y0182000D01*
X0161733Y0182039D01*
X0161772Y0182079D01*
X0161851Y0182118D01*
X0161890Y0182118D01*
X0161969Y0182157D01*
X0162008Y0182197D01*
X0162087Y0182197D01*
X0162166Y0182236D01*
X0162205Y0182236D01*
X0162284Y0182275D01*
X0162323Y0182275D01*
X0162402Y0182315D01*
X0162481Y0182315D01*
X0162717Y0183693D01*
X0163977Y0183693D01*
X0164213Y0182315D01*
X0164252Y0182315D01*
X0164331Y0182275D01*
X0164410Y0182275D01*
X0164449Y0182236D01*
X0164528Y0182236D01*
X0164607Y0182197D01*
X0164646Y0182197D01*
X0164725Y0182157D01*
X0164764Y0182118D01*
X0164843Y0182118D01*
X0164882Y0182079D01*
X0164961Y0182039D01*
X0165000Y0182000D01*
X0165079Y0182000D01*
X0165118Y0181961D01*
X0165197Y0181921D01*
X0166339Y0182709D01*
X0167205Y0181842D01*
X0166418Y0180701D01*
X0166457Y0180661D01*
X0166457Y0180583D01*
X0166496Y0180543D01*
X0166536Y0180464D01*
X0166575Y0180425D01*
X0166575Y0180346D01*
X0166614Y0180307D01*
X0166654Y0180228D01*
X0166654Y0180189D01*
X0166733Y0180031D01*
X0166733Y0179992D01*
X0166772Y0179913D01*
X0166772Y0179874D01*
X0166811Y0179795D01*
X0166811Y0179716D01*
X0168189Y0179480D01*
X0168189Y0178220D01*
X0166811Y0177984D01*
X0166811Y0177945D01*
X0166772Y0177866D01*
X0166772Y0177787D01*
X0166733Y0177748D01*
X0166733Y0177669D01*
X0166693Y0177630D01*
X0166654Y0177551D01*
X0166654Y0177472D01*
X0166614Y0177433D01*
X0166614Y0177354D01*
X0166575Y0177315D01*
X0166536Y0177236D01*
X0166496Y0177197D01*
X0166457Y0177118D01*
X0166457Y0177079D01*
X0166418Y0177000D01*
X0167205Y0175898D01*
X0166339Y0174992D01*
X0165197Y0175779D01*
X0165158Y0175779D01*
X0165118Y0175740D01*
X0165079Y0175740D01*
X0165040Y0175701D01*
X0165000Y0175701D01*
X0164961Y0175661D01*
X0164922Y0175661D01*
X0164882Y0175622D01*
X0164843Y0175622D01*
X0164803Y0175583D01*
X0164764Y0175583D01*
X0164725Y0175543D01*
X0164646Y0175543D01*
X0164607Y0175504D01*
X0163819Y0177630D01*
X0163937Y0177669D01*
X0164095Y0177748D01*
X0164173Y0177827D01*
X0164252Y0177866D01*
X0164331Y0177945D01*
X0164370Y0178023D01*
X0164449Y0178102D01*
X0164528Y0178260D01*
X0164567Y0178378D01*
X0164646Y0178535D01*
X0164646Y0178653D01*
X0164685Y0178772D01*
X0164685Y0179008D01*
X0164528Y0179480D01*
X0164370Y0179716D01*
X0164292Y0179795D01*
X0164173Y0179874D01*
X0164095Y0179953D01*
X0163977Y0180031D01*
X0163859Y0180071D01*
X0163740Y0180149D01*
X0163622Y0180149D01*
X0163465Y0180189D01*
X0163189Y0180189D01*
X0163071Y0180149D01*
X0162953Y0180149D01*
X0162835Y0180071D01*
X0162717Y0180031D01*
X0162481Y0179874D01*
X0162323Y0179716D01*
X0162166Y0179480D01*
X0162126Y0179362D01*
X0162048Y0179244D01*
X0162048Y0179126D01*
X0162008Y0179008D01*
X0162008Y0178653D01*
X0162048Y0178535D01*
X0162048Y0178457D01*
X0162087Y0178378D01*
X0162126Y0178260D01*
X0162166Y0178181D01*
X0162244Y0178102D01*
X0162284Y0178023D01*
X0162441Y0177866D01*
X0162520Y0177827D01*
X0162599Y0177748D01*
X0162835Y0177630D01*
X0162048Y0175504D01*
X0162048Y0175543D01*
X0161969Y0175543D01*
X0161929Y0175583D01*
X0161890Y0175583D01*
X0161851Y0175622D01*
X0161811Y0175622D01*
X0161772Y0175661D01*
X0161693Y0175661D01*
X0161654Y0175701D01*
X0161614Y0175701D01*
X0161536Y0175779D01*
X0161496Y0175779D01*
X0160355Y0174992D01*
X0160311Y0175035D02*
X0160417Y0175035D01*
X0160014Y0175333D02*
X0160849Y0175333D01*
X0161281Y0175631D02*
X0159716Y0175631D01*
X0159472Y0175928D02*
X0162205Y0175928D01*
X0162095Y0175631D02*
X0161803Y0175631D01*
X0162315Y0176226D02*
X0159696Y0176226D01*
X0159919Y0176524D02*
X0162425Y0176524D01*
X0162536Y0176822D02*
X0160142Y0176822D01*
X0160196Y0177119D02*
X0162646Y0177119D01*
X0162756Y0177417D02*
X0160048Y0177417D01*
X0159938Y0177715D02*
X0162665Y0177715D01*
X0162295Y0178012D02*
X0159677Y0178012D01*
X0158465Y0178310D02*
X0162109Y0178310D01*
X0162023Y0178608D02*
X0158465Y0178608D01*
X0158465Y0178906D02*
X0162008Y0178906D01*
X0162048Y0179203D02*
X0158465Y0179203D01*
X0158590Y0179501D02*
X0162180Y0179501D01*
X0162405Y0179799D02*
X0159882Y0179799D01*
X0159993Y0180097D02*
X0162874Y0180097D01*
X0163820Y0180097D02*
X0166700Y0180097D01*
X0166809Y0179799D02*
X0164286Y0179799D01*
X0164514Y0179501D02*
X0168067Y0179501D01*
X0168189Y0179203D02*
X0164620Y0179203D01*
X0164685Y0178906D02*
X0168189Y0178906D01*
X0168189Y0178608D02*
X0164646Y0178608D01*
X0164545Y0178310D02*
X0168189Y0178310D01*
X0166977Y0178012D02*
X0164365Y0178012D01*
X0164028Y0177715D02*
X0166733Y0177715D01*
X0166614Y0177417D02*
X0163898Y0177417D01*
X0164008Y0177119D02*
X0166458Y0177119D01*
X0166545Y0176822D02*
X0164119Y0176822D01*
X0164229Y0176524D02*
X0166758Y0176524D01*
X0166970Y0176226D02*
X0164339Y0176226D01*
X0164449Y0175928D02*
X0167183Y0175928D01*
X0166950Y0175631D02*
X0165413Y0175631D01*
X0164891Y0175631D02*
X0164560Y0175631D01*
X0165844Y0175333D02*
X0166665Y0175333D01*
X0166380Y0175035D02*
X0166276Y0175035D01*
X0166575Y0180394D02*
X0160103Y0180394D01*
X0160267Y0180692D02*
X0166426Y0180692D01*
X0166617Y0180990D02*
X0160067Y0180990D01*
X0159851Y0181287D02*
X0166822Y0181287D01*
X0167028Y0181585D02*
X0159635Y0181585D01*
X0159491Y0181883D02*
X0167164Y0181883D01*
X0166867Y0182181D02*
X0165573Y0182181D01*
X0166005Y0182478D02*
X0166569Y0182478D01*
X0164678Y0182181D02*
X0161992Y0182181D01*
X0162509Y0182478D02*
X0164185Y0182478D01*
X0164134Y0182776D02*
X0162560Y0182776D01*
X0162611Y0183074D02*
X0164083Y0183074D01*
X0164032Y0183372D02*
X0162662Y0183372D01*
X0162713Y0183669D02*
X0163981Y0183669D01*
X0161120Y0182181D02*
X0159803Y0182181D01*
X0160114Y0182478D02*
X0160688Y0182478D01*
D11*
X0168333Y0167900D02*
X0178333Y0167900D01*
X0178416Y0167898D01*
X0178499Y0167892D01*
X0178582Y0167883D01*
X0178664Y0167869D01*
X0178745Y0167852D01*
X0178826Y0167831D01*
X0178905Y0167807D01*
X0178983Y0167778D01*
X0179060Y0167747D01*
X0179135Y0167711D01*
X0179209Y0167673D01*
X0179281Y0167630D01*
X0179350Y0167585D01*
X0179418Y0167536D01*
X0179483Y0167485D01*
X0179546Y0167430D01*
X0179606Y0167373D01*
X0179663Y0167313D01*
X0179718Y0167250D01*
X0179769Y0167185D01*
X0179818Y0167117D01*
X0179863Y0167048D01*
X0179906Y0166976D01*
X0179944Y0166902D01*
X0179980Y0166827D01*
X0180011Y0166750D01*
X0180040Y0166672D01*
X0180064Y0166593D01*
X0180085Y0166512D01*
X0180102Y0166431D01*
X0180116Y0166349D01*
X0180125Y0166266D01*
X0180131Y0166183D01*
X0180133Y0166100D01*
X0180133Y0161700D01*
X0180131Y0161617D01*
X0180125Y0161534D01*
X0180116Y0161451D01*
X0180102Y0161369D01*
X0180085Y0161288D01*
X0180064Y0161207D01*
X0180040Y0161128D01*
X0180011Y0161050D01*
X0179980Y0160973D01*
X0179944Y0160898D01*
X0179906Y0160824D01*
X0179863Y0160752D01*
X0179818Y0160683D01*
X0179769Y0160615D01*
X0179718Y0160550D01*
X0179663Y0160487D01*
X0179606Y0160427D01*
X0179546Y0160370D01*
X0179483Y0160315D01*
X0179418Y0160264D01*
X0179350Y0160215D01*
X0179281Y0160170D01*
X0179209Y0160127D01*
X0179135Y0160089D01*
X0179060Y0160053D01*
X0178983Y0160022D01*
X0178905Y0159993D01*
X0178826Y0159969D01*
X0178745Y0159948D01*
X0178664Y0159931D01*
X0178582Y0159917D01*
X0178499Y0159908D01*
X0178416Y0159902D01*
X0178333Y0159900D01*
X0168333Y0159900D01*
X0168250Y0159902D01*
X0168167Y0159908D01*
X0168084Y0159917D01*
X0168002Y0159931D01*
X0167921Y0159948D01*
X0167840Y0159969D01*
X0167761Y0159993D01*
X0167683Y0160022D01*
X0167606Y0160053D01*
X0167531Y0160089D01*
X0167457Y0160127D01*
X0167385Y0160170D01*
X0167316Y0160215D01*
X0167248Y0160264D01*
X0167183Y0160315D01*
X0167120Y0160370D01*
X0167060Y0160427D01*
X0167003Y0160487D01*
X0166948Y0160550D01*
X0166897Y0160615D01*
X0166848Y0160683D01*
X0166803Y0160752D01*
X0166760Y0160824D01*
X0166722Y0160898D01*
X0166686Y0160973D01*
X0166655Y0161050D01*
X0166626Y0161128D01*
X0166602Y0161207D01*
X0166581Y0161288D01*
X0166564Y0161369D01*
X0166550Y0161451D01*
X0166541Y0161534D01*
X0166535Y0161617D01*
X0166533Y0161700D01*
X0166533Y0166100D01*
X0166535Y0166183D01*
X0166541Y0166266D01*
X0166550Y0166349D01*
X0166564Y0166431D01*
X0166581Y0166512D01*
X0166602Y0166593D01*
X0166626Y0166672D01*
X0166655Y0166750D01*
X0166686Y0166827D01*
X0166722Y0166902D01*
X0166760Y0166976D01*
X0166803Y0167048D01*
X0166848Y0167117D01*
X0166897Y0167185D01*
X0166948Y0167250D01*
X0167003Y0167313D01*
X0167060Y0167373D01*
X0167120Y0167430D01*
X0167183Y0167485D01*
X0167248Y0167536D01*
X0167316Y0167585D01*
X0167385Y0167630D01*
X0167457Y0167673D01*
X0167531Y0167711D01*
X0167606Y0167747D01*
X0167683Y0167778D01*
X0167761Y0167807D01*
X0167840Y0167831D01*
X0167921Y0167852D01*
X0168002Y0167869D01*
X0168084Y0167883D01*
X0168167Y0167892D01*
X0168250Y0167898D01*
X0168333Y0167900D01*
X0263933Y0116900D02*
X0263933Y0110900D01*
X0263935Y0110840D01*
X0263940Y0110779D01*
X0263949Y0110720D01*
X0263962Y0110661D01*
X0263978Y0110602D01*
X0263998Y0110545D01*
X0264021Y0110490D01*
X0264048Y0110435D01*
X0264077Y0110383D01*
X0264110Y0110332D01*
X0264146Y0110283D01*
X0264184Y0110237D01*
X0264226Y0110193D01*
X0264270Y0110151D01*
X0264316Y0110113D01*
X0264365Y0110077D01*
X0264416Y0110044D01*
X0264468Y0110015D01*
X0264523Y0109988D01*
X0264578Y0109965D01*
X0264635Y0109945D01*
X0264694Y0109929D01*
X0264753Y0109916D01*
X0264812Y0109907D01*
X0264873Y0109902D01*
X0264933Y0109900D01*
X0271733Y0109900D01*
X0271793Y0109902D01*
X0271854Y0109907D01*
X0271913Y0109916D01*
X0271972Y0109929D01*
X0272031Y0109945D01*
X0272088Y0109965D01*
X0272143Y0109988D01*
X0272198Y0110015D01*
X0272250Y0110044D01*
X0272301Y0110077D01*
X0272350Y0110113D01*
X0272396Y0110151D01*
X0272440Y0110193D01*
X0272482Y0110237D01*
X0272520Y0110283D01*
X0272556Y0110332D01*
X0272589Y0110383D01*
X0272618Y0110435D01*
X0272645Y0110490D01*
X0272668Y0110545D01*
X0272688Y0110602D01*
X0272704Y0110661D01*
X0272717Y0110720D01*
X0272726Y0110779D01*
X0272731Y0110840D01*
X0272733Y0110900D01*
X0272733Y0116900D01*
X0272731Y0116960D01*
X0272726Y0117021D01*
X0272717Y0117080D01*
X0272704Y0117139D01*
X0272688Y0117198D01*
X0272668Y0117255D01*
X0272645Y0117310D01*
X0272618Y0117365D01*
X0272589Y0117417D01*
X0272556Y0117468D01*
X0272520Y0117517D01*
X0272482Y0117563D01*
X0272440Y0117607D01*
X0272396Y0117649D01*
X0272350Y0117687D01*
X0272301Y0117723D01*
X0272250Y0117756D01*
X0272198Y0117785D01*
X0272143Y0117812D01*
X0272088Y0117835D01*
X0272031Y0117855D01*
X0271972Y0117871D01*
X0271913Y0117884D01*
X0271854Y0117893D01*
X0271793Y0117898D01*
X0271733Y0117900D01*
X0264933Y0117900D01*
X0264873Y0117898D01*
X0264812Y0117893D01*
X0264753Y0117884D01*
X0264694Y0117871D01*
X0264635Y0117855D01*
X0264578Y0117835D01*
X0264523Y0117812D01*
X0264468Y0117785D01*
X0264416Y0117756D01*
X0264365Y0117723D01*
X0264316Y0117687D01*
X0264270Y0117649D01*
X0264226Y0117607D01*
X0264184Y0117563D01*
X0264146Y0117517D01*
X0264110Y0117468D01*
X0264077Y0117417D01*
X0264048Y0117365D01*
X0264021Y0117310D01*
X0263998Y0117255D01*
X0263978Y0117198D01*
X0263962Y0117139D01*
X0263949Y0117080D01*
X0263940Y0117021D01*
X0263935Y0116960D01*
X0263933Y0116900D01*
X0286533Y0115000D02*
X0286533Y0110600D01*
X0286535Y0110517D01*
X0286541Y0110434D01*
X0286550Y0110351D01*
X0286564Y0110269D01*
X0286581Y0110188D01*
X0286602Y0110107D01*
X0286626Y0110028D01*
X0286655Y0109950D01*
X0286686Y0109873D01*
X0286722Y0109798D01*
X0286760Y0109724D01*
X0286803Y0109652D01*
X0286848Y0109583D01*
X0286897Y0109515D01*
X0286948Y0109450D01*
X0287003Y0109387D01*
X0287060Y0109327D01*
X0287120Y0109270D01*
X0287183Y0109215D01*
X0287248Y0109164D01*
X0287316Y0109115D01*
X0287385Y0109070D01*
X0287457Y0109027D01*
X0287531Y0108989D01*
X0287606Y0108953D01*
X0287683Y0108922D01*
X0287761Y0108893D01*
X0287840Y0108869D01*
X0287921Y0108848D01*
X0288002Y0108831D01*
X0288084Y0108817D01*
X0288167Y0108808D01*
X0288250Y0108802D01*
X0288333Y0108800D01*
X0294333Y0108800D01*
X0294416Y0108802D01*
X0294499Y0108808D01*
X0294582Y0108817D01*
X0294664Y0108831D01*
X0294745Y0108848D01*
X0294826Y0108869D01*
X0294905Y0108893D01*
X0294983Y0108922D01*
X0295060Y0108953D01*
X0295135Y0108989D01*
X0295209Y0109027D01*
X0295281Y0109070D01*
X0295350Y0109115D01*
X0295418Y0109164D01*
X0295483Y0109215D01*
X0295546Y0109270D01*
X0295606Y0109327D01*
X0295663Y0109387D01*
X0295718Y0109450D01*
X0295769Y0109515D01*
X0295818Y0109583D01*
X0295863Y0109652D01*
X0295906Y0109724D01*
X0295944Y0109798D01*
X0295980Y0109873D01*
X0296011Y0109950D01*
X0296040Y0110028D01*
X0296064Y0110107D01*
X0296085Y0110188D01*
X0296102Y0110269D01*
X0296116Y0110351D01*
X0296125Y0110434D01*
X0296131Y0110517D01*
X0296133Y0110600D01*
X0296133Y0115000D01*
X0296131Y0115083D01*
X0296125Y0115166D01*
X0296116Y0115249D01*
X0296102Y0115331D01*
X0296085Y0115412D01*
X0296064Y0115493D01*
X0296040Y0115572D01*
X0296011Y0115650D01*
X0295980Y0115727D01*
X0295944Y0115802D01*
X0295906Y0115876D01*
X0295863Y0115948D01*
X0295818Y0116017D01*
X0295769Y0116085D01*
X0295718Y0116150D01*
X0295663Y0116213D01*
X0295606Y0116273D01*
X0295546Y0116330D01*
X0295483Y0116385D01*
X0295418Y0116436D01*
X0295350Y0116485D01*
X0295281Y0116530D01*
X0295209Y0116573D01*
X0295135Y0116611D01*
X0295060Y0116647D01*
X0294983Y0116678D01*
X0294905Y0116707D01*
X0294826Y0116731D01*
X0294745Y0116752D01*
X0294664Y0116769D01*
X0294582Y0116783D01*
X0294499Y0116792D01*
X0294416Y0116798D01*
X0294333Y0116800D01*
X0288333Y0116800D01*
X0288333Y0117900D02*
X0294333Y0117900D01*
X0294416Y0117902D01*
X0294499Y0117908D01*
X0294582Y0117917D01*
X0294664Y0117931D01*
X0294745Y0117948D01*
X0294826Y0117969D01*
X0294905Y0117993D01*
X0294983Y0118022D01*
X0295060Y0118053D01*
X0295135Y0118089D01*
X0295209Y0118127D01*
X0295281Y0118170D01*
X0295350Y0118215D01*
X0295418Y0118264D01*
X0295483Y0118315D01*
X0295546Y0118370D01*
X0295606Y0118427D01*
X0295663Y0118487D01*
X0295718Y0118550D01*
X0295769Y0118615D01*
X0295818Y0118683D01*
X0295863Y0118752D01*
X0295906Y0118824D01*
X0295944Y0118898D01*
X0295980Y0118973D01*
X0296011Y0119050D01*
X0296040Y0119128D01*
X0296064Y0119207D01*
X0296085Y0119288D01*
X0296102Y0119369D01*
X0296116Y0119451D01*
X0296125Y0119534D01*
X0296131Y0119617D01*
X0296133Y0119700D01*
X0296133Y0124100D01*
X0296131Y0124183D01*
X0296125Y0124266D01*
X0296116Y0124349D01*
X0296102Y0124431D01*
X0296085Y0124512D01*
X0296064Y0124593D01*
X0296040Y0124672D01*
X0296011Y0124750D01*
X0295980Y0124827D01*
X0295944Y0124902D01*
X0295906Y0124976D01*
X0295863Y0125048D01*
X0295818Y0125117D01*
X0295769Y0125185D01*
X0295718Y0125250D01*
X0295663Y0125313D01*
X0295606Y0125373D01*
X0295546Y0125430D01*
X0295483Y0125485D01*
X0295418Y0125536D01*
X0295350Y0125585D01*
X0295281Y0125630D01*
X0295209Y0125673D01*
X0295135Y0125711D01*
X0295060Y0125747D01*
X0294983Y0125778D01*
X0294905Y0125807D01*
X0294826Y0125831D01*
X0294745Y0125852D01*
X0294664Y0125869D01*
X0294582Y0125883D01*
X0294499Y0125892D01*
X0294416Y0125898D01*
X0294333Y0125900D01*
X0288333Y0125900D01*
X0288250Y0125898D01*
X0288167Y0125892D01*
X0288084Y0125883D01*
X0288002Y0125869D01*
X0287921Y0125852D01*
X0287840Y0125831D01*
X0287761Y0125807D01*
X0287683Y0125778D01*
X0287606Y0125747D01*
X0287531Y0125711D01*
X0287457Y0125673D01*
X0287385Y0125630D01*
X0287316Y0125585D01*
X0287248Y0125536D01*
X0287183Y0125485D01*
X0287120Y0125430D01*
X0287060Y0125373D01*
X0287003Y0125313D01*
X0286948Y0125250D01*
X0286897Y0125185D01*
X0286848Y0125117D01*
X0286803Y0125048D01*
X0286760Y0124976D01*
X0286722Y0124902D01*
X0286686Y0124827D01*
X0286655Y0124750D01*
X0286626Y0124672D01*
X0286602Y0124593D01*
X0286581Y0124512D01*
X0286564Y0124431D01*
X0286550Y0124349D01*
X0286541Y0124266D01*
X0286535Y0124183D01*
X0286533Y0124100D01*
X0286533Y0119700D01*
X0286535Y0119617D01*
X0286541Y0119534D01*
X0286550Y0119451D01*
X0286564Y0119369D01*
X0286581Y0119288D01*
X0286602Y0119207D01*
X0286626Y0119128D01*
X0286655Y0119050D01*
X0286686Y0118973D01*
X0286722Y0118898D01*
X0286760Y0118824D01*
X0286803Y0118752D01*
X0286848Y0118683D01*
X0286897Y0118615D01*
X0286948Y0118550D01*
X0287003Y0118487D01*
X0287060Y0118427D01*
X0287120Y0118370D01*
X0287183Y0118315D01*
X0287248Y0118264D01*
X0287316Y0118215D01*
X0287385Y0118170D01*
X0287457Y0118127D01*
X0287531Y0118089D01*
X0287606Y0118053D01*
X0287683Y0118022D01*
X0287761Y0117993D01*
X0287840Y0117969D01*
X0287921Y0117948D01*
X0288002Y0117931D01*
X0288084Y0117917D01*
X0288167Y0117908D01*
X0288250Y0117902D01*
X0288333Y0117900D01*
X0288333Y0116800D02*
X0288250Y0116798D01*
X0288167Y0116792D01*
X0288084Y0116783D01*
X0288002Y0116769D01*
X0287921Y0116752D01*
X0287840Y0116731D01*
X0287761Y0116707D01*
X0287683Y0116678D01*
X0287606Y0116647D01*
X0287531Y0116611D01*
X0287457Y0116573D01*
X0287385Y0116530D01*
X0287316Y0116485D01*
X0287248Y0116436D01*
X0287183Y0116385D01*
X0287120Y0116330D01*
X0287060Y0116273D01*
X0287003Y0116213D01*
X0286948Y0116150D01*
X0286897Y0116085D01*
X0286848Y0116017D01*
X0286803Y0115948D01*
X0286760Y0115876D01*
X0286722Y0115802D01*
X0286686Y0115727D01*
X0286655Y0115650D01*
X0286626Y0115572D01*
X0286602Y0115493D01*
X0286581Y0115412D01*
X0286564Y0115331D01*
X0286550Y0115249D01*
X0286541Y0115166D01*
X0286535Y0115083D01*
X0286533Y0115000D01*
D12*
X0271483Y0090319D03*
X0265184Y0090319D03*
D13*
X0265341Y0090555D03*
X0261483Y0090713D03*
X0261325Y0090713D03*
X0261168Y0090713D03*
X0261010Y0090713D03*
X0260853Y0090713D03*
X0260696Y0090713D03*
X0260538Y0090713D03*
X0256129Y0090713D03*
X0255971Y0090713D03*
X0255814Y0090713D03*
X0255656Y0090713D03*
X0255499Y0090713D03*
X0255341Y0090713D03*
X0255184Y0090713D03*
X0271325Y0090555D03*
X0275971Y0090555D03*
X0280696Y0090555D03*
X0231325Y0090343D03*
X0225341Y0090343D03*
X0210538Y0090555D03*
X0206129Y0090555D03*
X0245184Y0189113D03*
X0245341Y0189113D03*
X0245499Y0189113D03*
X0245656Y0189113D03*
X0245814Y0189113D03*
X0245971Y0189113D03*
X0246129Y0189113D03*
X0250538Y0189113D03*
X0250696Y0189113D03*
X0250853Y0189113D03*
X0251010Y0189113D03*
X0251168Y0189113D03*
X0251325Y0189113D03*
X0251483Y0189113D03*
X0285656Y0189240D03*
X0291010Y0189240D03*
D14*
X0290696Y0189083D03*
X0285971Y0189083D03*
X0271168Y0090713D03*
X0265499Y0090713D03*
X0231168Y0090500D03*
X0225499Y0090500D03*
X0210853Y0090713D03*
X0205814Y0090713D03*
D15*
X0205499Y0090870D03*
X0211168Y0090870D03*
X0225814Y0090657D03*
X0265656Y0090870D03*
X0271010Y0090870D03*
D16*
X0270853Y0090949D03*
X0265814Y0090949D03*
X0211325Y0090949D03*
X0205341Y0090949D03*
D17*
X0205184Y0091028D03*
X0211483Y0091028D03*
X0245184Y0091028D03*
X0245341Y0091028D03*
X0245499Y0091028D03*
X0245656Y0091028D03*
X0245814Y0091028D03*
X0245971Y0091028D03*
X0246129Y0091028D03*
X0250538Y0091028D03*
X0250696Y0091028D03*
X0250853Y0091028D03*
X0251010Y0091028D03*
X0251168Y0091028D03*
X0251325Y0091028D03*
X0251483Y0091028D03*
X0265971Y0091028D03*
X0270696Y0091028D03*
X0231483Y0188928D03*
X0231325Y0188928D03*
X0231168Y0188928D03*
X0231010Y0188928D03*
X0230853Y0188928D03*
X0230696Y0188928D03*
X0230538Y0188928D03*
X0226129Y0188928D03*
X0225971Y0188928D03*
X0225814Y0188928D03*
X0225656Y0188928D03*
X0225499Y0188928D03*
X0225341Y0188928D03*
X0225184Y0188928D03*
D18*
X0266504Y0188865D03*
X0276504Y0188616D03*
X0270538Y0091106D03*
X0266129Y0091106D03*
D19*
X0268018Y0084807D03*
X0270381Y0084807D03*
X0277703Y0090949D03*
X0277861Y0090949D03*
X0278018Y0090949D03*
X0278176Y0090949D03*
X0278333Y0090949D03*
X0278491Y0090949D03*
X0278648Y0090949D03*
X0278806Y0090949D03*
X0276286Y0096618D03*
X0276444Y0096776D03*
X0276601Y0096776D03*
X0266601Y0097720D03*
X0266444Y0097720D03*
X0260381Y0096461D03*
X0246444Y0097248D03*
X0249121Y0087799D03*
X0246444Y0084807D03*
X0258018Y0084965D03*
X0258176Y0084965D03*
X0258333Y0084965D03*
X0258491Y0084965D03*
X0258648Y0084965D03*
X0258806Y0084965D03*
X0260381Y0084965D03*
X0280381Y0084807D03*
X0218333Y0089949D03*
X0215971Y0093571D03*
X0207703Y0092839D03*
X0206601Y0091264D03*
X0226444Y0182707D03*
X0229121Y0185699D03*
X0236286Y0190987D03*
X0240381Y0192719D03*
X0237546Y0195081D03*
X0237388Y0195081D03*
X0226444Y0195148D03*
X0248018Y0183365D03*
X0248176Y0183365D03*
X0248333Y0183365D03*
X0248491Y0183365D03*
X0248648Y0183365D03*
X0248806Y0183365D03*
X0250381Y0183365D03*
X0257331Y0187892D03*
X0257488Y0187735D03*
X0257646Y0187735D03*
X0257803Y0191357D03*
X0250381Y0194861D03*
X0287861Y0194988D03*
X0288648Y0194988D03*
X0288648Y0189949D03*
X0288491Y0189949D03*
X0288333Y0189949D03*
X0288176Y0189949D03*
X0288018Y0189949D03*
X0287861Y0189949D03*
X0287703Y0189949D03*
X0288806Y0189949D03*
D20*
X0270381Y0092996D03*
D21*
X0276286Y0088587D03*
X0276286Y0084650D03*
X0270223Y0084650D03*
X0256286Y0084807D03*
X0249908Y0084650D03*
X0246601Y0084650D03*
X0256444Y0089059D03*
X0256444Y0092366D03*
X0256286Y0096618D03*
X0249908Y0097406D03*
X0246601Y0097406D03*
X0227388Y0084437D03*
X0207231Y0091106D03*
X0207073Y0091106D03*
X0206916Y0091106D03*
X0226601Y0182550D03*
X0229908Y0182550D03*
X0240223Y0192719D03*
X0238176Y0195239D03*
X0238018Y0195239D03*
X0229908Y0195306D03*
X0226601Y0195306D03*
X0246286Y0195018D03*
X0246444Y0190766D03*
X0246444Y0187459D03*
X0246286Y0183207D03*
X0256859Y0188207D03*
X0257016Y0188050D03*
X0256229Y0188837D03*
X0257961Y0191357D03*
X0258118Y0191357D03*
X0286286Y0187587D03*
X0287546Y0195146D03*
X0288963Y0195146D03*
D22*
X0290223Y0190972D03*
X0289278Y0189555D03*
X0289751Y0187508D03*
X0289593Y0187350D03*
X0289278Y0187193D03*
X0288648Y0186878D03*
X0287388Y0185618D03*
X0286759Y0187508D03*
X0279811Y0191372D03*
X0278709Y0190820D03*
X0278158Y0188616D03*
X0278158Y0182277D03*
X0268433Y0182683D03*
X0267607Y0180321D03*
X0270087Y0176345D03*
X0268985Y0175085D03*
X0268709Y0175085D03*
X0267055Y0175085D03*
X0250223Y0186593D03*
X0248648Y0187065D03*
X0249121Y0185176D03*
X0248963Y0185018D03*
X0247546Y0185176D03*
X0247388Y0185176D03*
X0248648Y0189113D03*
X0248806Y0189113D03*
X0250223Y0191632D03*
X0248963Y0192892D03*
X0249121Y0193050D03*
X0247546Y0193050D03*
X0247388Y0193050D03*
X0237388Y0188861D03*
X0229436Y0189243D03*
X0227073Y0188770D03*
X0227388Y0192865D03*
X0229121Y0192865D03*
X0229278Y0185148D03*
X0228648Y0184518D03*
X0268158Y0191502D03*
X0269811Y0190951D03*
X0268709Y0193707D03*
X0259121Y0094650D03*
X0258963Y0094492D03*
X0257546Y0094650D03*
X0257388Y0094650D03*
X0260223Y0093232D03*
X0258806Y0090713D03*
X0258648Y0090713D03*
X0258648Y0088665D03*
X0260223Y0088193D03*
X0259121Y0086776D03*
X0258963Y0086618D03*
X0257546Y0086776D03*
X0257388Y0086776D03*
X0249436Y0091343D03*
X0247073Y0090870D03*
X0249278Y0087248D03*
X0248648Y0086618D03*
X0239436Y0088823D03*
X0237073Y0088350D03*
X0228176Y0090500D03*
X0228018Y0090500D03*
X0219121Y0087508D03*
X0215971Y0087823D03*
X0216129Y0086248D03*
X0210066Y0088350D03*
X0208491Y0086776D03*
X0208491Y0090398D03*
X0208648Y0090398D03*
X0209121Y0090398D03*
X0209908Y0092130D03*
X0208176Y0092445D03*
X0207388Y0093862D03*
X0208491Y0095437D03*
X0207388Y0095909D03*
X0247388Y0094965D03*
X0249121Y0094965D03*
X0266444Y0091657D03*
X0267388Y0086618D03*
X0270223Y0088035D03*
X0276759Y0088508D03*
X0278648Y0087878D03*
X0279278Y0088193D03*
X0279593Y0088350D03*
X0279751Y0088508D03*
X0279278Y0090555D03*
X0280223Y0091972D03*
X0277388Y0086618D03*
D23*
X0270223Y0092366D03*
X0266916Y0097720D03*
X0246286Y0084965D03*
X0239436Y0094728D03*
X0239278Y0094728D03*
X0239121Y0094728D03*
X0238963Y0094728D03*
X0238806Y0094728D03*
X0238648Y0094728D03*
X0238491Y0094728D03*
X0238333Y0094728D03*
X0238176Y0094728D03*
X0238018Y0094728D03*
X0237861Y0094728D03*
X0237703Y0094728D03*
X0237546Y0094728D03*
X0237388Y0094728D03*
X0237231Y0094728D03*
X0237073Y0094728D03*
X0236916Y0094728D03*
X0236759Y0094728D03*
X0236601Y0094728D03*
X0236444Y0094728D03*
X0228963Y0098295D03*
X0218963Y0094988D03*
X0216286Y0093728D03*
X0206286Y0095988D03*
X0227231Y0084752D03*
X0226286Y0182865D03*
X0236759Y0194924D03*
X0236916Y0194924D03*
X0257488Y0191672D03*
X0258276Y0194979D03*
X0257961Y0187577D03*
X0286601Y0182862D03*
X0286759Y0182705D03*
X0286916Y0182705D03*
X0287073Y0182547D03*
X0288176Y0194831D03*
X0288333Y0194831D03*
D24*
X0269121Y0097327D03*
X0269593Y0097169D03*
X0269908Y0097012D03*
X0270223Y0096854D03*
X0227073Y0097114D03*
X0218491Y0094437D03*
X0218333Y0094437D03*
X0218176Y0094437D03*
X0218018Y0094437D03*
X0217861Y0094437D03*
D25*
X0226129Y0092941D03*
X0226286Y0092941D03*
X0226444Y0092941D03*
X0226601Y0092941D03*
X0226759Y0092941D03*
X0226916Y0092941D03*
X0227073Y0092941D03*
X0228176Y0092941D03*
X0228333Y0092941D03*
X0236286Y0091264D03*
X0227546Y0084280D03*
X0207861Y0092681D03*
X0208806Y0094886D03*
X0206601Y0096146D03*
X0226601Y0097823D03*
X0246916Y0097563D03*
X0249593Y0097563D03*
X0256444Y0096776D03*
X0258333Y0096776D03*
X0260066Y0096776D03*
X0258333Y0093154D03*
X0258176Y0093154D03*
X0256601Y0092366D03*
X0256601Y0089059D03*
X0256444Y0084650D03*
X0258963Y0084650D03*
X0260066Y0084650D03*
X0268333Y0084492D03*
X0270066Y0084492D03*
X0268963Y0087484D03*
X0269908Y0092524D03*
X0266444Y0094256D03*
X0278963Y0087484D03*
X0278333Y0084492D03*
X0280066Y0084492D03*
X0249751Y0084492D03*
X0249593Y0084492D03*
X0246916Y0084492D03*
X0277607Y0173065D03*
X0279260Y0173065D03*
X0277882Y0176096D03*
X0267331Y0185164D03*
X0267055Y0185164D03*
X0266780Y0185164D03*
X0258276Y0191357D03*
X0257961Y0195451D03*
X0259378Y0195451D03*
X0250066Y0195176D03*
X0248333Y0195176D03*
X0246444Y0195176D03*
X0248176Y0191554D03*
X0248333Y0191554D03*
X0246601Y0190766D03*
X0246601Y0187459D03*
X0246444Y0183050D03*
X0248963Y0183050D03*
X0250066Y0183050D03*
X0239121Y0189884D03*
X0238963Y0189884D03*
X0236601Y0191144D03*
X0239908Y0192719D03*
X0240066Y0192719D03*
X0240381Y0195396D03*
X0238806Y0195396D03*
X0238648Y0195396D03*
X0229593Y0195463D03*
X0226916Y0195463D03*
X0236286Y0187050D03*
X0229751Y0182392D03*
X0229593Y0182392D03*
X0226916Y0182392D03*
X0287231Y0195303D03*
X0289278Y0195303D03*
X0290381Y0195303D03*
X0288963Y0186484D03*
D26*
X0288491Y0187035D03*
X0287073Y0187508D03*
X0286916Y0187508D03*
X0287231Y0189555D03*
X0289121Y0190972D03*
X0289751Y0192862D03*
X0286916Y0192862D03*
X0258591Y0190963D03*
X0256859Y0190963D03*
X0257016Y0192223D03*
X0256229Y0192380D03*
X0256859Y0193640D03*
X0250066Y0191632D03*
X0249278Y0191317D03*
X0249121Y0191317D03*
X0249278Y0193050D03*
X0247231Y0193050D03*
X0248333Y0189113D03*
X0248491Y0189113D03*
X0248963Y0187065D03*
X0250066Y0186593D03*
X0249278Y0185176D03*
X0247231Y0185176D03*
X0239436Y0190435D03*
X0237231Y0188861D03*
X0230066Y0186723D03*
X0229278Y0186723D03*
X0227546Y0188613D03*
X0227388Y0188613D03*
X0228963Y0189400D03*
X0226286Y0190975D03*
X0227231Y0185148D03*
X0207703Y0095752D03*
X0208018Y0095594D03*
X0208176Y0095594D03*
X0207231Y0093862D03*
X0208333Y0092287D03*
X0209751Y0092130D03*
X0209278Y0093862D03*
X0209751Y0088508D03*
X0207861Y0088508D03*
X0216759Y0088925D03*
X0217546Y0087823D03*
X0218491Y0088925D03*
X0218963Y0087508D03*
X0218491Y0086091D03*
X0217703Y0086091D03*
X0216759Y0086091D03*
X0216601Y0086091D03*
X0226759Y0086091D03*
X0228491Y0086091D03*
X0227546Y0090657D03*
X0227388Y0090657D03*
X0227388Y0093650D03*
X0227546Y0093650D03*
X0227703Y0093650D03*
X0227861Y0093650D03*
X0237546Y0088193D03*
X0238963Y0088980D03*
X0239121Y0088980D03*
X0246286Y0093075D03*
X0247388Y0090713D03*
X0247546Y0090713D03*
X0248963Y0091500D03*
X0249278Y0088823D03*
X0250066Y0088823D03*
X0247231Y0087248D03*
X0257231Y0086776D03*
X0259278Y0086776D03*
X0260066Y0088193D03*
X0258963Y0088665D03*
X0258491Y0090713D03*
X0258333Y0090713D03*
X0259121Y0092917D03*
X0259278Y0092917D03*
X0260066Y0093232D03*
X0259278Y0094650D03*
X0257231Y0094650D03*
X0268333Y0092602D03*
X0268491Y0092602D03*
X0268491Y0088193D03*
X0269436Y0088193D03*
X0270066Y0088193D03*
X0266601Y0088193D03*
X0276916Y0088508D03*
X0277073Y0088508D03*
X0278491Y0088035D03*
X0277231Y0090555D03*
X0279121Y0091972D03*
D27*
X0278963Y0091028D03*
X0277546Y0091028D03*
X0278018Y0084728D03*
X0270066Y0092445D03*
X0266286Y0084728D03*
X0250066Y0084728D03*
X0250066Y0097327D03*
X0228333Y0087035D03*
X0218176Y0090028D03*
X0210223Y0096067D03*
X0208963Y0094807D03*
X0206444Y0096067D03*
X0206759Y0091185D03*
X0206759Y0087563D03*
X0206916Y0087563D03*
X0207073Y0087563D03*
X0207231Y0087563D03*
X0206601Y0087563D03*
X0206444Y0087563D03*
X0230066Y0182628D03*
X0230066Y0195227D03*
X0237703Y0195160D03*
X0237861Y0195160D03*
X0256071Y0189073D03*
X0257173Y0187971D03*
X0258118Y0195215D03*
X0287703Y0195067D03*
X0288806Y0195067D03*
X0288963Y0190028D03*
X0287546Y0190028D03*
D28*
X0268963Y0097406D03*
X0268806Y0097406D03*
X0269278Y0097248D03*
X0269436Y0097248D03*
X0269751Y0097091D03*
X0270066Y0096933D03*
X0226916Y0097035D03*
X0218648Y0094516D03*
X0217703Y0094358D03*
D29*
X0220223Y0094437D03*
X0226444Y0097744D03*
X0228491Y0093020D03*
X0225971Y0089083D03*
X0228018Y0087193D03*
X0229278Y0087823D03*
X0229121Y0084201D03*
X0227703Y0084201D03*
X0226129Y0084201D03*
X0217231Y0088138D03*
X0217073Y0088295D03*
X0215971Y0090500D03*
X0209908Y0096067D03*
X0206759Y0096067D03*
X0206286Y0084413D03*
X0247073Y0084413D03*
X0247231Y0084413D03*
X0249436Y0084413D03*
X0256601Y0084571D03*
X0259908Y0084571D03*
X0256759Y0089138D03*
X0256759Y0092287D03*
X0258491Y0093232D03*
X0258648Y0093232D03*
X0259751Y0090713D03*
X0259908Y0090713D03*
X0259908Y0096854D03*
X0258491Y0096854D03*
X0256601Y0096854D03*
X0249436Y0097642D03*
X0247231Y0097642D03*
X0247073Y0097642D03*
X0266601Y0094177D03*
X0269751Y0092602D03*
X0269751Y0084413D03*
X0269908Y0084413D03*
X0268648Y0084413D03*
X0268491Y0084413D03*
X0267546Y0084413D03*
X0266759Y0084413D03*
X0266601Y0084413D03*
X0276601Y0084413D03*
X0277546Y0084413D03*
X0278491Y0084413D03*
X0279751Y0084413D03*
X0279908Y0084413D03*
X0269811Y0172683D03*
X0267055Y0172683D03*
X0268433Y0180124D03*
X0277055Y0184836D03*
X0277331Y0184836D03*
X0278433Y0179876D03*
X0278985Y0176017D03*
X0260166Y0188128D03*
X0249908Y0189113D03*
X0249751Y0189113D03*
X0248648Y0191632D03*
X0248491Y0191632D03*
X0246759Y0190687D03*
X0246759Y0187538D03*
X0246601Y0182971D03*
X0249908Y0182971D03*
X0240223Y0186971D03*
X0240066Y0186971D03*
X0237861Y0186971D03*
X0237388Y0186971D03*
X0236444Y0186971D03*
X0239278Y0189806D03*
X0236759Y0191065D03*
X0238963Y0195475D03*
X0239121Y0195475D03*
X0246601Y0195254D03*
X0248491Y0195254D03*
X0249908Y0195254D03*
X0256229Y0195530D03*
X0258591Y0195530D03*
X0259221Y0195530D03*
X0277055Y0195309D03*
X0279811Y0195309D03*
X0286286Y0195382D03*
X0287073Y0195382D03*
X0289436Y0195382D03*
X0290223Y0195382D03*
X0229436Y0195542D03*
X0227231Y0195542D03*
X0227073Y0195542D03*
X0227073Y0182313D03*
X0227231Y0182313D03*
X0229436Y0182313D03*
D30*
X0229436Y0186802D03*
X0229593Y0186802D03*
X0229751Y0186802D03*
X0229908Y0186802D03*
X0228648Y0186802D03*
X0227703Y0188534D03*
X0228806Y0189479D03*
X0230223Y0191054D03*
X0227231Y0192628D03*
X0226444Y0191054D03*
X0226601Y0186802D03*
X0237861Y0188939D03*
X0240223Y0190514D03*
X0238333Y0192719D03*
X0238176Y0192719D03*
X0249121Y0186987D03*
X0249278Y0186987D03*
X0249593Y0186829D03*
X0249908Y0186672D03*
X0249593Y0191396D03*
X0249436Y0191396D03*
X0249908Y0191554D03*
X0258433Y0192144D03*
X0258591Y0193719D03*
X0287073Y0192783D03*
X0287388Y0191051D03*
X0289278Y0191051D03*
X0290066Y0191051D03*
X0289593Y0192783D03*
X0287388Y0187429D03*
X0287231Y0187429D03*
X0289436Y0185697D03*
X0247231Y0094728D03*
X0246444Y0093154D03*
X0247703Y0090634D03*
X0248806Y0091579D03*
X0250223Y0093154D03*
X0249908Y0088902D03*
X0249751Y0088902D03*
X0249593Y0088902D03*
X0249436Y0088902D03*
X0248648Y0088902D03*
X0246601Y0088902D03*
X0240223Y0086539D03*
X0240066Y0086539D03*
X0238806Y0089059D03*
X0237703Y0088114D03*
X0236444Y0086539D03*
X0236286Y0086539D03*
X0239593Y0090634D03*
X0227231Y0090736D03*
X0227073Y0090736D03*
X0225971Y0090894D03*
X0227388Y0087587D03*
X0227546Y0087587D03*
X0219278Y0089949D03*
X0218806Y0087587D03*
X0217703Y0087744D03*
X0216916Y0087587D03*
X0209593Y0088587D03*
X0209436Y0088587D03*
X0208176Y0088587D03*
X0208018Y0088587D03*
X0208491Y0092366D03*
X0209593Y0092209D03*
X0209436Y0093783D03*
X0207861Y0095673D03*
X0259436Y0092996D03*
X0259593Y0092996D03*
X0259908Y0093154D03*
X0259278Y0088587D03*
X0259121Y0088587D03*
X0259593Y0088429D03*
X0259908Y0088272D03*
X0266759Y0088272D03*
X0268333Y0088272D03*
X0269593Y0088272D03*
X0269751Y0088272D03*
X0269908Y0088272D03*
X0269436Y0086697D03*
X0267231Y0090004D03*
X0266916Y0091894D03*
X0266759Y0091894D03*
X0267073Y0092051D03*
X0267703Y0092366D03*
X0268018Y0092524D03*
X0268176Y0092524D03*
X0268018Y0094256D03*
X0277388Y0092051D03*
X0279278Y0092051D03*
X0280066Y0092051D03*
X0277388Y0088429D03*
X0277231Y0088429D03*
X0279436Y0086697D03*
D31*
X0278806Y0087642D03*
X0276444Y0088587D03*
X0276759Y0084335D03*
X0276916Y0084335D03*
X0277231Y0084335D03*
X0277388Y0084335D03*
X0278648Y0084335D03*
X0278806Y0084335D03*
X0278963Y0084335D03*
X0279121Y0084335D03*
X0279278Y0084335D03*
X0279436Y0084335D03*
X0279593Y0084335D03*
X0269593Y0084335D03*
X0269436Y0084335D03*
X0269278Y0084335D03*
X0269121Y0084335D03*
X0268963Y0084335D03*
X0268806Y0084335D03*
X0267388Y0084335D03*
X0267231Y0084335D03*
X0267073Y0084335D03*
X0266916Y0084335D03*
X0268806Y0087642D03*
X0266759Y0094256D03*
X0259751Y0096933D03*
X0259593Y0096933D03*
X0258806Y0096933D03*
X0258648Y0096933D03*
X0258176Y0096933D03*
X0258018Y0096933D03*
X0256759Y0096933D03*
X0258806Y0093311D03*
X0259593Y0090791D03*
X0259593Y0084492D03*
X0259436Y0084492D03*
X0259278Y0084492D03*
X0259121Y0084492D03*
X0259751Y0084492D03*
X0257703Y0084492D03*
X0256759Y0084492D03*
X0249278Y0084335D03*
X0249121Y0084335D03*
X0248963Y0084335D03*
X0247703Y0084335D03*
X0247546Y0084335D03*
X0247388Y0084335D03*
X0246286Y0091106D03*
X0250223Y0091106D03*
X0249278Y0097720D03*
X0249121Y0097720D03*
X0247546Y0097720D03*
X0247388Y0097720D03*
X0239436Y0091264D03*
X0239278Y0091264D03*
X0239121Y0091264D03*
X0238963Y0091264D03*
X0238806Y0091264D03*
X0238648Y0091264D03*
X0238491Y0091264D03*
X0238333Y0091264D03*
X0238176Y0091264D03*
X0238018Y0091264D03*
X0237861Y0091264D03*
X0237703Y0091264D03*
X0237546Y0091264D03*
X0237388Y0091264D03*
X0237231Y0091264D03*
X0237073Y0091264D03*
X0236916Y0091264D03*
X0236759Y0091264D03*
X0236601Y0091264D03*
X0236444Y0091264D03*
X0236286Y0088587D03*
X0240223Y0088587D03*
X0240223Y0084492D03*
X0236444Y0084492D03*
X0236286Y0084492D03*
X0228963Y0084122D03*
X0228806Y0084122D03*
X0227861Y0084122D03*
X0226916Y0084122D03*
X0226286Y0084122D03*
X0219278Y0083965D03*
X0219121Y0083965D03*
X0218963Y0083965D03*
X0218806Y0083965D03*
X0218648Y0083965D03*
X0218491Y0083965D03*
X0218333Y0083965D03*
X0218176Y0083965D03*
X0218018Y0083965D03*
X0217861Y0083965D03*
X0217703Y0083965D03*
X0217546Y0083965D03*
X0217388Y0083965D03*
X0217231Y0083965D03*
X0217073Y0083965D03*
X0216916Y0083965D03*
X0216759Y0083965D03*
X0216601Y0083965D03*
X0216444Y0083965D03*
X0216286Y0083965D03*
X0216129Y0083965D03*
X0215971Y0083965D03*
X0210223Y0084335D03*
X0210066Y0084335D03*
X0209908Y0084335D03*
X0209751Y0084335D03*
X0209593Y0084335D03*
X0209436Y0084335D03*
X0209278Y0084335D03*
X0209121Y0084335D03*
X0208963Y0084335D03*
X0208806Y0084335D03*
X0208648Y0084335D03*
X0208491Y0084335D03*
X0208333Y0084335D03*
X0208176Y0084335D03*
X0208018Y0084335D03*
X0207861Y0084335D03*
X0207703Y0084335D03*
X0207546Y0084335D03*
X0207388Y0084335D03*
X0207231Y0084335D03*
X0207073Y0084335D03*
X0206916Y0084335D03*
X0206759Y0084335D03*
X0206601Y0084335D03*
X0206444Y0084335D03*
X0210223Y0092051D03*
X0209751Y0095988D03*
X0220381Y0094358D03*
X0226286Y0097665D03*
X0230223Y0097823D03*
X0229278Y0090264D03*
X0229278Y0182235D03*
X0229121Y0182235D03*
X0228963Y0182235D03*
X0227703Y0182235D03*
X0227546Y0182235D03*
X0227388Y0182235D03*
X0226286Y0189006D03*
X0230223Y0189006D03*
X0229278Y0195620D03*
X0229121Y0195620D03*
X0227546Y0195620D03*
X0227388Y0195620D03*
X0236916Y0191144D03*
X0239593Y0192719D03*
X0239751Y0192719D03*
X0239436Y0195554D03*
X0239278Y0195554D03*
X0240223Y0195554D03*
X0246759Y0195333D03*
X0248018Y0195333D03*
X0248176Y0195333D03*
X0248648Y0195333D03*
X0248806Y0195333D03*
X0249593Y0195333D03*
X0249751Y0195333D03*
X0248806Y0191711D03*
X0249593Y0189191D03*
X0256386Y0195609D03*
X0257803Y0195609D03*
X0258748Y0195609D03*
X0258906Y0195609D03*
X0259063Y0195609D03*
X0260323Y0188207D03*
X0249751Y0182892D03*
X0249593Y0182892D03*
X0249436Y0182892D03*
X0249278Y0182892D03*
X0249121Y0182892D03*
X0247703Y0182892D03*
X0246759Y0182892D03*
X0239908Y0186892D03*
X0239751Y0186892D03*
X0239593Y0186892D03*
X0239436Y0186892D03*
X0239278Y0186892D03*
X0239121Y0186892D03*
X0238963Y0186892D03*
X0237231Y0186892D03*
X0286444Y0187587D03*
X0288806Y0186642D03*
X0289593Y0195461D03*
X0289751Y0195461D03*
X0289908Y0195461D03*
X0290066Y0195461D03*
X0286916Y0195461D03*
X0286759Y0195461D03*
X0286601Y0195461D03*
X0286444Y0195461D03*
D32*
X0290066Y0187665D03*
X0260481Y0188286D03*
X0249436Y0189113D03*
X0247073Y0190687D03*
X0246916Y0190687D03*
X0246916Y0187538D03*
X0247073Y0187538D03*
X0247073Y0182813D03*
X0246916Y0182813D03*
X0247231Y0182813D03*
X0247388Y0182813D03*
X0247546Y0182813D03*
X0238806Y0186813D03*
X0238648Y0186813D03*
X0238491Y0186813D03*
X0238333Y0186813D03*
X0238176Y0186813D03*
X0238018Y0186813D03*
X0237073Y0186813D03*
X0236759Y0186813D03*
X0236601Y0186813D03*
X0237073Y0191065D03*
X0239436Y0192798D03*
X0239593Y0195632D03*
X0239751Y0195632D03*
X0240066Y0195632D03*
X0246916Y0195412D03*
X0247073Y0195412D03*
X0247231Y0195412D03*
X0247388Y0195412D03*
X0247546Y0195412D03*
X0247703Y0195412D03*
X0247861Y0195412D03*
X0248963Y0195412D03*
X0249121Y0195412D03*
X0249278Y0195412D03*
X0249436Y0195412D03*
X0256544Y0195687D03*
X0256701Y0195687D03*
X0257488Y0195687D03*
X0257646Y0195687D03*
X0260166Y0195687D03*
X0260953Y0195687D03*
X0228963Y0195699D03*
X0228806Y0195699D03*
X0228648Y0195699D03*
X0228491Y0195699D03*
X0228333Y0195699D03*
X0228176Y0195699D03*
X0228018Y0195699D03*
X0227861Y0195699D03*
X0227703Y0195699D03*
X0226444Y0188928D03*
X0227861Y0182156D03*
X0228018Y0182156D03*
X0228176Y0182156D03*
X0228333Y0182156D03*
X0228491Y0182156D03*
X0228648Y0182156D03*
X0228806Y0182156D03*
X0230381Y0097744D03*
X0226129Y0097587D03*
X0220538Y0094280D03*
X0217861Y0090500D03*
X0219278Y0087508D03*
X0220066Y0083886D03*
X0220853Y0083886D03*
X0226444Y0084043D03*
X0226601Y0084043D03*
X0226759Y0084043D03*
X0228018Y0084043D03*
X0228176Y0084043D03*
X0228333Y0084043D03*
X0228491Y0084043D03*
X0228648Y0084043D03*
X0230066Y0084043D03*
X0230853Y0084043D03*
X0229121Y0087823D03*
X0226286Y0089083D03*
X0226129Y0089083D03*
X0236601Y0084413D03*
X0236759Y0084413D03*
X0236916Y0084413D03*
X0237073Y0084413D03*
X0237231Y0084413D03*
X0237388Y0084413D03*
X0237546Y0084413D03*
X0237703Y0084413D03*
X0237861Y0084413D03*
X0238018Y0084413D03*
X0238176Y0084413D03*
X0238333Y0084413D03*
X0238491Y0084413D03*
X0238648Y0084413D03*
X0238806Y0084413D03*
X0238963Y0084413D03*
X0239121Y0084413D03*
X0239278Y0084413D03*
X0239436Y0084413D03*
X0239593Y0084413D03*
X0239751Y0084413D03*
X0239908Y0084413D03*
X0240066Y0084413D03*
X0247861Y0084256D03*
X0248018Y0084256D03*
X0248176Y0084256D03*
X0248333Y0084256D03*
X0248491Y0084256D03*
X0248648Y0084256D03*
X0248806Y0084256D03*
X0246444Y0091028D03*
X0240223Y0095437D03*
X0239593Y0095437D03*
X0247703Y0097799D03*
X0247861Y0097799D03*
X0248018Y0097799D03*
X0248176Y0097799D03*
X0248333Y0097799D03*
X0248491Y0097799D03*
X0248648Y0097799D03*
X0248806Y0097799D03*
X0248963Y0097799D03*
X0256916Y0097012D03*
X0257073Y0097012D03*
X0257231Y0097012D03*
X0257388Y0097012D03*
X0257546Y0097012D03*
X0257703Y0097012D03*
X0257861Y0097012D03*
X0258963Y0097012D03*
X0259121Y0097012D03*
X0259278Y0097012D03*
X0259436Y0097012D03*
X0257073Y0092287D03*
X0256916Y0092287D03*
X0259436Y0090713D03*
X0257073Y0089138D03*
X0256916Y0089138D03*
X0256916Y0084413D03*
X0257073Y0084413D03*
X0257231Y0084413D03*
X0257388Y0084413D03*
X0257546Y0084413D03*
X0266286Y0091500D03*
X0268176Y0090398D03*
X0268333Y0090398D03*
X0268491Y0090398D03*
X0269593Y0092602D03*
X0266916Y0094177D03*
X0277073Y0084256D03*
X0280066Y0088665D03*
X0209593Y0095909D03*
X0209436Y0095752D03*
X0209278Y0095594D03*
X0206916Y0096067D03*
X0207388Y0091657D03*
X0207388Y0088035D03*
D33*
X0208018Y0092524D03*
X0208648Y0095201D03*
X0207073Y0095988D03*
X0216129Y0090579D03*
X0218491Y0090579D03*
X0220853Y0094043D03*
X0220696Y0094201D03*
X0225971Y0097508D03*
X0230538Y0097665D03*
X0230853Y0097350D03*
X0239751Y0095516D03*
X0239908Y0095516D03*
X0240066Y0095516D03*
X0248018Y0095201D03*
X0248176Y0095201D03*
X0248333Y0095201D03*
X0248491Y0095201D03*
X0248648Y0095201D03*
X0250066Y0091106D03*
X0247861Y0087012D03*
X0247703Y0087012D03*
X0240066Y0088587D03*
X0236444Y0088587D03*
X0230696Y0083965D03*
X0230538Y0083965D03*
X0230381Y0083965D03*
X0230223Y0083965D03*
X0228963Y0087902D03*
X0228963Y0090264D03*
X0229121Y0090264D03*
X0220696Y0083807D03*
X0220538Y0083807D03*
X0220381Y0083807D03*
X0220223Y0083807D03*
X0257231Y0089059D03*
X0257388Y0089059D03*
X0258333Y0088587D03*
X0259278Y0090791D03*
X0257703Y0092524D03*
X0257388Y0092366D03*
X0257231Y0092366D03*
X0267073Y0094256D03*
X0269278Y0092681D03*
X0269436Y0092681D03*
X0268806Y0090319D03*
X0268648Y0090319D03*
X0268018Y0090319D03*
X0267861Y0090319D03*
X0267703Y0090319D03*
X0276601Y0088587D03*
X0279121Y0090634D03*
X0227861Y0184912D03*
X0227703Y0184912D03*
X0230066Y0189006D03*
X0228648Y0193101D03*
X0228491Y0193101D03*
X0228333Y0193101D03*
X0228176Y0193101D03*
X0228018Y0193101D03*
X0237231Y0191144D03*
X0238806Y0190357D03*
X0239278Y0192719D03*
X0239908Y0195711D03*
X0247231Y0190766D03*
X0247388Y0190766D03*
X0247703Y0190924D03*
X0249278Y0189191D03*
X0248333Y0186987D03*
X0247388Y0187459D03*
X0247231Y0187459D03*
X0256071Y0192302D03*
X0259378Y0192302D03*
X0260323Y0195766D03*
X0260481Y0195766D03*
X0260638Y0195766D03*
X0260796Y0195766D03*
X0257331Y0195766D03*
X0257173Y0195766D03*
X0257016Y0195766D03*
X0256859Y0195766D03*
X0260638Y0188365D03*
X0236916Y0186735D03*
X0286601Y0187587D03*
X0289121Y0189634D03*
D34*
X0289436Y0187272D03*
X0289278Y0185697D03*
X0287231Y0185697D03*
X0280087Y0188419D03*
X0279536Y0191175D03*
X0286444Y0191051D03*
X0286601Y0192941D03*
X0286759Y0192941D03*
X0289908Y0192941D03*
X0279260Y0184836D03*
X0278433Y0182356D03*
X0279536Y0178222D03*
X0269536Y0178471D03*
X0269260Y0185085D03*
X0269811Y0187565D03*
X0267055Y0190872D03*
X0267607Y0192526D03*
X0259221Y0192302D03*
X0257016Y0193561D03*
X0248806Y0186987D03*
X0238648Y0192719D03*
X0238491Y0192719D03*
X0229278Y0192786D03*
X0229278Y0189321D03*
X0229121Y0189321D03*
X0227231Y0188691D03*
X0226444Y0186802D03*
X0228018Y0184439D03*
X0228176Y0184439D03*
X0228333Y0184439D03*
X0228491Y0184439D03*
X0207546Y0095831D03*
X0208333Y0095516D03*
X0209278Y0090319D03*
X0209908Y0088429D03*
X0209278Y0086697D03*
X0207703Y0088429D03*
X0216286Y0086169D03*
X0216444Y0086169D03*
X0217861Y0086169D03*
X0218018Y0086169D03*
X0218176Y0086169D03*
X0218333Y0086169D03*
X0216916Y0088846D03*
X0225971Y0087114D03*
X0226916Y0086012D03*
X0227703Y0087587D03*
X0227703Y0090579D03*
X0227861Y0090579D03*
X0228018Y0093571D03*
X0227231Y0093571D03*
X0237231Y0088272D03*
X0237388Y0088272D03*
X0239278Y0088902D03*
X0246444Y0088902D03*
X0247231Y0090791D03*
X0249121Y0091421D03*
X0249278Y0091421D03*
X0248491Y0086539D03*
X0248333Y0086539D03*
X0248176Y0086539D03*
X0248018Y0086539D03*
X0249278Y0094886D03*
X0258806Y0088587D03*
X0266444Y0088114D03*
X0267231Y0086697D03*
X0269278Y0086697D03*
X0269278Y0088114D03*
X0269278Y0090004D03*
X0268806Y0092681D03*
X0268648Y0092681D03*
X0266601Y0091736D03*
X0276444Y0092051D03*
X0279436Y0088272D03*
X0279278Y0086697D03*
X0277231Y0086697D03*
D35*
X0279121Y0087406D03*
X0280223Y0088665D03*
X0280223Y0084571D03*
X0278176Y0084571D03*
X0276444Y0084571D03*
X0269121Y0087406D03*
X0268176Y0084571D03*
X0266444Y0084571D03*
X0260223Y0084728D03*
X0260223Y0090713D03*
X0260066Y0090713D03*
X0258018Y0093075D03*
X0260223Y0096697D03*
X0266286Y0094177D03*
X0249751Y0097484D03*
X0246759Y0097484D03*
X0230066Y0097744D03*
X0225971Y0093020D03*
X0220066Y0094437D03*
X0218018Y0090185D03*
X0225971Y0084358D03*
X0229278Y0084358D03*
X0228176Y0087035D03*
X0246759Y0084571D03*
X0210066Y0096067D03*
X0226759Y0182471D03*
X0236444Y0191065D03*
X0238333Y0195317D03*
X0238491Y0195317D03*
X0229751Y0195384D03*
X0226759Y0195384D03*
X0248018Y0191475D03*
X0250066Y0189113D03*
X0250223Y0189113D03*
X0256386Y0188601D03*
X0256544Y0188443D03*
X0256701Y0188286D03*
X0250223Y0183128D03*
X0270087Y0185085D03*
X0276780Y0184836D03*
X0280087Y0184836D03*
X0289121Y0186406D03*
X0290223Y0187665D03*
X0289121Y0195224D03*
X0287388Y0195224D03*
X0256071Y0195372D03*
X0250223Y0195097D03*
D36*
X0247703Y0192971D03*
X0248963Y0191396D03*
X0248963Y0189191D03*
X0247861Y0187302D03*
X0248176Y0187144D03*
X0248491Y0186987D03*
X0247703Y0185097D03*
X0238491Y0190672D03*
X0238333Y0190672D03*
X0238176Y0190829D03*
X0238018Y0190829D03*
X0237861Y0190987D03*
X0237703Y0190987D03*
X0238806Y0192719D03*
X0238963Y0192719D03*
X0228963Y0192943D03*
X0227546Y0192943D03*
X0226916Y0188849D03*
X0226759Y0188849D03*
X0226286Y0186644D03*
X0227388Y0185069D03*
X0230223Y0186644D03*
X0229593Y0189164D03*
X0258433Y0191042D03*
X0260953Y0188522D03*
X0267607Y0189219D03*
X0277607Y0193104D03*
X0286444Y0192941D03*
X0286286Y0190894D03*
X0290066Y0192941D03*
X0289908Y0187587D03*
X0287546Y0185539D03*
X0277055Y0178222D03*
X0268709Y0177093D03*
X0267882Y0176817D03*
X0266780Y0175164D03*
X0268158Y0182605D03*
X0257703Y0094571D03*
X0258963Y0092996D03*
X0258963Y0090791D03*
X0257861Y0088902D03*
X0258176Y0088744D03*
X0258491Y0088587D03*
X0257703Y0086697D03*
X0250223Y0088744D03*
X0249593Y0091264D03*
X0246916Y0090949D03*
X0246759Y0090949D03*
X0246286Y0088744D03*
X0247388Y0087169D03*
X0239751Y0088744D03*
X0239593Y0088744D03*
X0236916Y0088429D03*
X0228491Y0090421D03*
X0228333Y0090421D03*
X0227861Y0087429D03*
X0217388Y0087902D03*
X0215971Y0086169D03*
X0216444Y0090736D03*
X0216601Y0090736D03*
X0216759Y0090736D03*
X0216916Y0090736D03*
X0217073Y0090736D03*
X0217231Y0090736D03*
X0217388Y0090736D03*
X0217546Y0090736D03*
X0208963Y0090476D03*
X0208806Y0090476D03*
X0207546Y0088272D03*
X0208648Y0086854D03*
X0208806Y0086854D03*
X0208963Y0086854D03*
X0209121Y0086854D03*
X0207231Y0095988D03*
X0247546Y0095043D03*
X0248963Y0095043D03*
X0267388Y0090161D03*
X0269121Y0090161D03*
X0268648Y0087957D03*
X0267546Y0086539D03*
X0268963Y0092681D03*
X0269121Y0092681D03*
X0276286Y0091894D03*
X0279908Y0088587D03*
X0277546Y0086539D03*
D37*
X0277388Y0090555D03*
X0268963Y0090240D03*
X0267546Y0090240D03*
X0266286Y0088035D03*
X0259121Y0090713D03*
X0258018Y0088823D03*
X0257703Y0088980D03*
X0257546Y0088980D03*
X0257546Y0092445D03*
X0249908Y0091185D03*
X0249751Y0091185D03*
X0246601Y0091028D03*
X0247546Y0087091D03*
X0239908Y0088665D03*
X0236759Y0088508D03*
X0236601Y0088508D03*
X0228806Y0087823D03*
X0228648Y0087823D03*
X0228491Y0087665D03*
X0226601Y0089083D03*
X0226444Y0089083D03*
X0228648Y0090343D03*
X0228806Y0090343D03*
X0230696Y0097587D03*
X0218648Y0090657D03*
X0217703Y0090657D03*
X0216286Y0090657D03*
X0210066Y0092130D03*
X0207546Y0091972D03*
X0207546Y0093705D03*
X0210223Y0088193D03*
X0247703Y0095122D03*
X0247861Y0095122D03*
X0248806Y0095122D03*
X0227546Y0184991D03*
X0226601Y0188928D03*
X0229751Y0189085D03*
X0229908Y0189085D03*
X0228806Y0193022D03*
X0227861Y0193022D03*
X0227703Y0193022D03*
X0237388Y0191065D03*
X0237546Y0191065D03*
X0238648Y0190435D03*
X0239121Y0192798D03*
X0247546Y0190845D03*
X0249121Y0189113D03*
X0248018Y0187223D03*
X0247703Y0187380D03*
X0247546Y0187380D03*
X0257016Y0190963D03*
X0260796Y0188443D03*
X0286286Y0193020D03*
X0287388Y0189555D03*
X0290223Y0193020D03*
D38*
X0288018Y0182941D03*
X0268648Y0097484D03*
X0268491Y0097484D03*
X0217546Y0094280D03*
X0217388Y0094280D03*
D39*
X0218806Y0090106D03*
X0219121Y0089949D03*
X0218648Y0087587D03*
X0218491Y0087587D03*
X0218333Y0087587D03*
X0218176Y0087587D03*
X0218018Y0087587D03*
X0216759Y0087587D03*
X0216601Y0087587D03*
X0216444Y0087587D03*
X0216286Y0087744D03*
X0209121Y0092209D03*
X0208963Y0092209D03*
X0226129Y0090894D03*
X0226286Y0090894D03*
X0226444Y0090894D03*
X0226601Y0090894D03*
X0226759Y0087429D03*
X0226916Y0087429D03*
X0226286Y0087272D03*
X0228648Y0093886D03*
X0228806Y0093886D03*
X0228963Y0093886D03*
X0229121Y0093886D03*
X0238333Y0089217D03*
X0238491Y0089217D03*
X0238176Y0087957D03*
X0248018Y0090476D03*
X0248176Y0090476D03*
X0248333Y0091736D03*
X0259436Y0094728D03*
X0268333Y0094256D03*
X0268491Y0094256D03*
X0267546Y0088429D03*
X0259436Y0086854D03*
X0276759Y0092209D03*
X0276916Y0092209D03*
X0279593Y0092209D03*
X0279751Y0092209D03*
X0278018Y0088272D03*
X0249436Y0185254D03*
X0249436Y0193128D03*
X0256544Y0192302D03*
X0256701Y0192302D03*
X0258748Y0192302D03*
X0238018Y0192719D03*
X0237861Y0192719D03*
X0228333Y0189636D03*
X0228176Y0188376D03*
X0228018Y0188376D03*
X0286759Y0191209D03*
X0286916Y0191209D03*
X0287388Y0192626D03*
X0289121Y0192626D03*
X0289593Y0191209D03*
X0289751Y0191209D03*
X0288018Y0187272D03*
D40*
X0259378Y0188365D03*
X0268176Y0097563D03*
X0268333Y0097563D03*
X0226759Y0097035D03*
X0217231Y0094201D03*
D41*
X0216129Y0087823D03*
X0217861Y0087665D03*
X0226129Y0087193D03*
X0227073Y0087508D03*
X0227231Y0087508D03*
X0227388Y0089083D03*
X0227546Y0089083D03*
X0226916Y0090815D03*
X0226759Y0090815D03*
X0229278Y0093965D03*
X0236601Y0086618D03*
X0236759Y0086618D03*
X0236916Y0086618D03*
X0237073Y0086618D03*
X0237231Y0086618D03*
X0237388Y0086618D03*
X0237546Y0086618D03*
X0237703Y0086618D03*
X0237861Y0086618D03*
X0238018Y0086618D03*
X0238176Y0086618D03*
X0238333Y0086618D03*
X0238491Y0086618D03*
X0238648Y0086618D03*
X0238806Y0086618D03*
X0238963Y0086618D03*
X0239121Y0086618D03*
X0239278Y0086618D03*
X0239436Y0086618D03*
X0239593Y0086618D03*
X0239751Y0086618D03*
X0239908Y0086618D03*
X0238018Y0088035D03*
X0237861Y0088035D03*
X0238648Y0089138D03*
X0239751Y0090555D03*
X0239908Y0090555D03*
X0240066Y0090555D03*
X0240223Y0090555D03*
X0246759Y0088980D03*
X0246916Y0088980D03*
X0247073Y0088980D03*
X0247231Y0088980D03*
X0247388Y0088980D03*
X0247546Y0088980D03*
X0247703Y0088980D03*
X0247861Y0088980D03*
X0248018Y0088980D03*
X0248176Y0088980D03*
X0248333Y0088980D03*
X0248491Y0088980D03*
X0247861Y0090555D03*
X0248491Y0091657D03*
X0248648Y0091657D03*
X0248648Y0093075D03*
X0248491Y0093075D03*
X0248333Y0093075D03*
X0248176Y0093075D03*
X0248018Y0093075D03*
X0247861Y0093075D03*
X0247703Y0093075D03*
X0247546Y0093075D03*
X0247388Y0093075D03*
X0247231Y0093075D03*
X0247073Y0093075D03*
X0246916Y0093075D03*
X0246759Y0093075D03*
X0246601Y0093075D03*
X0248806Y0093075D03*
X0248963Y0093075D03*
X0249121Y0093075D03*
X0249278Y0093075D03*
X0249436Y0093075D03*
X0249593Y0093075D03*
X0249751Y0093075D03*
X0249908Y0093075D03*
X0250066Y0093075D03*
X0258018Y0090713D03*
X0258176Y0090713D03*
X0259436Y0088508D03*
X0259751Y0088350D03*
X0259751Y0093075D03*
X0267231Y0092130D03*
X0267388Y0092287D03*
X0267546Y0092287D03*
X0267861Y0092445D03*
X0268176Y0094177D03*
X0268176Y0088350D03*
X0268018Y0088350D03*
X0267861Y0088350D03*
X0267703Y0088350D03*
X0267388Y0088350D03*
X0267231Y0088350D03*
X0267073Y0088350D03*
X0266916Y0088350D03*
X0276601Y0092130D03*
X0277073Y0092130D03*
X0277231Y0092130D03*
X0279436Y0092130D03*
X0279908Y0092130D03*
X0278333Y0088193D03*
X0278176Y0088193D03*
X0277861Y0088350D03*
X0277703Y0088350D03*
X0277546Y0088350D03*
X0209436Y0092130D03*
X0209278Y0092130D03*
X0208806Y0092287D03*
X0208648Y0092287D03*
X0208648Y0088665D03*
X0208491Y0088665D03*
X0208333Y0088665D03*
X0208806Y0088665D03*
X0208963Y0088665D03*
X0209121Y0088665D03*
X0209278Y0088665D03*
X0226759Y0186880D03*
X0226916Y0186880D03*
X0227073Y0186880D03*
X0227231Y0186880D03*
X0227388Y0186880D03*
X0227546Y0186880D03*
X0227703Y0186880D03*
X0227861Y0186880D03*
X0228018Y0186880D03*
X0228176Y0186880D03*
X0228333Y0186880D03*
X0228491Y0186880D03*
X0227861Y0188455D03*
X0228491Y0189557D03*
X0228648Y0189557D03*
X0228648Y0190975D03*
X0228491Y0190975D03*
X0228333Y0190975D03*
X0228176Y0190975D03*
X0228018Y0190975D03*
X0227861Y0190975D03*
X0227703Y0190975D03*
X0227546Y0190975D03*
X0227388Y0190975D03*
X0227231Y0190975D03*
X0227073Y0190975D03*
X0226916Y0190975D03*
X0226759Y0190975D03*
X0226601Y0190975D03*
X0228806Y0190975D03*
X0228963Y0190975D03*
X0229121Y0190975D03*
X0229278Y0190975D03*
X0229436Y0190975D03*
X0229593Y0190975D03*
X0229751Y0190975D03*
X0229908Y0190975D03*
X0230066Y0190975D03*
X0239593Y0190435D03*
X0239751Y0190435D03*
X0239908Y0190435D03*
X0240066Y0190435D03*
X0248018Y0189113D03*
X0248176Y0189113D03*
X0249436Y0186908D03*
X0249751Y0186750D03*
X0249751Y0191475D03*
X0256386Y0192380D03*
X0256859Y0192223D03*
X0258591Y0192223D03*
X0258906Y0192380D03*
X0259063Y0192380D03*
X0286601Y0191130D03*
X0287073Y0191130D03*
X0287231Y0191130D03*
X0287231Y0192705D03*
X0289278Y0192705D03*
X0289436Y0192705D03*
X0289436Y0191130D03*
X0289908Y0191130D03*
X0288333Y0187193D03*
X0288176Y0187193D03*
X0287861Y0187350D03*
X0287703Y0187350D03*
X0287546Y0187350D03*
D42*
X0288176Y0182783D03*
X0290381Y0191917D03*
X0268018Y0097642D03*
X0267861Y0097642D03*
X0228018Y0098059D03*
X0217073Y0094122D03*
D43*
X0216444Y0093807D03*
X0218806Y0095067D03*
X0210381Y0095909D03*
X0227073Y0084831D03*
X0236286Y0094650D03*
X0228806Y0098374D03*
X0228648Y0098374D03*
X0246286Y0097012D03*
X0250381Y0085043D03*
X0267861Y0085043D03*
X0277861Y0085043D03*
X0280381Y0088665D03*
X0267073Y0097799D03*
X0287231Y0182626D03*
X0287388Y0182626D03*
X0289278Y0182626D03*
X0289436Y0182626D03*
X0289593Y0182626D03*
X0289751Y0182783D03*
X0289908Y0182783D03*
X0290066Y0182941D03*
X0290381Y0187665D03*
X0258433Y0187656D03*
X0258276Y0187656D03*
X0258118Y0187656D03*
X0258433Y0194900D03*
X0236601Y0194845D03*
X0236444Y0194845D03*
X0226286Y0194912D03*
X0237703Y0187601D03*
X0230381Y0182943D03*
D44*
X0257173Y0192144D03*
X0257331Y0191987D03*
X0259221Y0188207D03*
X0288333Y0182705D03*
X0290381Y0183335D03*
X0267703Y0097720D03*
X0267546Y0097720D03*
X0267703Y0085280D03*
X0227861Y0098138D03*
X0216916Y0094043D03*
D45*
X0216601Y0093886D03*
X0227231Y0097823D03*
X0227388Y0097980D03*
X0227546Y0097980D03*
X0206286Y0091421D03*
X0257861Y0085280D03*
X0267231Y0097720D03*
X0267388Y0097720D03*
X0286444Y0183020D03*
X0286286Y0183177D03*
X0288648Y0182547D03*
X0288806Y0182547D03*
X0288963Y0182547D03*
X0289121Y0182547D03*
X0290223Y0183020D03*
X0258748Y0187735D03*
X0258591Y0187735D03*
X0247861Y0183680D03*
X0237546Y0187680D03*
X0236286Y0194766D03*
D46*
X0237073Y0195002D03*
X0237231Y0195002D03*
X0230223Y0195069D03*
X0228963Y0185620D03*
X0228806Y0185620D03*
X0230223Y0182786D03*
X0246286Y0187380D03*
X0246286Y0190845D03*
X0247861Y0191790D03*
X0257646Y0191435D03*
X0257803Y0187656D03*
X0288018Y0194909D03*
X0288491Y0194909D03*
X0266759Y0097799D03*
X0266286Y0097484D03*
X0257861Y0093390D03*
X0256286Y0092445D03*
X0256286Y0088980D03*
X0250223Y0084886D03*
X0248963Y0087720D03*
X0248806Y0087720D03*
X0250223Y0097169D03*
X0229278Y0098217D03*
X0229121Y0098217D03*
X0219278Y0094909D03*
X0219121Y0094909D03*
X0216129Y0093650D03*
X0209121Y0094807D03*
X0206444Y0091343D03*
X0206286Y0087563D03*
X0276759Y0096854D03*
X0276916Y0096854D03*
D47*
X0275184Y0089846D03*
X0281483Y0089846D03*
X0219751Y0089476D03*
D48*
X0275341Y0090083D03*
X0281325Y0090083D03*
D49*
X0281168Y0090240D03*
X0275499Y0090240D03*
X0285341Y0189555D03*
X0291325Y0189555D03*
D50*
X0291168Y0189398D03*
X0285499Y0189398D03*
X0281010Y0090398D03*
X0275656Y0090398D03*
D51*
X0275814Y0090476D03*
X0280853Y0090476D03*
X0231483Y0090264D03*
X0225184Y0090264D03*
D52*
X0210696Y0090634D03*
X0205971Y0090634D03*
X0276129Y0090634D03*
X0280538Y0090634D03*
X0285814Y0189161D03*
X0290853Y0189161D03*
D53*
X0250381Y0189113D03*
X0280381Y0094492D03*
X0260381Y0090713D03*
D54*
X0279751Y0095909D03*
X0279908Y0095909D03*
X0280066Y0095752D03*
X0280223Y0095752D03*
X0287861Y0183256D03*
D55*
X0228491Y0097508D03*
X0277073Y0095988D03*
X0277231Y0095988D03*
X0277388Y0095988D03*
X0279278Y0095988D03*
X0279436Y0095988D03*
X0279593Y0095988D03*
D56*
X0279121Y0096067D03*
X0278963Y0096067D03*
X0278806Y0096067D03*
X0278648Y0096067D03*
X0278491Y0096067D03*
X0278333Y0096067D03*
X0278176Y0096067D03*
X0278018Y0096067D03*
X0277861Y0096067D03*
X0277703Y0096067D03*
X0277546Y0096067D03*
X0228333Y0097429D03*
X0228176Y0097429D03*
X0287703Y0183413D03*
X0240381Y0188546D03*
D57*
X0258906Y0187813D03*
X0259063Y0187971D03*
X0287546Y0182626D03*
X0288491Y0182626D03*
X0227703Y0098059D03*
X0216759Y0093965D03*
X0277703Y0085201D03*
D58*
X0257861Y0090713D03*
X0257703Y0090713D03*
X0248333Y0090398D03*
X0248176Y0091815D03*
X0238176Y0089295D03*
X0238333Y0087878D03*
X0227861Y0089083D03*
X0227703Y0089083D03*
X0226601Y0087350D03*
X0226444Y0087350D03*
X0218963Y0090028D03*
X0268709Y0185085D03*
X0278709Y0184836D03*
X0287546Y0192547D03*
X0288963Y0192547D03*
X0247861Y0189113D03*
X0247703Y0189113D03*
X0228333Y0188298D03*
X0228176Y0189715D03*
D59*
X0230381Y0191054D03*
X0280362Y0176372D03*
X0250381Y0093154D03*
X0221483Y0088531D03*
X0215184Y0088531D03*
D60*
X0173223Y0168557D03*
X0173223Y0173243D03*
D61*
X0173223Y0173124D03*
X0173223Y0168676D03*
X0305168Y0123955D03*
X0303951Y0115043D03*
X0303951Y0110357D03*
D62*
X0173223Y0173026D03*
D63*
X0173223Y0172908D03*
D64*
X0173223Y0172770D03*
X0173223Y0168991D03*
X0268605Y0103012D03*
X0303951Y0110594D03*
D65*
X0268605Y0106870D03*
X0268605Y0103091D03*
X0173223Y0169109D03*
X0173223Y0172652D03*
D66*
X0173223Y0172554D03*
D67*
X0176294Y0172455D03*
X0272266Y0104665D03*
X0307730Y0113428D03*
X0307730Y0113507D03*
X0307648Y0123128D03*
X0307648Y0123207D03*
D68*
X0302983Y0120845D03*
X0298731Y0120845D03*
X0298613Y0121120D03*
X0299640Y0113980D03*
X0299640Y0111420D03*
X0299758Y0111145D03*
X0267365Y0103445D03*
X0264648Y0103445D03*
X0264530Y0103720D03*
X0172692Y0172455D03*
D69*
X0169798Y0172455D03*
X0272621Y0104862D03*
X0298672Y0122065D03*
X0299144Y0123955D03*
D70*
X0299699Y0114117D03*
X0299699Y0111283D03*
X0264589Y0106417D03*
X0264589Y0103583D03*
X0177121Y0169483D03*
X0177121Y0172317D03*
D71*
X0174995Y0172317D03*
X0172987Y0171845D03*
X0269314Y0105945D03*
X0269314Y0105000D03*
D72*
X0302215Y0123817D03*
X0172869Y0172317D03*
D73*
X0169503Y0172317D03*
X0177298Y0171372D03*
X0177298Y0170900D03*
X0177298Y0170428D03*
X0272444Y0106417D03*
X0272798Y0105472D03*
X0298495Y0122872D03*
X0298613Y0123345D03*
D74*
X0298554Y0121317D03*
X0298554Y0121239D03*
X0299581Y0113901D03*
X0299581Y0113783D03*
X0299581Y0111617D03*
X0299581Y0111539D03*
X0308203Y0111420D03*
X0308321Y0111539D03*
X0308321Y0111617D03*
X0308121Y0121120D03*
X0308239Y0121239D03*
X0308239Y0121317D03*
X0272739Y0103917D03*
X0264471Y0103917D03*
X0264471Y0103839D03*
X0264471Y0106083D03*
X0264471Y0106201D03*
X0264589Y0106280D03*
X0177003Y0169345D03*
X0177121Y0169620D03*
X0177121Y0172180D03*
X0169325Y0169620D03*
D75*
X0173282Y0171117D03*
X0173046Y0171707D03*
X0174109Y0171707D03*
X0174109Y0171628D03*
X0175054Y0172101D03*
X0175054Y0172180D03*
X0175054Y0170290D03*
X0266656Y0106083D03*
X0266656Y0104783D03*
X0269255Y0104783D03*
X0269255Y0104862D03*
X0269255Y0103917D03*
X0269255Y0103839D03*
X0302238Y0113507D03*
X0305073Y0111617D03*
X0304873Y0121593D03*
X0304873Y0121672D03*
X0306172Y0121593D03*
X0304873Y0123680D03*
D76*
X0305109Y0120845D03*
X0302274Y0121790D03*
X0302120Y0112365D03*
X0267010Y0104272D03*
X0172928Y0172180D03*
D77*
X0174109Y0170172D03*
X0177180Y0169817D03*
X0177180Y0169739D03*
X0177180Y0171983D03*
X0177180Y0172101D03*
X0169385Y0172180D03*
X0169266Y0172101D03*
X0169266Y0171983D03*
X0169266Y0169817D03*
X0169266Y0169739D03*
X0264412Y0105807D03*
X0264412Y0105728D03*
X0264412Y0104272D03*
X0264412Y0104193D03*
X0272562Y0103720D03*
X0272680Y0103839D03*
X0272798Y0104193D03*
X0272798Y0105728D03*
X0272680Y0106083D03*
X0299522Y0111893D03*
X0299522Y0111972D03*
X0299522Y0113428D03*
X0299522Y0113507D03*
X0308380Y0111893D03*
D78*
X0302002Y0112562D03*
X0302002Y0112838D03*
X0303455Y0122735D03*
X0270554Y0104390D03*
X0267837Y0105335D03*
X0172928Y0172101D03*
D79*
X0173105Y0171628D03*
X0173105Y0171510D03*
X0173223Y0171235D03*
X0173105Y0170290D03*
X0174168Y0171510D03*
X0175113Y0171510D03*
X0175113Y0171628D03*
X0175113Y0171707D03*
X0175113Y0171983D03*
X0175113Y0170762D03*
X0175113Y0170683D03*
X0175113Y0170565D03*
X0266597Y0105807D03*
X0266597Y0105728D03*
X0266597Y0104862D03*
X0269196Y0104665D03*
X0269196Y0104390D03*
X0269196Y0104272D03*
X0269196Y0104193D03*
X0270495Y0105807D03*
X0302297Y0113428D03*
X0305014Y0113428D03*
X0305014Y0113507D03*
X0305014Y0113310D03*
X0305014Y0113035D03*
X0305014Y0112917D03*
X0305014Y0112838D03*
X0305014Y0112562D03*
X0305014Y0112483D03*
X0305014Y0112365D03*
X0305014Y0112090D03*
X0305014Y0111972D03*
X0305014Y0111893D03*
X0306313Y0111893D03*
X0305014Y0113783D03*
X0305014Y0113901D03*
X0305014Y0113980D03*
X0304814Y0121790D03*
X0304814Y0122065D03*
X0304814Y0122183D03*
X0304814Y0122262D03*
X0304814Y0122538D03*
X0304814Y0122617D03*
X0304814Y0122735D03*
X0304814Y0123010D03*
X0304814Y0123128D03*
X0304814Y0123207D03*
X0304814Y0123483D03*
X0304814Y0123601D03*
X0302215Y0123207D03*
X0302215Y0123128D03*
X0302097Y0122538D03*
D80*
X0301034Y0122538D03*
X0300916Y0122735D03*
X0300916Y0123010D03*
X0302215Y0123601D03*
X0303514Y0123010D03*
X0303514Y0122617D03*
X0303514Y0122538D03*
X0302179Y0113783D03*
X0303596Y0113310D03*
X0303596Y0113035D03*
X0303596Y0112917D03*
X0270495Y0104272D03*
X0267896Y0105138D03*
X0267896Y0105217D03*
X0267896Y0105610D03*
X0266833Y0104390D03*
X0174877Y0171117D03*
X0172987Y0171983D03*
X0171451Y0171628D03*
D81*
X0169207Y0171845D03*
X0169207Y0169955D03*
X0169444Y0169483D03*
X0174050Y0169955D03*
X0177239Y0169955D03*
X0177239Y0171845D03*
X0272739Y0105945D03*
X0272503Y0103583D03*
X0264353Y0104528D03*
X0264353Y0105000D03*
X0264353Y0105472D03*
X0299462Y0112228D03*
X0299462Y0112700D03*
X0299462Y0113172D03*
X0302770Y0111755D03*
D82*
X0305014Y0112228D03*
X0305014Y0112700D03*
X0305014Y0113172D03*
X0305014Y0113645D03*
X0304814Y0121928D03*
X0304814Y0122400D03*
X0304814Y0122872D03*
X0304814Y0123345D03*
X0269196Y0104528D03*
X0269196Y0104055D03*
X0266597Y0105000D03*
X0266597Y0105945D03*
X0175113Y0170428D03*
X0175113Y0171845D03*
D83*
X0174109Y0171845D03*
X0266538Y0105472D03*
X0302156Y0122872D03*
D84*
X0298554Y0123128D03*
X0307885Y0120845D03*
X0308239Y0121593D03*
X0308321Y0111972D03*
X0307966Y0111145D03*
X0302770Y0111420D03*
X0302770Y0111539D03*
X0302770Y0111617D03*
X0302770Y0111893D03*
X0299462Y0112090D03*
X0299462Y0112365D03*
X0299462Y0112483D03*
X0299462Y0112562D03*
X0299462Y0112838D03*
X0299462Y0112917D03*
X0299462Y0113035D03*
X0299462Y0113310D03*
X0272857Y0105610D03*
X0272739Y0105807D03*
X0272621Y0106201D03*
X0272503Y0106280D03*
X0272739Y0104272D03*
X0264353Y0104390D03*
X0264353Y0104665D03*
X0264353Y0104783D03*
X0264353Y0104862D03*
X0264353Y0105138D03*
X0264353Y0105217D03*
X0264353Y0105335D03*
X0264353Y0105610D03*
X0177239Y0170093D03*
X0177239Y0170172D03*
X0177239Y0171628D03*
X0177239Y0171707D03*
X0174050Y0170093D03*
X0169207Y0171707D03*
D85*
X0169266Y0171628D03*
X0169266Y0170093D03*
X0169621Y0169345D03*
X0173991Y0169817D03*
X0177298Y0170290D03*
X0177298Y0170565D03*
X0177298Y0170683D03*
X0177298Y0170762D03*
X0177298Y0171038D03*
X0177298Y0171117D03*
X0177298Y0171235D03*
X0177298Y0171510D03*
X0272798Y0105335D03*
X0272798Y0105217D03*
X0272325Y0103445D03*
X0298495Y0122538D03*
X0298495Y0122617D03*
X0298495Y0122735D03*
X0298495Y0123010D03*
X0298613Y0123207D03*
X0298731Y0123483D03*
X0298731Y0123601D03*
X0298849Y0123680D03*
X0308180Y0121672D03*
D86*
X0302215Y0123680D03*
X0302179Y0113901D03*
X0302061Y0112483D03*
X0305250Y0111145D03*
X0269550Y0105217D03*
X0269432Y0103445D03*
X0174759Y0171235D03*
X0171451Y0171510D03*
X0171451Y0170172D03*
D87*
X0173873Y0169620D03*
X0169266Y0171510D03*
X0272207Y0106555D03*
X0298613Y0122183D03*
D88*
X0302156Y0123345D03*
X0304873Y0123817D03*
X0304873Y0121455D03*
X0304955Y0114117D03*
X0305073Y0111755D03*
X0175054Y0170900D03*
X0175054Y0171372D03*
X0174345Y0171372D03*
X0173164Y0171372D03*
D89*
X0169975Y0171372D03*
D90*
X0170034Y0171235D03*
X0170034Y0171117D03*
X0170034Y0170565D03*
D91*
X0171451Y0170093D03*
X0173341Y0171038D03*
X0174995Y0171038D03*
X0266715Y0106201D03*
X0266715Y0104665D03*
X0269314Y0103720D03*
X0270495Y0104193D03*
X0269314Y0106083D03*
X0269314Y0106201D03*
X0300916Y0123128D03*
X0302215Y0123483D03*
X0304932Y0121317D03*
X0304932Y0121239D03*
X0305132Y0111539D03*
D92*
X0170093Y0170683D03*
X0170093Y0170762D03*
X0170093Y0171038D03*
D93*
X0173400Y0170900D03*
X0266774Y0104528D03*
X0269373Y0103583D03*
X0302238Y0113645D03*
D94*
X0170093Y0170900D03*
D95*
X0173164Y0170762D03*
X0266538Y0105610D03*
X0266538Y0105335D03*
X0266538Y0105217D03*
X0266538Y0105138D03*
X0302238Y0112917D03*
X0302238Y0113035D03*
X0302356Y0113310D03*
X0302156Y0122617D03*
X0302156Y0122735D03*
X0302156Y0123010D03*
D96*
X0279949Y0176431D03*
X0266918Y0176680D03*
X0173105Y0170683D03*
X0173105Y0170565D03*
D97*
X0173105Y0170428D03*
X0267744Y0178471D03*
X0269122Y0178471D03*
X0277744Y0178222D03*
X0279122Y0178222D03*
X0302297Y0113172D03*
D98*
X0170034Y0170428D03*
D99*
X0169975Y0170290D03*
D100*
X0169325Y0170172D03*
X0173932Y0169739D03*
X0272739Y0105138D03*
X0272739Y0104390D03*
X0302770Y0111145D03*
X0298554Y0122262D03*
D101*
X0298731Y0121928D03*
X0173755Y0169483D03*
D102*
X0173696Y0169345D03*
X0299026Y0121593D03*
X0307612Y0113980D03*
D103*
X0303951Y0110712D03*
X0303396Y0120176D03*
X0303396Y0124624D03*
X0268605Y0106752D03*
X0268605Y0103209D03*
X0173223Y0169227D03*
D104*
X0173223Y0168912D03*
X0303396Y0124743D03*
X0303396Y0120057D03*
D105*
X0173223Y0168794D03*
D106*
X0219908Y0089398D03*
X0235184Y0089925D03*
X0235341Y0089925D03*
X0235499Y0089925D03*
X0235656Y0089925D03*
X0235814Y0089925D03*
X0235971Y0089925D03*
X0236129Y0089925D03*
X0240381Y0089925D03*
X0240538Y0089925D03*
X0240696Y0089925D03*
X0240853Y0089925D03*
X0241010Y0089925D03*
X0241168Y0089925D03*
X0241325Y0089925D03*
X0241483Y0089925D03*
D107*
X0240503Y0144329D03*
X0234597Y0144329D03*
X0240503Y0148581D03*
X0243337Y0148581D03*
X0234597Y0150707D03*
X0219007Y0148345D03*
X0219007Y0144565D03*
D108*
X0221959Y0144329D03*
X0221959Y0148581D03*
X0229518Y0150707D03*
D109*
X0234597Y0150471D03*
X0234597Y0150235D03*
X0234597Y0149998D03*
X0234597Y0149762D03*
X0234597Y0149526D03*
X0234597Y0149290D03*
X0234597Y0149054D03*
X0234597Y0148817D03*
X0234597Y0148581D03*
X0234597Y0146691D03*
X0234597Y0146455D03*
X0234597Y0146219D03*
X0231762Y0145983D03*
X0231526Y0146219D03*
X0231526Y0146455D03*
X0231526Y0146691D03*
X0231762Y0146928D03*
X0228928Y0144329D03*
X0226802Y0145983D03*
X0226802Y0146219D03*
X0226802Y0146455D03*
X0226802Y0146691D03*
X0226802Y0146928D03*
X0223731Y0146928D03*
X0223731Y0146691D03*
X0223731Y0146455D03*
X0223731Y0146219D03*
X0221841Y0144802D03*
X0219007Y0144802D03*
X0219007Y0148109D03*
X0221841Y0148109D03*
X0217688Y0139654D03*
X0240503Y0145983D03*
X0240503Y0146219D03*
X0240503Y0146455D03*
X0240503Y0146691D03*
X0240503Y0146928D03*
X0240503Y0147164D03*
X0240503Y0147400D03*
X0240503Y0147636D03*
X0240503Y0147872D03*
X0240503Y0148109D03*
X0243337Y0147872D03*
X0243337Y0147636D03*
X0243337Y0147400D03*
X0243337Y0147164D03*
X0243337Y0146928D03*
X0243337Y0146691D03*
X0243337Y0146455D03*
X0243337Y0146219D03*
X0243337Y0145983D03*
D110*
X0242274Y0144329D03*
X0243455Y0148109D03*
X0243455Y0148345D03*
X0240385Y0148345D03*
X0232825Y0148581D03*
X0229518Y0148581D03*
X0229518Y0148345D03*
X0229518Y0148109D03*
X0229518Y0147872D03*
X0229518Y0147636D03*
X0229518Y0147400D03*
X0229518Y0147164D03*
X0229518Y0146928D03*
X0229518Y0146691D03*
X0229518Y0146455D03*
X0229518Y0146219D03*
X0229518Y0145983D03*
X0229518Y0145746D03*
X0229518Y0148817D03*
X0229518Y0149054D03*
X0229518Y0149290D03*
X0229518Y0149526D03*
X0229518Y0149762D03*
X0229518Y0149998D03*
X0229518Y0150235D03*
X0229518Y0150471D03*
X0221959Y0148345D03*
X0221959Y0144565D03*
X0232825Y0144329D03*
D111*
X0225266Y0148817D03*
D112*
X0225385Y0148581D03*
X0221841Y0147872D03*
X0221605Y0147636D03*
X0221605Y0145274D03*
X0221841Y0145038D03*
X0219243Y0145274D03*
X0219243Y0147636D03*
X0229164Y0145510D03*
X0228928Y0144565D03*
D113*
X0219007Y0144329D03*
X0219007Y0148581D03*
D114*
X0220424Y0147164D03*
X0220424Y0145746D03*
X0233652Y0144565D03*
X0233652Y0148345D03*
X0241448Y0144565D03*
D115*
X0237550Y0146691D03*
X0225266Y0148345D03*
X0225266Y0144565D03*
D116*
X0220424Y0145510D03*
X0220424Y0147400D03*
X0233416Y0147872D03*
X0233416Y0148109D03*
X0233416Y0144802D03*
X0241684Y0144802D03*
X0241684Y0145038D03*
D117*
X0237550Y0145746D03*
X0237550Y0145983D03*
X0237550Y0146219D03*
X0237550Y0146455D03*
X0225266Y0144802D03*
X0225266Y0148109D03*
D118*
X0225266Y0147872D03*
X0225266Y0145038D03*
D119*
X0225266Y0144329D03*
X0224085Y0145746D03*
X0223849Y0145983D03*
X0224085Y0147164D03*
X0226684Y0147164D03*
X0226684Y0145746D03*
X0219125Y0145038D03*
X0219125Y0147872D03*
X0234479Y0146928D03*
X0234479Y0145983D03*
D120*
X0233298Y0145274D03*
X0233298Y0145038D03*
X0233298Y0147636D03*
X0225266Y0147636D03*
X0225266Y0147400D03*
X0225266Y0145510D03*
X0225266Y0145274D03*
X0241802Y0145274D03*
X0241802Y0145510D03*
D121*
X0241920Y0145746D03*
X0233180Y0145746D03*
X0233180Y0145510D03*
X0233180Y0147164D03*
X0233180Y0147400D03*
D122*
X0237432Y0145510D03*
X0220424Y0145983D03*
X0220424Y0146928D03*
D123*
X0220424Y0146691D03*
X0220424Y0146219D03*
D124*
X0220542Y0146455D03*
X0229046Y0145274D03*
X0229046Y0145038D03*
X0229046Y0144802D03*
D125*
X0225385Y0144093D03*
D126*
X0177904Y0121471D03*
X0160739Y0120054D03*
X0170345Y0096746D03*
D127*
X0175818Y0115644D03*
X0173377Y0119030D03*
X0173455Y0119345D03*
X0173534Y0119502D03*
X0173534Y0119581D03*
X0173613Y0119739D03*
X0173613Y0119817D03*
X0173692Y0119975D03*
X0173692Y0120054D03*
X0173770Y0120211D03*
X0173770Y0120290D03*
X0173849Y0120447D03*
X0173849Y0120526D03*
X0173928Y0120683D03*
X0173928Y0120762D03*
X0174007Y0120998D03*
X0174164Y0121471D03*
X0175818Y0121471D03*
X0168495Y0119975D03*
X0168416Y0120211D03*
X0168337Y0120369D03*
X0168337Y0120447D03*
X0168337Y0120526D03*
X0168259Y0120683D03*
X0168259Y0120762D03*
X0168180Y0120841D03*
X0168180Y0120920D03*
X0168180Y0120998D03*
X0168101Y0121156D03*
X0168101Y0121235D03*
X0168022Y0121392D03*
X0166448Y0121471D03*
X0164794Y0121471D03*
X0166448Y0117219D03*
D128*
X0168849Y0118872D03*
X0168770Y0119187D03*
X0168692Y0119345D03*
X0168692Y0119424D03*
X0168613Y0119581D03*
X0168613Y0119660D03*
X0168613Y0119739D03*
X0168534Y0119817D03*
X0168534Y0119896D03*
X0168455Y0120054D03*
X0168455Y0120132D03*
X0168377Y0120290D03*
X0168298Y0120605D03*
X0168062Y0121471D03*
X0171054Y0121471D03*
X0173652Y0119896D03*
X0173573Y0119660D03*
X0173495Y0119424D03*
X0173416Y0119266D03*
X0173416Y0119187D03*
X0173416Y0119109D03*
X0173337Y0118951D03*
X0173337Y0118872D03*
X0173259Y0118794D03*
X0161684Y0121392D03*
X0160739Y0120290D03*
X0163022Y0099896D03*
D129*
X0162825Y0099660D03*
X0161723Y0121471D03*
D130*
X0160660Y0118400D03*
X0170345Y0119266D03*
X0171684Y0119660D03*
X0171762Y0119581D03*
X0171762Y0119502D03*
X0171841Y0119266D03*
X0171841Y0119187D03*
X0171920Y0119109D03*
X0171920Y0119030D03*
X0171920Y0118951D03*
X0171920Y0118872D03*
X0171999Y0118794D03*
X0177904Y0117140D03*
X0177904Y0121392D03*
X0162944Y0099817D03*
D131*
X0175778Y0115723D03*
X0175778Y0115802D03*
X0175778Y0115880D03*
X0175778Y0115959D03*
X0175778Y0116038D03*
X0175778Y0116117D03*
X0175778Y0116195D03*
X0175778Y0116274D03*
X0175778Y0116353D03*
X0175778Y0116431D03*
X0175778Y0116510D03*
X0175778Y0116589D03*
X0175778Y0116668D03*
X0175778Y0116746D03*
X0175778Y0116825D03*
X0175778Y0116904D03*
X0175778Y0116983D03*
X0175778Y0117061D03*
X0175778Y0117140D03*
X0175778Y0117219D03*
X0175778Y0117298D03*
X0175778Y0117376D03*
X0175778Y0117455D03*
X0175778Y0119109D03*
X0175778Y0119187D03*
X0175778Y0119266D03*
X0175778Y0119345D03*
X0175778Y0119424D03*
X0175778Y0121077D03*
X0175778Y0121156D03*
X0175778Y0121235D03*
X0175778Y0121313D03*
X0175778Y0121392D03*
X0174125Y0121392D03*
X0174125Y0121313D03*
X0174125Y0121235D03*
X0174046Y0121156D03*
X0174046Y0121077D03*
X0173967Y0120920D03*
X0173967Y0120841D03*
X0173888Y0120605D03*
X0173810Y0120369D03*
X0173731Y0120132D03*
X0171054Y0121392D03*
X0168140Y0121077D03*
X0168062Y0121313D03*
X0166487Y0121313D03*
X0166487Y0121235D03*
X0166487Y0121156D03*
X0166487Y0121077D03*
X0166487Y0120998D03*
X0166487Y0120920D03*
X0166487Y0120841D03*
X0166487Y0120762D03*
X0166487Y0120683D03*
X0166487Y0120605D03*
X0166487Y0120526D03*
X0166487Y0120447D03*
X0166487Y0120369D03*
X0166487Y0120290D03*
X0166487Y0120211D03*
X0166487Y0120132D03*
X0166487Y0120054D03*
X0166487Y0119975D03*
X0166487Y0119896D03*
X0166487Y0119817D03*
X0166487Y0119739D03*
X0166487Y0119660D03*
X0166487Y0119581D03*
X0166487Y0119502D03*
X0166487Y0119424D03*
X0166487Y0119345D03*
X0166487Y0119266D03*
X0166487Y0119187D03*
X0166487Y0119109D03*
X0166487Y0119030D03*
X0166487Y0118951D03*
X0166487Y0118872D03*
X0166487Y0118794D03*
X0166487Y0118715D03*
X0166487Y0118636D03*
X0166487Y0118557D03*
X0166487Y0118479D03*
X0166487Y0118400D03*
X0166487Y0118321D03*
X0166487Y0118243D03*
X0166487Y0118164D03*
X0166487Y0118085D03*
X0166487Y0118006D03*
X0166487Y0117928D03*
X0166487Y0117849D03*
X0166487Y0117770D03*
X0166487Y0117691D03*
X0166487Y0117613D03*
X0166487Y0117534D03*
X0166487Y0117455D03*
X0166487Y0117376D03*
X0166487Y0117298D03*
X0164755Y0117298D03*
X0164755Y0117376D03*
X0164755Y0117455D03*
X0164755Y0117534D03*
X0164755Y0117613D03*
X0164755Y0117691D03*
X0164755Y0117770D03*
X0164755Y0117849D03*
X0164755Y0117928D03*
X0164755Y0118006D03*
X0164755Y0118085D03*
X0164755Y0118164D03*
X0164755Y0118243D03*
X0164755Y0118321D03*
X0164755Y0118400D03*
X0164755Y0118479D03*
X0164755Y0118557D03*
X0164755Y0118636D03*
X0164755Y0118715D03*
X0164755Y0118794D03*
X0164755Y0118872D03*
X0164755Y0118951D03*
X0164755Y0119030D03*
X0164755Y0119109D03*
X0164755Y0119187D03*
X0164755Y0119266D03*
X0164755Y0119345D03*
X0164755Y0119424D03*
X0164755Y0119502D03*
X0164755Y0119581D03*
X0164755Y0119660D03*
X0164755Y0119739D03*
X0164755Y0119817D03*
X0164755Y0119896D03*
X0164755Y0119975D03*
X0164755Y0120054D03*
X0164755Y0120132D03*
X0164755Y0120211D03*
X0164755Y0120290D03*
X0164755Y0120369D03*
X0164755Y0120447D03*
X0164755Y0120526D03*
X0164755Y0120605D03*
X0164755Y0120683D03*
X0164755Y0120762D03*
X0164755Y0120841D03*
X0164755Y0120920D03*
X0164755Y0120998D03*
X0164755Y0121077D03*
X0164755Y0121156D03*
X0164755Y0121235D03*
X0164755Y0121313D03*
X0164755Y0121392D03*
X0166487Y0121392D03*
X0163101Y0119896D03*
X0163180Y0119660D03*
X0163180Y0119581D03*
X0163180Y0119502D03*
X0163180Y0119424D03*
X0163180Y0119345D03*
X0163180Y0119266D03*
X0163180Y0119187D03*
X0163180Y0119109D03*
X0163180Y0119030D03*
X0163180Y0118951D03*
X0161684Y0117298D03*
X0164755Y0117219D03*
X0169558Y0117219D03*
X0172629Y0117219D03*
X0172629Y0117298D03*
X0179164Y0118951D03*
X0179164Y0119030D03*
X0179164Y0119109D03*
X0179164Y0119187D03*
X0179164Y0119266D03*
X0179164Y0119345D03*
X0179164Y0119424D03*
X0179164Y0119502D03*
X0179164Y0119581D03*
D132*
X0178967Y0120132D03*
X0177944Y0121313D03*
X0175896Y0119975D03*
X0175896Y0118557D03*
X0178967Y0118400D03*
X0172668Y0117613D03*
X0169597Y0117534D03*
X0169597Y0116195D03*
X0171093Y0120920D03*
X0171093Y0120998D03*
X0162983Y0120132D03*
X0162983Y0118479D03*
D133*
X0163062Y0118636D03*
X0163062Y0118715D03*
X0163140Y0118794D03*
X0163140Y0118872D03*
X0163140Y0119739D03*
X0163140Y0119817D03*
X0163062Y0119975D03*
X0169597Y0117376D03*
X0169597Y0117298D03*
X0171093Y0121235D03*
X0171093Y0121313D03*
X0175818Y0120998D03*
X0175818Y0119660D03*
X0175818Y0119581D03*
X0175818Y0119502D03*
X0175818Y0119030D03*
X0175818Y0118951D03*
X0175818Y0118872D03*
X0175818Y0117534D03*
X0179046Y0118636D03*
X0179125Y0118715D03*
X0179125Y0118794D03*
X0179125Y0118872D03*
X0179125Y0119660D03*
X0179125Y0119739D03*
X0179125Y0119817D03*
X0179046Y0119896D03*
X0163062Y0099975D03*
D134*
X0163101Y0100132D03*
X0165463Y0105565D03*
X0165463Y0105644D03*
X0165463Y0105723D03*
X0165463Y0105802D03*
X0165463Y0105880D03*
X0165463Y0105959D03*
X0165463Y0106038D03*
X0165463Y0106117D03*
X0165463Y0106195D03*
X0165463Y0106274D03*
X0165463Y0106353D03*
X0165463Y0106431D03*
X0165463Y0106510D03*
X0165463Y0106589D03*
X0165463Y0106668D03*
X0165463Y0106746D03*
X0165463Y0106825D03*
X0165463Y0106904D03*
X0165463Y0106983D03*
X0165463Y0107061D03*
X0165463Y0107140D03*
X0165463Y0107219D03*
X0168298Y0107298D03*
X0168298Y0105487D03*
X0171133Y0105487D03*
X0171133Y0105565D03*
X0171133Y0105644D03*
X0171133Y0105723D03*
X0171133Y0105802D03*
X0171133Y0105880D03*
X0171133Y0105959D03*
X0171133Y0106038D03*
X0171133Y0106117D03*
X0171133Y0106195D03*
X0171133Y0106274D03*
X0171133Y0106353D03*
X0171133Y0106431D03*
X0171133Y0106510D03*
X0171133Y0106589D03*
X0171133Y0106668D03*
X0171133Y0106746D03*
X0171133Y0106825D03*
X0171133Y0106904D03*
X0171133Y0106983D03*
X0171133Y0107061D03*
X0171133Y0107140D03*
X0171133Y0107219D03*
X0171133Y0107298D03*
X0173967Y0107219D03*
X0173967Y0107140D03*
X0173967Y0107061D03*
X0173967Y0106983D03*
X0173967Y0106904D03*
X0173967Y0106825D03*
X0173967Y0106746D03*
X0173967Y0106668D03*
X0173967Y0106589D03*
X0173967Y0106510D03*
X0173967Y0106431D03*
X0173967Y0106353D03*
X0173967Y0106274D03*
X0173967Y0106195D03*
X0173967Y0106117D03*
X0173967Y0106038D03*
X0173967Y0105959D03*
X0173967Y0105880D03*
X0173967Y0105802D03*
X0173967Y0105723D03*
X0173967Y0105644D03*
X0173967Y0105565D03*
X0172629Y0117849D03*
X0172629Y0117928D03*
X0171054Y0120526D03*
X0171054Y0120605D03*
X0169558Y0118006D03*
X0169558Y0117928D03*
X0169558Y0117849D03*
X0176014Y0118321D03*
X0177904Y0117298D03*
X0178770Y0120290D03*
X0177904Y0121235D03*
X0162786Y0120290D03*
X0161684Y0121313D03*
D135*
X0161723Y0121235D03*
X0169518Y0118243D03*
X0171093Y0120054D03*
X0171093Y0120132D03*
X0172668Y0118321D03*
X0172668Y0118243D03*
X0176133Y0120290D03*
X0163140Y0100211D03*
X0171408Y0097140D03*
D136*
X0177825Y0103676D03*
X0177825Y0103754D03*
X0177904Y0117376D03*
X0177904Y0121156D03*
X0169558Y0118400D03*
X0169558Y0118321D03*
D137*
X0169558Y0117455D03*
X0172629Y0117455D03*
X0172629Y0117376D03*
X0172629Y0117534D03*
X0175857Y0118636D03*
X0175857Y0118715D03*
X0175857Y0118794D03*
X0175857Y0119739D03*
X0175857Y0119817D03*
X0175857Y0119896D03*
X0179007Y0119975D03*
X0179007Y0120054D03*
X0179007Y0118557D03*
X0179007Y0118479D03*
X0177904Y0117219D03*
X0171054Y0121077D03*
X0171054Y0121156D03*
X0163022Y0120054D03*
X0163022Y0118557D03*
X0170896Y0096904D03*
D138*
X0163180Y0100369D03*
X0161369Y0103991D03*
X0161369Y0104069D03*
X0161369Y0104148D03*
X0161369Y0104227D03*
X0161369Y0108715D03*
X0161369Y0108794D03*
X0161369Y0108872D03*
X0161448Y0109187D03*
X0161684Y0117534D03*
X0161684Y0121156D03*
X0177904Y0117534D03*
X0177983Y0108085D03*
X0177983Y0108006D03*
X0177983Y0107928D03*
X0177983Y0107849D03*
X0177983Y0107770D03*
X0177983Y0107691D03*
X0177983Y0107613D03*
X0177983Y0107534D03*
X0177983Y0107455D03*
X0177983Y0107376D03*
X0177983Y0105565D03*
X0177983Y0105487D03*
X0177983Y0105408D03*
X0177983Y0105329D03*
X0177983Y0105250D03*
X0177983Y0105172D03*
X0177983Y0105093D03*
X0177983Y0105014D03*
X0177983Y0104935D03*
X0177983Y0104857D03*
D139*
X0177944Y0104778D03*
X0177944Y0104699D03*
X0177944Y0104620D03*
X0177944Y0104542D03*
X0177944Y0104463D03*
X0177944Y0108164D03*
X0177944Y0108243D03*
X0177944Y0108321D03*
X0177944Y0108400D03*
X0177944Y0108479D03*
X0172668Y0118636D03*
X0172668Y0118715D03*
X0169518Y0118715D03*
X0177944Y0121077D03*
X0161408Y0109109D03*
X0161408Y0109030D03*
X0161408Y0108951D03*
X0161408Y0103912D03*
X0161408Y0103833D03*
X0161408Y0103754D03*
X0161487Y0103597D03*
D140*
X0161251Y0105093D03*
X0161251Y0105172D03*
X0161251Y0105250D03*
X0161251Y0105329D03*
X0161251Y0105408D03*
X0161251Y0105487D03*
X0161251Y0105565D03*
X0161251Y0105644D03*
X0161251Y0105723D03*
X0161251Y0105802D03*
X0161251Y0105880D03*
X0161251Y0105959D03*
X0161251Y0106038D03*
X0161251Y0106117D03*
X0161251Y0106825D03*
X0161251Y0106904D03*
X0161251Y0106983D03*
X0161251Y0107061D03*
X0161251Y0107140D03*
X0161251Y0107219D03*
X0161251Y0107298D03*
X0161251Y0107376D03*
X0161251Y0107455D03*
X0161251Y0107534D03*
X0161251Y0107613D03*
X0161251Y0107691D03*
X0161251Y0107770D03*
X0163219Y0100526D03*
X0169361Y0101865D03*
X0169440Y0102022D03*
X0169440Y0102101D03*
X0169440Y0102180D03*
X0169518Y0102258D03*
X0169518Y0102337D03*
X0169518Y0102416D03*
X0169597Y0102573D03*
X0169597Y0102652D03*
X0169676Y0102967D03*
X0161723Y0121077D03*
D141*
X0161329Y0108636D03*
X0161329Y0108557D03*
X0161329Y0108479D03*
X0161329Y0108400D03*
X0161329Y0108321D03*
X0161329Y0108243D03*
X0161329Y0104699D03*
X0161329Y0104620D03*
X0161329Y0104542D03*
X0161329Y0104463D03*
X0161329Y0104384D03*
X0161329Y0104306D03*
X0163219Y0100447D03*
X0169755Y0103361D03*
X0169755Y0103439D03*
X0169755Y0103518D03*
X0171723Y0097298D03*
X0178022Y0105644D03*
X0178022Y0105723D03*
X0178022Y0105802D03*
X0178022Y0105880D03*
X0178022Y0105959D03*
X0178022Y0106038D03*
X0178022Y0106117D03*
X0178022Y0106195D03*
X0178022Y0106274D03*
X0178022Y0106353D03*
X0178022Y0106431D03*
X0178022Y0106510D03*
X0178022Y0106589D03*
X0178022Y0106668D03*
X0178022Y0106746D03*
X0178022Y0106825D03*
X0178022Y0106904D03*
X0178022Y0106983D03*
X0178022Y0107061D03*
X0178022Y0107140D03*
X0178022Y0107219D03*
X0178022Y0107298D03*
X0177944Y0120998D03*
D142*
X0161723Y0120998D03*
X0169203Y0101471D03*
X0169125Y0101313D03*
X0169125Y0101235D03*
X0169046Y0101156D03*
X0169046Y0101077D03*
X0168967Y0100998D03*
X0172117Y0097534D03*
D143*
X0173652Y0098872D03*
X0173731Y0098951D03*
X0166566Y0098164D03*
X0163337Y0101392D03*
X0162786Y0095487D03*
X0177196Y0117691D03*
X0177196Y0120920D03*
D144*
X0161684Y0120920D03*
X0161684Y0117770D03*
X0163259Y0100683D03*
X0168377Y0099975D03*
X0168455Y0100054D03*
X0168455Y0100132D03*
X0168534Y0100211D03*
X0172314Y0097691D03*
D145*
X0173770Y0099030D03*
X0173849Y0099109D03*
X0166448Y0098085D03*
X0163377Y0101471D03*
X0177235Y0117770D03*
X0177235Y0120841D03*
D146*
X0161526Y0094857D03*
X0163101Y0100054D03*
X0171054Y0096983D03*
X0169558Y0117613D03*
X0169558Y0117691D03*
X0169558Y0117770D03*
X0172629Y0117691D03*
X0175936Y0118479D03*
X0175936Y0120054D03*
X0178849Y0118321D03*
X0171054Y0120841D03*
X0162865Y0120211D03*
X0162865Y0118400D03*
D147*
X0161684Y0117849D03*
X0161684Y0120841D03*
X0168219Y0099739D03*
X0168140Y0099660D03*
X0168062Y0099581D03*
X0172550Y0097849D03*
X0162314Y0095172D03*
D148*
X0162865Y0095565D03*
X0166329Y0098006D03*
X0173888Y0099187D03*
X0173967Y0099266D03*
X0177274Y0117849D03*
X0177274Y0120683D03*
X0177274Y0120762D03*
D149*
X0175975Y0120132D03*
X0175975Y0118400D03*
X0178810Y0118243D03*
X0178888Y0120211D03*
X0172668Y0117770D03*
X0171093Y0120683D03*
X0171093Y0120762D03*
X0173928Y0107298D03*
X0173928Y0105487D03*
X0165503Y0105487D03*
X0165503Y0107298D03*
D150*
X0163298Y0100841D03*
X0167944Y0099424D03*
X0168022Y0099502D03*
X0172668Y0097928D03*
X0161723Y0120762D03*
D151*
X0161723Y0120683D03*
X0163298Y0100920D03*
X0162432Y0095250D03*
X0172825Y0098085D03*
D152*
X0174007Y0099345D03*
X0174085Y0099424D03*
X0163377Y0101550D03*
X0163377Y0101628D03*
X0177314Y0117928D03*
X0177314Y0120605D03*
D153*
X0161684Y0120605D03*
X0161684Y0118006D03*
X0163337Y0100998D03*
X0167432Y0098872D03*
X0167510Y0098951D03*
X0167589Y0099030D03*
D154*
X0166172Y0097928D03*
X0174125Y0099502D03*
X0174203Y0099581D03*
X0177353Y0118006D03*
X0177353Y0118085D03*
X0177353Y0120369D03*
X0177353Y0120447D03*
X0177353Y0120526D03*
D155*
X0161762Y0120447D03*
X0161684Y0120526D03*
X0161841Y0118321D03*
X0161762Y0118243D03*
X0163337Y0101077D03*
X0167196Y0098636D03*
X0167274Y0098715D03*
X0167353Y0098794D03*
X0173101Y0098321D03*
X0173180Y0098400D03*
D156*
X0171251Y0097061D03*
X0168259Y0105565D03*
X0168259Y0105644D03*
X0168259Y0105723D03*
X0168259Y0105802D03*
X0168259Y0105880D03*
X0168259Y0105959D03*
X0168259Y0106038D03*
X0168259Y0106117D03*
X0168259Y0106195D03*
X0168259Y0106274D03*
X0168259Y0106353D03*
X0168259Y0106431D03*
X0168259Y0106510D03*
X0168259Y0106589D03*
X0168259Y0106668D03*
X0168259Y0106746D03*
X0168259Y0106825D03*
X0168259Y0106904D03*
X0168259Y0106983D03*
X0168259Y0107061D03*
X0168259Y0107140D03*
X0168259Y0107219D03*
X0172668Y0118006D03*
X0172668Y0118085D03*
X0171093Y0120447D03*
X0176054Y0120211D03*
X0161723Y0117376D03*
D157*
X0169558Y0118085D03*
X0169558Y0118164D03*
X0171054Y0120211D03*
X0171054Y0120290D03*
X0171054Y0120369D03*
X0172629Y0118164D03*
X0176093Y0118243D03*
X0178613Y0118164D03*
D158*
X0161723Y0118085D03*
X0161802Y0120369D03*
X0172983Y0098243D03*
X0172904Y0098164D03*
D159*
X0160699Y0120211D03*
D160*
X0160699Y0120132D03*
D161*
X0169518Y0118557D03*
X0169518Y0118479D03*
X0171093Y0119896D03*
X0171093Y0119975D03*
X0172668Y0118557D03*
X0172668Y0118479D03*
X0172668Y0118400D03*
X0177865Y0109030D03*
X0177865Y0108951D03*
X0177865Y0108872D03*
X0177865Y0104069D03*
X0177865Y0103991D03*
X0177865Y0103912D03*
X0177865Y0103833D03*
X0177786Y0103597D03*
X0171566Y0097219D03*
D162*
X0161408Y0097455D03*
X0160778Y0119975D03*
D163*
X0161684Y0117455D03*
X0169558Y0118636D03*
X0171054Y0119739D03*
X0171054Y0119817D03*
X0176251Y0118164D03*
X0177904Y0117455D03*
X0177747Y0109187D03*
X0177825Y0109109D03*
X0177904Y0108794D03*
X0177904Y0108715D03*
X0177904Y0108636D03*
X0177904Y0108557D03*
X0177904Y0104384D03*
X0177904Y0104306D03*
X0177904Y0104227D03*
X0177904Y0104148D03*
X0163180Y0100290D03*
X0161448Y0103676D03*
X0161841Y0094935D03*
D164*
X0170621Y0096825D03*
X0170227Y0118794D03*
X0170227Y0118872D03*
X0170227Y0118951D03*
X0170227Y0119030D03*
X0170306Y0119109D03*
X0170306Y0119187D03*
X0170385Y0119345D03*
X0170385Y0119424D03*
X0170385Y0119502D03*
X0170463Y0119581D03*
X0170463Y0119660D03*
X0171802Y0119424D03*
X0171802Y0119345D03*
X0168888Y0118794D03*
X0168810Y0118951D03*
X0168810Y0119030D03*
X0168810Y0119109D03*
X0168731Y0119266D03*
X0168652Y0119502D03*
D165*
X0160739Y0118715D03*
D166*
X0160699Y0118636D03*
X0177865Y0117061D03*
D167*
X0160660Y0118557D03*
D168*
X0160621Y0118479D03*
X0161723Y0117219D03*
X0162904Y0099739D03*
D169*
X0167077Y0098557D03*
X0162589Y0095329D03*
X0169597Y0116038D03*
X0161723Y0118164D03*
D170*
X0161684Y0117928D03*
X0167904Y0099345D03*
X0167825Y0099266D03*
X0167747Y0099187D03*
X0167668Y0099109D03*
X0172707Y0098006D03*
D171*
X0172235Y0097613D03*
X0168849Y0100683D03*
X0168849Y0100762D03*
X0168928Y0100841D03*
X0168928Y0100920D03*
X0168770Y0100605D03*
X0163259Y0100605D03*
X0161684Y0117691D03*
D172*
X0177156Y0117613D03*
X0166684Y0098243D03*
D173*
X0169164Y0101392D03*
X0169243Y0101550D03*
X0169243Y0101628D03*
X0169322Y0101707D03*
X0169322Y0101786D03*
X0169400Y0101943D03*
X0171999Y0097455D03*
X0161211Y0106195D03*
X0161211Y0106274D03*
X0161211Y0106353D03*
X0161211Y0106431D03*
X0161211Y0106510D03*
X0161211Y0106589D03*
X0161211Y0106668D03*
X0161211Y0106746D03*
X0161684Y0117613D03*
D174*
X0169597Y0116117D03*
X0163298Y0100762D03*
X0168259Y0099817D03*
X0168337Y0099896D03*
X0172432Y0097770D03*
D175*
X0174243Y0099660D03*
X0174322Y0099739D03*
X0166054Y0097849D03*
X0162983Y0095644D03*
X0163377Y0101707D03*
X0169597Y0115959D03*
D176*
X0169597Y0115880D03*
X0175266Y0101392D03*
X0175188Y0101235D03*
X0175109Y0101077D03*
X0165503Y0097613D03*
X0163298Y0095959D03*
D177*
X0163377Y0102809D03*
X0175818Y0102888D03*
X0175818Y0102967D03*
X0175818Y0103046D03*
X0175896Y0103203D03*
X0169597Y0115802D03*
D178*
X0169558Y0115723D03*
X0163810Y0096589D03*
D179*
X0164007Y0096904D03*
X0169597Y0115644D03*
D180*
X0169597Y0115565D03*
X0164243Y0097298D03*
D181*
X0169597Y0115487D03*
D182*
X0169597Y0115408D03*
D183*
X0169597Y0115329D03*
D184*
X0169558Y0115250D03*
D185*
X0169597Y0115172D03*
D186*
X0169597Y0115093D03*
D187*
X0169558Y0115014D03*
D188*
X0169558Y0114935D03*
D189*
X0169597Y0114857D03*
D190*
X0169558Y0114778D03*
D191*
X0169558Y0114699D03*
D192*
X0169558Y0114620D03*
D193*
X0169558Y0114542D03*
D194*
X0169558Y0114463D03*
D195*
X0169597Y0114384D03*
D196*
X0169558Y0114306D03*
D197*
X0169558Y0114227D03*
D198*
X0169597Y0114148D03*
D199*
X0169558Y0114069D03*
D200*
X0169558Y0113991D03*
D201*
X0169558Y0113912D03*
D202*
X0169597Y0113833D03*
D203*
X0169597Y0113754D03*
D204*
X0169597Y0113676D03*
D205*
X0169597Y0113597D03*
D206*
X0169597Y0113518D03*
D207*
X0169597Y0113439D03*
D208*
X0169558Y0113361D03*
D209*
X0169597Y0113282D03*
D210*
X0169597Y0113203D03*
D211*
X0169597Y0113124D03*
D212*
X0169597Y0113046D03*
D213*
X0169597Y0112967D03*
D214*
X0169597Y0112888D03*
D215*
X0169597Y0112809D03*
D216*
X0169558Y0112731D03*
D217*
X0169558Y0112652D03*
D218*
X0169597Y0112573D03*
D219*
X0169597Y0112494D03*
D220*
X0169597Y0112416D03*
D221*
X0169558Y0112337D03*
D222*
X0169597Y0112258D03*
D223*
X0169597Y0112180D03*
D224*
X0169597Y0112101D03*
D225*
X0169558Y0112022D03*
D226*
X0169597Y0111943D03*
D227*
X0169558Y0111865D03*
D228*
X0169558Y0111786D03*
D229*
X0169597Y0111707D03*
D230*
X0169558Y0111628D03*
D231*
X0169558Y0111550D03*
D232*
X0169597Y0111471D03*
D233*
X0169558Y0111392D03*
D234*
X0169597Y0111313D03*
D235*
X0169558Y0111235D03*
D236*
X0169597Y0111156D03*
D237*
X0169597Y0111077D03*
X0169597Y0110998D03*
D238*
X0169558Y0110920D03*
D239*
X0169558Y0110841D03*
D240*
X0169597Y0110762D03*
X0169597Y0110683D03*
D241*
X0169597Y0110605D03*
D242*
X0169558Y0110526D03*
X0169558Y0110447D03*
D243*
X0169597Y0110369D03*
D244*
X0169558Y0110290D03*
D245*
X0169597Y0110211D03*
D246*
X0169558Y0110132D03*
X0169558Y0110054D03*
D247*
X0169597Y0109975D03*
D248*
X0169558Y0109896D03*
D249*
X0169597Y0109817D03*
X0169597Y0109739D03*
D250*
X0169558Y0109660D03*
D251*
X0169597Y0109581D03*
D252*
X0169558Y0109502D03*
X0169558Y0109424D03*
D253*
X0169597Y0109345D03*
X0169597Y0109266D03*
D254*
X0169715Y0103282D03*
X0169715Y0103203D03*
X0169715Y0103124D03*
X0169715Y0103046D03*
X0169636Y0102888D03*
X0169636Y0102809D03*
X0169636Y0102731D03*
X0169558Y0102494D03*
X0171841Y0097376D03*
X0161999Y0095014D03*
X0161290Y0104778D03*
X0161290Y0104857D03*
X0161290Y0104935D03*
X0161290Y0105014D03*
X0161290Y0107849D03*
X0161290Y0107928D03*
X0161290Y0108006D03*
X0161290Y0108085D03*
X0161290Y0108164D03*
D255*
X0163416Y0102888D03*
X0175857Y0103124D03*
X0175936Y0103282D03*
X0175936Y0103361D03*
X0175936Y0103439D03*
X0175936Y0103518D03*
X0163573Y0096274D03*
D256*
X0163377Y0103439D03*
X0163377Y0103518D03*
D257*
X0163416Y0103361D03*
X0163731Y0096510D03*
D258*
X0163692Y0096431D03*
X0164951Y0097455D03*
X0163377Y0103282D03*
D259*
X0163416Y0103203D03*
X0163416Y0103124D03*
X0163416Y0103046D03*
X0163652Y0096353D03*
D260*
X0163377Y0102967D03*
D261*
X0163416Y0102731D03*
X0163416Y0102652D03*
X0163495Y0096195D03*
X0175699Y0102573D03*
X0175699Y0102652D03*
X0175778Y0102731D03*
X0175778Y0102809D03*
D262*
X0175621Y0102258D03*
X0175542Y0102101D03*
X0175542Y0102022D03*
X0175463Y0101865D03*
X0163416Y0102494D03*
X0163416Y0102573D03*
D263*
X0165266Y0097534D03*
X0163455Y0096117D03*
X0175581Y0102180D03*
X0175660Y0102337D03*
X0175660Y0102416D03*
X0175660Y0102494D03*
D264*
X0175503Y0101943D03*
X0175424Y0101786D03*
X0163377Y0102416D03*
X0163377Y0096038D03*
D265*
X0163416Y0102337D03*
X0175306Y0101550D03*
X0175306Y0101471D03*
X0175385Y0101628D03*
X0175385Y0101707D03*
D266*
X0175227Y0101313D03*
X0175148Y0101156D03*
X0175070Y0100998D03*
X0163416Y0102180D03*
X0163416Y0102258D03*
D267*
X0163377Y0102101D03*
X0163219Y0095880D03*
X0174951Y0100762D03*
X0175030Y0100841D03*
X0175030Y0100920D03*
D268*
X0174794Y0100447D03*
X0174715Y0100369D03*
X0174715Y0100290D03*
X0163377Y0101943D03*
X0163377Y0102022D03*
X0163140Y0095802D03*
D269*
X0163062Y0095723D03*
X0163377Y0101865D03*
X0174479Y0099975D03*
X0174558Y0100054D03*
X0174636Y0100211D03*
D270*
X0174440Y0099896D03*
X0174361Y0099817D03*
X0163416Y0101786D03*
D271*
X0163337Y0101313D03*
X0166802Y0098321D03*
X0173416Y0098636D03*
X0173495Y0098715D03*
X0173573Y0098794D03*
D272*
X0166999Y0098479D03*
X0166920Y0098400D03*
X0163377Y0101235D03*
X0162668Y0095408D03*
D273*
X0163337Y0101156D03*
X0173259Y0098479D03*
X0173337Y0098557D03*
D274*
X0174833Y0100526D03*
X0174833Y0100605D03*
X0174912Y0100683D03*
X0165699Y0097691D03*
D275*
X0168573Y0100290D03*
X0168652Y0100369D03*
X0168652Y0100447D03*
X0168731Y0100526D03*
X0162196Y0095093D03*
D276*
X0165857Y0097770D03*
X0174597Y0100132D03*
D277*
X0162825Y0099581D03*
D278*
X0164282Y0097376D03*
D279*
X0164203Y0097219D03*
D280*
X0164164Y0097140D03*
D281*
X0164125Y0097061D03*
D282*
X0164085Y0096983D03*
D283*
X0163967Y0096825D03*
D284*
X0163928Y0096746D03*
D285*
X0163849Y0096668D03*
D286*
X0215341Y0088610D03*
X0221325Y0088610D03*
D287*
X0221168Y0088768D03*
X0215499Y0088768D03*
D288*
X0215656Y0088846D03*
X0221010Y0088846D03*
D289*
X0219593Y0089555D03*
D290*
X0219436Y0089634D03*
X0285184Y0189791D03*
X0291483Y0189791D03*
D291*
X0215814Y0088925D03*
D292*
X0211010Y0090791D03*
X0205656Y0090791D03*
X0225656Y0090579D03*
X0231010Y0090579D03*
X0286129Y0189004D03*
X0290538Y0189004D03*
D293*
X0229908Y0091130D03*
D294*
X0229751Y0091209D03*
D295*
X0229593Y0091287D03*
D296*
X0229436Y0091366D03*
D297*
X0210381Y0088350D03*
X0270362Y0177172D03*
X0259693Y0191593D03*
D298*
X0303396Y0124526D03*
D299*
X0303396Y0124408D03*
D300*
X0303396Y0124270D03*
X0303396Y0120491D03*
D301*
X0303396Y0120609D03*
X0303396Y0124152D03*
D302*
X0303396Y0124054D03*
D303*
X0307471Y0123817D03*
X0307553Y0114117D03*
D304*
X0298967Y0123817D03*
D305*
X0307471Y0123680D03*
X0307589Y0123601D03*
X0307589Y0123483D03*
X0307671Y0113901D03*
X0307671Y0113783D03*
D306*
X0307730Y0113645D03*
X0307648Y0123345D03*
D307*
X0306172Y0121672D03*
X0304991Y0121120D03*
X0303573Y0123128D03*
X0300975Y0122617D03*
X0303655Y0113428D03*
X0303655Y0112838D03*
X0305191Y0111420D03*
X0306254Y0111972D03*
X0270436Y0105728D03*
X0269373Y0105728D03*
X0269373Y0105807D03*
X0269373Y0106280D03*
X0269373Y0105138D03*
X0267955Y0105728D03*
X0266774Y0106280D03*
D308*
X0307789Y0112090D03*
X0307789Y0112365D03*
X0307789Y0112483D03*
X0307789Y0112562D03*
X0307789Y0112838D03*
X0307789Y0112917D03*
X0307789Y0113035D03*
X0307789Y0113310D03*
X0307707Y0121790D03*
X0307707Y0122065D03*
X0307707Y0122183D03*
X0307707Y0122262D03*
X0307707Y0122538D03*
X0307707Y0122617D03*
X0307707Y0122735D03*
X0307707Y0123010D03*
D309*
X0307707Y0122872D03*
X0307707Y0122400D03*
X0307707Y0121928D03*
X0307789Y0113172D03*
X0307789Y0112700D03*
X0307789Y0112228D03*
D310*
X0305191Y0111283D03*
X0302002Y0112700D03*
X0303455Y0122872D03*
X0267837Y0105472D03*
D311*
X0269432Y0106417D03*
X0300916Y0122872D03*
X0305050Y0120983D03*
X0303596Y0113172D03*
D312*
X0302238Y0114117D03*
X0301566Y0122400D03*
D313*
X0298554Y0122400D03*
X0302770Y0111283D03*
X0272739Y0105000D03*
D314*
X0302238Y0112090D03*
X0302510Y0121672D03*
X0301802Y0122183D03*
X0301684Y0122262D03*
D315*
X0301979Y0122065D03*
X0302179Y0113980D03*
D316*
X0302156Y0121928D03*
D317*
X0298908Y0121672D03*
X0298790Y0121790D03*
X0272503Y0104783D03*
D318*
X0302924Y0121593D03*
D319*
X0298495Y0121455D03*
X0308062Y0120983D03*
X0308298Y0121455D03*
X0308380Y0111755D03*
X0308144Y0111283D03*
X0299522Y0111755D03*
X0299522Y0113645D03*
X0272798Y0104055D03*
X0264412Y0104055D03*
X0264412Y0105945D03*
D320*
X0267365Y0104055D03*
X0302983Y0120983D03*
X0302983Y0121455D03*
D321*
X0302983Y0121317D03*
X0302983Y0121239D03*
X0302983Y0121120D03*
X0267365Y0104193D03*
X0267365Y0103917D03*
X0267365Y0103839D03*
X0267365Y0103720D03*
D322*
X0298613Y0120983D03*
D323*
X0303396Y0120727D03*
D324*
X0303396Y0120412D03*
X0303951Y0114255D03*
D325*
X0303951Y0114452D03*
X0303951Y0110909D03*
X0303396Y0120294D03*
D326*
X0303951Y0114924D03*
X0303951Y0110476D03*
X0268605Y0102894D03*
D327*
X0303951Y0114826D03*
D328*
X0303951Y0114708D03*
D329*
X0303951Y0114570D03*
X0303951Y0110791D03*
X0268605Y0103327D03*
D330*
X0303951Y0114354D03*
D331*
X0302179Y0112228D03*
D332*
X0302415Y0111972D03*
X0269904Y0105610D03*
D333*
X0303951Y0111027D03*
D334*
X0241483Y0191223D03*
X0241325Y0191223D03*
X0241168Y0191223D03*
X0241010Y0191223D03*
X0240853Y0191223D03*
X0240696Y0191223D03*
X0240538Y0191223D03*
X0236129Y0191223D03*
X0235971Y0191223D03*
X0235814Y0191223D03*
X0235656Y0191223D03*
X0235499Y0191223D03*
X0235341Y0191223D03*
X0235184Y0191223D03*
D335*
X0255284Y0192617D03*
X0261583Y0192617D03*
D336*
X0261425Y0192538D03*
X0255441Y0192538D03*
D337*
X0255599Y0192380D03*
X0261268Y0192380D03*
D338*
X0261110Y0192302D03*
X0255756Y0192302D03*
D339*
X0260008Y0191750D03*
D340*
X0259851Y0191672D03*
D341*
X0259536Y0191514D03*
D342*
X0255914Y0192223D03*
D343*
X0265677Y0184869D03*
X0271189Y0184869D03*
D344*
X0271051Y0184809D03*
X0265815Y0184809D03*
D345*
X0265953Y0184672D03*
X0270914Y0184672D03*
D346*
X0270776Y0184593D03*
X0266091Y0184593D03*
D347*
X0266229Y0184534D03*
X0270638Y0184534D03*
D348*
X0270500Y0184455D03*
D349*
X0270362Y0189632D03*
D350*
X0270225Y0174534D03*
D351*
X0269673Y0172605D03*
X0267193Y0172605D03*
X0270225Y0178550D03*
X0270225Y0181030D03*
X0267469Y0185164D03*
X0267193Y0185164D03*
X0266918Y0185164D03*
X0276642Y0191372D03*
X0276918Y0195230D03*
X0280225Y0180781D03*
X0278847Y0176096D03*
D352*
X0270225Y0185833D03*
D353*
X0270225Y0190794D03*
X0280225Y0191372D03*
D354*
X0270225Y0194731D03*
D355*
X0277331Y0195446D03*
X0279536Y0195446D03*
X0268985Y0180538D03*
X0268158Y0180262D03*
X0266780Y0172821D03*
X0270087Y0172821D03*
X0280087Y0172021D03*
D356*
X0278985Y0173202D03*
X0277882Y0173202D03*
X0277607Y0175958D03*
X0279260Y0175958D03*
X0278709Y0180092D03*
X0278985Y0180210D03*
X0280087Y0180761D03*
X0276780Y0182021D03*
X0270087Y0181010D03*
X0268709Y0180341D03*
X0270087Y0178530D03*
X0266780Y0182270D03*
X0277882Y0189029D03*
X0278985Y0190407D03*
X0280087Y0191391D03*
X0268985Y0193294D03*
X0267882Y0191916D03*
D357*
X0267882Y0194042D03*
X0267607Y0194042D03*
X0267331Y0194042D03*
X0268158Y0194042D03*
X0268158Y0186050D03*
X0269811Y0183018D03*
X0270087Y0183018D03*
X0267331Y0176680D03*
X0266780Y0176680D03*
X0276780Y0180013D03*
X0280087Y0182769D03*
X0279536Y0188281D03*
X0279260Y0188281D03*
X0278985Y0188281D03*
X0278709Y0188281D03*
X0277607Y0188281D03*
X0277055Y0188281D03*
X0278433Y0191037D03*
X0279536Y0176431D03*
X0280087Y0176431D03*
D358*
X0267882Y0180262D03*
X0267607Y0182467D03*
X0270087Y0187703D03*
D359*
X0268709Y0189219D03*
X0268433Y0189219D03*
X0268158Y0189219D03*
X0270087Y0190872D03*
X0269811Y0185085D03*
X0267055Y0182329D03*
X0266780Y0178471D03*
X0276780Y0178222D03*
X0278158Y0179876D03*
X0279260Y0180427D03*
X0280087Y0178222D03*
X0278709Y0173261D03*
X0278433Y0173261D03*
X0278158Y0173261D03*
X0279811Y0184836D03*
X0278709Y0193104D03*
X0278433Y0193104D03*
X0278158Y0193104D03*
D360*
X0277055Y0191313D03*
X0277607Y0189659D03*
X0279260Y0191037D03*
X0270087Y0193766D03*
X0268709Y0182743D03*
X0268985Y0176955D03*
X0269260Y0175026D03*
X0267331Y0175026D03*
X0277607Y0180013D03*
D361*
X0277331Y0182080D03*
X0279536Y0184836D03*
X0278985Y0193104D03*
X0278985Y0195584D03*
X0278709Y0195584D03*
X0278433Y0195584D03*
X0278158Y0195584D03*
X0277882Y0195584D03*
X0270087Y0195833D03*
X0269811Y0195833D03*
X0269536Y0195833D03*
X0269260Y0195833D03*
X0268985Y0195833D03*
X0268709Y0195833D03*
X0268433Y0195833D03*
X0268158Y0195833D03*
X0267882Y0195833D03*
X0267607Y0195833D03*
X0267331Y0195833D03*
X0267055Y0195833D03*
X0266780Y0195833D03*
X0268985Y0189219D03*
X0269536Y0185085D03*
X0276780Y0175742D03*
X0277055Y0175742D03*
D362*
X0276642Y0175801D03*
X0279122Y0175958D03*
X0279122Y0180368D03*
X0268847Y0180459D03*
X0268296Y0180183D03*
X0266642Y0182270D03*
X0266918Y0172743D03*
X0269949Y0172743D03*
X0277193Y0195368D03*
X0279673Y0195368D03*
D363*
X0279398Y0191116D03*
X0277469Y0189738D03*
X0278296Y0188478D03*
X0279122Y0184777D03*
X0278847Y0182415D03*
X0277469Y0180092D03*
X0269949Y0176325D03*
X0269122Y0176876D03*
X0267469Y0174947D03*
X0267469Y0180341D03*
X0269122Y0182821D03*
X0269122Y0185144D03*
X0267744Y0185853D03*
X0269673Y0187506D03*
X0268296Y0191365D03*
X0267193Y0190931D03*
X0267469Y0192585D03*
X0268571Y0193845D03*
D364*
X0268847Y0193431D03*
X0268020Y0191778D03*
X0268847Y0189140D03*
X0266642Y0187762D03*
X0269673Y0185164D03*
X0267193Y0182408D03*
X0269673Y0181030D03*
X0269949Y0178550D03*
X0277193Y0182002D03*
X0278020Y0179954D03*
X0279673Y0180781D03*
X0279949Y0178143D03*
X0279673Y0184757D03*
X0278020Y0188891D03*
X0278847Y0190545D03*
X0278847Y0193025D03*
X0279122Y0195506D03*
X0277744Y0195506D03*
X0277469Y0195506D03*
X0266642Y0195754D03*
D365*
X0279398Y0195446D03*
X0276918Y0181943D03*
X0279398Y0180565D03*
X0279949Y0180840D03*
X0279398Y0175880D03*
X0277469Y0175880D03*
X0269949Y0181089D03*
X0269398Y0180813D03*
D366*
X0269949Y0183018D03*
X0266642Y0180262D03*
X0267193Y0176680D03*
X0268296Y0186050D03*
X0268020Y0194042D03*
X0267744Y0194042D03*
X0267469Y0194042D03*
X0267193Y0194042D03*
X0278296Y0191037D03*
X0278847Y0188281D03*
X0279122Y0188281D03*
X0279398Y0188281D03*
X0277469Y0188281D03*
X0277193Y0188281D03*
D367*
X0279122Y0190348D03*
X0279949Y0184836D03*
X0277469Y0184836D03*
X0277193Y0184836D03*
X0276918Y0184836D03*
X0278847Y0180151D03*
X0278296Y0179876D03*
X0276642Y0178222D03*
X0277744Y0176017D03*
X0280225Y0178222D03*
X0269949Y0185085D03*
X0266642Y0190872D03*
X0266642Y0178471D03*
D368*
X0267193Y0178550D03*
X0267744Y0176739D03*
X0268847Y0177014D03*
X0268847Y0175085D03*
X0269122Y0175085D03*
X0266918Y0175085D03*
X0268571Y0182683D03*
X0269949Y0187644D03*
X0267744Y0192447D03*
X0276642Y0188498D03*
X0277744Y0189600D03*
X0278296Y0182277D03*
X0277193Y0178143D03*
D369*
X0276918Y0178222D03*
X0276918Y0175742D03*
X0277193Y0175742D03*
X0277469Y0182080D03*
X0268296Y0177093D03*
X0266918Y0178471D03*
X0267744Y0189219D03*
X0269949Y0190872D03*
X0269949Y0195833D03*
X0269673Y0195833D03*
X0269398Y0195833D03*
X0269122Y0195833D03*
X0268847Y0195833D03*
X0268571Y0195833D03*
X0268296Y0195833D03*
X0268020Y0195833D03*
X0267744Y0195833D03*
X0267469Y0195833D03*
X0267193Y0195833D03*
X0266918Y0195833D03*
X0278020Y0195584D03*
X0278296Y0195584D03*
X0278571Y0195584D03*
X0278847Y0195584D03*
X0277744Y0193104D03*
D370*
X0277469Y0193104D03*
X0278571Y0190899D03*
X0279949Y0188419D03*
X0279398Y0178222D03*
X0277469Y0178222D03*
X0269398Y0178471D03*
X0267469Y0178471D03*
X0269398Y0182880D03*
X0267469Y0189219D03*
X0267744Y0191148D03*
X0266918Y0193904D03*
X0269398Y0193904D03*
X0269949Y0193904D03*
D371*
X0269811Y0193983D03*
X0268433Y0193983D03*
X0267055Y0193983D03*
X0267607Y0191069D03*
X0267331Y0190951D03*
X0269260Y0191069D03*
X0269260Y0187369D03*
X0267882Y0184337D03*
X0269536Y0182959D03*
X0269536Y0176620D03*
X0269811Y0176463D03*
X0277331Y0180072D03*
X0279260Y0182553D03*
X0277882Y0184088D03*
X0277882Y0185584D03*
X0276780Y0186962D03*
X0280087Y0186962D03*
X0279811Y0188340D03*
D372*
X0277607Y0182139D03*
X0277882Y0179935D03*
X0279811Y0178163D03*
X0279811Y0172100D03*
X0269811Y0178530D03*
X0268433Y0177152D03*
X0268158Y0177034D03*
X0267055Y0178530D03*
X0267882Y0182546D03*
D373*
X0267331Y0182408D03*
X0269260Y0180754D03*
X0269536Y0180872D03*
X0269811Y0181030D03*
X0277055Y0182002D03*
X0279536Y0180624D03*
X0279811Y0180781D03*
X0277331Y0175820D03*
X0276780Y0191372D03*
X0277882Y0193025D03*
X0277607Y0195506D03*
X0279260Y0195506D03*
X0267882Y0189140D03*
X0266780Y0190951D03*
D374*
X0268847Y0191148D03*
X0268847Y0187290D03*
X0269122Y0187290D03*
X0268020Y0187290D03*
X0267744Y0187290D03*
X0268847Y0185085D03*
X0268020Y0184258D03*
X0267193Y0180400D03*
X0269673Y0176542D03*
X0276642Y0179876D03*
X0277193Y0180151D03*
X0279673Y0182631D03*
X0278020Y0184009D03*
X0278847Y0184836D03*
X0278020Y0185663D03*
X0278020Y0187041D03*
X0278296Y0187041D03*
X0278571Y0187041D03*
X0278847Y0187041D03*
X0279122Y0187041D03*
X0279398Y0187041D03*
X0279673Y0187041D03*
X0279949Y0187041D03*
X0277744Y0187041D03*
X0277469Y0187041D03*
X0277193Y0187041D03*
X0276918Y0187041D03*
X0277744Y0191175D03*
X0278020Y0191175D03*
D375*
X0279122Y0193104D03*
X0269122Y0189219D03*
X0266918Y0190872D03*
X0269398Y0185085D03*
X0268296Y0182605D03*
X0269673Y0178471D03*
X0268571Y0177093D03*
X0279673Y0178222D03*
X0279398Y0184836D03*
D376*
X0279398Y0182553D03*
X0276642Y0186962D03*
X0276918Y0188340D03*
X0277744Y0188340D03*
X0278571Y0188340D03*
X0279673Y0188340D03*
X0279398Y0189718D03*
X0277469Y0191254D03*
X0269398Y0192605D03*
X0269673Y0193983D03*
X0268296Y0193983D03*
X0268571Y0191227D03*
X0269122Y0191069D03*
X0267469Y0191069D03*
X0267469Y0187369D03*
X0268020Y0185991D03*
X0269398Y0187369D03*
X0269673Y0182959D03*
X0269398Y0176739D03*
D377*
X0268571Y0175026D03*
X0267193Y0175026D03*
X0268847Y0182743D03*
X0269673Y0191010D03*
X0279673Y0191313D03*
D378*
X0276780Y0195171D03*
X0278158Y0176155D03*
X0278709Y0176155D03*
X0269536Y0172546D03*
X0267331Y0172546D03*
D379*
X0278985Y0182494D03*
X0269536Y0187428D03*
X0267331Y0187428D03*
X0268433Y0191286D03*
X0269536Y0191010D03*
X0277331Y0191313D03*
D380*
X0278433Y0188419D03*
X0278985Y0184836D03*
X0269260Y0182880D03*
X0268985Y0185085D03*
X0267882Y0185912D03*
X0267331Y0180400D03*
X0269260Y0176817D03*
X0269536Y0193904D03*
D381*
X0266642Y0185144D03*
X0278296Y0176234D03*
X0278571Y0176234D03*
X0269398Y0172467D03*
X0267469Y0172467D03*
D382*
X0267469Y0176680D03*
X0266642Y0176680D03*
X0279122Y0182494D03*
X0277744Y0184147D03*
X0277744Y0185525D03*
X0277193Y0191313D03*
X0269398Y0191010D03*
X0267193Y0187428D03*
X0267744Y0184396D03*
D383*
X0278433Y0176293D03*
X0269260Y0172408D03*
X0267607Y0172408D03*
D384*
X0267607Y0178471D03*
X0269260Y0178471D03*
X0267055Y0180400D03*
X0268158Y0184258D03*
X0267882Y0187290D03*
X0267607Y0187290D03*
X0268709Y0187290D03*
X0268985Y0187290D03*
X0268985Y0191148D03*
X0268709Y0191148D03*
X0277607Y0191175D03*
X0277882Y0191175D03*
X0277882Y0187041D03*
X0277607Y0187041D03*
X0277331Y0187041D03*
X0277055Y0187041D03*
X0278158Y0187041D03*
X0278433Y0187041D03*
X0278709Y0187041D03*
X0278985Y0187041D03*
X0279260Y0187041D03*
X0279536Y0187041D03*
X0279811Y0187041D03*
X0278158Y0185663D03*
X0279536Y0182631D03*
X0277055Y0180151D03*
X0277607Y0178222D03*
X0279260Y0178222D03*
D385*
X0277331Y0178163D03*
X0278709Y0182415D03*
X0277607Y0184226D03*
X0277607Y0185446D03*
X0276780Y0188478D03*
X0279260Y0189738D03*
X0279260Y0193045D03*
X0269260Y0192585D03*
X0269260Y0193845D03*
X0266780Y0193845D03*
X0269260Y0189160D03*
X0267055Y0187506D03*
X0267607Y0185853D03*
X0267607Y0184475D03*
X0268985Y0182821D03*
X0267331Y0178530D03*
X0267607Y0176758D03*
D386*
X0267744Y0172408D03*
X0269122Y0172408D03*
X0276642Y0195033D03*
D387*
X0278020Y0193104D03*
X0278296Y0193104D03*
X0278571Y0193104D03*
X0268571Y0189219D03*
X0268296Y0189219D03*
X0268020Y0189219D03*
X0266918Y0182329D03*
X0269122Y0180676D03*
X0266642Y0172959D03*
X0278020Y0173261D03*
X0278296Y0173261D03*
X0278571Y0173261D03*
X0278847Y0173261D03*
D388*
X0279122Y0173124D03*
X0277744Y0173124D03*
X0278571Y0180013D03*
X0276642Y0181943D03*
X0268571Y0180262D03*
X0269122Y0193215D03*
D389*
X0268985Y0172329D03*
X0267882Y0172329D03*
X0277055Y0172789D03*
D390*
X0268847Y0172270D03*
X0268571Y0172270D03*
X0268296Y0172270D03*
X0268020Y0172270D03*
D391*
X0268158Y0172270D03*
X0268433Y0172270D03*
X0268709Y0172270D03*
D392*
X0266918Y0180341D03*
X0268296Y0184199D03*
X0268296Y0187231D03*
X0268571Y0187231D03*
X0278296Y0185722D03*
X0278296Y0183950D03*
X0279949Y0182691D03*
X0276918Y0180092D03*
X0279673Y0176352D03*
D393*
X0279811Y0176431D03*
X0278433Y0183872D03*
X0278433Y0185801D03*
X0268433Y0184120D03*
D394*
X0268433Y0186128D03*
X0268433Y0187231D03*
X0268158Y0187231D03*
X0277331Y0188202D03*
X0278158Y0191116D03*
X0278158Y0183950D03*
X0279811Y0182691D03*
X0266780Y0180341D03*
X0267055Y0176601D03*
D395*
X0268020Y0176876D03*
X0266642Y0175105D03*
X0268020Y0182546D03*
X0277744Y0182139D03*
X0279949Y0191391D03*
X0279673Y0172218D03*
D396*
X0279949Y0172021D03*
X0268020Y0180262D03*
X0267744Y0182467D03*
X0267469Y0182467D03*
D397*
X0267744Y0180262D03*
X0277744Y0180013D03*
X0278020Y0182218D03*
X0276918Y0191313D03*
X0266642Y0193766D03*
D398*
X0266918Y0187565D03*
X0278571Y0182356D03*
D399*
X0277882Y0182218D03*
X0266780Y0187703D03*
X0279536Y0172297D03*
D400*
X0266504Y0176345D03*
D401*
X0266366Y0176542D03*
D402*
X0266366Y0188865D03*
D403*
X0275677Y0183183D03*
X0281189Y0183183D03*
D404*
X0281051Y0183242D03*
X0275815Y0183242D03*
D405*
X0275953Y0183320D03*
X0280914Y0183320D03*
D406*
X0280776Y0183380D03*
X0276091Y0183380D03*
D407*
X0276229Y0183458D03*
X0280638Y0183458D03*
D408*
X0280500Y0183517D03*
D409*
X0280362Y0189305D03*
D410*
X0280225Y0173872D03*
D411*
X0280225Y0185939D03*
D412*
X0280225Y0194817D03*
D413*
X0280087Y0195092D03*
X0277331Y0172927D03*
D414*
X0278020Y0176155D03*
X0279949Y0195171D03*
D415*
X0276642Y0184836D03*
X0277469Y0172986D03*
X0279398Y0172986D03*
D416*
X0277193Y0172848D03*
D417*
X0276918Y0172710D03*
D418*
X0276780Y0172651D03*
D419*
X0276642Y0172631D03*
D420*
X0276504Y0175545D03*
D421*
X0276366Y0175604D03*
D422*
X0276366Y0188557D03*
D423*
X0253735Y0159455D02*
X0253341Y0159652D01*
X0252948Y0159731D01*
X0252514Y0159809D01*
X0251609Y0159809D01*
X0251176Y0159731D01*
X0250782Y0159613D01*
X0250428Y0159455D01*
X0250113Y0159219D01*
X0249877Y0158904D01*
X0249680Y0158510D01*
X0249601Y0158038D01*
X0251058Y0158038D01*
X0251097Y0158235D01*
X0251176Y0158431D01*
X0251255Y0158550D01*
X0251373Y0158628D01*
X0251530Y0158707D01*
X0251727Y0158786D01*
X0252396Y0158786D01*
X0252514Y0158746D01*
X0252672Y0158707D01*
X0252790Y0158668D01*
X0252948Y0158431D01*
X0252948Y0158274D01*
X0252908Y0158117D01*
X0252790Y0157959D01*
X0252633Y0157841D01*
X0252396Y0157723D01*
X0252160Y0157644D01*
X0251845Y0157605D01*
X0250900Y0157369D01*
X0250546Y0157290D01*
X0249995Y0156975D01*
X0249759Y0156778D01*
X0249601Y0156542D01*
X0249483Y0156266D01*
X0249444Y0155912D01*
X0249522Y0155400D01*
X0249680Y0154967D01*
X0249916Y0154652D01*
X0250231Y0154376D01*
X0250625Y0154180D01*
X0251058Y0154061D01*
X0251530Y0153983D01*
X0252003Y0153943D01*
X0252475Y0153983D01*
X0252948Y0154061D01*
X0253381Y0154180D01*
X0253774Y0154376D01*
X0254089Y0154652D01*
X0254365Y0155006D01*
X0254522Y0155400D01*
X0254601Y0155912D01*
X0253144Y0155912D01*
X0253144Y0155676D01*
X0253066Y0155479D01*
X0252948Y0155321D01*
X0252633Y0155085D01*
X0252396Y0155046D01*
X0252199Y0155006D01*
X0251963Y0154967D01*
X0251806Y0155006D01*
X0251648Y0155006D01*
X0251491Y0155046D01*
X0251333Y0155124D01*
X0251176Y0155243D01*
X0251058Y0155361D01*
X0250979Y0155676D01*
X0251018Y0155833D01*
X0251097Y0155991D01*
X0251255Y0156109D01*
X0251451Y0156227D01*
X0251688Y0156306D01*
X0252318Y0156463D01*
X0252711Y0156542D01*
X0253066Y0156620D01*
X0253381Y0156739D01*
X0253656Y0156857D01*
X0253932Y0157014D01*
X0254168Y0157172D01*
X0254325Y0157408D01*
X0254444Y0157683D01*
X0254483Y0158038D01*
X0254444Y0158510D01*
X0254286Y0158904D01*
X0254010Y0159219D01*
X0253735Y0159455D01*
X0253688Y0159479D02*
X0250481Y0159479D01*
X0250084Y0159180D02*
X0254044Y0159180D01*
X0254295Y0158882D02*
X0249866Y0158882D01*
X0249716Y0158583D02*
X0251305Y0158583D01*
X0251117Y0158285D02*
X0249642Y0158285D01*
X0248814Y0158285D02*
X0246941Y0158285D01*
X0246885Y0158353D02*
X0247081Y0158117D01*
X0247199Y0157841D01*
X0247318Y0157526D01*
X0247357Y0157211D01*
X0247357Y0156542D01*
X0247199Y0155912D01*
X0247081Y0155636D01*
X0246885Y0155439D01*
X0246648Y0155243D01*
X0246373Y0155164D01*
X0246018Y0155124D01*
X0245703Y0155164D01*
X0245388Y0155243D01*
X0245152Y0155439D01*
X0244995Y0155636D01*
X0244877Y0155912D01*
X0243538Y0155282D01*
X0243774Y0154849D01*
X0244129Y0154494D01*
X0244562Y0154180D01*
X0245034Y0154022D01*
X0245625Y0153943D01*
X0246333Y0154061D01*
X0246570Y0154180D01*
X0246963Y0154416D01*
X0247278Y0154809D01*
X0247318Y0154809D01*
X0247318Y0150794D01*
X0247672Y0151148D01*
X0248262Y0151620D01*
X0248617Y0151975D01*
X0248814Y0152132D01*
X0248814Y0159416D01*
X0248656Y0159455D01*
X0248459Y0159494D01*
X0248262Y0159494D01*
X0248105Y0159534D01*
X0247908Y0159573D01*
X0247751Y0159613D01*
X0247357Y0159691D01*
X0247357Y0158983D01*
X0247199Y0159180D01*
X0244023Y0159180D01*
X0244129Y0159298D02*
X0243774Y0158904D01*
X0243499Y0158471D01*
X0243341Y0157959D01*
X0243223Y0157408D01*
X0243184Y0156817D01*
X0244719Y0156857D01*
X0244719Y0157211D01*
X0244759Y0157526D01*
X0244877Y0157841D01*
X0244995Y0158117D01*
X0245192Y0158353D01*
X0245428Y0158510D01*
X0245703Y0158628D01*
X0246058Y0158668D01*
X0246373Y0158628D01*
X0246688Y0158510D01*
X0246885Y0158353D01*
X0247137Y0157986D02*
X0248814Y0157986D01*
X0248814Y0157688D02*
X0247257Y0157688D01*
X0247335Y0157389D02*
X0248814Y0157389D01*
X0248814Y0157091D02*
X0247357Y0157091D01*
X0247357Y0156792D02*
X0248814Y0156792D01*
X0248814Y0156494D02*
X0247345Y0156494D01*
X0247270Y0156195D02*
X0248814Y0156195D01*
X0248814Y0155897D02*
X0247193Y0155897D01*
X0247043Y0155598D02*
X0248814Y0155598D01*
X0248814Y0155300D02*
X0246717Y0155300D01*
X0247193Y0154703D02*
X0243921Y0154703D01*
X0243691Y0155001D02*
X0248814Y0155001D01*
X0248814Y0154703D02*
X0247318Y0154703D01*
X0247318Y0154404D02*
X0248814Y0154404D01*
X0248814Y0154105D02*
X0247318Y0154105D01*
X0247318Y0153807D02*
X0248814Y0153807D01*
X0248814Y0153508D02*
X0247318Y0153508D01*
X0247318Y0153210D02*
X0248814Y0153210D01*
X0248814Y0152911D02*
X0247318Y0152911D01*
X0247318Y0152613D02*
X0248814Y0152613D01*
X0248814Y0152314D02*
X0247318Y0152314D01*
X0247318Y0152016D02*
X0248668Y0152016D01*
X0248359Y0151717D02*
X0247318Y0151717D01*
X0247318Y0151419D02*
X0248010Y0151419D01*
X0247644Y0151120D02*
X0247318Y0151120D01*
X0247318Y0150822D02*
X0247346Y0150822D01*
X0246421Y0154105D02*
X0244784Y0154105D01*
X0244253Y0154404D02*
X0246944Y0154404D01*
X0245320Y0155300D02*
X0243576Y0155300D01*
X0243531Y0155300D01*
X0243538Y0155282D02*
X0244877Y0155912D01*
X0244759Y0156227D01*
X0244719Y0156542D01*
X0244719Y0156857D01*
X0243184Y0156817D01*
X0243223Y0156266D01*
X0243341Y0155754D01*
X0243538Y0155282D01*
X0243406Y0155598D02*
X0244210Y0155598D01*
X0245025Y0155598D01*
X0244883Y0155897D02*
X0244844Y0155897D01*
X0243308Y0155897D01*
X0243239Y0156195D02*
X0244770Y0156195D01*
X0244725Y0156494D02*
X0243207Y0156494D01*
X0243186Y0156792D02*
X0244719Y0156792D01*
X0244719Y0157091D02*
X0243202Y0157091D01*
X0243222Y0157389D02*
X0244741Y0157389D01*
X0244819Y0157688D02*
X0243283Y0157688D01*
X0243350Y0157986D02*
X0244939Y0157986D01*
X0245135Y0158285D02*
X0243441Y0158285D01*
X0243570Y0158583D02*
X0245598Y0158583D01*
X0246493Y0158583D02*
X0248814Y0158583D01*
X0248814Y0158882D02*
X0243760Y0158882D01*
X0244129Y0159298D02*
X0244562Y0159573D01*
X0245113Y0159770D01*
X0245703Y0159809D01*
X0245979Y0159809D01*
X0246451Y0159731D01*
X0246845Y0159494D01*
X0247042Y0159337D01*
X0247199Y0159180D01*
X0247357Y0159180D02*
X0248814Y0159180D01*
X0248538Y0159479D02*
X0247357Y0159479D01*
X0246865Y0159479D02*
X0244413Y0159479D01*
X0245220Y0159777D02*
X0246172Y0159777D01*
X0242425Y0158583D02*
X0240749Y0158583D01*
X0240743Y0158589D02*
X0240900Y0158431D01*
X0240940Y0158353D01*
X0240979Y0158235D01*
X0241018Y0158156D01*
X0241018Y0157959D01*
X0242554Y0157959D01*
X0242475Y0158431D01*
X0242396Y0158668D01*
X0242278Y0158825D01*
X0242160Y0159022D01*
X0242042Y0159180D01*
X0241885Y0159298D01*
X0241491Y0159534D01*
X0241294Y0159613D01*
X0241097Y0159652D01*
X0240861Y0159731D01*
X0240625Y0159770D01*
X0240428Y0159809D01*
X0239522Y0159809D01*
X0239325Y0159770D01*
X0239089Y0159770D01*
X0238892Y0159731D01*
X0238696Y0159652D01*
X0238499Y0159613D01*
X0238302Y0159534D01*
X0237829Y0159180D01*
X0237711Y0159022D01*
X0237633Y0158865D01*
X0237554Y0158668D01*
X0237514Y0158471D01*
X0237514Y0155046D01*
X0237475Y0154967D01*
X0237475Y0154613D01*
X0237436Y0154534D01*
X0237436Y0154455D01*
X0237396Y0154376D01*
X0237396Y0154258D01*
X0237357Y0154180D01*
X0237318Y0154140D01*
X0237318Y0154101D01*
X0238853Y0154101D01*
X0238853Y0154140D01*
X0238892Y0154180D01*
X0238892Y0154219D01*
X0238932Y0154258D01*
X0238932Y0154376D01*
X0238971Y0154416D01*
X0238971Y0154652D01*
X0239050Y0154534D01*
X0239168Y0154455D01*
X0239247Y0154376D01*
X0239365Y0154298D01*
X0239483Y0154258D01*
X0239601Y0154180D01*
X0240073Y0154022D01*
X0240192Y0154022D01*
X0240310Y0153983D01*
X0240467Y0153983D01*
X0240585Y0153943D01*
X0241018Y0153943D01*
X0241215Y0153983D01*
X0241412Y0153983D01*
X0241570Y0154022D01*
X0241766Y0154101D01*
X0241924Y0154180D01*
X0242042Y0154258D01*
X0242199Y0154337D01*
X0242318Y0154455D01*
X0242396Y0154573D01*
X0242514Y0154731D01*
X0242593Y0154849D01*
X0242633Y0155046D01*
X0242711Y0155203D01*
X0242711Y0155400D01*
X0242751Y0155597D01*
X0242672Y0156030D01*
X0242554Y0156384D01*
X0242396Y0156660D01*
X0242121Y0156896D01*
X0241845Y0157054D01*
X0241530Y0157172D01*
X0241215Y0157250D01*
X0240861Y0157290D01*
X0240546Y0156463D01*
X0240664Y0156424D01*
X0240743Y0156384D01*
X0240782Y0156345D01*
X0240940Y0156266D01*
X0240979Y0156227D01*
X0241058Y0156187D01*
X0241176Y0155951D01*
X0241176Y0155872D01*
X0241215Y0155794D01*
X0241215Y0155597D01*
X0241176Y0155479D01*
X0241176Y0155400D01*
X0241136Y0155321D01*
X0241097Y0155282D01*
X0241058Y0155203D01*
X0240979Y0155164D01*
X0240940Y0155124D01*
X0240782Y0155046D01*
X0240703Y0155046D01*
X0240625Y0155006D01*
X0240546Y0155006D01*
X0240467Y0154967D01*
X0240270Y0154967D01*
X0240073Y0155006D01*
X0239877Y0155006D01*
X0239719Y0155085D01*
X0239562Y0155124D01*
X0239444Y0155203D01*
X0239365Y0155282D01*
X0239286Y0155400D01*
X0239207Y0155479D01*
X0239129Y0155715D01*
X0239089Y0155794D01*
X0239050Y0155912D01*
X0239050Y0156817D01*
X0239129Y0156739D01*
X0239207Y0156739D01*
X0239365Y0156660D01*
X0239444Y0156660D01*
X0239522Y0156620D01*
X0239680Y0156620D01*
X0239877Y0157408D01*
X0239601Y0157487D01*
X0239365Y0157565D01*
X0239168Y0157683D01*
X0239050Y0157841D01*
X0239050Y0158274D01*
X0239168Y0158510D01*
X0239207Y0158550D01*
X0239247Y0158628D01*
X0239483Y0158746D01*
X0239562Y0158746D01*
X0239640Y0158786D01*
X0240349Y0158786D01*
X0240743Y0158589D01*
X0240962Y0158285D02*
X0242500Y0158285D01*
X0242549Y0157986D02*
X0241018Y0157986D01*
X0240861Y0157290D02*
X0240546Y0156463D01*
X0240467Y0156463D01*
X0240388Y0156502D01*
X0240231Y0156502D01*
X0240113Y0156542D01*
X0239955Y0156542D01*
X0239837Y0156581D01*
X0239759Y0156581D01*
X0239680Y0156620D01*
X0239877Y0157408D01*
X0240152Y0157369D01*
X0240861Y0157290D01*
X0240785Y0157091D02*
X0241746Y0157091D01*
X0242242Y0156792D02*
X0240671Y0156792D01*
X0239723Y0156792D01*
X0239075Y0156792D01*
X0239050Y0156792D02*
X0237514Y0156792D01*
X0237514Y0156494D02*
X0239050Y0156494D01*
X0239050Y0156195D02*
X0237514Y0156195D01*
X0237514Y0155897D02*
X0239055Y0155897D01*
X0239168Y0155598D02*
X0237514Y0155598D01*
X0237514Y0155300D02*
X0239353Y0155300D01*
X0240100Y0155001D02*
X0237492Y0155001D01*
X0237475Y0154703D02*
X0242493Y0154703D01*
X0242624Y0155001D02*
X0240535Y0155001D01*
X0241115Y0155300D02*
X0242711Y0155300D01*
X0242750Y0155598D02*
X0241215Y0155598D01*
X0241176Y0155897D02*
X0242696Y0155897D01*
X0242617Y0156195D02*
X0241042Y0156195D01*
X0240558Y0156494D02*
X0242491Y0156494D01*
X0240785Y0157091D02*
X0239797Y0157091D01*
X0237514Y0157091D01*
X0237514Y0157389D02*
X0239872Y0157389D01*
X0240008Y0157389D01*
X0239165Y0157688D02*
X0237514Y0157688D01*
X0237514Y0157986D02*
X0239050Y0157986D01*
X0239055Y0158285D02*
X0237514Y0158285D01*
X0237537Y0158583D02*
X0239224Y0158583D01*
X0239361Y0159777D02*
X0240589Y0159777D01*
X0241583Y0159479D02*
X0238228Y0159479D01*
X0237830Y0159180D02*
X0242041Y0159180D01*
X0242244Y0158882D02*
X0237641Y0158882D01*
X0236648Y0158882D02*
X0235192Y0158882D01*
X0235047Y0158882D02*
X0233066Y0158882D01*
X0233066Y0159180D02*
X0234810Y0159180D01*
X0234877Y0159101D02*
X0234680Y0159337D01*
X0234483Y0159494D01*
X0234207Y0159652D01*
X0233971Y0159731D01*
X0233696Y0159809D01*
X0233144Y0159809D01*
X0233105Y0159770D01*
X0233066Y0159770D01*
X0233066Y0158353D01*
X0233105Y0158353D01*
X0233184Y0158392D01*
X0233617Y0158392D01*
X0234010Y0158353D01*
X0234325Y0158274D01*
X0234601Y0158117D01*
X0234798Y0157880D01*
X0234955Y0157605D01*
X0235034Y0157329D01*
X0235113Y0156975D01*
X0235113Y0154101D01*
X0236648Y0154101D01*
X0236648Y0159416D01*
X0236451Y0159455D01*
X0236294Y0159494D01*
X0236097Y0159494D01*
X0235900Y0159534D01*
X0235743Y0159573D01*
X0235349Y0159652D01*
X0235192Y0159691D01*
X0235192Y0158628D01*
X0235034Y0158904D01*
X0234877Y0159101D01*
X0235192Y0159180D02*
X0236648Y0159180D01*
X0236357Y0159479D02*
X0235192Y0159479D01*
X0234503Y0159479D02*
X0233066Y0159479D01*
X0233112Y0159777D02*
X0233808Y0159777D01*
X0232475Y0159777D02*
X0230940Y0159777D01*
X0230940Y0159479D02*
X0232475Y0159479D01*
X0232475Y0159180D02*
X0230940Y0159180D01*
X0230940Y0158882D02*
X0232475Y0158882D01*
X0232475Y0158583D02*
X0230940Y0158583D01*
X0230940Y0158285D02*
X0232475Y0158285D01*
X0232475Y0157986D02*
X0230940Y0157986D01*
X0230649Y0157986D02*
X0228937Y0157986D01*
X0228633Y0158285D02*
X0230362Y0158285D01*
X0230075Y0158583D02*
X0228329Y0158583D01*
X0228025Y0158882D02*
X0229788Y0158882D01*
X0229502Y0159180D02*
X0227720Y0159180D01*
X0227416Y0159479D02*
X0229215Y0159479D01*
X0229010Y0159691D02*
X0227199Y0159691D01*
X0229286Y0157644D01*
X0226963Y0154101D01*
X0228814Y0154101D01*
X0230349Y0156581D01*
X0230940Y0156030D01*
X0230940Y0154101D01*
X0232475Y0154101D01*
X0232475Y0160951D01*
X0230940Y0161778D01*
X0230940Y0157683D01*
X0229010Y0159691D01*
X0229286Y0160833D02*
X0229207Y0160951D01*
X0229089Y0161069D01*
X0228971Y0161227D01*
X0228774Y0161424D01*
X0228577Y0161660D01*
X0228341Y0161896D01*
X0228144Y0162172D01*
X0227633Y0162683D01*
X0227436Y0162920D01*
X0227042Y0163235D01*
X0226845Y0163353D01*
X0226609Y0163392D01*
X0225861Y0163392D01*
X0225388Y0163471D01*
X0224955Y0163589D01*
X0224562Y0163746D01*
X0224168Y0163983D01*
X0223853Y0164258D01*
X0223538Y0164573D01*
X0223262Y0164928D01*
X0222869Y0165636D01*
X0222672Y0166345D01*
X0222633Y0167054D01*
X0222751Y0167683D01*
X0222948Y0168235D01*
X0223223Y0168707D01*
X0223538Y0169061D01*
X0223853Y0169219D01*
X0223853Y0168904D01*
X0223932Y0168668D01*
X0224050Y0168589D01*
X0224168Y0168550D01*
X0224444Y0168550D01*
X0224759Y0168707D01*
X0224877Y0168786D01*
X0225034Y0168904D01*
X0225152Y0168983D01*
X0225270Y0169101D01*
X0225349Y0169258D01*
X0225428Y0169376D01*
X0225467Y0169534D01*
X0225507Y0169652D01*
X0225467Y0169770D01*
X0225428Y0169849D01*
X0225388Y0169967D01*
X0225310Y0170085D01*
X0225152Y0170203D01*
X0224995Y0170282D01*
X0224798Y0170321D01*
X0224640Y0170361D01*
X0224522Y0170361D01*
X0224404Y0170321D01*
X0224286Y0170321D01*
X0224325Y0170361D01*
X0224483Y0170479D01*
X0224719Y0170597D01*
X0225034Y0170715D01*
X0225388Y0170833D01*
X0225782Y0170833D01*
X0226215Y0170754D01*
X0226648Y0170518D01*
X0227003Y0170203D01*
X0227199Y0169928D01*
X0227318Y0169573D01*
X0227318Y0169258D01*
X0227239Y0168904D01*
X0227042Y0168550D01*
X0226766Y0168235D01*
X0226451Y0167880D01*
X0226176Y0167565D01*
X0226058Y0167290D01*
X0226058Y0167014D01*
X0226136Y0166778D01*
X0226294Y0166581D01*
X0226530Y0166424D01*
X0226845Y0166345D01*
X0227160Y0166345D01*
X0227357Y0166384D01*
X0227554Y0166463D01*
X0227672Y0166542D01*
X0227790Y0166660D01*
X0227869Y0166817D01*
X0227908Y0166935D01*
X0227908Y0167054D01*
X0227869Y0167172D01*
X0227790Y0167290D01*
X0227633Y0167447D01*
X0227514Y0167487D01*
X0227357Y0167565D01*
X0227318Y0167605D01*
X0227396Y0167644D01*
X0227475Y0167644D01*
X0227633Y0167683D01*
X0227948Y0167683D01*
X0228184Y0167644D01*
X0228577Y0167487D01*
X0228735Y0167369D01*
X0228932Y0167250D01*
X0229050Y0167054D01*
X0229168Y0166817D01*
X0229247Y0166581D01*
X0229325Y0165872D01*
X0229325Y0160833D01*
X0229286Y0160833D01*
X0229325Y0160971D02*
X0229187Y0160971D01*
X0229325Y0161270D02*
X0228928Y0161270D01*
X0228654Y0161568D02*
X0229325Y0161568D01*
X0229325Y0161867D02*
X0228370Y0161867D01*
X0228149Y0162165D02*
X0229325Y0162165D01*
X0229325Y0162464D02*
X0227852Y0162464D01*
X0227567Y0162762D02*
X0229325Y0162762D01*
X0229325Y0163061D02*
X0227259Y0163061D01*
X0226806Y0163359D02*
X0229325Y0163359D01*
X0229325Y0163658D02*
X0224783Y0163658D01*
X0224212Y0163956D02*
X0229325Y0163956D01*
X0229325Y0164255D02*
X0223857Y0164255D01*
X0223558Y0164553D02*
X0229325Y0164553D01*
X0229325Y0164852D02*
X0223321Y0164852D01*
X0223139Y0165150D02*
X0229325Y0165150D01*
X0229325Y0165449D02*
X0222973Y0165449D01*
X0222838Y0165747D02*
X0229325Y0165747D01*
X0229306Y0166046D02*
X0222755Y0166046D01*
X0222672Y0166344D02*
X0229273Y0166344D01*
X0229226Y0166643D02*
X0227773Y0166643D01*
X0227908Y0166941D02*
X0229106Y0166941D01*
X0228938Y0167240D02*
X0227823Y0167240D01*
X0227411Y0167539D02*
X0228448Y0167539D01*
X0226941Y0168434D02*
X0223064Y0168434D01*
X0222912Y0168136D02*
X0226678Y0168136D01*
X0226414Y0167837D02*
X0222805Y0167837D01*
X0222723Y0167539D02*
X0226164Y0167539D01*
X0226058Y0167240D02*
X0222667Y0167240D01*
X0222639Y0166941D02*
X0226082Y0166941D01*
X0226244Y0166643D02*
X0222655Y0166643D01*
X0223246Y0168733D02*
X0223910Y0168733D01*
X0223853Y0169031D02*
X0223511Y0169031D01*
X0224797Y0168733D02*
X0227144Y0168733D01*
X0227267Y0169031D02*
X0225201Y0169031D01*
X0225397Y0169330D02*
X0227318Y0169330D01*
X0227299Y0169628D02*
X0225499Y0169628D01*
X0225402Y0169927D02*
X0227200Y0169927D01*
X0226978Y0170225D02*
X0225108Y0170225D01*
X0224573Y0170524D02*
X0226638Y0170524D01*
X0225842Y0170822D02*
X0225356Y0170822D01*
X0224601Y0161778D02*
X0223459Y0161778D01*
X0223381Y0161739D01*
X0223381Y0160636D01*
X0224050Y0160636D01*
X0224207Y0160597D01*
X0224365Y0160518D01*
X0224444Y0160400D01*
X0224483Y0160321D01*
X0224483Y0160164D01*
X0224522Y0160006D01*
X0224522Y0159691D01*
X0223459Y0159691D01*
X0223459Y0158668D01*
X0224522Y0158668D01*
X0224522Y0154101D01*
X0226018Y0154101D01*
X0226018Y0158668D01*
X0227554Y0158668D01*
X0227396Y0158786D01*
X0226766Y0159416D01*
X0226609Y0159534D01*
X0226491Y0159691D01*
X0226018Y0159691D01*
X0226018Y0160479D01*
X0225900Y0160794D01*
X0225782Y0161069D01*
X0225585Y0161306D01*
X0225310Y0161502D01*
X0224995Y0161660D01*
X0224601Y0161778D01*
X0225178Y0161568D02*
X0223381Y0161568D01*
X0223381Y0161270D02*
X0225615Y0161270D01*
X0225824Y0160971D02*
X0223381Y0160971D01*
X0223381Y0160673D02*
X0225946Y0160673D01*
X0226018Y0160374D02*
X0224456Y0160374D01*
X0224505Y0160076D02*
X0226018Y0160076D01*
X0226018Y0159777D02*
X0224522Y0159777D01*
X0223459Y0159479D02*
X0226682Y0159479D01*
X0227002Y0159180D02*
X0223459Y0159180D01*
X0223459Y0158882D02*
X0227300Y0158882D01*
X0226018Y0158583D02*
X0224522Y0158583D01*
X0224522Y0158285D02*
X0226018Y0158285D01*
X0226018Y0157986D02*
X0224522Y0157986D01*
X0224522Y0157688D02*
X0226018Y0157688D01*
X0226018Y0157389D02*
X0224522Y0157389D01*
X0224522Y0157091D02*
X0226018Y0157091D01*
X0226018Y0156792D02*
X0224522Y0156792D01*
X0224522Y0156494D02*
X0226018Y0156494D01*
X0226018Y0156195D02*
X0224522Y0156195D01*
X0224522Y0155897D02*
X0226018Y0155897D01*
X0226018Y0155598D02*
X0224522Y0155598D01*
X0224522Y0155300D02*
X0226018Y0155300D01*
X0226018Y0155001D02*
X0224522Y0155001D01*
X0224522Y0154703D02*
X0226018Y0154703D01*
X0226018Y0154404D02*
X0224522Y0154404D01*
X0224522Y0154105D02*
X0226018Y0154105D01*
X0226966Y0154105D02*
X0228817Y0154105D01*
X0229001Y0154404D02*
X0227162Y0154404D01*
X0227358Y0154703D02*
X0229186Y0154703D01*
X0229371Y0155001D02*
X0227553Y0155001D01*
X0227749Y0155300D02*
X0229556Y0155300D01*
X0229741Y0155598D02*
X0227945Y0155598D01*
X0228140Y0155897D02*
X0229925Y0155897D01*
X0230110Y0156195D02*
X0228336Y0156195D01*
X0228532Y0156494D02*
X0230295Y0156494D01*
X0230443Y0156494D02*
X0232475Y0156494D01*
X0232475Y0156792D02*
X0228728Y0156792D01*
X0228923Y0157091D02*
X0232475Y0157091D01*
X0232475Y0157389D02*
X0229119Y0157389D01*
X0229242Y0157688D02*
X0230936Y0157688D01*
X0230940Y0157688D02*
X0232475Y0157688D01*
X0233066Y0158583D02*
X0236648Y0158583D01*
X0236648Y0158285D02*
X0234283Y0158285D01*
X0234710Y0157986D02*
X0236648Y0157986D01*
X0236648Y0157688D02*
X0234908Y0157688D01*
X0235017Y0157389D02*
X0236648Y0157389D01*
X0236648Y0157091D02*
X0235087Y0157091D01*
X0235113Y0156792D02*
X0236648Y0156792D01*
X0236648Y0156494D02*
X0235113Y0156494D01*
X0235113Y0156195D02*
X0236648Y0156195D01*
X0236648Y0155897D02*
X0235113Y0155897D01*
X0235113Y0155598D02*
X0236648Y0155598D01*
X0236648Y0155300D02*
X0235113Y0155300D01*
X0235113Y0155001D02*
X0236648Y0155001D01*
X0236648Y0154703D02*
X0235113Y0154703D01*
X0235113Y0154404D02*
X0236648Y0154404D01*
X0236648Y0154105D02*
X0235113Y0154105D01*
X0237318Y0154105D02*
X0238853Y0154105D01*
X0238959Y0154404D02*
X0237410Y0154404D01*
X0239219Y0154404D02*
X0242266Y0154404D01*
X0241776Y0154105D02*
X0239823Y0154105D01*
X0240406Y0156494D02*
X0240558Y0156494D01*
X0232475Y0156195D02*
X0230763Y0156195D01*
X0230940Y0155897D02*
X0232475Y0155897D01*
X0232475Y0155598D02*
X0230940Y0155598D01*
X0230940Y0155300D02*
X0232475Y0155300D01*
X0232475Y0155001D02*
X0230940Y0155001D01*
X0230940Y0154703D02*
X0232475Y0154703D01*
X0232475Y0154404D02*
X0230940Y0154404D01*
X0230940Y0154105D02*
X0232475Y0154105D01*
X0232475Y0160076D02*
X0230940Y0160076D01*
X0230940Y0160374D02*
X0232475Y0160374D01*
X0232475Y0160673D02*
X0230940Y0160673D01*
X0230940Y0160971D02*
X0232438Y0160971D01*
X0231883Y0161270D02*
X0230940Y0161270D01*
X0230940Y0161568D02*
X0231329Y0161568D01*
X0222987Y0159691D02*
X0222987Y0155754D01*
X0222908Y0155321D01*
X0222790Y0154928D01*
X0222593Y0154573D01*
X0222318Y0154337D01*
X0221963Y0154140D01*
X0221530Y0153983D01*
X0220979Y0153943D01*
X0220743Y0153983D01*
X0220467Y0154022D01*
X0220231Y0154101D01*
X0220034Y0154180D01*
X0219798Y0154298D01*
X0219601Y0154455D01*
X0219444Y0154652D01*
X0219286Y0154888D01*
X0219247Y0154888D01*
X0219247Y0154101D01*
X0217790Y0154101D01*
X0217790Y0159691D01*
X0219325Y0159691D01*
X0219325Y0156345D01*
X0219365Y0156030D01*
X0219483Y0155754D01*
X0219601Y0155518D01*
X0219759Y0155361D01*
X0219955Y0155243D01*
X0220192Y0155203D01*
X0220507Y0155164D01*
X0220743Y0155203D01*
X0220940Y0155243D01*
X0221136Y0155361D01*
X0221373Y0155676D01*
X0221412Y0155912D01*
X0221491Y0156542D01*
X0221491Y0159691D01*
X0222987Y0159691D01*
X0222987Y0159479D02*
X0221491Y0159479D01*
X0221491Y0159180D02*
X0222987Y0159180D01*
X0222987Y0158882D02*
X0221491Y0158882D01*
X0221491Y0158583D02*
X0222987Y0158583D01*
X0222987Y0158285D02*
X0221491Y0158285D01*
X0221491Y0157986D02*
X0222987Y0157986D01*
X0222987Y0157688D02*
X0221491Y0157688D01*
X0221491Y0157389D02*
X0222987Y0157389D01*
X0222987Y0157091D02*
X0221491Y0157091D01*
X0221491Y0156792D02*
X0222987Y0156792D01*
X0222987Y0156494D02*
X0221485Y0156494D01*
X0221447Y0156195D02*
X0222987Y0156195D01*
X0222987Y0155897D02*
X0221410Y0155897D01*
X0221315Y0155598D02*
X0222958Y0155598D01*
X0222902Y0155300D02*
X0221035Y0155300D01*
X0219860Y0155300D02*
X0217790Y0155300D01*
X0217790Y0155598D02*
X0219561Y0155598D01*
X0219422Y0155897D02*
X0217790Y0155897D01*
X0217790Y0156195D02*
X0219344Y0156195D01*
X0219325Y0156494D02*
X0217790Y0156494D01*
X0217790Y0156792D02*
X0219325Y0156792D01*
X0219325Y0157091D02*
X0217790Y0157091D01*
X0217790Y0157389D02*
X0219325Y0157389D01*
X0219325Y0157688D02*
X0217790Y0157688D01*
X0217790Y0157986D02*
X0219325Y0157986D01*
X0219325Y0158285D02*
X0217790Y0158285D01*
X0217790Y0158583D02*
X0219325Y0158583D01*
X0219325Y0158882D02*
X0217790Y0158882D01*
X0217790Y0159180D02*
X0219325Y0159180D01*
X0219325Y0159479D02*
X0217790Y0159479D01*
X0216963Y0159479D02*
X0215507Y0159479D01*
X0215507Y0159691D02*
X0215507Y0158904D01*
X0215467Y0158904D01*
X0215310Y0159140D01*
X0215152Y0159298D01*
X0214955Y0159455D01*
X0214719Y0159613D01*
X0214247Y0159770D01*
X0214010Y0159809D01*
X0213774Y0159809D01*
X0213223Y0159770D01*
X0212790Y0159652D01*
X0212436Y0159455D01*
X0212160Y0159180D01*
X0211963Y0158865D01*
X0211845Y0158471D01*
X0211766Y0158038D01*
X0211727Y0157526D01*
X0211727Y0154101D01*
X0213262Y0154101D01*
X0213262Y0157250D01*
X0213302Y0157565D01*
X0213341Y0157841D01*
X0213381Y0158077D01*
X0213499Y0158274D01*
X0213617Y0158431D01*
X0213814Y0158550D01*
X0214010Y0158589D01*
X0214247Y0158628D01*
X0214562Y0158589D01*
X0214798Y0158550D01*
X0214995Y0158431D01*
X0215152Y0158235D01*
X0215270Y0158038D01*
X0215388Y0157762D01*
X0215428Y0157408D01*
X0215428Y0154101D01*
X0216963Y0154101D01*
X0216963Y0159691D01*
X0215507Y0159691D01*
X0215507Y0159180D02*
X0216963Y0159180D01*
X0216963Y0158882D02*
X0211974Y0158882D01*
X0211879Y0158583D02*
X0213981Y0158583D01*
X0213507Y0158285D02*
X0211811Y0158285D01*
X0211762Y0157986D02*
X0213365Y0157986D01*
X0213319Y0157688D02*
X0211739Y0157688D01*
X0211727Y0157389D02*
X0213280Y0157389D01*
X0213262Y0157091D02*
X0211727Y0157091D01*
X0211727Y0156792D02*
X0213262Y0156792D01*
X0213262Y0156494D02*
X0211727Y0156494D01*
X0211727Y0156195D02*
X0213262Y0156195D01*
X0213262Y0155897D02*
X0211727Y0155897D01*
X0211727Y0155598D02*
X0213262Y0155598D01*
X0213262Y0155300D02*
X0211727Y0155300D01*
X0211727Y0155001D02*
X0213262Y0155001D01*
X0213262Y0154703D02*
X0211727Y0154703D01*
X0211727Y0154404D02*
X0213262Y0154404D01*
X0213262Y0154105D02*
X0211727Y0154105D01*
X0215428Y0154105D02*
X0216963Y0154105D01*
X0216963Y0154404D02*
X0215428Y0154404D01*
X0215428Y0154703D02*
X0216963Y0154703D01*
X0216963Y0155001D02*
X0215428Y0155001D01*
X0215428Y0155300D02*
X0216963Y0155300D01*
X0216963Y0155598D02*
X0215428Y0155598D01*
X0215428Y0155897D02*
X0216963Y0155897D01*
X0216963Y0156195D02*
X0215428Y0156195D01*
X0215428Y0156494D02*
X0216963Y0156494D01*
X0216963Y0156792D02*
X0215428Y0156792D01*
X0215428Y0157091D02*
X0216963Y0157091D01*
X0216963Y0157389D02*
X0215428Y0157389D01*
X0215397Y0157688D02*
X0216963Y0157688D01*
X0216963Y0157986D02*
X0215292Y0157986D01*
X0215112Y0158285D02*
X0216963Y0158285D01*
X0216963Y0158583D02*
X0214597Y0158583D01*
X0215270Y0159180D02*
X0212161Y0159180D01*
X0212478Y0159479D02*
X0214920Y0159479D01*
X0214204Y0159777D02*
X0213323Y0159777D01*
X0217790Y0155001D02*
X0222812Y0155001D01*
X0222665Y0154703D02*
X0219410Y0154703D01*
X0219247Y0154703D02*
X0217790Y0154703D01*
X0217790Y0154404D02*
X0219247Y0154404D01*
X0219247Y0154105D02*
X0217790Y0154105D01*
X0219665Y0154404D02*
X0222396Y0154404D01*
X0221868Y0154105D02*
X0220219Y0154105D01*
X0249446Y0155897D02*
X0251050Y0155897D01*
X0250998Y0155598D02*
X0249492Y0155598D01*
X0249559Y0155300D02*
X0251119Y0155300D01*
X0251827Y0155001D02*
X0249667Y0155001D01*
X0249878Y0154703D02*
X0254129Y0154703D01*
X0254361Y0155001D02*
X0252168Y0155001D01*
X0252919Y0155300D02*
X0254482Y0155300D01*
X0254553Y0155598D02*
X0253113Y0155598D01*
X0253144Y0155897D02*
X0254599Y0155897D01*
X0254046Y0157091D02*
X0250197Y0157091D01*
X0249776Y0156792D02*
X0253505Y0156792D01*
X0254313Y0157389D02*
X0250983Y0157389D01*
X0251399Y0156195D02*
X0249475Y0156195D01*
X0249580Y0156494D02*
X0252471Y0156494D01*
X0252291Y0157688D02*
X0254444Y0157688D01*
X0254477Y0157986D02*
X0252810Y0157986D01*
X0252948Y0158285D02*
X0254462Y0158285D01*
X0254414Y0158583D02*
X0252846Y0158583D01*
X0252692Y0159777D02*
X0251432Y0159777D01*
X0250199Y0154404D02*
X0253806Y0154404D01*
X0253109Y0154105D02*
X0250896Y0154105D01*
D424*
X0254892Y0141602D03*
X0215207Y0141602D03*
D425*
X0223337Y0141602D03*
X0219479Y0137154D03*
X0229400Y0141602D03*
X0210660Y0141602D03*
X0250345Y0141602D03*
D426*
X0245798Y0141602D03*
X0246349Y0138531D03*
X0246349Y0137154D03*
D427*
X0250207Y0141012D03*
X0254892Y0134949D03*
X0254892Y0134673D03*
X0238908Y0141602D03*
X0236152Y0137154D03*
X0226231Y0136602D03*
X0223199Y0134673D03*
X0215207Y0134673D03*
X0215207Y0134949D03*
X0210522Y0141012D03*
X0219341Y0141602D03*
D428*
X0223199Y0141307D03*
X0215207Y0141307D03*
X0210522Y0141307D03*
X0229262Y0141307D03*
X0250207Y0141307D03*
X0254892Y0141307D03*
D429*
X0245798Y0141307D03*
D430*
X0238770Y0141307D03*
X0226369Y0137449D03*
X0219203Y0141307D03*
X0214518Y0139378D03*
X0254203Y0139378D03*
D431*
X0254755Y0141012D03*
X0254755Y0137705D03*
X0254755Y0137154D03*
X0254755Y0136878D03*
X0254755Y0136602D03*
X0254755Y0136327D03*
X0254755Y0136051D03*
X0254755Y0135776D03*
X0254755Y0135500D03*
X0250345Y0134949D03*
X0250345Y0134673D03*
X0247589Y0136327D03*
X0247589Y0136602D03*
X0247589Y0136878D03*
X0247589Y0139083D03*
X0250345Y0139083D03*
X0250345Y0138807D03*
X0250345Y0138531D03*
X0250345Y0138256D03*
X0250345Y0137980D03*
X0250345Y0139909D03*
X0250345Y0140185D03*
X0241526Y0138531D03*
X0241526Y0138256D03*
X0241526Y0137980D03*
X0241526Y0137705D03*
X0241526Y0137154D03*
X0241251Y0136878D03*
X0241251Y0138807D03*
X0241251Y0139083D03*
X0236290Y0139083D03*
X0236290Y0138807D03*
X0236014Y0138531D03*
X0236014Y0138256D03*
X0236014Y0137980D03*
X0236014Y0137705D03*
X0236290Y0136878D03*
X0229400Y0136878D03*
X0229400Y0137154D03*
X0229400Y0137705D03*
X0229400Y0137980D03*
X0229400Y0136602D03*
X0229400Y0136327D03*
X0229400Y0136051D03*
X0229400Y0135776D03*
X0229400Y0135500D03*
X0229400Y0134949D03*
X0229400Y0134673D03*
X0226369Y0136878D03*
X0223337Y0136878D03*
X0223337Y0137154D03*
X0223337Y0137705D03*
X0223337Y0137980D03*
X0223337Y0136602D03*
X0223337Y0136327D03*
X0223337Y0136051D03*
X0223337Y0135776D03*
X0223337Y0135500D03*
X0223337Y0134949D03*
X0218101Y0136602D03*
X0217825Y0137154D03*
X0217550Y0139083D03*
X0217825Y0139909D03*
X0215070Y0141012D03*
X0215070Y0137705D03*
X0215070Y0137154D03*
X0215070Y0136878D03*
X0215070Y0136602D03*
X0215070Y0136327D03*
X0215070Y0136051D03*
X0215070Y0135776D03*
X0215070Y0135500D03*
X0210660Y0134949D03*
X0210660Y0134673D03*
X0210660Y0137980D03*
X0210660Y0138256D03*
X0210660Y0138531D03*
X0210660Y0138807D03*
X0210660Y0139083D03*
X0210660Y0139909D03*
X0210660Y0140185D03*
X0220857Y0139083D03*
X0223337Y0141012D03*
X0229400Y0141012D03*
D432*
X0238770Y0140185D03*
X0238770Y0135500D03*
X0245660Y0135500D03*
X0245660Y0134949D03*
X0245660Y0134673D03*
X0245660Y0140185D03*
X0245660Y0141012D03*
D433*
X0251448Y0137705D03*
X0253652Y0137980D03*
X0238770Y0141012D03*
X0238770Y0134673D03*
X0219479Y0135776D03*
X0218928Y0137705D03*
X0213967Y0137980D03*
X0211762Y0137705D03*
D434*
X0211487Y0136878D03*
X0214243Y0138807D03*
X0219203Y0141012D03*
X0224164Y0138807D03*
X0226369Y0137980D03*
X0228573Y0138807D03*
X0228573Y0139083D03*
X0232707Y0135776D03*
X0251172Y0136878D03*
X0253928Y0138807D03*
D435*
X0254617Y0140756D03*
X0250483Y0135244D03*
X0229262Y0140756D03*
X0223475Y0140756D03*
X0214932Y0140756D03*
X0210798Y0135244D03*
D436*
X0215070Y0135244D03*
X0220306Y0134417D03*
X0223337Y0135244D03*
X0220857Y0139654D03*
X0229400Y0135244D03*
X0247589Y0139654D03*
X0250345Y0139654D03*
X0250345Y0140756D03*
X0254755Y0135244D03*
X0210660Y0139654D03*
X0210660Y0140756D03*
D437*
X0245660Y0140756D03*
X0245660Y0135244D03*
D438*
X0238770Y0140756D03*
D439*
X0219203Y0140756D03*
D440*
X0214932Y0140480D03*
X0236428Y0139378D03*
X0241113Y0139378D03*
X0254617Y0140480D03*
D441*
X0254755Y0137449D03*
X0250345Y0139378D03*
X0250345Y0140480D03*
X0247589Y0139378D03*
X0241526Y0137449D03*
X0236014Y0137449D03*
X0229400Y0137449D03*
X0223337Y0137449D03*
X0220857Y0139378D03*
X0217550Y0139378D03*
X0215070Y0137449D03*
X0210660Y0139378D03*
X0210660Y0140480D03*
D442*
X0245660Y0140480D03*
D443*
X0238770Y0140480D03*
D444*
X0229125Y0140480D03*
X0223613Y0140480D03*
D445*
X0219341Y0140480D03*
D446*
X0217825Y0138807D03*
X0218377Y0136327D03*
X0214794Y0140185D03*
X0210936Y0135500D03*
X0223613Y0140185D03*
X0226369Y0137154D03*
X0236566Y0136327D03*
X0236841Y0136051D03*
X0240699Y0136051D03*
X0240975Y0136327D03*
X0250621Y0135500D03*
X0254479Y0140185D03*
D447*
X0254341Y0139909D03*
X0250759Y0135776D03*
X0228987Y0139909D03*
X0228987Y0140185D03*
X0223751Y0139909D03*
X0220168Y0134673D03*
X0214656Y0139909D03*
X0211073Y0135776D03*
D448*
X0218928Y0137980D03*
X0219203Y0140185D03*
X0238770Y0134949D03*
X0246211Y0137705D03*
X0246211Y0137980D03*
X0246211Y0138256D03*
D449*
X0245798Y0139909D03*
X0245798Y0135776D03*
D450*
X0238770Y0139909D03*
D451*
X0236428Y0136602D03*
X0241113Y0136602D03*
X0220719Y0138807D03*
X0220719Y0139909D03*
X0217963Y0136878D03*
D452*
X0214518Y0139654D03*
X0223888Y0139654D03*
X0228849Y0139654D03*
X0238770Y0134417D03*
X0254203Y0139654D03*
D453*
X0240699Y0139654D03*
X0236841Y0139654D03*
D454*
X0228711Y0139378D03*
X0224026Y0139378D03*
D455*
X0224026Y0139083D03*
X0226231Y0137705D03*
X0219892Y0134949D03*
X0219066Y0136051D03*
X0214381Y0139083D03*
X0211349Y0136602D03*
X0232845Y0137154D03*
X0251034Y0136602D03*
X0254066Y0139083D03*
D456*
X0253790Y0138531D03*
X0253790Y0138256D03*
X0251310Y0137154D03*
X0246625Y0138807D03*
X0232845Y0136878D03*
X0232845Y0136602D03*
X0232845Y0136327D03*
X0232845Y0136051D03*
X0228436Y0138531D03*
X0224302Y0138531D03*
X0219617Y0135500D03*
X0214105Y0138256D03*
X0214105Y0138531D03*
X0211625Y0137154D03*
D457*
X0219066Y0138256D03*
X0219066Y0138531D03*
X0246073Y0136051D03*
D458*
X0226369Y0138256D03*
D459*
X0211625Y0137449D03*
X0251310Y0137449D03*
D460*
X0246211Y0137449D03*
D461*
X0218652Y0137449D03*
D462*
X0211211Y0136327D03*
X0211211Y0136051D03*
X0250896Y0136051D03*
X0250896Y0136327D03*
D463*
X0226369Y0136327D03*
D464*
X0238908Y0135776D03*
D465*
X0238770Y0135244D03*
X0245660Y0134417D03*
D466*
X0219755Y0135244D03*
D467*
X0223337Y0134417D03*
X0215070Y0134417D03*
X0210660Y0134417D03*
X0229400Y0134417D03*
X0250345Y0134417D03*
X0254755Y0134417D03*
D468*
X0238770Y0134122D03*
D469*
X0268605Y0107343D03*
X0268605Y0102657D03*
D470*
X0268605Y0102776D03*
X0268605Y0107224D03*
D471*
X0268605Y0107126D03*
D472*
X0268605Y0107008D03*
D473*
X0268605Y0106654D03*
D474*
X0266892Y0106555D03*
D475*
X0266833Y0106417D03*
D476*
X0269904Y0105472D03*
D477*
X0269786Y0105335D03*
D478*
X0272148Y0104528D03*
D479*
X0267306Y0103583D03*
M02*
