G75*
%MOIN*%
%OFA0B0*%
%FSLAX25Y25*%
%IPPOS*%
%LPD*%
%AMOC8*
5,1,8,0,0,1.08239X$1,22.5*
%
%ADD10C,0.00900*%
%ADD11C,0.00800*%
%ADD12C,0.00600*%
%ADD13R,0.00157X0.13858*%
%ADD14R,0.00157X0.14331*%
%ADD15R,0.00157X0.14646*%
%ADD16R,0.00157X0.14961*%
%ADD17R,0.00157X0.15118*%
%ADD18R,0.00157X0.15276*%
%ADD19R,0.00157X0.15433*%
%ADD20R,0.00157X0.02835*%
%ADD21R,0.00157X0.11969*%
%ADD22R,0.00157X0.02520*%
%ADD23R,0.00157X0.01102*%
%ADD24R,0.00157X0.03150*%
%ADD25R,0.00157X0.04567*%
%ADD26R,0.00157X0.02205*%
%ADD27R,0.00157X0.00787*%
%ADD28R,0.00157X0.02677*%
%ADD29R,0.00157X0.04409*%
%ADD30R,0.00157X0.02047*%
%ADD31R,0.00157X0.00630*%
%ADD32R,0.00157X0.01890*%
%ADD33R,0.00157X0.01732*%
%ADD34R,0.00157X0.01575*%
%ADD35R,0.00157X0.00945*%
%ADD36R,0.00157X0.02362*%
%ADD37R,0.00157X0.01260*%
%ADD38R,0.00157X0.01417*%
%ADD39R,0.00157X0.04252*%
%ADD40R,0.00157X0.00315*%
%ADD41R,0.00157X0.04094*%
%ADD42R,0.00157X0.00472*%
%ADD43R,0.00157X0.03937*%
%ADD44R,0.00157X0.03307*%
%ADD45R,0.00157X0.03780*%
%ADD46R,0.00157X0.03465*%
%ADD47R,0.00157X0.02992*%
%ADD48R,0.00157X0.12913*%
%ADD49R,0.00157X0.13386*%
%ADD50R,0.00157X0.13701*%
%ADD51R,0.00157X0.14016*%
%ADD52R,0.00157X0.14173*%
%ADD53R,0.00157X0.14488*%
%ADD54R,0.00157X0.07087*%
%ADD55R,0.00157X0.04882*%
%ADD56R,0.00157X0.05039*%
%ADD57R,0.00157X0.05197*%
%ADD58R,0.00157X0.03622*%
%ADD59R,0.00157X0.00157*%
%ADD60R,0.00157X0.11024*%
%ADD61R,0.00157X0.12756*%
%ADD62R,0.00157X0.11181*%
%ADD63R,0.00157X0.11496*%
%ADD64R,0.00157X0.11654*%
%ADD65R,0.00157X0.13071*%
%ADD66R,0.00157X0.13228*%
%ADD67R,0.00157X0.11811*%
%ADD68R,0.00157X0.14803*%
%ADD69R,0.00157X0.15906*%
%ADD70R,0.00157X0.16063*%
%ADD71R,0.00157X0.16220*%
%ADD72R,0.00157X0.16378*%
%ADD73R,0.00157X0.09921*%
%ADD74C,0.00100*%
%ADD75C,0.01000*%
%ADD76R,0.00118X0.09094*%
%ADD77R,0.00118X0.09803*%
%ADD78R,0.00079X0.10276*%
%ADD79R,0.00157X0.10748*%
%ADD80R,0.00118X0.10984*%
%ADD81R,0.00118X0.11220*%
%ADD82R,0.00079X0.11457*%
%ADD83R,0.00118X0.08150*%
%ADD84R,0.00118X0.02835*%
%ADD85R,0.00157X0.02244*%
%ADD86R,0.00157X0.01063*%
%ADD87R,0.00157X0.02598*%
%ADD88R,0.00118X0.02244*%
%ADD89R,0.00118X0.00827*%
%ADD90R,0.00118X0.01063*%
%ADD91R,0.00118X0.02480*%
%ADD92R,0.00118X0.02362*%
%ADD93R,0.00118X0.00709*%
%ADD94R,0.00118X0.00591*%
%ADD95R,0.00157X0.02480*%
%ADD96R,0.00118X0.00472*%
%ADD97R,0.00118X0.00354*%
%ADD98R,0.00118X0.02717*%
%ADD99R,0.00118X0.02598*%
%ADD100R,0.00118X0.00945*%
%ADD101R,0.00118X0.00236*%
%ADD102R,0.00118X0.04016*%
%ADD103R,0.00157X0.00354*%
%ADD104R,0.00157X0.00236*%
%ADD105R,0.00157X0.03898*%
%ADD106R,0.00118X0.03661*%
%ADD107R,0.00118X0.03189*%
%ADD108R,0.00157X0.00591*%
%ADD109R,0.00157X0.02717*%
%ADD110R,0.00118X0.01181*%
%ADD111R,0.00118X0.01654*%
%ADD112R,0.00157X0.00709*%
%ADD113R,0.00157X0.02126*%
%ADD114R,0.00118X0.01299*%
%ADD115R,0.00118X0.02008*%
%ADD116R,0.00118X0.01890*%
%ADD117R,0.00157X0.02008*%
%ADD118R,0.00118X0.02126*%
%ADD119R,0.00118X0.11457*%
%ADD120R,0.00118X0.10748*%
%ADD121R,0.00118X0.10276*%
%ADD122C,0.01000*%
%ADD123R,0.00118X0.00118*%
%ADD124R,0.00157X0.02953*%
%ADD125R,0.00118X0.03071*%
%ADD126R,0.00118X0.02953*%
%ADD127R,0.00157X0.00827*%
%ADD128R,0.00118X0.01417*%
%ADD129R,0.00157X0.01535*%
%ADD130R,0.00118X0.01535*%
%ADD131R,0.00118X0.01772*%
%ADD132R,0.00157X0.01181*%
%ADD133R,0.00079X0.11929*%
%ADD134R,0.00157X0.12402*%
%ADD135R,0.00118X0.12638*%
%ADD136R,0.00118X0.12874*%
%ADD137R,0.00079X0.13110*%
%ADD138R,0.00118X0.04961*%
%ADD139R,0.00118X0.05079*%
%ADD140R,0.00157X0.00118*%
%ADD141R,0.00118X0.13110*%
%ADD142R,0.00118X0.12402*%
%ADD143R,0.00118X0.11929*%
%ADD144R,0.00157X0.10551*%
%ADD145R,0.00157X0.07874*%
%ADD146R,0.00157X0.08031*%
%ADD147R,0.00157X0.08346*%
%ADD148R,0.00157X0.08504*%
%ADD149R,0.00157X0.09606*%
%ADD150R,0.00157X0.09764*%
%ADD151R,0.00157X0.10079*%
%ADD152R,0.00157X0.08661*%
%ADD153C,0.00300*%
%ADD154R,0.00118X0.20079*%
%ADD155R,0.00118X0.20197*%
%ADD156R,0.00079X0.20433*%
%ADD157R,0.00157X0.20551*%
%ADD158R,0.00118X0.20669*%
%ADD159R,0.00118X0.20787*%
%ADD160R,0.00079X0.08504*%
%ADD161R,0.00118X0.04252*%
%ADD162R,0.00118X0.05197*%
%ADD163R,0.00157X0.01654*%
%ADD164R,0.00157X0.01299*%
%ADD165R,0.00157X0.01772*%
%ADD166R,0.00118X0.07087*%
%ADD167R,0.00118X0.13228*%
%ADD168R,0.00118X0.07205*%
%ADD169R,0.00118X0.20551*%
%ADD170R,0.00118X0.20433*%
%ADD171R,0.00118X0.22559*%
%ADD172R,0.00118X0.22441*%
%ADD173R,0.00079X0.22323*%
%ADD174R,0.00157X0.22205*%
%ADD175R,0.00118X0.22087*%
%ADD176R,0.00118X0.21969*%
%ADD177R,0.00079X0.09449*%
%ADD178R,0.00079X0.12047*%
%ADD179R,0.00118X0.05787*%
%ADD180R,0.00118X0.08031*%
%ADD181R,0.00118X0.08386*%
%ADD182R,0.00118X0.13346*%
%ADD183R,0.00118X0.22205*%
%ADD184R,0.00118X0.22323*%
%ADD185C,0.01114*%
%ADD186C,0.00700*%
%ADD187C,0.00500*%
%ADD188C,0.01181*%
%ADD189C,0.00050*%
D10*
X0177783Y0102002D02*
X0181186Y0102002D01*
X0179485Y0100301D02*
X0179485Y0103704D01*
X0191783Y0101002D02*
X0195186Y0101002D01*
D11*
X0196877Y0104439D02*
X0189790Y0104439D01*
X0186365Y0104439D02*
X0186365Y0109361D01*
X0189790Y0109361D02*
X0196877Y0109361D01*
X0171955Y0127089D02*
X0165459Y0127089D01*
X0171955Y0127089D02*
X0171955Y0130042D01*
X0155223Y0132994D02*
X0155223Y0144806D01*
X0165459Y0150711D02*
X0171955Y0150711D01*
X0171955Y0147758D01*
X0174114Y0148743D02*
X0174116Y0148783D01*
X0174122Y0148822D01*
X0174132Y0148861D01*
X0174145Y0148898D01*
X0174163Y0148934D01*
X0174184Y0148968D01*
X0174208Y0149000D01*
X0174235Y0149029D01*
X0174265Y0149056D01*
X0174297Y0149079D01*
X0174332Y0149099D01*
X0174368Y0149115D01*
X0174406Y0149128D01*
X0174445Y0149137D01*
X0174484Y0149142D01*
X0174524Y0149143D01*
X0174564Y0149140D01*
X0174603Y0149133D01*
X0174641Y0149122D01*
X0174679Y0149108D01*
X0174714Y0149089D01*
X0174747Y0149068D01*
X0174779Y0149043D01*
X0174807Y0149015D01*
X0174833Y0148985D01*
X0174855Y0148952D01*
X0174874Y0148917D01*
X0174890Y0148880D01*
X0174902Y0148842D01*
X0174910Y0148803D01*
X0174914Y0148763D01*
X0174914Y0148723D01*
X0174910Y0148683D01*
X0174902Y0148644D01*
X0174890Y0148606D01*
X0174874Y0148569D01*
X0174855Y0148534D01*
X0174833Y0148501D01*
X0174807Y0148471D01*
X0174779Y0148443D01*
X0174747Y0148418D01*
X0174714Y0148397D01*
X0174679Y0148378D01*
X0174641Y0148364D01*
X0174603Y0148353D01*
X0174564Y0148346D01*
X0174524Y0148343D01*
X0174484Y0148344D01*
X0174445Y0148349D01*
X0174406Y0148358D01*
X0174368Y0148371D01*
X0174332Y0148387D01*
X0174297Y0148407D01*
X0174265Y0148430D01*
X0174235Y0148457D01*
X0174208Y0148486D01*
X0174184Y0148518D01*
X0174163Y0148552D01*
X0174145Y0148588D01*
X0174132Y0148625D01*
X0174122Y0148664D01*
X0174116Y0148703D01*
X0174114Y0148743D01*
X0177725Y0189361D02*
X0177725Y0196448D01*
X0211741Y0196448D02*
X0211741Y0189361D01*
X0273643Y0142400D02*
X0277024Y0142400D01*
X0272543Y0138457D02*
X0272543Y0136343D01*
X0273643Y0132400D02*
X0277024Y0132400D01*
X0291752Y0129057D02*
X0291754Y0129097D01*
X0291760Y0129136D01*
X0291770Y0129175D01*
X0291783Y0129212D01*
X0291801Y0129248D01*
X0291822Y0129282D01*
X0291846Y0129314D01*
X0291873Y0129343D01*
X0291903Y0129370D01*
X0291935Y0129393D01*
X0291970Y0129413D01*
X0292006Y0129429D01*
X0292044Y0129442D01*
X0292083Y0129451D01*
X0292122Y0129456D01*
X0292162Y0129457D01*
X0292202Y0129454D01*
X0292241Y0129447D01*
X0292279Y0129436D01*
X0292317Y0129422D01*
X0292352Y0129403D01*
X0292385Y0129382D01*
X0292417Y0129357D01*
X0292445Y0129329D01*
X0292471Y0129299D01*
X0292493Y0129266D01*
X0292512Y0129231D01*
X0292528Y0129194D01*
X0292540Y0129156D01*
X0292548Y0129117D01*
X0292552Y0129077D01*
X0292552Y0129037D01*
X0292548Y0128997D01*
X0292540Y0128958D01*
X0292528Y0128920D01*
X0292512Y0128883D01*
X0292493Y0128848D01*
X0292471Y0128815D01*
X0292445Y0128785D01*
X0292417Y0128757D01*
X0292385Y0128732D01*
X0292352Y0128711D01*
X0292317Y0128692D01*
X0292279Y0128678D01*
X0292241Y0128667D01*
X0292202Y0128660D01*
X0292162Y0128657D01*
X0292122Y0128658D01*
X0292083Y0128663D01*
X0292044Y0128672D01*
X0292006Y0128685D01*
X0291970Y0128701D01*
X0291935Y0128721D01*
X0291903Y0128744D01*
X0291873Y0128771D01*
X0291846Y0128800D01*
X0291822Y0128832D01*
X0291801Y0128866D01*
X0291783Y0128902D01*
X0291770Y0128939D01*
X0291760Y0128978D01*
X0291754Y0129017D01*
X0291752Y0129057D01*
X0294711Y0130042D02*
X0294711Y0127089D01*
X0301207Y0127089D01*
X0311444Y0132994D02*
X0311444Y0144806D01*
X0301207Y0150711D02*
X0294711Y0150711D01*
X0294711Y0147758D01*
X0297058Y0099750D02*
X0300808Y0099750D01*
X0306558Y0099750D02*
X0310308Y0099750D01*
D12*
X0280833Y0152900D02*
X0277833Y0152900D01*
X0280833Y0152900D02*
X0282833Y0154900D01*
X0282833Y0157900D01*
X0189534Y0096900D02*
X0189384Y0096970D01*
X0189233Y0097036D01*
X0189081Y0097099D01*
X0188927Y0097157D01*
X0188771Y0097212D01*
X0188615Y0097263D01*
X0188457Y0097311D01*
X0188298Y0097354D01*
X0188138Y0097394D01*
X0187977Y0097430D01*
X0187815Y0097462D01*
X0187653Y0097490D01*
X0187490Y0097514D01*
X0187326Y0097534D01*
X0187162Y0097550D01*
X0186998Y0097563D01*
X0186833Y0097571D01*
X0186668Y0097575D01*
X0186504Y0097576D01*
X0186339Y0097572D01*
X0186174Y0097564D01*
X0186010Y0097553D01*
X0185846Y0097537D01*
X0185682Y0097518D01*
X0185519Y0097494D01*
X0185356Y0097467D01*
X0185194Y0097436D01*
X0185033Y0097400D01*
X0176933Y0088701D02*
X0176917Y0088473D01*
X0176906Y0088244D01*
X0176901Y0088016D01*
X0176902Y0087787D01*
X0176908Y0087559D01*
X0176920Y0087330D01*
X0176937Y0087103D01*
X0176960Y0086875D01*
X0176988Y0086648D01*
X0177022Y0086422D01*
X0177061Y0086197D01*
X0177106Y0085973D01*
X0177156Y0085750D01*
X0177212Y0085528D01*
X0177273Y0085308D01*
X0177339Y0085089D01*
X0177411Y0084872D01*
X0177488Y0084657D01*
X0177570Y0084444D01*
X0177657Y0084233D01*
X0177750Y0084024D01*
X0177847Y0083817D01*
X0177950Y0083613D01*
X0178057Y0083411D01*
X0178169Y0083212D01*
X0178287Y0083016D01*
X0178408Y0082822D01*
X0178535Y0082632D01*
X0178666Y0082445D01*
X0178802Y0082261D01*
X0178942Y0082080D01*
X0179086Y0081903D01*
X0179235Y0081729D01*
X0179388Y0081560D01*
X0179545Y0081393D01*
X0179706Y0081231D01*
X0179871Y0081073D01*
X0180040Y0080919D01*
X0180212Y0080769D01*
X0180388Y0080623D01*
X0180568Y0080481D01*
X0180750Y0080344D01*
X0180937Y0080212D01*
X0181126Y0080084D01*
X0181318Y0079960D01*
X0181514Y0079842D01*
X0181712Y0079728D01*
X0181913Y0079619D01*
X0182116Y0079515D01*
X0182322Y0079416D01*
X0182531Y0079322D01*
X0182741Y0079233D01*
X0182954Y0079149D01*
X0183168Y0079071D01*
X0183385Y0078997D01*
X0183603Y0078929D01*
X0183823Y0078866D01*
X0184044Y0078809D01*
X0184267Y0078757D01*
X0184490Y0078711D01*
X0184715Y0078670D01*
X0184941Y0078634D01*
X0185168Y0078604D01*
X0185395Y0078580D01*
X0185623Y0078561D01*
X0185851Y0078547D01*
X0186079Y0078539D01*
X0186308Y0078537D01*
X0186536Y0078540D01*
X0186765Y0078549D01*
X0186993Y0078564D01*
X0187221Y0078583D01*
X0187448Y0078609D01*
X0187674Y0078640D01*
X0187900Y0078676D01*
X0188124Y0078718D01*
X0188348Y0078766D01*
X0188570Y0078819D01*
X0188791Y0078877D01*
X0189011Y0078941D01*
X0189229Y0079010D01*
X0189445Y0079084D01*
X0189659Y0079163D01*
X0189872Y0079248D01*
X0190082Y0079338D01*
X0190290Y0079433D01*
X0190495Y0079533D01*
X0190698Y0079638D01*
X0190899Y0079747D01*
X0191096Y0079862D01*
X0191291Y0079981D01*
X0191483Y0080106D01*
X0191672Y0080234D01*
X0191858Y0080368D01*
X0192040Y0080506D01*
X0192219Y0080648D01*
X0192394Y0080794D01*
X0192566Y0080945D01*
X0192734Y0081100D01*
D13*
X0265184Y0090319D03*
X0271483Y0090319D03*
D14*
X0271325Y0090555D03*
X0275971Y0090555D03*
X0280696Y0090555D03*
X0265341Y0090555D03*
X0261483Y0090713D03*
X0261325Y0090713D03*
X0261168Y0090713D03*
X0261010Y0090713D03*
X0260853Y0090713D03*
X0260696Y0090713D03*
X0260538Y0090713D03*
X0256129Y0090713D03*
X0255971Y0090713D03*
X0255814Y0090713D03*
X0255656Y0090713D03*
X0255499Y0090713D03*
X0255341Y0090713D03*
X0255184Y0090713D03*
X0231325Y0090343D03*
X0225341Y0090343D03*
X0210538Y0090555D03*
X0206129Y0090555D03*
X0245184Y0189113D03*
X0245341Y0189113D03*
X0245499Y0189113D03*
X0245656Y0189113D03*
X0245814Y0189113D03*
X0245971Y0189113D03*
X0246129Y0189113D03*
X0250538Y0189113D03*
X0250696Y0189113D03*
X0250853Y0189113D03*
X0251010Y0189113D03*
X0251168Y0189113D03*
X0251325Y0189113D03*
X0251483Y0189113D03*
X0285656Y0189240D03*
X0291010Y0189240D03*
D15*
X0290696Y0189083D03*
X0285971Y0189083D03*
X0271168Y0090713D03*
X0265499Y0090713D03*
X0231168Y0090500D03*
X0225499Y0090500D03*
X0210853Y0090713D03*
X0205814Y0090713D03*
D16*
X0205499Y0090870D03*
X0211168Y0090870D03*
X0230853Y0090657D03*
X0265656Y0090870D03*
X0271010Y0090870D03*
D17*
X0270853Y0090949D03*
X0265814Y0090949D03*
X0211325Y0090949D03*
X0205341Y0090949D03*
D18*
X0205184Y0091028D03*
X0211483Y0091028D03*
X0245184Y0091028D03*
X0245341Y0091028D03*
X0245499Y0091028D03*
X0245656Y0091028D03*
X0245814Y0091028D03*
X0245971Y0091028D03*
X0246129Y0091028D03*
X0250538Y0091028D03*
X0250696Y0091028D03*
X0250853Y0091028D03*
X0251010Y0091028D03*
X0251168Y0091028D03*
X0251325Y0091028D03*
X0251483Y0091028D03*
X0265971Y0091028D03*
X0270696Y0091028D03*
X0231483Y0188928D03*
X0231325Y0188928D03*
X0231168Y0188928D03*
X0231010Y0188928D03*
X0230853Y0188928D03*
X0230696Y0188928D03*
X0230538Y0188928D03*
X0226129Y0188928D03*
X0225971Y0188928D03*
X0225814Y0188928D03*
X0225656Y0188928D03*
X0225499Y0188928D03*
X0225341Y0188928D03*
X0225184Y0188928D03*
D19*
X0266129Y0091106D03*
X0270538Y0091106D03*
D20*
X0268648Y0084807D03*
X0266286Y0084807D03*
X0258648Y0084965D03*
X0258491Y0084965D03*
X0258333Y0084965D03*
X0258176Y0084965D03*
X0258018Y0084965D03*
X0257861Y0084965D03*
X0256286Y0084965D03*
X0250223Y0084807D03*
X0247546Y0087799D03*
X0256286Y0096461D03*
X0250223Y0097248D03*
X0270066Y0097720D03*
X0270223Y0097720D03*
X0280066Y0096776D03*
X0280223Y0096776D03*
X0280381Y0096618D03*
X0278963Y0090949D03*
X0278806Y0090949D03*
X0278648Y0090949D03*
X0278491Y0090949D03*
X0278333Y0090949D03*
X0278176Y0090949D03*
X0278018Y0090949D03*
X0277861Y0090949D03*
X0276286Y0084807D03*
X0302516Y0110756D03*
X0304406Y0111110D03*
X0286888Y0164912D03*
X0259536Y0187892D03*
X0259378Y0187735D03*
X0259221Y0187735D03*
X0259063Y0191357D03*
X0248648Y0183365D03*
X0248491Y0183365D03*
X0248333Y0183365D03*
X0248176Y0183365D03*
X0248018Y0183365D03*
X0247861Y0183365D03*
X0246286Y0183365D03*
X0240381Y0190987D03*
X0236286Y0192719D03*
X0239121Y0195081D03*
X0239278Y0195081D03*
X0246286Y0194861D03*
X0230223Y0195148D03*
X0227546Y0185699D03*
X0230223Y0182707D03*
X0287861Y0189949D03*
X0288018Y0189949D03*
X0288176Y0189949D03*
X0288333Y0189949D03*
X0288491Y0189949D03*
X0288648Y0189949D03*
X0288806Y0189949D03*
X0288963Y0189949D03*
X0288806Y0194988D03*
X0288018Y0194988D03*
X0220696Y0093571D03*
X0218333Y0089949D03*
X0210066Y0091264D03*
X0208963Y0092839D03*
D21*
X0266286Y0092996D03*
D22*
X0260223Y0092366D03*
X0260223Y0089059D03*
X0260381Y0084807D03*
X0266444Y0084650D03*
X0250066Y0084650D03*
X0246759Y0084650D03*
X0229278Y0084437D03*
X0209751Y0091106D03*
X0209593Y0091106D03*
X0209436Y0091106D03*
X0246759Y0097406D03*
X0250066Y0097406D03*
X0260381Y0096618D03*
X0280381Y0088587D03*
X0280381Y0084650D03*
X0250381Y0183207D03*
X0250223Y0187459D03*
X0250223Y0190766D03*
X0250381Y0195018D03*
X0258748Y0191357D03*
X0258906Y0191357D03*
X0260638Y0188837D03*
X0260008Y0188207D03*
X0259851Y0188050D03*
X0238648Y0195239D03*
X0238491Y0195239D03*
X0236444Y0192719D03*
X0230066Y0195306D03*
X0226759Y0195306D03*
X0226759Y0182550D03*
X0230066Y0182550D03*
X0287703Y0195146D03*
X0289121Y0195146D03*
X0290381Y0187587D03*
D23*
X0289908Y0187508D03*
X0288018Y0186878D03*
X0287388Y0187193D03*
X0287073Y0187350D03*
X0286916Y0187508D03*
X0287388Y0189555D03*
X0286444Y0190972D03*
X0289278Y0185618D03*
X0249278Y0185176D03*
X0249121Y0185176D03*
X0247703Y0185018D03*
X0247546Y0185176D03*
X0246444Y0186593D03*
X0248018Y0187065D03*
X0248018Y0189113D03*
X0247861Y0189113D03*
X0246444Y0191632D03*
X0247703Y0192892D03*
X0247546Y0193050D03*
X0249121Y0193050D03*
X0249278Y0193050D03*
X0239278Y0188861D03*
X0229593Y0188770D03*
X0227231Y0189243D03*
X0227546Y0192865D03*
X0229278Y0192865D03*
X0227388Y0185148D03*
X0228018Y0184518D03*
X0209278Y0095909D03*
X0208176Y0095437D03*
X0209278Y0093862D03*
X0208491Y0092445D03*
X0206759Y0092130D03*
X0207546Y0090398D03*
X0208018Y0090398D03*
X0208176Y0090398D03*
X0206601Y0088350D03*
X0208176Y0086776D03*
X0217546Y0087508D03*
X0220696Y0087823D03*
X0220538Y0086248D03*
X0228491Y0090500D03*
X0228648Y0090500D03*
X0237231Y0088823D03*
X0239593Y0088350D03*
X0247388Y0087248D03*
X0248018Y0086618D03*
X0249593Y0090870D03*
X0247231Y0091343D03*
X0247546Y0094965D03*
X0249278Y0094965D03*
X0256444Y0093232D03*
X0257703Y0094492D03*
X0257546Y0094650D03*
X0259121Y0094650D03*
X0259278Y0094650D03*
X0258018Y0090713D03*
X0257861Y0090713D03*
X0258018Y0088665D03*
X0256444Y0088193D03*
X0257546Y0086776D03*
X0257703Y0086618D03*
X0259121Y0086776D03*
X0259278Y0086776D03*
X0266444Y0088035D03*
X0269278Y0086618D03*
X0270223Y0091657D03*
X0276444Y0091972D03*
X0277388Y0090555D03*
X0276916Y0088508D03*
X0277073Y0088350D03*
X0277388Y0088193D03*
X0278018Y0087878D03*
X0279278Y0086618D03*
X0279908Y0088508D03*
D24*
X0269751Y0097720D03*
X0266444Y0092366D03*
X0250381Y0084965D03*
X0240223Y0094728D03*
X0240066Y0094728D03*
X0239908Y0094728D03*
X0239751Y0094728D03*
X0239593Y0094728D03*
X0239436Y0094728D03*
X0239278Y0094728D03*
X0239121Y0094728D03*
X0238963Y0094728D03*
X0238806Y0094728D03*
X0238648Y0094728D03*
X0238491Y0094728D03*
X0238333Y0094728D03*
X0238176Y0094728D03*
X0238018Y0094728D03*
X0237861Y0094728D03*
X0237703Y0094728D03*
X0237546Y0094728D03*
X0237388Y0094728D03*
X0237231Y0094728D03*
X0227703Y0098295D03*
X0220381Y0093728D03*
X0217703Y0094988D03*
X0210381Y0095988D03*
X0229436Y0084752D03*
X0230381Y0182865D03*
X0239751Y0194924D03*
X0239908Y0194924D03*
X0258591Y0194979D03*
X0259378Y0191672D03*
X0258906Y0187577D03*
X0288333Y0194831D03*
X0288491Y0194831D03*
X0290066Y0182862D03*
X0289908Y0182705D03*
X0289751Y0182705D03*
X0289593Y0182547D03*
D25*
X0267546Y0097327D03*
X0267073Y0097169D03*
X0266759Y0097012D03*
X0266444Y0096854D03*
X0229593Y0097114D03*
X0218806Y0094437D03*
X0218648Y0094437D03*
X0218491Y0094437D03*
X0218333Y0094437D03*
X0218176Y0094437D03*
D26*
X0210066Y0096146D03*
X0207861Y0094886D03*
X0208806Y0092681D03*
X0228333Y0092941D03*
X0228491Y0092941D03*
X0229593Y0092941D03*
X0229751Y0092941D03*
X0229908Y0092941D03*
X0230066Y0092941D03*
X0230223Y0092941D03*
X0230381Y0092941D03*
X0230538Y0092941D03*
X0230066Y0097823D03*
X0240381Y0091264D03*
X0246916Y0084492D03*
X0247073Y0084492D03*
X0249751Y0084492D03*
X0256601Y0084650D03*
X0257703Y0084650D03*
X0260223Y0084650D03*
X0260066Y0089059D03*
X0260066Y0092366D03*
X0258491Y0093154D03*
X0258333Y0093154D03*
X0258333Y0096776D03*
X0256601Y0096776D03*
X0260223Y0096776D03*
X0266759Y0092524D03*
X0270223Y0094256D03*
X0267703Y0087484D03*
X0268333Y0084492D03*
X0266601Y0084492D03*
X0276601Y0084492D03*
X0278333Y0084492D03*
X0277703Y0087484D03*
X0249751Y0097563D03*
X0247073Y0097563D03*
X0229121Y0084280D03*
X0229751Y0182392D03*
X0227073Y0182392D03*
X0226916Y0182392D03*
X0237546Y0189884D03*
X0237703Y0189884D03*
X0240066Y0191144D03*
X0236759Y0192719D03*
X0236601Y0192719D03*
X0236286Y0195396D03*
X0237861Y0195396D03*
X0238018Y0195396D03*
X0229751Y0195463D03*
X0227073Y0195463D03*
X0240381Y0187050D03*
X0246601Y0183050D03*
X0247703Y0183050D03*
X0250223Y0183050D03*
X0250066Y0187459D03*
X0250066Y0190766D03*
X0248491Y0191554D03*
X0248333Y0191554D03*
X0248333Y0195176D03*
X0246601Y0195176D03*
X0250223Y0195176D03*
X0257488Y0195451D03*
X0258906Y0195451D03*
X0258591Y0191357D03*
X0286286Y0195303D03*
X0287388Y0195303D03*
X0289436Y0195303D03*
X0287703Y0186484D03*
D27*
X0288176Y0187035D03*
X0289593Y0187508D03*
X0289751Y0187508D03*
X0289436Y0189555D03*
X0287546Y0190972D03*
X0286916Y0192862D03*
X0289751Y0192862D03*
X0260638Y0192380D03*
X0259851Y0192223D03*
X0260008Y0190963D03*
X0258276Y0190963D03*
X0260008Y0193640D03*
X0249436Y0193050D03*
X0247388Y0193050D03*
X0246601Y0191632D03*
X0247388Y0191317D03*
X0247546Y0191317D03*
X0248176Y0189113D03*
X0248333Y0189113D03*
X0247703Y0187065D03*
X0246601Y0186593D03*
X0247388Y0185176D03*
X0249436Y0185176D03*
X0239436Y0188861D03*
X0237231Y0190435D03*
X0230381Y0190975D03*
X0229278Y0188613D03*
X0229121Y0188613D03*
X0227703Y0189400D03*
X0227388Y0186723D03*
X0226601Y0186723D03*
X0229436Y0185148D03*
X0208963Y0095752D03*
X0208648Y0095594D03*
X0208491Y0095594D03*
X0209436Y0093862D03*
X0208333Y0092287D03*
X0206916Y0092130D03*
X0207388Y0093862D03*
X0206916Y0088508D03*
X0208806Y0088508D03*
X0217703Y0087508D03*
X0219121Y0087823D03*
X0219908Y0088925D03*
X0218176Y0088925D03*
X0218176Y0086091D03*
X0218963Y0086091D03*
X0219908Y0086091D03*
X0220066Y0086091D03*
X0228176Y0086091D03*
X0229908Y0086091D03*
X0229278Y0090657D03*
X0229121Y0090657D03*
X0229121Y0093650D03*
X0229278Y0093650D03*
X0228963Y0093650D03*
X0228806Y0093650D03*
X0237546Y0088980D03*
X0237703Y0088980D03*
X0239121Y0088193D03*
X0246601Y0088823D03*
X0247388Y0088823D03*
X0249121Y0090713D03*
X0249278Y0090713D03*
X0247703Y0091500D03*
X0250381Y0093075D03*
X0256601Y0093232D03*
X0257388Y0092917D03*
X0257546Y0092917D03*
X0257388Y0094650D03*
X0259436Y0094650D03*
X0258333Y0090713D03*
X0258176Y0090713D03*
X0257703Y0088665D03*
X0256601Y0088193D03*
X0257388Y0086776D03*
X0259436Y0086776D03*
X0266601Y0088193D03*
X0267231Y0088193D03*
X0268176Y0088193D03*
X0270066Y0088193D03*
X0268333Y0092602D03*
X0268176Y0092602D03*
X0277546Y0091972D03*
X0279436Y0090555D03*
X0279593Y0088508D03*
X0279751Y0088508D03*
X0278176Y0088035D03*
X0249436Y0087248D03*
D28*
X0246601Y0084728D03*
X0228333Y0087035D03*
X0218491Y0090028D03*
X0210223Y0087563D03*
X0210066Y0087563D03*
X0209908Y0087563D03*
X0209751Y0087563D03*
X0209593Y0087563D03*
X0209436Y0087563D03*
X0209908Y0091185D03*
X0207703Y0094807D03*
X0206444Y0096067D03*
X0210223Y0096067D03*
X0246601Y0097327D03*
X0266601Y0092445D03*
X0277703Y0091028D03*
X0279121Y0091028D03*
X0278648Y0084728D03*
X0270381Y0084728D03*
X0226601Y0182628D03*
X0226601Y0195227D03*
X0238806Y0195160D03*
X0238963Y0195160D03*
X0258748Y0195215D03*
X0260796Y0189073D03*
X0259693Y0187971D03*
X0287703Y0190028D03*
X0289121Y0190028D03*
X0288963Y0195067D03*
X0287861Y0195067D03*
D29*
X0267861Y0097406D03*
X0267703Y0097406D03*
X0267388Y0097248D03*
X0267231Y0097248D03*
X0266916Y0097091D03*
X0266601Y0096933D03*
X0229751Y0097035D03*
X0218963Y0094358D03*
X0218018Y0094516D03*
D30*
X0216444Y0094437D03*
X0220696Y0090500D03*
X0219593Y0088295D03*
X0219436Y0088138D03*
X0227388Y0087823D03*
X0228648Y0087193D03*
X0230696Y0089083D03*
X0228176Y0093020D03*
X0230223Y0097744D03*
X0247231Y0097642D03*
X0249436Y0097642D03*
X0249593Y0097642D03*
X0256759Y0096854D03*
X0258176Y0096854D03*
X0260066Y0096854D03*
X0258176Y0093232D03*
X0258018Y0093232D03*
X0259908Y0092287D03*
X0259908Y0089138D03*
X0256916Y0090713D03*
X0256759Y0090713D03*
X0256759Y0084571D03*
X0260066Y0084571D03*
X0266759Y0084413D03*
X0266916Y0084413D03*
X0268018Y0084413D03*
X0268176Y0084413D03*
X0269121Y0084413D03*
X0269908Y0084413D03*
X0270066Y0084413D03*
X0276759Y0084413D03*
X0276916Y0084413D03*
X0278176Y0084413D03*
X0279121Y0084413D03*
X0280066Y0084413D03*
X0270066Y0094177D03*
X0266916Y0092602D03*
X0249593Y0084413D03*
X0249436Y0084413D03*
X0247231Y0084413D03*
X0230538Y0084201D03*
X0228963Y0084201D03*
X0227546Y0084201D03*
X0210381Y0084413D03*
X0209908Y0096067D03*
X0206759Y0096067D03*
X0227231Y0182313D03*
X0229436Y0182313D03*
X0229593Y0182313D03*
X0236444Y0186971D03*
X0236601Y0186971D03*
X0238806Y0186971D03*
X0239278Y0186971D03*
X0240223Y0186971D03*
X0237388Y0189806D03*
X0239908Y0191065D03*
X0237703Y0195475D03*
X0237546Y0195475D03*
X0229593Y0195542D03*
X0229436Y0195542D03*
X0227231Y0195542D03*
X0246759Y0195254D03*
X0248176Y0195254D03*
X0250066Y0195254D03*
X0248176Y0191632D03*
X0248018Y0191632D03*
X0249908Y0190687D03*
X0249908Y0187538D03*
X0246916Y0189113D03*
X0246759Y0189113D03*
X0256701Y0188128D03*
X0250066Y0182971D03*
X0246759Y0182971D03*
X0257646Y0195530D03*
X0258276Y0195530D03*
X0260638Y0195530D03*
X0286444Y0195382D03*
X0287231Y0195382D03*
X0289593Y0195382D03*
X0290381Y0195382D03*
D31*
X0289593Y0192783D03*
X0289278Y0191051D03*
X0287388Y0191051D03*
X0286601Y0191051D03*
X0287073Y0192783D03*
X0289278Y0187429D03*
X0289436Y0187429D03*
X0287231Y0185697D03*
X0258433Y0192144D03*
X0258276Y0193719D03*
X0247231Y0191396D03*
X0247073Y0191396D03*
X0246759Y0191554D03*
X0247388Y0186987D03*
X0247546Y0186987D03*
X0247073Y0186829D03*
X0246759Y0186672D03*
X0238806Y0188939D03*
X0236444Y0190514D03*
X0238333Y0192719D03*
X0238491Y0192719D03*
X0230223Y0191054D03*
X0229436Y0192628D03*
X0226444Y0191054D03*
X0227861Y0189479D03*
X0228963Y0188534D03*
X0228018Y0186802D03*
X0227231Y0186802D03*
X0227073Y0186802D03*
X0226916Y0186802D03*
X0226759Y0186802D03*
X0230066Y0186802D03*
X0208806Y0095673D03*
X0207231Y0093783D03*
X0207073Y0092209D03*
X0208176Y0092366D03*
X0208491Y0088587D03*
X0208648Y0088587D03*
X0207231Y0088587D03*
X0207073Y0088587D03*
X0217388Y0089949D03*
X0217861Y0087587D03*
X0218963Y0087744D03*
X0219751Y0087587D03*
X0229121Y0087587D03*
X0229278Y0087587D03*
X0229436Y0090736D03*
X0229593Y0090736D03*
X0230696Y0090894D03*
X0236444Y0086539D03*
X0236601Y0086539D03*
X0237861Y0089059D03*
X0238963Y0088114D03*
X0240223Y0086539D03*
X0240381Y0086539D03*
X0237073Y0090634D03*
X0246444Y0093154D03*
X0247861Y0091579D03*
X0248963Y0090634D03*
X0248018Y0088902D03*
X0247231Y0088902D03*
X0247073Y0088902D03*
X0246916Y0088902D03*
X0246759Y0088902D03*
X0250066Y0088902D03*
X0250223Y0093154D03*
X0249436Y0094728D03*
X0256759Y0093154D03*
X0257073Y0092996D03*
X0257231Y0092996D03*
X0257388Y0088587D03*
X0257546Y0088587D03*
X0257073Y0088429D03*
X0256759Y0088272D03*
X0266759Y0088272D03*
X0266916Y0088272D03*
X0267073Y0088272D03*
X0268333Y0088272D03*
X0269908Y0088272D03*
X0269436Y0090004D03*
X0269751Y0091894D03*
X0269908Y0091894D03*
X0269593Y0092051D03*
X0268963Y0092366D03*
X0268648Y0092524D03*
X0268491Y0092524D03*
X0268648Y0094256D03*
X0267231Y0086697D03*
X0277231Y0086697D03*
X0279278Y0088429D03*
X0279436Y0088429D03*
X0279278Y0092051D03*
X0277388Y0092051D03*
X0276601Y0092051D03*
D32*
X0277861Y0087642D03*
X0280223Y0088587D03*
X0279908Y0084335D03*
X0279751Y0084335D03*
X0279436Y0084335D03*
X0279278Y0084335D03*
X0278018Y0084335D03*
X0277861Y0084335D03*
X0277703Y0084335D03*
X0277546Y0084335D03*
X0277388Y0084335D03*
X0277231Y0084335D03*
X0277073Y0084335D03*
X0269751Y0084335D03*
X0269593Y0084335D03*
X0269436Y0084335D03*
X0269278Y0084335D03*
X0267861Y0084335D03*
X0267703Y0084335D03*
X0267546Y0084335D03*
X0267388Y0084335D03*
X0267231Y0084335D03*
X0267073Y0084335D03*
X0267861Y0087642D03*
X0269908Y0094256D03*
X0259908Y0096933D03*
X0258648Y0096933D03*
X0258491Y0096933D03*
X0258018Y0096933D03*
X0257861Y0096933D03*
X0257073Y0096933D03*
X0256916Y0096933D03*
X0257861Y0093311D03*
X0257073Y0090791D03*
X0250381Y0091106D03*
X0246444Y0091106D03*
X0240223Y0091264D03*
X0240066Y0091264D03*
X0239908Y0091264D03*
X0239751Y0091264D03*
X0239593Y0091264D03*
X0239436Y0091264D03*
X0239278Y0091264D03*
X0239121Y0091264D03*
X0238963Y0091264D03*
X0238806Y0091264D03*
X0238648Y0091264D03*
X0238491Y0091264D03*
X0238333Y0091264D03*
X0238176Y0091264D03*
X0238018Y0091264D03*
X0237861Y0091264D03*
X0237703Y0091264D03*
X0237546Y0091264D03*
X0237388Y0091264D03*
X0237231Y0091264D03*
X0236444Y0088587D03*
X0240381Y0088587D03*
X0240381Y0084492D03*
X0240223Y0084492D03*
X0236444Y0084492D03*
X0230381Y0084122D03*
X0229751Y0084122D03*
X0228806Y0084122D03*
X0227861Y0084122D03*
X0227703Y0084122D03*
X0220696Y0083965D03*
X0220538Y0083965D03*
X0220381Y0083965D03*
X0220223Y0083965D03*
X0220066Y0083965D03*
X0219908Y0083965D03*
X0219751Y0083965D03*
X0219593Y0083965D03*
X0219436Y0083965D03*
X0219278Y0083965D03*
X0219121Y0083965D03*
X0218963Y0083965D03*
X0218806Y0083965D03*
X0218648Y0083965D03*
X0218491Y0083965D03*
X0218333Y0083965D03*
X0218176Y0083965D03*
X0218018Y0083965D03*
X0217861Y0083965D03*
X0217703Y0083965D03*
X0217546Y0083965D03*
X0217388Y0083965D03*
X0210223Y0084335D03*
X0210066Y0084335D03*
X0209908Y0084335D03*
X0209751Y0084335D03*
X0209593Y0084335D03*
X0209436Y0084335D03*
X0209278Y0084335D03*
X0209121Y0084335D03*
X0208963Y0084335D03*
X0208806Y0084335D03*
X0208648Y0084335D03*
X0208491Y0084335D03*
X0208333Y0084335D03*
X0208176Y0084335D03*
X0208018Y0084335D03*
X0207861Y0084335D03*
X0207703Y0084335D03*
X0207546Y0084335D03*
X0207388Y0084335D03*
X0207231Y0084335D03*
X0207073Y0084335D03*
X0206916Y0084335D03*
X0206759Y0084335D03*
X0206601Y0084335D03*
X0206444Y0084335D03*
X0206444Y0092051D03*
X0206916Y0095988D03*
X0216286Y0094358D03*
X0226444Y0097823D03*
X0230381Y0097665D03*
X0227388Y0090264D03*
X0247388Y0084335D03*
X0247546Y0084335D03*
X0247703Y0084335D03*
X0248963Y0084335D03*
X0249121Y0084335D03*
X0249278Y0084335D03*
X0256916Y0084492D03*
X0257073Y0084492D03*
X0257231Y0084492D03*
X0257388Y0084492D03*
X0257546Y0084492D03*
X0258963Y0084492D03*
X0259908Y0084492D03*
X0249278Y0097720D03*
X0249121Y0097720D03*
X0247546Y0097720D03*
X0247388Y0097720D03*
X0294878Y0106205D03*
X0278906Y0178951D03*
X0287861Y0186642D03*
X0290223Y0187587D03*
X0290223Y0195461D03*
X0290066Y0195461D03*
X0289908Y0195461D03*
X0289751Y0195461D03*
X0287073Y0195461D03*
X0286916Y0195461D03*
X0286759Y0195461D03*
X0286601Y0195461D03*
X0269751Y0186738D03*
X0269278Y0186738D03*
X0260481Y0195609D03*
X0259063Y0195609D03*
X0258118Y0195609D03*
X0257961Y0195609D03*
X0257803Y0195609D03*
X0249908Y0195333D03*
X0248648Y0195333D03*
X0248491Y0195333D03*
X0248018Y0195333D03*
X0247861Y0195333D03*
X0247073Y0195333D03*
X0246916Y0195333D03*
X0247861Y0191711D03*
X0247073Y0189191D03*
X0239751Y0191144D03*
X0237073Y0192719D03*
X0236916Y0192719D03*
X0237231Y0195554D03*
X0237388Y0195554D03*
X0236444Y0195554D03*
X0229278Y0195620D03*
X0229121Y0195620D03*
X0227546Y0195620D03*
X0227388Y0195620D03*
X0226444Y0189006D03*
X0230381Y0189006D03*
X0236759Y0186892D03*
X0236916Y0186892D03*
X0237073Y0186892D03*
X0237231Y0186892D03*
X0237388Y0186892D03*
X0237546Y0186892D03*
X0237703Y0186892D03*
X0239436Y0186892D03*
X0246916Y0182892D03*
X0247073Y0182892D03*
X0247231Y0182892D03*
X0247388Y0182892D03*
X0247546Y0182892D03*
X0248963Y0182892D03*
X0249908Y0182892D03*
X0256544Y0188207D03*
X0229278Y0182235D03*
X0229121Y0182235D03*
X0228963Y0182235D03*
X0227703Y0182235D03*
X0227546Y0182235D03*
X0227388Y0182235D03*
D33*
X0227861Y0182156D03*
X0228018Y0182156D03*
X0228176Y0182156D03*
X0228333Y0182156D03*
X0228491Y0182156D03*
X0228648Y0182156D03*
X0228806Y0182156D03*
X0237861Y0186813D03*
X0238018Y0186813D03*
X0238176Y0186813D03*
X0238333Y0186813D03*
X0238491Y0186813D03*
X0238648Y0186813D03*
X0239593Y0186813D03*
X0239908Y0186813D03*
X0240066Y0186813D03*
X0239593Y0191065D03*
X0237231Y0192798D03*
X0237073Y0195632D03*
X0236916Y0195632D03*
X0236601Y0195632D03*
X0228963Y0195699D03*
X0228806Y0195699D03*
X0228648Y0195699D03*
X0228491Y0195699D03*
X0228333Y0195699D03*
X0228176Y0195699D03*
X0228018Y0195699D03*
X0227861Y0195699D03*
X0227703Y0195699D03*
X0230223Y0188928D03*
X0247231Y0189113D03*
X0249593Y0190687D03*
X0249751Y0190687D03*
X0249751Y0187538D03*
X0249593Y0187538D03*
X0256386Y0188286D03*
X0249751Y0182813D03*
X0249593Y0182813D03*
X0249436Y0182813D03*
X0249278Y0182813D03*
X0249121Y0182813D03*
X0249121Y0195412D03*
X0249278Y0195412D03*
X0249436Y0195412D03*
X0249593Y0195412D03*
X0249751Y0195412D03*
X0248963Y0195412D03*
X0248806Y0195412D03*
X0247703Y0195412D03*
X0247546Y0195412D03*
X0247388Y0195412D03*
X0247231Y0195412D03*
X0255914Y0195687D03*
X0256701Y0195687D03*
X0259221Y0195687D03*
X0259378Y0195687D03*
X0260166Y0195687D03*
X0260323Y0195687D03*
X0286601Y0187665D03*
X0248963Y0097799D03*
X0248806Y0097799D03*
X0248648Y0097799D03*
X0248491Y0097799D03*
X0248333Y0097799D03*
X0248176Y0097799D03*
X0248018Y0097799D03*
X0247861Y0097799D03*
X0247703Y0097799D03*
X0257231Y0097012D03*
X0257388Y0097012D03*
X0257546Y0097012D03*
X0257703Y0097012D03*
X0258806Y0097012D03*
X0258963Y0097012D03*
X0259121Y0097012D03*
X0259278Y0097012D03*
X0259436Y0097012D03*
X0259593Y0097012D03*
X0259751Y0097012D03*
X0259751Y0092287D03*
X0259593Y0092287D03*
X0257231Y0090713D03*
X0259593Y0089138D03*
X0259751Y0089138D03*
X0259751Y0084413D03*
X0259593Y0084413D03*
X0259436Y0084413D03*
X0259278Y0084413D03*
X0259121Y0084413D03*
X0268176Y0090398D03*
X0268333Y0090398D03*
X0268491Y0090398D03*
X0270381Y0091500D03*
X0269751Y0094177D03*
X0267073Y0092602D03*
X0276601Y0088665D03*
X0279593Y0084256D03*
X0250223Y0091028D03*
X0248806Y0084256D03*
X0248648Y0084256D03*
X0248491Y0084256D03*
X0248333Y0084256D03*
X0248176Y0084256D03*
X0248018Y0084256D03*
X0247861Y0084256D03*
X0240066Y0084413D03*
X0239908Y0084413D03*
X0239751Y0084413D03*
X0239593Y0084413D03*
X0239436Y0084413D03*
X0239278Y0084413D03*
X0239121Y0084413D03*
X0238963Y0084413D03*
X0238806Y0084413D03*
X0238648Y0084413D03*
X0238491Y0084413D03*
X0238333Y0084413D03*
X0238176Y0084413D03*
X0238018Y0084413D03*
X0237861Y0084413D03*
X0237703Y0084413D03*
X0237546Y0084413D03*
X0237388Y0084413D03*
X0237231Y0084413D03*
X0237073Y0084413D03*
X0236916Y0084413D03*
X0236759Y0084413D03*
X0236601Y0084413D03*
X0230223Y0084043D03*
X0230066Y0084043D03*
X0229908Y0084043D03*
X0228648Y0084043D03*
X0228491Y0084043D03*
X0228333Y0084043D03*
X0228176Y0084043D03*
X0228018Y0084043D03*
X0226601Y0084043D03*
X0225814Y0084043D03*
X0227546Y0087823D03*
X0230381Y0089083D03*
X0230538Y0089083D03*
X0236444Y0095437D03*
X0237073Y0095437D03*
X0230538Y0097587D03*
X0226286Y0097744D03*
X0216129Y0094280D03*
X0218806Y0090500D03*
X0217388Y0087508D03*
X0216601Y0083886D03*
X0215814Y0083886D03*
X0209278Y0088035D03*
X0209278Y0091657D03*
X0207388Y0095594D03*
X0207231Y0095752D03*
X0207073Y0095909D03*
X0209751Y0096067D03*
D34*
X0209593Y0095988D03*
X0208018Y0095201D03*
X0208648Y0092524D03*
X0215814Y0094043D03*
X0215971Y0094201D03*
X0218176Y0090579D03*
X0220538Y0090579D03*
X0227546Y0090264D03*
X0227703Y0090264D03*
X0227703Y0087902D03*
X0226444Y0083965D03*
X0226286Y0083965D03*
X0226129Y0083965D03*
X0225971Y0083965D03*
X0216444Y0083807D03*
X0216286Y0083807D03*
X0216129Y0083807D03*
X0215971Y0083807D03*
X0225814Y0097350D03*
X0226129Y0097665D03*
X0230696Y0097508D03*
X0236601Y0095516D03*
X0236759Y0095516D03*
X0236916Y0095516D03*
X0246601Y0091106D03*
X0248806Y0087012D03*
X0248963Y0087012D03*
X0240223Y0088587D03*
X0236601Y0088587D03*
X0248018Y0095201D03*
X0248176Y0095201D03*
X0248333Y0095201D03*
X0248491Y0095201D03*
X0248648Y0095201D03*
X0257388Y0090791D03*
X0258963Y0092524D03*
X0259278Y0092366D03*
X0259436Y0092366D03*
X0259436Y0089059D03*
X0259278Y0089059D03*
X0258333Y0088587D03*
X0267861Y0090319D03*
X0268018Y0090319D03*
X0268648Y0090319D03*
X0268806Y0090319D03*
X0268963Y0090319D03*
X0267388Y0092681D03*
X0267231Y0092681D03*
X0269593Y0094256D03*
X0277546Y0090634D03*
X0280066Y0088587D03*
X0228963Y0184912D03*
X0228806Y0184912D03*
X0226601Y0189006D03*
X0228018Y0193101D03*
X0228176Y0193101D03*
X0228333Y0193101D03*
X0228491Y0193101D03*
X0228648Y0193101D03*
X0236759Y0195711D03*
X0237388Y0192719D03*
X0237861Y0190357D03*
X0239436Y0191144D03*
X0239751Y0186735D03*
X0247388Y0189191D03*
X0248963Y0190924D03*
X0249278Y0190766D03*
X0249436Y0190766D03*
X0249436Y0187459D03*
X0249278Y0187459D03*
X0248333Y0186987D03*
X0256229Y0188365D03*
X0257488Y0192302D03*
X0260796Y0192302D03*
X0260008Y0195766D03*
X0259851Y0195766D03*
X0259693Y0195766D03*
X0259536Y0195766D03*
X0256544Y0195766D03*
X0256386Y0195766D03*
X0256229Y0195766D03*
X0256071Y0195766D03*
X0287546Y0189634D03*
X0290066Y0187587D03*
D35*
X0289436Y0185697D03*
X0287388Y0185697D03*
X0287231Y0187272D03*
X0290223Y0191051D03*
X0290066Y0192941D03*
X0289908Y0192941D03*
X0286759Y0192941D03*
X0268333Y0184612D03*
X0266916Y0179179D03*
X0267861Y0178116D03*
X0259851Y0193561D03*
X0257646Y0192302D03*
X0247861Y0186987D03*
X0238176Y0192719D03*
X0238018Y0192719D03*
X0229436Y0188691D03*
X0227546Y0189321D03*
X0227388Y0189321D03*
X0227388Y0192786D03*
X0230223Y0186802D03*
X0228648Y0184439D03*
X0228491Y0184439D03*
X0228333Y0184439D03*
X0228176Y0184439D03*
X0287833Y0161841D03*
X0287833Y0159243D03*
X0303461Y0108866D03*
X0305351Y0108866D03*
X0304406Y0103315D03*
X0303461Y0102016D03*
X0302516Y0102961D03*
X0293461Y0103016D03*
X0293461Y0105732D03*
X0280223Y0092051D03*
X0277231Y0088272D03*
X0277388Y0086697D03*
X0279436Y0086697D03*
X0270223Y0088114D03*
X0269436Y0086697D03*
X0267388Y0086697D03*
X0267388Y0088114D03*
X0267388Y0090004D03*
X0267861Y0092681D03*
X0268018Y0092681D03*
X0270066Y0091736D03*
X0257861Y0088587D03*
X0250223Y0088902D03*
X0249436Y0090791D03*
X0247546Y0091421D03*
X0247388Y0091421D03*
X0248176Y0086539D03*
X0248333Y0086539D03*
X0248491Y0086539D03*
X0248648Y0086539D03*
X0239436Y0088272D03*
X0239278Y0088272D03*
X0237388Y0088902D03*
X0230696Y0087114D03*
X0229751Y0086012D03*
X0228963Y0087587D03*
X0228963Y0090579D03*
X0228806Y0090579D03*
X0228648Y0093571D03*
X0229436Y0093571D03*
X0219751Y0088846D03*
X0220223Y0086169D03*
X0220381Y0086169D03*
X0218806Y0086169D03*
X0218648Y0086169D03*
X0218491Y0086169D03*
X0218333Y0086169D03*
X0208963Y0088429D03*
X0206759Y0088429D03*
X0207388Y0086697D03*
X0207388Y0090319D03*
X0208333Y0095516D03*
X0209121Y0095831D03*
X0247388Y0094886D03*
D36*
X0246916Y0097484D03*
X0249908Y0097484D03*
X0256444Y0096697D03*
X0258648Y0093075D03*
X0256601Y0090713D03*
X0256444Y0090713D03*
X0256444Y0084728D03*
X0249908Y0084571D03*
X0267546Y0087406D03*
X0268491Y0084571D03*
X0270223Y0084571D03*
X0276444Y0084571D03*
X0278491Y0084571D03*
X0280223Y0084571D03*
X0277546Y0087406D03*
X0276444Y0088665D03*
X0270381Y0094177D03*
X0230696Y0093020D03*
X0226601Y0097744D03*
X0216601Y0094437D03*
X0218648Y0090185D03*
X0227388Y0084358D03*
X0228491Y0087035D03*
X0230696Y0084358D03*
X0206601Y0096067D03*
X0267861Y0175754D03*
X0268806Y0175754D03*
X0260166Y0188286D03*
X0260323Y0188443D03*
X0260481Y0188601D03*
X0260796Y0195372D03*
X0248648Y0191475D03*
X0246601Y0189113D03*
X0246444Y0189113D03*
X0246444Y0195097D03*
X0240223Y0191065D03*
X0238333Y0195317D03*
X0238176Y0195317D03*
X0229908Y0195384D03*
X0226916Y0195384D03*
X0229908Y0182471D03*
X0246444Y0183128D03*
X0286444Y0187665D03*
X0287546Y0186406D03*
X0287546Y0195224D03*
X0289278Y0195224D03*
D37*
X0290223Y0192941D03*
X0290381Y0190894D03*
X0286601Y0192941D03*
X0286759Y0187587D03*
X0289121Y0185539D03*
X0258433Y0191042D03*
X0255914Y0188522D03*
X0248806Y0187302D03*
X0248491Y0187144D03*
X0248176Y0186987D03*
X0248963Y0185097D03*
X0247703Y0189191D03*
X0247703Y0191396D03*
X0248963Y0192971D03*
X0238963Y0190987D03*
X0238806Y0190987D03*
X0238648Y0190829D03*
X0238491Y0190829D03*
X0238333Y0190672D03*
X0238176Y0190672D03*
X0237861Y0192719D03*
X0237703Y0192719D03*
X0229121Y0192943D03*
X0227703Y0192943D03*
X0227073Y0189164D03*
X0226444Y0186644D03*
X0229278Y0185069D03*
X0230381Y0186644D03*
X0229908Y0188849D03*
X0229751Y0188849D03*
X0209436Y0095988D03*
X0207861Y0090476D03*
X0207703Y0090476D03*
X0209121Y0088272D03*
X0208018Y0086854D03*
X0207861Y0086854D03*
X0207703Y0086854D03*
X0207546Y0086854D03*
X0219121Y0090736D03*
X0219278Y0090736D03*
X0219436Y0090736D03*
X0219593Y0090736D03*
X0219751Y0090736D03*
X0219908Y0090736D03*
X0220066Y0090736D03*
X0220223Y0090736D03*
X0219278Y0087902D03*
X0220696Y0086169D03*
X0228806Y0087429D03*
X0228333Y0090421D03*
X0228176Y0090421D03*
X0236916Y0088744D03*
X0237073Y0088744D03*
X0239751Y0088429D03*
X0246444Y0088744D03*
X0247073Y0091264D03*
X0249751Y0090949D03*
X0249908Y0090949D03*
X0250381Y0088744D03*
X0249278Y0087169D03*
X0257703Y0090791D03*
X0258806Y0088902D03*
X0258491Y0088744D03*
X0258176Y0088587D03*
X0258963Y0086697D03*
X0257703Y0092996D03*
X0258963Y0094571D03*
X0267546Y0092681D03*
X0267703Y0092681D03*
X0267546Y0090161D03*
X0269278Y0090161D03*
X0268018Y0087957D03*
X0269121Y0086539D03*
X0276759Y0088587D03*
X0279121Y0086539D03*
X0280381Y0091894D03*
X0249121Y0095043D03*
X0247703Y0095043D03*
D38*
X0247861Y0095122D03*
X0248806Y0095122D03*
X0248963Y0095122D03*
X0250066Y0091028D03*
X0246916Y0091185D03*
X0246759Y0091185D03*
X0249121Y0087091D03*
X0240066Y0088508D03*
X0239908Y0088508D03*
X0236759Y0088665D03*
X0230223Y0089083D03*
X0230066Y0089083D03*
X0228176Y0087665D03*
X0228018Y0087823D03*
X0227861Y0087823D03*
X0227861Y0090343D03*
X0228018Y0090343D03*
X0220381Y0090657D03*
X0218963Y0090657D03*
X0218018Y0090657D03*
X0209121Y0091972D03*
X0209121Y0093705D03*
X0206601Y0092130D03*
X0206444Y0088193D03*
X0225971Y0097587D03*
X0257546Y0090713D03*
X0258648Y0088823D03*
X0258963Y0088980D03*
X0259121Y0088980D03*
X0259121Y0092445D03*
X0267703Y0090240D03*
X0269121Y0090240D03*
X0270381Y0088035D03*
X0279278Y0090555D03*
X0292516Y0106913D03*
X0287361Y0161250D03*
X0279378Y0178715D03*
X0277488Y0182849D03*
X0269278Y0184376D03*
X0267388Y0183076D03*
X0268806Y0190163D03*
X0269751Y0191698D03*
X0278906Y0193479D03*
X0279851Y0192061D03*
X0286444Y0193020D03*
X0290381Y0193020D03*
X0289278Y0189555D03*
X0259851Y0190963D03*
X0256071Y0188443D03*
X0249121Y0187380D03*
X0248963Y0187380D03*
X0248648Y0187223D03*
X0247546Y0189113D03*
X0249121Y0190845D03*
X0239278Y0191065D03*
X0239121Y0191065D03*
X0238018Y0190435D03*
X0237546Y0192798D03*
X0230066Y0188928D03*
X0226916Y0189085D03*
X0226759Y0189085D03*
X0227861Y0193022D03*
X0228806Y0193022D03*
X0228963Y0193022D03*
X0229121Y0184991D03*
D39*
X0288648Y0182941D03*
X0268176Y0097484D03*
X0268018Y0097484D03*
X0219278Y0094280D03*
X0219121Y0094280D03*
D40*
X0217861Y0090106D03*
X0217546Y0089949D03*
X0218018Y0087587D03*
X0218176Y0087587D03*
X0218333Y0087587D03*
X0218491Y0087587D03*
X0218648Y0087587D03*
X0219908Y0087587D03*
X0220066Y0087587D03*
X0220223Y0087587D03*
X0220381Y0087744D03*
X0229751Y0087429D03*
X0229908Y0087429D03*
X0230381Y0087272D03*
X0230381Y0090894D03*
X0230538Y0090894D03*
X0230223Y0090894D03*
X0230066Y0090894D03*
X0228018Y0093886D03*
X0227861Y0093886D03*
X0227703Y0093886D03*
X0227546Y0093886D03*
X0238176Y0089217D03*
X0238333Y0089217D03*
X0238491Y0087957D03*
X0248491Y0090476D03*
X0248648Y0090476D03*
X0248333Y0091736D03*
X0257231Y0094728D03*
X0257231Y0086854D03*
X0269121Y0088429D03*
X0268333Y0094256D03*
X0268176Y0094256D03*
X0276916Y0092209D03*
X0277073Y0092209D03*
X0279751Y0092209D03*
X0279908Y0092209D03*
X0278648Y0088272D03*
X0207703Y0092209D03*
X0207546Y0092209D03*
X0247231Y0185254D03*
X0247231Y0193128D03*
X0238806Y0192719D03*
X0238648Y0192719D03*
X0228333Y0189636D03*
X0228491Y0188376D03*
X0228648Y0188376D03*
X0258118Y0192302D03*
X0260166Y0192302D03*
X0260323Y0192302D03*
X0286916Y0191209D03*
X0287073Y0191209D03*
X0287546Y0192626D03*
X0289278Y0192626D03*
X0289751Y0191209D03*
X0289908Y0191209D03*
X0288648Y0187272D03*
D41*
X0257488Y0188365D03*
X0268333Y0097563D03*
X0268491Y0097563D03*
X0229908Y0097035D03*
X0219436Y0094201D03*
D42*
X0227388Y0093965D03*
X0229751Y0090815D03*
X0229908Y0090815D03*
X0229278Y0089083D03*
X0229121Y0089083D03*
X0229436Y0087508D03*
X0229593Y0087508D03*
X0230538Y0087193D03*
X0236444Y0090555D03*
X0236601Y0090555D03*
X0236759Y0090555D03*
X0236916Y0090555D03*
X0238018Y0089138D03*
X0238648Y0088035D03*
X0238806Y0088035D03*
X0238806Y0086618D03*
X0238963Y0086618D03*
X0239121Y0086618D03*
X0239278Y0086618D03*
X0239436Y0086618D03*
X0239593Y0086618D03*
X0239751Y0086618D03*
X0239908Y0086618D03*
X0240066Y0086618D03*
X0238648Y0086618D03*
X0238491Y0086618D03*
X0238333Y0086618D03*
X0238176Y0086618D03*
X0238018Y0086618D03*
X0237861Y0086618D03*
X0237703Y0086618D03*
X0237546Y0086618D03*
X0237388Y0086618D03*
X0237231Y0086618D03*
X0237073Y0086618D03*
X0236916Y0086618D03*
X0236759Y0086618D03*
X0248176Y0088980D03*
X0248333Y0088980D03*
X0248491Y0088980D03*
X0248648Y0088980D03*
X0248806Y0088980D03*
X0248963Y0088980D03*
X0249121Y0088980D03*
X0249278Y0088980D03*
X0249436Y0088980D03*
X0249593Y0088980D03*
X0249751Y0088980D03*
X0249908Y0088980D03*
X0248806Y0090555D03*
X0248176Y0091657D03*
X0248018Y0091657D03*
X0248018Y0093075D03*
X0247861Y0093075D03*
X0247703Y0093075D03*
X0247546Y0093075D03*
X0247388Y0093075D03*
X0247231Y0093075D03*
X0247073Y0093075D03*
X0246916Y0093075D03*
X0246759Y0093075D03*
X0246601Y0093075D03*
X0248176Y0093075D03*
X0248333Y0093075D03*
X0248491Y0093075D03*
X0248648Y0093075D03*
X0248806Y0093075D03*
X0248963Y0093075D03*
X0249121Y0093075D03*
X0249278Y0093075D03*
X0249436Y0093075D03*
X0249593Y0093075D03*
X0249751Y0093075D03*
X0249908Y0093075D03*
X0250066Y0093075D03*
X0256916Y0093075D03*
X0258491Y0090713D03*
X0258648Y0090713D03*
X0257231Y0088508D03*
X0256916Y0088350D03*
X0268491Y0088350D03*
X0268648Y0088350D03*
X0268806Y0088350D03*
X0268963Y0088350D03*
X0269278Y0088350D03*
X0269436Y0088350D03*
X0269593Y0088350D03*
X0269751Y0088350D03*
X0269436Y0092130D03*
X0269278Y0092287D03*
X0269121Y0092287D03*
X0268806Y0092445D03*
X0268491Y0094177D03*
X0276759Y0092130D03*
X0277231Y0092130D03*
X0279436Y0092130D03*
X0279593Y0092130D03*
X0280066Y0092130D03*
X0279121Y0088350D03*
X0278963Y0088350D03*
X0278806Y0088350D03*
X0278491Y0088193D03*
X0278333Y0088193D03*
X0292988Y0104315D03*
X0292988Y0107031D03*
X0302516Y0107449D03*
X0303461Y0106150D03*
X0304406Y0105323D03*
X0303461Y0104496D03*
X0303933Y0103433D03*
X0220538Y0087823D03*
X0218806Y0087665D03*
X0208333Y0088665D03*
X0208176Y0088665D03*
X0208018Y0088665D03*
X0207861Y0088665D03*
X0207703Y0088665D03*
X0207546Y0088665D03*
X0207388Y0088665D03*
X0207388Y0092130D03*
X0207231Y0092130D03*
X0207861Y0092287D03*
X0208018Y0092287D03*
X0267388Y0179415D03*
X0267388Y0184848D03*
X0268806Y0186029D03*
X0269278Y0191698D03*
X0268333Y0194297D03*
X0260481Y0192380D03*
X0260008Y0192223D03*
X0258276Y0192223D03*
X0257961Y0192380D03*
X0257803Y0192380D03*
X0248648Y0189113D03*
X0248491Y0189113D03*
X0247231Y0186908D03*
X0246916Y0186750D03*
X0246916Y0191475D03*
X0237073Y0190435D03*
X0236916Y0190435D03*
X0236759Y0190435D03*
X0236601Y0190435D03*
X0230066Y0190975D03*
X0229908Y0190975D03*
X0229751Y0190975D03*
X0229593Y0190975D03*
X0229436Y0190975D03*
X0229278Y0190975D03*
X0229121Y0190975D03*
X0228963Y0190975D03*
X0228806Y0190975D03*
X0228648Y0190975D03*
X0228491Y0190975D03*
X0228333Y0190975D03*
X0228176Y0190975D03*
X0228018Y0190975D03*
X0227861Y0190975D03*
X0227703Y0190975D03*
X0227546Y0190975D03*
X0227388Y0190975D03*
X0227231Y0190975D03*
X0227073Y0190975D03*
X0226916Y0190975D03*
X0226759Y0190975D03*
X0226601Y0190975D03*
X0228018Y0189557D03*
X0228176Y0189557D03*
X0228806Y0188455D03*
X0228806Y0186880D03*
X0228963Y0186880D03*
X0229121Y0186880D03*
X0229278Y0186880D03*
X0229436Y0186880D03*
X0229593Y0186880D03*
X0229751Y0186880D03*
X0229908Y0186880D03*
X0228648Y0186880D03*
X0228491Y0186880D03*
X0228333Y0186880D03*
X0228176Y0186880D03*
X0277016Y0188282D03*
X0278906Y0187101D03*
X0278906Y0185802D03*
X0279851Y0188282D03*
X0286759Y0191130D03*
X0287231Y0191130D03*
X0287231Y0192705D03*
X0287388Y0192705D03*
X0289436Y0192705D03*
X0289436Y0191130D03*
X0289593Y0191130D03*
X0290066Y0191130D03*
X0289121Y0187350D03*
X0288963Y0187350D03*
X0288806Y0187350D03*
X0288491Y0187193D03*
X0288333Y0187193D03*
X0279378Y0182376D03*
D43*
X0288491Y0182783D03*
X0286286Y0191917D03*
X0268806Y0097642D03*
X0268648Y0097642D03*
X0228648Y0098059D03*
X0219593Y0094122D03*
D44*
X0220223Y0093807D03*
X0217861Y0095067D03*
X0227861Y0098374D03*
X0228018Y0098374D03*
X0240381Y0094650D03*
X0250381Y0097012D03*
X0246286Y0085043D03*
X0229593Y0084831D03*
X0206286Y0095909D03*
X0269593Y0097799D03*
X0276286Y0088665D03*
X0278806Y0085043D03*
X0268806Y0085043D03*
X0287073Y0182626D03*
X0287231Y0182626D03*
X0287388Y0182626D03*
X0286916Y0182783D03*
X0286759Y0182783D03*
X0286601Y0182941D03*
X0289278Y0182626D03*
X0289436Y0182626D03*
X0286286Y0187665D03*
X0258748Y0187656D03*
X0258591Y0187656D03*
X0258433Y0187656D03*
X0258433Y0194900D03*
X0240223Y0194845D03*
X0240066Y0194845D03*
X0230381Y0194912D03*
X0238963Y0187601D03*
X0226286Y0182943D03*
D45*
X0257646Y0188207D03*
X0259536Y0191987D03*
X0259693Y0192144D03*
X0286286Y0183335D03*
X0288333Y0182705D03*
X0269121Y0097720D03*
X0268963Y0097720D03*
X0268963Y0085280D03*
X0228806Y0098138D03*
X0219751Y0094043D03*
D46*
X0220066Y0093886D03*
X0229121Y0097980D03*
X0229278Y0097980D03*
X0229436Y0097823D03*
X0210381Y0091421D03*
X0258806Y0085280D03*
X0269278Y0097720D03*
X0269436Y0097720D03*
X0287546Y0182547D03*
X0287703Y0182547D03*
X0287861Y0182547D03*
X0288018Y0182547D03*
X0286444Y0183020D03*
X0290223Y0183020D03*
X0290381Y0183177D03*
X0258276Y0187735D03*
X0258118Y0187735D03*
X0248806Y0183680D03*
X0239121Y0187680D03*
X0240381Y0194766D03*
D47*
X0239593Y0195002D03*
X0239436Y0195002D03*
X0248806Y0191790D03*
X0250381Y0190845D03*
X0250381Y0187380D03*
X0259063Y0187656D03*
X0259221Y0191435D03*
X0288176Y0194909D03*
X0288648Y0194909D03*
X0227861Y0185620D03*
X0227703Y0185620D03*
X0226444Y0182786D03*
X0226444Y0195069D03*
X0227388Y0098217D03*
X0227546Y0098217D03*
X0220538Y0093650D03*
X0217546Y0094909D03*
X0217388Y0094909D03*
X0210223Y0091343D03*
X0210381Y0087563D03*
X0207546Y0094807D03*
X0246444Y0097169D03*
X0258806Y0093390D03*
X0260381Y0092445D03*
X0260381Y0088980D03*
X0247861Y0087720D03*
X0247703Y0087720D03*
X0246444Y0084886D03*
X0269908Y0097799D03*
X0270381Y0097484D03*
X0279751Y0096854D03*
X0279908Y0096854D03*
D48*
X0281483Y0089846D03*
X0275184Y0089846D03*
X0216916Y0089476D03*
D49*
X0275341Y0090083D03*
X0281325Y0090083D03*
D50*
X0281168Y0090240D03*
X0275499Y0090240D03*
X0285341Y0189555D03*
X0291325Y0189555D03*
D51*
X0291168Y0189398D03*
X0285499Y0189398D03*
X0281010Y0090398D03*
X0275656Y0090398D03*
D52*
X0275814Y0090476D03*
X0280853Y0090476D03*
X0231483Y0090264D03*
X0225184Y0090264D03*
D53*
X0210696Y0090634D03*
X0205971Y0090634D03*
X0276129Y0090634D03*
X0280538Y0090634D03*
X0285814Y0189161D03*
X0290853Y0189161D03*
D54*
X0246286Y0189113D03*
X0276286Y0094492D03*
X0256286Y0090713D03*
D55*
X0276444Y0095752D03*
X0276601Y0095752D03*
X0276759Y0095909D03*
X0276916Y0095909D03*
X0288806Y0183256D03*
D56*
X0228176Y0097508D03*
X0277073Y0095988D03*
X0277231Y0095988D03*
X0277388Y0095988D03*
X0279278Y0095988D03*
X0279436Y0095988D03*
X0279593Y0095988D03*
D57*
X0279121Y0096067D03*
X0278963Y0096067D03*
X0278806Y0096067D03*
X0278648Y0096067D03*
X0278491Y0096067D03*
X0278333Y0096067D03*
X0278176Y0096067D03*
X0278018Y0096067D03*
X0277861Y0096067D03*
X0277703Y0096067D03*
X0277546Y0096067D03*
X0228491Y0097429D03*
X0228333Y0097429D03*
X0288963Y0183413D03*
X0236286Y0188546D03*
D58*
X0257803Y0187971D03*
X0257961Y0187813D03*
X0288176Y0182626D03*
X0289121Y0182626D03*
X0228963Y0098059D03*
X0219908Y0093965D03*
X0278963Y0085201D03*
D59*
X0258963Y0090713D03*
X0258806Y0090713D03*
X0248491Y0091815D03*
X0248333Y0090398D03*
X0238491Y0089295D03*
X0238333Y0087878D03*
X0230223Y0087350D03*
X0230066Y0087350D03*
X0228963Y0089083D03*
X0228806Y0089083D03*
X0217703Y0090028D03*
X0228333Y0188298D03*
X0228491Y0189715D03*
X0248806Y0189113D03*
X0248963Y0189113D03*
X0287703Y0192547D03*
X0289121Y0192547D03*
D60*
X0226286Y0191054D03*
X0246286Y0093154D03*
X0221483Y0088531D03*
X0215184Y0088531D03*
D61*
X0216759Y0089398D03*
X0235184Y0089925D03*
X0235341Y0089925D03*
X0235499Y0089925D03*
X0235656Y0089925D03*
X0235814Y0089925D03*
X0235971Y0089925D03*
X0236129Y0089925D03*
X0236286Y0089925D03*
X0240538Y0089925D03*
X0240696Y0089925D03*
X0240853Y0089925D03*
X0241010Y0089925D03*
X0241168Y0089925D03*
X0241325Y0089925D03*
X0241483Y0089925D03*
D62*
X0221325Y0088610D03*
X0215341Y0088610D03*
D63*
X0215499Y0088768D03*
X0221168Y0088768D03*
D64*
X0221010Y0088846D03*
X0215656Y0088846D03*
D65*
X0217073Y0089555D03*
D66*
X0217231Y0089634D03*
X0285184Y0189791D03*
X0291483Y0189791D03*
D67*
X0220853Y0088925D03*
D68*
X0225656Y0090579D03*
X0231010Y0090579D03*
X0211010Y0090791D03*
X0205656Y0090791D03*
X0286129Y0189004D03*
X0290538Y0189004D03*
D69*
X0226759Y0091130D03*
D70*
X0226916Y0091209D03*
D71*
X0227073Y0091287D03*
D72*
X0227231Y0091366D03*
D73*
X0206286Y0088350D03*
X0257173Y0191593D03*
D74*
X0273333Y0163900D02*
X0275833Y0163900D01*
X0275833Y0159900D01*
X0273333Y0159900D01*
X0273333Y0163900D01*
X0273333Y0163857D02*
X0275833Y0163857D01*
X0275833Y0163759D02*
X0273333Y0163759D01*
X0273333Y0163660D02*
X0275833Y0163660D01*
X0275833Y0163562D02*
X0273333Y0163562D01*
X0273333Y0163463D02*
X0275833Y0163463D01*
X0275833Y0163365D02*
X0273333Y0163365D01*
X0273333Y0163266D02*
X0275833Y0163266D01*
X0275833Y0163168D02*
X0273333Y0163168D01*
X0273333Y0163069D02*
X0275833Y0163069D01*
X0275833Y0162971D02*
X0273333Y0162971D01*
X0273333Y0162872D02*
X0275833Y0162872D01*
X0275833Y0162774D02*
X0273333Y0162774D01*
X0273333Y0162675D02*
X0275833Y0162675D01*
X0275833Y0162577D02*
X0273333Y0162577D01*
X0273333Y0162478D02*
X0275833Y0162478D01*
X0275833Y0162380D02*
X0273333Y0162380D01*
X0273333Y0162281D02*
X0275833Y0162281D01*
X0275833Y0162183D02*
X0273333Y0162183D01*
X0273333Y0162084D02*
X0275833Y0162084D01*
X0275833Y0161985D02*
X0273333Y0161985D01*
X0273333Y0161887D02*
X0275833Y0161887D01*
X0275833Y0161788D02*
X0273333Y0161788D01*
X0273333Y0161690D02*
X0275833Y0161690D01*
X0275833Y0161591D02*
X0273333Y0161591D01*
X0273333Y0161493D02*
X0275833Y0161493D01*
X0275833Y0161394D02*
X0273333Y0161394D01*
X0273333Y0161296D02*
X0275833Y0161296D01*
X0275833Y0161197D02*
X0273333Y0161197D01*
X0273333Y0161099D02*
X0275833Y0161099D01*
X0275833Y0161000D02*
X0273333Y0161000D01*
X0273333Y0160902D02*
X0275833Y0160902D01*
X0275833Y0160803D02*
X0273333Y0160803D01*
X0273333Y0160705D02*
X0275833Y0160705D01*
X0275833Y0160606D02*
X0273333Y0160606D01*
X0273333Y0160508D02*
X0275833Y0160508D01*
X0275833Y0160409D02*
X0273333Y0160409D01*
X0273333Y0160311D02*
X0275833Y0160311D01*
X0275833Y0160212D02*
X0273333Y0160212D01*
X0273333Y0160114D02*
X0275833Y0160114D01*
X0275833Y0160015D02*
X0273333Y0160015D01*
X0273333Y0159917D02*
X0275833Y0159917D01*
D75*
X0276333Y0161900D02*
X0276335Y0161944D01*
X0276341Y0161988D01*
X0276351Y0162031D01*
X0276364Y0162073D01*
X0276381Y0162114D01*
X0276402Y0162153D01*
X0276426Y0162190D01*
X0276453Y0162225D01*
X0276483Y0162257D01*
X0276516Y0162287D01*
X0276552Y0162313D01*
X0276589Y0162337D01*
X0276629Y0162356D01*
X0276670Y0162373D01*
X0276713Y0162385D01*
X0276756Y0162394D01*
X0276800Y0162399D01*
X0276844Y0162400D01*
X0276888Y0162397D01*
X0276932Y0162390D01*
X0276975Y0162379D01*
X0277017Y0162365D01*
X0277057Y0162347D01*
X0277096Y0162325D01*
X0277132Y0162301D01*
X0277166Y0162273D01*
X0277198Y0162242D01*
X0277227Y0162208D01*
X0277253Y0162172D01*
X0277275Y0162134D01*
X0277294Y0162094D01*
X0277309Y0162052D01*
X0277321Y0162010D01*
X0277329Y0161966D01*
X0277333Y0161922D01*
X0277333Y0161878D01*
X0277329Y0161834D01*
X0277321Y0161790D01*
X0277309Y0161748D01*
X0277294Y0161706D01*
X0277275Y0161666D01*
X0277253Y0161628D01*
X0277227Y0161592D01*
X0277198Y0161558D01*
X0277166Y0161527D01*
X0277132Y0161499D01*
X0277096Y0161475D01*
X0277057Y0161453D01*
X0277017Y0161435D01*
X0276975Y0161421D01*
X0276932Y0161410D01*
X0276888Y0161403D01*
X0276844Y0161400D01*
X0276800Y0161401D01*
X0276756Y0161406D01*
X0276713Y0161415D01*
X0276670Y0161427D01*
X0276629Y0161444D01*
X0276589Y0161463D01*
X0276552Y0161487D01*
X0276516Y0161513D01*
X0276483Y0161543D01*
X0276453Y0161575D01*
X0276426Y0161610D01*
X0276402Y0161647D01*
X0276381Y0161686D01*
X0276364Y0161727D01*
X0276351Y0161769D01*
X0276341Y0161812D01*
X0276335Y0161856D01*
X0276333Y0161900D01*
D76*
X0291591Y0105555D03*
X0296276Y0105555D03*
D77*
X0296158Y0105555D03*
X0291709Y0105555D03*
D78*
X0291807Y0105555D03*
D79*
X0291925Y0105555D03*
D80*
X0292063Y0105555D03*
X0295843Y0105555D03*
D81*
X0295725Y0105555D03*
X0292181Y0105555D03*
D82*
X0292280Y0105555D03*
D83*
X0292378Y0103783D03*
D84*
X0292378Y0109984D03*
X0293205Y0110339D03*
X0293796Y0110457D03*
X0304268Y0111110D03*
X0305488Y0102843D03*
X0288640Y0158652D03*
X0279988Y0175998D03*
D85*
X0278433Y0179128D03*
X0295351Y0106382D03*
X0295351Y0100713D03*
X0292516Y0100713D03*
X0302516Y0099713D03*
X0305351Y0099713D03*
D86*
X0305351Y0105264D03*
X0304878Y0107154D03*
X0292516Y0104020D03*
X0286888Y0158711D03*
X0286888Y0161073D03*
X0277488Y0175703D03*
X0269751Y0178175D03*
X0268806Y0179592D03*
X0278906Y0184207D03*
X0269751Y0188923D03*
D87*
X0279851Y0175998D03*
X0303933Y0111228D03*
X0295351Y0110220D03*
X0292988Y0110457D03*
X0292516Y0110220D03*
X0293461Y0100535D03*
X0293933Y0100535D03*
X0294406Y0100535D03*
X0303461Y0099535D03*
X0303933Y0099535D03*
X0304406Y0099535D03*
X0305351Y0102843D03*
D88*
X0305488Y0099831D03*
X0305213Y0099713D03*
X0302654Y0099713D03*
X0295488Y0100831D03*
X0295213Y0100713D03*
X0292654Y0100713D03*
X0295488Y0103547D03*
X0305016Y0111169D03*
X0305095Y0111169D03*
X0305488Y0110933D03*
X0279516Y0176176D03*
X0269062Y0175813D03*
X0268944Y0175813D03*
X0267723Y0175813D03*
X0267605Y0175813D03*
X0279988Y0195191D03*
D89*
X0279595Y0192002D03*
X0279162Y0190585D03*
X0277705Y0191766D03*
X0277351Y0192002D03*
X0277705Y0186451D03*
X0278296Y0184325D03*
X0279162Y0182317D03*
X0269416Y0178057D03*
X0268196Y0178057D03*
X0267605Y0178057D03*
X0267999Y0184671D03*
X0268117Y0184671D03*
X0267605Y0186679D03*
X0267133Y0188805D03*
X0269613Y0188805D03*
X0269495Y0191639D03*
X0269062Y0193057D03*
X0267251Y0191757D03*
X0287026Y0164971D03*
X0287105Y0164971D03*
X0287223Y0164971D03*
X0287499Y0164971D03*
X0287617Y0164971D03*
X0287696Y0164971D03*
X0287971Y0164971D03*
X0288050Y0164971D03*
X0288168Y0164971D03*
X0288444Y0164971D03*
X0288562Y0164971D03*
X0288640Y0164971D03*
X0288916Y0164971D03*
X0288995Y0164971D03*
X0287696Y0162845D03*
X0287617Y0162845D03*
X0287499Y0162845D03*
X0287223Y0162845D03*
X0287105Y0162845D03*
X0287026Y0162845D03*
X0286751Y0162845D03*
X0286633Y0162845D03*
X0286554Y0162845D03*
X0286554Y0160955D03*
X0286633Y0160955D03*
X0287696Y0159183D03*
X0287971Y0159302D03*
X0288916Y0159774D03*
X0288995Y0159774D03*
X0289113Y0159892D03*
X0288050Y0158002D03*
X0288916Y0157648D03*
X0288995Y0157530D03*
X0289113Y0157530D03*
X0286633Y0158711D03*
X0294662Y0108272D03*
X0294071Y0107209D03*
X0292733Y0106972D03*
X0293323Y0105673D03*
X0293717Y0105673D03*
X0293796Y0105673D03*
X0292654Y0104138D03*
X0293796Y0102957D03*
X0302851Y0104437D03*
X0302851Y0106091D03*
X0304150Y0107272D03*
X0304268Y0107272D03*
X0303796Y0108807D03*
X0303717Y0108807D03*
X0303323Y0108807D03*
X0305016Y0108807D03*
X0305095Y0108807D03*
X0304268Y0103374D03*
X0303796Y0101957D03*
D90*
X0304740Y0107154D03*
X0305016Y0107154D03*
X0294544Y0106854D03*
X0294544Y0108154D03*
X0292654Y0106972D03*
X0288916Y0162727D03*
X0268196Y0179828D03*
X0268117Y0179828D03*
X0267251Y0181009D03*
X0268944Y0182545D03*
X0268550Y0184553D03*
X0268471Y0184553D03*
X0267526Y0186679D03*
X0267723Y0190222D03*
X0269062Y0190222D03*
X0269613Y0191639D03*
X0269888Y0194120D03*
X0277823Y0193538D03*
X0279162Y0193538D03*
X0279713Y0192002D03*
X0277626Y0186451D03*
X0278768Y0184207D03*
X0279044Y0182317D03*
X0279595Y0180782D03*
X0277351Y0180782D03*
D91*
X0279713Y0176057D03*
X0268668Y0175694D03*
X0268550Y0175694D03*
X0268471Y0175694D03*
X0268196Y0175694D03*
X0268117Y0175694D03*
X0267999Y0175694D03*
X0302851Y0111051D03*
X0303126Y0111169D03*
X0303205Y0111169D03*
X0303323Y0111287D03*
X0303599Y0111287D03*
X0303717Y0111287D03*
X0303796Y0111287D03*
X0304740Y0111169D03*
X0295095Y0110398D03*
X0294544Y0110634D03*
X0294268Y0110634D03*
X0292851Y0110398D03*
X0292733Y0110398D03*
X0292654Y0110280D03*
X0305016Y0102783D03*
X0304740Y0099594D03*
X0304662Y0099594D03*
X0303205Y0099594D03*
X0303126Y0099594D03*
X0294740Y0100594D03*
X0294662Y0100594D03*
X0293205Y0100594D03*
X0293126Y0100594D03*
D92*
X0292851Y0100654D03*
X0292733Y0100654D03*
X0295016Y0100654D03*
X0295095Y0100654D03*
X0302733Y0099654D03*
X0302851Y0099654D03*
X0305016Y0099654D03*
X0305095Y0099654D03*
X0304740Y0102724D03*
X0295213Y0110339D03*
X0295016Y0110457D03*
X0294740Y0110575D03*
X0294662Y0110575D03*
X0288168Y0158652D03*
X0279595Y0176117D03*
X0276878Y0192061D03*
X0266778Y0191580D03*
D93*
X0267605Y0190163D03*
X0267251Y0188746D03*
X0267723Y0186738D03*
X0268944Y0187328D03*
X0269062Y0187328D03*
X0269062Y0186147D03*
X0267723Y0184730D03*
X0269140Y0182604D03*
X0269062Y0179533D03*
X0267723Y0179651D03*
X0267054Y0179179D03*
X0269140Y0177998D03*
X0278099Y0184384D03*
X0278217Y0184384D03*
X0279162Y0185920D03*
X0279162Y0186983D03*
X0277823Y0186392D03*
X0278571Y0189581D03*
X0279240Y0190644D03*
X0277705Y0190644D03*
X0277626Y0191825D03*
X0277705Y0193479D03*
X0269416Y0191698D03*
X0268471Y0192053D03*
X0269140Y0193116D03*
X0268196Y0194179D03*
X0267605Y0194179D03*
X0267605Y0193116D03*
X0269495Y0188746D03*
X0279240Y0182376D03*
X0289113Y0164912D03*
X0289113Y0160896D03*
X0288995Y0160896D03*
X0288916Y0160896D03*
X0288640Y0160896D03*
X0288562Y0160896D03*
X0288444Y0160896D03*
X0288168Y0160896D03*
X0288050Y0160896D03*
X0287971Y0160896D03*
X0286554Y0158652D03*
X0303205Y0108748D03*
X0303796Y0107331D03*
X0304071Y0107331D03*
X0303205Y0106150D03*
X0303126Y0106150D03*
X0303126Y0104496D03*
X0304150Y0103433D03*
X0303205Y0101898D03*
X0304740Y0105323D03*
X0305016Y0105323D03*
X0304740Y0108748D03*
X0293205Y0105614D03*
X0292733Y0104197D03*
X0293205Y0102898D03*
D94*
X0292851Y0104256D03*
X0294268Y0104256D03*
X0292851Y0106972D03*
X0293205Y0108272D03*
X0294740Y0108272D03*
X0303599Y0107390D03*
X0303717Y0107390D03*
X0303205Y0104437D03*
X0304071Y0103374D03*
X0302654Y0103020D03*
X0289388Y0157530D03*
X0289388Y0160837D03*
X0289388Y0162845D03*
X0289388Y0164971D03*
X0269888Y0179474D03*
X0269140Y0179474D03*
X0269140Y0181009D03*
X0267526Y0181009D03*
X0267605Y0179592D03*
X0267605Y0184789D03*
X0267526Y0184789D03*
X0268944Y0186088D03*
X0269416Y0188687D03*
X0269140Y0190222D03*
X0268944Y0191876D03*
X0267526Y0191757D03*
X0267526Y0194238D03*
X0267054Y0194238D03*
X0269613Y0194238D03*
X0277154Y0189522D03*
X0278296Y0191648D03*
X0279516Y0192002D03*
X0279240Y0193538D03*
X0279044Y0187042D03*
X0279044Y0185861D03*
X0277823Y0184443D03*
X0277626Y0180782D03*
X0279240Y0180782D03*
D95*
X0268333Y0175694D03*
X0288306Y0158711D03*
X0302988Y0111169D03*
X0303461Y0111287D03*
X0304878Y0111169D03*
X0294878Y0110516D03*
X0294406Y0110634D03*
X0304878Y0102783D03*
X0304878Y0099594D03*
X0302988Y0099594D03*
X0294878Y0100594D03*
X0292988Y0100594D03*
D96*
X0293126Y0104315D03*
X0294071Y0104315D03*
X0294150Y0104315D03*
X0293796Y0107150D03*
X0293126Y0108213D03*
X0303126Y0107449D03*
X0303205Y0107449D03*
X0303323Y0107449D03*
X0303323Y0106150D03*
X0303599Y0106150D03*
X0304544Y0105323D03*
X0304662Y0105323D03*
X0303323Y0104496D03*
X0303796Y0103433D03*
X0302733Y0103079D03*
X0289388Y0159833D03*
X0267526Y0179533D03*
X0267133Y0179297D03*
X0267251Y0184848D03*
X0268668Y0187446D03*
X0269140Y0188628D03*
X0267605Y0188628D03*
X0267526Y0188628D03*
X0267605Y0191817D03*
X0267723Y0191817D03*
X0268196Y0191935D03*
X0269062Y0191817D03*
X0269140Y0191817D03*
X0267526Y0193116D03*
X0267251Y0194297D03*
X0267133Y0194297D03*
X0268471Y0194297D03*
X0269495Y0194297D03*
X0277626Y0190644D03*
X0277351Y0189463D03*
X0277233Y0189463D03*
X0278296Y0189463D03*
X0279044Y0189463D03*
X0279713Y0189463D03*
X0279988Y0188282D03*
X0277705Y0184502D03*
X0277626Y0184502D03*
X0279240Y0191943D03*
D97*
X0279162Y0191884D03*
X0279044Y0191884D03*
X0278768Y0191884D03*
X0278571Y0191766D03*
X0278217Y0189404D03*
X0278099Y0189404D03*
X0277823Y0189404D03*
X0277705Y0189404D03*
X0277626Y0189404D03*
X0277626Y0188341D03*
X0277705Y0188341D03*
X0277823Y0188341D03*
X0278099Y0188341D03*
X0278217Y0188341D03*
X0278296Y0188341D03*
X0278571Y0188341D03*
X0278650Y0188341D03*
X0278768Y0188341D03*
X0279044Y0188341D03*
X0279162Y0188341D03*
X0279240Y0188341D03*
X0279516Y0188341D03*
X0279595Y0188341D03*
X0279713Y0188341D03*
X0279595Y0189404D03*
X0279516Y0189404D03*
X0279240Y0189404D03*
X0279162Y0189404D03*
X0277351Y0188341D03*
X0277233Y0188341D03*
X0277154Y0188341D03*
X0278650Y0187160D03*
X0278768Y0187160D03*
X0278099Y0186451D03*
X0278768Y0185743D03*
X0277351Y0184561D03*
X0279516Y0182435D03*
X0279595Y0182435D03*
X0279988Y0182199D03*
X0279162Y0180782D03*
X0277705Y0180782D03*
X0269888Y0182545D03*
X0269495Y0182663D03*
X0269416Y0182663D03*
X0269062Y0181009D03*
X0267605Y0181009D03*
X0267251Y0179356D03*
X0269416Y0179474D03*
X0267133Y0184907D03*
X0267054Y0184907D03*
X0268550Y0185970D03*
X0268668Y0185970D03*
X0267999Y0186679D03*
X0268471Y0187506D03*
X0268550Y0187506D03*
X0268668Y0188569D03*
X0268944Y0188569D03*
X0269062Y0188569D03*
X0268117Y0188569D03*
X0267999Y0188569D03*
X0267723Y0188569D03*
X0267999Y0191876D03*
X0268117Y0191876D03*
X0268550Y0194356D03*
X0268668Y0194356D03*
X0268944Y0194356D03*
X0269062Y0194356D03*
X0269140Y0194356D03*
X0269416Y0194356D03*
X0293126Y0106972D03*
X0293205Y0106972D03*
X0293599Y0107091D03*
X0293717Y0107091D03*
X0293717Y0104374D03*
X0293796Y0104374D03*
X0293599Y0104374D03*
X0293323Y0104374D03*
X0293205Y0104374D03*
X0302851Y0103138D03*
X0303126Y0103256D03*
X0303599Y0103374D03*
X0303717Y0103374D03*
X0303599Y0104437D03*
X0302851Y0107508D03*
X0302733Y0107508D03*
X0302654Y0107508D03*
D98*
X0304150Y0111169D03*
X0304544Y0111169D03*
X0295488Y0110043D03*
X0293126Y0110398D03*
X0288562Y0158711D03*
D99*
X0288444Y0158652D03*
X0286278Y0164912D03*
X0276878Y0195014D03*
X0304071Y0111228D03*
X0304662Y0111110D03*
X0302733Y0110992D03*
X0302654Y0110874D03*
X0305095Y0102843D03*
X0305213Y0102843D03*
X0304544Y0099535D03*
X0304268Y0099535D03*
X0304150Y0099535D03*
X0304071Y0099535D03*
X0303796Y0099535D03*
X0303717Y0099535D03*
X0303599Y0099535D03*
X0303323Y0099535D03*
X0294544Y0100535D03*
X0294268Y0100535D03*
X0294150Y0100535D03*
X0294071Y0100535D03*
X0293796Y0100535D03*
X0293717Y0100535D03*
X0293599Y0100535D03*
X0293323Y0100535D03*
X0295488Y0106441D03*
X0294150Y0110575D03*
X0294071Y0110575D03*
D100*
X0293599Y0105732D03*
X0294544Y0104079D03*
X0293717Y0103016D03*
X0293599Y0103016D03*
X0293323Y0103016D03*
X0302654Y0104496D03*
X0302733Y0104496D03*
X0302733Y0106150D03*
X0302654Y0106150D03*
X0304544Y0107213D03*
X0304662Y0107213D03*
X0305213Y0108866D03*
X0303599Y0108866D03*
X0305095Y0105323D03*
X0305213Y0105323D03*
X0303717Y0102016D03*
X0303599Y0102016D03*
X0303323Y0102016D03*
X0287971Y0158061D03*
X0287696Y0158180D03*
X0286751Y0158652D03*
X0288050Y0159361D03*
X0286751Y0161014D03*
X0288995Y0162786D03*
X0289113Y0162786D03*
X0269613Y0178116D03*
X0269495Y0178116D03*
X0268117Y0178116D03*
X0267999Y0178116D03*
X0267723Y0178116D03*
X0267999Y0179769D03*
X0268944Y0179533D03*
X0269416Y0181069D03*
X0269062Y0182604D03*
X0268196Y0184612D03*
X0267054Y0188864D03*
X0267133Y0191698D03*
X0268550Y0192171D03*
X0268944Y0192998D03*
X0268117Y0194061D03*
X0277233Y0192061D03*
X0278217Y0191589D03*
X0279044Y0190526D03*
X0278650Y0189699D03*
X0279988Y0189581D03*
X0278650Y0184266D03*
X0278571Y0184266D03*
X0279516Y0180723D03*
D101*
X0279713Y0182376D03*
X0277233Y0184620D03*
X0277154Y0184620D03*
X0278571Y0185683D03*
X0278650Y0185683D03*
X0278571Y0187219D03*
X0278650Y0191825D03*
X0268550Y0188509D03*
X0268471Y0188509D03*
X0268196Y0188509D03*
X0268471Y0185911D03*
X0269613Y0182604D03*
X0269495Y0179415D03*
X0277351Y0179187D03*
X0286278Y0160896D03*
X0293323Y0107031D03*
X0303717Y0106150D03*
X0303796Y0106150D03*
X0304071Y0105323D03*
X0304150Y0105323D03*
X0304268Y0105323D03*
X0303796Y0104496D03*
X0303717Y0104496D03*
X0303323Y0103315D03*
X0303205Y0103315D03*
D102*
X0293323Y0109866D03*
D103*
X0293461Y0104374D03*
X0293933Y0104374D03*
X0303461Y0103374D03*
X0302988Y0107508D03*
X0277488Y0179246D03*
X0277016Y0179246D03*
X0279851Y0182317D03*
X0277488Y0184561D03*
X0277016Y0184680D03*
X0277488Y0188341D03*
X0277961Y0188341D03*
X0278433Y0188341D03*
X0278906Y0188341D03*
X0279378Y0188341D03*
X0277961Y0189404D03*
X0277488Y0189404D03*
X0278433Y0191766D03*
X0278906Y0191884D03*
X0269278Y0194356D03*
X0268806Y0194356D03*
X0267861Y0191876D03*
X0267861Y0188569D03*
X0268806Y0188569D03*
X0266916Y0184907D03*
X0269278Y0179474D03*
X0269751Y0179474D03*
D104*
X0269751Y0182604D03*
X0268333Y0187565D03*
X0268333Y0188509D03*
X0279378Y0189345D03*
X0293461Y0107031D03*
X0302988Y0103197D03*
X0303933Y0106150D03*
D105*
X0293461Y0109925D03*
D106*
X0293599Y0110043D03*
D107*
X0293717Y0110280D03*
X0266778Y0194946D03*
D108*
X0267388Y0194238D03*
X0268333Y0191994D03*
X0267388Y0191757D03*
X0267388Y0188687D03*
X0269278Y0188687D03*
X0268806Y0187387D03*
X0267861Y0186679D03*
X0269278Y0182663D03*
X0277961Y0184443D03*
X0277961Y0186451D03*
X0278433Y0189522D03*
X0279378Y0192002D03*
X0286416Y0158711D03*
X0293933Y0107091D03*
X0303461Y0107390D03*
D109*
X0293933Y0110516D03*
D110*
X0294150Y0107268D03*
X0305095Y0107094D03*
X0305213Y0107094D03*
X0305488Y0108866D03*
X0287026Y0158652D03*
X0287026Y0161132D03*
X0287105Y0161132D03*
X0277233Y0175526D03*
X0277351Y0175644D03*
X0277233Y0180723D03*
X0279044Y0184148D03*
X0279162Y0184148D03*
X0269495Y0181069D03*
X0268550Y0179769D03*
X0268668Y0179651D03*
X0269888Y0178116D03*
X0267133Y0181069D03*
X0268668Y0184494D03*
X0277154Y0192061D03*
D111*
X0277351Y0195487D03*
X0279516Y0195487D03*
X0269888Y0184257D03*
X0268471Y0182486D03*
X0268117Y0182604D03*
X0267999Y0182722D03*
X0267054Y0176108D03*
X0269613Y0176108D03*
X0277705Y0178833D03*
X0277823Y0178833D03*
X0279162Y0178833D03*
X0279988Y0178715D03*
X0278217Y0182376D03*
X0277823Y0182613D03*
X0288050Y0162431D03*
X0288168Y0162431D03*
X0287696Y0161369D03*
X0287499Y0158652D03*
X0294268Y0107386D03*
X0304662Y0103079D03*
D112*
X0302988Y0104496D03*
X0302988Y0106150D03*
X0303933Y0107331D03*
X0304878Y0108748D03*
X0304878Y0105323D03*
X0294406Y0104197D03*
X0289251Y0157471D03*
X0289251Y0159833D03*
X0289251Y0160896D03*
X0288778Y0160896D03*
X0288306Y0160896D03*
X0287833Y0160896D03*
X0286416Y0160896D03*
X0286416Y0162904D03*
X0289251Y0164912D03*
X0279378Y0180723D03*
X0269278Y0181069D03*
X0267861Y0184730D03*
X0269751Y0194179D03*
X0279851Y0189581D03*
D113*
X0277016Y0195250D03*
X0279378Y0176235D03*
X0305351Y0111110D03*
X0294406Y0107504D03*
D114*
X0294662Y0106618D03*
X0294662Y0103902D03*
X0304544Y0103256D03*
X0305488Y0105264D03*
X0287105Y0158711D03*
X0287223Y0161191D03*
X0288562Y0162609D03*
X0288640Y0162609D03*
X0277154Y0175467D03*
X0279516Y0178656D03*
X0279595Y0178656D03*
X0279713Y0178656D03*
X0279713Y0180782D03*
X0279240Y0184089D03*
X0269140Y0184435D03*
X0269062Y0184435D03*
X0268944Y0184435D03*
X0268668Y0182545D03*
X0269613Y0181009D03*
X0268471Y0179828D03*
X0268944Y0190222D03*
X0267054Y0191639D03*
X0267054Y0195891D03*
X0267133Y0195891D03*
X0267251Y0195891D03*
X0267526Y0195891D03*
X0267605Y0195891D03*
X0267723Y0195891D03*
X0267999Y0195891D03*
X0268117Y0195891D03*
X0268196Y0195891D03*
X0268471Y0195891D03*
X0268550Y0195891D03*
X0268668Y0195891D03*
X0268944Y0195891D03*
X0269062Y0195891D03*
X0269140Y0195891D03*
X0269416Y0195891D03*
X0269495Y0195891D03*
X0269613Y0195891D03*
X0278099Y0195664D03*
X0278217Y0195664D03*
X0278296Y0195664D03*
X0278571Y0195664D03*
X0278650Y0195664D03*
X0278768Y0195664D03*
X0279044Y0193538D03*
D115*
X0277154Y0195309D03*
X0279988Y0186451D03*
X0278768Y0179010D03*
X0278650Y0179010D03*
X0278217Y0179010D03*
X0277626Y0176294D03*
X0279240Y0176294D03*
X0295095Y0106264D03*
X0295095Y0103547D03*
X0295016Y0103547D03*
X0295213Y0103547D03*
X0294740Y0103547D03*
D116*
X0294740Y0106205D03*
X0295016Y0106205D03*
X0279162Y0176353D03*
X0277705Y0176353D03*
X0278099Y0178951D03*
X0276878Y0182967D03*
X0269613Y0186738D03*
X0269495Y0186738D03*
X0269416Y0186738D03*
X0269140Y0186738D03*
X0266778Y0183194D03*
X0266778Y0181069D03*
X0267251Y0175990D03*
X0269416Y0175990D03*
X0279988Y0192061D03*
X0279713Y0195369D03*
D117*
X0279851Y0195309D03*
X0279851Y0186451D03*
X0277016Y0186451D03*
X0266916Y0186679D03*
X0267388Y0175931D03*
X0269278Y0175931D03*
X0294878Y0103547D03*
X0295351Y0103547D03*
D118*
X0295213Y0106323D03*
X0305213Y0111110D03*
X0269140Y0175872D03*
X0267526Y0175872D03*
X0278296Y0179069D03*
X0278571Y0179069D03*
X0269888Y0186738D03*
D119*
X0295607Y0105555D03*
X0301709Y0105382D03*
X0306158Y0105382D03*
D120*
X0306276Y0105382D03*
X0301591Y0105382D03*
X0295922Y0105555D03*
D121*
X0296040Y0105555D03*
D122*
X0279333Y0131100D03*
D123*
X0286278Y0158711D03*
X0286278Y0162845D03*
X0277233Y0179246D03*
X0277154Y0179246D03*
X0277823Y0180782D03*
X0279044Y0180782D03*
X0278217Y0186451D03*
X0268117Y0186679D03*
X0267723Y0181009D03*
X0268944Y0181009D03*
X0269613Y0179474D03*
D124*
X0286416Y0164971D03*
X0288778Y0158711D03*
D125*
X0286633Y0164912D03*
X0286554Y0164912D03*
X0302378Y0105323D03*
D126*
X0286751Y0164971D03*
D127*
X0287361Y0164971D03*
X0287833Y0164971D03*
X0288306Y0164971D03*
X0288778Y0164971D03*
X0289251Y0162845D03*
X0287833Y0162845D03*
X0287361Y0162845D03*
X0286888Y0162845D03*
X0287833Y0158120D03*
X0269278Y0178057D03*
X0267861Y0179710D03*
X0267388Y0181009D03*
X0277488Y0180782D03*
X0278433Y0184325D03*
X0277016Y0189522D03*
X0277488Y0191884D03*
X0266916Y0194120D03*
X0304406Y0107272D03*
D128*
X0305488Y0107094D03*
X0287223Y0158652D03*
X0288444Y0162550D03*
X0277154Y0180723D03*
X0278768Y0182258D03*
X0277351Y0182967D03*
X0277233Y0182967D03*
X0279516Y0184030D03*
X0279595Y0184030D03*
X0277351Y0186392D03*
X0278768Y0189935D03*
X0278099Y0191353D03*
X0278099Y0193479D03*
X0277823Y0195605D03*
X0277705Y0195605D03*
X0279044Y0195605D03*
X0279162Y0195605D03*
X0279240Y0195605D03*
X0269888Y0195832D03*
X0267999Y0193824D03*
X0268668Y0192407D03*
X0267999Y0190163D03*
X0269888Y0188982D03*
X0267251Y0186738D03*
X0269416Y0184376D03*
X0267605Y0182958D03*
X0267251Y0183194D03*
X0267133Y0183194D03*
X0267054Y0181069D03*
D129*
X0267861Y0182781D03*
X0269751Y0181009D03*
X0269751Y0176167D03*
X0266916Y0176167D03*
X0277016Y0175467D03*
X0278433Y0176530D03*
X0277016Y0180782D03*
X0279851Y0180782D03*
X0268333Y0190222D03*
X0266916Y0191639D03*
X0277488Y0195546D03*
X0279378Y0195546D03*
X0278433Y0193538D03*
X0288306Y0162491D03*
X0287361Y0158711D03*
D130*
X0287499Y0161309D03*
X0287617Y0161309D03*
X0278768Y0176530D03*
X0278650Y0176530D03*
X0278571Y0176530D03*
X0278296Y0176530D03*
X0278217Y0176530D03*
X0278099Y0176530D03*
X0277626Y0178774D03*
X0279240Y0178774D03*
X0278650Y0182199D03*
X0277705Y0182672D03*
X0277626Y0182790D03*
X0277154Y0183026D03*
X0279713Y0183971D03*
X0277233Y0186451D03*
X0278217Y0193538D03*
X0278296Y0193538D03*
X0278571Y0193538D03*
X0278650Y0193538D03*
X0278768Y0193538D03*
X0277626Y0195546D03*
X0268668Y0190222D03*
X0268550Y0190222D03*
X0268471Y0190222D03*
X0268196Y0190222D03*
X0268117Y0190222D03*
X0267133Y0186679D03*
X0269495Y0184317D03*
X0269613Y0184317D03*
X0268550Y0182545D03*
X0267723Y0182899D03*
X0267526Y0183017D03*
X0267054Y0183254D03*
X0269888Y0176285D03*
D131*
X0269495Y0176049D03*
X0267133Y0176049D03*
X0269888Y0181009D03*
X0268196Y0182545D03*
X0267054Y0186679D03*
X0269888Y0191639D03*
X0267723Y0193647D03*
X0277233Y0195428D03*
X0279595Y0195428D03*
X0277823Y0191176D03*
X0277154Y0186451D03*
X0279240Y0186451D03*
X0279516Y0186451D03*
X0279595Y0186451D03*
X0279713Y0186451D03*
X0279988Y0183971D03*
X0278571Y0182199D03*
X0278296Y0182317D03*
X0278099Y0182435D03*
X0276878Y0180782D03*
X0279044Y0178892D03*
X0279988Y0180782D03*
X0279044Y0176412D03*
X0277823Y0176412D03*
X0287971Y0162372D03*
X0287617Y0158711D03*
D132*
X0288778Y0162668D03*
X0268333Y0179887D03*
X0268806Y0184494D03*
X0278906Y0182258D03*
X0305351Y0107094D03*
X0302516Y0106150D03*
X0302516Y0104496D03*
D133*
X0301807Y0105382D03*
X0266680Y0190576D03*
D134*
X0301925Y0105382D03*
D135*
X0302063Y0105382D03*
X0305843Y0105382D03*
D136*
X0305725Y0105382D03*
X0302181Y0105382D03*
D137*
X0302280Y0105382D03*
D138*
X0302378Y0101189D03*
X0276878Y0177061D03*
D139*
X0302378Y0109516D03*
D140*
X0303933Y0104437D03*
X0278433Y0185624D03*
X0278433Y0187278D03*
X0268333Y0185852D03*
D141*
X0305607Y0105382D03*
D142*
X0305922Y0105382D03*
D143*
X0306040Y0105382D03*
D144*
X0241483Y0191223D03*
X0241325Y0191223D03*
X0241168Y0191223D03*
X0241010Y0191223D03*
X0240853Y0191223D03*
X0240696Y0191223D03*
X0240538Y0191223D03*
X0236129Y0191223D03*
X0235971Y0191223D03*
X0235814Y0191223D03*
X0235656Y0191223D03*
X0235499Y0191223D03*
X0235341Y0191223D03*
X0235184Y0191223D03*
D145*
X0255284Y0192617D03*
X0261583Y0192617D03*
D146*
X0261425Y0192538D03*
X0255441Y0192538D03*
D147*
X0255599Y0192380D03*
X0261268Y0192380D03*
D148*
X0261110Y0192302D03*
X0255756Y0192302D03*
D149*
X0256859Y0191750D03*
D150*
X0257016Y0191672D03*
D151*
X0257331Y0191514D03*
D152*
X0260953Y0192223D03*
D153*
X0299810Y0168463D02*
X0299534Y0167912D01*
X0299455Y0167557D01*
X0299455Y0167164D01*
X0299534Y0166731D01*
X0299770Y0166298D01*
X0300046Y0165943D01*
X0300361Y0165746D01*
X0300715Y0165628D01*
X0301030Y0165628D01*
X0301385Y0165707D01*
X0301739Y0165904D01*
X0302054Y0166180D01*
X0302408Y0166494D01*
X0302684Y0166770D01*
X0302999Y0166888D01*
X0303274Y0166888D01*
X0303510Y0166809D01*
X0303707Y0166652D01*
X0303865Y0166416D01*
X0303944Y0166101D01*
X0303944Y0165786D01*
X0303904Y0165589D01*
X0303825Y0165392D01*
X0303589Y0165156D01*
X0303471Y0165077D01*
X0303353Y0165038D01*
X0303196Y0165038D01*
X0303077Y0165077D01*
X0302841Y0165313D01*
X0302802Y0165431D01*
X0302723Y0165589D01*
X0302684Y0165628D01*
X0302605Y0165471D01*
X0302605Y0164998D01*
X0302644Y0164762D01*
X0302684Y0164565D01*
X0302762Y0164369D01*
X0302881Y0164211D01*
X0303038Y0164014D01*
X0303432Y0163778D01*
X0303707Y0163699D01*
X0304022Y0163660D01*
X0309416Y0163660D01*
X0309219Y0163857D01*
X0309022Y0163975D01*
X0308825Y0164172D01*
X0308589Y0164369D01*
X0308117Y0164841D01*
X0307566Y0165313D01*
X0307172Y0165707D01*
X0306936Y0166101D01*
X0306896Y0166337D01*
X0306896Y0167085D01*
X0306818Y0167557D01*
X0306699Y0167991D01*
X0306542Y0168384D01*
X0306306Y0168778D01*
X0306030Y0169093D01*
X0305715Y0169408D01*
X0305361Y0169683D01*
X0304652Y0170077D01*
X0303904Y0170274D01*
X0303235Y0170313D01*
X0302605Y0170195D01*
X0302014Y0169998D01*
X0301581Y0169723D01*
X0301227Y0169408D01*
X0301030Y0169093D01*
X0301385Y0169093D01*
X0301503Y0169054D01*
X0301581Y0169014D01*
X0301699Y0168896D01*
X0301739Y0168778D01*
X0301739Y0168660D01*
X0301660Y0168345D01*
X0301581Y0168187D01*
X0301503Y0168069D01*
X0301385Y0167912D01*
X0301148Y0167676D01*
X0300912Y0167518D01*
X0300755Y0167479D01*
X0300518Y0167479D01*
X0300400Y0167518D01*
X0300322Y0167557D01*
X0300203Y0167636D01*
X0300085Y0167794D01*
X0300007Y0167951D01*
X0299967Y0168148D01*
X0299928Y0168306D01*
X0299928Y0168542D01*
X0299967Y0168620D01*
X0299967Y0168660D01*
X0299928Y0168620D01*
X0299810Y0168463D01*
X0299795Y0168434D02*
X0299928Y0168434D01*
X0299970Y0168136D02*
X0299646Y0168136D01*
X0299518Y0167837D02*
X0300064Y0167837D01*
X0300359Y0167539D02*
X0299455Y0167539D01*
X0299455Y0167240D02*
X0306870Y0167240D01*
X0306896Y0166941D02*
X0299496Y0166941D01*
X0299582Y0166643D02*
X0302557Y0166643D01*
X0302239Y0166344D02*
X0299745Y0166344D01*
X0299966Y0166046D02*
X0301901Y0166046D01*
X0301457Y0165747D02*
X0300359Y0165747D01*
X0300943Y0167539D02*
X0306821Y0167539D01*
X0306741Y0167837D02*
X0301310Y0167837D01*
X0301547Y0168136D02*
X0306641Y0168136D01*
X0306512Y0168434D02*
X0301682Y0168434D01*
X0301739Y0168733D02*
X0306333Y0168733D01*
X0306084Y0169031D02*
X0301548Y0169031D01*
X0301178Y0169330D02*
X0305794Y0169330D01*
X0305432Y0169628D02*
X0301475Y0169628D01*
X0301902Y0169927D02*
X0304923Y0169927D01*
X0304090Y0170225D02*
X0302764Y0170225D01*
X0303713Y0166643D02*
X0306896Y0166643D01*
X0306896Y0166344D02*
X0303883Y0166344D01*
X0303944Y0166046D02*
X0306969Y0166046D01*
X0307148Y0165747D02*
X0303936Y0165747D01*
X0303848Y0165449D02*
X0307430Y0165449D01*
X0307756Y0165150D02*
X0303581Y0165150D01*
X0303004Y0165150D02*
X0302605Y0165150D01*
X0302605Y0165449D02*
X0302793Y0165449D01*
X0302629Y0164852D02*
X0308104Y0164852D01*
X0308404Y0164553D02*
X0302688Y0164553D01*
X0302848Y0164255D02*
X0308726Y0164255D01*
X0309053Y0163956D02*
X0303134Y0163956D01*
D154*
X0270676Y0186502D03*
X0265991Y0186502D03*
D155*
X0266109Y0186443D03*
X0270558Y0186443D03*
D156*
X0266207Y0186324D03*
D157*
X0266325Y0186265D03*
D158*
X0266463Y0186206D03*
X0270243Y0186206D03*
D159*
X0266581Y0186147D03*
D160*
X0266680Y0179887D03*
D161*
X0266778Y0177643D03*
D162*
X0266778Y0187328D03*
D163*
X0269751Y0184257D03*
X0266916Y0183194D03*
X0266916Y0181069D03*
X0277016Y0182967D03*
X0277961Y0182494D03*
X0279851Y0184030D03*
X0278906Y0190054D03*
X0277961Y0191235D03*
X0277016Y0192061D03*
X0268806Y0192525D03*
X0267861Y0193706D03*
X0277961Y0176471D03*
X0278906Y0176471D03*
D164*
X0279851Y0178656D03*
X0279378Y0184089D03*
X0277488Y0186451D03*
X0277961Y0193538D03*
X0277961Y0195664D03*
X0278433Y0195664D03*
X0278906Y0195664D03*
X0269751Y0195891D03*
X0269278Y0195891D03*
X0268806Y0195891D03*
X0268333Y0195891D03*
X0267861Y0195891D03*
X0267388Y0195891D03*
X0266916Y0195891D03*
X0267861Y0190222D03*
X0266916Y0188923D03*
X0267388Y0186679D03*
X0268806Y0182545D03*
D165*
X0268333Y0182427D03*
X0278433Y0182199D03*
X0277961Y0178892D03*
X0279378Y0186451D03*
D166*
X0270007Y0179179D03*
D167*
X0270007Y0189927D03*
X0270125Y0189927D03*
X0280107Y0189699D03*
D168*
X0270125Y0179356D03*
D169*
X0270322Y0186265D03*
D170*
X0270440Y0186324D03*
D171*
X0276091Y0185034D03*
X0280776Y0185034D03*
D172*
X0280658Y0185093D03*
X0276209Y0185093D03*
D173*
X0276307Y0185152D03*
D174*
X0276425Y0185211D03*
D175*
X0276563Y0185270D03*
X0280343Y0185270D03*
D176*
X0276681Y0185329D03*
D177*
X0276780Y0179187D03*
D178*
X0276780Y0190290D03*
D179*
X0276878Y0187396D03*
D180*
X0280107Y0178479D03*
D181*
X0280225Y0178538D03*
D182*
X0280225Y0189640D03*
D183*
X0280422Y0185211D03*
D184*
X0280540Y0185152D03*
D185*
X0259711Y0107404D03*
D186*
X0258333Y0106420D02*
X0252546Y0106420D01*
X0258333Y0106420D02*
X0258333Y0113703D01*
X0214121Y0106420D02*
X0208333Y0106420D01*
X0208333Y0113703D01*
X0208333Y0164097D02*
X0208333Y0171380D01*
X0214121Y0171380D01*
X0252546Y0171380D02*
X0258333Y0171380D01*
X0258333Y0164097D01*
D187*
X0196981Y0169231D02*
X0196981Y0173169D01*
X0190485Y0173169D02*
X0190485Y0169231D01*
D188*
X0197277Y0173956D03*
D189*
X0169078Y0124151D02*
X0168713Y0124354D01*
X0168522Y0124433D01*
X0156109Y0124433D01*
X0155981Y0124392D02*
X0155615Y0124193D01*
X0155448Y0124070D01*
X0155287Y0123937D01*
X0155136Y0123794D01*
X0154871Y0123472D01*
X0154672Y0123105D01*
X0154598Y0122912D01*
X0154536Y0122713D01*
X0154484Y0122511D01*
X0154442Y0122096D01*
X0154454Y0121889D01*
X0154475Y0121681D01*
X0154507Y0121476D01*
X0154631Y0121078D01*
X0154826Y0120709D01*
X0154942Y0120538D01*
X0155213Y0120221D01*
X0155534Y0119955D01*
X0155897Y0119751D01*
X0156087Y0119668D01*
X0156486Y0119547D01*
X0156901Y0119505D01*
X0157109Y0119496D01*
X0157775Y0119496D01*
X0157780Y0119660D01*
X0157780Y0120911D01*
X0157654Y0120793D01*
X0157489Y0120667D01*
X0157301Y0120577D01*
X0157099Y0120529D01*
X0156891Y0120515D01*
X0156684Y0120534D01*
X0156482Y0120581D01*
X0156288Y0120655D01*
X0156107Y0120759D01*
X0155952Y0120898D01*
X0155821Y0121060D01*
X0155715Y0121238D01*
X0155632Y0121429D01*
X0155582Y0121632D01*
X0155553Y0121838D01*
X0155539Y0122045D01*
X0155555Y0122253D01*
X0155588Y0122459D01*
X0155641Y0122660D01*
X0155727Y0122850D01*
X0155840Y0123024D01*
X0155978Y0123179D01*
X0156138Y0123311D01*
X0156321Y0123413D01*
X0156519Y0123476D01*
X0156723Y0123512D01*
X0156931Y0123525D01*
X0157138Y0123502D01*
X0157337Y0123442D01*
X0157522Y0123347D01*
X0157684Y0123215D01*
X0157780Y0123143D01*
X0157780Y0123381D01*
X0157785Y0123494D01*
X0158739Y0123494D01*
X0158737Y0123373D01*
X0158953Y0123386D01*
X0158911Y0123494D01*
X0159885Y0123494D01*
X0159913Y0123399D01*
X0160444Y0121599D01*
X0160503Y0121608D01*
X0161035Y0123490D01*
X0161170Y0123494D01*
X0161796Y0123494D01*
X0161973Y0123495D01*
X0162509Y0121664D01*
X0162548Y0121523D01*
X0163099Y0123343D01*
X0163145Y0123494D01*
X0163980Y0123494D01*
X0164248Y0123486D01*
X0164397Y0123494D01*
X0165162Y0123494D01*
X0165158Y0123447D01*
X0165362Y0123413D01*
X0165360Y0123494D01*
X0166324Y0123494D01*
X0166323Y0123351D01*
X0166897Y0123065D01*
X0167009Y0123172D01*
X0166683Y0123172D01*
X0166679Y0123172D02*
X0166320Y0123172D01*
X0166320Y0123220D02*
X0166585Y0123220D01*
X0167085Y0123220D01*
X0167160Y0123269D02*
X0166492Y0123269D01*
X0166488Y0123269D02*
X0166320Y0123269D01*
X0166320Y0123317D02*
X0166391Y0123317D01*
X0166398Y0123317D02*
X0167236Y0123317D01*
X0167312Y0123366D02*
X0166323Y0123366D01*
X0166320Y0123358D02*
X0166320Y0120551D01*
X0166275Y0120551D01*
X0165441Y0120551D01*
X0165358Y0120557D01*
X0165362Y0123417D01*
X0165158Y0123451D01*
X0165162Y0120554D01*
X0165020Y0120551D01*
X0164395Y0120551D01*
X0164199Y0120564D01*
X0164199Y0123486D01*
X0164084Y0123485D01*
X0164040Y0123356D01*
X0163026Y0120554D01*
X0162879Y0120551D01*
X0162254Y0120551D01*
X0162053Y0120561D01*
X0161499Y0122355D01*
X0161437Y0122183D01*
X0160931Y0120560D01*
X0160761Y0120551D01*
X0160136Y0120551D01*
X0159977Y0120553D01*
X0158947Y0123385D01*
X0158740Y0123374D01*
X0158748Y0119571D01*
X0158752Y0119496D01*
X0167641Y0119497D01*
X0168056Y0119538D01*
X0168259Y0119582D01*
X0168655Y0119712D01*
X0169021Y0119911D01*
X0169348Y0120169D01*
X0169496Y0120314D01*
X0169759Y0120638D01*
X0169958Y0121004D01*
X0170030Y0121199D01*
X0170092Y0121398D01*
X0170140Y0121600D01*
X0170182Y0122015D01*
X0170147Y0122430D01*
X0170111Y0122635D01*
X0169988Y0123033D01*
X0169791Y0123400D01*
X0169671Y0123571D01*
X0169539Y0123731D01*
X0169399Y0123885D01*
X0169078Y0124151D01*
X0169088Y0124142D02*
X0155545Y0124142D01*
X0155611Y0124190D02*
X0169006Y0124190D01*
X0168919Y0124239D02*
X0155699Y0124239D01*
X0155788Y0124287D02*
X0168832Y0124287D01*
X0168745Y0124336D02*
X0155877Y0124336D01*
X0155967Y0124385D02*
X0168639Y0124385D01*
X0168522Y0124433D02*
X0168122Y0124552D01*
X0167707Y0124594D01*
X0167633Y0124601D01*
X0156997Y0124601D01*
X0156582Y0124560D01*
X0156378Y0124519D01*
X0155981Y0124392D01*
X0156260Y0124482D02*
X0168359Y0124482D01*
X0168196Y0124530D02*
X0156432Y0124530D01*
X0156768Y0124579D02*
X0167858Y0124579D01*
X0167971Y0123519D02*
X0168208Y0123519D01*
X0168206Y0123337D01*
X0168206Y0122711D01*
X0168049Y0122726D01*
X0167845Y0122682D01*
X0167675Y0122564D01*
X0167559Y0122395D01*
X0167496Y0122200D01*
X0167471Y0121994D01*
X0167502Y0121787D01*
X0167578Y0121596D01*
X0167707Y0121438D01*
X0167885Y0121338D01*
X0168090Y0121303D01*
X0168206Y0121285D01*
X0168206Y0120499D01*
X0168069Y0120520D01*
X0167863Y0120543D01*
X0167452Y0120614D01*
X0167266Y0120702D01*
X0166914Y0120925D01*
X0166684Y0121273D01*
X0166593Y0121456D01*
X0166520Y0121867D01*
X0166506Y0122072D01*
X0166578Y0122483D01*
X0166635Y0122680D01*
X0166894Y0123060D01*
X0166320Y0123358D01*
X0166324Y0123414D02*
X0167430Y0123414D01*
X0167360Y0123396D02*
X0167560Y0123447D01*
X0167971Y0123519D01*
X0167928Y0123511D02*
X0157055Y0123511D01*
X0157270Y0123463D02*
X0157784Y0123463D01*
X0157781Y0123414D02*
X0157392Y0123414D01*
X0157486Y0123366D02*
X0157780Y0123366D01*
X0157780Y0123317D02*
X0157559Y0123317D01*
X0157618Y0123269D02*
X0157780Y0123269D01*
X0157780Y0123220D02*
X0157678Y0123220D01*
X0157741Y0123172D02*
X0157780Y0123172D01*
X0157402Y0122687D02*
X0156935Y0122687D01*
X0156988Y0122711D02*
X0156805Y0122627D01*
X0156658Y0122488D01*
X0156558Y0122308D01*
X0156527Y0122104D01*
X0156529Y0121900D01*
X0156565Y0121698D01*
X0156666Y0121518D01*
X0156817Y0121382D01*
X0157002Y0121305D01*
X0157204Y0121286D01*
X0157406Y0121329D01*
X0157570Y0121453D01*
X0157684Y0121621D01*
X0157750Y0121813D01*
X0157778Y0122017D01*
X0157747Y0122221D01*
X0157677Y0122411D01*
X0157559Y0122576D01*
X0157392Y0122694D01*
X0157190Y0122735D01*
X0157190Y0122735D01*
X0156988Y0122711D01*
X0156828Y0122638D02*
X0157471Y0122638D01*
X0157540Y0122590D02*
X0156765Y0122590D01*
X0156714Y0122541D02*
X0157584Y0122541D01*
X0157619Y0122493D02*
X0156664Y0122493D01*
X0156634Y0122444D02*
X0157654Y0122444D01*
X0157683Y0122396D02*
X0156607Y0122396D01*
X0156580Y0122347D02*
X0157701Y0122347D01*
X0157719Y0122299D02*
X0156557Y0122299D01*
X0156549Y0122250D02*
X0157737Y0122250D01*
X0157750Y0122202D02*
X0156542Y0122202D01*
X0156534Y0122153D02*
X0157758Y0122153D01*
X0157765Y0122104D02*
X0156527Y0122104D01*
X0156527Y0122056D02*
X0157773Y0122056D01*
X0157777Y0122007D02*
X0156528Y0122007D01*
X0156528Y0121959D02*
X0157770Y0121959D01*
X0157763Y0121910D02*
X0156529Y0121910D01*
X0156536Y0121862D02*
X0157756Y0121862D01*
X0157750Y0121813D02*
X0156544Y0121813D01*
X0156553Y0121765D02*
X0157733Y0121765D01*
X0157717Y0121716D02*
X0156562Y0121716D01*
X0156582Y0121668D02*
X0157700Y0121668D01*
X0157683Y0121619D02*
X0156609Y0121619D01*
X0156636Y0121571D02*
X0157650Y0121571D01*
X0157617Y0121522D02*
X0156663Y0121522D01*
X0156715Y0121474D02*
X0157585Y0121474D01*
X0157534Y0121425D02*
X0156769Y0121425D01*
X0156829Y0121377D02*
X0157470Y0121377D01*
X0157405Y0121328D02*
X0156946Y0121328D01*
X0157197Y0120552D02*
X0157780Y0120552D01*
X0157780Y0120504D02*
X0154972Y0120504D01*
X0154933Y0120552D02*
X0156607Y0120552D01*
X0156431Y0120601D02*
X0154900Y0120601D01*
X0154867Y0120649D02*
X0156304Y0120649D01*
X0156214Y0120698D02*
X0154834Y0120698D01*
X0154806Y0120746D02*
X0156129Y0120746D01*
X0156067Y0120795D02*
X0154781Y0120795D01*
X0154755Y0120843D02*
X0156013Y0120843D01*
X0155959Y0120892D02*
X0154729Y0120892D01*
X0154704Y0120940D02*
X0155918Y0120940D01*
X0155879Y0120989D02*
X0154678Y0120989D01*
X0154652Y0121037D02*
X0155839Y0121037D01*
X0155806Y0121086D02*
X0154629Y0121086D01*
X0154613Y0121134D02*
X0155777Y0121134D01*
X0155748Y0121183D02*
X0154598Y0121183D01*
X0154583Y0121231D02*
X0155719Y0121231D01*
X0155697Y0121280D02*
X0154568Y0121280D01*
X0154553Y0121328D02*
X0155676Y0121328D01*
X0155655Y0121377D02*
X0154538Y0121377D01*
X0154523Y0121425D02*
X0155634Y0121425D01*
X0155621Y0121474D02*
X0154508Y0121474D01*
X0154500Y0121522D02*
X0155609Y0121522D01*
X0155597Y0121571D02*
X0154492Y0121571D01*
X0154484Y0121619D02*
X0155585Y0121619D01*
X0155577Y0121668D02*
X0154477Y0121668D01*
X0154471Y0121716D02*
X0155570Y0121716D01*
X0155564Y0121765D02*
X0154466Y0121765D01*
X0154461Y0121813D02*
X0155557Y0121813D01*
X0155552Y0121862D02*
X0154456Y0121862D01*
X0154452Y0121910D02*
X0155548Y0121910D01*
X0155545Y0121959D02*
X0154450Y0121959D01*
X0154447Y0122007D02*
X0155542Y0122007D01*
X0155540Y0122056D02*
X0154445Y0122056D01*
X0154443Y0122104D02*
X0155543Y0122104D01*
X0155547Y0122153D02*
X0154448Y0122153D01*
X0154453Y0122202D02*
X0155551Y0122202D01*
X0155555Y0122250D02*
X0154458Y0122250D01*
X0154463Y0122299D02*
X0155562Y0122299D01*
X0155570Y0122347D02*
X0154468Y0122347D01*
X0154472Y0122396D02*
X0155578Y0122396D01*
X0155586Y0122444D02*
X0154477Y0122444D01*
X0154482Y0122493D02*
X0155597Y0122493D01*
X0155609Y0122541D02*
X0154492Y0122541D01*
X0154504Y0122590D02*
X0155622Y0122590D01*
X0155635Y0122638D02*
X0154517Y0122638D01*
X0154529Y0122687D02*
X0155653Y0122687D01*
X0155675Y0122735D02*
X0154543Y0122735D01*
X0154558Y0122784D02*
X0155697Y0122784D01*
X0155719Y0122832D02*
X0154573Y0122832D01*
X0154588Y0122881D02*
X0155747Y0122881D01*
X0155779Y0122929D02*
X0154604Y0122929D01*
X0154623Y0122978D02*
X0155810Y0122978D01*
X0155842Y0123026D02*
X0154642Y0123026D01*
X0154661Y0123075D02*
X0155885Y0123075D01*
X0155928Y0123123D02*
X0154682Y0123123D01*
X0154708Y0123172D02*
X0155971Y0123172D01*
X0156027Y0123220D02*
X0154735Y0123220D01*
X0154761Y0123269D02*
X0156087Y0123269D01*
X0156150Y0123317D02*
X0154787Y0123317D01*
X0154814Y0123366D02*
X0156237Y0123366D01*
X0156326Y0123414D02*
X0154840Y0123414D01*
X0154866Y0123463D02*
X0156477Y0123463D01*
X0156721Y0123511D02*
X0154904Y0123511D01*
X0154944Y0123560D02*
X0169679Y0123560D01*
X0169713Y0123511D02*
X0168208Y0123511D01*
X0168208Y0123463D02*
X0169747Y0123463D01*
X0169781Y0123414D02*
X0168207Y0123414D01*
X0168206Y0123366D02*
X0169809Y0123366D01*
X0169835Y0123317D02*
X0168206Y0123317D01*
X0168206Y0123269D02*
X0169861Y0123269D01*
X0169887Y0123220D02*
X0168206Y0123220D01*
X0168206Y0123172D02*
X0169913Y0123172D01*
X0169939Y0123123D02*
X0168206Y0123123D01*
X0168206Y0123075D02*
X0169965Y0123075D01*
X0169990Y0123026D02*
X0168206Y0123026D01*
X0168206Y0122978D02*
X0170005Y0122978D01*
X0170020Y0122929D02*
X0168206Y0122929D01*
X0168206Y0122881D02*
X0170035Y0122881D01*
X0170050Y0122832D02*
X0168206Y0122832D01*
X0168206Y0122784D02*
X0170065Y0122784D01*
X0170080Y0122735D02*
X0168206Y0122735D01*
X0167868Y0122687D02*
X0170095Y0122687D01*
X0170110Y0122638D02*
X0167782Y0122638D01*
X0167712Y0122590D02*
X0170119Y0122590D01*
X0170128Y0122541D02*
X0167659Y0122541D01*
X0167626Y0122493D02*
X0170136Y0122493D01*
X0170145Y0122444D02*
X0167593Y0122444D01*
X0167560Y0122396D02*
X0170150Y0122396D01*
X0170154Y0122347D02*
X0167544Y0122347D01*
X0167528Y0122299D02*
X0170158Y0122299D01*
X0170162Y0122250D02*
X0167512Y0122250D01*
X0167496Y0122202D02*
X0170166Y0122202D01*
X0170171Y0122153D02*
X0167490Y0122153D01*
X0167484Y0122104D02*
X0170175Y0122104D01*
X0170179Y0122056D02*
X0167479Y0122056D01*
X0167473Y0122007D02*
X0170181Y0122007D01*
X0170176Y0121959D02*
X0167476Y0121959D01*
X0167484Y0121910D02*
X0170172Y0121910D01*
X0170167Y0121862D02*
X0167491Y0121862D01*
X0167498Y0121813D02*
X0170162Y0121813D01*
X0170157Y0121765D02*
X0167511Y0121765D01*
X0167530Y0121716D02*
X0170152Y0121716D01*
X0170147Y0121668D02*
X0167550Y0121668D01*
X0167569Y0121619D02*
X0170142Y0121619D01*
X0170133Y0121571D02*
X0167599Y0121571D01*
X0167639Y0121522D02*
X0170121Y0121522D01*
X0170110Y0121474D02*
X0167678Y0121474D01*
X0167730Y0121425D02*
X0170098Y0121425D01*
X0170085Y0121377D02*
X0167817Y0121377D01*
X0167943Y0121328D02*
X0170070Y0121328D01*
X0170055Y0121280D02*
X0168206Y0121280D01*
X0168206Y0121231D02*
X0170040Y0121231D01*
X0170024Y0121183D02*
X0168206Y0121183D01*
X0168206Y0121134D02*
X0170006Y0121134D01*
X0169988Y0121086D02*
X0168206Y0121086D01*
X0168206Y0121037D02*
X0169970Y0121037D01*
X0169949Y0120989D02*
X0168206Y0120989D01*
X0168206Y0120940D02*
X0169923Y0120940D01*
X0169896Y0120892D02*
X0168206Y0120892D01*
X0168206Y0120843D02*
X0169870Y0120843D01*
X0169844Y0120795D02*
X0168206Y0120795D01*
X0168206Y0120746D02*
X0169817Y0120746D01*
X0169791Y0120698D02*
X0168206Y0120698D01*
X0168206Y0120649D02*
X0169765Y0120649D01*
X0169728Y0120601D02*
X0168206Y0120601D01*
X0168206Y0120552D02*
X0169689Y0120552D01*
X0169650Y0120504D02*
X0168206Y0120504D01*
X0168178Y0120504D02*
X0158746Y0120504D01*
X0158746Y0120552D02*
X0160072Y0120552D01*
X0159959Y0120601D02*
X0158746Y0120601D01*
X0158746Y0120649D02*
X0159942Y0120649D01*
X0159924Y0120698D02*
X0158746Y0120698D01*
X0158746Y0120746D02*
X0159907Y0120746D01*
X0159889Y0120795D02*
X0158745Y0120795D01*
X0158745Y0120843D02*
X0159871Y0120843D01*
X0159854Y0120892D02*
X0158745Y0120892D01*
X0158745Y0120940D02*
X0159836Y0120940D01*
X0159818Y0120989D02*
X0158745Y0120989D01*
X0158745Y0121037D02*
X0159801Y0121037D01*
X0159783Y0121086D02*
X0158745Y0121086D01*
X0158745Y0121134D02*
X0159765Y0121134D01*
X0159748Y0121183D02*
X0158745Y0121183D01*
X0158745Y0121231D02*
X0159730Y0121231D01*
X0159713Y0121280D02*
X0158744Y0121280D01*
X0158744Y0121328D02*
X0159695Y0121328D01*
X0159677Y0121377D02*
X0158744Y0121377D01*
X0158744Y0121425D02*
X0159660Y0121425D01*
X0159642Y0121474D02*
X0158744Y0121474D01*
X0158744Y0121522D02*
X0159624Y0121522D01*
X0159607Y0121571D02*
X0158744Y0121571D01*
X0158744Y0121619D02*
X0159589Y0121619D01*
X0159571Y0121668D02*
X0158744Y0121668D01*
X0158744Y0121716D02*
X0159554Y0121716D01*
X0159536Y0121765D02*
X0158743Y0121765D01*
X0158743Y0121813D02*
X0159518Y0121813D01*
X0159501Y0121862D02*
X0158743Y0121862D01*
X0158743Y0121910D02*
X0159483Y0121910D01*
X0159466Y0121959D02*
X0158743Y0121959D01*
X0158743Y0122007D02*
X0159448Y0122007D01*
X0159430Y0122056D02*
X0158743Y0122056D01*
X0158743Y0122104D02*
X0159413Y0122104D01*
X0159395Y0122153D02*
X0158743Y0122153D01*
X0158743Y0122202D02*
X0159377Y0122202D01*
X0159360Y0122250D02*
X0158742Y0122250D01*
X0158742Y0122299D02*
X0159342Y0122299D01*
X0159324Y0122347D02*
X0158742Y0122347D01*
X0158742Y0122396D02*
X0159307Y0122396D01*
X0159289Y0122444D02*
X0158742Y0122444D01*
X0158742Y0122493D02*
X0159271Y0122493D01*
X0159254Y0122541D02*
X0158742Y0122541D01*
X0158742Y0122590D02*
X0159236Y0122590D01*
X0159219Y0122638D02*
X0158742Y0122638D01*
X0158742Y0122687D02*
X0159201Y0122687D01*
X0159183Y0122735D02*
X0158741Y0122735D01*
X0158741Y0122784D02*
X0159166Y0122784D01*
X0159148Y0122832D02*
X0158741Y0122832D01*
X0158741Y0122881D02*
X0159130Y0122881D01*
X0159113Y0122929D02*
X0158741Y0122929D01*
X0158741Y0122978D02*
X0159095Y0122978D01*
X0159077Y0123026D02*
X0158741Y0123026D01*
X0158741Y0123075D02*
X0159060Y0123075D01*
X0159042Y0123123D02*
X0158741Y0123123D01*
X0158741Y0123172D02*
X0159024Y0123172D01*
X0159007Y0123220D02*
X0158740Y0123220D01*
X0158740Y0123269D02*
X0158989Y0123269D01*
X0158972Y0123317D02*
X0158740Y0123317D01*
X0158740Y0123366D02*
X0158954Y0123366D01*
X0158942Y0123414D02*
X0158738Y0123414D01*
X0158739Y0123463D02*
X0158923Y0123463D01*
X0159895Y0123463D02*
X0161027Y0123463D01*
X0161013Y0123414D02*
X0159909Y0123414D01*
X0159923Y0123366D02*
X0161000Y0123366D01*
X0160986Y0123317D02*
X0159937Y0123317D01*
X0159951Y0123269D02*
X0160972Y0123269D01*
X0160958Y0123220D02*
X0159966Y0123220D01*
X0159980Y0123172D02*
X0160945Y0123172D01*
X0160931Y0123123D02*
X0159994Y0123123D01*
X0160009Y0123075D02*
X0160917Y0123075D01*
X0160904Y0123026D02*
X0160023Y0123026D01*
X0160037Y0122978D02*
X0160890Y0122978D01*
X0160876Y0122929D02*
X0160052Y0122929D01*
X0160066Y0122881D02*
X0160862Y0122881D01*
X0160849Y0122832D02*
X0160080Y0122832D01*
X0160095Y0122784D02*
X0160835Y0122784D01*
X0160821Y0122735D02*
X0160109Y0122735D01*
X0160123Y0122687D02*
X0160808Y0122687D01*
X0160794Y0122638D02*
X0160138Y0122638D01*
X0160152Y0122590D02*
X0160780Y0122590D01*
X0160766Y0122541D02*
X0160166Y0122541D01*
X0160181Y0122493D02*
X0160753Y0122493D01*
X0160739Y0122444D02*
X0160195Y0122444D01*
X0160209Y0122396D02*
X0160725Y0122396D01*
X0160712Y0122347D02*
X0160223Y0122347D01*
X0160238Y0122299D02*
X0160698Y0122299D01*
X0160684Y0122250D02*
X0160252Y0122250D01*
X0160266Y0122202D02*
X0160671Y0122202D01*
X0160657Y0122153D02*
X0160281Y0122153D01*
X0160295Y0122104D02*
X0160643Y0122104D01*
X0160629Y0122056D02*
X0160309Y0122056D01*
X0160324Y0122007D02*
X0160616Y0122007D01*
X0160602Y0121959D02*
X0160338Y0121959D01*
X0160352Y0121910D02*
X0160588Y0121910D01*
X0160575Y0121862D02*
X0160367Y0121862D01*
X0160381Y0121813D02*
X0160561Y0121813D01*
X0160547Y0121765D02*
X0160395Y0121765D01*
X0160410Y0121716D02*
X0160533Y0121716D01*
X0160520Y0121668D02*
X0160424Y0121668D01*
X0160438Y0121619D02*
X0160506Y0121619D01*
X0161201Y0121425D02*
X0161786Y0121425D01*
X0161801Y0121377D02*
X0161186Y0121377D01*
X0161171Y0121328D02*
X0161816Y0121328D01*
X0161831Y0121280D02*
X0161156Y0121280D01*
X0161141Y0121231D02*
X0161846Y0121231D01*
X0161861Y0121183D02*
X0161126Y0121183D01*
X0161111Y0121134D02*
X0161876Y0121134D01*
X0161891Y0121086D02*
X0161095Y0121086D01*
X0161080Y0121037D02*
X0161906Y0121037D01*
X0161921Y0120989D02*
X0161065Y0120989D01*
X0161050Y0120940D02*
X0161936Y0120940D01*
X0161951Y0120892D02*
X0161035Y0120892D01*
X0161020Y0120843D02*
X0161966Y0120843D01*
X0161980Y0120795D02*
X0161005Y0120795D01*
X0160990Y0120746D02*
X0161995Y0120746D01*
X0162010Y0120698D02*
X0160974Y0120698D01*
X0160959Y0120649D02*
X0162025Y0120649D01*
X0162040Y0120601D02*
X0160944Y0120601D01*
X0160779Y0120552D02*
X0162235Y0120552D01*
X0162924Y0120552D02*
X0164381Y0120552D01*
X0164199Y0120601D02*
X0163043Y0120601D01*
X0163060Y0120649D02*
X0164199Y0120649D01*
X0164199Y0120698D02*
X0163078Y0120698D01*
X0163096Y0120746D02*
X0164199Y0120746D01*
X0164199Y0120795D02*
X0163113Y0120795D01*
X0163131Y0120843D02*
X0164199Y0120843D01*
X0164199Y0120892D02*
X0163148Y0120892D01*
X0163166Y0120940D02*
X0164199Y0120940D01*
X0164199Y0120989D02*
X0163183Y0120989D01*
X0163201Y0121037D02*
X0164199Y0121037D01*
X0164199Y0121086D02*
X0163218Y0121086D01*
X0163236Y0121134D02*
X0164199Y0121134D01*
X0164199Y0121183D02*
X0163253Y0121183D01*
X0163271Y0121231D02*
X0164199Y0121231D01*
X0164199Y0121280D02*
X0163289Y0121280D01*
X0163306Y0121328D02*
X0164199Y0121328D01*
X0164199Y0121377D02*
X0163324Y0121377D01*
X0163341Y0121425D02*
X0164199Y0121425D01*
X0164199Y0121474D02*
X0163359Y0121474D01*
X0163376Y0121522D02*
X0164199Y0121522D01*
X0164199Y0121571D02*
X0163394Y0121571D01*
X0163411Y0121619D02*
X0164199Y0121619D01*
X0164199Y0121668D02*
X0163429Y0121668D01*
X0163446Y0121716D02*
X0164199Y0121716D01*
X0164199Y0121765D02*
X0163464Y0121765D01*
X0163482Y0121813D02*
X0164199Y0121813D01*
X0164199Y0121862D02*
X0163499Y0121862D01*
X0163517Y0121910D02*
X0164199Y0121910D01*
X0164199Y0121959D02*
X0163534Y0121959D01*
X0163552Y0122007D02*
X0164199Y0122007D01*
X0164199Y0122056D02*
X0163569Y0122056D01*
X0163587Y0122104D02*
X0164199Y0122104D01*
X0164199Y0122153D02*
X0163604Y0122153D01*
X0163622Y0122202D02*
X0164199Y0122202D01*
X0164199Y0122250D02*
X0163640Y0122250D01*
X0163657Y0122299D02*
X0164199Y0122299D01*
X0164199Y0122347D02*
X0163675Y0122347D01*
X0163692Y0122396D02*
X0164199Y0122396D01*
X0164199Y0122444D02*
X0163710Y0122444D01*
X0163727Y0122493D02*
X0164199Y0122493D01*
X0164199Y0122541D02*
X0163745Y0122541D01*
X0163762Y0122590D02*
X0164199Y0122590D01*
X0164199Y0122638D02*
X0163780Y0122638D01*
X0163797Y0122687D02*
X0164199Y0122687D01*
X0164199Y0122735D02*
X0163815Y0122735D01*
X0163833Y0122784D02*
X0164199Y0122784D01*
X0164199Y0122832D02*
X0163850Y0122832D01*
X0163868Y0122881D02*
X0164199Y0122881D01*
X0164199Y0122929D02*
X0163885Y0122929D01*
X0163903Y0122978D02*
X0164199Y0122978D01*
X0164199Y0123026D02*
X0163920Y0123026D01*
X0163938Y0123075D02*
X0164199Y0123075D01*
X0164199Y0123123D02*
X0163955Y0123123D01*
X0163973Y0123172D02*
X0164199Y0123172D01*
X0164199Y0123220D02*
X0163990Y0123220D01*
X0164008Y0123269D02*
X0164199Y0123269D01*
X0164199Y0123317D02*
X0164026Y0123317D01*
X0164043Y0123366D02*
X0164199Y0123366D01*
X0164199Y0123414D02*
X0164060Y0123414D01*
X0164076Y0123463D02*
X0164199Y0123463D01*
X0165158Y0123414D02*
X0165356Y0123414D01*
X0165361Y0123414D02*
X0165362Y0123414D01*
X0165361Y0123366D02*
X0165158Y0123366D01*
X0165158Y0123317D02*
X0165361Y0123317D01*
X0165361Y0123269D02*
X0165158Y0123269D01*
X0165158Y0123220D02*
X0165361Y0123220D01*
X0165361Y0123172D02*
X0165158Y0123172D01*
X0165158Y0123123D02*
X0165361Y0123123D01*
X0165361Y0123075D02*
X0165158Y0123075D01*
X0165158Y0123026D02*
X0165361Y0123026D01*
X0165361Y0122978D02*
X0165159Y0122978D01*
X0165159Y0122929D02*
X0165361Y0122929D01*
X0165361Y0122881D02*
X0165159Y0122881D01*
X0165159Y0122832D02*
X0165361Y0122832D01*
X0165361Y0122784D02*
X0165159Y0122784D01*
X0165159Y0122735D02*
X0165361Y0122735D01*
X0165360Y0122687D02*
X0165159Y0122687D01*
X0165159Y0122638D02*
X0165360Y0122638D01*
X0165360Y0122590D02*
X0165159Y0122590D01*
X0165159Y0122541D02*
X0165360Y0122541D01*
X0165360Y0122493D02*
X0165159Y0122493D01*
X0165159Y0122444D02*
X0165360Y0122444D01*
X0165360Y0122396D02*
X0165159Y0122396D01*
X0165159Y0122347D02*
X0165360Y0122347D01*
X0165360Y0122299D02*
X0165159Y0122299D01*
X0165160Y0122250D02*
X0165360Y0122250D01*
X0165360Y0122202D02*
X0165160Y0122202D01*
X0165160Y0122153D02*
X0165360Y0122153D01*
X0165360Y0122104D02*
X0165160Y0122104D01*
X0165160Y0122056D02*
X0165360Y0122056D01*
X0165360Y0122007D02*
X0165160Y0122007D01*
X0165160Y0121959D02*
X0165359Y0121959D01*
X0165359Y0121910D02*
X0165160Y0121910D01*
X0165160Y0121862D02*
X0165359Y0121862D01*
X0165359Y0121813D02*
X0165160Y0121813D01*
X0165160Y0121765D02*
X0165359Y0121765D01*
X0165359Y0121716D02*
X0165160Y0121716D01*
X0165160Y0121668D02*
X0165359Y0121668D01*
X0165359Y0121619D02*
X0165160Y0121619D01*
X0165160Y0121571D02*
X0165359Y0121571D01*
X0165359Y0121522D02*
X0165161Y0121522D01*
X0165161Y0121474D02*
X0165359Y0121474D01*
X0165359Y0121425D02*
X0165161Y0121425D01*
X0165161Y0121377D02*
X0165359Y0121377D01*
X0165359Y0121328D02*
X0165161Y0121328D01*
X0165161Y0121280D02*
X0165359Y0121280D01*
X0165358Y0121231D02*
X0165161Y0121231D01*
X0165161Y0121183D02*
X0165358Y0121183D01*
X0165358Y0121134D02*
X0165161Y0121134D01*
X0165161Y0121086D02*
X0165358Y0121086D01*
X0165358Y0121037D02*
X0165161Y0121037D01*
X0165161Y0120989D02*
X0165358Y0120989D01*
X0165358Y0120940D02*
X0165161Y0120940D01*
X0165161Y0120892D02*
X0165358Y0120892D01*
X0165358Y0120843D02*
X0165161Y0120843D01*
X0165161Y0120795D02*
X0165358Y0120795D01*
X0165358Y0120746D02*
X0165162Y0120746D01*
X0165162Y0120698D02*
X0165358Y0120698D01*
X0165358Y0120649D02*
X0165162Y0120649D01*
X0165162Y0120601D02*
X0165358Y0120601D01*
X0165427Y0120552D02*
X0165065Y0120552D01*
X0166320Y0120552D02*
X0167812Y0120552D01*
X0167530Y0120601D02*
X0166320Y0120601D01*
X0166320Y0120649D02*
X0167378Y0120649D01*
X0167275Y0120698D02*
X0166320Y0120698D01*
X0166320Y0120746D02*
X0167196Y0120746D01*
X0167119Y0120795D02*
X0166320Y0120795D01*
X0166320Y0120843D02*
X0167043Y0120843D01*
X0166966Y0120892D02*
X0166320Y0120892D01*
X0166320Y0120940D02*
X0166904Y0120940D01*
X0166872Y0120989D02*
X0166320Y0120989D01*
X0166320Y0121037D02*
X0166840Y0121037D01*
X0166808Y0121086D02*
X0166320Y0121086D01*
X0166320Y0121134D02*
X0166776Y0121134D01*
X0166744Y0121183D02*
X0166320Y0121183D01*
X0166320Y0121231D02*
X0166712Y0121231D01*
X0166681Y0121280D02*
X0166320Y0121280D01*
X0166320Y0121328D02*
X0166657Y0121328D01*
X0166632Y0121377D02*
X0166320Y0121377D01*
X0166320Y0121425D02*
X0166608Y0121425D01*
X0166590Y0121474D02*
X0166320Y0121474D01*
X0166320Y0121522D02*
X0166581Y0121522D01*
X0166572Y0121571D02*
X0166320Y0121571D01*
X0166320Y0121619D02*
X0166564Y0121619D01*
X0166555Y0121668D02*
X0166320Y0121668D01*
X0166320Y0121716D02*
X0166546Y0121716D01*
X0166538Y0121765D02*
X0166320Y0121765D01*
X0166320Y0121813D02*
X0166529Y0121813D01*
X0166521Y0121862D02*
X0166320Y0121862D01*
X0166320Y0121910D02*
X0166517Y0121910D01*
X0166513Y0121959D02*
X0166320Y0121959D01*
X0166320Y0122007D02*
X0166510Y0122007D01*
X0166507Y0122056D02*
X0166320Y0122056D01*
X0166320Y0122104D02*
X0166511Y0122104D01*
X0166520Y0122153D02*
X0166320Y0122153D01*
X0166320Y0122202D02*
X0166528Y0122202D01*
X0166537Y0122250D02*
X0166320Y0122250D01*
X0166320Y0122299D02*
X0166545Y0122299D01*
X0166554Y0122347D02*
X0166320Y0122347D01*
X0166320Y0122396D02*
X0166562Y0122396D01*
X0166571Y0122444D02*
X0166320Y0122444D01*
X0166320Y0122493D02*
X0166581Y0122493D01*
X0166595Y0122541D02*
X0166320Y0122541D01*
X0166320Y0122590D02*
X0166609Y0122590D01*
X0166623Y0122638D02*
X0166320Y0122638D01*
X0166320Y0122687D02*
X0166640Y0122687D01*
X0166673Y0122735D02*
X0166320Y0122735D01*
X0166320Y0122784D02*
X0166706Y0122784D01*
X0166739Y0122832D02*
X0166320Y0122832D01*
X0166320Y0122881D02*
X0166772Y0122881D01*
X0166805Y0122929D02*
X0166320Y0122929D01*
X0166320Y0122978D02*
X0166838Y0122978D01*
X0166871Y0123026D02*
X0166320Y0123026D01*
X0166320Y0123075D02*
X0166866Y0123075D01*
X0166877Y0123075D02*
X0166908Y0123075D01*
X0166958Y0123123D02*
X0166780Y0123123D01*
X0166772Y0123123D02*
X0166320Y0123123D01*
X0166324Y0123463D02*
X0167650Y0123463D01*
X0167360Y0123396D02*
X0167009Y0123172D01*
X0165360Y0123463D02*
X0165159Y0123463D01*
X0163135Y0123463D02*
X0161982Y0123463D01*
X0161996Y0123414D02*
X0163120Y0123414D01*
X0163106Y0123366D02*
X0162010Y0123366D01*
X0162025Y0123317D02*
X0163091Y0123317D01*
X0163076Y0123269D02*
X0162039Y0123269D01*
X0162053Y0123220D02*
X0163062Y0123220D01*
X0163047Y0123172D02*
X0162067Y0123172D01*
X0162081Y0123123D02*
X0163032Y0123123D01*
X0163018Y0123075D02*
X0162096Y0123075D01*
X0162110Y0123026D02*
X0163003Y0123026D01*
X0162988Y0122978D02*
X0162124Y0122978D01*
X0162138Y0122929D02*
X0162974Y0122929D01*
X0162959Y0122881D02*
X0162153Y0122881D01*
X0162167Y0122832D02*
X0162944Y0122832D01*
X0162930Y0122784D02*
X0162181Y0122784D01*
X0162195Y0122735D02*
X0162915Y0122735D01*
X0162900Y0122687D02*
X0162209Y0122687D01*
X0162224Y0122638D02*
X0162885Y0122638D01*
X0162871Y0122590D02*
X0162238Y0122590D01*
X0162252Y0122541D02*
X0162856Y0122541D01*
X0162841Y0122493D02*
X0162266Y0122493D01*
X0162280Y0122444D02*
X0162827Y0122444D01*
X0162812Y0122396D02*
X0162295Y0122396D01*
X0162309Y0122347D02*
X0162797Y0122347D01*
X0162783Y0122299D02*
X0162323Y0122299D01*
X0162337Y0122250D02*
X0162768Y0122250D01*
X0162753Y0122202D02*
X0162352Y0122202D01*
X0162366Y0122153D02*
X0162739Y0122153D01*
X0162724Y0122104D02*
X0162380Y0122104D01*
X0162394Y0122056D02*
X0162709Y0122056D01*
X0162695Y0122007D02*
X0162408Y0122007D01*
X0162423Y0121959D02*
X0162680Y0121959D01*
X0162665Y0121910D02*
X0162437Y0121910D01*
X0162451Y0121862D02*
X0162650Y0121862D01*
X0162636Y0121813D02*
X0162465Y0121813D01*
X0162479Y0121765D02*
X0162621Y0121765D01*
X0162606Y0121716D02*
X0162494Y0121716D01*
X0162508Y0121668D02*
X0162592Y0121668D01*
X0162577Y0121619D02*
X0162521Y0121619D01*
X0162535Y0121571D02*
X0162562Y0121571D01*
X0161771Y0121474D02*
X0161216Y0121474D01*
X0161232Y0121522D02*
X0161756Y0121522D01*
X0161741Y0121571D02*
X0161247Y0121571D01*
X0161262Y0121619D02*
X0161726Y0121619D01*
X0161711Y0121668D02*
X0161277Y0121668D01*
X0161292Y0121716D02*
X0161696Y0121716D01*
X0161681Y0121765D02*
X0161307Y0121765D01*
X0161322Y0121813D02*
X0161666Y0121813D01*
X0161651Y0121862D02*
X0161337Y0121862D01*
X0161353Y0121910D02*
X0161636Y0121910D01*
X0161621Y0121959D02*
X0161368Y0121959D01*
X0161383Y0122007D02*
X0161607Y0122007D01*
X0161592Y0122056D02*
X0161398Y0122056D01*
X0161413Y0122104D02*
X0161577Y0122104D01*
X0161562Y0122153D02*
X0161428Y0122153D01*
X0161444Y0122202D02*
X0161547Y0122202D01*
X0161532Y0122250D02*
X0161462Y0122250D01*
X0161479Y0122299D02*
X0161517Y0122299D01*
X0161502Y0122347D02*
X0161497Y0122347D01*
X0158746Y0120455D02*
X0169610Y0120455D01*
X0169571Y0120407D02*
X0158746Y0120407D01*
X0158746Y0120358D02*
X0169532Y0120358D01*
X0169491Y0120310D02*
X0158746Y0120310D01*
X0158747Y0120261D02*
X0169442Y0120261D01*
X0169392Y0120213D02*
X0158747Y0120213D01*
X0158747Y0120164D02*
X0169341Y0120164D01*
X0169280Y0120116D02*
X0158747Y0120116D01*
X0158747Y0120067D02*
X0169219Y0120067D01*
X0169157Y0120019D02*
X0158747Y0120019D01*
X0158747Y0119970D02*
X0169096Y0119970D01*
X0169035Y0119921D02*
X0158747Y0119921D01*
X0158747Y0119873D02*
X0168952Y0119873D01*
X0168862Y0119824D02*
X0158747Y0119824D01*
X0158748Y0119776D02*
X0168773Y0119776D01*
X0168684Y0119727D02*
X0158748Y0119727D01*
X0158748Y0119679D02*
X0168554Y0119679D01*
X0168406Y0119630D02*
X0158748Y0119630D01*
X0158748Y0119582D02*
X0168257Y0119582D01*
X0168005Y0119533D02*
X0158750Y0119533D01*
X0157777Y0119582D02*
X0156371Y0119582D01*
X0156211Y0119630D02*
X0157779Y0119630D01*
X0157780Y0119679D02*
X0156063Y0119679D01*
X0155950Y0119727D02*
X0157780Y0119727D01*
X0157780Y0119776D02*
X0155852Y0119776D01*
X0155766Y0119824D02*
X0157780Y0119824D01*
X0157780Y0119873D02*
X0155680Y0119873D01*
X0155594Y0119921D02*
X0157780Y0119921D01*
X0157780Y0119970D02*
X0155517Y0119970D01*
X0155458Y0120019D02*
X0157780Y0120019D01*
X0157780Y0120067D02*
X0155399Y0120067D01*
X0155340Y0120116D02*
X0157780Y0120116D01*
X0157780Y0120164D02*
X0155281Y0120164D01*
X0155223Y0120213D02*
X0157780Y0120213D01*
X0157780Y0120261D02*
X0155178Y0120261D01*
X0155137Y0120310D02*
X0157780Y0120310D01*
X0157780Y0120358D02*
X0155096Y0120358D01*
X0155054Y0120407D02*
X0157780Y0120407D01*
X0157780Y0120455D02*
X0155013Y0120455D01*
X0156618Y0119533D02*
X0157776Y0119533D01*
X0157780Y0120601D02*
X0157351Y0120601D01*
X0157453Y0120649D02*
X0157780Y0120649D01*
X0157780Y0120698D02*
X0157530Y0120698D01*
X0157593Y0120746D02*
X0157780Y0120746D01*
X0157780Y0120795D02*
X0157656Y0120795D01*
X0157708Y0120843D02*
X0157780Y0120843D01*
X0157780Y0120892D02*
X0157759Y0120892D01*
X0154983Y0123608D02*
X0169640Y0123608D01*
X0169600Y0123657D02*
X0155023Y0123657D01*
X0155063Y0123705D02*
X0169560Y0123705D01*
X0169518Y0123754D02*
X0155103Y0123754D01*
X0155145Y0123802D02*
X0169474Y0123802D01*
X0169431Y0123851D02*
X0155196Y0123851D01*
X0155247Y0123899D02*
X0169382Y0123899D01*
X0169324Y0123948D02*
X0155299Y0123948D01*
X0155358Y0123996D02*
X0169265Y0123996D01*
X0169206Y0124045D02*
X0155417Y0124045D01*
X0155479Y0124093D02*
X0169147Y0124093D01*
X0296507Y0155476D02*
X0296631Y0155078D01*
X0296826Y0154709D01*
X0296942Y0154538D01*
X0297213Y0154221D01*
X0297534Y0153955D01*
X0297897Y0153751D01*
X0298087Y0153668D01*
X0298486Y0153547D01*
X0298901Y0153505D01*
X0299109Y0153496D01*
X0299775Y0153496D01*
X0299780Y0153660D01*
X0299780Y0154911D01*
X0299654Y0154793D01*
X0299489Y0154667D01*
X0299301Y0154577D01*
X0299099Y0154529D01*
X0298891Y0154515D01*
X0298684Y0154534D01*
X0298482Y0154581D01*
X0298288Y0154655D01*
X0298107Y0154759D01*
X0297952Y0154898D01*
X0297821Y0155060D01*
X0297715Y0155238D01*
X0297632Y0155429D01*
X0297582Y0155632D01*
X0297553Y0155838D01*
X0297539Y0156045D01*
X0297555Y0156253D01*
X0297588Y0156459D01*
X0297641Y0156660D01*
X0297727Y0156850D01*
X0297840Y0157024D01*
X0297978Y0157179D01*
X0298138Y0157311D01*
X0298321Y0157413D01*
X0298519Y0157476D01*
X0298723Y0157512D01*
X0298931Y0157525D01*
X0299138Y0157502D01*
X0299337Y0157442D01*
X0299522Y0157347D01*
X0299684Y0157215D01*
X0299780Y0157143D01*
X0299780Y0157381D01*
X0299785Y0157494D01*
X0300739Y0157494D01*
X0300737Y0157373D01*
X0300953Y0157386D01*
X0300911Y0157494D01*
X0301885Y0157494D01*
X0301913Y0157399D01*
X0302444Y0155599D01*
X0302503Y0155608D01*
X0303035Y0157490D01*
X0303170Y0157494D01*
X0303796Y0157494D01*
X0303973Y0157495D01*
X0304509Y0155664D01*
X0304548Y0155523D01*
X0305099Y0157343D01*
X0305145Y0157494D01*
X0305980Y0157494D01*
X0306248Y0157486D01*
X0306397Y0157494D01*
X0307162Y0157494D01*
X0307158Y0157447D01*
X0307362Y0157413D01*
X0307360Y0157494D01*
X0308324Y0157494D01*
X0308323Y0157351D01*
X0308897Y0157065D01*
X0309009Y0157172D01*
X0309360Y0157396D01*
X0309560Y0157447D01*
X0309971Y0157519D01*
X0310208Y0157519D01*
X0310206Y0157337D01*
X0310206Y0156711D01*
X0310049Y0156726D01*
X0309845Y0156682D01*
X0309675Y0156564D01*
X0309559Y0156395D01*
X0309496Y0156200D01*
X0309471Y0155994D01*
X0309502Y0155787D01*
X0309578Y0155596D01*
X0309707Y0155438D01*
X0309885Y0155338D01*
X0310090Y0155303D01*
X0310206Y0155285D01*
X0310206Y0154499D01*
X0310069Y0154520D01*
X0309863Y0154543D01*
X0309452Y0154614D01*
X0309266Y0154702D01*
X0308914Y0154925D01*
X0308684Y0155273D01*
X0308593Y0155456D01*
X0308520Y0155867D01*
X0308506Y0156072D01*
X0308578Y0156483D01*
X0308635Y0156680D01*
X0308894Y0157060D01*
X0308320Y0157358D01*
X0308320Y0154551D01*
X0308275Y0154551D01*
X0307441Y0154551D01*
X0307358Y0154557D01*
X0307362Y0157417D01*
X0307158Y0157451D01*
X0307162Y0154554D01*
X0307020Y0154551D01*
X0306395Y0154551D01*
X0306199Y0154564D01*
X0306199Y0157486D01*
X0306084Y0157485D01*
X0306040Y0157356D01*
X0305026Y0154554D01*
X0304879Y0154551D01*
X0304254Y0154551D01*
X0304053Y0154561D01*
X0303499Y0156355D01*
X0303437Y0156183D01*
X0302931Y0154560D01*
X0302761Y0154551D01*
X0302136Y0154551D01*
X0301977Y0154553D01*
X0300947Y0157385D01*
X0300740Y0157374D01*
X0300748Y0153571D01*
X0300752Y0153496D01*
X0309641Y0153497D01*
X0310056Y0153538D01*
X0310259Y0153582D01*
X0310655Y0153712D01*
X0311021Y0153911D01*
X0311348Y0154169D01*
X0311496Y0154314D01*
X0311759Y0154638D01*
X0311958Y0155004D01*
X0312030Y0155199D01*
X0312092Y0155398D01*
X0312140Y0155600D01*
X0312182Y0156015D01*
X0312147Y0156430D01*
X0312111Y0156635D01*
X0311988Y0157033D01*
X0311791Y0157400D01*
X0311671Y0157571D01*
X0311539Y0157731D01*
X0311399Y0157885D01*
X0311078Y0158151D01*
X0310713Y0158354D01*
X0310522Y0158433D01*
X0310122Y0158552D01*
X0309707Y0158594D01*
X0309633Y0158601D01*
X0298997Y0158601D01*
X0298582Y0158560D01*
X0298378Y0158519D01*
X0297981Y0158392D01*
X0297615Y0158193D01*
X0297448Y0158070D01*
X0297287Y0157937D01*
X0297136Y0157794D01*
X0296871Y0157472D01*
X0296672Y0157105D01*
X0296598Y0156912D01*
X0296536Y0156713D01*
X0296484Y0156511D01*
X0296442Y0156096D01*
X0296454Y0155889D01*
X0296475Y0155681D01*
X0296507Y0155476D01*
X0296507Y0155480D02*
X0297620Y0155480D01*
X0297632Y0155432D02*
X0296521Y0155432D01*
X0296536Y0155383D02*
X0297652Y0155383D01*
X0297673Y0155335D02*
X0296551Y0155335D01*
X0296566Y0155286D02*
X0297694Y0155286D01*
X0297716Y0155238D02*
X0296581Y0155238D01*
X0296596Y0155189D02*
X0297744Y0155189D01*
X0297773Y0155141D02*
X0296611Y0155141D01*
X0296627Y0155092D02*
X0297802Y0155092D01*
X0297834Y0155044D02*
X0296649Y0155044D01*
X0296675Y0154995D02*
X0297873Y0154995D01*
X0297912Y0154947D02*
X0296700Y0154947D01*
X0296726Y0154898D02*
X0297951Y0154898D01*
X0298006Y0154850D02*
X0296752Y0154850D01*
X0296777Y0154801D02*
X0298060Y0154801D01*
X0298118Y0154753D02*
X0296803Y0154753D01*
X0296829Y0154704D02*
X0298203Y0154704D01*
X0298288Y0154656D02*
X0296862Y0154656D01*
X0296895Y0154607D02*
X0298414Y0154607D01*
X0298579Y0154559D02*
X0296928Y0154559D01*
X0296966Y0154510D02*
X0299780Y0154510D01*
X0299780Y0154462D02*
X0297007Y0154462D01*
X0297049Y0154413D02*
X0299780Y0154413D01*
X0299780Y0154365D02*
X0297090Y0154365D01*
X0297131Y0154316D02*
X0299780Y0154316D01*
X0299780Y0154267D02*
X0297173Y0154267D01*
X0297215Y0154219D02*
X0299780Y0154219D01*
X0299780Y0154170D02*
X0297274Y0154170D01*
X0297332Y0154122D02*
X0299780Y0154122D01*
X0299780Y0154073D02*
X0297391Y0154073D01*
X0297450Y0154025D02*
X0299780Y0154025D01*
X0299780Y0153976D02*
X0297509Y0153976D01*
X0297583Y0153928D02*
X0299780Y0153928D01*
X0299780Y0153879D02*
X0297669Y0153879D01*
X0297755Y0153831D02*
X0299780Y0153831D01*
X0299780Y0153782D02*
X0297841Y0153782D01*
X0297935Y0153734D02*
X0299780Y0153734D01*
X0299780Y0153685D02*
X0298048Y0153685D01*
X0298190Y0153637D02*
X0299779Y0153637D01*
X0299778Y0153588D02*
X0298349Y0153588D01*
X0298554Y0153540D02*
X0299776Y0153540D01*
X0300748Y0153588D02*
X0310277Y0153588D01*
X0310426Y0153637D02*
X0300748Y0153637D01*
X0300748Y0153685D02*
X0310574Y0153685D01*
X0310695Y0153734D02*
X0300748Y0153734D01*
X0300748Y0153782D02*
X0310785Y0153782D01*
X0310874Y0153831D02*
X0300747Y0153831D01*
X0300747Y0153879D02*
X0310963Y0153879D01*
X0311043Y0153928D02*
X0300747Y0153928D01*
X0300747Y0153976D02*
X0311104Y0153976D01*
X0311165Y0154025D02*
X0300747Y0154025D01*
X0300747Y0154073D02*
X0311227Y0154073D01*
X0311288Y0154122D02*
X0300747Y0154122D01*
X0300747Y0154170D02*
X0311349Y0154170D01*
X0311399Y0154219D02*
X0300747Y0154219D01*
X0300747Y0154267D02*
X0311448Y0154267D01*
X0311498Y0154316D02*
X0300746Y0154316D01*
X0300746Y0154365D02*
X0311537Y0154365D01*
X0311576Y0154413D02*
X0300746Y0154413D01*
X0300746Y0154462D02*
X0311616Y0154462D01*
X0311655Y0154510D02*
X0310206Y0154510D01*
X0310206Y0154559D02*
X0311694Y0154559D01*
X0311734Y0154607D02*
X0310206Y0154607D01*
X0310206Y0154656D02*
X0311768Y0154656D01*
X0311794Y0154704D02*
X0310206Y0154704D01*
X0310206Y0154753D02*
X0311821Y0154753D01*
X0311847Y0154801D02*
X0310206Y0154801D01*
X0310206Y0154850D02*
X0311873Y0154850D01*
X0311900Y0154898D02*
X0310206Y0154898D01*
X0310206Y0154947D02*
X0311926Y0154947D01*
X0311952Y0154995D02*
X0310206Y0154995D01*
X0310206Y0155044D02*
X0311972Y0155044D01*
X0311990Y0155092D02*
X0310206Y0155092D01*
X0310206Y0155141D02*
X0312008Y0155141D01*
X0312026Y0155189D02*
X0310206Y0155189D01*
X0310206Y0155238D02*
X0312042Y0155238D01*
X0312057Y0155286D02*
X0310198Y0155286D01*
X0309906Y0155335D02*
X0312072Y0155335D01*
X0312087Y0155383D02*
X0309805Y0155383D01*
X0309719Y0155432D02*
X0312100Y0155432D01*
X0312111Y0155480D02*
X0309673Y0155480D01*
X0309633Y0155529D02*
X0312123Y0155529D01*
X0312135Y0155577D02*
X0309594Y0155577D01*
X0309567Y0155626D02*
X0312143Y0155626D01*
X0312148Y0155674D02*
X0309547Y0155674D01*
X0309528Y0155723D02*
X0312153Y0155723D01*
X0312158Y0155771D02*
X0309508Y0155771D01*
X0309497Y0155820D02*
X0312162Y0155820D01*
X0312167Y0155868D02*
X0309490Y0155868D01*
X0309483Y0155917D02*
X0312172Y0155917D01*
X0312177Y0155965D02*
X0309475Y0155965D01*
X0309474Y0156014D02*
X0312182Y0156014D01*
X0312178Y0156062D02*
X0309479Y0156062D01*
X0309485Y0156111D02*
X0312174Y0156111D01*
X0312170Y0156159D02*
X0309491Y0156159D01*
X0309498Y0156208D02*
X0312166Y0156208D01*
X0312162Y0156256D02*
X0309514Y0156256D01*
X0309530Y0156305D02*
X0312158Y0156305D01*
X0312154Y0156353D02*
X0309546Y0156353D01*
X0309564Y0156402D02*
X0312149Y0156402D01*
X0312144Y0156451D02*
X0309597Y0156451D01*
X0309631Y0156499D02*
X0312135Y0156499D01*
X0312127Y0156548D02*
X0309664Y0156548D01*
X0309721Y0156596D02*
X0312118Y0156596D01*
X0312108Y0156645D02*
X0309791Y0156645D01*
X0309898Y0156693D02*
X0312093Y0156693D01*
X0312078Y0156742D02*
X0310206Y0156742D01*
X0310206Y0156790D02*
X0312063Y0156790D01*
X0312048Y0156839D02*
X0310206Y0156839D01*
X0310206Y0156887D02*
X0312033Y0156887D01*
X0312018Y0156936D02*
X0310206Y0156936D01*
X0310206Y0156984D02*
X0312003Y0156984D01*
X0311988Y0157033D02*
X0310206Y0157033D01*
X0310206Y0157081D02*
X0311962Y0157081D01*
X0311936Y0157130D02*
X0310206Y0157130D01*
X0310206Y0157178D02*
X0311910Y0157178D01*
X0311884Y0157227D02*
X0310206Y0157227D01*
X0310206Y0157275D02*
X0311858Y0157275D01*
X0311832Y0157324D02*
X0310206Y0157324D01*
X0310206Y0157372D02*
X0311806Y0157372D01*
X0311776Y0157421D02*
X0310207Y0157421D01*
X0310208Y0157469D02*
X0311742Y0157469D01*
X0311708Y0157518D02*
X0310208Y0157518D01*
X0309965Y0157518D02*
X0298996Y0157518D01*
X0298819Y0157518D02*
X0296909Y0157518D01*
X0296870Y0157469D02*
X0298497Y0157469D01*
X0298346Y0157421D02*
X0296844Y0157421D01*
X0296817Y0157372D02*
X0298248Y0157372D01*
X0298161Y0157324D02*
X0296791Y0157324D01*
X0296765Y0157275D02*
X0298095Y0157275D01*
X0298035Y0157227D02*
X0296738Y0157227D01*
X0296712Y0157178D02*
X0297976Y0157178D01*
X0297934Y0157130D02*
X0296686Y0157130D01*
X0296663Y0157081D02*
X0297891Y0157081D01*
X0297848Y0157033D02*
X0296644Y0157033D01*
X0296626Y0156984D02*
X0297814Y0156984D01*
X0297783Y0156936D02*
X0296607Y0156936D01*
X0296590Y0156887D02*
X0297751Y0156887D01*
X0297722Y0156839D02*
X0296575Y0156839D01*
X0296560Y0156790D02*
X0297700Y0156790D01*
X0297678Y0156742D02*
X0296545Y0156742D01*
X0296531Y0156693D02*
X0297656Y0156693D01*
X0297637Y0156645D02*
X0296518Y0156645D01*
X0296506Y0156596D02*
X0297624Y0156596D01*
X0297611Y0156548D02*
X0296493Y0156548D01*
X0296483Y0156499D02*
X0297599Y0156499D01*
X0297587Y0156451D02*
X0296478Y0156451D01*
X0296473Y0156402D02*
X0297579Y0156402D01*
X0297571Y0156353D02*
X0296468Y0156353D01*
X0296463Y0156305D02*
X0297563Y0156305D01*
X0297555Y0156256D02*
X0296458Y0156256D01*
X0296454Y0156208D02*
X0297551Y0156208D01*
X0297548Y0156159D02*
X0296449Y0156159D01*
X0296444Y0156111D02*
X0297544Y0156111D01*
X0297540Y0156062D02*
X0296444Y0156062D01*
X0296447Y0156014D02*
X0297541Y0156014D01*
X0297545Y0155965D02*
X0296449Y0155965D01*
X0296452Y0155917D02*
X0297548Y0155917D01*
X0297551Y0155868D02*
X0296456Y0155868D01*
X0296461Y0155820D02*
X0297556Y0155820D01*
X0297563Y0155771D02*
X0296465Y0155771D01*
X0296470Y0155723D02*
X0297569Y0155723D01*
X0297576Y0155674D02*
X0296476Y0155674D01*
X0296483Y0155626D02*
X0297584Y0155626D01*
X0297596Y0155577D02*
X0296491Y0155577D01*
X0296499Y0155529D02*
X0297608Y0155529D01*
X0298565Y0155698D02*
X0298666Y0155518D01*
X0298817Y0155382D01*
X0299002Y0155305D01*
X0299204Y0155286D01*
X0299406Y0155329D01*
X0299570Y0155453D01*
X0299684Y0155621D01*
X0299750Y0155813D01*
X0299778Y0156017D01*
X0299747Y0156221D01*
X0299677Y0156411D01*
X0299559Y0156576D01*
X0299392Y0156694D01*
X0299190Y0156735D01*
X0298988Y0156711D01*
X0298805Y0156627D01*
X0298658Y0156488D01*
X0298558Y0156308D01*
X0298527Y0156104D01*
X0298529Y0155900D01*
X0298565Y0155698D01*
X0298561Y0155723D02*
X0299719Y0155723D01*
X0299735Y0155771D02*
X0298552Y0155771D01*
X0298543Y0155820D02*
X0299751Y0155820D01*
X0299757Y0155868D02*
X0298535Y0155868D01*
X0298529Y0155917D02*
X0299764Y0155917D01*
X0299771Y0155965D02*
X0298528Y0155965D01*
X0298528Y0156014D02*
X0299778Y0156014D01*
X0299772Y0156062D02*
X0298527Y0156062D01*
X0298528Y0156111D02*
X0299764Y0156111D01*
X0299757Y0156159D02*
X0298535Y0156159D01*
X0298543Y0156208D02*
X0299749Y0156208D01*
X0299734Y0156256D02*
X0298550Y0156256D01*
X0298558Y0156305D02*
X0299716Y0156305D01*
X0299699Y0156353D02*
X0298584Y0156353D01*
X0298611Y0156402D02*
X0299681Y0156402D01*
X0299649Y0156451D02*
X0298638Y0156451D01*
X0298670Y0156499D02*
X0299614Y0156499D01*
X0299580Y0156548D02*
X0298721Y0156548D01*
X0298772Y0156596D02*
X0299531Y0156596D01*
X0299462Y0156645D02*
X0298843Y0156645D01*
X0298949Y0156693D02*
X0299393Y0156693D01*
X0299733Y0157178D02*
X0299780Y0157178D01*
X0299780Y0157227D02*
X0299670Y0157227D01*
X0299610Y0157275D02*
X0299780Y0157275D01*
X0299780Y0157324D02*
X0299551Y0157324D01*
X0299473Y0157372D02*
X0299780Y0157372D01*
X0299782Y0157421D02*
X0299379Y0157421D01*
X0299248Y0157469D02*
X0299784Y0157469D01*
X0300739Y0157469D02*
X0300921Y0157469D01*
X0300939Y0157421D02*
X0300738Y0157421D01*
X0300740Y0157372D02*
X0300952Y0157372D01*
X0300969Y0157324D02*
X0300740Y0157324D01*
X0300740Y0157275D02*
X0300987Y0157275D01*
X0301005Y0157227D02*
X0300740Y0157227D01*
X0300741Y0157178D02*
X0301022Y0157178D01*
X0301040Y0157130D02*
X0300741Y0157130D01*
X0300741Y0157081D02*
X0301057Y0157081D01*
X0301075Y0157033D02*
X0300741Y0157033D01*
X0300741Y0156984D02*
X0301093Y0156984D01*
X0301110Y0156936D02*
X0300741Y0156936D01*
X0300741Y0156887D02*
X0301128Y0156887D01*
X0301146Y0156839D02*
X0300741Y0156839D01*
X0300741Y0156790D02*
X0301163Y0156790D01*
X0301181Y0156742D02*
X0300741Y0156742D01*
X0300742Y0156693D02*
X0301199Y0156693D01*
X0301216Y0156645D02*
X0300742Y0156645D01*
X0300742Y0156596D02*
X0301234Y0156596D01*
X0301251Y0156548D02*
X0300742Y0156548D01*
X0300742Y0156499D02*
X0301269Y0156499D01*
X0301287Y0156451D02*
X0300742Y0156451D01*
X0300742Y0156402D02*
X0301304Y0156402D01*
X0301322Y0156353D02*
X0300742Y0156353D01*
X0300742Y0156305D02*
X0301340Y0156305D01*
X0301357Y0156256D02*
X0300742Y0156256D01*
X0300743Y0156208D02*
X0301375Y0156208D01*
X0301393Y0156159D02*
X0300743Y0156159D01*
X0300743Y0156111D02*
X0301410Y0156111D01*
X0301428Y0156062D02*
X0300743Y0156062D01*
X0300743Y0156014D02*
X0301446Y0156014D01*
X0301463Y0155965D02*
X0300743Y0155965D01*
X0300743Y0155917D02*
X0301481Y0155917D01*
X0301498Y0155868D02*
X0300743Y0155868D01*
X0300743Y0155820D02*
X0301516Y0155820D01*
X0301534Y0155771D02*
X0300743Y0155771D01*
X0300744Y0155723D02*
X0301551Y0155723D01*
X0301569Y0155674D02*
X0300744Y0155674D01*
X0300744Y0155626D02*
X0301587Y0155626D01*
X0301604Y0155577D02*
X0300744Y0155577D01*
X0300744Y0155529D02*
X0301622Y0155529D01*
X0301640Y0155480D02*
X0300744Y0155480D01*
X0300744Y0155432D02*
X0301657Y0155432D01*
X0301675Y0155383D02*
X0300744Y0155383D01*
X0300744Y0155335D02*
X0301693Y0155335D01*
X0301710Y0155286D02*
X0300744Y0155286D01*
X0300745Y0155238D02*
X0301728Y0155238D01*
X0301745Y0155189D02*
X0300745Y0155189D01*
X0300745Y0155141D02*
X0301763Y0155141D01*
X0301781Y0155092D02*
X0300745Y0155092D01*
X0300745Y0155044D02*
X0301798Y0155044D01*
X0301816Y0154995D02*
X0300745Y0154995D01*
X0300745Y0154947D02*
X0301834Y0154947D01*
X0301851Y0154898D02*
X0300745Y0154898D01*
X0300745Y0154850D02*
X0301869Y0154850D01*
X0301887Y0154801D02*
X0300745Y0154801D01*
X0300746Y0154753D02*
X0301904Y0154753D01*
X0301922Y0154704D02*
X0300746Y0154704D01*
X0300746Y0154656D02*
X0301939Y0154656D01*
X0301957Y0154607D02*
X0300746Y0154607D01*
X0300746Y0154559D02*
X0301975Y0154559D01*
X0302908Y0154559D02*
X0304103Y0154559D01*
X0304038Y0154607D02*
X0302946Y0154607D01*
X0302961Y0154656D02*
X0304023Y0154656D01*
X0304008Y0154704D02*
X0302976Y0154704D01*
X0302992Y0154753D02*
X0303993Y0154753D01*
X0303979Y0154801D02*
X0303007Y0154801D01*
X0303022Y0154850D02*
X0303964Y0154850D01*
X0303949Y0154898D02*
X0303037Y0154898D01*
X0303052Y0154947D02*
X0303934Y0154947D01*
X0303919Y0154995D02*
X0303067Y0154995D01*
X0303082Y0155044D02*
X0303904Y0155044D01*
X0303889Y0155092D02*
X0303097Y0155092D01*
X0303113Y0155141D02*
X0303874Y0155141D01*
X0303859Y0155189D02*
X0303128Y0155189D01*
X0303143Y0155238D02*
X0303844Y0155238D01*
X0303829Y0155286D02*
X0303158Y0155286D01*
X0303173Y0155335D02*
X0303814Y0155335D01*
X0303799Y0155383D02*
X0303188Y0155383D01*
X0303203Y0155432D02*
X0303784Y0155432D01*
X0303769Y0155480D02*
X0303218Y0155480D01*
X0303234Y0155529D02*
X0303754Y0155529D01*
X0303739Y0155577D02*
X0303249Y0155577D01*
X0303264Y0155626D02*
X0303724Y0155626D01*
X0303709Y0155674D02*
X0303279Y0155674D01*
X0303294Y0155723D02*
X0303694Y0155723D01*
X0303679Y0155771D02*
X0303309Y0155771D01*
X0303324Y0155820D02*
X0303664Y0155820D01*
X0303649Y0155868D02*
X0303339Y0155868D01*
X0303355Y0155917D02*
X0303634Y0155917D01*
X0303619Y0155965D02*
X0303370Y0155965D01*
X0303385Y0156014D02*
X0303605Y0156014D01*
X0303590Y0156062D02*
X0303400Y0156062D01*
X0303415Y0156111D02*
X0303575Y0156111D01*
X0303560Y0156159D02*
X0303430Y0156159D01*
X0303447Y0156208D02*
X0303545Y0156208D01*
X0303530Y0156256D02*
X0303464Y0156256D01*
X0303482Y0156305D02*
X0303515Y0156305D01*
X0303499Y0156353D02*
X0303500Y0156353D01*
X0302768Y0156548D02*
X0302164Y0156548D01*
X0302150Y0156596D02*
X0302782Y0156596D01*
X0302796Y0156645D02*
X0302136Y0156645D01*
X0302121Y0156693D02*
X0302809Y0156693D01*
X0302823Y0156742D02*
X0302107Y0156742D01*
X0302093Y0156790D02*
X0302837Y0156790D01*
X0302851Y0156839D02*
X0302078Y0156839D01*
X0302064Y0156887D02*
X0302864Y0156887D01*
X0302878Y0156936D02*
X0302050Y0156936D01*
X0302035Y0156984D02*
X0302892Y0156984D01*
X0302905Y0157033D02*
X0302021Y0157033D01*
X0302007Y0157081D02*
X0302919Y0157081D01*
X0302933Y0157130D02*
X0301993Y0157130D01*
X0301978Y0157178D02*
X0302947Y0157178D01*
X0302960Y0157227D02*
X0301964Y0157227D01*
X0301950Y0157275D02*
X0302974Y0157275D01*
X0302988Y0157324D02*
X0301935Y0157324D01*
X0301921Y0157372D02*
X0303001Y0157372D01*
X0303015Y0157421D02*
X0301907Y0157421D01*
X0301893Y0157469D02*
X0303029Y0157469D01*
X0303980Y0157469D02*
X0305137Y0157469D01*
X0305122Y0157421D02*
X0303994Y0157421D01*
X0304009Y0157372D02*
X0305108Y0157372D01*
X0305093Y0157324D02*
X0304023Y0157324D01*
X0304037Y0157275D02*
X0305078Y0157275D01*
X0305064Y0157227D02*
X0304051Y0157227D01*
X0304065Y0157178D02*
X0305049Y0157178D01*
X0305034Y0157130D02*
X0304080Y0157130D01*
X0304094Y0157081D02*
X0305020Y0157081D01*
X0305005Y0157033D02*
X0304108Y0157033D01*
X0304122Y0156984D02*
X0304990Y0156984D01*
X0304976Y0156936D02*
X0304136Y0156936D01*
X0304151Y0156887D02*
X0304961Y0156887D01*
X0304946Y0156839D02*
X0304165Y0156839D01*
X0304179Y0156790D02*
X0304931Y0156790D01*
X0304917Y0156742D02*
X0304193Y0156742D01*
X0304208Y0156693D02*
X0304902Y0156693D01*
X0304887Y0156645D02*
X0304222Y0156645D01*
X0304236Y0156596D02*
X0304873Y0156596D01*
X0304858Y0156548D02*
X0304250Y0156548D01*
X0304264Y0156499D02*
X0304843Y0156499D01*
X0304829Y0156451D02*
X0304279Y0156451D01*
X0304293Y0156402D02*
X0304814Y0156402D01*
X0304799Y0156353D02*
X0304307Y0156353D01*
X0304321Y0156305D02*
X0304785Y0156305D01*
X0304770Y0156256D02*
X0304335Y0156256D01*
X0304350Y0156208D02*
X0304755Y0156208D01*
X0304741Y0156159D02*
X0304364Y0156159D01*
X0304378Y0156111D02*
X0304726Y0156111D01*
X0304711Y0156062D02*
X0304392Y0156062D01*
X0304407Y0156014D02*
X0304696Y0156014D01*
X0304682Y0155965D02*
X0304421Y0155965D01*
X0304435Y0155917D02*
X0304667Y0155917D01*
X0304652Y0155868D02*
X0304449Y0155868D01*
X0304463Y0155820D02*
X0304638Y0155820D01*
X0304623Y0155771D02*
X0304478Y0155771D01*
X0304492Y0155723D02*
X0304608Y0155723D01*
X0304594Y0155674D02*
X0304506Y0155674D01*
X0304520Y0155626D02*
X0304579Y0155626D01*
X0304564Y0155577D02*
X0304533Y0155577D01*
X0304546Y0155529D02*
X0304550Y0155529D01*
X0305291Y0155286D02*
X0306199Y0155286D01*
X0306199Y0155238D02*
X0305273Y0155238D01*
X0305256Y0155189D02*
X0306199Y0155189D01*
X0306199Y0155141D02*
X0305238Y0155141D01*
X0305221Y0155092D02*
X0306199Y0155092D01*
X0306199Y0155044D02*
X0305203Y0155044D01*
X0305186Y0154995D02*
X0306199Y0154995D01*
X0306199Y0154947D02*
X0305168Y0154947D01*
X0305151Y0154898D02*
X0306199Y0154898D01*
X0306199Y0154850D02*
X0305133Y0154850D01*
X0305115Y0154801D02*
X0306199Y0154801D01*
X0306199Y0154753D02*
X0305098Y0154753D01*
X0305080Y0154704D02*
X0306199Y0154704D01*
X0306199Y0154656D02*
X0305063Y0154656D01*
X0305045Y0154607D02*
X0306199Y0154607D01*
X0306282Y0154559D02*
X0305028Y0154559D01*
X0305308Y0155335D02*
X0306199Y0155335D01*
X0306199Y0155383D02*
X0305326Y0155383D01*
X0305344Y0155432D02*
X0306199Y0155432D01*
X0306199Y0155480D02*
X0305361Y0155480D01*
X0305379Y0155529D02*
X0306199Y0155529D01*
X0306199Y0155577D02*
X0305396Y0155577D01*
X0305414Y0155626D02*
X0306199Y0155626D01*
X0306199Y0155674D02*
X0305431Y0155674D01*
X0305449Y0155723D02*
X0306199Y0155723D01*
X0306199Y0155771D02*
X0305466Y0155771D01*
X0305484Y0155820D02*
X0306199Y0155820D01*
X0306199Y0155868D02*
X0305501Y0155868D01*
X0305519Y0155917D02*
X0306199Y0155917D01*
X0306199Y0155965D02*
X0305537Y0155965D01*
X0305554Y0156014D02*
X0306199Y0156014D01*
X0306199Y0156062D02*
X0305572Y0156062D01*
X0305589Y0156111D02*
X0306199Y0156111D01*
X0306199Y0156159D02*
X0305607Y0156159D01*
X0305624Y0156208D02*
X0306199Y0156208D01*
X0306199Y0156256D02*
X0305642Y0156256D01*
X0305659Y0156305D02*
X0306199Y0156305D01*
X0306199Y0156353D02*
X0305677Y0156353D01*
X0305694Y0156402D02*
X0306199Y0156402D01*
X0306199Y0156451D02*
X0305712Y0156451D01*
X0305730Y0156499D02*
X0306199Y0156499D01*
X0306199Y0156548D02*
X0305747Y0156548D01*
X0305765Y0156596D02*
X0306199Y0156596D01*
X0306199Y0156645D02*
X0305782Y0156645D01*
X0305800Y0156693D02*
X0306199Y0156693D01*
X0306199Y0156742D02*
X0305817Y0156742D01*
X0305835Y0156790D02*
X0306199Y0156790D01*
X0306199Y0156839D02*
X0305852Y0156839D01*
X0305870Y0156887D02*
X0306199Y0156887D01*
X0306199Y0156936D02*
X0305888Y0156936D01*
X0305905Y0156984D02*
X0306199Y0156984D01*
X0306199Y0157033D02*
X0305923Y0157033D01*
X0305940Y0157081D02*
X0306199Y0157081D01*
X0306199Y0157130D02*
X0305958Y0157130D01*
X0305975Y0157178D02*
X0306199Y0157178D01*
X0306199Y0157227D02*
X0305993Y0157227D01*
X0306010Y0157275D02*
X0306199Y0157275D01*
X0306199Y0157324D02*
X0306028Y0157324D01*
X0306045Y0157372D02*
X0306199Y0157372D01*
X0306199Y0157421D02*
X0306062Y0157421D01*
X0306079Y0157469D02*
X0306199Y0157469D01*
X0307158Y0157421D02*
X0307317Y0157421D01*
X0307342Y0157421D02*
X0307361Y0157421D01*
X0307360Y0157469D02*
X0307160Y0157469D01*
X0307158Y0157372D02*
X0307361Y0157372D01*
X0307361Y0157324D02*
X0307158Y0157324D01*
X0307158Y0157275D02*
X0307361Y0157275D01*
X0307361Y0157227D02*
X0307158Y0157227D01*
X0307158Y0157178D02*
X0307361Y0157178D01*
X0307361Y0157130D02*
X0307158Y0157130D01*
X0307158Y0157081D02*
X0307361Y0157081D01*
X0307361Y0157033D02*
X0307158Y0157033D01*
X0307159Y0156984D02*
X0307361Y0156984D01*
X0307361Y0156936D02*
X0307159Y0156936D01*
X0307159Y0156887D02*
X0307361Y0156887D01*
X0307361Y0156839D02*
X0307159Y0156839D01*
X0307159Y0156790D02*
X0307361Y0156790D01*
X0307361Y0156742D02*
X0307159Y0156742D01*
X0307159Y0156693D02*
X0307360Y0156693D01*
X0307360Y0156645D02*
X0307159Y0156645D01*
X0307159Y0156596D02*
X0307360Y0156596D01*
X0307360Y0156548D02*
X0307159Y0156548D01*
X0307159Y0156499D02*
X0307360Y0156499D01*
X0307360Y0156451D02*
X0307159Y0156451D01*
X0307159Y0156402D02*
X0307360Y0156402D01*
X0307360Y0156353D02*
X0307159Y0156353D01*
X0307159Y0156305D02*
X0307360Y0156305D01*
X0307360Y0156256D02*
X0307159Y0156256D01*
X0307160Y0156208D02*
X0307360Y0156208D01*
X0307360Y0156159D02*
X0307160Y0156159D01*
X0307160Y0156111D02*
X0307360Y0156111D01*
X0307360Y0156062D02*
X0307160Y0156062D01*
X0307160Y0156014D02*
X0307360Y0156014D01*
X0307359Y0155965D02*
X0307160Y0155965D01*
X0307160Y0155917D02*
X0307359Y0155917D01*
X0307359Y0155868D02*
X0307160Y0155868D01*
X0307160Y0155820D02*
X0307359Y0155820D01*
X0307359Y0155771D02*
X0307160Y0155771D01*
X0307160Y0155723D02*
X0307359Y0155723D01*
X0307359Y0155674D02*
X0307160Y0155674D01*
X0307160Y0155626D02*
X0307359Y0155626D01*
X0307359Y0155577D02*
X0307160Y0155577D01*
X0307160Y0155529D02*
X0307359Y0155529D01*
X0307359Y0155480D02*
X0307161Y0155480D01*
X0307161Y0155432D02*
X0307359Y0155432D01*
X0307359Y0155383D02*
X0307161Y0155383D01*
X0307161Y0155335D02*
X0307359Y0155335D01*
X0307359Y0155286D02*
X0307161Y0155286D01*
X0307161Y0155238D02*
X0307359Y0155238D01*
X0307358Y0155189D02*
X0307161Y0155189D01*
X0307161Y0155141D02*
X0307358Y0155141D01*
X0307358Y0155092D02*
X0307161Y0155092D01*
X0307161Y0155044D02*
X0307358Y0155044D01*
X0307358Y0154995D02*
X0307161Y0154995D01*
X0307161Y0154947D02*
X0307358Y0154947D01*
X0307358Y0154898D02*
X0307161Y0154898D01*
X0307161Y0154850D02*
X0307358Y0154850D01*
X0307358Y0154801D02*
X0307161Y0154801D01*
X0307162Y0154753D02*
X0307358Y0154753D01*
X0307358Y0154704D02*
X0307162Y0154704D01*
X0307162Y0154656D02*
X0307358Y0154656D01*
X0307358Y0154607D02*
X0307162Y0154607D01*
X0307162Y0154559D02*
X0307358Y0154559D01*
X0308320Y0154559D02*
X0309774Y0154559D01*
X0309493Y0154607D02*
X0308320Y0154607D01*
X0308320Y0154656D02*
X0309364Y0154656D01*
X0309263Y0154704D02*
X0308320Y0154704D01*
X0308320Y0154753D02*
X0309186Y0154753D01*
X0309109Y0154801D02*
X0308320Y0154801D01*
X0308320Y0154850D02*
X0309033Y0154850D01*
X0308956Y0154898D02*
X0308320Y0154898D01*
X0308320Y0154947D02*
X0308899Y0154947D01*
X0308867Y0154995D02*
X0308320Y0154995D01*
X0308320Y0155044D02*
X0308835Y0155044D01*
X0308803Y0155092D02*
X0308320Y0155092D01*
X0308320Y0155141D02*
X0308772Y0155141D01*
X0308740Y0155189D02*
X0308320Y0155189D01*
X0308320Y0155238D02*
X0308708Y0155238D01*
X0308678Y0155286D02*
X0308320Y0155286D01*
X0308320Y0155335D02*
X0308653Y0155335D01*
X0308629Y0155383D02*
X0308320Y0155383D01*
X0308320Y0155432D02*
X0308605Y0155432D01*
X0308588Y0155480D02*
X0308320Y0155480D01*
X0308320Y0155529D02*
X0308580Y0155529D01*
X0308571Y0155577D02*
X0308320Y0155577D01*
X0308320Y0155626D02*
X0308563Y0155626D01*
X0308554Y0155674D02*
X0308320Y0155674D01*
X0308320Y0155723D02*
X0308545Y0155723D01*
X0308537Y0155771D02*
X0308320Y0155771D01*
X0308320Y0155820D02*
X0308528Y0155820D01*
X0308520Y0155868D02*
X0308320Y0155868D01*
X0308320Y0155917D02*
X0308516Y0155917D01*
X0308513Y0155965D02*
X0308320Y0155965D01*
X0308320Y0156014D02*
X0308510Y0156014D01*
X0308506Y0156062D02*
X0308320Y0156062D01*
X0308320Y0156111D02*
X0308512Y0156111D01*
X0308521Y0156159D02*
X0308320Y0156159D01*
X0308320Y0156208D02*
X0308529Y0156208D01*
X0308538Y0156256D02*
X0308320Y0156256D01*
X0308320Y0156305D02*
X0308547Y0156305D01*
X0308555Y0156353D02*
X0308320Y0156353D01*
X0308320Y0156402D02*
X0308564Y0156402D01*
X0308572Y0156451D02*
X0308320Y0156451D01*
X0308320Y0156499D02*
X0308582Y0156499D01*
X0308597Y0156548D02*
X0308320Y0156548D01*
X0308320Y0156596D02*
X0308611Y0156596D01*
X0308625Y0156645D02*
X0308320Y0156645D01*
X0308320Y0156693D02*
X0308644Y0156693D01*
X0308677Y0156742D02*
X0308320Y0156742D01*
X0308320Y0156790D02*
X0308710Y0156790D01*
X0308743Y0156839D02*
X0308320Y0156839D01*
X0308320Y0156887D02*
X0308776Y0156887D01*
X0308809Y0156936D02*
X0308320Y0156936D01*
X0308320Y0156984D02*
X0308842Y0156984D01*
X0308875Y0157033D02*
X0308320Y0157033D01*
X0308320Y0157081D02*
X0308853Y0157081D01*
X0308864Y0157081D02*
X0308914Y0157081D01*
X0308965Y0157130D02*
X0308767Y0157130D01*
X0308760Y0157130D02*
X0308320Y0157130D01*
X0308320Y0157178D02*
X0308666Y0157178D01*
X0308670Y0157178D02*
X0309019Y0157178D01*
X0309095Y0157227D02*
X0308573Y0157227D01*
X0308320Y0157227D01*
X0308320Y0157275D02*
X0308475Y0157275D01*
X0308479Y0157275D02*
X0309170Y0157275D01*
X0309246Y0157324D02*
X0308386Y0157324D01*
X0308378Y0157324D02*
X0308320Y0157324D01*
X0308323Y0157372D02*
X0309322Y0157372D01*
X0309456Y0157421D02*
X0308324Y0157421D01*
X0308324Y0157469D02*
X0309686Y0157469D01*
X0309794Y0158585D02*
X0298833Y0158585D01*
X0298464Y0158536D02*
X0310174Y0158536D01*
X0310338Y0158488D02*
X0298281Y0158488D01*
X0298129Y0158439D02*
X0310501Y0158439D01*
X0310623Y0158391D02*
X0297979Y0158391D01*
X0297889Y0158342D02*
X0310733Y0158342D01*
X0310820Y0158294D02*
X0297800Y0158294D01*
X0297711Y0158245D02*
X0310908Y0158245D01*
X0310995Y0158197D02*
X0297621Y0158197D01*
X0297554Y0158148D02*
X0311081Y0158148D01*
X0311139Y0158100D02*
X0297488Y0158100D01*
X0297425Y0158051D02*
X0311198Y0158051D01*
X0311257Y0158003D02*
X0297366Y0158003D01*
X0297307Y0157954D02*
X0311316Y0157954D01*
X0311375Y0157906D02*
X0297254Y0157906D01*
X0297203Y0157857D02*
X0311425Y0157857D01*
X0311469Y0157809D02*
X0297152Y0157809D01*
X0297108Y0157760D02*
X0311513Y0157760D01*
X0311555Y0157712D02*
X0297068Y0157712D01*
X0297029Y0157663D02*
X0311595Y0157663D01*
X0311635Y0157615D02*
X0296989Y0157615D01*
X0296949Y0157566D02*
X0311674Y0157566D01*
X0310136Y0154510D02*
X0300746Y0154510D01*
X0299780Y0154559D02*
X0299224Y0154559D01*
X0299365Y0154607D02*
X0299780Y0154607D01*
X0299780Y0154656D02*
X0299466Y0154656D01*
X0299538Y0154704D02*
X0299780Y0154704D01*
X0299780Y0154753D02*
X0299602Y0154753D01*
X0299663Y0154801D02*
X0299780Y0154801D01*
X0299780Y0154850D02*
X0299714Y0154850D01*
X0299766Y0154898D02*
X0299780Y0154898D01*
X0299414Y0155335D02*
X0298931Y0155335D01*
X0298815Y0155383D02*
X0299478Y0155383D01*
X0299543Y0155432D02*
X0298761Y0155432D01*
X0298708Y0155480D02*
X0299589Y0155480D01*
X0299622Y0155529D02*
X0298660Y0155529D01*
X0298632Y0155577D02*
X0299654Y0155577D01*
X0299686Y0155626D02*
X0298605Y0155626D01*
X0298578Y0155674D02*
X0299702Y0155674D01*
X0300750Y0153540D02*
X0310062Y0153540D01*
X0302522Y0155674D02*
X0302422Y0155674D01*
X0302436Y0155626D02*
X0302508Y0155626D01*
X0302535Y0155723D02*
X0302408Y0155723D01*
X0302393Y0155771D02*
X0302549Y0155771D01*
X0302563Y0155820D02*
X0302379Y0155820D01*
X0302365Y0155868D02*
X0302576Y0155868D01*
X0302590Y0155917D02*
X0302350Y0155917D01*
X0302336Y0155965D02*
X0302604Y0155965D01*
X0302617Y0156014D02*
X0302322Y0156014D01*
X0302307Y0156062D02*
X0302631Y0156062D01*
X0302645Y0156111D02*
X0302293Y0156111D01*
X0302279Y0156159D02*
X0302659Y0156159D01*
X0302672Y0156208D02*
X0302265Y0156208D01*
X0302250Y0156256D02*
X0302686Y0156256D01*
X0302700Y0156305D02*
X0302236Y0156305D01*
X0302222Y0156353D02*
X0302713Y0156353D01*
X0302727Y0156402D02*
X0302207Y0156402D01*
X0302193Y0156451D02*
X0302741Y0156451D01*
X0302755Y0156499D02*
X0302179Y0156499D01*
M02*
