G75*
%MOIN*%
%OFA0B0*%
%FSLAX25Y25*%
%IPPOS*%
%LPD*%
%AMOC8*
5,1,8,0,0,1.08239X$1,22.5*
%
%ADD10C,0.00800*%
%ADD11C,0.00000*%
%ADD12C,0.00039*%
D10*
X0153333Y0075000D02*
X0313333Y0075000D01*
X0313333Y0204900D01*
X0153333Y0204900D01*
X0153333Y0075000D01*
D11*
X0156833Y0085000D02*
X0156835Y0085161D01*
X0156841Y0085321D01*
X0156851Y0085482D01*
X0156865Y0085642D01*
X0156883Y0085802D01*
X0156904Y0085961D01*
X0156930Y0086120D01*
X0156960Y0086278D01*
X0156993Y0086435D01*
X0157031Y0086592D01*
X0157072Y0086747D01*
X0157117Y0086901D01*
X0157166Y0087054D01*
X0157219Y0087206D01*
X0157275Y0087357D01*
X0157336Y0087506D01*
X0157399Y0087654D01*
X0157467Y0087800D01*
X0157538Y0087944D01*
X0157612Y0088086D01*
X0157690Y0088227D01*
X0157772Y0088365D01*
X0157857Y0088502D01*
X0157945Y0088636D01*
X0158037Y0088768D01*
X0158132Y0088898D01*
X0158230Y0089026D01*
X0158331Y0089151D01*
X0158435Y0089273D01*
X0158542Y0089393D01*
X0158652Y0089510D01*
X0158765Y0089625D01*
X0158881Y0089736D01*
X0159000Y0089845D01*
X0159121Y0089950D01*
X0159245Y0090053D01*
X0159371Y0090153D01*
X0159499Y0090249D01*
X0159630Y0090342D01*
X0159764Y0090432D01*
X0159899Y0090519D01*
X0160037Y0090602D01*
X0160176Y0090682D01*
X0160318Y0090758D01*
X0160461Y0090831D01*
X0160606Y0090900D01*
X0160753Y0090966D01*
X0160901Y0091028D01*
X0161051Y0091086D01*
X0161202Y0091141D01*
X0161355Y0091192D01*
X0161509Y0091239D01*
X0161664Y0091282D01*
X0161820Y0091321D01*
X0161976Y0091357D01*
X0162134Y0091388D01*
X0162292Y0091416D01*
X0162451Y0091440D01*
X0162611Y0091460D01*
X0162771Y0091476D01*
X0162931Y0091488D01*
X0163092Y0091496D01*
X0163253Y0091500D01*
X0163413Y0091500D01*
X0163574Y0091496D01*
X0163735Y0091488D01*
X0163895Y0091476D01*
X0164055Y0091460D01*
X0164215Y0091440D01*
X0164374Y0091416D01*
X0164532Y0091388D01*
X0164690Y0091357D01*
X0164846Y0091321D01*
X0165002Y0091282D01*
X0165157Y0091239D01*
X0165311Y0091192D01*
X0165464Y0091141D01*
X0165615Y0091086D01*
X0165765Y0091028D01*
X0165913Y0090966D01*
X0166060Y0090900D01*
X0166205Y0090831D01*
X0166348Y0090758D01*
X0166490Y0090682D01*
X0166629Y0090602D01*
X0166767Y0090519D01*
X0166902Y0090432D01*
X0167036Y0090342D01*
X0167167Y0090249D01*
X0167295Y0090153D01*
X0167421Y0090053D01*
X0167545Y0089950D01*
X0167666Y0089845D01*
X0167785Y0089736D01*
X0167901Y0089625D01*
X0168014Y0089510D01*
X0168124Y0089393D01*
X0168231Y0089273D01*
X0168335Y0089151D01*
X0168436Y0089026D01*
X0168534Y0088898D01*
X0168629Y0088768D01*
X0168721Y0088636D01*
X0168809Y0088502D01*
X0168894Y0088365D01*
X0168976Y0088227D01*
X0169054Y0088086D01*
X0169128Y0087944D01*
X0169199Y0087800D01*
X0169267Y0087654D01*
X0169330Y0087506D01*
X0169391Y0087357D01*
X0169447Y0087206D01*
X0169500Y0087054D01*
X0169549Y0086901D01*
X0169594Y0086747D01*
X0169635Y0086592D01*
X0169673Y0086435D01*
X0169706Y0086278D01*
X0169736Y0086120D01*
X0169762Y0085961D01*
X0169783Y0085802D01*
X0169801Y0085642D01*
X0169815Y0085482D01*
X0169825Y0085321D01*
X0169831Y0085161D01*
X0169833Y0085000D01*
X0169831Y0084839D01*
X0169825Y0084679D01*
X0169815Y0084518D01*
X0169801Y0084358D01*
X0169783Y0084198D01*
X0169762Y0084039D01*
X0169736Y0083880D01*
X0169706Y0083722D01*
X0169673Y0083565D01*
X0169635Y0083408D01*
X0169594Y0083253D01*
X0169549Y0083099D01*
X0169500Y0082946D01*
X0169447Y0082794D01*
X0169391Y0082643D01*
X0169330Y0082494D01*
X0169267Y0082346D01*
X0169199Y0082200D01*
X0169128Y0082056D01*
X0169054Y0081914D01*
X0168976Y0081773D01*
X0168894Y0081635D01*
X0168809Y0081498D01*
X0168721Y0081364D01*
X0168629Y0081232D01*
X0168534Y0081102D01*
X0168436Y0080974D01*
X0168335Y0080849D01*
X0168231Y0080727D01*
X0168124Y0080607D01*
X0168014Y0080490D01*
X0167901Y0080375D01*
X0167785Y0080264D01*
X0167666Y0080155D01*
X0167545Y0080050D01*
X0167421Y0079947D01*
X0167295Y0079847D01*
X0167167Y0079751D01*
X0167036Y0079658D01*
X0166902Y0079568D01*
X0166767Y0079481D01*
X0166629Y0079398D01*
X0166490Y0079318D01*
X0166348Y0079242D01*
X0166205Y0079169D01*
X0166060Y0079100D01*
X0165913Y0079034D01*
X0165765Y0078972D01*
X0165615Y0078914D01*
X0165464Y0078859D01*
X0165311Y0078808D01*
X0165157Y0078761D01*
X0165002Y0078718D01*
X0164846Y0078679D01*
X0164690Y0078643D01*
X0164532Y0078612D01*
X0164374Y0078584D01*
X0164215Y0078560D01*
X0164055Y0078540D01*
X0163895Y0078524D01*
X0163735Y0078512D01*
X0163574Y0078504D01*
X0163413Y0078500D01*
X0163253Y0078500D01*
X0163092Y0078504D01*
X0162931Y0078512D01*
X0162771Y0078524D01*
X0162611Y0078540D01*
X0162451Y0078560D01*
X0162292Y0078584D01*
X0162134Y0078612D01*
X0161976Y0078643D01*
X0161820Y0078679D01*
X0161664Y0078718D01*
X0161509Y0078761D01*
X0161355Y0078808D01*
X0161202Y0078859D01*
X0161051Y0078914D01*
X0160901Y0078972D01*
X0160753Y0079034D01*
X0160606Y0079100D01*
X0160461Y0079169D01*
X0160318Y0079242D01*
X0160176Y0079318D01*
X0160037Y0079398D01*
X0159899Y0079481D01*
X0159764Y0079568D01*
X0159630Y0079658D01*
X0159499Y0079751D01*
X0159371Y0079847D01*
X0159245Y0079947D01*
X0159121Y0080050D01*
X0159000Y0080155D01*
X0158881Y0080264D01*
X0158765Y0080375D01*
X0158652Y0080490D01*
X0158542Y0080607D01*
X0158435Y0080727D01*
X0158331Y0080849D01*
X0158230Y0080974D01*
X0158132Y0081102D01*
X0158037Y0081232D01*
X0157945Y0081364D01*
X0157857Y0081498D01*
X0157772Y0081635D01*
X0157690Y0081773D01*
X0157612Y0081914D01*
X0157538Y0082056D01*
X0157467Y0082200D01*
X0157399Y0082346D01*
X0157336Y0082494D01*
X0157275Y0082643D01*
X0157219Y0082794D01*
X0157166Y0082946D01*
X0157117Y0083099D01*
X0157072Y0083253D01*
X0157031Y0083408D01*
X0156993Y0083565D01*
X0156960Y0083722D01*
X0156930Y0083880D01*
X0156904Y0084039D01*
X0156883Y0084198D01*
X0156865Y0084358D01*
X0156851Y0084518D01*
X0156841Y0084679D01*
X0156835Y0084839D01*
X0156833Y0085000D01*
X0296833Y0085000D02*
X0296835Y0085161D01*
X0296841Y0085321D01*
X0296851Y0085482D01*
X0296865Y0085642D01*
X0296883Y0085802D01*
X0296904Y0085961D01*
X0296930Y0086120D01*
X0296960Y0086278D01*
X0296993Y0086435D01*
X0297031Y0086592D01*
X0297072Y0086747D01*
X0297117Y0086901D01*
X0297166Y0087054D01*
X0297219Y0087206D01*
X0297275Y0087357D01*
X0297336Y0087506D01*
X0297399Y0087654D01*
X0297467Y0087800D01*
X0297538Y0087944D01*
X0297612Y0088086D01*
X0297690Y0088227D01*
X0297772Y0088365D01*
X0297857Y0088502D01*
X0297945Y0088636D01*
X0298037Y0088768D01*
X0298132Y0088898D01*
X0298230Y0089026D01*
X0298331Y0089151D01*
X0298435Y0089273D01*
X0298542Y0089393D01*
X0298652Y0089510D01*
X0298765Y0089625D01*
X0298881Y0089736D01*
X0299000Y0089845D01*
X0299121Y0089950D01*
X0299245Y0090053D01*
X0299371Y0090153D01*
X0299499Y0090249D01*
X0299630Y0090342D01*
X0299764Y0090432D01*
X0299899Y0090519D01*
X0300037Y0090602D01*
X0300176Y0090682D01*
X0300318Y0090758D01*
X0300461Y0090831D01*
X0300606Y0090900D01*
X0300753Y0090966D01*
X0300901Y0091028D01*
X0301051Y0091086D01*
X0301202Y0091141D01*
X0301355Y0091192D01*
X0301509Y0091239D01*
X0301664Y0091282D01*
X0301820Y0091321D01*
X0301976Y0091357D01*
X0302134Y0091388D01*
X0302292Y0091416D01*
X0302451Y0091440D01*
X0302611Y0091460D01*
X0302771Y0091476D01*
X0302931Y0091488D01*
X0303092Y0091496D01*
X0303253Y0091500D01*
X0303413Y0091500D01*
X0303574Y0091496D01*
X0303735Y0091488D01*
X0303895Y0091476D01*
X0304055Y0091460D01*
X0304215Y0091440D01*
X0304374Y0091416D01*
X0304532Y0091388D01*
X0304690Y0091357D01*
X0304846Y0091321D01*
X0305002Y0091282D01*
X0305157Y0091239D01*
X0305311Y0091192D01*
X0305464Y0091141D01*
X0305615Y0091086D01*
X0305765Y0091028D01*
X0305913Y0090966D01*
X0306060Y0090900D01*
X0306205Y0090831D01*
X0306348Y0090758D01*
X0306490Y0090682D01*
X0306629Y0090602D01*
X0306767Y0090519D01*
X0306902Y0090432D01*
X0307036Y0090342D01*
X0307167Y0090249D01*
X0307295Y0090153D01*
X0307421Y0090053D01*
X0307545Y0089950D01*
X0307666Y0089845D01*
X0307785Y0089736D01*
X0307901Y0089625D01*
X0308014Y0089510D01*
X0308124Y0089393D01*
X0308231Y0089273D01*
X0308335Y0089151D01*
X0308436Y0089026D01*
X0308534Y0088898D01*
X0308629Y0088768D01*
X0308721Y0088636D01*
X0308809Y0088502D01*
X0308894Y0088365D01*
X0308976Y0088227D01*
X0309054Y0088086D01*
X0309128Y0087944D01*
X0309199Y0087800D01*
X0309267Y0087654D01*
X0309330Y0087506D01*
X0309391Y0087357D01*
X0309447Y0087206D01*
X0309500Y0087054D01*
X0309549Y0086901D01*
X0309594Y0086747D01*
X0309635Y0086592D01*
X0309673Y0086435D01*
X0309706Y0086278D01*
X0309736Y0086120D01*
X0309762Y0085961D01*
X0309783Y0085802D01*
X0309801Y0085642D01*
X0309815Y0085482D01*
X0309825Y0085321D01*
X0309831Y0085161D01*
X0309833Y0085000D01*
X0309831Y0084839D01*
X0309825Y0084679D01*
X0309815Y0084518D01*
X0309801Y0084358D01*
X0309783Y0084198D01*
X0309762Y0084039D01*
X0309736Y0083880D01*
X0309706Y0083722D01*
X0309673Y0083565D01*
X0309635Y0083408D01*
X0309594Y0083253D01*
X0309549Y0083099D01*
X0309500Y0082946D01*
X0309447Y0082794D01*
X0309391Y0082643D01*
X0309330Y0082494D01*
X0309267Y0082346D01*
X0309199Y0082200D01*
X0309128Y0082056D01*
X0309054Y0081914D01*
X0308976Y0081773D01*
X0308894Y0081635D01*
X0308809Y0081498D01*
X0308721Y0081364D01*
X0308629Y0081232D01*
X0308534Y0081102D01*
X0308436Y0080974D01*
X0308335Y0080849D01*
X0308231Y0080727D01*
X0308124Y0080607D01*
X0308014Y0080490D01*
X0307901Y0080375D01*
X0307785Y0080264D01*
X0307666Y0080155D01*
X0307545Y0080050D01*
X0307421Y0079947D01*
X0307295Y0079847D01*
X0307167Y0079751D01*
X0307036Y0079658D01*
X0306902Y0079568D01*
X0306767Y0079481D01*
X0306629Y0079398D01*
X0306490Y0079318D01*
X0306348Y0079242D01*
X0306205Y0079169D01*
X0306060Y0079100D01*
X0305913Y0079034D01*
X0305765Y0078972D01*
X0305615Y0078914D01*
X0305464Y0078859D01*
X0305311Y0078808D01*
X0305157Y0078761D01*
X0305002Y0078718D01*
X0304846Y0078679D01*
X0304690Y0078643D01*
X0304532Y0078612D01*
X0304374Y0078584D01*
X0304215Y0078560D01*
X0304055Y0078540D01*
X0303895Y0078524D01*
X0303735Y0078512D01*
X0303574Y0078504D01*
X0303413Y0078500D01*
X0303253Y0078500D01*
X0303092Y0078504D01*
X0302931Y0078512D01*
X0302771Y0078524D01*
X0302611Y0078540D01*
X0302451Y0078560D01*
X0302292Y0078584D01*
X0302134Y0078612D01*
X0301976Y0078643D01*
X0301820Y0078679D01*
X0301664Y0078718D01*
X0301509Y0078761D01*
X0301355Y0078808D01*
X0301202Y0078859D01*
X0301051Y0078914D01*
X0300901Y0078972D01*
X0300753Y0079034D01*
X0300606Y0079100D01*
X0300461Y0079169D01*
X0300318Y0079242D01*
X0300176Y0079318D01*
X0300037Y0079398D01*
X0299899Y0079481D01*
X0299764Y0079568D01*
X0299630Y0079658D01*
X0299499Y0079751D01*
X0299371Y0079847D01*
X0299245Y0079947D01*
X0299121Y0080050D01*
X0299000Y0080155D01*
X0298881Y0080264D01*
X0298765Y0080375D01*
X0298652Y0080490D01*
X0298542Y0080607D01*
X0298435Y0080727D01*
X0298331Y0080849D01*
X0298230Y0080974D01*
X0298132Y0081102D01*
X0298037Y0081232D01*
X0297945Y0081364D01*
X0297857Y0081498D01*
X0297772Y0081635D01*
X0297690Y0081773D01*
X0297612Y0081914D01*
X0297538Y0082056D01*
X0297467Y0082200D01*
X0297399Y0082346D01*
X0297336Y0082494D01*
X0297275Y0082643D01*
X0297219Y0082794D01*
X0297166Y0082946D01*
X0297117Y0083099D01*
X0297072Y0083253D01*
X0297031Y0083408D01*
X0296993Y0083565D01*
X0296960Y0083722D01*
X0296930Y0083880D01*
X0296904Y0084039D01*
X0296883Y0084198D01*
X0296865Y0084358D01*
X0296851Y0084518D01*
X0296841Y0084679D01*
X0296835Y0084839D01*
X0296833Y0085000D01*
X0204831Y0186389D02*
X0204833Y0186460D01*
X0204839Y0186531D01*
X0204849Y0186602D01*
X0204863Y0186671D01*
X0204880Y0186740D01*
X0204902Y0186808D01*
X0204927Y0186875D01*
X0204956Y0186940D01*
X0204988Y0187003D01*
X0205024Y0187065D01*
X0205063Y0187124D01*
X0205106Y0187181D01*
X0205151Y0187236D01*
X0205200Y0187288D01*
X0205251Y0187337D01*
X0205305Y0187383D01*
X0205362Y0187427D01*
X0205420Y0187467D01*
X0205481Y0187503D01*
X0205544Y0187537D01*
X0205609Y0187566D01*
X0205675Y0187592D01*
X0205743Y0187615D01*
X0205811Y0187633D01*
X0205881Y0187648D01*
X0205951Y0187659D01*
X0206022Y0187666D01*
X0206093Y0187669D01*
X0206164Y0187668D01*
X0206235Y0187663D01*
X0206306Y0187654D01*
X0206376Y0187641D01*
X0206445Y0187625D01*
X0206513Y0187604D01*
X0206580Y0187580D01*
X0206646Y0187552D01*
X0206709Y0187520D01*
X0206771Y0187485D01*
X0206831Y0187447D01*
X0206889Y0187405D01*
X0206944Y0187361D01*
X0206997Y0187313D01*
X0207047Y0187262D01*
X0207094Y0187209D01*
X0207138Y0187153D01*
X0207179Y0187095D01*
X0207217Y0187034D01*
X0207251Y0186972D01*
X0207281Y0186907D01*
X0207308Y0186842D01*
X0207332Y0186774D01*
X0207351Y0186706D01*
X0207367Y0186637D01*
X0207379Y0186566D01*
X0207387Y0186496D01*
X0207391Y0186425D01*
X0207391Y0186353D01*
X0207387Y0186282D01*
X0207379Y0186212D01*
X0207367Y0186141D01*
X0207351Y0186072D01*
X0207332Y0186004D01*
X0207308Y0185936D01*
X0207281Y0185871D01*
X0207251Y0185806D01*
X0207217Y0185744D01*
X0207179Y0185683D01*
X0207138Y0185625D01*
X0207094Y0185569D01*
X0207047Y0185516D01*
X0206997Y0185465D01*
X0206944Y0185417D01*
X0206889Y0185373D01*
X0206831Y0185331D01*
X0206771Y0185293D01*
X0206709Y0185258D01*
X0206646Y0185226D01*
X0206580Y0185198D01*
X0206513Y0185174D01*
X0206445Y0185153D01*
X0206376Y0185137D01*
X0206306Y0185124D01*
X0206235Y0185115D01*
X0206164Y0185110D01*
X0206093Y0185109D01*
X0206022Y0185112D01*
X0205951Y0185119D01*
X0205881Y0185130D01*
X0205811Y0185145D01*
X0205743Y0185163D01*
X0205675Y0185186D01*
X0205609Y0185212D01*
X0205544Y0185241D01*
X0205481Y0185275D01*
X0205420Y0185311D01*
X0205362Y0185351D01*
X0205305Y0185395D01*
X0205251Y0185441D01*
X0205200Y0185490D01*
X0205151Y0185542D01*
X0205106Y0185597D01*
X0205063Y0185654D01*
X0205024Y0185713D01*
X0204988Y0185775D01*
X0204956Y0185838D01*
X0204927Y0185903D01*
X0204902Y0185970D01*
X0204880Y0186038D01*
X0204863Y0186107D01*
X0204849Y0186176D01*
X0204839Y0186247D01*
X0204833Y0186318D01*
X0204831Y0186389D01*
X0182075Y0186389D02*
X0182077Y0186460D01*
X0182083Y0186531D01*
X0182093Y0186602D01*
X0182107Y0186671D01*
X0182124Y0186740D01*
X0182146Y0186808D01*
X0182171Y0186875D01*
X0182200Y0186940D01*
X0182232Y0187003D01*
X0182268Y0187065D01*
X0182307Y0187124D01*
X0182350Y0187181D01*
X0182395Y0187236D01*
X0182444Y0187288D01*
X0182495Y0187337D01*
X0182549Y0187383D01*
X0182606Y0187427D01*
X0182664Y0187467D01*
X0182725Y0187503D01*
X0182788Y0187537D01*
X0182853Y0187566D01*
X0182919Y0187592D01*
X0182987Y0187615D01*
X0183055Y0187633D01*
X0183125Y0187648D01*
X0183195Y0187659D01*
X0183266Y0187666D01*
X0183337Y0187669D01*
X0183408Y0187668D01*
X0183479Y0187663D01*
X0183550Y0187654D01*
X0183620Y0187641D01*
X0183689Y0187625D01*
X0183757Y0187604D01*
X0183824Y0187580D01*
X0183890Y0187552D01*
X0183953Y0187520D01*
X0184015Y0187485D01*
X0184075Y0187447D01*
X0184133Y0187405D01*
X0184188Y0187361D01*
X0184241Y0187313D01*
X0184291Y0187262D01*
X0184338Y0187209D01*
X0184382Y0187153D01*
X0184423Y0187095D01*
X0184461Y0187034D01*
X0184495Y0186972D01*
X0184525Y0186907D01*
X0184552Y0186842D01*
X0184576Y0186774D01*
X0184595Y0186706D01*
X0184611Y0186637D01*
X0184623Y0186566D01*
X0184631Y0186496D01*
X0184635Y0186425D01*
X0184635Y0186353D01*
X0184631Y0186282D01*
X0184623Y0186212D01*
X0184611Y0186141D01*
X0184595Y0186072D01*
X0184576Y0186004D01*
X0184552Y0185936D01*
X0184525Y0185871D01*
X0184495Y0185806D01*
X0184461Y0185744D01*
X0184423Y0185683D01*
X0184382Y0185625D01*
X0184338Y0185569D01*
X0184291Y0185516D01*
X0184241Y0185465D01*
X0184188Y0185417D01*
X0184133Y0185373D01*
X0184075Y0185331D01*
X0184015Y0185293D01*
X0183953Y0185258D01*
X0183890Y0185226D01*
X0183824Y0185198D01*
X0183757Y0185174D01*
X0183689Y0185153D01*
X0183620Y0185137D01*
X0183550Y0185124D01*
X0183479Y0185115D01*
X0183408Y0185110D01*
X0183337Y0185109D01*
X0183266Y0185112D01*
X0183195Y0185119D01*
X0183125Y0185130D01*
X0183055Y0185145D01*
X0182987Y0185163D01*
X0182919Y0185186D01*
X0182853Y0185212D01*
X0182788Y0185241D01*
X0182725Y0185275D01*
X0182664Y0185311D01*
X0182606Y0185351D01*
X0182549Y0185395D01*
X0182495Y0185441D01*
X0182444Y0185490D01*
X0182395Y0185542D01*
X0182350Y0185597D01*
X0182307Y0185654D01*
X0182268Y0185713D01*
X0182232Y0185775D01*
X0182200Y0185838D01*
X0182171Y0185903D01*
X0182146Y0185970D01*
X0182124Y0186038D01*
X0182107Y0186107D01*
X0182093Y0186176D01*
X0182083Y0186247D01*
X0182077Y0186318D01*
X0182075Y0186389D01*
X0156833Y0194900D02*
X0156835Y0195061D01*
X0156841Y0195221D01*
X0156851Y0195382D01*
X0156865Y0195542D01*
X0156883Y0195702D01*
X0156904Y0195861D01*
X0156930Y0196020D01*
X0156960Y0196178D01*
X0156993Y0196335D01*
X0157031Y0196492D01*
X0157072Y0196647D01*
X0157117Y0196801D01*
X0157166Y0196954D01*
X0157219Y0197106D01*
X0157275Y0197257D01*
X0157336Y0197406D01*
X0157399Y0197554D01*
X0157467Y0197700D01*
X0157538Y0197844D01*
X0157612Y0197986D01*
X0157690Y0198127D01*
X0157772Y0198265D01*
X0157857Y0198402D01*
X0157945Y0198536D01*
X0158037Y0198668D01*
X0158132Y0198798D01*
X0158230Y0198926D01*
X0158331Y0199051D01*
X0158435Y0199173D01*
X0158542Y0199293D01*
X0158652Y0199410D01*
X0158765Y0199525D01*
X0158881Y0199636D01*
X0159000Y0199745D01*
X0159121Y0199850D01*
X0159245Y0199953D01*
X0159371Y0200053D01*
X0159499Y0200149D01*
X0159630Y0200242D01*
X0159764Y0200332D01*
X0159899Y0200419D01*
X0160037Y0200502D01*
X0160176Y0200582D01*
X0160318Y0200658D01*
X0160461Y0200731D01*
X0160606Y0200800D01*
X0160753Y0200866D01*
X0160901Y0200928D01*
X0161051Y0200986D01*
X0161202Y0201041D01*
X0161355Y0201092D01*
X0161509Y0201139D01*
X0161664Y0201182D01*
X0161820Y0201221D01*
X0161976Y0201257D01*
X0162134Y0201288D01*
X0162292Y0201316D01*
X0162451Y0201340D01*
X0162611Y0201360D01*
X0162771Y0201376D01*
X0162931Y0201388D01*
X0163092Y0201396D01*
X0163253Y0201400D01*
X0163413Y0201400D01*
X0163574Y0201396D01*
X0163735Y0201388D01*
X0163895Y0201376D01*
X0164055Y0201360D01*
X0164215Y0201340D01*
X0164374Y0201316D01*
X0164532Y0201288D01*
X0164690Y0201257D01*
X0164846Y0201221D01*
X0165002Y0201182D01*
X0165157Y0201139D01*
X0165311Y0201092D01*
X0165464Y0201041D01*
X0165615Y0200986D01*
X0165765Y0200928D01*
X0165913Y0200866D01*
X0166060Y0200800D01*
X0166205Y0200731D01*
X0166348Y0200658D01*
X0166490Y0200582D01*
X0166629Y0200502D01*
X0166767Y0200419D01*
X0166902Y0200332D01*
X0167036Y0200242D01*
X0167167Y0200149D01*
X0167295Y0200053D01*
X0167421Y0199953D01*
X0167545Y0199850D01*
X0167666Y0199745D01*
X0167785Y0199636D01*
X0167901Y0199525D01*
X0168014Y0199410D01*
X0168124Y0199293D01*
X0168231Y0199173D01*
X0168335Y0199051D01*
X0168436Y0198926D01*
X0168534Y0198798D01*
X0168629Y0198668D01*
X0168721Y0198536D01*
X0168809Y0198402D01*
X0168894Y0198265D01*
X0168976Y0198127D01*
X0169054Y0197986D01*
X0169128Y0197844D01*
X0169199Y0197700D01*
X0169267Y0197554D01*
X0169330Y0197406D01*
X0169391Y0197257D01*
X0169447Y0197106D01*
X0169500Y0196954D01*
X0169549Y0196801D01*
X0169594Y0196647D01*
X0169635Y0196492D01*
X0169673Y0196335D01*
X0169706Y0196178D01*
X0169736Y0196020D01*
X0169762Y0195861D01*
X0169783Y0195702D01*
X0169801Y0195542D01*
X0169815Y0195382D01*
X0169825Y0195221D01*
X0169831Y0195061D01*
X0169833Y0194900D01*
X0169831Y0194739D01*
X0169825Y0194579D01*
X0169815Y0194418D01*
X0169801Y0194258D01*
X0169783Y0194098D01*
X0169762Y0193939D01*
X0169736Y0193780D01*
X0169706Y0193622D01*
X0169673Y0193465D01*
X0169635Y0193308D01*
X0169594Y0193153D01*
X0169549Y0192999D01*
X0169500Y0192846D01*
X0169447Y0192694D01*
X0169391Y0192543D01*
X0169330Y0192394D01*
X0169267Y0192246D01*
X0169199Y0192100D01*
X0169128Y0191956D01*
X0169054Y0191814D01*
X0168976Y0191673D01*
X0168894Y0191535D01*
X0168809Y0191398D01*
X0168721Y0191264D01*
X0168629Y0191132D01*
X0168534Y0191002D01*
X0168436Y0190874D01*
X0168335Y0190749D01*
X0168231Y0190627D01*
X0168124Y0190507D01*
X0168014Y0190390D01*
X0167901Y0190275D01*
X0167785Y0190164D01*
X0167666Y0190055D01*
X0167545Y0189950D01*
X0167421Y0189847D01*
X0167295Y0189747D01*
X0167167Y0189651D01*
X0167036Y0189558D01*
X0166902Y0189468D01*
X0166767Y0189381D01*
X0166629Y0189298D01*
X0166490Y0189218D01*
X0166348Y0189142D01*
X0166205Y0189069D01*
X0166060Y0189000D01*
X0165913Y0188934D01*
X0165765Y0188872D01*
X0165615Y0188814D01*
X0165464Y0188759D01*
X0165311Y0188708D01*
X0165157Y0188661D01*
X0165002Y0188618D01*
X0164846Y0188579D01*
X0164690Y0188543D01*
X0164532Y0188512D01*
X0164374Y0188484D01*
X0164215Y0188460D01*
X0164055Y0188440D01*
X0163895Y0188424D01*
X0163735Y0188412D01*
X0163574Y0188404D01*
X0163413Y0188400D01*
X0163253Y0188400D01*
X0163092Y0188404D01*
X0162931Y0188412D01*
X0162771Y0188424D01*
X0162611Y0188440D01*
X0162451Y0188460D01*
X0162292Y0188484D01*
X0162134Y0188512D01*
X0161976Y0188543D01*
X0161820Y0188579D01*
X0161664Y0188618D01*
X0161509Y0188661D01*
X0161355Y0188708D01*
X0161202Y0188759D01*
X0161051Y0188814D01*
X0160901Y0188872D01*
X0160753Y0188934D01*
X0160606Y0189000D01*
X0160461Y0189069D01*
X0160318Y0189142D01*
X0160176Y0189218D01*
X0160037Y0189298D01*
X0159899Y0189381D01*
X0159764Y0189468D01*
X0159630Y0189558D01*
X0159499Y0189651D01*
X0159371Y0189747D01*
X0159245Y0189847D01*
X0159121Y0189950D01*
X0159000Y0190055D01*
X0158881Y0190164D01*
X0158765Y0190275D01*
X0158652Y0190390D01*
X0158542Y0190507D01*
X0158435Y0190627D01*
X0158331Y0190749D01*
X0158230Y0190874D01*
X0158132Y0191002D01*
X0158037Y0191132D01*
X0157945Y0191264D01*
X0157857Y0191398D01*
X0157772Y0191535D01*
X0157690Y0191673D01*
X0157612Y0191814D01*
X0157538Y0191956D01*
X0157467Y0192100D01*
X0157399Y0192246D01*
X0157336Y0192394D01*
X0157275Y0192543D01*
X0157219Y0192694D01*
X0157166Y0192846D01*
X0157117Y0192999D01*
X0157072Y0193153D01*
X0157031Y0193308D01*
X0156993Y0193465D01*
X0156960Y0193622D01*
X0156930Y0193780D01*
X0156904Y0193939D01*
X0156883Y0194098D01*
X0156865Y0194258D01*
X0156851Y0194418D01*
X0156841Y0194579D01*
X0156835Y0194739D01*
X0156833Y0194900D01*
X0296833Y0194900D02*
X0296835Y0195061D01*
X0296841Y0195221D01*
X0296851Y0195382D01*
X0296865Y0195542D01*
X0296883Y0195702D01*
X0296904Y0195861D01*
X0296930Y0196020D01*
X0296960Y0196178D01*
X0296993Y0196335D01*
X0297031Y0196492D01*
X0297072Y0196647D01*
X0297117Y0196801D01*
X0297166Y0196954D01*
X0297219Y0197106D01*
X0297275Y0197257D01*
X0297336Y0197406D01*
X0297399Y0197554D01*
X0297467Y0197700D01*
X0297538Y0197844D01*
X0297612Y0197986D01*
X0297690Y0198127D01*
X0297772Y0198265D01*
X0297857Y0198402D01*
X0297945Y0198536D01*
X0298037Y0198668D01*
X0298132Y0198798D01*
X0298230Y0198926D01*
X0298331Y0199051D01*
X0298435Y0199173D01*
X0298542Y0199293D01*
X0298652Y0199410D01*
X0298765Y0199525D01*
X0298881Y0199636D01*
X0299000Y0199745D01*
X0299121Y0199850D01*
X0299245Y0199953D01*
X0299371Y0200053D01*
X0299499Y0200149D01*
X0299630Y0200242D01*
X0299764Y0200332D01*
X0299899Y0200419D01*
X0300037Y0200502D01*
X0300176Y0200582D01*
X0300318Y0200658D01*
X0300461Y0200731D01*
X0300606Y0200800D01*
X0300753Y0200866D01*
X0300901Y0200928D01*
X0301051Y0200986D01*
X0301202Y0201041D01*
X0301355Y0201092D01*
X0301509Y0201139D01*
X0301664Y0201182D01*
X0301820Y0201221D01*
X0301976Y0201257D01*
X0302134Y0201288D01*
X0302292Y0201316D01*
X0302451Y0201340D01*
X0302611Y0201360D01*
X0302771Y0201376D01*
X0302931Y0201388D01*
X0303092Y0201396D01*
X0303253Y0201400D01*
X0303413Y0201400D01*
X0303574Y0201396D01*
X0303735Y0201388D01*
X0303895Y0201376D01*
X0304055Y0201360D01*
X0304215Y0201340D01*
X0304374Y0201316D01*
X0304532Y0201288D01*
X0304690Y0201257D01*
X0304846Y0201221D01*
X0305002Y0201182D01*
X0305157Y0201139D01*
X0305311Y0201092D01*
X0305464Y0201041D01*
X0305615Y0200986D01*
X0305765Y0200928D01*
X0305913Y0200866D01*
X0306060Y0200800D01*
X0306205Y0200731D01*
X0306348Y0200658D01*
X0306490Y0200582D01*
X0306629Y0200502D01*
X0306767Y0200419D01*
X0306902Y0200332D01*
X0307036Y0200242D01*
X0307167Y0200149D01*
X0307295Y0200053D01*
X0307421Y0199953D01*
X0307545Y0199850D01*
X0307666Y0199745D01*
X0307785Y0199636D01*
X0307901Y0199525D01*
X0308014Y0199410D01*
X0308124Y0199293D01*
X0308231Y0199173D01*
X0308335Y0199051D01*
X0308436Y0198926D01*
X0308534Y0198798D01*
X0308629Y0198668D01*
X0308721Y0198536D01*
X0308809Y0198402D01*
X0308894Y0198265D01*
X0308976Y0198127D01*
X0309054Y0197986D01*
X0309128Y0197844D01*
X0309199Y0197700D01*
X0309267Y0197554D01*
X0309330Y0197406D01*
X0309391Y0197257D01*
X0309447Y0197106D01*
X0309500Y0196954D01*
X0309549Y0196801D01*
X0309594Y0196647D01*
X0309635Y0196492D01*
X0309673Y0196335D01*
X0309706Y0196178D01*
X0309736Y0196020D01*
X0309762Y0195861D01*
X0309783Y0195702D01*
X0309801Y0195542D01*
X0309815Y0195382D01*
X0309825Y0195221D01*
X0309831Y0195061D01*
X0309833Y0194900D01*
X0309831Y0194739D01*
X0309825Y0194579D01*
X0309815Y0194418D01*
X0309801Y0194258D01*
X0309783Y0194098D01*
X0309762Y0193939D01*
X0309736Y0193780D01*
X0309706Y0193622D01*
X0309673Y0193465D01*
X0309635Y0193308D01*
X0309594Y0193153D01*
X0309549Y0192999D01*
X0309500Y0192846D01*
X0309447Y0192694D01*
X0309391Y0192543D01*
X0309330Y0192394D01*
X0309267Y0192246D01*
X0309199Y0192100D01*
X0309128Y0191956D01*
X0309054Y0191814D01*
X0308976Y0191673D01*
X0308894Y0191535D01*
X0308809Y0191398D01*
X0308721Y0191264D01*
X0308629Y0191132D01*
X0308534Y0191002D01*
X0308436Y0190874D01*
X0308335Y0190749D01*
X0308231Y0190627D01*
X0308124Y0190507D01*
X0308014Y0190390D01*
X0307901Y0190275D01*
X0307785Y0190164D01*
X0307666Y0190055D01*
X0307545Y0189950D01*
X0307421Y0189847D01*
X0307295Y0189747D01*
X0307167Y0189651D01*
X0307036Y0189558D01*
X0306902Y0189468D01*
X0306767Y0189381D01*
X0306629Y0189298D01*
X0306490Y0189218D01*
X0306348Y0189142D01*
X0306205Y0189069D01*
X0306060Y0189000D01*
X0305913Y0188934D01*
X0305765Y0188872D01*
X0305615Y0188814D01*
X0305464Y0188759D01*
X0305311Y0188708D01*
X0305157Y0188661D01*
X0305002Y0188618D01*
X0304846Y0188579D01*
X0304690Y0188543D01*
X0304532Y0188512D01*
X0304374Y0188484D01*
X0304215Y0188460D01*
X0304055Y0188440D01*
X0303895Y0188424D01*
X0303735Y0188412D01*
X0303574Y0188404D01*
X0303413Y0188400D01*
X0303253Y0188400D01*
X0303092Y0188404D01*
X0302931Y0188412D01*
X0302771Y0188424D01*
X0302611Y0188440D01*
X0302451Y0188460D01*
X0302292Y0188484D01*
X0302134Y0188512D01*
X0301976Y0188543D01*
X0301820Y0188579D01*
X0301664Y0188618D01*
X0301509Y0188661D01*
X0301355Y0188708D01*
X0301202Y0188759D01*
X0301051Y0188814D01*
X0300901Y0188872D01*
X0300753Y0188934D01*
X0300606Y0189000D01*
X0300461Y0189069D01*
X0300318Y0189142D01*
X0300176Y0189218D01*
X0300037Y0189298D01*
X0299899Y0189381D01*
X0299764Y0189468D01*
X0299630Y0189558D01*
X0299499Y0189651D01*
X0299371Y0189747D01*
X0299245Y0189847D01*
X0299121Y0189950D01*
X0299000Y0190055D01*
X0298881Y0190164D01*
X0298765Y0190275D01*
X0298652Y0190390D01*
X0298542Y0190507D01*
X0298435Y0190627D01*
X0298331Y0190749D01*
X0298230Y0190874D01*
X0298132Y0191002D01*
X0298037Y0191132D01*
X0297945Y0191264D01*
X0297857Y0191398D01*
X0297772Y0191535D01*
X0297690Y0191673D01*
X0297612Y0191814D01*
X0297538Y0191956D01*
X0297467Y0192100D01*
X0297399Y0192246D01*
X0297336Y0192394D01*
X0297275Y0192543D01*
X0297219Y0192694D01*
X0297166Y0192846D01*
X0297117Y0192999D01*
X0297072Y0193153D01*
X0297031Y0193308D01*
X0296993Y0193465D01*
X0296960Y0193622D01*
X0296930Y0193780D01*
X0296904Y0193939D01*
X0296883Y0194098D01*
X0296865Y0194258D01*
X0296851Y0194418D01*
X0296841Y0194579D01*
X0296835Y0194739D01*
X0296833Y0194900D01*
D12*
X0212922Y0199519D02*
X0212922Y0201960D01*
X0212920Y0202027D01*
X0212914Y0202095D01*
X0212905Y0202161D01*
X0212891Y0202227D01*
X0212874Y0202293D01*
X0212853Y0202357D01*
X0212829Y0202420D01*
X0212801Y0202481D01*
X0212769Y0202541D01*
X0212735Y0202598D01*
X0212696Y0202654D01*
X0212655Y0202708D01*
X0212611Y0202759D01*
X0212564Y0202807D01*
X0212514Y0202853D01*
X0212462Y0202895D01*
X0212408Y0202935D01*
X0212351Y0202971D01*
X0212292Y0203005D01*
X0212232Y0203034D01*
X0212169Y0203061D01*
X0212106Y0203083D01*
X0212041Y0203102D01*
X0211976Y0203117D01*
X0211909Y0203129D01*
X0211842Y0203137D01*
X0211775Y0203141D01*
X0211707Y0203141D01*
X0211640Y0203137D01*
X0211573Y0203129D01*
X0211506Y0203117D01*
X0211441Y0203102D01*
X0211376Y0203083D01*
X0211313Y0203061D01*
X0211250Y0203034D01*
X0211190Y0203005D01*
X0211131Y0202971D01*
X0211074Y0202935D01*
X0211020Y0202895D01*
X0210968Y0202853D01*
X0210918Y0202807D01*
X0210871Y0202759D01*
X0210827Y0202708D01*
X0210786Y0202654D01*
X0210747Y0202598D01*
X0210713Y0202541D01*
X0210681Y0202481D01*
X0210653Y0202420D01*
X0210629Y0202357D01*
X0210608Y0202293D01*
X0210591Y0202227D01*
X0210577Y0202161D01*
X0210568Y0202095D01*
X0210562Y0202027D01*
X0210560Y0201960D01*
X0210560Y0199519D01*
X0210562Y0199452D01*
X0210568Y0199384D01*
X0210577Y0199318D01*
X0210591Y0199252D01*
X0210608Y0199186D01*
X0210629Y0199122D01*
X0210653Y0199059D01*
X0210681Y0198998D01*
X0210713Y0198938D01*
X0210747Y0198881D01*
X0210786Y0198825D01*
X0210827Y0198771D01*
X0210871Y0198720D01*
X0210918Y0198672D01*
X0210968Y0198626D01*
X0211020Y0198584D01*
X0211074Y0198544D01*
X0211131Y0198508D01*
X0211190Y0198474D01*
X0211250Y0198445D01*
X0211313Y0198418D01*
X0211376Y0198396D01*
X0211441Y0198377D01*
X0211506Y0198362D01*
X0211573Y0198350D01*
X0211640Y0198342D01*
X0211707Y0198338D01*
X0211775Y0198338D01*
X0211842Y0198342D01*
X0211909Y0198350D01*
X0211976Y0198362D01*
X0212041Y0198377D01*
X0212106Y0198396D01*
X0212169Y0198418D01*
X0212232Y0198445D01*
X0212292Y0198474D01*
X0212351Y0198508D01*
X0212408Y0198544D01*
X0212462Y0198584D01*
X0212514Y0198626D01*
X0212564Y0198672D01*
X0212611Y0198720D01*
X0212655Y0198771D01*
X0212696Y0198825D01*
X0212735Y0198881D01*
X0212769Y0198938D01*
X0212801Y0198998D01*
X0212829Y0199059D01*
X0212853Y0199122D01*
X0212874Y0199186D01*
X0212891Y0199252D01*
X0212905Y0199318D01*
X0212914Y0199384D01*
X0212920Y0199452D01*
X0212922Y0199519D01*
X0212922Y0186468D02*
X0212922Y0182137D01*
X0212920Y0182070D01*
X0212914Y0182002D01*
X0212905Y0181936D01*
X0212891Y0181870D01*
X0212874Y0181804D01*
X0212853Y0181740D01*
X0212829Y0181677D01*
X0212801Y0181616D01*
X0212769Y0181556D01*
X0212735Y0181499D01*
X0212696Y0181443D01*
X0212655Y0181389D01*
X0212611Y0181338D01*
X0212564Y0181290D01*
X0212514Y0181244D01*
X0212462Y0181202D01*
X0212408Y0181162D01*
X0212351Y0181126D01*
X0212292Y0181092D01*
X0212232Y0181063D01*
X0212169Y0181036D01*
X0212106Y0181014D01*
X0212041Y0180995D01*
X0211976Y0180980D01*
X0211909Y0180968D01*
X0211842Y0180960D01*
X0211775Y0180956D01*
X0211707Y0180956D01*
X0211640Y0180960D01*
X0211573Y0180968D01*
X0211506Y0180980D01*
X0211441Y0180995D01*
X0211376Y0181014D01*
X0211313Y0181036D01*
X0211250Y0181063D01*
X0211190Y0181092D01*
X0211131Y0181126D01*
X0211074Y0181162D01*
X0211020Y0181202D01*
X0210968Y0181244D01*
X0210918Y0181290D01*
X0210871Y0181338D01*
X0210827Y0181389D01*
X0210786Y0181443D01*
X0210747Y0181499D01*
X0210713Y0181556D01*
X0210681Y0181616D01*
X0210653Y0181677D01*
X0210629Y0181740D01*
X0210608Y0181804D01*
X0210591Y0181870D01*
X0210577Y0181936D01*
X0210568Y0182002D01*
X0210562Y0182070D01*
X0210560Y0182137D01*
X0210560Y0186468D01*
X0210562Y0186535D01*
X0210568Y0186603D01*
X0210577Y0186669D01*
X0210591Y0186735D01*
X0210608Y0186801D01*
X0210629Y0186865D01*
X0210653Y0186928D01*
X0210681Y0186989D01*
X0210713Y0187049D01*
X0210747Y0187106D01*
X0210786Y0187162D01*
X0210827Y0187216D01*
X0210871Y0187267D01*
X0210918Y0187315D01*
X0210968Y0187361D01*
X0211020Y0187403D01*
X0211074Y0187443D01*
X0211131Y0187479D01*
X0211190Y0187513D01*
X0211250Y0187542D01*
X0211313Y0187569D01*
X0211376Y0187591D01*
X0211441Y0187610D01*
X0211506Y0187625D01*
X0211573Y0187637D01*
X0211640Y0187645D01*
X0211707Y0187649D01*
X0211775Y0187649D01*
X0211842Y0187645D01*
X0211909Y0187637D01*
X0211976Y0187625D01*
X0212041Y0187610D01*
X0212106Y0187591D01*
X0212169Y0187569D01*
X0212232Y0187542D01*
X0212292Y0187513D01*
X0212351Y0187479D01*
X0212408Y0187443D01*
X0212462Y0187403D01*
X0212514Y0187361D01*
X0212564Y0187315D01*
X0212611Y0187267D01*
X0212655Y0187216D01*
X0212696Y0187162D01*
X0212735Y0187106D01*
X0212769Y0187049D01*
X0212801Y0186989D01*
X0212829Y0186928D01*
X0212853Y0186865D01*
X0212874Y0186801D01*
X0212891Y0186735D01*
X0212905Y0186669D01*
X0212914Y0186603D01*
X0212920Y0186535D01*
X0212922Y0186468D01*
X0178907Y0186468D02*
X0178907Y0182137D01*
X0178906Y0182137D02*
X0178904Y0182070D01*
X0178898Y0182002D01*
X0178889Y0181936D01*
X0178875Y0181870D01*
X0178858Y0181804D01*
X0178837Y0181740D01*
X0178813Y0181677D01*
X0178785Y0181616D01*
X0178753Y0181556D01*
X0178719Y0181499D01*
X0178680Y0181443D01*
X0178639Y0181389D01*
X0178595Y0181338D01*
X0178548Y0181290D01*
X0178498Y0181244D01*
X0178446Y0181202D01*
X0178392Y0181162D01*
X0178335Y0181126D01*
X0178276Y0181092D01*
X0178216Y0181063D01*
X0178153Y0181036D01*
X0178090Y0181014D01*
X0178025Y0180995D01*
X0177960Y0180980D01*
X0177893Y0180968D01*
X0177826Y0180960D01*
X0177759Y0180956D01*
X0177691Y0180956D01*
X0177624Y0180960D01*
X0177557Y0180968D01*
X0177490Y0180980D01*
X0177425Y0180995D01*
X0177360Y0181014D01*
X0177297Y0181036D01*
X0177234Y0181063D01*
X0177174Y0181092D01*
X0177115Y0181126D01*
X0177058Y0181162D01*
X0177004Y0181202D01*
X0176952Y0181244D01*
X0176902Y0181290D01*
X0176855Y0181338D01*
X0176811Y0181389D01*
X0176770Y0181443D01*
X0176731Y0181499D01*
X0176697Y0181556D01*
X0176665Y0181616D01*
X0176637Y0181677D01*
X0176613Y0181740D01*
X0176592Y0181804D01*
X0176575Y0181870D01*
X0176561Y0181936D01*
X0176552Y0182002D01*
X0176546Y0182070D01*
X0176544Y0182137D01*
X0176544Y0186468D01*
X0176546Y0186535D01*
X0176552Y0186603D01*
X0176561Y0186669D01*
X0176575Y0186735D01*
X0176592Y0186801D01*
X0176613Y0186865D01*
X0176637Y0186928D01*
X0176665Y0186989D01*
X0176697Y0187049D01*
X0176731Y0187106D01*
X0176770Y0187162D01*
X0176811Y0187216D01*
X0176855Y0187267D01*
X0176902Y0187315D01*
X0176952Y0187361D01*
X0177004Y0187403D01*
X0177058Y0187443D01*
X0177115Y0187479D01*
X0177174Y0187513D01*
X0177234Y0187542D01*
X0177297Y0187569D01*
X0177360Y0187591D01*
X0177425Y0187610D01*
X0177490Y0187625D01*
X0177557Y0187637D01*
X0177624Y0187645D01*
X0177691Y0187649D01*
X0177759Y0187649D01*
X0177826Y0187645D01*
X0177893Y0187637D01*
X0177960Y0187625D01*
X0178025Y0187610D01*
X0178090Y0187591D01*
X0178153Y0187569D01*
X0178216Y0187542D01*
X0178276Y0187513D01*
X0178335Y0187479D01*
X0178392Y0187443D01*
X0178446Y0187403D01*
X0178498Y0187361D01*
X0178548Y0187315D01*
X0178595Y0187267D01*
X0178639Y0187216D01*
X0178680Y0187162D01*
X0178719Y0187106D01*
X0178753Y0187049D01*
X0178785Y0186989D01*
X0178813Y0186928D01*
X0178837Y0186865D01*
X0178858Y0186801D01*
X0178875Y0186735D01*
X0178889Y0186669D01*
X0178898Y0186603D01*
X0178904Y0186535D01*
X0178906Y0186468D01*
X0178907Y0199519D02*
X0178907Y0201960D01*
X0178906Y0201960D02*
X0178904Y0202027D01*
X0178898Y0202095D01*
X0178889Y0202161D01*
X0178875Y0202227D01*
X0178858Y0202293D01*
X0178837Y0202357D01*
X0178813Y0202420D01*
X0178785Y0202481D01*
X0178753Y0202541D01*
X0178719Y0202598D01*
X0178680Y0202654D01*
X0178639Y0202708D01*
X0178595Y0202759D01*
X0178548Y0202807D01*
X0178498Y0202853D01*
X0178446Y0202895D01*
X0178392Y0202935D01*
X0178335Y0202971D01*
X0178276Y0203005D01*
X0178216Y0203034D01*
X0178153Y0203061D01*
X0178090Y0203083D01*
X0178025Y0203102D01*
X0177960Y0203117D01*
X0177893Y0203129D01*
X0177826Y0203137D01*
X0177759Y0203141D01*
X0177691Y0203141D01*
X0177624Y0203137D01*
X0177557Y0203129D01*
X0177490Y0203117D01*
X0177425Y0203102D01*
X0177360Y0203083D01*
X0177297Y0203061D01*
X0177234Y0203034D01*
X0177174Y0203005D01*
X0177115Y0202971D01*
X0177058Y0202935D01*
X0177004Y0202895D01*
X0176952Y0202853D01*
X0176902Y0202807D01*
X0176855Y0202759D01*
X0176811Y0202708D01*
X0176770Y0202654D01*
X0176731Y0202598D01*
X0176697Y0202541D01*
X0176665Y0202481D01*
X0176637Y0202420D01*
X0176613Y0202357D01*
X0176592Y0202293D01*
X0176575Y0202227D01*
X0176561Y0202161D01*
X0176552Y0202095D01*
X0176546Y0202027D01*
X0176544Y0201960D01*
X0176544Y0199519D01*
X0176546Y0199452D01*
X0176552Y0199384D01*
X0176561Y0199318D01*
X0176575Y0199252D01*
X0176592Y0199186D01*
X0176613Y0199122D01*
X0176637Y0199059D01*
X0176665Y0198998D01*
X0176697Y0198938D01*
X0176731Y0198881D01*
X0176770Y0198825D01*
X0176811Y0198771D01*
X0176855Y0198720D01*
X0176902Y0198672D01*
X0176952Y0198626D01*
X0177004Y0198584D01*
X0177058Y0198544D01*
X0177115Y0198508D01*
X0177174Y0198474D01*
X0177234Y0198445D01*
X0177297Y0198418D01*
X0177360Y0198396D01*
X0177425Y0198377D01*
X0177490Y0198362D01*
X0177557Y0198350D01*
X0177624Y0198342D01*
X0177691Y0198338D01*
X0177759Y0198338D01*
X0177826Y0198342D01*
X0177893Y0198350D01*
X0177960Y0198362D01*
X0178025Y0198377D01*
X0178090Y0198396D01*
X0178153Y0198418D01*
X0178216Y0198445D01*
X0178276Y0198474D01*
X0178335Y0198508D01*
X0178392Y0198544D01*
X0178446Y0198584D01*
X0178498Y0198626D01*
X0178548Y0198672D01*
X0178595Y0198720D01*
X0178639Y0198771D01*
X0178680Y0198825D01*
X0178719Y0198881D01*
X0178753Y0198938D01*
X0178785Y0198998D01*
X0178813Y0199059D01*
X0178837Y0199122D01*
X0178858Y0199186D01*
X0178875Y0199252D01*
X0178889Y0199318D01*
X0178898Y0199384D01*
X0178904Y0199452D01*
X0178906Y0199519D01*
M02*
