G75*
%MOIN*%
%OFA0B0*%
%FSLAX25Y25*%
%IPPOS*%
%LPD*%
%AMOC8*
5,1,8,0,0,1.08239X$1,22.5*
%
%ADD10C,0.00800*%
%ADD11C,0.00600*%
%ADD12C,0.00000*%
%ADD13C,0.00039*%
D10*
X0153333Y0075000D02*
X0153333Y0204900D01*
X0313333Y0204900D01*
D11*
X0313333Y0075000D02*
X0153333Y0075000D01*
X0313333Y0075000D02*
X0313333Y0204900D01*
D12*
X0296833Y0194900D02*
X0296835Y0195061D01*
X0296841Y0195221D01*
X0296851Y0195382D01*
X0296865Y0195542D01*
X0296883Y0195702D01*
X0296904Y0195861D01*
X0296930Y0196020D01*
X0296960Y0196178D01*
X0296993Y0196335D01*
X0297031Y0196492D01*
X0297072Y0196647D01*
X0297117Y0196801D01*
X0297166Y0196954D01*
X0297219Y0197106D01*
X0297275Y0197257D01*
X0297336Y0197406D01*
X0297399Y0197554D01*
X0297467Y0197700D01*
X0297538Y0197844D01*
X0297612Y0197986D01*
X0297690Y0198127D01*
X0297772Y0198265D01*
X0297857Y0198402D01*
X0297945Y0198536D01*
X0298037Y0198668D01*
X0298132Y0198798D01*
X0298230Y0198926D01*
X0298331Y0199051D01*
X0298435Y0199173D01*
X0298542Y0199293D01*
X0298652Y0199410D01*
X0298765Y0199525D01*
X0298881Y0199636D01*
X0299000Y0199745D01*
X0299121Y0199850D01*
X0299245Y0199953D01*
X0299371Y0200053D01*
X0299499Y0200149D01*
X0299630Y0200242D01*
X0299764Y0200332D01*
X0299899Y0200419D01*
X0300037Y0200502D01*
X0300176Y0200582D01*
X0300318Y0200658D01*
X0300461Y0200731D01*
X0300606Y0200800D01*
X0300753Y0200866D01*
X0300901Y0200928D01*
X0301051Y0200986D01*
X0301202Y0201041D01*
X0301355Y0201092D01*
X0301509Y0201139D01*
X0301664Y0201182D01*
X0301820Y0201221D01*
X0301976Y0201257D01*
X0302134Y0201288D01*
X0302292Y0201316D01*
X0302451Y0201340D01*
X0302611Y0201360D01*
X0302771Y0201376D01*
X0302931Y0201388D01*
X0303092Y0201396D01*
X0303253Y0201400D01*
X0303413Y0201400D01*
X0303574Y0201396D01*
X0303735Y0201388D01*
X0303895Y0201376D01*
X0304055Y0201360D01*
X0304215Y0201340D01*
X0304374Y0201316D01*
X0304532Y0201288D01*
X0304690Y0201257D01*
X0304846Y0201221D01*
X0305002Y0201182D01*
X0305157Y0201139D01*
X0305311Y0201092D01*
X0305464Y0201041D01*
X0305615Y0200986D01*
X0305765Y0200928D01*
X0305913Y0200866D01*
X0306060Y0200800D01*
X0306205Y0200731D01*
X0306348Y0200658D01*
X0306490Y0200582D01*
X0306629Y0200502D01*
X0306767Y0200419D01*
X0306902Y0200332D01*
X0307036Y0200242D01*
X0307167Y0200149D01*
X0307295Y0200053D01*
X0307421Y0199953D01*
X0307545Y0199850D01*
X0307666Y0199745D01*
X0307785Y0199636D01*
X0307901Y0199525D01*
X0308014Y0199410D01*
X0308124Y0199293D01*
X0308231Y0199173D01*
X0308335Y0199051D01*
X0308436Y0198926D01*
X0308534Y0198798D01*
X0308629Y0198668D01*
X0308721Y0198536D01*
X0308809Y0198402D01*
X0308894Y0198265D01*
X0308976Y0198127D01*
X0309054Y0197986D01*
X0309128Y0197844D01*
X0309199Y0197700D01*
X0309267Y0197554D01*
X0309330Y0197406D01*
X0309391Y0197257D01*
X0309447Y0197106D01*
X0309500Y0196954D01*
X0309549Y0196801D01*
X0309594Y0196647D01*
X0309635Y0196492D01*
X0309673Y0196335D01*
X0309706Y0196178D01*
X0309736Y0196020D01*
X0309762Y0195861D01*
X0309783Y0195702D01*
X0309801Y0195542D01*
X0309815Y0195382D01*
X0309825Y0195221D01*
X0309831Y0195061D01*
X0309833Y0194900D01*
X0309831Y0194739D01*
X0309825Y0194579D01*
X0309815Y0194418D01*
X0309801Y0194258D01*
X0309783Y0194098D01*
X0309762Y0193939D01*
X0309736Y0193780D01*
X0309706Y0193622D01*
X0309673Y0193465D01*
X0309635Y0193308D01*
X0309594Y0193153D01*
X0309549Y0192999D01*
X0309500Y0192846D01*
X0309447Y0192694D01*
X0309391Y0192543D01*
X0309330Y0192394D01*
X0309267Y0192246D01*
X0309199Y0192100D01*
X0309128Y0191956D01*
X0309054Y0191814D01*
X0308976Y0191673D01*
X0308894Y0191535D01*
X0308809Y0191398D01*
X0308721Y0191264D01*
X0308629Y0191132D01*
X0308534Y0191002D01*
X0308436Y0190874D01*
X0308335Y0190749D01*
X0308231Y0190627D01*
X0308124Y0190507D01*
X0308014Y0190390D01*
X0307901Y0190275D01*
X0307785Y0190164D01*
X0307666Y0190055D01*
X0307545Y0189950D01*
X0307421Y0189847D01*
X0307295Y0189747D01*
X0307167Y0189651D01*
X0307036Y0189558D01*
X0306902Y0189468D01*
X0306767Y0189381D01*
X0306629Y0189298D01*
X0306490Y0189218D01*
X0306348Y0189142D01*
X0306205Y0189069D01*
X0306060Y0189000D01*
X0305913Y0188934D01*
X0305765Y0188872D01*
X0305615Y0188814D01*
X0305464Y0188759D01*
X0305311Y0188708D01*
X0305157Y0188661D01*
X0305002Y0188618D01*
X0304846Y0188579D01*
X0304690Y0188543D01*
X0304532Y0188512D01*
X0304374Y0188484D01*
X0304215Y0188460D01*
X0304055Y0188440D01*
X0303895Y0188424D01*
X0303735Y0188412D01*
X0303574Y0188404D01*
X0303413Y0188400D01*
X0303253Y0188400D01*
X0303092Y0188404D01*
X0302931Y0188412D01*
X0302771Y0188424D01*
X0302611Y0188440D01*
X0302451Y0188460D01*
X0302292Y0188484D01*
X0302134Y0188512D01*
X0301976Y0188543D01*
X0301820Y0188579D01*
X0301664Y0188618D01*
X0301509Y0188661D01*
X0301355Y0188708D01*
X0301202Y0188759D01*
X0301051Y0188814D01*
X0300901Y0188872D01*
X0300753Y0188934D01*
X0300606Y0189000D01*
X0300461Y0189069D01*
X0300318Y0189142D01*
X0300176Y0189218D01*
X0300037Y0189298D01*
X0299899Y0189381D01*
X0299764Y0189468D01*
X0299630Y0189558D01*
X0299499Y0189651D01*
X0299371Y0189747D01*
X0299245Y0189847D01*
X0299121Y0189950D01*
X0299000Y0190055D01*
X0298881Y0190164D01*
X0298765Y0190275D01*
X0298652Y0190390D01*
X0298542Y0190507D01*
X0298435Y0190627D01*
X0298331Y0190749D01*
X0298230Y0190874D01*
X0298132Y0191002D01*
X0298037Y0191132D01*
X0297945Y0191264D01*
X0297857Y0191398D01*
X0297772Y0191535D01*
X0297690Y0191673D01*
X0297612Y0191814D01*
X0297538Y0191956D01*
X0297467Y0192100D01*
X0297399Y0192246D01*
X0297336Y0192394D01*
X0297275Y0192543D01*
X0297219Y0192694D01*
X0297166Y0192846D01*
X0297117Y0192999D01*
X0297072Y0193153D01*
X0297031Y0193308D01*
X0296993Y0193465D01*
X0296960Y0193622D01*
X0296930Y0193780D01*
X0296904Y0193939D01*
X0296883Y0194098D01*
X0296865Y0194258D01*
X0296851Y0194418D01*
X0296841Y0194579D01*
X0296835Y0194739D01*
X0296833Y0194900D01*
X0203331Y0186389D02*
X0203333Y0186460D01*
X0203339Y0186531D01*
X0203349Y0186602D01*
X0203363Y0186671D01*
X0203380Y0186740D01*
X0203402Y0186808D01*
X0203427Y0186875D01*
X0203456Y0186940D01*
X0203488Y0187003D01*
X0203524Y0187065D01*
X0203563Y0187124D01*
X0203606Y0187181D01*
X0203651Y0187236D01*
X0203700Y0187288D01*
X0203751Y0187337D01*
X0203805Y0187383D01*
X0203862Y0187427D01*
X0203920Y0187467D01*
X0203981Y0187503D01*
X0204044Y0187537D01*
X0204109Y0187566D01*
X0204175Y0187592D01*
X0204243Y0187615D01*
X0204311Y0187633D01*
X0204381Y0187648D01*
X0204451Y0187659D01*
X0204522Y0187666D01*
X0204593Y0187669D01*
X0204664Y0187668D01*
X0204735Y0187663D01*
X0204806Y0187654D01*
X0204876Y0187641D01*
X0204945Y0187625D01*
X0205013Y0187604D01*
X0205080Y0187580D01*
X0205146Y0187552D01*
X0205209Y0187520D01*
X0205271Y0187485D01*
X0205331Y0187447D01*
X0205389Y0187405D01*
X0205444Y0187361D01*
X0205497Y0187313D01*
X0205547Y0187262D01*
X0205594Y0187209D01*
X0205638Y0187153D01*
X0205679Y0187095D01*
X0205717Y0187034D01*
X0205751Y0186972D01*
X0205781Y0186907D01*
X0205808Y0186842D01*
X0205832Y0186774D01*
X0205851Y0186706D01*
X0205867Y0186637D01*
X0205879Y0186566D01*
X0205887Y0186496D01*
X0205891Y0186425D01*
X0205891Y0186353D01*
X0205887Y0186282D01*
X0205879Y0186212D01*
X0205867Y0186141D01*
X0205851Y0186072D01*
X0205832Y0186004D01*
X0205808Y0185936D01*
X0205781Y0185871D01*
X0205751Y0185806D01*
X0205717Y0185744D01*
X0205679Y0185683D01*
X0205638Y0185625D01*
X0205594Y0185569D01*
X0205547Y0185516D01*
X0205497Y0185465D01*
X0205444Y0185417D01*
X0205389Y0185373D01*
X0205331Y0185331D01*
X0205271Y0185293D01*
X0205209Y0185258D01*
X0205146Y0185226D01*
X0205080Y0185198D01*
X0205013Y0185174D01*
X0204945Y0185153D01*
X0204876Y0185137D01*
X0204806Y0185124D01*
X0204735Y0185115D01*
X0204664Y0185110D01*
X0204593Y0185109D01*
X0204522Y0185112D01*
X0204451Y0185119D01*
X0204381Y0185130D01*
X0204311Y0185145D01*
X0204243Y0185163D01*
X0204175Y0185186D01*
X0204109Y0185212D01*
X0204044Y0185241D01*
X0203981Y0185275D01*
X0203920Y0185311D01*
X0203862Y0185351D01*
X0203805Y0185395D01*
X0203751Y0185441D01*
X0203700Y0185490D01*
X0203651Y0185542D01*
X0203606Y0185597D01*
X0203563Y0185654D01*
X0203524Y0185713D01*
X0203488Y0185775D01*
X0203456Y0185838D01*
X0203427Y0185903D01*
X0203402Y0185970D01*
X0203380Y0186038D01*
X0203363Y0186107D01*
X0203349Y0186176D01*
X0203339Y0186247D01*
X0203333Y0186318D01*
X0203331Y0186389D01*
X0180575Y0186389D02*
X0180577Y0186460D01*
X0180583Y0186531D01*
X0180593Y0186602D01*
X0180607Y0186671D01*
X0180624Y0186740D01*
X0180646Y0186808D01*
X0180671Y0186875D01*
X0180700Y0186940D01*
X0180732Y0187003D01*
X0180768Y0187065D01*
X0180807Y0187124D01*
X0180850Y0187181D01*
X0180895Y0187236D01*
X0180944Y0187288D01*
X0180995Y0187337D01*
X0181049Y0187383D01*
X0181106Y0187427D01*
X0181164Y0187467D01*
X0181225Y0187503D01*
X0181288Y0187537D01*
X0181353Y0187566D01*
X0181419Y0187592D01*
X0181487Y0187615D01*
X0181555Y0187633D01*
X0181625Y0187648D01*
X0181695Y0187659D01*
X0181766Y0187666D01*
X0181837Y0187669D01*
X0181908Y0187668D01*
X0181979Y0187663D01*
X0182050Y0187654D01*
X0182120Y0187641D01*
X0182189Y0187625D01*
X0182257Y0187604D01*
X0182324Y0187580D01*
X0182390Y0187552D01*
X0182453Y0187520D01*
X0182515Y0187485D01*
X0182575Y0187447D01*
X0182633Y0187405D01*
X0182688Y0187361D01*
X0182741Y0187313D01*
X0182791Y0187262D01*
X0182838Y0187209D01*
X0182882Y0187153D01*
X0182923Y0187095D01*
X0182961Y0187034D01*
X0182995Y0186972D01*
X0183025Y0186907D01*
X0183052Y0186842D01*
X0183076Y0186774D01*
X0183095Y0186706D01*
X0183111Y0186637D01*
X0183123Y0186566D01*
X0183131Y0186496D01*
X0183135Y0186425D01*
X0183135Y0186353D01*
X0183131Y0186282D01*
X0183123Y0186212D01*
X0183111Y0186141D01*
X0183095Y0186072D01*
X0183076Y0186004D01*
X0183052Y0185936D01*
X0183025Y0185871D01*
X0182995Y0185806D01*
X0182961Y0185744D01*
X0182923Y0185683D01*
X0182882Y0185625D01*
X0182838Y0185569D01*
X0182791Y0185516D01*
X0182741Y0185465D01*
X0182688Y0185417D01*
X0182633Y0185373D01*
X0182575Y0185331D01*
X0182515Y0185293D01*
X0182453Y0185258D01*
X0182390Y0185226D01*
X0182324Y0185198D01*
X0182257Y0185174D01*
X0182189Y0185153D01*
X0182120Y0185137D01*
X0182050Y0185124D01*
X0181979Y0185115D01*
X0181908Y0185110D01*
X0181837Y0185109D01*
X0181766Y0185112D01*
X0181695Y0185119D01*
X0181625Y0185130D01*
X0181555Y0185145D01*
X0181487Y0185163D01*
X0181419Y0185186D01*
X0181353Y0185212D01*
X0181288Y0185241D01*
X0181225Y0185275D01*
X0181164Y0185311D01*
X0181106Y0185351D01*
X0181049Y0185395D01*
X0180995Y0185441D01*
X0180944Y0185490D01*
X0180895Y0185542D01*
X0180850Y0185597D01*
X0180807Y0185654D01*
X0180768Y0185713D01*
X0180732Y0185775D01*
X0180700Y0185838D01*
X0180671Y0185903D01*
X0180646Y0185970D01*
X0180624Y0186038D01*
X0180607Y0186107D01*
X0180593Y0186176D01*
X0180583Y0186247D01*
X0180577Y0186318D01*
X0180575Y0186389D01*
X0156833Y0194900D02*
X0156835Y0195061D01*
X0156841Y0195221D01*
X0156851Y0195382D01*
X0156865Y0195542D01*
X0156883Y0195702D01*
X0156904Y0195861D01*
X0156930Y0196020D01*
X0156960Y0196178D01*
X0156993Y0196335D01*
X0157031Y0196492D01*
X0157072Y0196647D01*
X0157117Y0196801D01*
X0157166Y0196954D01*
X0157219Y0197106D01*
X0157275Y0197257D01*
X0157336Y0197406D01*
X0157399Y0197554D01*
X0157467Y0197700D01*
X0157538Y0197844D01*
X0157612Y0197986D01*
X0157690Y0198127D01*
X0157772Y0198265D01*
X0157857Y0198402D01*
X0157945Y0198536D01*
X0158037Y0198668D01*
X0158132Y0198798D01*
X0158230Y0198926D01*
X0158331Y0199051D01*
X0158435Y0199173D01*
X0158542Y0199293D01*
X0158652Y0199410D01*
X0158765Y0199525D01*
X0158881Y0199636D01*
X0159000Y0199745D01*
X0159121Y0199850D01*
X0159245Y0199953D01*
X0159371Y0200053D01*
X0159499Y0200149D01*
X0159630Y0200242D01*
X0159764Y0200332D01*
X0159899Y0200419D01*
X0160037Y0200502D01*
X0160176Y0200582D01*
X0160318Y0200658D01*
X0160461Y0200731D01*
X0160606Y0200800D01*
X0160753Y0200866D01*
X0160901Y0200928D01*
X0161051Y0200986D01*
X0161202Y0201041D01*
X0161355Y0201092D01*
X0161509Y0201139D01*
X0161664Y0201182D01*
X0161820Y0201221D01*
X0161976Y0201257D01*
X0162134Y0201288D01*
X0162292Y0201316D01*
X0162451Y0201340D01*
X0162611Y0201360D01*
X0162771Y0201376D01*
X0162931Y0201388D01*
X0163092Y0201396D01*
X0163253Y0201400D01*
X0163413Y0201400D01*
X0163574Y0201396D01*
X0163735Y0201388D01*
X0163895Y0201376D01*
X0164055Y0201360D01*
X0164215Y0201340D01*
X0164374Y0201316D01*
X0164532Y0201288D01*
X0164690Y0201257D01*
X0164846Y0201221D01*
X0165002Y0201182D01*
X0165157Y0201139D01*
X0165311Y0201092D01*
X0165464Y0201041D01*
X0165615Y0200986D01*
X0165765Y0200928D01*
X0165913Y0200866D01*
X0166060Y0200800D01*
X0166205Y0200731D01*
X0166348Y0200658D01*
X0166490Y0200582D01*
X0166629Y0200502D01*
X0166767Y0200419D01*
X0166902Y0200332D01*
X0167036Y0200242D01*
X0167167Y0200149D01*
X0167295Y0200053D01*
X0167421Y0199953D01*
X0167545Y0199850D01*
X0167666Y0199745D01*
X0167785Y0199636D01*
X0167901Y0199525D01*
X0168014Y0199410D01*
X0168124Y0199293D01*
X0168231Y0199173D01*
X0168335Y0199051D01*
X0168436Y0198926D01*
X0168534Y0198798D01*
X0168629Y0198668D01*
X0168721Y0198536D01*
X0168809Y0198402D01*
X0168894Y0198265D01*
X0168976Y0198127D01*
X0169054Y0197986D01*
X0169128Y0197844D01*
X0169199Y0197700D01*
X0169267Y0197554D01*
X0169330Y0197406D01*
X0169391Y0197257D01*
X0169447Y0197106D01*
X0169500Y0196954D01*
X0169549Y0196801D01*
X0169594Y0196647D01*
X0169635Y0196492D01*
X0169673Y0196335D01*
X0169706Y0196178D01*
X0169736Y0196020D01*
X0169762Y0195861D01*
X0169783Y0195702D01*
X0169801Y0195542D01*
X0169815Y0195382D01*
X0169825Y0195221D01*
X0169831Y0195061D01*
X0169833Y0194900D01*
X0169831Y0194739D01*
X0169825Y0194579D01*
X0169815Y0194418D01*
X0169801Y0194258D01*
X0169783Y0194098D01*
X0169762Y0193939D01*
X0169736Y0193780D01*
X0169706Y0193622D01*
X0169673Y0193465D01*
X0169635Y0193308D01*
X0169594Y0193153D01*
X0169549Y0192999D01*
X0169500Y0192846D01*
X0169447Y0192694D01*
X0169391Y0192543D01*
X0169330Y0192394D01*
X0169267Y0192246D01*
X0169199Y0192100D01*
X0169128Y0191956D01*
X0169054Y0191814D01*
X0168976Y0191673D01*
X0168894Y0191535D01*
X0168809Y0191398D01*
X0168721Y0191264D01*
X0168629Y0191132D01*
X0168534Y0191002D01*
X0168436Y0190874D01*
X0168335Y0190749D01*
X0168231Y0190627D01*
X0168124Y0190507D01*
X0168014Y0190390D01*
X0167901Y0190275D01*
X0167785Y0190164D01*
X0167666Y0190055D01*
X0167545Y0189950D01*
X0167421Y0189847D01*
X0167295Y0189747D01*
X0167167Y0189651D01*
X0167036Y0189558D01*
X0166902Y0189468D01*
X0166767Y0189381D01*
X0166629Y0189298D01*
X0166490Y0189218D01*
X0166348Y0189142D01*
X0166205Y0189069D01*
X0166060Y0189000D01*
X0165913Y0188934D01*
X0165765Y0188872D01*
X0165615Y0188814D01*
X0165464Y0188759D01*
X0165311Y0188708D01*
X0165157Y0188661D01*
X0165002Y0188618D01*
X0164846Y0188579D01*
X0164690Y0188543D01*
X0164532Y0188512D01*
X0164374Y0188484D01*
X0164215Y0188460D01*
X0164055Y0188440D01*
X0163895Y0188424D01*
X0163735Y0188412D01*
X0163574Y0188404D01*
X0163413Y0188400D01*
X0163253Y0188400D01*
X0163092Y0188404D01*
X0162931Y0188412D01*
X0162771Y0188424D01*
X0162611Y0188440D01*
X0162451Y0188460D01*
X0162292Y0188484D01*
X0162134Y0188512D01*
X0161976Y0188543D01*
X0161820Y0188579D01*
X0161664Y0188618D01*
X0161509Y0188661D01*
X0161355Y0188708D01*
X0161202Y0188759D01*
X0161051Y0188814D01*
X0160901Y0188872D01*
X0160753Y0188934D01*
X0160606Y0189000D01*
X0160461Y0189069D01*
X0160318Y0189142D01*
X0160176Y0189218D01*
X0160037Y0189298D01*
X0159899Y0189381D01*
X0159764Y0189468D01*
X0159630Y0189558D01*
X0159499Y0189651D01*
X0159371Y0189747D01*
X0159245Y0189847D01*
X0159121Y0189950D01*
X0159000Y0190055D01*
X0158881Y0190164D01*
X0158765Y0190275D01*
X0158652Y0190390D01*
X0158542Y0190507D01*
X0158435Y0190627D01*
X0158331Y0190749D01*
X0158230Y0190874D01*
X0158132Y0191002D01*
X0158037Y0191132D01*
X0157945Y0191264D01*
X0157857Y0191398D01*
X0157772Y0191535D01*
X0157690Y0191673D01*
X0157612Y0191814D01*
X0157538Y0191956D01*
X0157467Y0192100D01*
X0157399Y0192246D01*
X0157336Y0192394D01*
X0157275Y0192543D01*
X0157219Y0192694D01*
X0157166Y0192846D01*
X0157117Y0192999D01*
X0157072Y0193153D01*
X0157031Y0193308D01*
X0156993Y0193465D01*
X0156960Y0193622D01*
X0156930Y0193780D01*
X0156904Y0193939D01*
X0156883Y0194098D01*
X0156865Y0194258D01*
X0156851Y0194418D01*
X0156841Y0194579D01*
X0156835Y0194739D01*
X0156833Y0194900D01*
X0156833Y0085000D02*
X0156835Y0085161D01*
X0156841Y0085321D01*
X0156851Y0085482D01*
X0156865Y0085642D01*
X0156883Y0085802D01*
X0156904Y0085961D01*
X0156930Y0086120D01*
X0156960Y0086278D01*
X0156993Y0086435D01*
X0157031Y0086592D01*
X0157072Y0086747D01*
X0157117Y0086901D01*
X0157166Y0087054D01*
X0157219Y0087206D01*
X0157275Y0087357D01*
X0157336Y0087506D01*
X0157399Y0087654D01*
X0157467Y0087800D01*
X0157538Y0087944D01*
X0157612Y0088086D01*
X0157690Y0088227D01*
X0157772Y0088365D01*
X0157857Y0088502D01*
X0157945Y0088636D01*
X0158037Y0088768D01*
X0158132Y0088898D01*
X0158230Y0089026D01*
X0158331Y0089151D01*
X0158435Y0089273D01*
X0158542Y0089393D01*
X0158652Y0089510D01*
X0158765Y0089625D01*
X0158881Y0089736D01*
X0159000Y0089845D01*
X0159121Y0089950D01*
X0159245Y0090053D01*
X0159371Y0090153D01*
X0159499Y0090249D01*
X0159630Y0090342D01*
X0159764Y0090432D01*
X0159899Y0090519D01*
X0160037Y0090602D01*
X0160176Y0090682D01*
X0160318Y0090758D01*
X0160461Y0090831D01*
X0160606Y0090900D01*
X0160753Y0090966D01*
X0160901Y0091028D01*
X0161051Y0091086D01*
X0161202Y0091141D01*
X0161355Y0091192D01*
X0161509Y0091239D01*
X0161664Y0091282D01*
X0161820Y0091321D01*
X0161976Y0091357D01*
X0162134Y0091388D01*
X0162292Y0091416D01*
X0162451Y0091440D01*
X0162611Y0091460D01*
X0162771Y0091476D01*
X0162931Y0091488D01*
X0163092Y0091496D01*
X0163253Y0091500D01*
X0163413Y0091500D01*
X0163574Y0091496D01*
X0163735Y0091488D01*
X0163895Y0091476D01*
X0164055Y0091460D01*
X0164215Y0091440D01*
X0164374Y0091416D01*
X0164532Y0091388D01*
X0164690Y0091357D01*
X0164846Y0091321D01*
X0165002Y0091282D01*
X0165157Y0091239D01*
X0165311Y0091192D01*
X0165464Y0091141D01*
X0165615Y0091086D01*
X0165765Y0091028D01*
X0165913Y0090966D01*
X0166060Y0090900D01*
X0166205Y0090831D01*
X0166348Y0090758D01*
X0166490Y0090682D01*
X0166629Y0090602D01*
X0166767Y0090519D01*
X0166902Y0090432D01*
X0167036Y0090342D01*
X0167167Y0090249D01*
X0167295Y0090153D01*
X0167421Y0090053D01*
X0167545Y0089950D01*
X0167666Y0089845D01*
X0167785Y0089736D01*
X0167901Y0089625D01*
X0168014Y0089510D01*
X0168124Y0089393D01*
X0168231Y0089273D01*
X0168335Y0089151D01*
X0168436Y0089026D01*
X0168534Y0088898D01*
X0168629Y0088768D01*
X0168721Y0088636D01*
X0168809Y0088502D01*
X0168894Y0088365D01*
X0168976Y0088227D01*
X0169054Y0088086D01*
X0169128Y0087944D01*
X0169199Y0087800D01*
X0169267Y0087654D01*
X0169330Y0087506D01*
X0169391Y0087357D01*
X0169447Y0087206D01*
X0169500Y0087054D01*
X0169549Y0086901D01*
X0169594Y0086747D01*
X0169635Y0086592D01*
X0169673Y0086435D01*
X0169706Y0086278D01*
X0169736Y0086120D01*
X0169762Y0085961D01*
X0169783Y0085802D01*
X0169801Y0085642D01*
X0169815Y0085482D01*
X0169825Y0085321D01*
X0169831Y0085161D01*
X0169833Y0085000D01*
X0169831Y0084839D01*
X0169825Y0084679D01*
X0169815Y0084518D01*
X0169801Y0084358D01*
X0169783Y0084198D01*
X0169762Y0084039D01*
X0169736Y0083880D01*
X0169706Y0083722D01*
X0169673Y0083565D01*
X0169635Y0083408D01*
X0169594Y0083253D01*
X0169549Y0083099D01*
X0169500Y0082946D01*
X0169447Y0082794D01*
X0169391Y0082643D01*
X0169330Y0082494D01*
X0169267Y0082346D01*
X0169199Y0082200D01*
X0169128Y0082056D01*
X0169054Y0081914D01*
X0168976Y0081773D01*
X0168894Y0081635D01*
X0168809Y0081498D01*
X0168721Y0081364D01*
X0168629Y0081232D01*
X0168534Y0081102D01*
X0168436Y0080974D01*
X0168335Y0080849D01*
X0168231Y0080727D01*
X0168124Y0080607D01*
X0168014Y0080490D01*
X0167901Y0080375D01*
X0167785Y0080264D01*
X0167666Y0080155D01*
X0167545Y0080050D01*
X0167421Y0079947D01*
X0167295Y0079847D01*
X0167167Y0079751D01*
X0167036Y0079658D01*
X0166902Y0079568D01*
X0166767Y0079481D01*
X0166629Y0079398D01*
X0166490Y0079318D01*
X0166348Y0079242D01*
X0166205Y0079169D01*
X0166060Y0079100D01*
X0165913Y0079034D01*
X0165765Y0078972D01*
X0165615Y0078914D01*
X0165464Y0078859D01*
X0165311Y0078808D01*
X0165157Y0078761D01*
X0165002Y0078718D01*
X0164846Y0078679D01*
X0164690Y0078643D01*
X0164532Y0078612D01*
X0164374Y0078584D01*
X0164215Y0078560D01*
X0164055Y0078540D01*
X0163895Y0078524D01*
X0163735Y0078512D01*
X0163574Y0078504D01*
X0163413Y0078500D01*
X0163253Y0078500D01*
X0163092Y0078504D01*
X0162931Y0078512D01*
X0162771Y0078524D01*
X0162611Y0078540D01*
X0162451Y0078560D01*
X0162292Y0078584D01*
X0162134Y0078612D01*
X0161976Y0078643D01*
X0161820Y0078679D01*
X0161664Y0078718D01*
X0161509Y0078761D01*
X0161355Y0078808D01*
X0161202Y0078859D01*
X0161051Y0078914D01*
X0160901Y0078972D01*
X0160753Y0079034D01*
X0160606Y0079100D01*
X0160461Y0079169D01*
X0160318Y0079242D01*
X0160176Y0079318D01*
X0160037Y0079398D01*
X0159899Y0079481D01*
X0159764Y0079568D01*
X0159630Y0079658D01*
X0159499Y0079751D01*
X0159371Y0079847D01*
X0159245Y0079947D01*
X0159121Y0080050D01*
X0159000Y0080155D01*
X0158881Y0080264D01*
X0158765Y0080375D01*
X0158652Y0080490D01*
X0158542Y0080607D01*
X0158435Y0080727D01*
X0158331Y0080849D01*
X0158230Y0080974D01*
X0158132Y0081102D01*
X0158037Y0081232D01*
X0157945Y0081364D01*
X0157857Y0081498D01*
X0157772Y0081635D01*
X0157690Y0081773D01*
X0157612Y0081914D01*
X0157538Y0082056D01*
X0157467Y0082200D01*
X0157399Y0082346D01*
X0157336Y0082494D01*
X0157275Y0082643D01*
X0157219Y0082794D01*
X0157166Y0082946D01*
X0157117Y0083099D01*
X0157072Y0083253D01*
X0157031Y0083408D01*
X0156993Y0083565D01*
X0156960Y0083722D01*
X0156930Y0083880D01*
X0156904Y0084039D01*
X0156883Y0084198D01*
X0156865Y0084358D01*
X0156851Y0084518D01*
X0156841Y0084679D01*
X0156835Y0084839D01*
X0156833Y0085000D01*
X0296833Y0085000D02*
X0296835Y0085161D01*
X0296841Y0085321D01*
X0296851Y0085482D01*
X0296865Y0085642D01*
X0296883Y0085802D01*
X0296904Y0085961D01*
X0296930Y0086120D01*
X0296960Y0086278D01*
X0296993Y0086435D01*
X0297031Y0086592D01*
X0297072Y0086747D01*
X0297117Y0086901D01*
X0297166Y0087054D01*
X0297219Y0087206D01*
X0297275Y0087357D01*
X0297336Y0087506D01*
X0297399Y0087654D01*
X0297467Y0087800D01*
X0297538Y0087944D01*
X0297612Y0088086D01*
X0297690Y0088227D01*
X0297772Y0088365D01*
X0297857Y0088502D01*
X0297945Y0088636D01*
X0298037Y0088768D01*
X0298132Y0088898D01*
X0298230Y0089026D01*
X0298331Y0089151D01*
X0298435Y0089273D01*
X0298542Y0089393D01*
X0298652Y0089510D01*
X0298765Y0089625D01*
X0298881Y0089736D01*
X0299000Y0089845D01*
X0299121Y0089950D01*
X0299245Y0090053D01*
X0299371Y0090153D01*
X0299499Y0090249D01*
X0299630Y0090342D01*
X0299764Y0090432D01*
X0299899Y0090519D01*
X0300037Y0090602D01*
X0300176Y0090682D01*
X0300318Y0090758D01*
X0300461Y0090831D01*
X0300606Y0090900D01*
X0300753Y0090966D01*
X0300901Y0091028D01*
X0301051Y0091086D01*
X0301202Y0091141D01*
X0301355Y0091192D01*
X0301509Y0091239D01*
X0301664Y0091282D01*
X0301820Y0091321D01*
X0301976Y0091357D01*
X0302134Y0091388D01*
X0302292Y0091416D01*
X0302451Y0091440D01*
X0302611Y0091460D01*
X0302771Y0091476D01*
X0302931Y0091488D01*
X0303092Y0091496D01*
X0303253Y0091500D01*
X0303413Y0091500D01*
X0303574Y0091496D01*
X0303735Y0091488D01*
X0303895Y0091476D01*
X0304055Y0091460D01*
X0304215Y0091440D01*
X0304374Y0091416D01*
X0304532Y0091388D01*
X0304690Y0091357D01*
X0304846Y0091321D01*
X0305002Y0091282D01*
X0305157Y0091239D01*
X0305311Y0091192D01*
X0305464Y0091141D01*
X0305615Y0091086D01*
X0305765Y0091028D01*
X0305913Y0090966D01*
X0306060Y0090900D01*
X0306205Y0090831D01*
X0306348Y0090758D01*
X0306490Y0090682D01*
X0306629Y0090602D01*
X0306767Y0090519D01*
X0306902Y0090432D01*
X0307036Y0090342D01*
X0307167Y0090249D01*
X0307295Y0090153D01*
X0307421Y0090053D01*
X0307545Y0089950D01*
X0307666Y0089845D01*
X0307785Y0089736D01*
X0307901Y0089625D01*
X0308014Y0089510D01*
X0308124Y0089393D01*
X0308231Y0089273D01*
X0308335Y0089151D01*
X0308436Y0089026D01*
X0308534Y0088898D01*
X0308629Y0088768D01*
X0308721Y0088636D01*
X0308809Y0088502D01*
X0308894Y0088365D01*
X0308976Y0088227D01*
X0309054Y0088086D01*
X0309128Y0087944D01*
X0309199Y0087800D01*
X0309267Y0087654D01*
X0309330Y0087506D01*
X0309391Y0087357D01*
X0309447Y0087206D01*
X0309500Y0087054D01*
X0309549Y0086901D01*
X0309594Y0086747D01*
X0309635Y0086592D01*
X0309673Y0086435D01*
X0309706Y0086278D01*
X0309736Y0086120D01*
X0309762Y0085961D01*
X0309783Y0085802D01*
X0309801Y0085642D01*
X0309815Y0085482D01*
X0309825Y0085321D01*
X0309831Y0085161D01*
X0309833Y0085000D01*
X0309831Y0084839D01*
X0309825Y0084679D01*
X0309815Y0084518D01*
X0309801Y0084358D01*
X0309783Y0084198D01*
X0309762Y0084039D01*
X0309736Y0083880D01*
X0309706Y0083722D01*
X0309673Y0083565D01*
X0309635Y0083408D01*
X0309594Y0083253D01*
X0309549Y0083099D01*
X0309500Y0082946D01*
X0309447Y0082794D01*
X0309391Y0082643D01*
X0309330Y0082494D01*
X0309267Y0082346D01*
X0309199Y0082200D01*
X0309128Y0082056D01*
X0309054Y0081914D01*
X0308976Y0081773D01*
X0308894Y0081635D01*
X0308809Y0081498D01*
X0308721Y0081364D01*
X0308629Y0081232D01*
X0308534Y0081102D01*
X0308436Y0080974D01*
X0308335Y0080849D01*
X0308231Y0080727D01*
X0308124Y0080607D01*
X0308014Y0080490D01*
X0307901Y0080375D01*
X0307785Y0080264D01*
X0307666Y0080155D01*
X0307545Y0080050D01*
X0307421Y0079947D01*
X0307295Y0079847D01*
X0307167Y0079751D01*
X0307036Y0079658D01*
X0306902Y0079568D01*
X0306767Y0079481D01*
X0306629Y0079398D01*
X0306490Y0079318D01*
X0306348Y0079242D01*
X0306205Y0079169D01*
X0306060Y0079100D01*
X0305913Y0079034D01*
X0305765Y0078972D01*
X0305615Y0078914D01*
X0305464Y0078859D01*
X0305311Y0078808D01*
X0305157Y0078761D01*
X0305002Y0078718D01*
X0304846Y0078679D01*
X0304690Y0078643D01*
X0304532Y0078612D01*
X0304374Y0078584D01*
X0304215Y0078560D01*
X0304055Y0078540D01*
X0303895Y0078524D01*
X0303735Y0078512D01*
X0303574Y0078504D01*
X0303413Y0078500D01*
X0303253Y0078500D01*
X0303092Y0078504D01*
X0302931Y0078512D01*
X0302771Y0078524D01*
X0302611Y0078540D01*
X0302451Y0078560D01*
X0302292Y0078584D01*
X0302134Y0078612D01*
X0301976Y0078643D01*
X0301820Y0078679D01*
X0301664Y0078718D01*
X0301509Y0078761D01*
X0301355Y0078808D01*
X0301202Y0078859D01*
X0301051Y0078914D01*
X0300901Y0078972D01*
X0300753Y0079034D01*
X0300606Y0079100D01*
X0300461Y0079169D01*
X0300318Y0079242D01*
X0300176Y0079318D01*
X0300037Y0079398D01*
X0299899Y0079481D01*
X0299764Y0079568D01*
X0299630Y0079658D01*
X0299499Y0079751D01*
X0299371Y0079847D01*
X0299245Y0079947D01*
X0299121Y0080050D01*
X0299000Y0080155D01*
X0298881Y0080264D01*
X0298765Y0080375D01*
X0298652Y0080490D01*
X0298542Y0080607D01*
X0298435Y0080727D01*
X0298331Y0080849D01*
X0298230Y0080974D01*
X0298132Y0081102D01*
X0298037Y0081232D01*
X0297945Y0081364D01*
X0297857Y0081498D01*
X0297772Y0081635D01*
X0297690Y0081773D01*
X0297612Y0081914D01*
X0297538Y0082056D01*
X0297467Y0082200D01*
X0297399Y0082346D01*
X0297336Y0082494D01*
X0297275Y0082643D01*
X0297219Y0082794D01*
X0297166Y0082946D01*
X0297117Y0083099D01*
X0297072Y0083253D01*
X0297031Y0083408D01*
X0296993Y0083565D01*
X0296960Y0083722D01*
X0296930Y0083880D01*
X0296904Y0084039D01*
X0296883Y0084198D01*
X0296865Y0084358D01*
X0296851Y0084518D01*
X0296841Y0084679D01*
X0296835Y0084839D01*
X0296833Y0085000D01*
D13*
X0211422Y0182137D02*
X0211422Y0186468D01*
X0211420Y0186535D01*
X0211414Y0186603D01*
X0211405Y0186669D01*
X0211391Y0186735D01*
X0211374Y0186801D01*
X0211353Y0186865D01*
X0211329Y0186928D01*
X0211301Y0186989D01*
X0211269Y0187049D01*
X0211235Y0187106D01*
X0211196Y0187162D01*
X0211155Y0187216D01*
X0211111Y0187267D01*
X0211064Y0187315D01*
X0211014Y0187361D01*
X0210962Y0187403D01*
X0210908Y0187443D01*
X0210851Y0187479D01*
X0210792Y0187513D01*
X0210732Y0187542D01*
X0210669Y0187569D01*
X0210606Y0187591D01*
X0210541Y0187610D01*
X0210476Y0187625D01*
X0210409Y0187637D01*
X0210342Y0187645D01*
X0210275Y0187649D01*
X0210207Y0187649D01*
X0210140Y0187645D01*
X0210073Y0187637D01*
X0210006Y0187625D01*
X0209941Y0187610D01*
X0209876Y0187591D01*
X0209813Y0187569D01*
X0209750Y0187542D01*
X0209690Y0187513D01*
X0209631Y0187479D01*
X0209574Y0187443D01*
X0209520Y0187403D01*
X0209468Y0187361D01*
X0209418Y0187315D01*
X0209371Y0187267D01*
X0209327Y0187216D01*
X0209286Y0187162D01*
X0209247Y0187106D01*
X0209213Y0187049D01*
X0209181Y0186989D01*
X0209153Y0186928D01*
X0209129Y0186865D01*
X0209108Y0186801D01*
X0209091Y0186735D01*
X0209077Y0186669D01*
X0209068Y0186603D01*
X0209062Y0186535D01*
X0209060Y0186468D01*
X0209060Y0182137D01*
X0209062Y0182070D01*
X0209068Y0182002D01*
X0209077Y0181936D01*
X0209091Y0181870D01*
X0209108Y0181804D01*
X0209129Y0181740D01*
X0209153Y0181677D01*
X0209181Y0181616D01*
X0209213Y0181556D01*
X0209247Y0181499D01*
X0209286Y0181443D01*
X0209327Y0181389D01*
X0209371Y0181338D01*
X0209418Y0181290D01*
X0209468Y0181244D01*
X0209520Y0181202D01*
X0209574Y0181162D01*
X0209631Y0181126D01*
X0209690Y0181092D01*
X0209750Y0181063D01*
X0209813Y0181036D01*
X0209876Y0181014D01*
X0209941Y0180995D01*
X0210006Y0180980D01*
X0210073Y0180968D01*
X0210140Y0180960D01*
X0210207Y0180956D01*
X0210275Y0180956D01*
X0210342Y0180960D01*
X0210409Y0180968D01*
X0210476Y0180980D01*
X0210541Y0180995D01*
X0210606Y0181014D01*
X0210669Y0181036D01*
X0210732Y0181063D01*
X0210792Y0181092D01*
X0210851Y0181126D01*
X0210908Y0181162D01*
X0210962Y0181202D01*
X0211014Y0181244D01*
X0211064Y0181290D01*
X0211111Y0181338D01*
X0211155Y0181389D01*
X0211196Y0181443D01*
X0211235Y0181499D01*
X0211269Y0181556D01*
X0211301Y0181616D01*
X0211329Y0181677D01*
X0211353Y0181740D01*
X0211374Y0181804D01*
X0211391Y0181870D01*
X0211405Y0181936D01*
X0211414Y0182002D01*
X0211420Y0182070D01*
X0211422Y0182137D01*
X0211422Y0199519D02*
X0211422Y0201960D01*
X0211420Y0202027D01*
X0211414Y0202095D01*
X0211405Y0202161D01*
X0211391Y0202227D01*
X0211374Y0202293D01*
X0211353Y0202357D01*
X0211329Y0202420D01*
X0211301Y0202481D01*
X0211269Y0202541D01*
X0211235Y0202598D01*
X0211196Y0202654D01*
X0211155Y0202708D01*
X0211111Y0202759D01*
X0211064Y0202807D01*
X0211014Y0202853D01*
X0210962Y0202895D01*
X0210908Y0202935D01*
X0210851Y0202971D01*
X0210792Y0203005D01*
X0210732Y0203034D01*
X0210669Y0203061D01*
X0210606Y0203083D01*
X0210541Y0203102D01*
X0210476Y0203117D01*
X0210409Y0203129D01*
X0210342Y0203137D01*
X0210275Y0203141D01*
X0210207Y0203141D01*
X0210140Y0203137D01*
X0210073Y0203129D01*
X0210006Y0203117D01*
X0209941Y0203102D01*
X0209876Y0203083D01*
X0209813Y0203061D01*
X0209750Y0203034D01*
X0209690Y0203005D01*
X0209631Y0202971D01*
X0209574Y0202935D01*
X0209520Y0202895D01*
X0209468Y0202853D01*
X0209418Y0202807D01*
X0209371Y0202759D01*
X0209327Y0202708D01*
X0209286Y0202654D01*
X0209247Y0202598D01*
X0209213Y0202541D01*
X0209181Y0202481D01*
X0209153Y0202420D01*
X0209129Y0202357D01*
X0209108Y0202293D01*
X0209091Y0202227D01*
X0209077Y0202161D01*
X0209068Y0202095D01*
X0209062Y0202027D01*
X0209060Y0201960D01*
X0209060Y0199519D01*
X0209062Y0199452D01*
X0209068Y0199384D01*
X0209077Y0199318D01*
X0209091Y0199252D01*
X0209108Y0199186D01*
X0209129Y0199122D01*
X0209153Y0199059D01*
X0209181Y0198998D01*
X0209213Y0198938D01*
X0209247Y0198881D01*
X0209286Y0198825D01*
X0209327Y0198771D01*
X0209371Y0198720D01*
X0209418Y0198672D01*
X0209468Y0198626D01*
X0209520Y0198584D01*
X0209574Y0198544D01*
X0209631Y0198508D01*
X0209690Y0198474D01*
X0209750Y0198445D01*
X0209813Y0198418D01*
X0209876Y0198396D01*
X0209941Y0198377D01*
X0210006Y0198362D01*
X0210073Y0198350D01*
X0210140Y0198342D01*
X0210207Y0198338D01*
X0210275Y0198338D01*
X0210342Y0198342D01*
X0210409Y0198350D01*
X0210476Y0198362D01*
X0210541Y0198377D01*
X0210606Y0198396D01*
X0210669Y0198418D01*
X0210732Y0198445D01*
X0210792Y0198474D01*
X0210851Y0198508D01*
X0210908Y0198544D01*
X0210962Y0198584D01*
X0211014Y0198626D01*
X0211064Y0198672D01*
X0211111Y0198720D01*
X0211155Y0198771D01*
X0211196Y0198825D01*
X0211235Y0198881D01*
X0211269Y0198938D01*
X0211301Y0198998D01*
X0211329Y0199059D01*
X0211353Y0199122D01*
X0211374Y0199186D01*
X0211391Y0199252D01*
X0211405Y0199318D01*
X0211414Y0199384D01*
X0211420Y0199452D01*
X0211422Y0199519D01*
X0177407Y0199519D02*
X0177407Y0201960D01*
X0177406Y0201960D02*
X0177404Y0202027D01*
X0177398Y0202095D01*
X0177389Y0202161D01*
X0177375Y0202227D01*
X0177358Y0202293D01*
X0177337Y0202357D01*
X0177313Y0202420D01*
X0177285Y0202481D01*
X0177253Y0202541D01*
X0177219Y0202598D01*
X0177180Y0202654D01*
X0177139Y0202708D01*
X0177095Y0202759D01*
X0177048Y0202807D01*
X0176998Y0202853D01*
X0176946Y0202895D01*
X0176892Y0202935D01*
X0176835Y0202971D01*
X0176776Y0203005D01*
X0176716Y0203034D01*
X0176653Y0203061D01*
X0176590Y0203083D01*
X0176525Y0203102D01*
X0176460Y0203117D01*
X0176393Y0203129D01*
X0176326Y0203137D01*
X0176259Y0203141D01*
X0176191Y0203141D01*
X0176124Y0203137D01*
X0176057Y0203129D01*
X0175990Y0203117D01*
X0175925Y0203102D01*
X0175860Y0203083D01*
X0175797Y0203061D01*
X0175734Y0203034D01*
X0175674Y0203005D01*
X0175615Y0202971D01*
X0175558Y0202935D01*
X0175504Y0202895D01*
X0175452Y0202853D01*
X0175402Y0202807D01*
X0175355Y0202759D01*
X0175311Y0202708D01*
X0175270Y0202654D01*
X0175231Y0202598D01*
X0175197Y0202541D01*
X0175165Y0202481D01*
X0175137Y0202420D01*
X0175113Y0202357D01*
X0175092Y0202293D01*
X0175075Y0202227D01*
X0175061Y0202161D01*
X0175052Y0202095D01*
X0175046Y0202027D01*
X0175044Y0201960D01*
X0175044Y0199519D01*
X0175046Y0199452D01*
X0175052Y0199384D01*
X0175061Y0199318D01*
X0175075Y0199252D01*
X0175092Y0199186D01*
X0175113Y0199122D01*
X0175137Y0199059D01*
X0175165Y0198998D01*
X0175197Y0198938D01*
X0175231Y0198881D01*
X0175270Y0198825D01*
X0175311Y0198771D01*
X0175355Y0198720D01*
X0175402Y0198672D01*
X0175452Y0198626D01*
X0175504Y0198584D01*
X0175558Y0198544D01*
X0175615Y0198508D01*
X0175674Y0198474D01*
X0175734Y0198445D01*
X0175797Y0198418D01*
X0175860Y0198396D01*
X0175925Y0198377D01*
X0175990Y0198362D01*
X0176057Y0198350D01*
X0176124Y0198342D01*
X0176191Y0198338D01*
X0176259Y0198338D01*
X0176326Y0198342D01*
X0176393Y0198350D01*
X0176460Y0198362D01*
X0176525Y0198377D01*
X0176590Y0198396D01*
X0176653Y0198418D01*
X0176716Y0198445D01*
X0176776Y0198474D01*
X0176835Y0198508D01*
X0176892Y0198544D01*
X0176946Y0198584D01*
X0176998Y0198626D01*
X0177048Y0198672D01*
X0177095Y0198720D01*
X0177139Y0198771D01*
X0177180Y0198825D01*
X0177219Y0198881D01*
X0177253Y0198938D01*
X0177285Y0198998D01*
X0177313Y0199059D01*
X0177337Y0199122D01*
X0177358Y0199186D01*
X0177375Y0199252D01*
X0177389Y0199318D01*
X0177398Y0199384D01*
X0177404Y0199452D01*
X0177406Y0199519D01*
X0177407Y0186468D02*
X0177407Y0182137D01*
X0177406Y0182137D02*
X0177404Y0182070D01*
X0177398Y0182002D01*
X0177389Y0181936D01*
X0177375Y0181870D01*
X0177358Y0181804D01*
X0177337Y0181740D01*
X0177313Y0181677D01*
X0177285Y0181616D01*
X0177253Y0181556D01*
X0177219Y0181499D01*
X0177180Y0181443D01*
X0177139Y0181389D01*
X0177095Y0181338D01*
X0177048Y0181290D01*
X0176998Y0181244D01*
X0176946Y0181202D01*
X0176892Y0181162D01*
X0176835Y0181126D01*
X0176776Y0181092D01*
X0176716Y0181063D01*
X0176653Y0181036D01*
X0176590Y0181014D01*
X0176525Y0180995D01*
X0176460Y0180980D01*
X0176393Y0180968D01*
X0176326Y0180960D01*
X0176259Y0180956D01*
X0176191Y0180956D01*
X0176124Y0180960D01*
X0176057Y0180968D01*
X0175990Y0180980D01*
X0175925Y0180995D01*
X0175860Y0181014D01*
X0175797Y0181036D01*
X0175734Y0181063D01*
X0175674Y0181092D01*
X0175615Y0181126D01*
X0175558Y0181162D01*
X0175504Y0181202D01*
X0175452Y0181244D01*
X0175402Y0181290D01*
X0175355Y0181338D01*
X0175311Y0181389D01*
X0175270Y0181443D01*
X0175231Y0181499D01*
X0175197Y0181556D01*
X0175165Y0181616D01*
X0175137Y0181677D01*
X0175113Y0181740D01*
X0175092Y0181804D01*
X0175075Y0181870D01*
X0175061Y0181936D01*
X0175052Y0182002D01*
X0175046Y0182070D01*
X0175044Y0182137D01*
X0175044Y0186468D01*
X0175046Y0186535D01*
X0175052Y0186603D01*
X0175061Y0186669D01*
X0175075Y0186735D01*
X0175092Y0186801D01*
X0175113Y0186865D01*
X0175137Y0186928D01*
X0175165Y0186989D01*
X0175197Y0187049D01*
X0175231Y0187106D01*
X0175270Y0187162D01*
X0175311Y0187216D01*
X0175355Y0187267D01*
X0175402Y0187315D01*
X0175452Y0187361D01*
X0175504Y0187403D01*
X0175558Y0187443D01*
X0175615Y0187479D01*
X0175674Y0187513D01*
X0175734Y0187542D01*
X0175797Y0187569D01*
X0175860Y0187591D01*
X0175925Y0187610D01*
X0175990Y0187625D01*
X0176057Y0187637D01*
X0176124Y0187645D01*
X0176191Y0187649D01*
X0176259Y0187649D01*
X0176326Y0187645D01*
X0176393Y0187637D01*
X0176460Y0187625D01*
X0176525Y0187610D01*
X0176590Y0187591D01*
X0176653Y0187569D01*
X0176716Y0187542D01*
X0176776Y0187513D01*
X0176835Y0187479D01*
X0176892Y0187443D01*
X0176946Y0187403D01*
X0176998Y0187361D01*
X0177048Y0187315D01*
X0177095Y0187267D01*
X0177139Y0187216D01*
X0177180Y0187162D01*
X0177219Y0187106D01*
X0177253Y0187049D01*
X0177285Y0186989D01*
X0177313Y0186928D01*
X0177337Y0186865D01*
X0177358Y0186801D01*
X0177375Y0186735D01*
X0177389Y0186669D01*
X0177398Y0186603D01*
X0177404Y0186535D01*
X0177406Y0186468D01*
M02*
