G75*
%MOIN*%
%OFA0B0*%
%FSLAX25Y25*%
%IPPOS*%
%LPD*%
%AMOC8*
5,1,8,0,0,1.08239X$1,22.5*
%
%ADD10R,0.07874X0.04724*%
%ADD11R,0.05315X0.02362*%
%ADD12R,0.04331X0.03937*%
%ADD13C,0.00197*%
%ADD14R,0.06693X0.16535*%
%ADD15R,0.03937X0.04331*%
%ADD16C,0.01181*%
%ADD17R,0.02480X0.03268*%
%ADD18R,0.08661X0.03346*%
%ADD19R,0.04134X0.03937*%
%ADD20R,0.04724X0.02165*%
%ADD21R,0.04724X0.03150*%
%ADD22R,0.03543X0.02362*%
%ADD23R,0.00984X0.02402*%
%ADD24R,0.00984X0.02205*%
%ADD25R,0.01181X0.04000*%
%ADD26R,0.02362X0.04000*%
%ADD27R,0.02165X0.04000*%
%ADD28C,0.00039*%
%ADD29R,0.03543X0.03346*%
D10*
X0158865Y0127876D03*
X0158865Y0149924D03*
X0307802Y0149924D03*
X0307802Y0127876D03*
D11*
X0293333Y0132994D03*
X0293333Y0136931D03*
X0293333Y0140869D03*
X0293333Y0144806D03*
X0173333Y0144806D03*
X0173333Y0140869D03*
X0173333Y0136931D03*
X0173333Y0132994D03*
D12*
X0189987Y0131900D03*
X0196680Y0131900D03*
X0196680Y0125900D03*
X0189987Y0125900D03*
X0189987Y0119900D03*
X0196680Y0119900D03*
X0196680Y0113900D03*
X0189987Y0113900D03*
X0209987Y0101400D03*
X0216680Y0101400D03*
X0196680Y0137900D03*
X0189987Y0137900D03*
X0189987Y0143900D03*
X0196680Y0143900D03*
X0265987Y0147400D03*
X0272680Y0147400D03*
X0278987Y0147400D03*
X0285680Y0147400D03*
X0299987Y0122400D03*
X0306680Y0122400D03*
X0306680Y0116400D03*
X0299987Y0116400D03*
D13*
X0185231Y0098551D02*
X0175782Y0089102D01*
X0175782Y0098551D01*
X0185231Y0098551D01*
X0185123Y0098443D02*
X0175782Y0098443D01*
X0175782Y0098248D02*
X0184928Y0098248D01*
X0184732Y0098053D02*
X0175782Y0098053D01*
X0175782Y0097857D02*
X0184537Y0097857D01*
X0184342Y0097662D02*
X0175782Y0097662D01*
X0175782Y0097467D02*
X0184146Y0097467D01*
X0183951Y0097271D02*
X0175782Y0097271D01*
X0175782Y0097076D02*
X0183756Y0097076D01*
X0183560Y0096881D02*
X0175782Y0096881D01*
X0175782Y0096685D02*
X0183365Y0096685D01*
X0183170Y0096490D02*
X0175782Y0096490D01*
X0175782Y0096294D02*
X0182974Y0096294D01*
X0182779Y0096099D02*
X0175782Y0096099D01*
X0175782Y0095904D02*
X0182583Y0095904D01*
X0182388Y0095708D02*
X0175782Y0095708D01*
X0175782Y0095513D02*
X0182193Y0095513D01*
X0181997Y0095318D02*
X0175782Y0095318D01*
X0175782Y0095122D02*
X0181802Y0095122D01*
X0181607Y0094927D02*
X0175782Y0094927D01*
X0175782Y0094732D02*
X0181411Y0094732D01*
X0181216Y0094536D02*
X0175782Y0094536D01*
X0175782Y0094341D02*
X0181021Y0094341D01*
X0180825Y0094145D02*
X0175782Y0094145D01*
X0175782Y0093950D02*
X0180630Y0093950D01*
X0180435Y0093755D02*
X0175782Y0093755D01*
X0175782Y0093559D02*
X0180239Y0093559D01*
X0180044Y0093364D02*
X0175782Y0093364D01*
X0175782Y0093169D02*
X0179848Y0093169D01*
X0179653Y0092973D02*
X0175782Y0092973D01*
X0175782Y0092778D02*
X0179458Y0092778D01*
X0179262Y0092583D02*
X0175782Y0092583D01*
X0175782Y0092387D02*
X0179067Y0092387D01*
X0178872Y0092192D02*
X0175782Y0092192D01*
X0175782Y0091996D02*
X0178676Y0091996D01*
X0178481Y0091801D02*
X0175782Y0091801D01*
X0175782Y0091606D02*
X0178286Y0091606D01*
X0178090Y0091410D02*
X0175782Y0091410D01*
X0175782Y0091215D02*
X0177895Y0091215D01*
X0177699Y0091020D02*
X0175782Y0091020D01*
X0175782Y0090824D02*
X0177504Y0090824D01*
X0177309Y0090629D02*
X0175782Y0090629D01*
X0175782Y0090434D02*
X0177113Y0090434D01*
X0176918Y0090238D02*
X0175782Y0090238D01*
X0175782Y0090043D02*
X0176723Y0090043D01*
X0176527Y0089847D02*
X0175782Y0089847D01*
X0175782Y0089652D02*
X0176332Y0089652D01*
X0176137Y0089457D02*
X0175782Y0089457D01*
X0175782Y0089261D02*
X0175941Y0089261D01*
D14*
X0193617Y0090362D03*
D15*
X0264833Y0134054D03*
X0264833Y0140746D03*
X0265833Y0153554D03*
X0265833Y0160246D03*
X0285833Y0140746D03*
X0285833Y0134054D03*
X0218333Y0186554D03*
X0218333Y0193246D03*
X0198133Y0164946D03*
X0198133Y0158254D03*
X0190933Y0158054D03*
X0190933Y0164746D03*
X0169433Y0166246D03*
X0163533Y0166246D03*
X0163533Y0159554D03*
X0169433Y0159554D03*
D16*
X0286259Y0125278D02*
X0286259Y0122522D01*
X0283503Y0122522D01*
X0283503Y0125278D01*
X0286259Y0125278D01*
X0286259Y0123644D02*
X0283503Y0123644D01*
X0283503Y0124766D02*
X0286259Y0124766D01*
X0293164Y0125278D02*
X0293164Y0122522D01*
X0290408Y0122522D01*
X0290408Y0125278D01*
X0293164Y0125278D01*
X0293164Y0123644D02*
X0290408Y0123644D01*
X0290408Y0124766D02*
X0293164Y0124766D01*
X0293164Y0117778D02*
X0293164Y0115022D01*
X0290408Y0115022D01*
X0290408Y0117778D01*
X0293164Y0117778D01*
X0293164Y0116144D02*
X0290408Y0116144D01*
X0290408Y0117266D02*
X0293164Y0117266D01*
X0286259Y0117778D02*
X0286259Y0115022D01*
X0283503Y0115022D01*
X0283503Y0117778D01*
X0286259Y0117778D01*
X0286259Y0116144D02*
X0283503Y0116144D01*
X0283503Y0117266D02*
X0286259Y0117266D01*
D17*
X0197861Y0106900D03*
X0188806Y0106900D03*
D18*
X0276833Y0156487D03*
X0276833Y0167313D03*
D19*
X0270829Y0161900D03*
X0282837Y0161900D03*
D20*
X0280452Y0141140D03*
X0280452Y0137400D03*
X0280452Y0133660D03*
X0270215Y0133660D03*
X0270215Y0141140D03*
D21*
X0259711Y0137325D03*
X0259711Y0132994D03*
X0259711Y0128664D03*
X0259711Y0124333D03*
X0259711Y0120002D03*
X0259711Y0115672D03*
X0259711Y0111341D03*
X0206955Y0111341D03*
X0206955Y0115672D03*
X0206955Y0120002D03*
X0206955Y0124333D03*
X0206955Y0128664D03*
X0206955Y0132994D03*
X0206955Y0137325D03*
X0206955Y0149136D03*
X0206955Y0153467D03*
X0206955Y0157798D03*
X0206955Y0162128D03*
X0206955Y0166459D03*
X0259711Y0166459D03*
X0259711Y0162128D03*
X0259711Y0157798D03*
X0259711Y0153467D03*
X0259711Y0149136D03*
D22*
X0255577Y0149136D03*
X0255577Y0153467D03*
X0255577Y0157798D03*
X0255577Y0162128D03*
X0255577Y0166459D03*
X0255577Y0137325D03*
X0255577Y0132994D03*
X0255577Y0128664D03*
X0255577Y0124333D03*
X0255577Y0120002D03*
X0255577Y0115672D03*
X0255577Y0111341D03*
X0211089Y0111341D03*
X0211089Y0115672D03*
X0211089Y0120002D03*
X0211089Y0124333D03*
X0211089Y0128664D03*
X0211089Y0132994D03*
X0211089Y0137325D03*
X0211089Y0149136D03*
X0211089Y0153467D03*
X0211089Y0157798D03*
X0211089Y0162128D03*
X0211089Y0166459D03*
D23*
X0195202Y0172794D03*
D24*
X0193233Y0172893D03*
X0191265Y0172893D03*
X0191265Y0169507D03*
X0193233Y0169507D03*
X0195202Y0169507D03*
D25*
X0196186Y0180094D03*
X0194218Y0180094D03*
X0192249Y0180094D03*
X0190281Y0180094D03*
X0188312Y0180094D03*
X0186344Y0180094D03*
X0198155Y0180094D03*
X0200123Y0180094D03*
D26*
X0205930Y0180094D03*
X0180536Y0180094D03*
D27*
X0183588Y0180094D03*
X0202879Y0180094D03*
D28*
X0207940Y0181518D02*
X0207879Y0181960D01*
X0207879Y0186684D01*
X0207960Y0187183D01*
X0208149Y0187651D01*
X0208438Y0188066D01*
X0208812Y0188406D01*
X0209253Y0188654D01*
X0209737Y0188798D01*
X0210241Y0188830D01*
X0210745Y0188798D01*
X0211230Y0188654D01*
X0211670Y0188406D01*
X0212044Y0188066D01*
X0212333Y0187651D01*
X0212523Y0187183D01*
X0212603Y0186684D01*
X0212603Y0181960D01*
X0212542Y0181518D01*
X0212396Y0181097D01*
X0212171Y0180712D01*
X0211875Y0180378D01*
X0211519Y0180109D01*
X0211118Y0179914D01*
X0210686Y0179801D01*
X0210241Y0179775D01*
X0209796Y0179801D01*
X0209364Y0179914D01*
X0208963Y0180109D01*
X0208608Y0180378D01*
X0208311Y0180712D01*
X0208086Y0181097D01*
X0207940Y0181518D01*
X0207939Y0181522D02*
X0212543Y0181522D01*
X0212548Y0181560D02*
X0207934Y0181560D01*
X0207929Y0181598D02*
X0212554Y0181598D01*
X0212559Y0181636D02*
X0207924Y0181636D01*
X0207918Y0181674D02*
X0212564Y0181674D01*
X0212569Y0181712D02*
X0207913Y0181712D01*
X0207908Y0181750D02*
X0212574Y0181750D01*
X0212580Y0181788D02*
X0207903Y0181788D01*
X0207898Y0181826D02*
X0212585Y0181826D01*
X0212590Y0181863D02*
X0207892Y0181863D01*
X0207887Y0181901D02*
X0212595Y0181901D01*
X0212601Y0181939D02*
X0207882Y0181939D01*
X0207879Y0181977D02*
X0212603Y0181977D01*
X0212603Y0182015D02*
X0207879Y0182015D01*
X0207879Y0182053D02*
X0212603Y0182053D01*
X0212603Y0182091D02*
X0207879Y0182091D01*
X0207879Y0182129D02*
X0212603Y0182129D01*
X0212603Y0182166D02*
X0207879Y0182166D01*
X0207879Y0182204D02*
X0212603Y0182204D01*
X0212603Y0182242D02*
X0207879Y0182242D01*
X0207879Y0182280D02*
X0212603Y0182280D01*
X0212603Y0182318D02*
X0207879Y0182318D01*
X0207879Y0182356D02*
X0212603Y0182356D01*
X0212603Y0182394D02*
X0207879Y0182394D01*
X0207879Y0182432D02*
X0212603Y0182432D01*
X0212603Y0182470D02*
X0207879Y0182470D01*
X0207879Y0182507D02*
X0212603Y0182507D01*
X0212603Y0182545D02*
X0207879Y0182545D01*
X0207879Y0182583D02*
X0212603Y0182583D01*
X0212603Y0182621D02*
X0207879Y0182621D01*
X0207879Y0182659D02*
X0212603Y0182659D01*
X0212603Y0182697D02*
X0207879Y0182697D01*
X0207879Y0182735D02*
X0212603Y0182735D01*
X0212603Y0182773D02*
X0207879Y0182773D01*
X0207879Y0182810D02*
X0212603Y0182810D01*
X0212603Y0182848D02*
X0207879Y0182848D01*
X0207879Y0182886D02*
X0212603Y0182886D01*
X0212603Y0182924D02*
X0207879Y0182924D01*
X0207879Y0182962D02*
X0212603Y0182962D01*
X0212603Y0183000D02*
X0207879Y0183000D01*
X0207879Y0183038D02*
X0212603Y0183038D01*
X0212603Y0183076D02*
X0207879Y0183076D01*
X0207879Y0183114D02*
X0212603Y0183114D01*
X0212603Y0183151D02*
X0207879Y0183151D01*
X0207879Y0183189D02*
X0212603Y0183189D01*
X0212603Y0183227D02*
X0207879Y0183227D01*
X0207879Y0183265D02*
X0212603Y0183265D01*
X0212603Y0183303D02*
X0207879Y0183303D01*
X0207879Y0183341D02*
X0212603Y0183341D01*
X0212603Y0183379D02*
X0207879Y0183379D01*
X0207879Y0183417D02*
X0212603Y0183417D01*
X0212603Y0183454D02*
X0207879Y0183454D01*
X0207879Y0183492D02*
X0212603Y0183492D01*
X0212603Y0183530D02*
X0207879Y0183530D01*
X0207879Y0183568D02*
X0212603Y0183568D01*
X0212603Y0183606D02*
X0207879Y0183606D01*
X0207879Y0183644D02*
X0212603Y0183644D01*
X0212603Y0183682D02*
X0207879Y0183682D01*
X0207879Y0183720D02*
X0212603Y0183720D01*
X0212603Y0183757D02*
X0207879Y0183757D01*
X0207879Y0183795D02*
X0212603Y0183795D01*
X0212603Y0183833D02*
X0207879Y0183833D01*
X0207879Y0183871D02*
X0212603Y0183871D01*
X0212603Y0183909D02*
X0207879Y0183909D01*
X0207879Y0183947D02*
X0212603Y0183947D01*
X0212603Y0183985D02*
X0207879Y0183985D01*
X0207879Y0184023D02*
X0212603Y0184023D01*
X0212603Y0184061D02*
X0207879Y0184061D01*
X0207879Y0184098D02*
X0212603Y0184098D01*
X0212603Y0184136D02*
X0207879Y0184136D01*
X0207879Y0184174D02*
X0212603Y0184174D01*
X0212603Y0184212D02*
X0207879Y0184212D01*
X0207879Y0184250D02*
X0212603Y0184250D01*
X0212603Y0184288D02*
X0207879Y0184288D01*
X0207879Y0184326D02*
X0212603Y0184326D01*
X0212603Y0184364D02*
X0207879Y0184364D01*
X0207879Y0184401D02*
X0212603Y0184401D01*
X0212603Y0184439D02*
X0207879Y0184439D01*
X0207879Y0184477D02*
X0212603Y0184477D01*
X0212603Y0184515D02*
X0207879Y0184515D01*
X0207879Y0184553D02*
X0212603Y0184553D01*
X0212603Y0184591D02*
X0207879Y0184591D01*
X0207879Y0184629D02*
X0212603Y0184629D01*
X0212603Y0184667D02*
X0207879Y0184667D01*
X0207879Y0184705D02*
X0212603Y0184705D01*
X0212603Y0184742D02*
X0207879Y0184742D01*
X0207879Y0184780D02*
X0212603Y0184780D01*
X0212603Y0184818D02*
X0207879Y0184818D01*
X0207879Y0184856D02*
X0212603Y0184856D01*
X0212603Y0184894D02*
X0207879Y0184894D01*
X0207879Y0184932D02*
X0212603Y0184932D01*
X0212603Y0184970D02*
X0207879Y0184970D01*
X0207879Y0185008D02*
X0212603Y0185008D01*
X0212603Y0185045D02*
X0207879Y0185045D01*
X0207879Y0185083D02*
X0212603Y0185083D01*
X0212603Y0185121D02*
X0207879Y0185121D01*
X0207879Y0185159D02*
X0212603Y0185159D01*
X0212603Y0185197D02*
X0207879Y0185197D01*
X0207879Y0185235D02*
X0212603Y0185235D01*
X0212603Y0185273D02*
X0207879Y0185273D01*
X0207879Y0185311D02*
X0212603Y0185311D01*
X0212603Y0185349D02*
X0207879Y0185349D01*
X0207879Y0185386D02*
X0212603Y0185386D01*
X0212603Y0185424D02*
X0207879Y0185424D01*
X0207879Y0185462D02*
X0212603Y0185462D01*
X0212603Y0185500D02*
X0207879Y0185500D01*
X0207879Y0185538D02*
X0212603Y0185538D01*
X0212603Y0185576D02*
X0207879Y0185576D01*
X0207879Y0185614D02*
X0212603Y0185614D01*
X0212603Y0185652D02*
X0207879Y0185652D01*
X0207879Y0185689D02*
X0212603Y0185689D01*
X0212603Y0185727D02*
X0207879Y0185727D01*
X0207879Y0185765D02*
X0212603Y0185765D01*
X0212603Y0185803D02*
X0207879Y0185803D01*
X0207879Y0185841D02*
X0212603Y0185841D01*
X0212603Y0185879D02*
X0207879Y0185879D01*
X0207879Y0185917D02*
X0212603Y0185917D01*
X0212603Y0185955D02*
X0207879Y0185955D01*
X0207879Y0185992D02*
X0212603Y0185992D01*
X0212603Y0186030D02*
X0207879Y0186030D01*
X0207879Y0186068D02*
X0212603Y0186068D01*
X0212603Y0186106D02*
X0207879Y0186106D01*
X0207879Y0186144D02*
X0212603Y0186144D01*
X0212603Y0186182D02*
X0207879Y0186182D01*
X0207879Y0186220D02*
X0212603Y0186220D01*
X0212603Y0186258D02*
X0207879Y0186258D01*
X0207879Y0186296D02*
X0212603Y0186296D01*
X0212603Y0186333D02*
X0207879Y0186333D01*
X0207879Y0186371D02*
X0212603Y0186371D01*
X0212603Y0186409D02*
X0207879Y0186409D01*
X0207879Y0186447D02*
X0212603Y0186447D01*
X0212603Y0186485D02*
X0207879Y0186485D01*
X0207879Y0186523D02*
X0212603Y0186523D01*
X0212603Y0186561D02*
X0207879Y0186561D01*
X0207879Y0186599D02*
X0212603Y0186599D01*
X0212603Y0186636D02*
X0207879Y0186636D01*
X0207879Y0186674D02*
X0212603Y0186674D01*
X0212599Y0186712D02*
X0207884Y0186712D01*
X0207890Y0186750D02*
X0212593Y0186750D01*
X0212587Y0186788D02*
X0207896Y0186788D01*
X0207902Y0186826D02*
X0212581Y0186826D01*
X0212574Y0186864D02*
X0207908Y0186864D01*
X0207914Y0186902D02*
X0212568Y0186902D01*
X0212562Y0186940D02*
X0207920Y0186940D01*
X0207926Y0186977D02*
X0212556Y0186977D01*
X0212550Y0187015D02*
X0207932Y0187015D01*
X0207939Y0187053D02*
X0212544Y0187053D01*
X0212538Y0187091D02*
X0207945Y0187091D01*
X0207951Y0187129D02*
X0212532Y0187129D01*
X0212525Y0187167D02*
X0207957Y0187167D01*
X0207968Y0187205D02*
X0212514Y0187205D01*
X0212499Y0187243D02*
X0207984Y0187243D01*
X0207999Y0187280D02*
X0212483Y0187280D01*
X0212468Y0187318D02*
X0208014Y0187318D01*
X0208030Y0187356D02*
X0212453Y0187356D01*
X0212437Y0187394D02*
X0208045Y0187394D01*
X0208060Y0187432D02*
X0212422Y0187432D01*
X0212407Y0187470D02*
X0208076Y0187470D01*
X0208091Y0187508D02*
X0212391Y0187508D01*
X0212376Y0187546D02*
X0208106Y0187546D01*
X0208122Y0187584D02*
X0212361Y0187584D01*
X0212345Y0187621D02*
X0208137Y0187621D01*
X0208155Y0187659D02*
X0212328Y0187659D01*
X0212301Y0187697D02*
X0208181Y0187697D01*
X0208207Y0187735D02*
X0212275Y0187735D01*
X0212249Y0187773D02*
X0208234Y0187773D01*
X0208260Y0187811D02*
X0212222Y0187811D01*
X0212196Y0187849D02*
X0208287Y0187849D01*
X0208313Y0187887D02*
X0212169Y0187887D01*
X0212143Y0187924D02*
X0208340Y0187924D01*
X0208366Y0187962D02*
X0212116Y0187962D01*
X0212090Y0188000D02*
X0208392Y0188000D01*
X0208419Y0188038D02*
X0212064Y0188038D01*
X0212033Y0188076D02*
X0208449Y0188076D01*
X0208491Y0188114D02*
X0211991Y0188114D01*
X0211950Y0188152D02*
X0208533Y0188152D01*
X0208574Y0188190D02*
X0211908Y0188190D01*
X0211866Y0188227D02*
X0208616Y0188227D01*
X0208658Y0188265D02*
X0211825Y0188265D01*
X0211783Y0188303D02*
X0208700Y0188303D01*
X0208741Y0188341D02*
X0211741Y0188341D01*
X0211699Y0188379D02*
X0208783Y0188379D01*
X0208832Y0188417D02*
X0211650Y0188417D01*
X0211583Y0188455D02*
X0208899Y0188455D01*
X0208967Y0188493D02*
X0211516Y0188493D01*
X0211448Y0188531D02*
X0209034Y0188531D01*
X0209101Y0188568D02*
X0211381Y0188568D01*
X0211314Y0188606D02*
X0209168Y0188606D01*
X0209236Y0188644D02*
X0211247Y0188644D01*
X0211134Y0188682D02*
X0209348Y0188682D01*
X0209476Y0188720D02*
X0211007Y0188720D01*
X0210879Y0188758D02*
X0209603Y0188758D01*
X0209731Y0188796D02*
X0210751Y0188796D01*
X0212531Y0181485D02*
X0207952Y0181485D01*
X0207965Y0181447D02*
X0212518Y0181447D01*
X0212505Y0181409D02*
X0207978Y0181409D01*
X0207991Y0181371D02*
X0212492Y0181371D01*
X0212478Y0181333D02*
X0208004Y0181333D01*
X0208017Y0181295D02*
X0212465Y0181295D01*
X0212452Y0181257D02*
X0208030Y0181257D01*
X0208043Y0181219D02*
X0212439Y0181219D01*
X0212426Y0181182D02*
X0208057Y0181182D01*
X0208070Y0181144D02*
X0212413Y0181144D01*
X0212400Y0181106D02*
X0208083Y0181106D01*
X0208103Y0181068D02*
X0212380Y0181068D01*
X0212358Y0181030D02*
X0208125Y0181030D01*
X0208147Y0180992D02*
X0212335Y0180992D01*
X0212313Y0180954D02*
X0208169Y0180954D01*
X0208191Y0180916D02*
X0212291Y0180916D01*
X0212269Y0180879D02*
X0208214Y0180879D01*
X0208236Y0180841D02*
X0212247Y0180841D01*
X0212224Y0180803D02*
X0208258Y0180803D01*
X0208280Y0180765D02*
X0212202Y0180765D01*
X0212180Y0180727D02*
X0208302Y0180727D01*
X0208331Y0180689D02*
X0212151Y0180689D01*
X0212117Y0180651D02*
X0208365Y0180651D01*
X0208399Y0180613D02*
X0212084Y0180613D01*
X0212050Y0180575D02*
X0208432Y0180575D01*
X0208466Y0180538D02*
X0212016Y0180538D01*
X0211983Y0180500D02*
X0208500Y0180500D01*
X0208533Y0180462D02*
X0211949Y0180462D01*
X0211916Y0180424D02*
X0208567Y0180424D01*
X0208601Y0180386D02*
X0211882Y0180386D01*
X0211835Y0180348D02*
X0208647Y0180348D01*
X0208697Y0180310D02*
X0211785Y0180310D01*
X0211735Y0180272D02*
X0208747Y0180272D01*
X0208797Y0180235D02*
X0211685Y0180235D01*
X0211635Y0180197D02*
X0208847Y0180197D01*
X0208897Y0180159D02*
X0211585Y0180159D01*
X0211535Y0180121D02*
X0208947Y0180121D01*
X0209016Y0180083D02*
X0211466Y0180083D01*
X0211388Y0180045D02*
X0209094Y0180045D01*
X0209172Y0180007D02*
X0211310Y0180007D01*
X0211232Y0179969D02*
X0209250Y0179969D01*
X0209328Y0179931D02*
X0211154Y0179931D01*
X0211040Y0179894D02*
X0209442Y0179894D01*
X0209587Y0179856D02*
X0210895Y0179856D01*
X0210750Y0179818D02*
X0209732Y0179818D01*
X0210154Y0179780D02*
X0210328Y0179780D01*
X0210241Y0197216D02*
X0209779Y0197263D01*
X0209334Y0197400D01*
X0208925Y0197621D01*
X0208567Y0197917D01*
X0208273Y0198278D01*
X0208056Y0198689D01*
X0207923Y0199135D01*
X0207879Y0199598D01*
X0207879Y0201960D01*
X0207926Y0202419D01*
X0208062Y0202859D01*
X0208281Y0203265D01*
X0208575Y0203620D01*
X0208933Y0203911D01*
X0209340Y0204127D01*
X0209782Y0204259D01*
X0210241Y0204302D01*
X0210765Y0204246D01*
X0211263Y0204074D01*
X0211710Y0203795D01*
X0212084Y0203424D01*
X0212366Y0202980D01*
X0212542Y0202483D01*
X0212603Y0201960D01*
X0212603Y0199598D01*
X0212546Y0199070D01*
X0212373Y0198567D01*
X0212092Y0198117D01*
X0211718Y0197739D01*
X0211269Y0197455D01*
X0210769Y0197277D01*
X0210241Y0197216D01*
X0210477Y0197243D02*
X0209973Y0197243D01*
X0209720Y0197281D02*
X0210779Y0197281D01*
X0210886Y0197319D02*
X0209597Y0197319D01*
X0209474Y0197357D02*
X0210993Y0197357D01*
X0211100Y0197395D02*
X0209351Y0197395D01*
X0209274Y0197433D02*
X0211207Y0197433D01*
X0211294Y0197471D02*
X0209204Y0197471D01*
X0209133Y0197508D02*
X0211354Y0197508D01*
X0211414Y0197546D02*
X0209063Y0197546D01*
X0208993Y0197584D02*
X0211473Y0197584D01*
X0211533Y0197622D02*
X0208924Y0197622D01*
X0208878Y0197660D02*
X0211593Y0197660D01*
X0211652Y0197698D02*
X0208832Y0197698D01*
X0208786Y0197736D02*
X0211712Y0197736D01*
X0211752Y0197774D02*
X0208741Y0197774D01*
X0208695Y0197811D02*
X0211790Y0197811D01*
X0211827Y0197849D02*
X0208649Y0197849D01*
X0208603Y0197887D02*
X0211865Y0197887D01*
X0211902Y0197925D02*
X0208561Y0197925D01*
X0208530Y0197963D02*
X0211940Y0197963D01*
X0211977Y0198001D02*
X0208499Y0198001D01*
X0208468Y0198039D02*
X0212015Y0198039D01*
X0212052Y0198077D02*
X0208437Y0198077D01*
X0208406Y0198115D02*
X0212090Y0198115D01*
X0212114Y0198152D02*
X0208376Y0198152D01*
X0208345Y0198190D02*
X0212138Y0198190D01*
X0212162Y0198228D02*
X0208314Y0198228D01*
X0208283Y0198266D02*
X0212185Y0198266D01*
X0212209Y0198304D02*
X0208260Y0198304D01*
X0208240Y0198342D02*
X0212232Y0198342D01*
X0212256Y0198380D02*
X0208220Y0198380D01*
X0208199Y0198418D02*
X0212279Y0198418D01*
X0212303Y0198455D02*
X0208179Y0198455D01*
X0208159Y0198493D02*
X0212327Y0198493D01*
X0212350Y0198531D02*
X0208139Y0198531D01*
X0208119Y0198569D02*
X0212373Y0198569D01*
X0212386Y0198607D02*
X0208099Y0198607D01*
X0208079Y0198645D02*
X0212400Y0198645D01*
X0212413Y0198683D02*
X0208059Y0198683D01*
X0208046Y0198721D02*
X0212426Y0198721D01*
X0212439Y0198759D02*
X0208035Y0198759D01*
X0208024Y0198796D02*
X0212452Y0198796D01*
X0212465Y0198834D02*
X0208012Y0198834D01*
X0208001Y0198872D02*
X0212478Y0198872D01*
X0212491Y0198910D02*
X0207990Y0198910D01*
X0207978Y0198948D02*
X0212504Y0198948D01*
X0212517Y0198986D02*
X0207967Y0198986D01*
X0207956Y0199024D02*
X0212530Y0199024D01*
X0212543Y0199062D02*
X0207945Y0199062D01*
X0207933Y0199099D02*
X0212549Y0199099D01*
X0212553Y0199137D02*
X0207922Y0199137D01*
X0207919Y0199175D02*
X0212558Y0199175D01*
X0212562Y0199213D02*
X0207915Y0199213D01*
X0207912Y0199251D02*
X0212566Y0199251D01*
X0212570Y0199289D02*
X0207908Y0199289D01*
X0207905Y0199327D02*
X0212574Y0199327D01*
X0212578Y0199365D02*
X0207901Y0199365D01*
X0207897Y0199403D02*
X0212582Y0199403D01*
X0212586Y0199440D02*
X0207894Y0199440D01*
X0207890Y0199478D02*
X0212590Y0199478D01*
X0212595Y0199516D02*
X0207887Y0199516D01*
X0207883Y0199554D02*
X0212599Y0199554D01*
X0212603Y0199592D02*
X0207880Y0199592D01*
X0207879Y0199630D02*
X0212603Y0199630D01*
X0212603Y0199668D02*
X0207879Y0199668D01*
X0207879Y0199706D02*
X0212603Y0199706D01*
X0212603Y0199743D02*
X0207879Y0199743D01*
X0207879Y0199781D02*
X0212603Y0199781D01*
X0212603Y0199819D02*
X0207879Y0199819D01*
X0207879Y0199857D02*
X0212603Y0199857D01*
X0212603Y0199895D02*
X0207879Y0199895D01*
X0207879Y0199933D02*
X0212603Y0199933D01*
X0212603Y0199971D02*
X0207879Y0199971D01*
X0207879Y0200009D02*
X0212603Y0200009D01*
X0212603Y0200046D02*
X0207879Y0200046D01*
X0207879Y0200084D02*
X0212603Y0200084D01*
X0212603Y0200122D02*
X0207879Y0200122D01*
X0207879Y0200160D02*
X0212603Y0200160D01*
X0212603Y0200198D02*
X0207879Y0200198D01*
X0207879Y0200236D02*
X0212603Y0200236D01*
X0212603Y0200274D02*
X0207879Y0200274D01*
X0207879Y0200312D02*
X0212603Y0200312D01*
X0212603Y0200350D02*
X0207879Y0200350D01*
X0207879Y0200387D02*
X0212603Y0200387D01*
X0212603Y0200425D02*
X0207879Y0200425D01*
X0207879Y0200463D02*
X0212603Y0200463D01*
X0212603Y0200501D02*
X0207879Y0200501D01*
X0207879Y0200539D02*
X0212603Y0200539D01*
X0212603Y0200577D02*
X0207879Y0200577D01*
X0207879Y0200615D02*
X0212603Y0200615D01*
X0212603Y0200653D02*
X0207879Y0200653D01*
X0207879Y0200690D02*
X0212603Y0200690D01*
X0212603Y0200728D02*
X0207879Y0200728D01*
X0207879Y0200766D02*
X0212603Y0200766D01*
X0212603Y0200804D02*
X0207879Y0200804D01*
X0207879Y0200842D02*
X0212603Y0200842D01*
X0212603Y0200880D02*
X0207879Y0200880D01*
X0207879Y0200918D02*
X0212603Y0200918D01*
X0212603Y0200956D02*
X0207879Y0200956D01*
X0207879Y0200994D02*
X0212603Y0200994D01*
X0212603Y0201031D02*
X0207879Y0201031D01*
X0207879Y0201069D02*
X0212603Y0201069D01*
X0212603Y0201107D02*
X0207879Y0201107D01*
X0207879Y0201145D02*
X0212603Y0201145D01*
X0212603Y0201183D02*
X0207879Y0201183D01*
X0207879Y0201221D02*
X0212603Y0201221D01*
X0212603Y0201259D02*
X0207879Y0201259D01*
X0207879Y0201297D02*
X0212603Y0201297D01*
X0212603Y0201334D02*
X0207879Y0201334D01*
X0207879Y0201372D02*
X0212603Y0201372D01*
X0212603Y0201410D02*
X0207879Y0201410D01*
X0207879Y0201448D02*
X0212603Y0201448D01*
X0212603Y0201486D02*
X0207879Y0201486D01*
X0207879Y0201524D02*
X0212603Y0201524D01*
X0212603Y0201562D02*
X0207879Y0201562D01*
X0207879Y0201600D02*
X0212603Y0201600D01*
X0212603Y0201638D02*
X0207879Y0201638D01*
X0207879Y0201675D02*
X0212603Y0201675D01*
X0212603Y0201713D02*
X0207879Y0201713D01*
X0207879Y0201751D02*
X0212603Y0201751D01*
X0212603Y0201789D02*
X0207879Y0201789D01*
X0207879Y0201827D02*
X0212603Y0201827D01*
X0212603Y0201865D02*
X0207879Y0201865D01*
X0207879Y0201903D02*
X0212603Y0201903D01*
X0212603Y0201941D02*
X0207879Y0201941D01*
X0207881Y0201978D02*
X0212601Y0201978D01*
X0212597Y0202016D02*
X0207885Y0202016D01*
X0207889Y0202054D02*
X0212592Y0202054D01*
X0212588Y0202092D02*
X0207893Y0202092D01*
X0207896Y0202130D02*
X0212584Y0202130D01*
X0212579Y0202168D02*
X0207900Y0202168D01*
X0207904Y0202206D02*
X0212575Y0202206D01*
X0212570Y0202244D02*
X0207908Y0202244D01*
X0207912Y0202281D02*
X0212566Y0202281D01*
X0212561Y0202319D02*
X0207916Y0202319D01*
X0207920Y0202357D02*
X0212557Y0202357D01*
X0212553Y0202395D02*
X0207924Y0202395D01*
X0207931Y0202433D02*
X0212548Y0202433D01*
X0212544Y0202471D02*
X0207942Y0202471D01*
X0207954Y0202509D02*
X0212533Y0202509D01*
X0212520Y0202547D02*
X0207966Y0202547D01*
X0207977Y0202585D02*
X0212506Y0202585D01*
X0212493Y0202622D02*
X0207989Y0202622D01*
X0208001Y0202660D02*
X0212479Y0202660D01*
X0212466Y0202698D02*
X0208012Y0202698D01*
X0208024Y0202736D02*
X0212452Y0202736D01*
X0212439Y0202774D02*
X0208036Y0202774D01*
X0208047Y0202812D02*
X0212426Y0202812D01*
X0212412Y0202850D02*
X0208059Y0202850D01*
X0208077Y0202888D02*
X0212399Y0202888D01*
X0212385Y0202925D02*
X0208098Y0202925D01*
X0208118Y0202963D02*
X0212372Y0202963D01*
X0212352Y0203001D02*
X0208138Y0203001D01*
X0208159Y0203039D02*
X0212328Y0203039D01*
X0212304Y0203077D02*
X0208179Y0203077D01*
X0208200Y0203115D02*
X0212280Y0203115D01*
X0212256Y0203153D02*
X0208220Y0203153D01*
X0208241Y0203191D02*
X0212232Y0203191D01*
X0212208Y0203229D02*
X0208261Y0203229D01*
X0208282Y0203266D02*
X0212184Y0203266D01*
X0212160Y0203304D02*
X0208313Y0203304D01*
X0208345Y0203342D02*
X0212136Y0203342D01*
X0212112Y0203380D02*
X0208376Y0203380D01*
X0208407Y0203418D02*
X0212088Y0203418D01*
X0212052Y0203456D02*
X0208439Y0203456D01*
X0208470Y0203494D02*
X0212014Y0203494D01*
X0211976Y0203532D02*
X0208501Y0203532D01*
X0208533Y0203569D02*
X0211938Y0203569D01*
X0211900Y0203607D02*
X0208564Y0203607D01*
X0208606Y0203645D02*
X0211861Y0203645D01*
X0211823Y0203683D02*
X0208652Y0203683D01*
X0208699Y0203721D02*
X0211785Y0203721D01*
X0211747Y0203759D02*
X0208745Y0203759D01*
X0208792Y0203797D02*
X0211708Y0203797D01*
X0211647Y0203835D02*
X0208838Y0203835D01*
X0208885Y0203873D02*
X0211586Y0203873D01*
X0211525Y0203910D02*
X0208931Y0203910D01*
X0209002Y0203948D02*
X0211464Y0203948D01*
X0211403Y0203986D02*
X0209074Y0203986D01*
X0209146Y0204024D02*
X0211343Y0204024D01*
X0211282Y0204062D02*
X0209217Y0204062D01*
X0209289Y0204100D02*
X0211187Y0204100D01*
X0211077Y0204138D02*
X0209376Y0204138D01*
X0209503Y0204176D02*
X0210968Y0204176D01*
X0210858Y0204213D02*
X0209629Y0204213D01*
X0209756Y0204251D02*
X0210712Y0204251D01*
X0210362Y0204289D02*
X0210102Y0204289D01*
X0178588Y0201960D02*
X0178588Y0199598D01*
X0178530Y0199070D01*
X0178357Y0198567D01*
X0178076Y0198117D01*
X0177702Y0197739D01*
X0177254Y0197455D01*
X0176753Y0197277D01*
X0176225Y0197216D01*
X0175763Y0197263D01*
X0175318Y0197400D01*
X0174909Y0197621D01*
X0174551Y0197917D01*
X0174258Y0198278D01*
X0174040Y0198689D01*
X0173907Y0199135D01*
X0173863Y0199598D01*
X0173863Y0201960D01*
X0173910Y0202419D01*
X0174046Y0202859D01*
X0174265Y0203265D01*
X0174559Y0203620D01*
X0174917Y0203911D01*
X0175324Y0204127D01*
X0175766Y0204259D01*
X0176225Y0204302D01*
X0176749Y0204246D01*
X0177247Y0204074D01*
X0177694Y0203795D01*
X0178068Y0203424D01*
X0178350Y0202980D01*
X0178526Y0202483D01*
X0178588Y0201960D01*
X0178585Y0201978D02*
X0173865Y0201978D01*
X0173863Y0201941D02*
X0178588Y0201941D01*
X0178588Y0201903D02*
X0173863Y0201903D01*
X0173863Y0201865D02*
X0178588Y0201865D01*
X0178588Y0201827D02*
X0173863Y0201827D01*
X0173863Y0201789D02*
X0178588Y0201789D01*
X0178588Y0201751D02*
X0173863Y0201751D01*
X0173863Y0201713D02*
X0178588Y0201713D01*
X0178588Y0201675D02*
X0173863Y0201675D01*
X0173863Y0201638D02*
X0178588Y0201638D01*
X0178588Y0201600D02*
X0173863Y0201600D01*
X0173863Y0201562D02*
X0178588Y0201562D01*
X0178588Y0201524D02*
X0173863Y0201524D01*
X0173863Y0201486D02*
X0178588Y0201486D01*
X0178588Y0201448D02*
X0173863Y0201448D01*
X0173863Y0201410D02*
X0178588Y0201410D01*
X0178588Y0201372D02*
X0173863Y0201372D01*
X0173863Y0201334D02*
X0178588Y0201334D01*
X0178588Y0201297D02*
X0173863Y0201297D01*
X0173863Y0201259D02*
X0178588Y0201259D01*
X0178588Y0201221D02*
X0173863Y0201221D01*
X0173863Y0201183D02*
X0178588Y0201183D01*
X0178588Y0201145D02*
X0173863Y0201145D01*
X0173863Y0201107D02*
X0178588Y0201107D01*
X0178588Y0201069D02*
X0173863Y0201069D01*
X0173863Y0201031D02*
X0178588Y0201031D01*
X0178588Y0200994D02*
X0173863Y0200994D01*
X0173863Y0200956D02*
X0178588Y0200956D01*
X0178588Y0200918D02*
X0173863Y0200918D01*
X0173863Y0200880D02*
X0178588Y0200880D01*
X0178588Y0200842D02*
X0173863Y0200842D01*
X0173863Y0200804D02*
X0178588Y0200804D01*
X0178588Y0200766D02*
X0173863Y0200766D01*
X0173863Y0200728D02*
X0178588Y0200728D01*
X0178588Y0200690D02*
X0173863Y0200690D01*
X0173863Y0200653D02*
X0178588Y0200653D01*
X0178588Y0200615D02*
X0173863Y0200615D01*
X0173863Y0200577D02*
X0178588Y0200577D01*
X0178588Y0200539D02*
X0173863Y0200539D01*
X0173863Y0200501D02*
X0178588Y0200501D01*
X0178588Y0200463D02*
X0173863Y0200463D01*
X0173863Y0200425D02*
X0178588Y0200425D01*
X0178588Y0200387D02*
X0173863Y0200387D01*
X0173863Y0200350D02*
X0178588Y0200350D01*
X0178588Y0200312D02*
X0173863Y0200312D01*
X0173863Y0200274D02*
X0178588Y0200274D01*
X0178588Y0200236D02*
X0173863Y0200236D01*
X0173863Y0200198D02*
X0178588Y0200198D01*
X0178588Y0200160D02*
X0173863Y0200160D01*
X0173863Y0200122D02*
X0178588Y0200122D01*
X0178588Y0200084D02*
X0173863Y0200084D01*
X0173863Y0200046D02*
X0178588Y0200046D01*
X0178588Y0200009D02*
X0173863Y0200009D01*
X0173863Y0199971D02*
X0178588Y0199971D01*
X0178588Y0199933D02*
X0173863Y0199933D01*
X0173863Y0199895D02*
X0178588Y0199895D01*
X0178588Y0199857D02*
X0173863Y0199857D01*
X0173863Y0199819D02*
X0178588Y0199819D01*
X0178588Y0199781D02*
X0173863Y0199781D01*
X0173863Y0199743D02*
X0178588Y0199743D01*
X0178588Y0199706D02*
X0173863Y0199706D01*
X0173863Y0199668D02*
X0178588Y0199668D01*
X0178588Y0199630D02*
X0173863Y0199630D01*
X0173864Y0199592D02*
X0178587Y0199592D01*
X0178583Y0199554D02*
X0173867Y0199554D01*
X0173871Y0199516D02*
X0178579Y0199516D01*
X0178575Y0199478D02*
X0173875Y0199478D01*
X0173878Y0199440D02*
X0178571Y0199440D01*
X0178566Y0199403D02*
X0173882Y0199403D01*
X0173885Y0199365D02*
X0178562Y0199365D01*
X0178558Y0199327D02*
X0173889Y0199327D01*
X0173892Y0199289D02*
X0178554Y0199289D01*
X0178550Y0199251D02*
X0173896Y0199251D01*
X0173900Y0199213D02*
X0178546Y0199213D01*
X0178542Y0199175D02*
X0173903Y0199175D01*
X0173907Y0199137D02*
X0178538Y0199137D01*
X0178534Y0199099D02*
X0173917Y0199099D01*
X0173929Y0199062D02*
X0178528Y0199062D01*
X0178515Y0199024D02*
X0173940Y0199024D01*
X0173951Y0198986D02*
X0178501Y0198986D01*
X0178488Y0198948D02*
X0173963Y0198948D01*
X0173974Y0198910D02*
X0178475Y0198910D01*
X0178462Y0198872D02*
X0173985Y0198872D01*
X0173997Y0198834D02*
X0178449Y0198834D01*
X0178436Y0198796D02*
X0174008Y0198796D01*
X0174019Y0198759D02*
X0178423Y0198759D01*
X0178410Y0198721D02*
X0174031Y0198721D01*
X0174043Y0198683D02*
X0178397Y0198683D01*
X0178384Y0198645D02*
X0174063Y0198645D01*
X0174084Y0198607D02*
X0178371Y0198607D01*
X0178358Y0198569D02*
X0174104Y0198569D01*
X0174124Y0198531D02*
X0178334Y0198531D01*
X0178311Y0198493D02*
X0174144Y0198493D01*
X0174164Y0198455D02*
X0178287Y0198455D01*
X0178264Y0198418D02*
X0174184Y0198418D01*
X0174204Y0198380D02*
X0178240Y0198380D01*
X0178217Y0198342D02*
X0174224Y0198342D01*
X0174244Y0198304D02*
X0178193Y0198304D01*
X0178169Y0198266D02*
X0174267Y0198266D01*
X0174298Y0198228D02*
X0178146Y0198228D01*
X0178122Y0198190D02*
X0174329Y0198190D01*
X0174360Y0198152D02*
X0178099Y0198152D01*
X0178074Y0198115D02*
X0174391Y0198115D01*
X0174422Y0198077D02*
X0178037Y0198077D01*
X0177999Y0198039D02*
X0174452Y0198039D01*
X0174483Y0198001D02*
X0177962Y0198001D01*
X0177924Y0197963D02*
X0174514Y0197963D01*
X0174545Y0197925D02*
X0177886Y0197925D01*
X0177849Y0197887D02*
X0174588Y0197887D01*
X0174633Y0197849D02*
X0177811Y0197849D01*
X0177774Y0197811D02*
X0174679Y0197811D01*
X0174725Y0197774D02*
X0177736Y0197774D01*
X0177696Y0197736D02*
X0174771Y0197736D01*
X0174816Y0197698D02*
X0177637Y0197698D01*
X0177577Y0197660D02*
X0174862Y0197660D01*
X0174908Y0197622D02*
X0177517Y0197622D01*
X0177458Y0197584D02*
X0174977Y0197584D01*
X0175048Y0197546D02*
X0177398Y0197546D01*
X0177338Y0197508D02*
X0175118Y0197508D01*
X0175188Y0197471D02*
X0177278Y0197471D01*
X0177191Y0197433D02*
X0175258Y0197433D01*
X0175336Y0197395D02*
X0177084Y0197395D01*
X0176977Y0197357D02*
X0175459Y0197357D01*
X0175582Y0197319D02*
X0176870Y0197319D01*
X0176764Y0197281D02*
X0175705Y0197281D01*
X0175957Y0197243D02*
X0176461Y0197243D01*
X0178581Y0202016D02*
X0173869Y0202016D01*
X0173873Y0202054D02*
X0178577Y0202054D01*
X0178572Y0202092D02*
X0173877Y0202092D01*
X0173881Y0202130D02*
X0178568Y0202130D01*
X0178563Y0202168D02*
X0173885Y0202168D01*
X0173888Y0202206D02*
X0178559Y0202206D01*
X0178554Y0202244D02*
X0173892Y0202244D01*
X0173896Y0202281D02*
X0178550Y0202281D01*
X0178546Y0202319D02*
X0173900Y0202319D01*
X0173904Y0202357D02*
X0178541Y0202357D01*
X0178537Y0202395D02*
X0173908Y0202395D01*
X0173915Y0202433D02*
X0178532Y0202433D01*
X0178528Y0202471D02*
X0173926Y0202471D01*
X0173938Y0202509D02*
X0178517Y0202509D01*
X0178504Y0202547D02*
X0173950Y0202547D01*
X0173961Y0202585D02*
X0178490Y0202585D01*
X0178477Y0202622D02*
X0173973Y0202622D01*
X0173985Y0202660D02*
X0178464Y0202660D01*
X0178450Y0202698D02*
X0173996Y0202698D01*
X0174008Y0202736D02*
X0178437Y0202736D01*
X0178423Y0202774D02*
X0174020Y0202774D01*
X0174031Y0202812D02*
X0178410Y0202812D01*
X0178396Y0202850D02*
X0174043Y0202850D01*
X0174061Y0202888D02*
X0178383Y0202888D01*
X0178370Y0202925D02*
X0174082Y0202925D01*
X0174102Y0202963D02*
X0178356Y0202963D01*
X0178337Y0203001D02*
X0174123Y0203001D01*
X0174143Y0203039D02*
X0178313Y0203039D01*
X0178289Y0203077D02*
X0174164Y0203077D01*
X0174184Y0203115D02*
X0178265Y0203115D01*
X0178241Y0203153D02*
X0174205Y0203153D01*
X0174225Y0203191D02*
X0178217Y0203191D01*
X0178193Y0203229D02*
X0174245Y0203229D01*
X0174266Y0203266D02*
X0178168Y0203266D01*
X0178144Y0203304D02*
X0174298Y0203304D01*
X0174329Y0203342D02*
X0178120Y0203342D01*
X0178096Y0203380D02*
X0174360Y0203380D01*
X0174392Y0203418D02*
X0178072Y0203418D01*
X0178037Y0203456D02*
X0174423Y0203456D01*
X0174454Y0203494D02*
X0177998Y0203494D01*
X0177960Y0203532D02*
X0174486Y0203532D01*
X0174517Y0203569D02*
X0177922Y0203569D01*
X0177884Y0203607D02*
X0174548Y0203607D01*
X0174590Y0203645D02*
X0177846Y0203645D01*
X0177807Y0203683D02*
X0174636Y0203683D01*
X0174683Y0203721D02*
X0177769Y0203721D01*
X0177731Y0203759D02*
X0174729Y0203759D01*
X0174776Y0203797D02*
X0177692Y0203797D01*
X0177631Y0203835D02*
X0174823Y0203835D01*
X0174869Y0203873D02*
X0177570Y0203873D01*
X0177509Y0203910D02*
X0174916Y0203910D01*
X0174987Y0203948D02*
X0177449Y0203948D01*
X0177388Y0203986D02*
X0175058Y0203986D01*
X0175130Y0204024D02*
X0177327Y0204024D01*
X0177266Y0204062D02*
X0175201Y0204062D01*
X0175273Y0204100D02*
X0177171Y0204100D01*
X0177062Y0204138D02*
X0175360Y0204138D01*
X0175487Y0204176D02*
X0176952Y0204176D01*
X0176842Y0204213D02*
X0175614Y0204213D01*
X0175740Y0204251D02*
X0176696Y0204251D01*
X0176347Y0204289D02*
X0176086Y0204289D01*
X0176225Y0188830D02*
X0176730Y0188798D01*
X0177214Y0188654D01*
X0177654Y0188406D01*
X0178028Y0188066D01*
X0178317Y0187651D01*
X0178507Y0187183D01*
X0178588Y0186684D01*
X0178588Y0181960D01*
X0178527Y0181518D01*
X0178381Y0181097D01*
X0178155Y0180712D01*
X0177859Y0180378D01*
X0177504Y0180109D01*
X0177102Y0179914D01*
X0176671Y0179801D01*
X0176225Y0179775D01*
X0175780Y0179801D01*
X0175349Y0179914D01*
X0174947Y0180109D01*
X0174592Y0180378D01*
X0174296Y0180712D01*
X0174070Y0181097D01*
X0173924Y0181518D01*
X0173863Y0181960D01*
X0173863Y0186684D01*
X0173944Y0187183D01*
X0174133Y0187651D01*
X0174422Y0188066D01*
X0174797Y0188406D01*
X0175237Y0188654D01*
X0175721Y0188798D01*
X0176225Y0188830D01*
X0175715Y0188796D02*
X0176736Y0188796D01*
X0176863Y0188758D02*
X0175588Y0188758D01*
X0175460Y0188720D02*
X0176991Y0188720D01*
X0177119Y0188682D02*
X0175332Y0188682D01*
X0175220Y0188644D02*
X0177231Y0188644D01*
X0177298Y0188606D02*
X0175153Y0188606D01*
X0175085Y0188568D02*
X0177365Y0188568D01*
X0177433Y0188531D02*
X0175018Y0188531D01*
X0174951Y0188493D02*
X0177500Y0188493D01*
X0177567Y0188455D02*
X0174884Y0188455D01*
X0174816Y0188417D02*
X0177634Y0188417D01*
X0177684Y0188379D02*
X0174767Y0188379D01*
X0174725Y0188341D02*
X0177725Y0188341D01*
X0177767Y0188303D02*
X0174684Y0188303D01*
X0174642Y0188265D02*
X0177809Y0188265D01*
X0177851Y0188227D02*
X0174600Y0188227D01*
X0174559Y0188190D02*
X0177892Y0188190D01*
X0177934Y0188152D02*
X0174517Y0188152D01*
X0174475Y0188114D02*
X0177976Y0188114D01*
X0178017Y0188076D02*
X0174434Y0188076D01*
X0174403Y0188038D02*
X0178048Y0188038D01*
X0178074Y0188000D02*
X0174377Y0188000D01*
X0174350Y0187962D02*
X0178101Y0187962D01*
X0178127Y0187924D02*
X0174324Y0187924D01*
X0174297Y0187887D02*
X0178154Y0187887D01*
X0178180Y0187849D02*
X0174271Y0187849D01*
X0174245Y0187811D02*
X0178206Y0187811D01*
X0178233Y0187773D02*
X0174218Y0187773D01*
X0174192Y0187735D02*
X0178259Y0187735D01*
X0178286Y0187697D02*
X0174165Y0187697D01*
X0174139Y0187659D02*
X0178312Y0187659D01*
X0178330Y0187621D02*
X0174121Y0187621D01*
X0174106Y0187584D02*
X0178345Y0187584D01*
X0178360Y0187546D02*
X0174091Y0187546D01*
X0174075Y0187508D02*
X0178376Y0187508D01*
X0178391Y0187470D02*
X0174060Y0187470D01*
X0174045Y0187432D02*
X0178406Y0187432D01*
X0178422Y0187394D02*
X0174029Y0187394D01*
X0174014Y0187356D02*
X0178437Y0187356D01*
X0178452Y0187318D02*
X0173999Y0187318D01*
X0173983Y0187280D02*
X0178468Y0187280D01*
X0178483Y0187243D02*
X0173968Y0187243D01*
X0173953Y0187205D02*
X0178498Y0187205D01*
X0178510Y0187167D02*
X0173941Y0187167D01*
X0173935Y0187129D02*
X0178516Y0187129D01*
X0178522Y0187091D02*
X0173929Y0187091D01*
X0173923Y0187053D02*
X0178528Y0187053D01*
X0178534Y0187015D02*
X0173917Y0187015D01*
X0173911Y0186977D02*
X0178540Y0186977D01*
X0178546Y0186940D02*
X0173904Y0186940D01*
X0173898Y0186902D02*
X0178553Y0186902D01*
X0178559Y0186864D02*
X0173892Y0186864D01*
X0173886Y0186826D02*
X0178565Y0186826D01*
X0178571Y0186788D02*
X0173880Y0186788D01*
X0173874Y0186750D02*
X0178577Y0186750D01*
X0178583Y0186712D02*
X0173868Y0186712D01*
X0173863Y0186674D02*
X0178588Y0186674D01*
X0178588Y0186636D02*
X0173863Y0186636D01*
X0173863Y0186599D02*
X0178588Y0186599D01*
X0178588Y0186561D02*
X0173863Y0186561D01*
X0173863Y0186523D02*
X0178588Y0186523D01*
X0178588Y0186485D02*
X0173863Y0186485D01*
X0173863Y0186447D02*
X0178588Y0186447D01*
X0178588Y0186409D02*
X0173863Y0186409D01*
X0173863Y0186371D02*
X0178588Y0186371D01*
X0178588Y0186333D02*
X0173863Y0186333D01*
X0173863Y0186296D02*
X0178588Y0186296D01*
X0178588Y0186258D02*
X0173863Y0186258D01*
X0173863Y0186220D02*
X0178588Y0186220D01*
X0178588Y0186182D02*
X0173863Y0186182D01*
X0173863Y0186144D02*
X0178588Y0186144D01*
X0178588Y0186106D02*
X0173863Y0186106D01*
X0173863Y0186068D02*
X0178588Y0186068D01*
X0178588Y0186030D02*
X0173863Y0186030D01*
X0173863Y0185992D02*
X0178588Y0185992D01*
X0178588Y0185955D02*
X0173863Y0185955D01*
X0173863Y0185917D02*
X0178588Y0185917D01*
X0178588Y0185879D02*
X0173863Y0185879D01*
X0173863Y0185841D02*
X0178588Y0185841D01*
X0178588Y0185803D02*
X0173863Y0185803D01*
X0173863Y0185765D02*
X0178588Y0185765D01*
X0178588Y0185727D02*
X0173863Y0185727D01*
X0173863Y0185689D02*
X0178588Y0185689D01*
X0178588Y0185652D02*
X0173863Y0185652D01*
X0173863Y0185614D02*
X0178588Y0185614D01*
X0178588Y0185576D02*
X0173863Y0185576D01*
X0173863Y0185538D02*
X0178588Y0185538D01*
X0178588Y0185500D02*
X0173863Y0185500D01*
X0173863Y0185462D02*
X0178588Y0185462D01*
X0178588Y0185424D02*
X0173863Y0185424D01*
X0173863Y0185386D02*
X0178588Y0185386D01*
X0178588Y0185349D02*
X0173863Y0185349D01*
X0173863Y0185311D02*
X0178588Y0185311D01*
X0178588Y0185273D02*
X0173863Y0185273D01*
X0173863Y0185235D02*
X0178588Y0185235D01*
X0178588Y0185197D02*
X0173863Y0185197D01*
X0173863Y0185159D02*
X0178588Y0185159D01*
X0178588Y0185121D02*
X0173863Y0185121D01*
X0173863Y0185083D02*
X0178588Y0185083D01*
X0178588Y0185045D02*
X0173863Y0185045D01*
X0173863Y0185008D02*
X0178588Y0185008D01*
X0178588Y0184970D02*
X0173863Y0184970D01*
X0173863Y0184932D02*
X0178588Y0184932D01*
X0178588Y0184894D02*
X0173863Y0184894D01*
X0173863Y0184856D02*
X0178588Y0184856D01*
X0178588Y0184818D02*
X0173863Y0184818D01*
X0173863Y0184780D02*
X0178588Y0184780D01*
X0178588Y0184742D02*
X0173863Y0184742D01*
X0173863Y0184705D02*
X0178588Y0184705D01*
X0178588Y0184667D02*
X0173863Y0184667D01*
X0173863Y0184629D02*
X0178588Y0184629D01*
X0178588Y0184591D02*
X0173863Y0184591D01*
X0173863Y0184553D02*
X0178588Y0184553D01*
X0178588Y0184515D02*
X0173863Y0184515D01*
X0173863Y0184477D02*
X0178588Y0184477D01*
X0178588Y0184439D02*
X0173863Y0184439D01*
X0173863Y0184401D02*
X0178588Y0184401D01*
X0178588Y0184364D02*
X0173863Y0184364D01*
X0173863Y0184326D02*
X0178588Y0184326D01*
X0178588Y0184288D02*
X0173863Y0184288D01*
X0173863Y0184250D02*
X0178588Y0184250D01*
X0178588Y0184212D02*
X0173863Y0184212D01*
X0173863Y0184174D02*
X0178588Y0184174D01*
X0178588Y0184136D02*
X0173863Y0184136D01*
X0173863Y0184098D02*
X0178588Y0184098D01*
X0178588Y0184061D02*
X0173863Y0184061D01*
X0173863Y0184023D02*
X0178588Y0184023D01*
X0178588Y0183985D02*
X0173863Y0183985D01*
X0173863Y0183947D02*
X0178588Y0183947D01*
X0178588Y0183909D02*
X0173863Y0183909D01*
X0173863Y0183871D02*
X0178588Y0183871D01*
X0178588Y0183833D02*
X0173863Y0183833D01*
X0173863Y0183795D02*
X0178588Y0183795D01*
X0178588Y0183757D02*
X0173863Y0183757D01*
X0173863Y0183720D02*
X0178588Y0183720D01*
X0178588Y0183682D02*
X0173863Y0183682D01*
X0173863Y0183644D02*
X0178588Y0183644D01*
X0178588Y0183606D02*
X0173863Y0183606D01*
X0173863Y0183568D02*
X0178588Y0183568D01*
X0178588Y0183530D02*
X0173863Y0183530D01*
X0173863Y0183492D02*
X0178588Y0183492D01*
X0178588Y0183454D02*
X0173863Y0183454D01*
X0173863Y0183417D02*
X0178588Y0183417D01*
X0178588Y0183379D02*
X0173863Y0183379D01*
X0173863Y0183341D02*
X0178588Y0183341D01*
X0178588Y0183303D02*
X0173863Y0183303D01*
X0173863Y0183265D02*
X0178588Y0183265D01*
X0178588Y0183227D02*
X0173863Y0183227D01*
X0173863Y0183189D02*
X0178588Y0183189D01*
X0178588Y0183151D02*
X0173863Y0183151D01*
X0173863Y0183114D02*
X0178588Y0183114D01*
X0178588Y0183076D02*
X0173863Y0183076D01*
X0173863Y0183038D02*
X0178588Y0183038D01*
X0178588Y0183000D02*
X0173863Y0183000D01*
X0173863Y0182962D02*
X0178588Y0182962D01*
X0178588Y0182924D02*
X0173863Y0182924D01*
X0173863Y0182886D02*
X0178588Y0182886D01*
X0178588Y0182848D02*
X0173863Y0182848D01*
X0173863Y0182810D02*
X0178588Y0182810D01*
X0178588Y0182773D02*
X0173863Y0182773D01*
X0173863Y0182735D02*
X0178588Y0182735D01*
X0178588Y0182697D02*
X0173863Y0182697D01*
X0173863Y0182659D02*
X0178588Y0182659D01*
X0178588Y0182621D02*
X0173863Y0182621D01*
X0173863Y0182583D02*
X0178588Y0182583D01*
X0178588Y0182545D02*
X0173863Y0182545D01*
X0173863Y0182507D02*
X0178588Y0182507D01*
X0178588Y0182470D02*
X0173863Y0182470D01*
X0173863Y0182432D02*
X0178588Y0182432D01*
X0178588Y0182394D02*
X0173863Y0182394D01*
X0173863Y0182356D02*
X0178588Y0182356D01*
X0178588Y0182318D02*
X0173863Y0182318D01*
X0173863Y0182280D02*
X0178588Y0182280D01*
X0178588Y0182242D02*
X0173863Y0182242D01*
X0173863Y0182204D02*
X0178588Y0182204D01*
X0178588Y0182166D02*
X0173863Y0182166D01*
X0173863Y0182129D02*
X0178588Y0182129D01*
X0178588Y0182091D02*
X0173863Y0182091D01*
X0173863Y0182053D02*
X0178588Y0182053D01*
X0178588Y0182015D02*
X0173863Y0182015D01*
X0173863Y0181977D02*
X0178588Y0181977D01*
X0178585Y0181939D02*
X0173866Y0181939D01*
X0173871Y0181901D02*
X0178580Y0181901D01*
X0178574Y0181863D02*
X0173877Y0181863D01*
X0173882Y0181826D02*
X0178569Y0181826D01*
X0178564Y0181788D02*
X0173887Y0181788D01*
X0173892Y0181750D02*
X0178559Y0181750D01*
X0178553Y0181712D02*
X0173897Y0181712D01*
X0173903Y0181674D02*
X0178548Y0181674D01*
X0178543Y0181636D02*
X0173908Y0181636D01*
X0173913Y0181598D02*
X0178538Y0181598D01*
X0178533Y0181560D02*
X0173918Y0181560D01*
X0173924Y0181522D02*
X0178527Y0181522D01*
X0178515Y0181485D02*
X0173936Y0181485D01*
X0173949Y0181447D02*
X0178502Y0181447D01*
X0178489Y0181409D02*
X0173962Y0181409D01*
X0173975Y0181371D02*
X0178476Y0181371D01*
X0178463Y0181333D02*
X0173988Y0181333D01*
X0174001Y0181295D02*
X0178450Y0181295D01*
X0178436Y0181257D02*
X0174015Y0181257D01*
X0174028Y0181219D02*
X0178423Y0181219D01*
X0178410Y0181182D02*
X0174041Y0181182D01*
X0174054Y0181144D02*
X0178397Y0181144D01*
X0178384Y0181106D02*
X0174067Y0181106D01*
X0174087Y0181068D02*
X0178364Y0181068D01*
X0178342Y0181030D02*
X0174109Y0181030D01*
X0174131Y0180992D02*
X0178320Y0180992D01*
X0178297Y0180954D02*
X0174154Y0180954D01*
X0174176Y0180916D02*
X0178275Y0180916D01*
X0178253Y0180879D02*
X0174198Y0180879D01*
X0174220Y0180841D02*
X0178231Y0180841D01*
X0178209Y0180803D02*
X0174242Y0180803D01*
X0174264Y0180765D02*
X0178186Y0180765D01*
X0178164Y0180727D02*
X0174287Y0180727D01*
X0174316Y0180689D02*
X0178135Y0180689D01*
X0178102Y0180651D02*
X0174349Y0180651D01*
X0174383Y0180613D02*
X0178068Y0180613D01*
X0178034Y0180575D02*
X0174417Y0180575D01*
X0174450Y0180538D02*
X0178001Y0180538D01*
X0177967Y0180500D02*
X0174484Y0180500D01*
X0174517Y0180462D02*
X0177933Y0180462D01*
X0177900Y0180424D02*
X0174551Y0180424D01*
X0174585Y0180386D02*
X0177866Y0180386D01*
X0177820Y0180348D02*
X0174631Y0180348D01*
X0174681Y0180310D02*
X0177770Y0180310D01*
X0177720Y0180272D02*
X0174731Y0180272D01*
X0174781Y0180235D02*
X0177670Y0180235D01*
X0177620Y0180197D02*
X0174831Y0180197D01*
X0174881Y0180159D02*
X0177570Y0180159D01*
X0177520Y0180121D02*
X0174931Y0180121D01*
X0175000Y0180083D02*
X0177450Y0180083D01*
X0177372Y0180045D02*
X0175078Y0180045D01*
X0175157Y0180007D02*
X0177294Y0180007D01*
X0177216Y0179969D02*
X0175235Y0179969D01*
X0175313Y0179931D02*
X0177138Y0179931D01*
X0177024Y0179894D02*
X0175427Y0179894D01*
X0175572Y0179856D02*
X0176879Y0179856D01*
X0176734Y0179818D02*
X0175717Y0179818D01*
X0176139Y0179780D02*
X0176312Y0179780D01*
D29*
X0177333Y0168183D03*
X0182933Y0168183D03*
X0182933Y0163617D03*
X0177333Y0163617D03*
X0270333Y0118283D03*
X0270333Y0113717D03*
M02*
