%
M48
M72
T01C0.0120
T02C0.0200
T03C0.0256
T04C0.0400
T05C0.1300
%
T01
X4634Y5965
X4634Y6515
X4634Y7265
X4634Y8015
X4634Y8615
X5134Y8615
X5634Y8765
X5634Y9265
X6134Y9265
X6134Y8765
X6134Y8015
X5634Y8015
X5134Y8015
X5134Y7265
X5634Y7265
X6134Y7265
X6134Y6515
X5634Y6515
X5134Y6515
X6134Y5975
X7034Y4875
X7084Y4275
X6534Y4275
X7684Y4275
X7684Y4875
X7684Y5675
X7434Y6565
X7534Y8965
X7534Y9565
X6834Y10462
X6834Y10865
X6834Y11265
X6625Y11655
X7834Y11615
X8354Y11635
X8844Y11595
X9334Y11115
X9934Y10915
X9934Y10515
X10584Y10515
X10584Y10015
X10584Y9515
X10584Y9015
X10584Y8515
X10584Y8015
X10584Y7515
X10584Y7015
X10584Y6065
X11334Y6065
X11334Y6515
X11334Y7015
X11334Y7515
X11334Y8015
X11334Y8515
X11334Y9015
X11334Y9515
X11334Y10015
X11334Y10515
X11334Y11015
X11334Y11515
X11334Y12015
X11334Y12515
X11334Y13015
X11644Y13725
X11084Y14465
X10584Y13015
X10584Y12515
X10584Y12015
X10584Y11515
X10584Y11015
X9384Y13015
X8274Y13955
X8814Y14795
X9884Y15865
X9184Y18465
X9184Y19265
X9184Y20065
X10584Y20255
X10584Y21205
X10584Y21705
X10584Y22205
X10584Y22705
X10584Y23205
X10584Y23705
X10584Y24205
X10584Y24705
X10584Y25205
X10584Y25705
X10584Y26205
X10584Y26705
X10584Y27205
X11334Y27205
X11334Y26705
X11334Y26205
X11334Y25705
X11334Y25205
X11334Y24705
X11334Y24205
X11334Y23705
X11334Y23205
X11334Y22705
X11334Y22205
X11334Y21705
X11334Y21205
X11334Y20705
X11334Y20255
X12334Y20255
X12334Y20705
X12334Y21205
X12334Y21705
X12334Y22205
X12334Y22705
X12334Y23205
X12334Y23705
X12334Y24205
X12334Y24705
X12334Y25205
X12334Y25705
X12334Y26205
X12334Y26705
X12334Y27205
X12344Y27915
X11644Y27915
X11084Y28655
X9884Y30055
X8814Y28985
X8274Y28145
X7834Y27805
X7284Y28105
X6734Y27855
X5934Y27665
X6034Y28455
X6034Y28955
X5334Y28455
X5334Y27665
X4644Y27755
X4634Y28455
X4634Y28955
X4634Y26955
X4634Y26205
X4634Y24705
X4634Y23955
X5134Y23955
X5634Y23455
X5634Y22955
X6134Y22955
X6134Y23455
X5134Y22805
X5134Y22205
X5634Y22205
X6134Y22205
X6134Y21455
X5634Y21455
X5134Y21455
X5134Y20705
X5634Y20705
X6134Y20705
X6134Y20165
X7034Y19065
X7084Y18465
X6534Y18465
X7684Y18465
X7684Y19065
X7684Y19865
X7434Y20755
X7534Y23155
X7534Y23755
X6834Y24652
X6834Y25055
X6834Y25455
X6625Y25845
X7834Y25805
X8354Y25825
X8844Y25785
X9334Y25305
X9934Y25105
X9934Y24705
X9134Y22555
X9384Y27205
X7134Y30055
X7084Y32655
X6534Y32655
X7034Y33255
X7684Y33255
X7684Y32655
X7684Y34055
X7434Y34945
X6134Y34895
X5634Y34895
X5134Y34895
X5134Y35645
X5634Y35645
X6134Y35645
X6134Y34355
X6134Y36395
X5634Y36395
X5134Y36395
X5134Y36995
X5634Y37145
X5634Y37645
X6134Y37645
X6134Y37145
X5134Y38145
X5134Y38895
X4634Y38895
X4634Y38145
X4634Y36995
X4634Y36395
X4634Y35645
X4634Y34895
X4634Y34345
X6834Y38842
X6834Y39245
X6834Y39645
X6625Y40035
X7834Y39995
X8354Y40015
X8844Y39975
X9334Y39495
X9934Y39295
X9934Y38895
X10584Y38895
X10584Y38395
X10584Y37895
X10584Y37395
X10584Y36895
X10584Y36395
X10584Y35895
X10584Y35395
X10584Y34445
X11334Y34445
X11334Y34895
X11334Y35395
X11334Y35895
X11334Y36395
X11334Y36895
X11334Y37395
X11334Y37895
X11334Y38395
X11334Y38895
X11334Y39395
X11334Y39895
X11334Y40395
X11334Y40895
X11334Y41395
X11644Y42105
X11084Y42845
X10584Y41395
X10584Y40895
X10584Y40395
X10584Y39895
X10584Y39395
X9384Y41395
X8274Y42335
X7834Y41995
X7284Y42295
X6734Y42045
X5934Y41855
X6034Y42645
X6034Y43145
X5334Y42645
X5334Y41855
X4644Y41945
X4634Y42645
X4634Y43145
X4634Y41145
X4634Y40395
X7134Y44245
X8814Y43175
X9884Y44245
X9184Y46845
X9184Y47645
X9184Y48445
X10584Y48635
X10584Y49585
X10584Y50085
X10584Y50585
X10584Y51085
X10584Y51585
X10584Y52085
X10584Y52585
X10584Y53085
X10584Y53585
X10584Y54085
X10584Y54585
X10584Y55085
X10584Y55585
X11334Y55585
X11334Y55085
X11334Y54585
X11334Y54085
X11334Y53585
X11334Y53085
X11334Y52585
X11334Y52085
X11334Y51585
X11334Y51085
X11334Y50585
X11334Y50085
X11334Y49585
X11334Y49085
X11334Y48635
X12334Y48635
X12334Y49085
X12334Y49585
X12334Y50085
X12334Y50585
X12334Y51085
X12334Y51585
X12334Y52085
X12334Y52585
X12334Y53085
X12334Y53585
X12334Y54085
X12334Y54585
X12334Y55085
X12334Y55585
X12344Y56295
X11644Y56295
X11084Y57035
X9884Y58435
X8814Y57365
X8274Y56525
X7834Y56185
X7284Y56485
X6734Y56235
X5934Y56045
X6034Y56835
X6034Y57335
X5334Y56835
X5334Y56045
X4644Y56135
X4634Y56835
X4634Y57335
X4634Y55335
X4634Y54585
X4634Y53085
X4634Y52335
X4634Y51185
X4634Y50585
X4634Y49835
X5134Y49835
X5634Y49835
X6134Y49835
X6134Y50585
X5634Y50585
X5134Y50585
X5134Y51185
X5634Y51335
X5634Y51835
X6134Y51835
X6134Y51335
X5134Y52335
X5134Y53085
X6625Y54225
X6834Y53835
X6834Y53435
X6834Y53032
X7534Y52135
X7534Y51535
X7434Y49135
X7684Y48245
X7684Y47445
X7684Y46845
X7084Y46845
X6534Y46845
X7034Y47445
X6134Y48545
X6134Y49085
X5634Y49085
X5134Y49085
X4634Y49085
X4634Y48535
X7834Y54185
X8354Y54205
X8844Y54165
X9334Y53685
X9934Y53485
X9934Y53085
X9134Y50935
X9384Y55585
X7134Y58435
X13334Y57935
X13334Y57335
X13334Y56275
X13334Y55585
X13334Y55085
X13334Y54585
X13334Y54085
X13334Y53585
X13334Y53085
X13334Y52585
X13334Y52085
X13334Y51585
X13334Y51085
X13334Y50585
X13334Y50085
X13334Y49585
X13334Y49085
X13334Y48635
X14134Y48635
X14134Y49085
X14134Y49585
X14134Y50085
X14134Y50585
X14134Y51085
X14134Y51585
X14134Y52085
X14134Y52585
X14134Y53085
X14134Y53585
X14134Y54085
X14134Y54585
X14134Y55085
X14134Y55585
X14144Y56275
X14874Y56835
X15084Y56135
X15584Y56135
X16084Y56135
X16584Y56135
X17484Y56085
X17964Y56085
X18144Y55525
X18144Y54975
X17734Y55135
X17484Y55585
X17534Y54535
X17534Y54135
X17084Y54135
X16584Y54135
X16684Y55135
X18034Y54535
X18044Y54105
X18834Y54335
X18734Y54935
X19734Y55835
X19734Y56435
X19734Y57035
X20834Y56835
X20834Y57335
X21534Y56835
X21534Y56045
X22134Y56045
X22234Y56835
X22234Y57335
X22934Y56235
X23484Y56485
X24034Y56185
X24474Y56525
X25014Y57365
X26084Y58435
X27284Y57035
X27844Y56295
X27534Y55585
X27534Y55085
X27534Y54585
X27534Y54085
X27534Y53585
X27534Y53085
X27534Y52585
X27534Y52085
X27534Y51585
X27534Y51085
X27534Y50585
X27534Y50085
X27534Y49585
X27534Y49085
X27534Y48635
X26784Y48635
X26784Y49585
X26784Y50085
X26784Y50585
X26784Y51085
X26784Y51585
X26784Y52085
X26784Y52585
X26784Y53085
X26784Y53585
X26784Y54085
X26784Y54585
X26784Y55085
X26784Y55585
X26134Y53485
X26134Y53085
X25534Y53685
X25044Y54165
X24554Y54205
X24034Y54185
X23034Y53835
X23034Y53435
X23034Y53032
X23734Y52135
X23734Y51535
X23634Y49135
X23884Y48245
X23884Y47445
X23884Y46845
X23284Y46845
X23234Y47445
X22734Y46845
X22334Y48545
X22334Y49085
X21834Y49085
X21334Y49085
X20834Y49085
X20834Y48535
X19834Y48645
X18934Y48645
X18134Y48245
X17634Y47845
X17234Y47445
X17027Y48362
X17634Y48935
X17234Y49335
X17634Y49835
X17234Y50335
X17084Y50735
X17084Y51235
X16334Y51625
X15834Y51835
X15484Y51788
X15934Y51135
X15684Y50785
X15234Y50935
X15748Y49849
X16084Y49785
X16384Y48405
X15284Y47795
X15071Y48399
X14334Y43745
X14834Y43545
X14874Y42645
X15084Y41945
X15584Y41945
X16084Y41945
X15374Y43065
X16344Y43095
X16584Y41945
X17484Y41895
X17964Y41895
X18144Y41335
X18144Y40785
X17734Y40945
X17484Y41395
X16684Y40945
X16584Y39945
X17084Y39945
X17534Y39945
X17534Y40345
X18034Y40345
X18044Y39915
X18834Y40145
X18734Y40745
X19734Y41645
X19734Y42245
X19734Y42845
X20834Y42645
X20834Y43145
X21534Y42645
X21534Y41855
X22134Y41855
X22234Y42645
X22234Y43145
X22934Y42045
X23484Y42295
X24034Y41995
X24474Y42335
X25014Y43175
X26084Y44245
X27284Y42845
X27844Y42105
X27534Y41395
X27534Y40895
X27534Y40395
X27534Y39895
X27534Y39395
X27534Y38895
X27534Y38395
X27534Y37895
X27534Y37395
X27534Y36895
X27534Y36395
X27534Y35895
X27534Y35395
X27534Y34895
X27534Y34445
X26784Y34445
X26784Y35395
X26784Y35895
X26784Y36395
X26784Y36895
X26784Y37395
X26784Y37895
X26784Y38395
X26784Y38895
X26784Y39395
X26784Y39895
X26784Y40395
X26784Y40895
X26784Y41395
X26134Y39295
X26134Y38895
X25534Y39495
X25044Y39975
X24554Y40015
X24034Y39995
X23034Y39645
X23034Y39245
X23034Y38842
X23734Y37945
X23734Y37345
X22334Y37145
X21834Y37145
X21834Y37645
X22334Y37645
X22334Y36395
X21834Y36395
X21334Y36395
X21334Y36995
X20834Y36995
X20834Y36395
X20834Y35645
X20834Y34895
X20834Y34345
X21334Y34895
X21834Y34895
X22334Y34895
X22334Y34355
X22334Y35645
X21834Y35645
X21334Y35645
X20084Y36245
X19834Y34455
X18934Y34455
X18134Y34055
X17634Y33655
X17234Y33255
X17027Y34172
X17634Y34745
X17234Y35145
X17634Y35645
X17234Y36145
X17084Y36545
X17084Y37045
X16334Y37435
X15834Y37645
X15484Y37598
X15934Y36945
X15684Y36595
X15234Y36745
X15748Y35659
X16084Y35595
X16384Y34215
X15284Y33605
X15071Y34209
X14134Y34445
X14134Y34895
X14134Y35395
X14134Y35895
X14134Y36395
X14134Y36895
X14134Y37395
X14134Y37895
X14134Y38395
X14134Y38895
X14134Y39395
X14134Y39895
X14134Y40395
X14134Y40895
X14134Y41395
X14144Y42085
X13334Y42085
X13334Y41395
X13334Y40895
X13334Y40395
X13334Y39895
X13334Y39395
X13334Y38895
X13334Y38395
X13334Y37895
X13334Y37395
X13334Y36895
X13334Y36395
X13334Y35895
X13334Y35395
X13334Y34895
X13334Y34445
X12334Y34445
X12334Y34895
X12334Y35395
X12334Y35895
X12334Y36395
X12334Y36895
X12334Y37395
X12334Y37895
X12334Y38395
X12334Y38895
X12334Y39395
X12334Y39895
X12334Y40395
X12334Y40895
X12334Y41395
X12344Y42105
X13334Y43145
X13334Y43745
X14884Y39245
X15084Y38895
X16034Y38445
X18334Y42445
X17334Y43085
X18834Y38842
X18834Y38445
X18834Y38095
X18534Y36505
X20834Y38145
X20834Y38895
X21334Y38895
X21334Y38145
X22825Y40035
X20834Y40395
X20834Y41145
X20844Y41945
X23334Y44245
X25384Y46845
X25384Y47645
X25384Y48445
X25334Y50935
X22825Y54225
X21334Y53085
X21334Y52335
X21834Y51835
X21834Y51335
X22334Y51335
X22334Y51835
X21334Y51185
X21334Y50585
X21834Y50585
X22334Y50585
X22334Y49835
X21834Y49835
X21334Y49835
X20834Y49835
X20834Y50585
X20834Y51185
X20834Y52335
X20834Y53085
X20834Y54585
X20834Y55335
X20844Y56135
X18834Y53032
X18834Y52635
X18834Y52285
X18534Y50695
X20084Y50435
X16034Y52635
X15084Y53085
X14884Y53435
X15374Y57255
X14834Y57735
X14334Y57935
X16344Y57285
X17334Y57275
X18334Y56635
X23334Y58435
X25584Y55585
X28534Y55585
X28534Y55085
X28534Y54585
X28534Y54085
X28534Y53585
X28534Y53085
X28534Y52585
X28534Y52085
X28534Y51585
X28534Y51085
X28534Y50585
X28534Y50085
X28534Y49585
X28534Y49085
X28534Y48635
X29534Y48635
X29534Y49085
X29534Y49585
X29534Y50085
X29534Y50585
X29534Y51085
X29534Y51585
X29534Y52085
X29534Y52585
X29534Y53085
X29534Y53585
X29534Y54085
X29534Y54585
X29534Y55085
X29534Y55585
X29534Y56275
X28544Y56295
X29534Y57335
X29534Y57935
X30534Y57935
X31034Y57735
X31074Y56835
X31284Y56135
X31784Y56135
X32284Y56135
X32784Y56135
X33684Y56085
X34164Y56085
X34344Y55525
X34344Y54975
X33934Y55135
X33684Y55585
X33734Y54535
X33734Y54135
X33284Y54135
X32784Y54135
X32884Y55135
X34234Y54535
X34244Y54105
X35034Y54335
X34934Y54935
X35934Y55835
X35934Y56435
X35934Y57035
X34534Y56635
X33534Y57275
X32544Y57285
X31574Y57255
X30344Y56275
X30334Y55585
X30334Y55085
X30334Y54585
X30334Y54085
X30334Y53585
X30334Y53085
X30334Y52585
X30334Y52085
X30334Y51585
X30334Y51085
X30334Y50585
X30334Y50085
X30334Y49585
X30334Y49085
X30334Y48635
X31271Y48399
X31484Y47795
X32284Y49785
X31948Y49849
X31884Y50785
X32134Y51135
X32534Y51625
X32034Y51835
X31684Y51788
X31434Y50935
X32234Y52635
X31284Y53085
X31084Y53435
X33284Y51235
X33284Y50735
X33434Y50335
X33834Y49835
X33434Y49335
X33834Y48935
X33227Y48362
X33834Y47845
X33434Y47445
X32584Y48405
X34334Y48245
X35134Y48645
X36034Y48645
X36284Y50435
X34734Y50695
X35034Y52285
X35034Y52635
X35034Y53032
X30534Y43745
X31034Y43545
X31074Y42645
X31284Y41945
X31784Y41945
X32284Y41945
X31574Y43065
X32544Y43095
X32784Y41945
X33684Y41895
X34164Y41895
X34344Y41335
X34344Y40785
X33934Y40945
X33684Y41395
X32884Y40945
X32784Y39945
X33284Y39945
X33734Y39945
X33734Y40345
X34234Y40345
X34244Y39915
X35034Y40145
X34934Y40745
X35934Y41645
X35934Y42245
X35934Y42845
X34534Y42445
X33534Y43085
X35034Y38842
X35034Y38445
X35034Y38095
X34734Y36505
X33834Y35645
X33434Y36145
X33284Y36545
X33284Y37045
X32534Y37435
X32034Y37645
X31684Y37598
X32134Y36945
X31884Y36595
X31434Y36745
X30334Y36895
X30334Y36395
X30334Y35895
X30334Y35395
X30334Y34895
X30334Y34445
X31271Y34209
X31484Y33605
X32584Y34215
X33227Y34172
X33834Y33655
X33434Y33255
X33834Y34745
X33434Y35145
X32284Y35595
X31948Y35659
X30334Y37395
X30334Y37895
X30334Y38395
X30334Y38895
X30334Y39395
X30334Y39895
X30334Y40395
X30334Y40895
X30334Y41395
X30344Y42085
X29534Y42085
X29534Y41395
X29534Y40895
X29534Y40395
X29534Y39895
X29534Y39395
X29534Y38895
X29534Y38395
X29534Y37895
X29534Y37395
X29534Y36895
X29534Y36395
X29534Y35895
X29534Y35395
X29534Y34895
X29534Y34445
X28534Y34445
X28534Y34895
X28534Y35395
X28534Y35895
X28534Y36395
X28534Y36895
X28534Y37395
X28534Y37895
X28534Y38395
X28534Y38895
X28534Y39395
X28534Y39895
X28534Y40395
X28534Y40895
X28534Y41395
X28544Y42105
X29534Y43145
X29534Y43745
X31084Y39245
X31284Y38895
X32234Y38445
X34334Y34055
X35134Y34455
X36034Y34455
X36284Y36245
X35934Y28655
X35934Y28055
X35934Y27455
X34934Y26555
X34344Y26595
X33934Y26755
X33684Y27205
X33684Y27705
X34164Y27705
X34344Y27145
X34534Y28255
X33534Y28895
X32784Y27755
X32544Y28905
X32284Y27755
X31784Y27755
X31284Y27755
X31074Y28455
X31034Y29355
X30534Y29555
X30344Y27895
X30334Y27205
X30334Y26705
X30334Y26205
X30334Y25705
X30334Y25205
X30334Y24705
X30334Y24205
X30334Y23705
X30334Y23205
X30334Y22705
X30334Y22205
X30334Y21705
X30334Y21205
X30334Y20705
X30334Y20255
X31271Y20019
X31484Y19415
X32584Y20025
X33227Y19982
X33834Y19465
X33434Y19065
X33834Y20555
X33434Y20955
X33834Y21455
X33434Y21955
X33284Y22355
X33284Y22855
X32534Y23245
X32034Y23455
X31684Y23408
X32134Y22755
X31884Y22405
X31434Y22555
X31948Y21469
X32284Y21405
X32234Y24255
X31284Y24705
X31084Y25055
X29534Y25205
X29534Y24705
X29534Y24205
X29534Y23705
X29534Y23205
X29534Y22705
X29534Y22205
X29534Y21705
X29534Y21205
X29534Y20705
X29534Y20255
X28534Y20255
X28534Y20705
X28534Y21205
X28534Y21705
X28534Y22205
X28534Y22705
X28534Y23205
X28534Y23705
X28534Y24205
X28534Y24705
X28534Y25205
X28534Y25705
X28534Y26205
X28534Y26705
X28534Y27205
X28544Y27915
X27844Y27915
X27534Y27205
X27534Y26705
X27534Y26205
X27534Y25705
X27534Y25205
X27534Y24705
X27534Y24205
X27534Y23705
X27534Y23205
X27534Y22705
X27534Y22205
X27534Y21705
X27534Y21205
X27534Y20705
X27534Y20255
X26784Y20255
X26784Y21205
X26784Y21705
X26784Y22205
X26784Y22705
X26784Y23205
X26784Y23705
X26784Y24205
X26784Y24705
X26784Y25205
X26784Y25705
X26784Y26205
X26784Y26705
X26784Y27205
X27284Y28655
X26084Y30055
X25014Y28985
X24474Y28145
X24034Y27805
X23484Y28105
X22934Y27855
X22134Y27665
X22234Y28455
X22234Y28955
X21534Y28455
X21534Y27665
X20844Y27755
X20834Y28455
X20834Y28955
X19734Y28655
X19734Y28055
X19734Y27455
X20834Y26955
X20834Y26205
X20834Y24705
X20834Y23955
X21334Y23955
X21834Y23455
X21834Y22955
X22334Y22955
X22334Y23455
X21334Y22805
X21334Y22205
X21834Y22205
X22334Y22205
X22334Y21455
X21834Y21455
X21334Y21455
X21334Y20705
X21834Y20705
X22334Y20705
X22334Y20165
X23234Y19065
X23284Y18465
X23884Y18465
X23884Y19065
X23884Y19865
X23634Y20755
X22734Y18465
X23334Y15865
X22234Y14765
X22234Y14265
X22134Y13475
X21534Y13475
X21534Y14265
X20834Y14265
X20834Y14765
X20844Y13565
X20834Y12765
X20834Y12015
X20834Y10515
X20834Y9765
X21334Y9765
X21834Y9265
X21834Y8765
X22334Y8765
X22334Y9265
X21334Y8615
X21334Y8015
X21834Y8015
X22334Y8015
X22334Y7265
X21834Y7265
X21334Y7265
X21334Y6515
X21834Y6515
X22334Y6515
X22334Y5975
X23234Y4875
X23284Y4275
X23884Y4275
X23884Y4875
X23884Y5675
X23634Y6565
X22734Y4275
X20834Y5965
X20834Y6515
X20834Y7265
X20834Y8015
X20834Y8615
X20084Y7865
X19834Y6075
X18934Y6075
X18134Y5675
X17634Y5275
X17234Y4875
X17027Y5792
X17634Y6365
X17234Y6765
X17634Y7265
X17234Y7765
X17084Y8165
X17084Y8665
X16334Y9055
X15834Y9265
X15484Y9218
X15934Y8565
X15684Y8215
X15234Y8365
X15748Y7279
X16084Y7215
X16384Y5835
X15284Y5225
X15071Y5829
X14134Y6065
X14134Y6515
X14134Y7015
X14134Y7515
X14134Y8015
X14134Y8515
X14134Y9015
X14134Y9515
X14134Y10015
X14134Y10515
X14134Y11015
X14134Y11515
X14134Y12015
X14134Y12515
X14134Y13015
X14144Y13705
X13334Y13705
X13334Y13015
X13334Y12515
X13334Y12015
X13334Y11515
X13334Y11015
X13334Y10515
X13334Y10015
X13334Y9515
X13334Y9015
X13334Y8515
X13334Y8015
X13334Y7515
X13334Y7015
X13334Y6515
X13334Y6065
X12334Y6065
X12334Y6515
X12334Y7015
X12334Y7515
X12334Y8015
X12334Y8515
X12334Y9015
X12334Y9515
X12334Y10015
X12334Y10515
X12334Y11015
X12334Y11515
X12334Y12015
X12334Y12515
X12334Y13015
X12344Y13725
X13334Y14765
X13334Y15365
X14334Y15365
X14834Y15165
X14874Y14265
X15084Y13565
X15584Y13565
X16084Y13565
X16344Y14715
X16584Y13565
X17484Y13515
X17964Y13515
X18144Y12955
X18144Y12405
X17734Y12565
X17484Y13015
X16684Y12565
X16584Y11565
X17084Y11565
X17534Y11565
X17534Y11965
X18034Y11965
X18044Y11535
X18834Y11765
X18734Y12365
X18334Y14065
X17334Y14705
X15374Y14685
X14884Y10865
X15084Y10515
X16034Y10065
X18834Y10065
X18834Y9715
X18834Y10462
X18534Y8125
X21334Y10515
X22825Y11655
X23034Y11265
X23034Y10865
X23034Y10462
X23734Y9565
X23734Y8965
X25334Y8365
X26134Y10515
X26134Y10915
X25534Y11115
X25044Y11595
X24554Y11635
X24034Y11615
X24034Y13615
X24474Y13955
X25014Y14795
X25584Y13015
X26784Y13015
X26784Y12515
X26784Y12015
X26784Y11515
X26784Y11015
X26784Y10515
X26784Y10015
X26784Y9515
X26784Y9015
X26784Y8515
X26784Y8015
X26784Y7515
X26784Y7015
X27534Y7015
X27534Y6515
X27534Y6065
X26784Y6065
X27534Y7515
X27534Y8015
X27534Y8515
X27534Y9015
X27534Y9515
X27534Y10015
X27534Y10515
X27534Y11015
X27534Y11515
X27534Y12015
X27534Y12515
X27534Y13015
X27844Y13725
X27284Y14465
X28544Y13725
X28534Y13015
X28534Y12515
X28534Y12015
X28534Y11515
X28534Y11015
X28534Y10515
X28534Y10015
X28534Y9515
X28534Y9015
X28534Y8515
X28534Y8015
X28534Y7515
X28534Y7015
X28534Y6515
X28534Y6065
X29534Y6065
X29534Y6515
X29534Y7015
X29534Y7515
X29534Y8015
X29534Y8515
X29534Y9015
X29534Y9515
X29534Y10015
X29534Y10515
X29534Y11015
X29534Y11515
X29534Y12015
X29534Y12515
X29534Y13015
X29534Y13705
X29534Y14765
X29534Y15365
X30534Y15365
X31034Y15165
X31074Y14265
X31284Y13565
X31784Y13565
X32284Y13565
X32544Y14715
X32784Y13565
X33684Y13515
X34164Y13515
X34344Y12955
X34344Y12405
X33934Y12565
X33684Y13015
X32884Y12565
X32784Y11565
X33284Y11565
X33734Y11565
X33734Y11965
X34234Y11965
X34244Y11535
X35034Y11765
X34934Y12365
X34534Y14065
X33534Y14705
X31574Y14685
X30344Y13705
X30334Y13015
X30334Y12515
X30334Y12015
X30334Y11515
X30334Y11015
X30334Y10515
X30334Y10015
X30334Y9515
X30334Y9015
X30334Y8515
X30334Y8015
X30334Y7515
X30334Y7015
X30334Y6515
X30334Y6065
X31271Y5829
X31484Y5225
X32584Y5835
X33227Y5792
X33834Y5275
X33434Y4875
X33834Y6365
X33434Y6765
X33834Y7265
X33434Y7765
X33284Y8165
X33284Y8665
X32534Y9055
X32034Y9265
X31684Y9218
X32134Y8565
X31884Y8215
X31434Y8365
X31948Y7279
X32284Y7215
X32234Y10065
X31284Y10515
X31084Y10865
X34334Y5675
X35134Y6075
X36034Y6075
X36284Y7865
X34734Y8125
X35034Y9715
X35034Y10065
X35034Y10462
X35934Y13265
X35934Y13865
X35934Y14465
X34334Y19865
X35134Y20265
X36034Y20265
X36284Y22055
X34734Y22315
X35034Y23905
X35034Y24255
X35034Y24652
X35034Y25955
X34244Y25725
X34234Y26155
X33734Y26155
X33734Y25755
X33284Y25755
X32784Y25755
X32884Y26755
X31574Y28875
X29534Y28955
X29534Y29555
X29534Y27895
X29534Y27205
X29534Y26705
X29534Y26205
X29534Y25705
X26134Y25105
X26134Y24705
X25534Y25305
X25044Y25785
X24554Y25825
X24034Y25805
X23034Y25455
X23034Y25055
X23034Y24652
X23734Y23755
X23734Y23155
X25334Y22555
X25384Y20065
X25384Y19265
X25384Y18465
X26084Y15865
X23484Y13915
X22934Y13665
X19734Y13865
X19734Y13265
X19734Y14465
X17234Y19065
X17634Y19465
X17027Y19982
X17634Y20555
X17234Y20955
X17634Y21455
X17234Y21955
X17084Y22355
X17084Y22855
X16334Y23245
X15834Y23455
X15484Y23408
X15934Y22755
X15684Y22405
X15234Y22555
X15748Y21469
X16084Y21405
X16384Y20025
X15284Y19415
X15071Y20019
X14134Y20255
X14134Y20705
X14134Y21205
X14134Y21705
X14134Y22205
X14134Y22705
X14134Y23205
X14134Y23705
X14134Y24205
X14134Y24705
X14134Y25205
X14134Y25705
X14134Y26205
X14134Y26705
X14134Y27205
X14144Y27895
X13334Y27895
X13334Y27205
X13334Y26705
X13334Y26205
X13334Y25705
X13334Y25205
X13334Y24705
X13334Y24205
X13334Y23705
X13334Y23205
X13334Y22705
X13334Y22205
X13334Y21705
X13334Y21205
X13334Y20705
X13334Y20255
X15084Y24705
X14884Y25055
X16034Y24255
X16584Y25755
X17084Y25755
X17534Y25755
X17534Y26155
X18034Y26155
X18044Y25725
X18144Y26595
X17734Y26755
X17484Y27205
X17484Y27705
X17964Y27705
X18144Y27145
X18734Y26555
X18834Y25955
X18834Y24652
X18834Y24255
X18834Y23905
X18534Y22315
X20084Y22055
X20834Y22205
X20834Y22805
X20834Y21455
X20834Y20705
X20834Y20155
X19834Y20265
X18934Y20265
X18134Y19865
X21334Y24705
X22825Y25845
X23334Y30055
X23284Y32655
X23884Y32655
X23884Y33255
X23884Y34055
X23634Y34945
X23234Y33255
X22734Y32655
X25384Y32655
X25384Y33455
X25384Y34255
X25334Y36745
X25584Y41395
X17334Y28895
X18334Y28255
X16584Y27755
X16344Y28905
X16084Y27755
X15584Y27755
X15084Y27755
X14874Y28455
X14834Y29355
X14334Y29555
X13334Y29555
X13334Y28955
X15374Y28875
X16684Y26755
X9184Y32655
X9184Y33455
X9184Y34255
X9134Y36745
X7534Y37345
X7534Y37945
X5134Y24705
X4634Y22805
X4634Y22205
X4634Y21455
X4634Y20705
X4634Y20155
X7134Y15865
X6034Y14765
X6034Y14265
X5934Y13475
X5334Y13475
X5334Y14265
X4634Y14265
X4634Y14765
X4644Y13565
X4634Y12765
X4634Y12015
X4634Y10515
X4634Y9765
X5134Y9765
X5134Y10515
X6734Y13665
X7284Y13915
X7834Y13615
X9134Y8365
X9184Y5875
X9184Y5075
X9184Y4275
X25384Y4275
X25384Y5075
X25384Y5875
X25584Y27205
T02
X31864Y33895
X31864Y19705
X31864Y5515
X15664Y5515
X15664Y19705
X15664Y33895
X15664Y48085
X31864Y48085
T03
X25812Y43394
X23536Y43394
X23536Y57584
X25812Y57584
X9612Y57584
X7336Y57584
X7336Y43394
X9612Y43394
X9612Y29204
X7336Y29204
X7336Y15014
X9612Y15014
X23536Y15014
X25812Y15014
X25812Y29204
X23536Y29204
T04
X26034Y32755
X27034Y32755
X28034Y32755
X29034Y32755
X30034Y32755
X31034Y32755
X32034Y32755
X33034Y32755
X33034Y30555
X32034Y30555
X31034Y30555
X30034Y30555
X29034Y30555
X28034Y30555
X34034Y30555
X33034Y18565
X32034Y18565
X31034Y18565
X30034Y18565
X29034Y18565
X28034Y18565
X27034Y18565
X26034Y18565
X28034Y16365
X29034Y16365
X30034Y16365
X31034Y16365
X32034Y16365
X33034Y16365
X34034Y16365
X33034Y4375
X32034Y4375
X31034Y4375
X30034Y4375
X29034Y4375
X28034Y4375
X27034Y4375
X26034Y4375
X17834Y16365
X16834Y16365
X15834Y16365
X14834Y16365
X13834Y16365
X12834Y16365
X11834Y16365
X11834Y18565
X12834Y18565
X13834Y18565
X14834Y18565
X15834Y18565
X16834Y18565
X10834Y18565
X9834Y18565
X11834Y30555
X12834Y30555
X13834Y30555
X14834Y30555
X15834Y30555
X16834Y30555
X17834Y30555
X16834Y32755
X15834Y32755
X14834Y32755
X13834Y32755
X12834Y32755
X11834Y32755
X10834Y32755
X9834Y32755
X11834Y44745
X12834Y44745
X13834Y44745
X14834Y44745
X15834Y44745
X16834Y44745
X17834Y44745
X16834Y46945
X15834Y46945
X14834Y46945
X13834Y46945
X12834Y46945
X11834Y46945
X10834Y46945
X9834Y46945
X11834Y58935
X12834Y58935
X13834Y58935
X14834Y58935
X15834Y58935
X16834Y58935
X17834Y58935
X26034Y46945
X27034Y46945
X28034Y46945
X29034Y46945
X30034Y46945
X31034Y46945
X32034Y46945
X33034Y46945
X33034Y44745
X32034Y44745
X31034Y44745
X30034Y44745
X29034Y44745
X28034Y44745
X34034Y44745
X34034Y58935
X33034Y58935
X32034Y58935
X31034Y58935
X30034Y58935
X29034Y58935
X28034Y58935
X16834Y4375
X15834Y4375
X14834Y4375
X13834Y4375
X12834Y4375
X11834Y4375
X10834Y4375
X9834Y4375
T05
X5334Y4875
X5334Y15865
X5334Y19065
X5334Y30055
X5334Y33255
X5334Y44245
X5334Y47445
X5334Y58435
X19334Y58435
X21534Y58435
X21534Y47445
X19334Y47445
X19334Y44245
X21534Y44245
X21534Y33255
X19334Y33255
X19334Y30055
X21534Y30055
X21534Y19065
X19334Y19065
X19334Y15865
X21534Y15865
X21534Y4875
X19334Y4875
X35534Y4875
X35534Y15865
X35534Y19065
X35534Y30055
X35534Y33255
X35534Y44245
X35534Y47445
X35534Y58435
M30
