G75*
%MOIN*%
%OFA0B0*%
%FSLAX25Y25*%
%IPPOS*%
%LPD*%
%AMOC8*
5,1,8,0,0,1.08239X$1,22.5*
%
%ADD10C,0.02500*%
%ADD11R,0.07874X0.04724*%
%ADD12R,0.05315X0.02362*%
%ADD13R,0.04331X0.03937*%
%ADD14R,0.06693X0.16535*%
%ADD15C,0.00197*%
%ADD16R,0.03937X0.03937*%
%ADD17R,0.03937X0.04331*%
%ADD18C,0.01181*%
%ADD19R,0.02480X0.03268*%
%ADD20R,0.04724X0.02165*%
%ADD21C,0.07400*%
%ADD22R,0.07087X0.03150*%
%ADD23R,0.00984X0.02402*%
%ADD24R,0.00984X0.02205*%
%ADD25R,0.01181X0.04000*%
%ADD26R,0.02362X0.04000*%
%ADD27R,0.02165X0.04000*%
%ADD28C,0.03937*%
%ADD29R,0.03543X0.03346*%
%ADD30R,0.06299X0.03150*%
%ADD31R,0.02559X0.03150*%
%ADD32C,0.02000*%
%ADD33C,0.02200*%
%ADD34C,0.03000*%
%ADD35C,0.00600*%
%ADD36C,0.01000*%
%ADD37C,0.01200*%
%ADD38C,0.00800*%
%ADD39C,0.02441*%
%ADD40C,0.03150*%
%ADD41C,0.01600*%
D10*
X0155833Y0202400D03*
X0310833Y0077500D03*
D11*
X0308302Y0125376D03*
X0308302Y0147424D03*
X0158865Y0149924D03*
X0158865Y0127876D03*
D12*
X0173333Y0132994D03*
X0173333Y0136931D03*
X0173333Y0140869D03*
X0173333Y0144806D03*
X0293833Y0142306D03*
X0293833Y0138369D03*
X0293833Y0134431D03*
X0293833Y0130494D03*
D13*
X0299987Y0119900D03*
X0306680Y0119900D03*
X0306680Y0113000D03*
X0299987Y0113000D03*
X0285480Y0149600D03*
X0278787Y0149600D03*
X0272680Y0149600D03*
X0265987Y0149600D03*
X0196680Y0143900D03*
X0189987Y0143900D03*
X0189987Y0137900D03*
X0196680Y0137900D03*
X0196680Y0131900D03*
X0189987Y0131900D03*
X0189987Y0125900D03*
X0196680Y0125900D03*
X0196680Y0119900D03*
X0189987Y0119900D03*
X0189987Y0113900D03*
X0196680Y0113900D03*
X0209987Y0101400D03*
X0216680Y0101400D03*
D14*
X0193617Y0090362D03*
D15*
X0185231Y0098551D02*
X0175782Y0089102D01*
X0175782Y0098551D01*
X0185231Y0098551D01*
X0185123Y0098443D02*
X0175782Y0098443D01*
X0175782Y0098248D02*
X0184928Y0098248D01*
X0184732Y0098053D02*
X0175782Y0098053D01*
X0175782Y0097857D02*
X0184537Y0097857D01*
X0184342Y0097662D02*
X0175782Y0097662D01*
X0175782Y0097467D02*
X0184146Y0097467D01*
X0183951Y0097271D02*
X0175782Y0097271D01*
X0175782Y0097076D02*
X0183756Y0097076D01*
X0183560Y0096881D02*
X0175782Y0096881D01*
X0175782Y0096685D02*
X0183365Y0096685D01*
X0183170Y0096490D02*
X0175782Y0096490D01*
X0175782Y0096294D02*
X0182974Y0096294D01*
X0182779Y0096099D02*
X0175782Y0096099D01*
X0175782Y0095904D02*
X0182583Y0095904D01*
X0182388Y0095708D02*
X0175782Y0095708D01*
X0175782Y0095513D02*
X0182193Y0095513D01*
X0181997Y0095318D02*
X0175782Y0095318D01*
X0175782Y0095122D02*
X0181802Y0095122D01*
X0181607Y0094927D02*
X0175782Y0094927D01*
X0175782Y0094732D02*
X0181411Y0094732D01*
X0181216Y0094536D02*
X0175782Y0094536D01*
X0175782Y0094341D02*
X0181021Y0094341D01*
X0180825Y0094145D02*
X0175782Y0094145D01*
X0175782Y0093950D02*
X0180630Y0093950D01*
X0180435Y0093755D02*
X0175782Y0093755D01*
X0175782Y0093559D02*
X0180239Y0093559D01*
X0180044Y0093364D02*
X0175782Y0093364D01*
X0175782Y0093169D02*
X0179848Y0093169D01*
X0179653Y0092973D02*
X0175782Y0092973D01*
X0175782Y0092778D02*
X0179458Y0092778D01*
X0179262Y0092583D02*
X0175782Y0092583D01*
X0175782Y0092387D02*
X0179067Y0092387D01*
X0178872Y0092192D02*
X0175782Y0092192D01*
X0175782Y0091996D02*
X0178676Y0091996D01*
X0178481Y0091801D02*
X0175782Y0091801D01*
X0175782Y0091606D02*
X0178286Y0091606D01*
X0178090Y0091410D02*
X0175782Y0091410D01*
X0175782Y0091215D02*
X0177895Y0091215D01*
X0177699Y0091020D02*
X0175782Y0091020D01*
X0175782Y0090824D02*
X0177504Y0090824D01*
X0177309Y0090629D02*
X0175782Y0090629D01*
X0175782Y0090434D02*
X0177113Y0090434D01*
X0176918Y0090238D02*
X0175782Y0090238D01*
X0175782Y0090043D02*
X0176723Y0090043D01*
X0176527Y0089847D02*
X0175782Y0089847D01*
X0175782Y0089652D02*
X0176332Y0089652D01*
X0176137Y0089457D02*
X0175782Y0089457D01*
X0175782Y0089261D02*
X0175941Y0089261D01*
D16*
X0178333Y0095961D03*
D17*
X0264833Y0134054D03*
X0264833Y0140746D03*
X0285833Y0140746D03*
X0285833Y0134054D03*
X0265833Y0155554D03*
X0265833Y0162246D03*
X0220133Y0186654D03*
X0220133Y0193346D03*
X0198133Y0164946D03*
X0198133Y0158254D03*
X0190933Y0158054D03*
X0190933Y0164746D03*
X0169433Y0166246D03*
X0163533Y0166246D03*
X0163533Y0159554D03*
X0169433Y0159554D03*
D18*
X0297555Y0109331D02*
X0300311Y0109331D01*
X0300311Y0106575D01*
X0297555Y0106575D01*
X0297555Y0109331D01*
X0297555Y0107697D02*
X0300311Y0107697D01*
X0300311Y0108819D02*
X0297555Y0108819D01*
X0307055Y0109331D02*
X0309811Y0109331D01*
X0309811Y0106575D01*
X0307055Y0106575D01*
X0307055Y0109331D01*
X0307055Y0107697D02*
X0309811Y0107697D01*
X0309811Y0108819D02*
X0307055Y0108819D01*
X0307055Y0102425D02*
X0309811Y0102425D01*
X0309811Y0099669D01*
X0307055Y0099669D01*
X0307055Y0102425D01*
X0307055Y0100791D02*
X0309811Y0100791D01*
X0309811Y0101913D02*
X0307055Y0101913D01*
X0300311Y0102425D02*
X0297555Y0102425D01*
X0300311Y0102425D02*
X0300311Y0099669D01*
X0297555Y0099669D01*
X0297555Y0102425D01*
X0297555Y0100791D02*
X0300311Y0100791D01*
X0300311Y0101913D02*
X0297555Y0101913D01*
D19*
X0197861Y0106900D03*
X0188806Y0106900D03*
D20*
X0270215Y0133660D03*
X0270215Y0141140D03*
X0280452Y0141140D03*
X0280452Y0137400D03*
X0280452Y0133660D03*
D21*
X0278333Y0080000D03*
X0268333Y0080000D03*
X0258333Y0080000D03*
X0248333Y0080000D03*
X0238333Y0080000D03*
X0228333Y0080000D03*
X0218333Y0080000D03*
X0208333Y0080000D03*
X0228333Y0200000D03*
X0238333Y0200000D03*
X0248333Y0200000D03*
X0258333Y0200000D03*
X0268333Y0200000D03*
X0278333Y0200000D03*
X0288333Y0200000D03*
D22*
X0256955Y0166459D03*
X0256955Y0162128D03*
X0256955Y0157798D03*
X0256955Y0153467D03*
X0256955Y0149136D03*
X0256955Y0137325D03*
X0256955Y0132994D03*
X0256955Y0128664D03*
X0256955Y0124333D03*
X0256955Y0120002D03*
X0256955Y0115672D03*
X0256955Y0111341D03*
X0209711Y0111341D03*
X0209711Y0115672D03*
X0209711Y0120002D03*
X0209711Y0124333D03*
X0209711Y0128664D03*
X0209711Y0132994D03*
X0209711Y0137325D03*
X0209711Y0149136D03*
X0209711Y0153467D03*
X0209711Y0157798D03*
X0209711Y0162128D03*
X0209711Y0166459D03*
D23*
X0195702Y0172794D03*
D24*
X0193733Y0172893D03*
X0191765Y0172893D03*
X0191765Y0169507D03*
X0193733Y0169507D03*
X0195702Y0169507D03*
D25*
X0195718Y0180094D03*
X0197686Y0180094D03*
X0199655Y0180094D03*
X0201623Y0180094D03*
X0193749Y0180094D03*
X0191781Y0180094D03*
X0189812Y0180094D03*
X0187844Y0180094D03*
D26*
X0182036Y0180094D03*
X0207430Y0180094D03*
D27*
X0204379Y0180094D03*
X0185088Y0180094D03*
D28*
X0177725Y0182136D02*
X0177725Y0182136D01*
X0177725Y0186468D01*
X0177725Y0186468D01*
X0177725Y0182136D01*
X0177725Y0185876D02*
X0177725Y0185876D01*
X0177725Y0199578D02*
X0177725Y0199578D01*
X0177725Y0201940D01*
X0177725Y0201940D01*
X0177725Y0199578D01*
X0211741Y0199578D02*
X0211741Y0199578D01*
X0211741Y0201940D01*
X0211741Y0201940D01*
X0211741Y0199578D01*
X0211741Y0182136D02*
X0211741Y0182136D01*
X0211741Y0186468D01*
X0211741Y0186468D01*
X0211741Y0182136D01*
X0211741Y0185876D02*
X0211741Y0185876D01*
X0262115Y0162128D02*
X0262233Y0162246D01*
X0265833Y0162246D01*
X0280480Y0162246D01*
X0280631Y0162248D01*
X0280781Y0162254D01*
X0280932Y0162263D01*
X0281082Y0162277D01*
X0281232Y0162294D01*
X0281381Y0162316D01*
X0281530Y0162341D01*
X0281677Y0162370D01*
X0281825Y0162403D01*
X0281971Y0162439D01*
X0282116Y0162479D01*
X0282260Y0162523D01*
X0282403Y0162571D01*
X0282545Y0162622D01*
X0282685Y0162677D01*
X0282824Y0162736D01*
X0282962Y0162798D01*
X0283097Y0162864D01*
X0283231Y0162933D01*
X0283363Y0163005D01*
X0283494Y0163081D01*
X0283622Y0163161D01*
X0283748Y0163243D01*
X0283872Y0163329D01*
X0283994Y0163418D01*
X0284113Y0163510D01*
X0284230Y0163605D01*
X0284345Y0163703D01*
X0284456Y0163804D01*
X0284566Y0163908D01*
X0284672Y0164014D01*
X0284776Y0164124D01*
X0284877Y0164235D01*
X0284975Y0164350D01*
X0285070Y0164467D01*
X0285162Y0164586D01*
X0285251Y0164708D01*
X0285337Y0164832D01*
X0285419Y0164958D01*
X0285499Y0165086D01*
X0285575Y0165217D01*
X0285647Y0165349D01*
X0285716Y0165483D01*
X0285782Y0165618D01*
X0285844Y0165756D01*
X0285903Y0165895D01*
X0285958Y0166035D01*
X0286009Y0166177D01*
X0286057Y0166320D01*
X0286101Y0166464D01*
X0286141Y0166609D01*
X0286177Y0166755D01*
X0286210Y0166903D01*
X0286239Y0167050D01*
X0286264Y0167199D01*
X0286286Y0167348D01*
X0286303Y0167498D01*
X0286317Y0167648D01*
X0286326Y0167799D01*
X0286332Y0167949D01*
X0286334Y0168100D01*
X0286333Y0168100D02*
X0286335Y0168267D01*
X0286341Y0168433D01*
X0286351Y0168600D01*
X0286365Y0168766D01*
X0286383Y0168932D01*
X0286405Y0169097D01*
X0286431Y0169262D01*
X0286462Y0169426D01*
X0286496Y0169589D01*
X0286534Y0169751D01*
X0286575Y0169913D01*
X0286621Y0170073D01*
X0286671Y0170232D01*
X0286724Y0170390D01*
X0286781Y0170547D01*
X0286842Y0170702D01*
X0286907Y0170856D01*
X0286976Y0171008D01*
X0287048Y0171158D01*
X0287123Y0171307D01*
X0287203Y0171453D01*
X0287285Y0171598D01*
X0287372Y0171741D01*
X0287461Y0171881D01*
X0287554Y0172020D01*
X0287651Y0172156D01*
X0287750Y0172289D01*
X0287853Y0172421D01*
X0287959Y0172549D01*
X0288068Y0172676D01*
X0288180Y0172799D01*
X0288295Y0172920D01*
X0288413Y0173038D01*
X0288534Y0173153D01*
X0288657Y0173265D01*
X0288784Y0173374D01*
X0288912Y0173480D01*
X0289044Y0173583D01*
X0289177Y0173682D01*
X0289313Y0173779D01*
X0289452Y0173872D01*
X0289592Y0173961D01*
X0289735Y0174048D01*
X0289880Y0174130D01*
X0290026Y0174210D01*
X0290175Y0174285D01*
X0290325Y0174357D01*
X0290477Y0174426D01*
X0290631Y0174491D01*
X0290786Y0174552D01*
X0290943Y0174609D01*
X0291101Y0174662D01*
X0291260Y0174712D01*
X0291420Y0174758D01*
X0291582Y0174799D01*
X0291744Y0174837D01*
X0291907Y0174871D01*
X0292071Y0174902D01*
X0292236Y0174928D01*
X0292401Y0174950D01*
X0292567Y0174968D01*
X0292733Y0174982D01*
X0292900Y0174992D01*
X0293066Y0174998D01*
X0293233Y0175000D01*
X0303333Y0175000D01*
X0303445Y0174998D01*
X0303556Y0174992D01*
X0303668Y0174982D01*
X0303778Y0174968D01*
X0303889Y0174950D01*
X0303998Y0174928D01*
X0304107Y0174903D01*
X0304215Y0174873D01*
X0304321Y0174840D01*
X0304427Y0174803D01*
X0304531Y0174762D01*
X0304633Y0174717D01*
X0304734Y0174669D01*
X0304833Y0174617D01*
X0304930Y0174562D01*
X0305025Y0174503D01*
X0305118Y0174441D01*
X0305209Y0174376D01*
X0305297Y0174307D01*
X0305383Y0174235D01*
X0305466Y0174161D01*
X0305546Y0174083D01*
X0305624Y0174003D01*
X0305698Y0173920D01*
X0305770Y0173834D01*
X0305839Y0173746D01*
X0305904Y0173655D01*
X0305966Y0173562D01*
X0306025Y0173467D01*
X0306080Y0173370D01*
X0306132Y0173271D01*
X0306180Y0173170D01*
X0306225Y0173068D01*
X0306266Y0172964D01*
X0306303Y0172858D01*
X0306336Y0172752D01*
X0306366Y0172644D01*
X0306391Y0172535D01*
X0306413Y0172426D01*
X0306431Y0172315D01*
X0306445Y0172205D01*
X0306455Y0172093D01*
X0306461Y0171982D01*
X0306463Y0171870D01*
D29*
X0270333Y0118283D03*
X0270333Y0113717D03*
X0182933Y0163617D03*
X0177333Y0163617D03*
X0177333Y0168183D03*
X0182933Y0168183D03*
D30*
X0308333Y0155701D03*
D31*
X0306463Y0168299D03*
X0310203Y0168299D03*
D32*
X0278787Y0149600D02*
X0272333Y0149600D01*
X0266380Y0155554D01*
X0265833Y0155554D01*
X0261562Y0137325D02*
X0256955Y0137325D01*
X0261562Y0137325D02*
X0264833Y0134054D01*
X0269821Y0134054D01*
X0270215Y0133660D01*
X0270215Y0131019D01*
X0273333Y0127900D01*
X0273333Y0126800D01*
X0270215Y0133660D02*
X0270215Y0136281D01*
X0270333Y0136400D01*
X0293833Y0134431D02*
X0293865Y0134400D01*
X0296333Y0134400D01*
X0298333Y0136400D01*
X0298333Y0136900D01*
X0270833Y0113217D02*
X0270833Y0108400D01*
X0270833Y0113217D02*
X0270333Y0113717D01*
X0251833Y0093900D02*
X0208333Y0093900D01*
X0203333Y0098900D01*
X0203333Y0101400D01*
X0203333Y0106900D01*
X0197861Y0106900D01*
X0203333Y0106900D02*
X0203333Y0113900D01*
X0205105Y0115672D01*
X0209711Y0115672D01*
X0209987Y0101400D02*
X0203333Y0101400D01*
X0184833Y0101400D01*
X0184333Y0101900D01*
X0178333Y0140869D02*
X0173333Y0140869D01*
X0220133Y0181600D02*
X0220833Y0180900D01*
X0220133Y0181600D02*
X0220133Y0186654D01*
X0251833Y0093900D02*
X0255533Y0090200D01*
X0256633Y0091300D01*
X0266533Y0091300D01*
X0266633Y0091400D01*
X0258333Y0087400D02*
X0258333Y0080000D01*
X0258333Y0087400D02*
X0255533Y0090200D01*
D33*
X0260697Y0094536D03*
X0251333Y0096900D03*
X0251333Y0101400D03*
X0251333Y0106400D03*
X0251333Y0111400D03*
X0251333Y0116400D03*
X0251333Y0121400D03*
X0251333Y0126400D03*
X0249333Y0129000D03*
X0249333Y0133000D03*
X0243333Y0131400D03*
X0243333Y0126400D03*
X0243333Y0121400D03*
X0243333Y0116400D03*
X0243333Y0111400D03*
X0243333Y0106400D03*
X0243333Y0101400D03*
X0243333Y0096900D03*
X0233333Y0096900D03*
X0233333Y0101400D03*
X0233333Y0106400D03*
X0233333Y0111400D03*
X0233333Y0116400D03*
X0233333Y0121400D03*
X0233333Y0126400D03*
X0233333Y0131400D03*
X0233333Y0136400D03*
X0233333Y0141400D03*
X0233333Y0146400D03*
X0233333Y0151400D03*
X0233333Y0156400D03*
X0233333Y0161400D03*
X0233333Y0166400D03*
X0243333Y0166400D03*
X0243333Y0161400D03*
X0243333Y0156400D03*
X0251533Y0157600D03*
X0251133Y0161400D03*
X0251333Y0166400D03*
X0251033Y0174000D03*
X0248333Y0174000D03*
X0243333Y0173300D03*
X0249133Y0179000D03*
X0252333Y0184900D03*
X0243333Y0183900D03*
X0243333Y0189900D03*
X0257233Y0174900D03*
X0262733Y0173200D03*
X0262833Y0167700D03*
X0268233Y0167900D03*
X0274733Y0167800D03*
X0273333Y0173000D03*
X0280533Y0168000D03*
X0283333Y0173700D03*
X0283533Y0178900D03*
X0290633Y0179200D03*
X0294633Y0182900D03*
X0297133Y0179400D03*
X0303933Y0179300D03*
X0308533Y0182900D03*
X0310033Y0177400D03*
X0310733Y0172400D03*
X0294233Y0169000D03*
X0291033Y0166700D03*
X0294133Y0162500D03*
X0289233Y0160700D03*
X0284033Y0157500D03*
X0288633Y0154200D03*
X0294233Y0155800D03*
X0297833Y0152000D03*
X0304533Y0151800D03*
X0310933Y0152100D03*
X0298333Y0142506D03*
X0298333Y0139869D03*
X0298333Y0136900D03*
X0298833Y0132900D03*
X0289333Y0132900D03*
X0281833Y0124000D03*
X0280133Y0120500D03*
X0282933Y0117900D03*
X0280133Y0114800D03*
X0282633Y0112400D03*
X0282333Y0107900D03*
X0282333Y0102900D03*
X0284333Y0097900D03*
X0289333Y0097900D03*
X0288333Y0102900D03*
X0288333Y0107900D03*
X0302733Y0104000D03*
X0302333Y0097900D03*
X0293333Y0090000D03*
X0288333Y0090000D03*
X0283333Y0090000D03*
X0280262Y0094171D03*
X0273833Y0094600D03*
X0262833Y0088500D03*
X0283333Y0085000D03*
X0288333Y0085000D03*
X0293333Y0085000D03*
X0270833Y0108400D03*
X0267470Y0109036D03*
X0266833Y0118400D03*
X0269333Y0121900D03*
X0262333Y0119900D03*
X0273333Y0126800D03*
X0285333Y0122000D03*
X0295833Y0119000D03*
X0309233Y0116400D03*
X0270333Y0136400D03*
X0260833Y0141400D03*
X0251333Y0141400D03*
X0251333Y0136400D03*
X0243333Y0136400D03*
X0243333Y0141400D03*
X0243333Y0146400D03*
X0251533Y0150600D03*
X0262133Y0147600D03*
X0271733Y0157600D03*
X0277633Y0157500D03*
X0291033Y0149300D03*
X0263433Y0185000D03*
X0233433Y0173500D03*
X0226433Y0173500D03*
X0223333Y0166400D03*
X0223333Y0161400D03*
X0215833Y0161400D03*
X0215833Y0166400D03*
X0215833Y0156400D03*
X0223333Y0156400D03*
X0223333Y0151400D03*
X0215833Y0151400D03*
X0215833Y0146400D03*
X0223333Y0146400D03*
X0223333Y0141400D03*
X0223333Y0136400D03*
X0215833Y0136400D03*
X0215833Y0141400D03*
X0209333Y0141400D03*
X0209333Y0145400D03*
X0203333Y0147900D03*
X0198433Y0152200D03*
X0196333Y0148400D03*
X0193533Y0152600D03*
X0188333Y0152400D03*
X0188333Y0148400D03*
X0178333Y0148900D03*
X0178333Y0144900D03*
X0178333Y0140869D03*
X0185333Y0131900D03*
X0185333Y0125900D03*
X0201333Y0119900D03*
X0215833Y0121400D03*
X0223333Y0121400D03*
X0223333Y0116400D03*
X0223333Y0111400D03*
X0215833Y0111400D03*
X0215833Y0116400D03*
X0215833Y0106400D03*
X0223333Y0106400D03*
X0223333Y0101400D03*
X0223333Y0096900D03*
X0215833Y0096900D03*
X0201833Y0095000D03*
X0201833Y0087000D03*
X0201833Y0079000D03*
X0186833Y0079000D03*
X0180833Y0079000D03*
X0175333Y0079000D03*
X0180333Y0085000D03*
X0186833Y0085000D03*
X0186833Y0093000D03*
X0184333Y0101900D03*
X0171333Y0101400D03*
X0166333Y0101400D03*
X0161333Y0101400D03*
X0156333Y0101400D03*
X0156333Y0095900D03*
X0171333Y0096000D03*
X0171333Y0108900D03*
X0166333Y0108900D03*
X0161333Y0108900D03*
X0156333Y0108900D03*
X0156333Y0116400D03*
X0161333Y0116400D03*
X0166333Y0116400D03*
X0171333Y0116400D03*
X0171333Y0123900D03*
X0166333Y0123900D03*
X0161333Y0122400D03*
X0156333Y0122400D03*
X0166333Y0128900D03*
X0171333Y0128900D03*
X0161333Y0133900D03*
X0156333Y0133900D03*
X0156333Y0141400D03*
X0161333Y0141400D03*
X0176239Y0152800D03*
X0156333Y0156400D03*
X0156333Y0163900D03*
X0156433Y0171900D03*
X0163333Y0171000D03*
X0169333Y0171000D03*
X0177333Y0172900D03*
X0182833Y0175400D03*
X0188333Y0172400D03*
X0192733Y0175800D03*
X0198133Y0184200D03*
X0208833Y0194900D03*
X0220833Y0180900D03*
X0203833Y0166400D03*
X0170333Y0178900D03*
X0170333Y0183900D03*
X0163333Y0178900D03*
X0156333Y0178900D03*
X0156333Y0183900D03*
X0181333Y0194900D03*
X0215833Y0131400D03*
X0223333Y0131400D03*
X0223333Y0126400D03*
X0215833Y0126400D03*
D34*
X0266633Y0091400D03*
D35*
X0262833Y0088500D02*
X0272833Y0088500D01*
X0275933Y0091600D01*
X0275933Y0122800D01*
X0274400Y0124333D01*
X0256955Y0124333D01*
X0256955Y0120002D02*
X0262231Y0120002D01*
X0262333Y0119900D01*
X0264105Y0115672D02*
X0266833Y0118400D01*
X0270217Y0118400D01*
X0264105Y0115672D02*
X0256955Y0115672D01*
X0256955Y0111341D02*
X0265165Y0111341D01*
X0267470Y0109036D01*
X0279533Y0114200D02*
X0279533Y0094900D01*
X0280262Y0094171D01*
X0277133Y0088800D02*
X0268333Y0080000D01*
X0278333Y0080000D02*
X0278333Y0123900D01*
X0281333Y0126900D01*
X0298333Y0126900D01*
X0302935Y0131502D01*
X0302935Y0138610D01*
X0299039Y0142506D01*
X0298333Y0142506D01*
X0294033Y0142506D01*
X0293833Y0142306D01*
X0296833Y0138369D02*
X0298333Y0139869D01*
X0298465Y0140000D01*
X0299533Y0140000D01*
X0301735Y0137799D01*
X0301735Y0131999D01*
X0297836Y0128100D01*
X0280836Y0128100D01*
X0277133Y0124397D01*
X0277133Y0088800D01*
X0273833Y0094600D02*
X0260761Y0094600D01*
X0260697Y0094536D01*
X0279533Y0114200D02*
X0280133Y0114800D01*
X0280133Y0120500D02*
X0283833Y0120500D01*
X0285333Y0122000D01*
X0295833Y0119000D02*
X0296733Y0119900D01*
X0299987Y0119900D01*
X0303333Y0116554D02*
X0303333Y0111000D01*
X0306381Y0107953D01*
X0308433Y0107953D01*
X0306680Y0113000D02*
X0306680Y0113846D01*
X0309233Y0116400D01*
X0306680Y0119900D02*
X0303333Y0116554D01*
X0299987Y0113000D02*
X0298933Y0111946D01*
X0298933Y0107953D01*
X0256955Y0128664D02*
X0249670Y0128664D01*
X0249333Y0129000D01*
X0249339Y0132994D02*
X0249333Y0133000D01*
X0249339Y0132994D02*
X0256955Y0132994D01*
X0262133Y0147600D02*
X0260597Y0149136D01*
X0256955Y0149136D01*
X0251033Y0174000D02*
X0251033Y0183600D01*
X0252333Y0184900D01*
X0252433Y0185000D01*
X0263433Y0185000D01*
X0249133Y0179000D02*
X0248333Y0178200D01*
X0248333Y0174000D01*
X0204833Y0174500D02*
X0204425Y0174500D01*
X0201729Y0171804D01*
X0201729Y0162996D01*
X0200433Y0161700D01*
X0195833Y0161700D01*
X0194433Y0163100D01*
X0194433Y0167000D01*
X0193733Y0167700D01*
X0193733Y0169507D01*
X0191765Y0169507D02*
X0191765Y0165578D01*
X0190933Y0164746D01*
X0195702Y0167378D02*
X0195702Y0169507D01*
X0195702Y0167378D02*
X0198133Y0164946D01*
X0198133Y0158254D02*
X0198433Y0157954D01*
X0198433Y0152200D01*
X0193533Y0152600D02*
X0190933Y0155200D01*
X0190933Y0158054D01*
X0178333Y0154900D02*
X0178333Y0148900D01*
X0169833Y0148900D01*
X0167833Y0146900D01*
X0167833Y0138400D01*
X0169302Y0136931D01*
X0173333Y0136931D01*
X0178365Y0136931D01*
X0185333Y0143900D01*
X0189987Y0143900D01*
X0196680Y0143900D02*
X0199333Y0143900D01*
X0205908Y0137325D01*
X0209711Y0137325D01*
X0209711Y0132994D02*
X0205239Y0132994D01*
X0200333Y0137900D01*
X0196680Y0137900D01*
X0189987Y0137900D02*
X0185333Y0137900D01*
X0180428Y0132994D01*
X0173333Y0132994D01*
X0168239Y0132994D01*
X0166333Y0134900D01*
X0166333Y0153000D01*
X0176039Y0153000D01*
X0176239Y0152800D01*
X0178333Y0154900D02*
X0173680Y0159554D01*
X0169433Y0159554D01*
X0166333Y0156754D02*
X0166333Y0153000D01*
X0166333Y0156754D02*
X0163533Y0159554D01*
X0163533Y0166246D02*
X0163333Y0166446D01*
X0163333Y0171000D01*
X0169333Y0171000D02*
X0169333Y0166346D01*
X0169433Y0166246D01*
X0177333Y0168183D02*
X0177333Y0172900D01*
X0182933Y0171217D02*
X0187844Y0176127D01*
X0187844Y0180094D01*
X0191781Y0180094D02*
X0191781Y0182847D01*
X0192833Y0183900D01*
X0194833Y0183900D01*
X0195718Y0183016D01*
X0195718Y0180094D01*
X0197686Y0180094D02*
X0197686Y0178353D01*
X0195283Y0175950D01*
X0193749Y0177484D01*
X0193749Y0180094D01*
X0191781Y0180094D02*
X0191781Y0178447D01*
X0190833Y0177500D01*
X0190833Y0174324D01*
X0191765Y0173393D01*
X0191765Y0172893D01*
X0193733Y0172893D02*
X0193733Y0174800D01*
X0192733Y0175800D01*
X0195283Y0175950D02*
X0195702Y0175531D01*
X0195702Y0172794D01*
X0199655Y0180094D02*
X0199655Y0182679D01*
X0198133Y0184200D01*
X0182933Y0171217D02*
X0182933Y0168183D01*
X0185333Y0131900D02*
X0189987Y0131900D01*
X0196680Y0131900D02*
X0200333Y0131900D01*
X0203333Y0128900D01*
X0209475Y0128900D01*
X0209711Y0128664D01*
X0209711Y0124333D02*
X0201900Y0124333D01*
X0200333Y0125900D01*
X0196680Y0125900D01*
X0189987Y0125900D02*
X0185333Y0125900D01*
X0189987Y0119900D02*
X0190680Y0119900D01*
X0189987Y0113900D02*
X0188806Y0112719D01*
X0293833Y0138369D02*
X0296833Y0138369D01*
D36*
X0155033Y0124214D02*
X0155033Y0088624D01*
X0156333Y0090874D01*
X0156333Y0090874D01*
X0158764Y0092914D01*
X0158764Y0092914D01*
X0161746Y0094000D01*
X0164920Y0094000D01*
X0167903Y0092914D01*
X0167903Y0092914D01*
X0170334Y0090874D01*
X0170334Y0090874D01*
X0171921Y0088126D01*
X0171921Y0088126D01*
X0172472Y0085000D01*
X0172472Y0085000D01*
X0171921Y0081874D01*
X0171921Y0081874D01*
X0170334Y0079126D01*
X0170334Y0079126D01*
X0170334Y0079126D01*
X0167903Y0077086D01*
X0167903Y0077086D01*
X0166843Y0076700D01*
X0204562Y0076700D01*
X0204095Y0077168D01*
X0203333Y0079005D01*
X0203333Y0080995D01*
X0204095Y0082832D01*
X0205501Y0084239D01*
X0207339Y0085000D01*
X0209328Y0085000D01*
X0211166Y0084239D01*
X0212572Y0082832D01*
X0213333Y0080995D01*
X0213333Y0079005D01*
X0212572Y0077168D01*
X0212104Y0076700D01*
X0214562Y0076700D01*
X0214095Y0077168D01*
X0213333Y0079005D01*
X0213333Y0080995D01*
X0214095Y0082832D01*
X0215501Y0084239D01*
X0217339Y0085000D01*
X0219328Y0085000D01*
X0221166Y0084239D01*
X0222572Y0082832D01*
X0223333Y0080995D01*
X0223333Y0079005D01*
X0222572Y0077168D01*
X0222104Y0076700D01*
X0224562Y0076700D01*
X0224095Y0077168D01*
X0223333Y0079005D01*
X0223333Y0080995D01*
X0224095Y0082832D01*
X0225501Y0084239D01*
X0227339Y0085000D01*
X0229328Y0085000D01*
X0231166Y0084239D01*
X0232572Y0082832D01*
X0233333Y0080995D01*
X0233333Y0079005D01*
X0232572Y0077168D01*
X0232104Y0076700D01*
X0234562Y0076700D01*
X0234095Y0077168D01*
X0233333Y0079005D01*
X0233333Y0080995D01*
X0234095Y0082832D01*
X0235501Y0084239D01*
X0237339Y0085000D01*
X0239328Y0085000D01*
X0241166Y0084239D01*
X0242572Y0082832D01*
X0243256Y0081182D01*
X0243261Y0081218D01*
X0243514Y0081996D01*
X0243886Y0082725D01*
X0244367Y0083388D01*
X0244946Y0083966D01*
X0245608Y0084447D01*
X0246337Y0084819D01*
X0247116Y0085072D01*
X0247833Y0085186D01*
X0247833Y0080500D01*
X0248833Y0080500D01*
X0248833Y0085186D01*
X0249551Y0085072D01*
X0250329Y0084819D01*
X0251059Y0084447D01*
X0251721Y0083966D01*
X0252300Y0083388D01*
X0252781Y0082725D01*
X0253152Y0081996D01*
X0253405Y0081218D01*
X0253411Y0081182D01*
X0254095Y0082832D01*
X0255501Y0084239D01*
X0256033Y0084459D01*
X0256033Y0086447D01*
X0254581Y0087900D01*
X0254581Y0087900D01*
X0253233Y0089247D01*
X0253233Y0089247D01*
X0250881Y0091600D01*
X0207381Y0091600D01*
X0202381Y0096600D01*
X0202381Y0096600D01*
X0201033Y0097947D01*
X0201033Y0099100D01*
X0198390Y0099100D01*
X0198463Y0098827D01*
X0198463Y0090862D01*
X0194117Y0090862D01*
X0194117Y0089862D01*
X0198463Y0089862D01*
X0198463Y0081897D01*
X0198361Y0081516D01*
X0198164Y0081173D01*
X0197884Y0080894D01*
X0197542Y0080697D01*
X0197161Y0080594D01*
X0194117Y0080594D01*
X0194117Y0089862D01*
X0193117Y0089862D01*
X0193117Y0080594D01*
X0190073Y0080594D01*
X0189691Y0080697D01*
X0189349Y0080894D01*
X0189070Y0081173D01*
X0188873Y0081516D01*
X0188770Y0081897D01*
X0188770Y0089862D01*
X0193117Y0089862D01*
X0193117Y0090862D01*
X0188770Y0090862D01*
X0188770Y0098827D01*
X0188843Y0099100D01*
X0186629Y0099100D01*
X0186629Y0097972D01*
X0176361Y0087704D01*
X0175203Y0087704D01*
X0174384Y0088523D01*
X0174384Y0099130D01*
X0175203Y0099950D01*
X0176433Y0099950D01*
X0176433Y0113187D01*
X0185046Y0121800D01*
X0186522Y0121800D01*
X0186522Y0122407D01*
X0187015Y0122900D01*
X0186522Y0123393D01*
X0186522Y0123794D01*
X0185811Y0123500D01*
X0184856Y0123500D01*
X0183974Y0123865D01*
X0183299Y0124541D01*
X0182933Y0125423D01*
X0182933Y0126377D01*
X0183299Y0127259D01*
X0183974Y0127935D01*
X0184856Y0128300D01*
X0185811Y0128300D01*
X0186522Y0128006D01*
X0186522Y0128407D01*
X0187015Y0128900D01*
X0186522Y0129393D01*
X0186522Y0129794D01*
X0185811Y0129500D01*
X0184856Y0129500D01*
X0183974Y0129865D01*
X0183299Y0130541D01*
X0182933Y0131423D01*
X0182933Y0132377D01*
X0183299Y0133259D01*
X0183974Y0133935D01*
X0184856Y0134300D01*
X0185811Y0134300D01*
X0186522Y0134006D01*
X0186522Y0134407D01*
X0187015Y0134900D01*
X0186522Y0135393D01*
X0186522Y0136300D01*
X0185996Y0136300D01*
X0181091Y0131394D01*
X0177291Y0131394D01*
X0177291Y0131275D01*
X0176529Y0130513D01*
X0170137Y0130513D01*
X0169376Y0131275D01*
X0169376Y0131394D01*
X0167576Y0131394D01*
X0166639Y0132332D01*
X0165671Y0133300D01*
X0165671Y0133300D01*
X0164733Y0134237D01*
X0164733Y0156088D01*
X0161026Y0156088D01*
X0160265Y0156850D01*
X0160265Y0162257D01*
X0160907Y0162900D01*
X0160265Y0163543D01*
X0160265Y0168950D01*
X0161026Y0169712D01*
X0161269Y0169712D01*
X0160933Y0170523D01*
X0160933Y0171477D01*
X0161299Y0172359D01*
X0161974Y0173035D01*
X0162856Y0173400D01*
X0163811Y0173400D01*
X0164693Y0173035D01*
X0165368Y0172359D01*
X0165733Y0171477D01*
X0165733Y0170523D01*
X0165397Y0169712D01*
X0166040Y0169712D01*
X0166483Y0169269D01*
X0166926Y0169712D01*
X0167269Y0169712D01*
X0166933Y0170523D01*
X0166933Y0171477D01*
X0167299Y0172359D01*
X0167974Y0173035D01*
X0168856Y0173400D01*
X0169811Y0173400D01*
X0170693Y0173035D01*
X0171368Y0172359D01*
X0171733Y0171477D01*
X0171733Y0170523D01*
X0171397Y0169712D01*
X0171940Y0169712D01*
X0172702Y0168950D01*
X0172702Y0163543D01*
X0172059Y0162900D01*
X0172702Y0162257D01*
X0172702Y0161154D01*
X0174286Y0161154D01*
X0174164Y0161364D01*
X0174062Y0161746D01*
X0174062Y0163280D01*
X0176997Y0163280D01*
X0177670Y0163280D01*
X0177670Y0163953D01*
X0179662Y0163953D01*
X0182597Y0163953D01*
X0182597Y0163280D01*
X0183270Y0163280D01*
X0183270Y0163953D01*
X0186205Y0163953D01*
X0186205Y0165487D01*
X0186103Y0165869D01*
X0186005Y0166038D01*
X0186005Y0170395D01*
X0185243Y0171157D01*
X0185136Y0171157D01*
X0189233Y0175254D01*
X0189233Y0173662D01*
X0189973Y0172922D01*
X0189973Y0171252D01*
X0190025Y0171200D01*
X0189973Y0171148D01*
X0189973Y0168212D01*
X0188426Y0168212D01*
X0187665Y0167450D01*
X0187665Y0162043D01*
X0188307Y0161400D01*
X0187665Y0160757D01*
X0187665Y0155350D01*
X0188426Y0154588D01*
X0189333Y0154588D01*
X0189333Y0154537D01*
X0191133Y0152737D01*
X0191133Y0152123D01*
X0191499Y0151241D01*
X0192174Y0150565D01*
X0193056Y0150200D01*
X0194011Y0150200D01*
X0194893Y0150565D01*
X0195568Y0151241D01*
X0195933Y0152123D01*
X0195933Y0153077D01*
X0195568Y0153959D01*
X0194893Y0154635D01*
X0194011Y0155000D01*
X0193852Y0155000D01*
X0194202Y0155350D01*
X0194202Y0160757D01*
X0193559Y0161400D01*
X0193715Y0161556D01*
X0194233Y0161037D01*
X0194865Y0160406D01*
X0194865Y0155550D01*
X0195626Y0154788D01*
X0196833Y0154788D01*
X0196833Y0153994D01*
X0196399Y0153559D01*
X0196033Y0152677D01*
X0196033Y0151723D01*
X0196399Y0150841D01*
X0197074Y0150165D01*
X0197956Y0149800D01*
X0198911Y0149800D01*
X0199793Y0150165D01*
X0200468Y0150841D01*
X0200833Y0151723D01*
X0200833Y0152677D01*
X0200468Y0153559D01*
X0200033Y0153994D01*
X0200033Y0154788D01*
X0200640Y0154788D01*
X0201402Y0155550D01*
X0201402Y0160406D01*
X0202392Y0161396D01*
X0203329Y0162333D01*
X0203329Y0171142D01*
X0204417Y0172229D01*
X0204446Y0172200D01*
X0223220Y0172200D01*
X0225120Y0174100D01*
X0237033Y0174100D01*
X0237033Y0153613D01*
X0245933Y0144713D01*
X0247046Y0143600D01*
X0261530Y0143600D01*
X0261467Y0143491D01*
X0261365Y0143109D01*
X0261365Y0141231D01*
X0264349Y0141231D01*
X0264349Y0140262D01*
X0261365Y0140262D01*
X0261365Y0139872D01*
X0261037Y0140200D01*
X0252874Y0140200D01*
X0252112Y0139438D01*
X0252112Y0135212D01*
X0252164Y0135160D01*
X0252112Y0135108D01*
X0252112Y0134594D01*
X0251133Y0134594D01*
X0250693Y0135035D01*
X0249811Y0135400D01*
X0248856Y0135400D01*
X0247974Y0135035D01*
X0247299Y0134359D01*
X0246933Y0133477D01*
X0246933Y0132523D01*
X0247299Y0131641D01*
X0247939Y0131000D01*
X0247299Y0130359D01*
X0246933Y0129477D01*
X0246933Y0128523D01*
X0247299Y0127641D01*
X0247974Y0126965D01*
X0248856Y0126600D01*
X0249811Y0126600D01*
X0250693Y0126965D01*
X0250791Y0127064D01*
X0252112Y0127064D01*
X0252112Y0126550D01*
X0252164Y0126498D01*
X0252112Y0126446D01*
X0252112Y0122220D01*
X0252164Y0122168D01*
X0252112Y0122116D01*
X0252112Y0117889D01*
X0252164Y0117837D01*
X0252112Y0117785D01*
X0252112Y0113558D01*
X0252164Y0113506D01*
X0252112Y0113454D01*
X0252112Y0109228D01*
X0252874Y0108466D01*
X0261037Y0108466D01*
X0261799Y0109228D01*
X0261799Y0109741D01*
X0264502Y0109741D01*
X0265070Y0109174D01*
X0265070Y0108559D01*
X0265435Y0107677D01*
X0266110Y0107002D01*
X0266992Y0106636D01*
X0267947Y0106636D01*
X0268829Y0107002D01*
X0268833Y0107006D01*
X0269474Y0106365D01*
X0269715Y0106265D01*
X0269881Y0106100D01*
X0270115Y0106100D01*
X0270356Y0106000D01*
X0271311Y0106000D01*
X0271552Y0106100D01*
X0271786Y0106100D01*
X0271951Y0106265D01*
X0272193Y0106365D01*
X0272868Y0107041D01*
X0272968Y0107282D01*
X0273133Y0107447D01*
X0273133Y0107681D01*
X0273233Y0107923D01*
X0273233Y0108877D01*
X0273133Y0109119D01*
X0273133Y0111233D01*
X0273405Y0111505D01*
X0273405Y0115928D01*
X0273333Y0116000D01*
X0273405Y0116072D01*
X0273405Y0120495D01*
X0272643Y0121257D01*
X0268023Y0121257D01*
X0267492Y0120725D01*
X0267311Y0120800D01*
X0266356Y0120800D01*
X0265474Y0120435D01*
X0264799Y0119759D01*
X0264733Y0119602D01*
X0264733Y0120377D01*
X0264368Y0121259D01*
X0263693Y0121935D01*
X0262811Y0122300D01*
X0261856Y0122300D01*
X0261799Y0122276D01*
X0261799Y0122733D01*
X0273738Y0122733D01*
X0274333Y0122137D01*
X0274333Y0096991D01*
X0274311Y0097000D01*
X0273356Y0097000D01*
X0272474Y0096635D01*
X0272039Y0096200D01*
X0262427Y0096200D01*
X0262056Y0096571D01*
X0261174Y0096936D01*
X0260220Y0096936D01*
X0259337Y0096571D01*
X0258662Y0095896D01*
X0258297Y0095014D01*
X0258297Y0094059D01*
X0258487Y0093600D01*
X0255681Y0093600D01*
X0255533Y0093453D01*
X0254133Y0094853D01*
X0252786Y0096200D01*
X0209286Y0096200D01*
X0207354Y0098131D01*
X0212691Y0098131D01*
X0213225Y0098665D01*
X0213314Y0098510D01*
X0213593Y0098231D01*
X0213935Y0098034D01*
X0214317Y0097931D01*
X0216196Y0097931D01*
X0216196Y0100916D01*
X0217164Y0100916D01*
X0217164Y0101884D01*
X0220345Y0101884D01*
X0220345Y0103566D01*
X0220243Y0103947D01*
X0220045Y0104290D01*
X0219766Y0104569D01*
X0219424Y0104766D01*
X0219043Y0104868D01*
X0217164Y0104868D01*
X0217164Y0101884D01*
X0216196Y0101884D01*
X0216196Y0104868D01*
X0214317Y0104868D01*
X0213935Y0104766D01*
X0213593Y0104569D01*
X0213314Y0104290D01*
X0213225Y0104135D01*
X0212691Y0104668D01*
X0207283Y0104668D01*
X0206522Y0103907D01*
X0206522Y0103700D01*
X0205633Y0103700D01*
X0205633Y0108356D01*
X0205970Y0108266D01*
X0209424Y0108266D01*
X0209424Y0111053D01*
X0209999Y0111053D01*
X0209999Y0108266D01*
X0213452Y0108266D01*
X0213834Y0108368D01*
X0214176Y0108566D01*
X0214455Y0108845D01*
X0214652Y0109187D01*
X0214755Y0109569D01*
X0214755Y0111054D01*
X0209999Y0111054D01*
X0209999Y0111628D01*
X0214755Y0111628D01*
X0214755Y0113113D01*
X0214652Y0113495D01*
X0214555Y0113664D01*
X0214555Y0117785D01*
X0214502Y0117837D01*
X0214555Y0117889D01*
X0214555Y0122116D01*
X0214502Y0122168D01*
X0214555Y0122220D01*
X0214555Y0126446D01*
X0214502Y0126498D01*
X0214555Y0126550D01*
X0214555Y0130777D01*
X0214502Y0130829D01*
X0214555Y0130881D01*
X0214555Y0135108D01*
X0214502Y0135160D01*
X0214555Y0135212D01*
X0214555Y0139438D01*
X0213793Y0140200D01*
X0205629Y0140200D01*
X0205463Y0140033D01*
X0200933Y0144563D01*
X0200145Y0145351D01*
X0200145Y0146407D01*
X0199384Y0147168D01*
X0193976Y0147168D01*
X0193333Y0146526D01*
X0192691Y0147168D01*
X0187283Y0147168D01*
X0186522Y0146407D01*
X0186522Y0145500D01*
X0184671Y0145500D01*
X0183733Y0144563D01*
X0180670Y0141499D01*
X0180633Y0141587D01*
X0180633Y0141821D01*
X0180468Y0141987D01*
X0180368Y0142228D01*
X0179693Y0142903D01*
X0179451Y0143003D01*
X0179286Y0143168D01*
X0179052Y0143168D01*
X0178811Y0143268D01*
X0177856Y0143268D01*
X0177615Y0143168D01*
X0177422Y0143168D01*
X0177491Y0143427D01*
X0177491Y0144715D01*
X0173424Y0144715D01*
X0173424Y0144896D01*
X0177491Y0144896D01*
X0177491Y0146184D01*
X0177389Y0146566D01*
X0177291Y0146734D01*
X0177856Y0146500D01*
X0178811Y0146500D01*
X0179693Y0146865D01*
X0180368Y0147541D01*
X0180733Y0148423D01*
X0180733Y0149377D01*
X0180368Y0150259D01*
X0179933Y0150694D01*
X0179933Y0155563D01*
X0178996Y0156500D01*
X0175280Y0160216D01*
X0175280Y0160216D01*
X0174907Y0160590D01*
X0174983Y0160546D01*
X0175364Y0160443D01*
X0176997Y0160443D01*
X0176997Y0163280D01*
X0176997Y0163953D01*
X0174062Y0163953D01*
X0174062Y0165487D01*
X0174164Y0165869D01*
X0174262Y0166038D01*
X0174262Y0170395D01*
X0175023Y0171157D01*
X0175683Y0171157D01*
X0175299Y0171541D01*
X0174933Y0172423D01*
X0174933Y0173377D01*
X0175299Y0174259D01*
X0175974Y0174935D01*
X0176856Y0175300D01*
X0177811Y0175300D01*
X0178693Y0174935D01*
X0179368Y0174259D01*
X0179733Y0173377D01*
X0179733Y0172423D01*
X0179368Y0171541D01*
X0178984Y0171157D01*
X0179643Y0171157D01*
X0180133Y0170667D01*
X0180623Y0171157D01*
X0181333Y0171157D01*
X0181333Y0171879D01*
X0186244Y0176790D01*
X0186244Y0176794D01*
X0183966Y0176794D01*
X0183797Y0176696D01*
X0183415Y0176594D01*
X0182127Y0176594D01*
X0182127Y0178100D01*
X0181946Y0178100D01*
X0181946Y0176594D01*
X0180658Y0176594D01*
X0180276Y0176696D01*
X0179934Y0176893D01*
X0179655Y0177173D01*
X0179458Y0177515D01*
X0179355Y0177896D01*
X0179355Y0178100D01*
X0174129Y0178100D01*
X0173133Y0179096D01*
X0173133Y0203200D01*
X0166843Y0203200D01*
X0167903Y0202814D01*
X0167903Y0202814D01*
X0170334Y0200774D01*
X0170334Y0200774D01*
X0171921Y0198026D01*
X0171921Y0198026D01*
X0172472Y0194900D01*
X0172472Y0194900D01*
X0171921Y0191774D01*
X0171921Y0191774D01*
X0170334Y0189026D01*
X0170334Y0189026D01*
X0170334Y0189026D01*
X0167903Y0186986D01*
X0167903Y0186986D01*
X0164920Y0185900D01*
X0161746Y0185900D01*
X0158764Y0186986D01*
X0158764Y0186986D01*
X0156333Y0189026D01*
X0156333Y0189026D01*
X0155033Y0191276D01*
X0155033Y0153586D01*
X0163340Y0153586D01*
X0164102Y0152824D01*
X0164102Y0147023D01*
X0163340Y0146261D01*
X0155033Y0146261D01*
X0155033Y0131539D01*
X0163340Y0131539D01*
X0164102Y0130777D01*
X0164102Y0124976D01*
X0163340Y0124214D01*
X0155033Y0124214D01*
X0155033Y0123927D02*
X0183912Y0123927D01*
X0183139Y0124926D02*
X0164052Y0124926D01*
X0164102Y0125924D02*
X0182933Y0125924D01*
X0183159Y0126923D02*
X0164102Y0126923D01*
X0164102Y0127921D02*
X0183960Y0127921D01*
X0183921Y0129918D02*
X0164102Y0129918D01*
X0164102Y0128920D02*
X0186995Y0128920D01*
X0183143Y0130917D02*
X0176933Y0130917D01*
X0181611Y0131915D02*
X0182933Y0131915D01*
X0183155Y0132914D02*
X0182610Y0132914D01*
X0183608Y0133912D02*
X0183951Y0133912D01*
X0184607Y0134911D02*
X0187004Y0134911D01*
X0186522Y0135909D02*
X0185605Y0135909D01*
X0181071Y0141900D02*
X0180554Y0141900D01*
X0179697Y0142899D02*
X0182069Y0142899D01*
X0183068Y0143897D02*
X0177491Y0143897D01*
X0177491Y0145894D02*
X0186522Y0145894D01*
X0187007Y0146893D02*
X0179720Y0146893D01*
X0180513Y0147891D02*
X0204868Y0147891D01*
X0204868Y0147023D02*
X0205629Y0146261D01*
X0213793Y0146261D01*
X0214555Y0147023D01*
X0214555Y0151249D01*
X0214502Y0151302D01*
X0214555Y0151354D01*
X0214555Y0155580D01*
X0214502Y0155632D01*
X0214555Y0155684D01*
X0214555Y0159911D01*
X0214502Y0159963D01*
X0214555Y0160015D01*
X0214555Y0164136D01*
X0214652Y0164305D01*
X0214755Y0164687D01*
X0214755Y0166172D01*
X0209999Y0166172D01*
X0209999Y0166746D01*
X0214755Y0166746D01*
X0214755Y0168231D01*
X0214652Y0168613D01*
X0214455Y0168955D01*
X0214176Y0169234D01*
X0213834Y0169432D01*
X0213452Y0169534D01*
X0209999Y0169534D01*
X0209999Y0166747D01*
X0209424Y0166747D01*
X0209424Y0169534D01*
X0205970Y0169534D01*
X0205589Y0169432D01*
X0205247Y0169234D01*
X0204968Y0168955D01*
X0204770Y0168613D01*
X0204668Y0168231D01*
X0204668Y0166746D01*
X0209424Y0166746D01*
X0209424Y0166172D01*
X0204668Y0166172D01*
X0204668Y0164687D01*
X0204770Y0164305D01*
X0204868Y0164136D01*
X0204868Y0160015D01*
X0204920Y0159963D01*
X0204868Y0159911D01*
X0204868Y0155684D01*
X0204920Y0155632D01*
X0204868Y0155580D01*
X0204868Y0151354D01*
X0204920Y0151302D01*
X0204868Y0151249D01*
X0204868Y0147023D01*
X0204998Y0146893D02*
X0199659Y0146893D01*
X0200145Y0145894D02*
X0244752Y0145894D01*
X0245751Y0144896D02*
X0200600Y0144896D01*
X0201599Y0143897D02*
X0246749Y0143897D01*
X0243754Y0146893D02*
X0214424Y0146893D01*
X0214555Y0147891D02*
X0242755Y0147891D01*
X0241756Y0148890D02*
X0214555Y0148890D01*
X0214555Y0149888D02*
X0240758Y0149888D01*
X0239759Y0150887D02*
X0214555Y0150887D01*
X0214555Y0151885D02*
X0238761Y0151885D01*
X0237762Y0152884D02*
X0214555Y0152884D01*
X0214555Y0153882D02*
X0237033Y0153882D01*
X0237033Y0154881D02*
X0214555Y0154881D01*
X0214555Y0155879D02*
X0237033Y0155879D01*
X0237033Y0156878D02*
X0214555Y0156878D01*
X0214555Y0157876D02*
X0237033Y0157876D01*
X0237033Y0158875D02*
X0214555Y0158875D01*
X0214555Y0159873D02*
X0237033Y0159873D01*
X0237033Y0160872D02*
X0214555Y0160872D01*
X0214555Y0161870D02*
X0237033Y0161870D01*
X0237033Y0162869D02*
X0214555Y0162869D01*
X0214555Y0163868D02*
X0237033Y0163868D01*
X0237033Y0164866D02*
X0214755Y0164866D01*
X0214755Y0165865D02*
X0237033Y0165865D01*
X0237033Y0166863D02*
X0214755Y0166863D01*
X0214755Y0167862D02*
X0237033Y0167862D01*
X0237033Y0168860D02*
X0214510Y0168860D01*
X0209999Y0168860D02*
X0209424Y0168860D01*
X0209424Y0167862D02*
X0209999Y0167862D01*
X0209999Y0166863D02*
X0209424Y0166863D01*
X0204668Y0166863D02*
X0203329Y0166863D01*
X0203329Y0165865D02*
X0204668Y0165865D01*
X0204668Y0164866D02*
X0203329Y0164866D01*
X0203329Y0163868D02*
X0204868Y0163868D01*
X0204868Y0162869D02*
X0203329Y0162869D01*
X0202867Y0161870D02*
X0204868Y0161870D01*
X0204868Y0160872D02*
X0201868Y0160872D01*
X0202392Y0161396D02*
X0202392Y0161396D01*
X0201402Y0159873D02*
X0204868Y0159873D01*
X0204868Y0158875D02*
X0201402Y0158875D01*
X0201402Y0157876D02*
X0204868Y0157876D01*
X0204868Y0156878D02*
X0201402Y0156878D01*
X0201402Y0155879D02*
X0204868Y0155879D01*
X0204868Y0154881D02*
X0200733Y0154881D01*
X0200145Y0153882D02*
X0204868Y0153882D01*
X0204868Y0152884D02*
X0200748Y0152884D01*
X0200833Y0151885D02*
X0204868Y0151885D01*
X0204868Y0150887D02*
X0200487Y0150887D01*
X0199124Y0149888D02*
X0204868Y0149888D01*
X0204868Y0148890D02*
X0180733Y0148890D01*
X0180522Y0149888D02*
X0197743Y0149888D01*
X0196380Y0150887D02*
X0195214Y0150887D01*
X0195835Y0151885D02*
X0196033Y0151885D01*
X0196119Y0152884D02*
X0195933Y0152884D01*
X0195600Y0153882D02*
X0196722Y0153882D01*
X0195534Y0154881D02*
X0194298Y0154881D01*
X0194202Y0155879D02*
X0194865Y0155879D01*
X0194865Y0156878D02*
X0194202Y0156878D01*
X0194202Y0157876D02*
X0194865Y0157876D01*
X0194865Y0158875D02*
X0194202Y0158875D01*
X0194202Y0159873D02*
X0194865Y0159873D01*
X0194399Y0160872D02*
X0194087Y0160872D01*
X0194233Y0161037D02*
X0194233Y0161037D01*
X0187837Y0161870D02*
X0186205Y0161870D01*
X0186205Y0161746D02*
X0186205Y0163280D01*
X0183270Y0163280D01*
X0183270Y0160443D01*
X0184902Y0160443D01*
X0185284Y0160546D01*
X0185626Y0160743D01*
X0185905Y0161022D01*
X0186103Y0161364D01*
X0186205Y0161746D01*
X0185755Y0160872D02*
X0187779Y0160872D01*
X0187665Y0159873D02*
X0175623Y0159873D01*
X0176621Y0158875D02*
X0187665Y0158875D01*
X0187665Y0157876D02*
X0177620Y0157876D01*
X0178618Y0156878D02*
X0187665Y0156878D01*
X0187665Y0155879D02*
X0179617Y0155879D01*
X0179933Y0154881D02*
X0188134Y0154881D01*
X0189988Y0153882D02*
X0179933Y0153882D01*
X0179933Y0152884D02*
X0190987Y0152884D01*
X0191232Y0151885D02*
X0179933Y0151885D01*
X0179933Y0150887D02*
X0191852Y0150887D01*
X0192966Y0146893D02*
X0193700Y0146893D01*
X0202597Y0142899D02*
X0261365Y0142899D01*
X0261365Y0141900D02*
X0203596Y0141900D01*
X0204594Y0140902D02*
X0264349Y0140902D01*
X0261365Y0139903D02*
X0261334Y0139903D01*
X0252577Y0139903D02*
X0214090Y0139903D01*
X0214555Y0138905D02*
X0252112Y0138905D01*
X0252112Y0137906D02*
X0214555Y0137906D01*
X0214555Y0136908D02*
X0252112Y0136908D01*
X0252112Y0135909D02*
X0214555Y0135909D01*
X0214555Y0134911D02*
X0247850Y0134911D01*
X0247113Y0133912D02*
X0214555Y0133912D01*
X0214555Y0132914D02*
X0246933Y0132914D01*
X0247185Y0131915D02*
X0214555Y0131915D01*
X0214555Y0130917D02*
X0247856Y0130917D01*
X0247116Y0129918D02*
X0214555Y0129918D01*
X0214555Y0128920D02*
X0246933Y0128920D01*
X0247182Y0127921D02*
X0214555Y0127921D01*
X0214555Y0126923D02*
X0248077Y0126923D01*
X0250590Y0126923D02*
X0252112Y0126923D01*
X0252112Y0125924D02*
X0214555Y0125924D01*
X0214555Y0124926D02*
X0252112Y0124926D01*
X0252112Y0123927D02*
X0214555Y0123927D01*
X0214555Y0122929D02*
X0252112Y0122929D01*
X0252112Y0121930D02*
X0214555Y0121930D01*
X0214555Y0120932D02*
X0252112Y0120932D01*
X0252112Y0119933D02*
X0214555Y0119933D01*
X0214555Y0118934D02*
X0252112Y0118934D01*
X0252112Y0117936D02*
X0214555Y0117936D01*
X0214555Y0116937D02*
X0252112Y0116937D01*
X0252112Y0115939D02*
X0214555Y0115939D01*
X0214555Y0114940D02*
X0252112Y0114940D01*
X0252112Y0113942D02*
X0214555Y0113942D01*
X0214755Y0112943D02*
X0252112Y0112943D01*
X0252112Y0111945D02*
X0214755Y0111945D01*
X0214755Y0110946D02*
X0252112Y0110946D01*
X0252112Y0109948D02*
X0214755Y0109948D01*
X0214515Y0108949D02*
X0252390Y0108949D01*
X0261520Y0108949D02*
X0265070Y0108949D01*
X0265322Y0107951D02*
X0205633Y0107951D01*
X0205633Y0106952D02*
X0266230Y0106952D01*
X0268710Y0106952D02*
X0268887Y0106952D01*
X0272780Y0106952D02*
X0274333Y0106952D01*
X0274333Y0105954D02*
X0205633Y0105954D01*
X0205633Y0104955D02*
X0274333Y0104955D01*
X0274333Y0103957D02*
X0220238Y0103957D01*
X0220345Y0102958D02*
X0274333Y0102958D01*
X0274333Y0101960D02*
X0220345Y0101960D01*
X0220345Y0100916D02*
X0217164Y0100916D01*
X0217164Y0097931D01*
X0219043Y0097931D01*
X0219424Y0098034D01*
X0219766Y0098231D01*
X0220045Y0098510D01*
X0220243Y0098853D01*
X0220345Y0099234D01*
X0220345Y0100916D01*
X0220345Y0099963D02*
X0274333Y0099963D01*
X0274333Y0100961D02*
X0217164Y0100961D01*
X0217164Y0099963D02*
X0216196Y0099963D01*
X0216196Y0098964D02*
X0217164Y0098964D01*
X0217164Y0097966D02*
X0216196Y0097966D01*
X0214189Y0097966D02*
X0207520Y0097966D01*
X0208519Y0096967D02*
X0273277Y0096967D01*
X0274333Y0097966D02*
X0219170Y0097966D01*
X0220273Y0098964D02*
X0274333Y0098964D01*
X0281133Y0098964D02*
X0295580Y0098964D01*
X0295607Y0098862D02*
X0295883Y0098386D01*
X0296272Y0097996D01*
X0296748Y0097721D01*
X0297280Y0097579D01*
X0298449Y0097579D01*
X0298449Y0100563D01*
X0295465Y0100563D01*
X0295465Y0099394D01*
X0295607Y0098862D01*
X0295465Y0099963D02*
X0281133Y0099963D01*
X0281133Y0100961D02*
X0298449Y0100961D01*
X0298449Y0100563D02*
X0298449Y0101531D01*
X0295465Y0101531D01*
X0295465Y0102700D01*
X0295607Y0103232D01*
X0295883Y0103709D01*
X0296272Y0104098D01*
X0296748Y0104373D01*
X0297280Y0104516D01*
X0298449Y0104516D01*
X0298449Y0101532D01*
X0299418Y0101532D01*
X0299418Y0104516D01*
X0300587Y0104516D01*
X0301118Y0104373D01*
X0301595Y0104098D01*
X0301984Y0103709D01*
X0302259Y0103232D01*
X0302402Y0102700D01*
X0302402Y0101531D01*
X0299418Y0101531D01*
X0299418Y0100563D01*
X0302402Y0100563D01*
X0302402Y0099394D01*
X0302259Y0098862D01*
X0301984Y0098386D01*
X0301595Y0097996D01*
X0301118Y0097721D01*
X0300587Y0097579D01*
X0299418Y0097579D01*
X0299418Y0100563D01*
X0298449Y0100563D01*
X0298449Y0099963D02*
X0299418Y0099963D01*
X0299418Y0100961D02*
X0307949Y0100961D01*
X0307949Y0100563D02*
X0304965Y0100563D01*
X0304965Y0099394D01*
X0305107Y0098862D01*
X0305383Y0098386D01*
X0305772Y0097996D01*
X0306248Y0097721D01*
X0306780Y0097579D01*
X0307949Y0097579D01*
X0307949Y0100563D01*
X0307949Y0101531D01*
X0304965Y0101531D01*
X0304965Y0102700D01*
X0305107Y0103232D01*
X0305383Y0103709D01*
X0305772Y0104098D01*
X0306248Y0104373D01*
X0306780Y0104516D01*
X0307949Y0104516D01*
X0307949Y0101532D01*
X0308918Y0101532D01*
X0308918Y0104516D01*
X0310087Y0104516D01*
X0310618Y0104373D01*
X0311095Y0104098D01*
X0311484Y0103709D01*
X0311633Y0103450D01*
X0311633Y0105723D01*
X0310594Y0104684D01*
X0306272Y0104684D01*
X0305165Y0105792D01*
X0305165Y0106906D01*
X0304781Y0107290D01*
X0302339Y0109731D01*
X0302202Y0109731D01*
X0302202Y0105792D01*
X0301094Y0104684D01*
X0296772Y0104684D01*
X0295665Y0105792D01*
X0295665Y0110114D01*
X0296522Y0110970D01*
X0296522Y0115507D01*
X0297283Y0116268D01*
X0301733Y0116268D01*
X0301733Y0116631D01*
X0297283Y0116631D01*
X0297021Y0116894D01*
X0296311Y0116600D01*
X0295356Y0116600D01*
X0294474Y0116965D01*
X0293799Y0117641D01*
X0293433Y0118523D01*
X0293433Y0119477D01*
X0293799Y0120359D01*
X0294474Y0121035D01*
X0295356Y0121400D01*
X0295971Y0121400D01*
X0296071Y0121500D01*
X0296522Y0121500D01*
X0296522Y0122407D01*
X0297283Y0123168D01*
X0302691Y0123168D01*
X0303065Y0122794D01*
X0303065Y0128277D01*
X0303826Y0129039D01*
X0311633Y0129039D01*
X0311633Y0143761D01*
X0303826Y0143761D01*
X0303065Y0144523D01*
X0303065Y0150324D01*
X0303826Y0151086D01*
X0311633Y0151086D01*
X0311633Y0152626D01*
X0308621Y0152626D01*
X0308621Y0155413D01*
X0308046Y0155413D01*
X0308046Y0152626D01*
X0304986Y0152626D01*
X0304605Y0152728D01*
X0304435Y0152826D01*
X0295984Y0152826D01*
X0295222Y0153588D01*
X0295222Y0170412D01*
X0295984Y0171174D01*
X0302814Y0171174D01*
X0302814Y0171350D01*
X0293233Y0171350D01*
X0292725Y0171310D01*
X0291758Y0170996D01*
X0290935Y0170398D01*
X0290337Y0169576D01*
X0290337Y0169576D01*
X0290023Y0168608D01*
X0289983Y0168100D01*
X0289983Y0166595D01*
X0289053Y0163732D01*
X0289053Y0163732D01*
X0287283Y0161297D01*
X0287283Y0161296D01*
X0287283Y0161296D01*
X0284848Y0159527D01*
X0284848Y0159527D01*
X0281985Y0158597D01*
X0268762Y0158597D01*
X0269102Y0158257D01*
X0269102Y0156084D01*
X0272317Y0152868D01*
X0275384Y0152868D01*
X0275733Y0152519D01*
X0276083Y0152868D01*
X0281491Y0152868D01*
X0282025Y0152335D01*
X0282114Y0152490D01*
X0282393Y0152769D01*
X0282735Y0152966D01*
X0283117Y0153068D01*
X0284996Y0153068D01*
X0284996Y0150084D01*
X0285964Y0150084D01*
X0289145Y0150084D01*
X0289145Y0151766D01*
X0289043Y0152147D01*
X0288845Y0152490D01*
X0288566Y0152769D01*
X0288224Y0152966D01*
X0287843Y0153068D01*
X0285964Y0153068D01*
X0285964Y0150084D01*
X0285964Y0149116D01*
X0289145Y0149116D01*
X0289145Y0147434D01*
X0289043Y0147053D01*
X0288845Y0146710D01*
X0288566Y0146431D01*
X0288224Y0146234D01*
X0287843Y0146131D01*
X0285964Y0146131D01*
X0285964Y0149116D01*
X0284996Y0149116D01*
X0284996Y0146131D01*
X0283117Y0146131D01*
X0282735Y0146234D01*
X0282393Y0146431D01*
X0282114Y0146710D01*
X0282025Y0146865D01*
X0281491Y0146331D01*
X0280689Y0146331D01*
X0282352Y0144668D01*
X0282352Y0143523D01*
X0282637Y0143523D01*
X0283326Y0144212D01*
X0288340Y0144212D01*
X0289102Y0143450D01*
X0289102Y0138043D01*
X0288568Y0137509D01*
X0288723Y0137419D01*
X0289002Y0137140D01*
X0289200Y0136798D01*
X0289302Y0136416D01*
X0289302Y0134538D01*
X0286318Y0134538D01*
X0286318Y0133569D01*
X0289302Y0133569D01*
X0289302Y0131691D01*
X0289200Y0131309D01*
X0289002Y0130967D01*
X0288723Y0130688D01*
X0288381Y0130490D01*
X0287999Y0130388D01*
X0286318Y0130388D01*
X0286318Y0133569D01*
X0285349Y0133569D01*
X0285349Y0130388D01*
X0283667Y0130388D01*
X0283286Y0130490D01*
X0282944Y0130688D01*
X0282665Y0130967D01*
X0282486Y0131277D01*
X0277551Y0131277D01*
X0277068Y0131760D01*
X0276286Y0131760D01*
X0273877Y0134169D01*
X0273877Y0132039D01*
X0273162Y0131324D01*
X0275633Y0128853D01*
X0275633Y0127519D01*
X0275733Y0127277D01*
X0275733Y0126323D01*
X0275633Y0126081D01*
X0275633Y0125847D01*
X0275468Y0125682D01*
X0275423Y0125573D01*
X0275735Y0125261D01*
X0279236Y0128763D01*
X0280174Y0129700D01*
X0289676Y0129700D01*
X0289676Y0130404D01*
X0293743Y0130404D01*
X0293743Y0130585D01*
X0289676Y0130585D01*
X0289676Y0131873D01*
X0289778Y0132255D01*
X0289976Y0132597D01*
X0289983Y0132604D01*
X0289876Y0132712D01*
X0289876Y0136151D01*
X0290125Y0136400D01*
X0289876Y0136649D01*
X0289876Y0140088D01*
X0290125Y0140337D01*
X0289876Y0140586D01*
X0289876Y0144025D01*
X0290637Y0144787D01*
X0297029Y0144787D01*
X0297187Y0144629D01*
X0297856Y0144905D01*
X0298811Y0144905D01*
X0299693Y0144540D01*
X0300368Y0143865D01*
X0300669Y0143138D01*
X0304535Y0139272D01*
X0304535Y0130839D01*
X0303598Y0129902D01*
X0303598Y0129902D01*
X0298996Y0125300D01*
X0281996Y0125300D01*
X0279933Y0123237D01*
X0279933Y0122900D01*
X0280611Y0122900D01*
X0281493Y0122535D01*
X0281927Y0122100D01*
X0282933Y0122100D01*
X0282933Y0122477D01*
X0283299Y0123359D01*
X0283974Y0124035D01*
X0284856Y0124400D01*
X0285811Y0124400D01*
X0286693Y0124035D01*
X0287368Y0123359D01*
X0287733Y0122477D01*
X0287733Y0121523D01*
X0287368Y0120641D01*
X0286693Y0119965D01*
X0285811Y0119600D01*
X0285196Y0119600D01*
X0284496Y0118900D01*
X0281927Y0118900D01*
X0281493Y0118465D01*
X0280611Y0118100D01*
X0279933Y0118100D01*
X0279933Y0117200D01*
X0280611Y0117200D01*
X0281493Y0116835D01*
X0282168Y0116159D01*
X0282533Y0115277D01*
X0282533Y0114323D01*
X0282168Y0113441D01*
X0281493Y0112765D01*
X0281133Y0112616D01*
X0281133Y0096408D01*
X0281621Y0096206D01*
X0282297Y0095531D01*
X0282662Y0094649D01*
X0282662Y0093694D01*
X0282297Y0092812D01*
X0281621Y0092137D01*
X0280739Y0091771D01*
X0279933Y0091771D01*
X0279933Y0084749D01*
X0281166Y0084239D01*
X0282572Y0082832D01*
X0283333Y0080995D01*
X0283333Y0079005D01*
X0282572Y0077168D01*
X0282104Y0076700D01*
X0299823Y0076700D01*
X0298764Y0077086D01*
X0298764Y0077086D01*
X0296333Y0079126D01*
X0296333Y0079126D01*
X0294746Y0081874D01*
X0294746Y0081874D01*
X0294194Y0085000D01*
X0294194Y0085000D01*
X0294746Y0088126D01*
X0294746Y0088126D01*
X0296333Y0090874D01*
X0296333Y0090874D01*
X0298764Y0092914D01*
X0298764Y0092914D01*
X0301746Y0094000D01*
X0304920Y0094000D01*
X0307903Y0092914D01*
X0307903Y0092914D01*
X0310334Y0090874D01*
X0310334Y0090874D01*
X0311633Y0088624D01*
X0311633Y0098644D01*
X0311484Y0098386D01*
X0311095Y0097996D01*
X0310618Y0097721D01*
X0310087Y0097579D01*
X0308918Y0097579D01*
X0308918Y0100563D01*
X0307949Y0100563D01*
X0307949Y0099963D02*
X0308918Y0099963D01*
X0308918Y0098964D02*
X0307949Y0098964D01*
X0307949Y0097966D02*
X0308918Y0097966D01*
X0311042Y0097966D02*
X0311633Y0097966D01*
X0311633Y0096967D02*
X0281133Y0096967D01*
X0281133Y0097966D02*
X0296325Y0097966D01*
X0298449Y0097966D02*
X0299418Y0097966D01*
X0299418Y0098964D02*
X0298449Y0098964D01*
X0298449Y0101960D02*
X0299418Y0101960D01*
X0299418Y0102958D02*
X0298449Y0102958D01*
X0298449Y0103957D02*
X0299418Y0103957D01*
X0301365Y0104955D02*
X0306001Y0104955D01*
X0305631Y0103957D02*
X0301736Y0103957D01*
X0302333Y0102958D02*
X0305034Y0102958D01*
X0304965Y0101960D02*
X0302402Y0101960D01*
X0302402Y0099963D02*
X0304965Y0099963D01*
X0305080Y0098964D02*
X0302287Y0098964D01*
X0301542Y0097966D02*
X0305825Y0097966D01*
X0307949Y0101960D02*
X0308918Y0101960D01*
X0308918Y0102958D02*
X0307949Y0102958D01*
X0307949Y0103957D02*
X0308918Y0103957D01*
X0310865Y0104955D02*
X0311633Y0104955D01*
X0311633Y0103957D02*
X0311236Y0103957D01*
X0305165Y0105954D02*
X0302202Y0105954D01*
X0302202Y0106952D02*
X0305118Y0106952D01*
X0304120Y0107951D02*
X0302202Y0107951D01*
X0302202Y0108949D02*
X0303121Y0108949D01*
X0296497Y0110946D02*
X0281133Y0110946D01*
X0281133Y0109948D02*
X0295665Y0109948D01*
X0295665Y0108949D02*
X0281133Y0108949D01*
X0281133Y0107951D02*
X0295665Y0107951D01*
X0295665Y0106952D02*
X0281133Y0106952D01*
X0281133Y0105954D02*
X0295665Y0105954D01*
X0296501Y0104955D02*
X0281133Y0104955D01*
X0281133Y0103957D02*
X0296131Y0103957D01*
X0295534Y0102958D02*
X0281133Y0102958D01*
X0281133Y0101960D02*
X0295465Y0101960D01*
X0298925Y0092973D02*
X0282363Y0092973D01*
X0282662Y0093972D02*
X0301669Y0093972D01*
X0304998Y0093972D02*
X0311633Y0093972D01*
X0311633Y0094970D02*
X0282529Y0094970D01*
X0281859Y0095969D02*
X0311633Y0095969D01*
X0311633Y0092973D02*
X0307741Y0092973D01*
X0309023Y0091975D02*
X0311633Y0091975D01*
X0311633Y0090976D02*
X0310213Y0090976D01*
X0310852Y0089978D02*
X0311633Y0089978D01*
X0311633Y0088979D02*
X0311428Y0088979D01*
X0297644Y0091975D02*
X0281230Y0091975D01*
X0279933Y0090976D02*
X0296454Y0090976D01*
X0296333Y0090874D02*
X0296333Y0090874D01*
X0295815Y0089978D02*
X0279933Y0089978D01*
X0279933Y0088979D02*
X0295238Y0088979D01*
X0294720Y0087981D02*
X0279933Y0087981D01*
X0279933Y0086982D02*
X0294544Y0086982D01*
X0294368Y0085984D02*
X0279933Y0085984D01*
X0279933Y0084985D02*
X0294197Y0084985D01*
X0294373Y0083987D02*
X0281418Y0083987D01*
X0282416Y0082988D02*
X0294549Y0082988D01*
X0294725Y0081990D02*
X0282921Y0081990D01*
X0283333Y0080991D02*
X0295256Y0080991D01*
X0295832Y0079993D02*
X0283333Y0079993D01*
X0283329Y0078994D02*
X0296489Y0078994D01*
X0297679Y0077996D02*
X0282915Y0077996D01*
X0282401Y0076997D02*
X0299007Y0076997D01*
X0258333Y0093972D02*
X0255014Y0093972D01*
X0254133Y0094853D02*
X0254133Y0094853D01*
X0254016Y0094970D02*
X0258297Y0094970D01*
X0258735Y0095969D02*
X0253017Y0095969D01*
X0251504Y0090976D02*
X0198463Y0090976D01*
X0198463Y0091975D02*
X0207006Y0091975D01*
X0206007Y0092973D02*
X0198463Y0092973D01*
X0198463Y0093972D02*
X0205009Y0093972D01*
X0204010Y0094970D02*
X0198463Y0094970D01*
X0198463Y0095969D02*
X0203012Y0095969D01*
X0202013Y0096967D02*
X0198463Y0096967D01*
X0198463Y0097966D02*
X0201033Y0097966D01*
X0201033Y0098964D02*
X0198427Y0098964D01*
X0205633Y0103957D02*
X0206571Y0103957D01*
X0209424Y0108949D02*
X0209999Y0108949D01*
X0209999Y0109948D02*
X0209424Y0109948D01*
X0209424Y0110946D02*
X0209999Y0110946D01*
X0216196Y0103957D02*
X0217164Y0103957D01*
X0217164Y0102958D02*
X0216196Y0102958D01*
X0216196Y0101960D02*
X0217164Y0101960D01*
X0198463Y0088979D02*
X0253501Y0088979D01*
X0252503Y0089978D02*
X0194117Y0089978D01*
X0194117Y0088979D02*
X0193117Y0088979D01*
X0193117Y0087981D02*
X0194117Y0087981D01*
X0194117Y0086982D02*
X0193117Y0086982D01*
X0193117Y0085984D02*
X0194117Y0085984D01*
X0194117Y0084985D02*
X0193117Y0084985D01*
X0193117Y0083987D02*
X0194117Y0083987D01*
X0194117Y0082988D02*
X0193117Y0082988D01*
X0193117Y0081990D02*
X0194117Y0081990D01*
X0194117Y0080991D02*
X0193117Y0080991D01*
X0189252Y0080991D02*
X0171411Y0080991D01*
X0171941Y0081990D02*
X0188770Y0081990D01*
X0188770Y0082988D02*
X0172117Y0082988D01*
X0172293Y0083987D02*
X0188770Y0083987D01*
X0188770Y0084985D02*
X0172470Y0084985D01*
X0172299Y0085984D02*
X0188770Y0085984D01*
X0188770Y0086982D02*
X0172123Y0086982D01*
X0171947Y0087981D02*
X0174926Y0087981D01*
X0174384Y0088979D02*
X0171428Y0088979D01*
X0170852Y0089978D02*
X0174384Y0089978D01*
X0174384Y0090976D02*
X0170213Y0090976D01*
X0169023Y0091975D02*
X0174384Y0091975D01*
X0174384Y0092973D02*
X0167741Y0092973D01*
X0164998Y0093972D02*
X0174384Y0093972D01*
X0174384Y0094970D02*
X0155033Y0094970D01*
X0155033Y0093972D02*
X0161669Y0093972D01*
X0158925Y0092973D02*
X0155033Y0092973D01*
X0155033Y0091975D02*
X0157644Y0091975D01*
X0156454Y0090976D02*
X0155033Y0090976D01*
X0155033Y0089978D02*
X0155815Y0089978D01*
X0156333Y0090874D02*
X0156333Y0090874D01*
X0155238Y0088979D02*
X0155033Y0088979D01*
X0155033Y0095969D02*
X0174384Y0095969D01*
X0174384Y0096967D02*
X0155033Y0096967D01*
X0155033Y0097966D02*
X0174384Y0097966D01*
X0174384Y0098964D02*
X0155033Y0098964D01*
X0155033Y0099963D02*
X0176433Y0099963D01*
X0176433Y0100961D02*
X0155033Y0100961D01*
X0155033Y0101960D02*
X0176433Y0101960D01*
X0176433Y0102958D02*
X0155033Y0102958D01*
X0155033Y0103957D02*
X0176433Y0103957D01*
X0176433Y0104955D02*
X0155033Y0104955D01*
X0155033Y0105954D02*
X0176433Y0105954D01*
X0176433Y0106952D02*
X0155033Y0106952D01*
X0155033Y0107951D02*
X0176433Y0107951D01*
X0176433Y0108949D02*
X0155033Y0108949D01*
X0155033Y0109948D02*
X0176433Y0109948D01*
X0176433Y0110946D02*
X0155033Y0110946D01*
X0155033Y0111945D02*
X0176433Y0111945D01*
X0176433Y0112943D02*
X0155033Y0112943D01*
X0155033Y0113942D02*
X0177188Y0113942D01*
X0178187Y0114940D02*
X0155033Y0114940D01*
X0155033Y0115939D02*
X0179185Y0115939D01*
X0180184Y0116937D02*
X0155033Y0116937D01*
X0155033Y0117936D02*
X0181182Y0117936D01*
X0182181Y0118934D02*
X0155033Y0118934D01*
X0155033Y0119933D02*
X0183179Y0119933D01*
X0184178Y0120932D02*
X0155033Y0120932D01*
X0155033Y0121930D02*
X0186522Y0121930D01*
X0186986Y0122929D02*
X0155033Y0122929D01*
X0155033Y0131915D02*
X0167055Y0131915D01*
X0166057Y0132914D02*
X0155033Y0132914D01*
X0155033Y0133912D02*
X0165058Y0133912D01*
X0164733Y0134911D02*
X0155033Y0134911D01*
X0155033Y0135909D02*
X0164733Y0135909D01*
X0164733Y0136908D02*
X0155033Y0136908D01*
X0155033Y0137906D02*
X0164733Y0137906D01*
X0164733Y0138905D02*
X0155033Y0138905D01*
X0155033Y0139903D02*
X0164733Y0139903D01*
X0164733Y0140902D02*
X0155033Y0140902D01*
X0155033Y0141900D02*
X0164733Y0141900D01*
X0164733Y0142899D02*
X0155033Y0142899D01*
X0155033Y0143897D02*
X0164733Y0143897D01*
X0164733Y0144896D02*
X0155033Y0144896D01*
X0155033Y0145894D02*
X0164733Y0145894D01*
X0164733Y0146893D02*
X0163972Y0146893D01*
X0164102Y0147891D02*
X0164733Y0147891D01*
X0164733Y0148890D02*
X0164102Y0148890D01*
X0164102Y0149888D02*
X0164733Y0149888D01*
X0164733Y0150887D02*
X0164102Y0150887D01*
X0164102Y0151885D02*
X0164733Y0151885D01*
X0164733Y0152884D02*
X0164042Y0152884D01*
X0164733Y0153882D02*
X0155033Y0153882D01*
X0155033Y0154881D02*
X0164733Y0154881D01*
X0164733Y0155879D02*
X0155033Y0155879D01*
X0155033Y0156878D02*
X0160265Y0156878D01*
X0160265Y0157876D02*
X0155033Y0157876D01*
X0155033Y0158875D02*
X0160265Y0158875D01*
X0160265Y0159873D02*
X0155033Y0159873D01*
X0155033Y0160872D02*
X0160265Y0160872D01*
X0160265Y0161870D02*
X0155033Y0161870D01*
X0155033Y0162869D02*
X0160876Y0162869D01*
X0160265Y0163868D02*
X0155033Y0163868D01*
X0155033Y0164866D02*
X0160265Y0164866D01*
X0160265Y0165865D02*
X0155033Y0165865D01*
X0155033Y0166863D02*
X0160265Y0166863D01*
X0160265Y0167862D02*
X0155033Y0167862D01*
X0155033Y0168860D02*
X0160265Y0168860D01*
X0161208Y0169859D02*
X0155033Y0169859D01*
X0155033Y0170857D02*
X0160933Y0170857D01*
X0161090Y0171856D02*
X0155033Y0171856D01*
X0155033Y0172854D02*
X0161793Y0172854D01*
X0164873Y0172854D02*
X0167793Y0172854D01*
X0167090Y0171856D02*
X0165577Y0171856D01*
X0165733Y0170857D02*
X0166933Y0170857D01*
X0167208Y0169859D02*
X0165458Y0169859D01*
X0171458Y0169859D02*
X0174262Y0169859D01*
X0174262Y0168860D02*
X0172702Y0168860D01*
X0172702Y0167862D02*
X0174262Y0167862D01*
X0174262Y0166863D02*
X0172702Y0166863D01*
X0172702Y0165865D02*
X0174163Y0165865D01*
X0174062Y0164866D02*
X0172702Y0164866D01*
X0172702Y0163868D02*
X0176997Y0163868D01*
X0177670Y0163868D02*
X0182597Y0163868D01*
X0182597Y0163280D02*
X0177670Y0163280D01*
X0177670Y0160443D01*
X0179302Y0160443D01*
X0179684Y0160546D01*
X0180026Y0160743D01*
X0180133Y0160850D01*
X0180241Y0160743D01*
X0180583Y0160546D01*
X0180964Y0160443D01*
X0182597Y0160443D01*
X0182597Y0163280D01*
X0182597Y0162869D02*
X0183270Y0162869D01*
X0183270Y0161870D02*
X0182597Y0161870D01*
X0182597Y0160872D02*
X0183270Y0160872D01*
X0186205Y0162869D02*
X0187665Y0162869D01*
X0187665Y0163868D02*
X0183270Y0163868D01*
X0186205Y0164866D02*
X0187665Y0164866D01*
X0187665Y0165865D02*
X0186104Y0165865D01*
X0186005Y0166863D02*
X0187665Y0166863D01*
X0188076Y0167862D02*
X0186005Y0167862D01*
X0186005Y0168860D02*
X0189973Y0168860D01*
X0189973Y0169859D02*
X0186005Y0169859D01*
X0185543Y0170857D02*
X0189973Y0170857D01*
X0189973Y0171856D02*
X0185835Y0171856D01*
X0186834Y0172854D02*
X0189973Y0172854D01*
X0189233Y0173853D02*
X0187832Y0173853D01*
X0188831Y0174851D02*
X0189233Y0174851D01*
X0192433Y0175295D02*
X0192433Y0176537D01*
X0193475Y0175495D01*
X0193044Y0175495D01*
X0192662Y0175393D01*
X0192493Y0175295D01*
X0192433Y0175295D01*
X0192433Y0175850D02*
X0193121Y0175850D01*
X0193733Y0175237D02*
X0193733Y0172893D01*
X0193733Y0172893D01*
X0193733Y0175237D01*
X0193733Y0175237D01*
X0193733Y0174851D02*
X0193733Y0174851D01*
X0193733Y0173853D02*
X0193733Y0173853D01*
X0185304Y0175850D02*
X0155033Y0175850D01*
X0155033Y0176848D02*
X0180013Y0176848D01*
X0179369Y0177847D02*
X0155033Y0177847D01*
X0155033Y0178845D02*
X0173384Y0178845D01*
X0173133Y0179844D02*
X0155033Y0179844D01*
X0155033Y0180842D02*
X0173133Y0180842D01*
X0173133Y0181841D02*
X0155033Y0181841D01*
X0155033Y0182839D02*
X0173133Y0182839D01*
X0173133Y0183838D02*
X0155033Y0183838D01*
X0155033Y0184836D02*
X0173133Y0184836D01*
X0173133Y0185835D02*
X0155033Y0185835D01*
X0155033Y0186833D02*
X0159182Y0186833D01*
X0157755Y0187832D02*
X0155033Y0187832D01*
X0155033Y0188830D02*
X0156565Y0188830D01*
X0155869Y0189829D02*
X0155033Y0189829D01*
X0155033Y0190827D02*
X0155292Y0190827D01*
X0167484Y0186833D02*
X0173133Y0186833D01*
X0173133Y0187832D02*
X0168911Y0187832D01*
X0170101Y0188830D02*
X0173133Y0188830D01*
X0173133Y0189829D02*
X0170798Y0189829D01*
X0171374Y0190827D02*
X0173133Y0190827D01*
X0173133Y0191826D02*
X0171930Y0191826D01*
X0172106Y0192824D02*
X0173133Y0192824D01*
X0173133Y0193823D02*
X0172282Y0193823D01*
X0172458Y0194821D02*
X0173133Y0194821D01*
X0173133Y0195820D02*
X0172310Y0195820D01*
X0172134Y0196818D02*
X0173133Y0196818D01*
X0173133Y0197817D02*
X0171958Y0197817D01*
X0171465Y0198815D02*
X0173133Y0198815D01*
X0173133Y0199814D02*
X0170889Y0199814D01*
X0170289Y0200812D02*
X0173133Y0200812D01*
X0173133Y0201811D02*
X0169099Y0201811D01*
X0167909Y0202809D02*
X0173133Y0202809D01*
X0181946Y0177847D02*
X0182127Y0177847D01*
X0182127Y0176848D02*
X0181946Y0176848D01*
X0184305Y0174851D02*
X0178776Y0174851D01*
X0179536Y0173853D02*
X0183307Y0173853D01*
X0182308Y0172854D02*
X0179733Y0172854D01*
X0179498Y0171856D02*
X0181333Y0171856D01*
X0180324Y0170857D02*
X0179943Y0170857D01*
X0175168Y0171856D02*
X0171577Y0171856D01*
X0171733Y0170857D02*
X0174724Y0170857D01*
X0174933Y0172854D02*
X0170873Y0172854D01*
X0175130Y0173853D02*
X0155033Y0173853D01*
X0155033Y0174851D02*
X0175890Y0174851D01*
X0176997Y0162869D02*
X0177670Y0162869D01*
X0177670Y0161870D02*
X0176997Y0161870D01*
X0176997Y0160872D02*
X0177670Y0160872D01*
X0174062Y0161870D02*
X0172702Y0161870D01*
X0172090Y0162869D02*
X0174062Y0162869D01*
X0173424Y0144896D02*
X0184066Y0144896D01*
X0169734Y0130917D02*
X0163962Y0130917D01*
X0197164Y0120384D02*
X0200345Y0120384D01*
X0200345Y0122066D01*
X0200243Y0122447D01*
X0200045Y0122790D01*
X0199794Y0123041D01*
X0200145Y0123393D01*
X0200145Y0123825D01*
X0200300Y0123670D01*
X0201238Y0122733D01*
X0204868Y0122733D01*
X0204868Y0122220D01*
X0204920Y0122168D01*
X0204868Y0122116D01*
X0204868Y0121902D01*
X0204649Y0121902D01*
X0203536Y0120789D01*
X0200296Y0117549D01*
X0200345Y0117734D01*
X0200345Y0119416D01*
X0197164Y0119416D01*
X0197164Y0120384D01*
X0197164Y0119933D02*
X0202679Y0119933D01*
X0201681Y0118934D02*
X0200345Y0118934D01*
X0200345Y0117936D02*
X0200682Y0117936D01*
X0200345Y0120932D02*
X0203678Y0120932D01*
X0204868Y0121930D02*
X0200345Y0121930D01*
X0199906Y0122929D02*
X0201042Y0122929D01*
X0188807Y0098964D02*
X0186629Y0098964D01*
X0186623Y0097966D02*
X0188770Y0097966D01*
X0188770Y0096967D02*
X0185625Y0096967D01*
X0184626Y0095969D02*
X0188770Y0095969D01*
X0188770Y0094970D02*
X0183628Y0094970D01*
X0182629Y0093972D02*
X0188770Y0093972D01*
X0188770Y0092973D02*
X0181631Y0092973D01*
X0180632Y0091975D02*
X0188770Y0091975D01*
X0188770Y0090976D02*
X0179634Y0090976D01*
X0178635Y0089978D02*
X0193117Y0089978D01*
X0188770Y0088979D02*
X0177637Y0088979D01*
X0176638Y0087981D02*
X0188770Y0087981D01*
X0198463Y0087981D02*
X0254500Y0087981D01*
X0255499Y0086982D02*
X0198463Y0086982D01*
X0198463Y0085984D02*
X0256033Y0085984D01*
X0256033Y0084985D02*
X0249818Y0084985D01*
X0248833Y0084985D02*
X0247833Y0084985D01*
X0246848Y0084985D02*
X0239364Y0084985D01*
X0237303Y0084985D02*
X0229364Y0084985D01*
X0227303Y0084985D02*
X0219364Y0084985D01*
X0217303Y0084985D02*
X0209364Y0084985D01*
X0207303Y0084985D02*
X0198463Y0084985D01*
X0198463Y0083987D02*
X0205249Y0083987D01*
X0204250Y0082988D02*
X0198463Y0082988D01*
X0198463Y0081990D02*
X0203745Y0081990D01*
X0203333Y0080991D02*
X0197981Y0080991D01*
X0203333Y0079993D02*
X0170835Y0079993D01*
X0170177Y0078994D02*
X0203338Y0078994D01*
X0203752Y0077996D02*
X0168987Y0077996D01*
X0167660Y0076997D02*
X0204265Y0076997D01*
X0212401Y0076997D02*
X0214265Y0076997D01*
X0213752Y0077996D02*
X0212915Y0077996D01*
X0213329Y0078994D02*
X0213338Y0078994D01*
X0213333Y0079993D02*
X0213333Y0079993D01*
X0213333Y0080991D02*
X0213333Y0080991D01*
X0212921Y0081990D02*
X0213745Y0081990D01*
X0214250Y0082988D02*
X0212416Y0082988D01*
X0211418Y0083987D02*
X0215249Y0083987D01*
X0221418Y0083987D02*
X0225249Y0083987D01*
X0224250Y0082988D02*
X0222416Y0082988D01*
X0222921Y0081990D02*
X0223745Y0081990D01*
X0223333Y0080991D02*
X0223333Y0080991D01*
X0223333Y0079993D02*
X0223333Y0079993D01*
X0223329Y0078994D02*
X0223338Y0078994D01*
X0223752Y0077996D02*
X0222915Y0077996D01*
X0222401Y0076997D02*
X0224265Y0076997D01*
X0232401Y0076997D02*
X0234265Y0076997D01*
X0233752Y0077996D02*
X0232915Y0077996D01*
X0233329Y0078994D02*
X0233338Y0078994D01*
X0233333Y0079993D02*
X0233333Y0079993D01*
X0233333Y0080991D02*
X0233333Y0080991D01*
X0232921Y0081990D02*
X0233745Y0081990D01*
X0234250Y0082988D02*
X0232416Y0082988D01*
X0231418Y0083987D02*
X0235249Y0083987D01*
X0241418Y0083987D02*
X0244974Y0083987D01*
X0244077Y0082988D02*
X0242416Y0082988D01*
X0242921Y0081990D02*
X0243512Y0081990D01*
X0247833Y0081990D02*
X0248833Y0081990D01*
X0248833Y0082988D02*
X0247833Y0082988D01*
X0247833Y0083987D02*
X0248833Y0083987D01*
X0251693Y0083987D02*
X0255249Y0083987D01*
X0254250Y0082988D02*
X0252590Y0082988D01*
X0253154Y0081990D02*
X0253745Y0081990D01*
X0248833Y0080991D02*
X0247833Y0080991D01*
X0273233Y0107951D02*
X0274333Y0107951D01*
X0274333Y0108949D02*
X0273203Y0108949D01*
X0273133Y0109948D02*
X0274333Y0109948D01*
X0274333Y0110946D02*
X0273133Y0110946D01*
X0273405Y0111945D02*
X0274333Y0111945D01*
X0274333Y0112943D02*
X0273405Y0112943D01*
X0273405Y0113942D02*
X0274333Y0113942D01*
X0274333Y0114940D02*
X0273405Y0114940D01*
X0273394Y0115939D02*
X0274333Y0115939D01*
X0274333Y0116937D02*
X0273405Y0116937D01*
X0273405Y0117936D02*
X0274333Y0117936D01*
X0274333Y0118934D02*
X0273405Y0118934D01*
X0273405Y0119933D02*
X0274333Y0119933D01*
X0274333Y0120932D02*
X0272969Y0120932D01*
X0274333Y0121930D02*
X0263697Y0121930D01*
X0264504Y0120932D02*
X0267698Y0120932D01*
X0264972Y0119933D02*
X0264733Y0119933D01*
X0270217Y0118400D02*
X0270333Y0118283D01*
X0275633Y0125924D02*
X0276398Y0125924D01*
X0275733Y0126923D02*
X0277396Y0126923D01*
X0278395Y0127921D02*
X0275633Y0127921D01*
X0275566Y0128920D02*
X0279393Y0128920D01*
X0282715Y0130917D02*
X0273569Y0130917D01*
X0273753Y0131915D02*
X0276131Y0131915D01*
X0275133Y0132914D02*
X0273877Y0132914D01*
X0273877Y0133912D02*
X0274134Y0133912D01*
X0274568Y0129918D02*
X0289676Y0129918D01*
X0289676Y0130917D02*
X0288952Y0130917D01*
X0289302Y0131915D02*
X0289687Y0131915D01*
X0289876Y0132914D02*
X0289302Y0132914D01*
X0289876Y0133912D02*
X0286318Y0133912D01*
X0286318Y0132914D02*
X0285349Y0132914D01*
X0285349Y0131915D02*
X0286318Y0131915D01*
X0286318Y0130917D02*
X0285349Y0130917D01*
X0289302Y0134911D02*
X0289876Y0134911D01*
X0289876Y0135909D02*
X0289302Y0135909D01*
X0289136Y0136908D02*
X0289876Y0136908D01*
X0289876Y0137906D02*
X0288965Y0137906D01*
X0289102Y0138905D02*
X0289876Y0138905D01*
X0289876Y0139903D02*
X0289102Y0139903D01*
X0289102Y0140902D02*
X0289876Y0140902D01*
X0289876Y0141900D02*
X0289102Y0141900D01*
X0289102Y0142899D02*
X0289876Y0142899D01*
X0289876Y0143897D02*
X0288655Y0143897D01*
X0288951Y0146893D02*
X0303065Y0146893D01*
X0303065Y0147891D02*
X0289145Y0147891D01*
X0289145Y0148890D02*
X0303065Y0148890D01*
X0303065Y0149888D02*
X0285964Y0149888D01*
X0285964Y0148890D02*
X0284996Y0148890D01*
X0284996Y0147891D02*
X0285964Y0147891D01*
X0285964Y0146893D02*
X0284996Y0146893D01*
X0282125Y0144896D02*
X0297833Y0144896D01*
X0298834Y0144896D02*
X0303065Y0144896D01*
X0303065Y0145894D02*
X0281126Y0145894D01*
X0282352Y0143897D02*
X0283012Y0143897D01*
X0285680Y0140900D02*
X0285833Y0140746D01*
X0282982Y0137441D02*
X0282944Y0137419D01*
X0282883Y0137359D01*
X0280493Y0137359D01*
X0280493Y0137441D01*
X0282982Y0137441D01*
X0293924Y0130585D02*
X0293924Y0130404D01*
X0297877Y0130404D01*
X0300135Y0132661D01*
X0300135Y0134949D01*
X0299286Y0134100D01*
X0297725Y0132539D01*
X0297889Y0132255D01*
X0297991Y0131873D01*
X0297991Y0130585D01*
X0293924Y0130585D01*
X0297991Y0130917D02*
X0298390Y0130917D01*
X0297980Y0131915D02*
X0299389Y0131915D01*
X0300135Y0132914D02*
X0298100Y0132914D01*
X0299098Y0133912D02*
X0300135Y0133912D01*
X0300097Y0134911D02*
X0300135Y0134911D01*
X0304535Y0134911D02*
X0311633Y0134911D01*
X0311633Y0135909D02*
X0304535Y0135909D01*
X0304535Y0136908D02*
X0311633Y0136908D01*
X0311633Y0137906D02*
X0304535Y0137906D01*
X0304535Y0138905D02*
X0311633Y0138905D01*
X0311633Y0139903D02*
X0303904Y0139903D01*
X0302905Y0140902D02*
X0311633Y0140902D01*
X0311633Y0141900D02*
X0301907Y0141900D01*
X0300908Y0142899D02*
X0311633Y0142899D01*
X0303690Y0143897D02*
X0300336Y0143897D01*
X0303627Y0150887D02*
X0289145Y0150887D01*
X0289113Y0151885D02*
X0311633Y0151885D01*
X0308621Y0152884D02*
X0308046Y0152884D01*
X0308046Y0153882D02*
X0308621Y0153882D01*
X0308621Y0154881D02*
X0308046Y0154881D01*
X0295926Y0152884D02*
X0288367Y0152884D01*
X0285964Y0152884D02*
X0284996Y0152884D01*
X0284996Y0151885D02*
X0285964Y0151885D01*
X0285964Y0150887D02*
X0284996Y0150887D01*
X0282593Y0152884D02*
X0272302Y0152884D01*
X0271304Y0153882D02*
X0295222Y0153882D01*
X0295222Y0154881D02*
X0270305Y0154881D01*
X0269307Y0155879D02*
X0295222Y0155879D01*
X0295222Y0156878D02*
X0269102Y0156878D01*
X0269102Y0157876D02*
X0295222Y0157876D01*
X0295222Y0158875D02*
X0282841Y0158875D01*
X0285325Y0159873D02*
X0295222Y0159873D01*
X0295222Y0160872D02*
X0286699Y0160872D01*
X0287700Y0161870D02*
X0295222Y0161870D01*
X0295222Y0162869D02*
X0288426Y0162869D01*
X0289097Y0163868D02*
X0295222Y0163868D01*
X0295222Y0164866D02*
X0289421Y0164866D01*
X0289746Y0165865D02*
X0295222Y0165865D01*
X0295222Y0166863D02*
X0289983Y0166863D01*
X0289983Y0167862D02*
X0295222Y0167862D01*
X0295222Y0168860D02*
X0290105Y0168860D01*
X0290543Y0169859D02*
X0295222Y0169859D01*
X0295667Y0170857D02*
X0291566Y0170857D01*
X0285098Y0174851D02*
X0253279Y0174851D01*
X0253433Y0174477D02*
X0253068Y0175359D01*
X0252633Y0175794D01*
X0252633Y0182500D01*
X0252811Y0182500D01*
X0253693Y0182865D01*
X0254227Y0183400D01*
X0261639Y0183400D01*
X0262074Y0182965D01*
X0262956Y0182600D01*
X0263911Y0182600D01*
X0264793Y0182965D01*
X0265468Y0183641D01*
X0265833Y0184523D01*
X0265833Y0185477D01*
X0265468Y0186359D01*
X0264793Y0187035D01*
X0263911Y0187400D01*
X0262956Y0187400D01*
X0262074Y0187035D01*
X0261639Y0186600D01*
X0254027Y0186600D01*
X0253693Y0186935D01*
X0252811Y0187300D01*
X0251856Y0187300D01*
X0250974Y0186935D01*
X0250299Y0186259D01*
X0249933Y0185377D01*
X0249933Y0184763D01*
X0249433Y0184263D01*
X0249433Y0181400D01*
X0248656Y0181400D01*
X0247774Y0181035D01*
X0247099Y0180359D01*
X0246733Y0179477D01*
X0246733Y0175794D01*
X0246299Y0175359D01*
X0245933Y0174477D01*
X0245933Y0173523D01*
X0246299Y0172641D01*
X0246974Y0171965D01*
X0247856Y0171600D01*
X0248811Y0171600D01*
X0249683Y0171961D01*
X0250556Y0171600D01*
X0251511Y0171600D01*
X0252393Y0171965D01*
X0253068Y0172641D01*
X0253433Y0173523D01*
X0253433Y0174477D01*
X0253433Y0173853D02*
X0284373Y0173853D01*
X0283716Y0172949D02*
X0282684Y0169771D01*
X0282684Y0168100D01*
X0282657Y0167755D01*
X0282444Y0167099D01*
X0282038Y0166542D01*
X0281480Y0166136D01*
X0280825Y0165923D01*
X0280480Y0165896D01*
X0268695Y0165896D01*
X0268498Y0166093D01*
X0263168Y0166093D01*
X0262972Y0165896D01*
X0261999Y0165896D01*
X0261999Y0166172D01*
X0257243Y0166172D01*
X0257243Y0166746D01*
X0261999Y0166746D01*
X0261999Y0168231D01*
X0261896Y0168613D01*
X0261699Y0168955D01*
X0261420Y0169234D01*
X0261078Y0169432D01*
X0260696Y0169534D01*
X0257243Y0169534D01*
X0257243Y0166747D01*
X0256668Y0166747D01*
X0256668Y0169534D01*
X0253215Y0169534D01*
X0252833Y0169432D01*
X0252491Y0169234D01*
X0252212Y0168955D01*
X0252014Y0168613D01*
X0251912Y0168231D01*
X0251912Y0166746D01*
X0256668Y0166746D01*
X0256668Y0166172D01*
X0251912Y0166172D01*
X0251912Y0164687D01*
X0251935Y0164603D01*
X0251731Y0164399D01*
X0251731Y0159857D01*
X0251935Y0159654D01*
X0251912Y0159570D01*
X0251912Y0158085D01*
X0256668Y0158085D01*
X0256668Y0157510D01*
X0251912Y0157510D01*
X0251912Y0156025D01*
X0252014Y0155644D01*
X0252112Y0155475D01*
X0252112Y0151354D01*
X0252164Y0151302D01*
X0252112Y0151249D01*
X0252112Y0147400D01*
X0248620Y0147400D01*
X0240833Y0155187D01*
X0240833Y0195624D01*
X0241166Y0195761D01*
X0242572Y0197168D01*
X0243333Y0199005D01*
X0243333Y0200995D01*
X0242572Y0202832D01*
X0242204Y0203200D01*
X0244462Y0203200D01*
X0244095Y0202832D01*
X0243333Y0200995D01*
X0243333Y0199005D01*
X0244095Y0197168D01*
X0245501Y0195761D01*
X0247339Y0195000D01*
X0249328Y0195000D01*
X0251166Y0195761D01*
X0252572Y0197168D01*
X0253333Y0199005D01*
X0253333Y0200995D01*
X0252572Y0202832D01*
X0252204Y0203200D01*
X0254462Y0203200D01*
X0254095Y0202832D01*
X0253333Y0200995D01*
X0253333Y0199005D01*
X0254095Y0197168D01*
X0255501Y0195761D01*
X0257339Y0195000D01*
X0259328Y0195000D01*
X0261166Y0195761D01*
X0262572Y0197168D01*
X0263333Y0199005D01*
X0263333Y0200995D01*
X0262572Y0202832D01*
X0262204Y0203200D01*
X0264462Y0203200D01*
X0264095Y0202832D01*
X0263333Y0200995D01*
X0263333Y0199005D01*
X0264095Y0197168D01*
X0265501Y0195761D01*
X0267339Y0195000D01*
X0269328Y0195000D01*
X0271166Y0195761D01*
X0272572Y0197168D01*
X0273333Y0199005D01*
X0273333Y0200995D01*
X0272572Y0202832D01*
X0272204Y0203200D01*
X0274462Y0203200D01*
X0274095Y0202832D01*
X0273333Y0200995D01*
X0273333Y0199005D01*
X0274095Y0197168D01*
X0275501Y0195761D01*
X0277339Y0195000D01*
X0279328Y0195000D01*
X0281166Y0195761D01*
X0282572Y0197168D01*
X0283333Y0199005D01*
X0283333Y0200995D01*
X0282572Y0202832D01*
X0282204Y0203200D01*
X0284462Y0203200D01*
X0284095Y0202832D01*
X0283333Y0200995D01*
X0283333Y0199005D01*
X0284095Y0197168D01*
X0285501Y0195761D01*
X0287339Y0195000D01*
X0289328Y0195000D01*
X0291166Y0195761D01*
X0292572Y0197168D01*
X0293333Y0199005D01*
X0293333Y0200995D01*
X0292572Y0202832D01*
X0292204Y0203200D01*
X0299823Y0203200D01*
X0298764Y0202814D01*
X0296333Y0200774D01*
X0296333Y0200774D01*
X0294746Y0198026D01*
X0294746Y0198026D01*
X0294194Y0194900D01*
X0294746Y0191774D01*
X0296333Y0189026D01*
X0296333Y0189026D01*
X0298764Y0186986D01*
X0301746Y0185900D01*
X0304920Y0185900D01*
X0307903Y0186986D01*
X0310334Y0189026D01*
X0311633Y0191276D01*
X0311633Y0171374D01*
X0310343Y0171374D01*
X0310343Y0168439D01*
X0310064Y0168439D01*
X0310064Y0171025D01*
X0310113Y0171144D01*
X0310113Y0173219D01*
X0309081Y0175710D01*
X0307174Y0177617D01*
X0304682Y0178650D01*
X0291562Y0178650D01*
X0288384Y0177617D01*
X0285681Y0175653D01*
X0285681Y0175653D01*
X0285681Y0175653D01*
X0283716Y0172949D01*
X0283686Y0172854D02*
X0253156Y0172854D01*
X0252128Y0171856D02*
X0283361Y0171856D01*
X0283037Y0170857D02*
X0240833Y0170857D01*
X0240833Y0169859D02*
X0282712Y0169859D01*
X0282684Y0168860D02*
X0261754Y0168860D01*
X0261999Y0167862D02*
X0282665Y0167862D01*
X0282272Y0166863D02*
X0261999Y0166863D01*
X0257243Y0166863D02*
X0256668Y0166863D01*
X0256668Y0167862D02*
X0257243Y0167862D01*
X0257243Y0168860D02*
X0256668Y0168860D01*
X0252157Y0168860D02*
X0240833Y0168860D01*
X0240833Y0167862D02*
X0251912Y0167862D01*
X0251912Y0166863D02*
X0240833Y0166863D01*
X0240833Y0165865D02*
X0251912Y0165865D01*
X0251912Y0164866D02*
X0240833Y0164866D01*
X0240833Y0163868D02*
X0251731Y0163868D01*
X0251731Y0162869D02*
X0240833Y0162869D01*
X0240833Y0161870D02*
X0251731Y0161870D01*
X0251731Y0160872D02*
X0240833Y0160872D01*
X0240833Y0159873D02*
X0251731Y0159873D01*
X0251912Y0158875D02*
X0240833Y0158875D01*
X0240833Y0157876D02*
X0256668Y0157876D01*
X0257243Y0157876D02*
X0262565Y0157876D01*
X0262565Y0158257D02*
X0262565Y0154638D01*
X0261799Y0155404D01*
X0261799Y0155475D01*
X0261896Y0155644D01*
X0261999Y0156025D01*
X0261999Y0157510D01*
X0257243Y0157510D01*
X0257243Y0158085D01*
X0261999Y0158085D01*
X0261999Y0158479D01*
X0262786Y0158479D01*
X0262565Y0158257D01*
X0262565Y0156878D02*
X0261999Y0156878D01*
X0261960Y0155879D02*
X0262565Y0155879D01*
X0262565Y0154881D02*
X0262322Y0154881D01*
X0252112Y0154881D02*
X0241139Y0154881D01*
X0240833Y0155879D02*
X0251951Y0155879D01*
X0251912Y0156878D02*
X0240833Y0156878D01*
X0242138Y0153882D02*
X0252112Y0153882D01*
X0252112Y0152884D02*
X0243136Y0152884D01*
X0244135Y0151885D02*
X0252112Y0151885D01*
X0252112Y0150887D02*
X0245133Y0150887D01*
X0246132Y0149888D02*
X0252112Y0149888D01*
X0252112Y0148890D02*
X0247130Y0148890D01*
X0248129Y0147891D02*
X0252112Y0147891D01*
X0252112Y0134911D02*
X0250817Y0134911D01*
X0279933Y0122929D02*
X0283120Y0122929D01*
X0283866Y0123927D02*
X0280623Y0123927D01*
X0281622Y0124926D02*
X0303065Y0124926D01*
X0303065Y0125924D02*
X0299620Y0125924D01*
X0300619Y0126923D02*
X0303065Y0126923D01*
X0303065Y0127921D02*
X0301617Y0127921D01*
X0302616Y0128920D02*
X0303707Y0128920D01*
X0303614Y0129918D02*
X0311633Y0129918D01*
X0311633Y0130917D02*
X0304535Y0130917D01*
X0304535Y0131915D02*
X0311633Y0131915D01*
X0311633Y0132914D02*
X0304535Y0132914D01*
X0304535Y0133912D02*
X0311633Y0133912D01*
X0303065Y0123927D02*
X0286800Y0123927D01*
X0287546Y0122929D02*
X0297043Y0122929D01*
X0296522Y0121930D02*
X0287733Y0121930D01*
X0287488Y0120932D02*
X0294371Y0120932D01*
X0293622Y0119933D02*
X0286615Y0119933D01*
X0284531Y0118934D02*
X0293433Y0118934D01*
X0293676Y0117936D02*
X0279933Y0117936D01*
X0281244Y0116937D02*
X0294541Y0116937D01*
X0296954Y0115939D02*
X0282259Y0115939D01*
X0282533Y0114940D02*
X0296522Y0114940D01*
X0296522Y0113942D02*
X0282376Y0113942D01*
X0281671Y0112943D02*
X0296522Y0112943D01*
X0296522Y0111945D02*
X0281133Y0111945D01*
X0302931Y0122929D02*
X0303065Y0122929D01*
X0310064Y0168860D02*
X0310343Y0168860D01*
X0310343Y0169859D02*
X0310064Y0169859D01*
X0310064Y0170857D02*
X0310343Y0170857D01*
X0310113Y0171856D02*
X0311633Y0171856D01*
X0311633Y0172854D02*
X0310113Y0172854D01*
X0309850Y0173853D02*
X0311633Y0173853D01*
X0311633Y0174851D02*
X0309437Y0174851D01*
X0309081Y0175710D02*
X0309081Y0175710D01*
X0308941Y0175850D02*
X0311633Y0175850D01*
X0311633Y0176848D02*
X0307943Y0176848D01*
X0307174Y0177617D02*
X0307174Y0177617D01*
X0306620Y0177847D02*
X0311633Y0177847D01*
X0311633Y0178845D02*
X0252633Y0178845D01*
X0252633Y0177847D02*
X0289091Y0177847D01*
X0288384Y0177617D02*
X0288384Y0177617D01*
X0287326Y0176848D02*
X0252633Y0176848D01*
X0252633Y0175850D02*
X0285952Y0175850D01*
X0297755Y0187832D02*
X0240833Y0187832D01*
X0240833Y0188830D02*
X0296565Y0188830D01*
X0295869Y0189829D02*
X0240833Y0189829D01*
X0240833Y0190827D02*
X0295292Y0190827D01*
X0294746Y0191774D02*
X0294746Y0191774D01*
X0294737Y0191826D02*
X0240833Y0191826D01*
X0240833Y0192824D02*
X0294560Y0192824D01*
X0294384Y0193823D02*
X0240833Y0193823D01*
X0240833Y0194821D02*
X0294208Y0194821D01*
X0294194Y0194900D02*
X0294194Y0194900D01*
X0294357Y0195820D02*
X0291224Y0195820D01*
X0292223Y0196818D02*
X0294533Y0196818D01*
X0294709Y0197817D02*
X0292841Y0197817D01*
X0293255Y0198815D02*
X0295202Y0198815D01*
X0295778Y0199814D02*
X0293333Y0199814D01*
X0293333Y0200812D02*
X0296378Y0200812D01*
X0296333Y0200774D02*
X0296333Y0200774D01*
X0297568Y0201811D02*
X0292995Y0201811D01*
X0292582Y0202809D02*
X0298758Y0202809D01*
X0298764Y0202814D02*
X0298764Y0202814D01*
X0284085Y0202809D02*
X0282582Y0202809D01*
X0282995Y0201811D02*
X0283671Y0201811D01*
X0283333Y0200812D02*
X0283333Y0200812D01*
X0283333Y0199814D02*
X0283333Y0199814D01*
X0283255Y0198815D02*
X0283412Y0198815D01*
X0283826Y0197817D02*
X0282841Y0197817D01*
X0282223Y0196818D02*
X0284444Y0196818D01*
X0285442Y0195820D02*
X0281224Y0195820D01*
X0275442Y0195820D02*
X0271224Y0195820D01*
X0272223Y0196818D02*
X0274444Y0196818D01*
X0273826Y0197817D02*
X0272841Y0197817D01*
X0273255Y0198815D02*
X0273412Y0198815D01*
X0273333Y0199814D02*
X0273333Y0199814D01*
X0273333Y0200812D02*
X0273333Y0200812D01*
X0272995Y0201811D02*
X0273671Y0201811D01*
X0274085Y0202809D02*
X0272582Y0202809D01*
X0264085Y0202809D02*
X0262582Y0202809D01*
X0262995Y0201811D02*
X0263671Y0201811D01*
X0263333Y0200812D02*
X0263333Y0200812D01*
X0263333Y0199814D02*
X0263333Y0199814D01*
X0263255Y0198815D02*
X0263412Y0198815D01*
X0263826Y0197817D02*
X0262841Y0197817D01*
X0262223Y0196818D02*
X0264444Y0196818D01*
X0265442Y0195820D02*
X0261224Y0195820D01*
X0255442Y0195820D02*
X0251224Y0195820D01*
X0252223Y0196818D02*
X0254444Y0196818D01*
X0253826Y0197817D02*
X0252841Y0197817D01*
X0253255Y0198815D02*
X0253412Y0198815D01*
X0253333Y0199814D02*
X0253333Y0199814D01*
X0253333Y0200812D02*
X0253333Y0200812D01*
X0252995Y0201811D02*
X0253671Y0201811D01*
X0254085Y0202809D02*
X0252582Y0202809D01*
X0244085Y0202809D02*
X0242582Y0202809D01*
X0242995Y0201811D02*
X0243671Y0201811D01*
X0243333Y0200812D02*
X0243333Y0200812D01*
X0243333Y0199814D02*
X0243333Y0199814D01*
X0243255Y0198815D02*
X0243412Y0198815D01*
X0243826Y0197817D02*
X0242841Y0197817D01*
X0242223Y0196818D02*
X0244444Y0196818D01*
X0245442Y0195820D02*
X0241224Y0195820D01*
X0238933Y0199300D02*
X0238933Y0199400D01*
X0238333Y0200000D01*
X0233826Y0197817D02*
X0233057Y0197817D01*
X0233152Y0198004D02*
X0233405Y0198782D01*
X0233411Y0198818D01*
X0234095Y0197168D01*
X0235501Y0195761D01*
X0237033Y0195127D01*
X0237033Y0177900D01*
X0223546Y0177900D01*
X0222433Y0176787D01*
X0221646Y0176000D01*
X0206279Y0176000D01*
X0206279Y0176594D01*
X0207340Y0176594D01*
X0207340Y0178100D01*
X0207521Y0178100D01*
X0207521Y0176594D01*
X0208809Y0176594D01*
X0209190Y0176696D01*
X0209532Y0176893D01*
X0209812Y0177173D01*
X0210009Y0177515D01*
X0210111Y0177896D01*
X0210111Y0178100D01*
X0215037Y0178100D01*
X0216033Y0179096D01*
X0216033Y0203200D01*
X0224231Y0203200D01*
X0223886Y0202725D01*
X0223514Y0201996D01*
X0223261Y0201218D01*
X0223148Y0200500D01*
X0227833Y0200500D01*
X0227833Y0199500D01*
X0223148Y0199500D01*
X0223261Y0198782D01*
X0223514Y0198004D01*
X0223886Y0197275D01*
X0224367Y0196612D01*
X0224946Y0196034D01*
X0225608Y0195553D01*
X0226337Y0195181D01*
X0227116Y0194928D01*
X0227833Y0194814D01*
X0227833Y0199500D01*
X0228833Y0199500D01*
X0228833Y0194814D01*
X0229551Y0194928D01*
X0230329Y0195181D01*
X0231059Y0195553D01*
X0231721Y0196034D01*
X0232300Y0196612D01*
X0232781Y0197275D01*
X0233152Y0198004D01*
X0233411Y0198815D02*
X0233412Y0198815D01*
X0232449Y0196818D02*
X0234444Y0196818D01*
X0235442Y0195820D02*
X0231427Y0195820D01*
X0228833Y0195820D02*
X0227833Y0195820D01*
X0227833Y0196818D02*
X0228833Y0196818D01*
X0228833Y0197817D02*
X0227833Y0197817D01*
X0227833Y0198815D02*
X0228833Y0198815D01*
X0227833Y0199814D02*
X0216033Y0199814D01*
X0216033Y0200812D02*
X0223197Y0200812D01*
X0223454Y0201811D02*
X0216033Y0201811D01*
X0216033Y0202809D02*
X0223947Y0202809D01*
X0223256Y0198815D02*
X0216033Y0198815D01*
X0216033Y0197817D02*
X0223610Y0197817D01*
X0224217Y0196818D02*
X0222839Y0196818D01*
X0222681Y0196910D02*
X0222299Y0197012D01*
X0220618Y0197012D01*
X0220618Y0193831D01*
X0223602Y0193831D01*
X0223602Y0195709D01*
X0223500Y0196091D01*
X0223302Y0196433D01*
X0223023Y0196712D01*
X0222681Y0196910D01*
X0223572Y0195820D02*
X0225240Y0195820D01*
X0223602Y0194821D02*
X0227789Y0194821D01*
X0227833Y0194821D02*
X0228833Y0194821D01*
X0228877Y0194821D02*
X0237033Y0194821D01*
X0237033Y0193823D02*
X0220618Y0193823D01*
X0220618Y0193831D02*
X0220618Y0192862D01*
X0223602Y0192862D01*
X0223602Y0190984D01*
X0223500Y0190602D01*
X0223302Y0190260D01*
X0223023Y0189981D01*
X0222868Y0189891D01*
X0223402Y0189357D01*
X0223402Y0183950D01*
X0222640Y0183188D01*
X0222433Y0183188D01*
X0222433Y0182694D01*
X0222868Y0182259D01*
X0222968Y0182018D01*
X0223133Y0181853D01*
X0223133Y0181619D01*
X0223233Y0181377D01*
X0223233Y0180423D01*
X0223133Y0180181D01*
X0223133Y0179947D01*
X0222968Y0179782D01*
X0222868Y0179541D01*
X0222193Y0178865D01*
X0221951Y0178765D01*
X0221786Y0178600D01*
X0221552Y0178600D01*
X0221311Y0178500D01*
X0220356Y0178500D01*
X0220115Y0178600D01*
X0219881Y0178600D01*
X0219715Y0178765D01*
X0219474Y0178865D01*
X0218799Y0179541D01*
X0218699Y0179782D01*
X0217833Y0180647D01*
X0217833Y0183188D01*
X0217626Y0183188D01*
X0216865Y0183950D01*
X0216865Y0189357D01*
X0217399Y0189891D01*
X0217244Y0189981D01*
X0216965Y0190260D01*
X0216767Y0190602D01*
X0216665Y0190984D01*
X0216665Y0192862D01*
X0219649Y0192862D01*
X0219649Y0193831D01*
X0219649Y0197012D01*
X0217967Y0197012D01*
X0217586Y0196910D01*
X0217244Y0196712D01*
X0216965Y0196433D01*
X0216767Y0196091D01*
X0216665Y0195709D01*
X0216665Y0193831D01*
X0219649Y0193831D01*
X0220618Y0193831D01*
X0219649Y0193823D02*
X0216033Y0193823D01*
X0216033Y0194821D02*
X0216665Y0194821D01*
X0216694Y0195820D02*
X0216033Y0195820D01*
X0216033Y0196818D02*
X0217428Y0196818D01*
X0219649Y0196818D02*
X0220618Y0196818D01*
X0220618Y0195820D02*
X0219649Y0195820D01*
X0219649Y0194821D02*
X0220618Y0194821D01*
X0223602Y0192824D02*
X0237033Y0192824D01*
X0237033Y0191826D02*
X0223602Y0191826D01*
X0223560Y0190827D02*
X0237033Y0190827D01*
X0237033Y0189829D02*
X0222930Y0189829D01*
X0223402Y0188830D02*
X0237033Y0188830D01*
X0237033Y0187832D02*
X0223402Y0187832D01*
X0223402Y0186833D02*
X0237033Y0186833D01*
X0237033Y0185835D02*
X0223402Y0185835D01*
X0223402Y0184836D02*
X0237033Y0184836D01*
X0237033Y0183838D02*
X0223290Y0183838D01*
X0222433Y0182839D02*
X0237033Y0182839D01*
X0237033Y0181841D02*
X0223133Y0181841D01*
X0223233Y0180842D02*
X0237033Y0180842D01*
X0237033Y0179844D02*
X0223030Y0179844D01*
X0222144Y0178845D02*
X0237033Y0178845D01*
X0240833Y0178845D02*
X0246733Y0178845D01*
X0246733Y0177847D02*
X0240833Y0177847D01*
X0240833Y0176848D02*
X0246733Y0176848D01*
X0246733Y0175850D02*
X0240833Y0175850D01*
X0240833Y0174851D02*
X0246088Y0174851D01*
X0245933Y0173853D02*
X0240833Y0173853D01*
X0240833Y0172854D02*
X0246210Y0172854D01*
X0247239Y0171856D02*
X0240833Y0171856D01*
X0237033Y0171856D02*
X0204043Y0171856D01*
X0203329Y0170857D02*
X0237033Y0170857D01*
X0237033Y0169859D02*
X0203329Y0169859D01*
X0203329Y0168860D02*
X0204913Y0168860D01*
X0204668Y0167862D02*
X0203329Y0167862D01*
X0207340Y0176848D02*
X0207521Y0176848D01*
X0207521Y0177847D02*
X0207340Y0177847D01*
X0209454Y0176848D02*
X0222494Y0176848D01*
X0223493Y0177847D02*
X0210098Y0177847D01*
X0215783Y0178845D02*
X0219523Y0178845D01*
X0218637Y0179844D02*
X0216033Y0179844D01*
X0216033Y0180842D02*
X0217833Y0180842D01*
X0217833Y0181841D02*
X0216033Y0181841D01*
X0216033Y0182839D02*
X0217833Y0182839D01*
X0216977Y0183838D02*
X0216033Y0183838D01*
X0216033Y0184836D02*
X0216865Y0184836D01*
X0216865Y0185835D02*
X0216033Y0185835D01*
X0216033Y0186833D02*
X0216865Y0186833D01*
X0216865Y0187832D02*
X0216033Y0187832D01*
X0216033Y0188830D02*
X0216865Y0188830D01*
X0217336Y0189829D02*
X0216033Y0189829D01*
X0216033Y0190827D02*
X0216707Y0190827D01*
X0216665Y0191826D02*
X0216033Y0191826D01*
X0216033Y0192824D02*
X0216665Y0192824D01*
X0240833Y0186833D02*
X0250872Y0186833D01*
X0250123Y0185835D02*
X0240833Y0185835D01*
X0240833Y0184836D02*
X0249933Y0184836D01*
X0249433Y0183838D02*
X0240833Y0183838D01*
X0240833Y0182839D02*
X0249433Y0182839D01*
X0249433Y0181841D02*
X0240833Y0181841D01*
X0240833Y0180842D02*
X0247581Y0180842D01*
X0246885Y0179844D02*
X0240833Y0179844D01*
X0237033Y0173853D02*
X0224873Y0173853D01*
X0223874Y0172854D02*
X0237033Y0172854D01*
X0249428Y0171856D02*
X0249939Y0171856D01*
X0252633Y0179844D02*
X0311633Y0179844D01*
X0311633Y0180842D02*
X0252633Y0180842D01*
X0252633Y0181841D02*
X0311633Y0181841D01*
X0311633Y0182839D02*
X0264488Y0182839D01*
X0265550Y0183838D02*
X0311633Y0183838D01*
X0311633Y0184836D02*
X0265833Y0184836D01*
X0265685Y0185835D02*
X0311633Y0185835D01*
X0311633Y0186833D02*
X0307484Y0186833D01*
X0307903Y0186986D02*
X0307903Y0186986D01*
X0308911Y0187832D02*
X0311633Y0187832D01*
X0311633Y0188830D02*
X0310101Y0188830D01*
X0310334Y0189026D02*
X0310334Y0189026D01*
X0310334Y0189026D01*
X0310798Y0189829D02*
X0311633Y0189829D01*
X0311633Y0190827D02*
X0311374Y0190827D01*
X0299182Y0186833D02*
X0264994Y0186833D01*
X0261872Y0186833D02*
X0253794Y0186833D01*
X0253630Y0182839D02*
X0262378Y0182839D01*
X0298764Y0186986D02*
X0298764Y0186986D01*
D37*
X0278787Y0149600D02*
X0272680Y0149600D01*
X0278833Y0145500D02*
X0280452Y0143881D01*
X0280452Y0141140D01*
X0276573Y0141140D01*
X0275333Y0139900D01*
X0275333Y0135400D01*
X0277073Y0133660D01*
X0280452Y0133660D01*
X0280452Y0137400D02*
X0282487Y0137400D01*
X0285833Y0134054D01*
X0285680Y0140900D02*
X0285833Y0141054D01*
X0285747Y0141140D01*
X0280452Y0141140D01*
X0278833Y0145500D02*
X0247833Y0145500D01*
X0238933Y0154400D01*
X0238933Y0176000D01*
X0224333Y0176000D01*
X0222433Y0174100D01*
X0205233Y0174100D01*
X0204833Y0174500D01*
X0204379Y0174954D01*
X0204379Y0180094D01*
X0204379Y0182854D01*
X0200633Y0186600D01*
X0188533Y0186600D01*
X0185088Y0183154D01*
X0185088Y0180094D01*
X0238933Y0176000D02*
X0238933Y0199300D01*
X0209711Y0120002D02*
X0205436Y0120002D01*
X0199333Y0113900D01*
X0196680Y0113900D01*
X0190680Y0119900D01*
X0189987Y0119900D02*
X0185833Y0119900D01*
X0178333Y0112400D01*
X0178333Y0095961D01*
X0188806Y0106900D02*
X0188806Y0112719D01*
D38*
X0183611Y0182831D02*
X0183549Y0182894D01*
X0181094Y0182894D01*
X0181094Y0183902D01*
X0178125Y0183902D01*
X0178125Y0184702D01*
X0177325Y0184702D01*
X0177325Y0189823D01*
X0176743Y0189707D01*
X0176130Y0189453D01*
X0175578Y0189084D01*
X0175109Y0188615D01*
X0174833Y0188202D01*
X0174833Y0197843D01*
X0175109Y0197431D01*
X0175578Y0196961D01*
X0176130Y0196593D01*
X0176743Y0196339D01*
X0177325Y0196223D01*
X0177325Y0200359D01*
X0178125Y0200359D01*
X0178125Y0196223D01*
X0178708Y0196339D01*
X0179321Y0196593D01*
X0179873Y0196961D01*
X0180342Y0197431D01*
X0180711Y0197982D01*
X0180964Y0198595D01*
X0181094Y0199246D01*
X0181094Y0200359D01*
X0178125Y0200359D01*
X0178125Y0201159D01*
X0181094Y0201159D01*
X0181094Y0202272D01*
X0180964Y0202923D01*
X0180711Y0203536D01*
X0180601Y0203700D01*
X0208866Y0203700D01*
X0208756Y0203536D01*
X0208502Y0202923D01*
X0208373Y0202272D01*
X0208373Y0201159D01*
X0211341Y0201159D01*
X0211341Y0200359D01*
X0208373Y0200359D01*
X0208373Y0199246D01*
X0208502Y0198595D01*
X0208756Y0197982D01*
X0209125Y0197431D01*
X0209594Y0196961D01*
X0210146Y0196593D01*
X0210759Y0196339D01*
X0211341Y0196223D01*
X0211341Y0200359D01*
X0212141Y0200359D01*
X0212141Y0196223D01*
X0212724Y0196339D01*
X0213337Y0196593D01*
X0213888Y0196961D01*
X0214333Y0197406D01*
X0214333Y0188639D01*
X0213888Y0189084D01*
X0213337Y0189453D01*
X0212724Y0189707D01*
X0212141Y0189823D01*
X0212141Y0184702D01*
X0211341Y0184702D01*
X0211341Y0183902D01*
X0208373Y0183902D01*
X0208373Y0182894D01*
X0205918Y0182894D01*
X0205855Y0182831D01*
X0205793Y0182894D01*
X0205779Y0182894D01*
X0205779Y0183434D01*
X0204959Y0184254D01*
X0202033Y0187180D01*
X0201213Y0188000D01*
X0187953Y0188000D01*
X0187133Y0187180D01*
X0183688Y0183734D01*
X0183688Y0182894D01*
X0183674Y0182894D01*
X0183611Y0182831D01*
X0183688Y0183598D02*
X0181094Y0183598D01*
X0181094Y0184702D02*
X0181094Y0186799D01*
X0180964Y0187450D01*
X0180711Y0188063D01*
X0180342Y0188615D01*
X0179873Y0189084D01*
X0179321Y0189453D01*
X0178708Y0189707D01*
X0178125Y0189823D01*
X0178125Y0184702D01*
X0181094Y0184702D01*
X0181094Y0185195D02*
X0181609Y0185195D01*
X0181276Y0185528D02*
X0182494Y0184309D01*
X0184217Y0184309D01*
X0185435Y0185528D01*
X0185435Y0187250D01*
X0184217Y0188468D01*
X0182494Y0188468D01*
X0181276Y0187250D01*
X0181276Y0185528D01*
X0181276Y0185993D02*
X0181094Y0185993D01*
X0181094Y0186792D02*
X0181276Y0186792D01*
X0181616Y0187590D02*
X0180907Y0187590D01*
X0180493Y0188389D02*
X0182414Y0188389D01*
X0184297Y0188389D02*
X0205170Y0188389D01*
X0205250Y0188468D02*
X0204032Y0187250D01*
X0204032Y0185528D01*
X0205250Y0184309D01*
X0206973Y0184309D01*
X0208191Y0185528D01*
X0208191Y0187250D01*
X0206973Y0188468D01*
X0205250Y0188468D01*
X0204372Y0187590D02*
X0201623Y0187590D01*
X0202422Y0186792D02*
X0204032Y0186792D01*
X0204032Y0185993D02*
X0203220Y0185993D01*
X0204019Y0185195D02*
X0204365Y0185195D01*
X0204817Y0184396D02*
X0205163Y0184396D01*
X0205616Y0183598D02*
X0208373Y0183598D01*
X0208373Y0184702D02*
X0211341Y0184702D01*
X0211341Y0189823D01*
X0210759Y0189707D01*
X0210146Y0189453D01*
X0209594Y0189084D01*
X0209125Y0188615D01*
X0208756Y0188063D01*
X0208502Y0187450D01*
X0208373Y0186799D01*
X0208373Y0184702D01*
X0208373Y0185195D02*
X0207858Y0185195D01*
X0208191Y0185993D02*
X0208373Y0185993D01*
X0208373Y0186792D02*
X0208191Y0186792D01*
X0207851Y0187590D02*
X0208560Y0187590D01*
X0208973Y0188389D02*
X0207053Y0188389D01*
X0209748Y0189187D02*
X0179719Y0189187D01*
X0178125Y0189187D02*
X0177325Y0189187D01*
X0177325Y0188389D02*
X0178125Y0188389D01*
X0178125Y0187590D02*
X0177325Y0187590D01*
X0177325Y0186792D02*
X0178125Y0186792D01*
X0178125Y0185993D02*
X0177325Y0185993D01*
X0177325Y0185195D02*
X0178125Y0185195D01*
X0178125Y0184396D02*
X0182407Y0184396D01*
X0184303Y0184396D02*
X0184349Y0184396D01*
X0185102Y0185195D02*
X0185148Y0185195D01*
X0185435Y0185993D02*
X0185947Y0185993D01*
X0185435Y0186792D02*
X0186745Y0186792D01*
X0187544Y0187590D02*
X0185095Y0187590D01*
X0175732Y0189187D02*
X0174833Y0189187D01*
X0174833Y0188389D02*
X0174958Y0188389D01*
X0174833Y0189986D02*
X0214333Y0189986D01*
X0214333Y0190784D02*
X0174833Y0190784D01*
X0174833Y0191583D02*
X0214333Y0191583D01*
X0214333Y0192381D02*
X0174833Y0192381D01*
X0174833Y0193180D02*
X0214333Y0193180D01*
X0214333Y0193978D02*
X0174833Y0193978D01*
X0174833Y0194777D02*
X0214333Y0194777D01*
X0214333Y0195575D02*
X0174833Y0195575D01*
X0174833Y0196374D02*
X0176659Y0196374D01*
X0177325Y0196374D02*
X0178125Y0196374D01*
X0178792Y0196374D02*
X0210675Y0196374D01*
X0211341Y0196374D02*
X0212141Y0196374D01*
X0212808Y0196374D02*
X0214333Y0196374D01*
X0214333Y0197172D02*
X0214099Y0197172D01*
X0212141Y0197172D02*
X0211341Y0197172D01*
X0211341Y0197971D02*
X0212141Y0197971D01*
X0212141Y0198769D02*
X0211341Y0198769D01*
X0211341Y0199568D02*
X0212141Y0199568D01*
X0211341Y0200366D02*
X0178125Y0200366D01*
X0178125Y0199568D02*
X0177325Y0199568D01*
X0177325Y0198769D02*
X0178125Y0198769D01*
X0178125Y0197971D02*
X0177325Y0197971D01*
X0177325Y0197172D02*
X0178125Y0197172D01*
X0180084Y0197172D02*
X0209383Y0197172D01*
X0208764Y0197971D02*
X0180703Y0197971D01*
X0180999Y0198769D02*
X0208468Y0198769D01*
X0208373Y0199568D02*
X0181094Y0199568D01*
X0181094Y0201165D02*
X0208373Y0201165D01*
X0208373Y0201963D02*
X0181094Y0201963D01*
X0180997Y0202762D02*
X0208470Y0202762D01*
X0208773Y0203560D02*
X0180694Y0203560D01*
X0175367Y0197172D02*
X0174833Y0197172D01*
X0207059Y0184396D02*
X0211341Y0184396D01*
X0211341Y0185195D02*
X0212141Y0185195D01*
X0212141Y0185993D02*
X0211341Y0185993D01*
X0211341Y0186792D02*
X0212141Y0186792D01*
X0212141Y0187590D02*
X0211341Y0187590D01*
X0211341Y0188389D02*
X0212141Y0188389D01*
X0212141Y0189187D02*
X0211341Y0189187D01*
X0213734Y0189187D02*
X0214333Y0189187D01*
D39*
X0306463Y0171870D02*
X0306463Y0168299D01*
D40*
X0262115Y0162128D02*
X0256955Y0162128D01*
D41*
X0256955Y0153467D02*
X0260766Y0153467D01*
X0264633Y0149600D01*
X0265987Y0149600D01*
M02*
