%
M48
M72
T01C0.0120
T02C0.0200
T03C0.0256
T04C0.0400
T05C0.1300
%
T01
X7734Y5965
X7734Y6515
X8234Y6515
X8734Y6515
X9234Y6515
X9234Y5975
X9234Y7265
X8734Y7265
X8234Y7265
X7734Y7265
X7734Y7915
X8234Y7915
X8734Y7915
X9234Y8015
X9234Y8765
X8234Y9465
X7734Y9465
X7734Y10515
X8234Y10515
X7734Y12015
X7734Y12765
X7744Y13565
X8434Y13475
X8434Y14265
X7734Y14265
X7734Y14765
X9134Y14765
X9134Y14265
X9034Y13475
X9834Y13685
X10384Y13915
X10934Y13615
X11374Y13955
X11914Y14795
X12484Y13015
X11944Y11595
X11634Y11225
X11454Y11635
X10934Y11615
X10934Y11215
X9934Y11265
X9934Y10865
X9934Y10462
X10634Y9565
X10634Y8965
X12234Y8365
X13034Y10515
X13034Y10915
X13684Y11015
X13684Y10515
X13684Y10015
X13684Y9515
X13684Y9015
X13684Y8515
X13684Y8015
X13684Y7515
X13684Y7015
X14434Y7015
X14434Y6515
X14434Y6065
X13684Y6065
X14434Y7515
X14434Y8015
X14434Y8515
X14434Y9015
X14434Y9515
X14434Y10015
X14434Y10515
X14434Y11015
X14434Y11515
X14434Y12015
X14434Y12515
X14434Y13015
X13684Y13015
X13684Y12515
X13684Y12015
X13684Y11515
X14744Y13725
X14184Y14465
X15444Y13725
X15434Y13015
X15434Y12515
X15434Y12015
X15434Y11515
X15434Y11015
X15434Y10515
X15434Y10015
X15434Y9515
X15434Y9015
X15434Y8515
X15434Y8015
X15434Y7515
X15434Y7015
X15434Y6515
X15434Y6065
X16434Y6065
X16434Y6515
X16434Y7015
X16434Y7515
X16434Y8015
X16434Y8515
X16434Y9015
X16434Y9515
X16434Y10015
X16434Y10515
X16434Y11015
X16434Y12015
X16434Y12515
X16434Y13015
X16434Y13705
X16934Y13775
X17204Y13775
X17014Y14275
X17334Y14865
X16434Y14765
X16434Y15365
X17824Y13865
X17234Y13015
X17214Y12515
X17254Y12135
X17254Y11435
X17234Y10515
X17234Y10015
X17034Y9675
X17034Y9275
X17234Y9015
X17234Y8515
X17234Y8015
X17234Y7515
X17234Y7015
X17234Y6515
X17234Y6065
X18171Y5829
X18384Y5225
X19484Y5835
X20127Y5792
X20434Y5375
X20434Y4875
X20934Y4875
X20934Y5375
X21434Y5375
X21434Y4875
X21034Y6165
X20534Y6165
X20334Y6665
X20334Y7165
X20364Y7615
X20114Y7855
X20394Y8165
X20114Y8425
X20284Y8775
X20634Y8575
X21034Y9465
X21984Y9665
X21934Y10065
X21934Y10362
X21934Y10626
X22444Y11625
X23004Y11625
X23934Y12015
X23934Y12765
X23944Y13565
X24634Y13475
X24634Y14265
X23934Y14265
X23934Y14765
X23064Y14665
X23014Y14105
X23174Y13615
X22554Y14395
X21864Y14525
X21524Y14785
X21154Y14345
X20534Y13945
X20494Y14675
X20104Y13345
X20744Y12425
X21154Y12795
X21524Y13275
X21504Y12105
X21364Y11595
X20534Y11615
X20124Y12145
X19674Y11625
X19264Y12125
X18874Y11625
X18474Y12135
X18464Y13085
X18374Y13795
X19434Y13775
X19324Y13165
X18444Y14875
X18314Y11135
X18184Y10515
X19134Y10015
X19434Y9055
X19034Y8565
X18784Y8215
X18334Y8365
X18848Y7279
X19184Y7215
X20934Y7165
X20934Y6665
X22374Y6775
X22334Y6165
X23064Y8035
X23934Y7915
X24434Y7915
X24934Y7915
X25434Y8015
X25434Y7265
X24934Y7265
X24434Y7265
X23934Y7265
X23934Y6515
X24434Y6515
X24934Y6515
X25434Y6515
X25434Y5975
X26334Y4875
X26384Y4275
X25834Y4275
X26984Y4275
X26984Y4875
X26984Y5675
X26734Y6565
X28484Y5875
X28484Y5075
X28484Y4275
X29884Y6065
X30634Y6065
X30634Y6515
X30634Y7015
X30634Y7515
X30634Y8015
X30634Y8515
X30634Y9015
X30634Y9515
X30634Y10015
X30634Y10515
X30634Y11015
X30634Y11515
X30634Y12015
X30634Y12515
X30634Y13015
X29884Y13015
X29884Y12515
X29884Y12015
X29884Y11515
X29884Y11015
X29884Y10515
X29884Y10015
X29884Y9515
X29884Y9015
X29884Y8515
X29884Y8015
X29884Y7515
X29884Y7015
X31634Y7015
X31634Y6515
X31634Y6065
X32634Y6065
X32634Y6515
X32634Y7015
X32634Y7515
X32634Y8015
X32634Y8515
X32634Y9015
X32634Y9515
X32634Y10015
X32634Y10515
X32634Y11015
X32634Y12015
X32634Y12515
X32634Y13015
X32634Y13705
X33134Y13775
X33404Y13775
X33214Y14275
X33534Y14865
X32634Y14765
X32634Y15365
X31644Y13725
X31634Y13015
X31634Y12515
X31634Y12015
X31634Y11515
X31634Y11015
X31634Y10515
X31634Y10015
X31634Y9515
X31634Y9015
X31634Y8515
X31634Y8015
X31634Y7515
X33234Y9275
X33434Y9015
X33434Y8515
X33434Y8015
X33434Y7515
X33434Y7015
X33434Y6515
X33434Y6065
X34371Y5829
X34584Y5225
X35684Y5835
X36327Y5792
X36634Y5375
X36634Y4875
X37134Y4875
X37134Y5375
X37634Y5375
X37634Y4875
X37234Y6165
X36734Y6165
X36534Y6665
X36534Y7165
X36564Y7615
X36314Y7855
X36594Y8165
X36314Y8425
X36484Y8775
X36834Y8575
X37234Y9465
X38184Y9665
X38134Y10065
X38134Y10362
X38134Y10626
X38644Y11625
X39204Y11625
X37704Y12105
X37564Y11595
X36734Y11615
X36324Y12145
X36944Y12425
X37354Y12795
X37724Y13275
X37354Y14345
X37724Y14785
X38064Y14525
X38754Y14395
X39214Y14105
X39374Y13615
X39264Y14665
X36694Y14675
X36734Y13945
X36304Y13345
X35634Y13775
X35524Y13165
X35464Y12125
X35074Y11625
X34674Y12135
X34664Y13085
X34574Y13795
X34024Y13865
X33434Y13015
X33414Y12515
X33454Y12135
X33454Y11435
X33434Y10515
X33434Y10015
X33234Y9675
X34384Y10515
X34514Y11135
X35334Y10015
X35634Y9055
X35234Y8565
X34984Y8215
X34534Y8365
X35048Y7279
X35384Y7215
X37134Y7165
X37134Y6665
X38574Y6775
X38534Y6165
X39264Y8035
X37884Y8275
X35874Y11625
X34644Y14875
X34584Y19415
X34371Y20019
X33434Y20255
X33434Y20705
X33434Y21205
X33434Y21705
X33434Y22205
X33434Y22705
X33434Y23205
X33234Y23465
X33234Y23865
X33434Y24205
X33434Y24705
X32634Y24705
X32634Y24205
X32634Y23705
X32634Y23205
X32634Y22705
X32634Y22205
X32634Y21705
X32634Y21205
X32634Y20705
X32634Y20255
X31634Y20255
X31634Y20705
X31634Y21205
X31634Y21705
X31634Y22205
X31634Y22705
X31634Y23205
X31634Y23705
X31634Y24205
X31634Y24705
X31634Y25205
X31634Y25705
X31634Y26205
X31634Y26705
X31634Y27205
X31644Y27915
X30944Y27915
X30634Y27205
X30634Y26705
X30634Y26205
X30634Y25705
X30634Y25205
X30634Y24705
X30634Y24205
X30634Y23705
X30634Y23205
X30634Y22705
X30634Y22205
X30634Y21705
X30634Y21205
X30634Y20705
X30634Y20255
X29884Y20255
X29884Y21205
X29884Y21705
X29884Y22205
X29884Y22705
X29884Y23205
X29884Y23705
X29884Y24205
X29884Y24705
X29884Y25205
X29884Y25705
X29884Y26205
X29884Y26705
X29884Y27205
X30384Y28655
X29184Y30055
X28114Y28985
X27574Y28145
X27134Y27805
X26584Y28105
X26034Y27875
X25234Y27665
X25334Y28455
X25334Y28955
X24634Y28455
X23934Y28455
X23934Y28955
X23064Y28855
X23014Y28295
X23174Y27805
X23944Y27755
X24634Y27665
X23934Y26955
X23934Y26205
X23934Y24705
X24434Y24705
X24434Y23655
X23934Y23655
X23064Y22225
X23934Y22105
X24434Y22105
X24934Y22105
X25434Y22205
X25434Y21455
X24934Y21455
X24434Y21455
X23934Y21455
X23934Y20705
X24434Y20705
X24934Y20705
X25434Y20705
X25434Y20165
X26334Y19065
X26384Y18465
X25834Y18465
X26984Y18465
X26984Y19065
X26984Y19865
X26734Y20755
X28484Y20065
X28484Y19265
X28484Y18465
X29184Y15865
X28114Y14795
X27574Y13955
X27134Y13615
X26584Y13915
X26034Y13685
X25234Y13475
X25334Y14265
X25334Y14765
X26434Y15865
X28684Y13015
X28144Y11595
X27834Y11225
X27654Y11635
X27134Y11615
X27134Y11215
X26134Y11265
X26134Y10865
X26134Y10462
X26834Y9565
X26834Y8965
X25434Y8765
X24434Y9465
X23934Y9465
X23934Y10515
X24434Y10515
X25925Y11655
X28484Y11205
X29234Y10915
X29234Y10515
X28434Y8365
X30944Y13725
X30384Y14465
X35048Y21469
X35384Y21405
X34984Y22405
X35234Y22755
X35634Y23245
X35334Y24205
X34384Y24705
X34514Y25325
X35074Y25815
X35464Y26315
X35874Y25815
X36324Y26335
X36734Y25805
X36944Y26615
X37354Y26985
X37724Y27465
X37704Y26295
X37564Y25785
X38644Y25815
X39204Y25815
X38134Y24816
X38134Y24552
X38134Y24255
X38184Y23855
X37234Y23655
X36834Y22765
X36484Y22965
X36314Y22615
X36594Y22355
X36314Y22045
X36564Y21805
X36534Y21355
X36534Y20855
X36734Y20355
X37234Y20355
X37134Y20855
X37134Y21355
X37884Y22465
X38574Y20965
X38534Y20355
X37634Y19565
X37134Y19565
X37134Y19065
X37634Y19065
X36634Y19065
X36634Y19565
X36327Y19982
X35684Y20025
X34534Y22555
X33454Y25625
X33454Y26325
X33414Y26705
X33434Y27205
X33404Y27965
X33134Y27965
X32634Y27895
X32634Y27205
X32634Y26705
X32634Y26205
X32634Y25205
X34024Y28055
X34574Y27985
X34664Y27275
X34674Y26325
X35524Y27355
X35634Y27965
X36304Y27535
X36734Y28135
X36694Y28865
X37354Y28535
X37724Y28975
X38064Y28715
X38754Y28585
X39214Y28295
X39374Y27805
X39264Y28855
X37634Y33255
X37134Y33255
X37134Y33755
X37634Y33755
X37234Y34545
X36734Y34545
X36534Y35045
X36534Y35545
X36564Y35995
X36314Y36235
X36594Y36545
X36314Y36805
X36484Y37155
X36834Y36955
X37234Y37845
X38184Y38045
X38134Y38445
X38134Y38742
X38134Y39006
X38644Y40005
X39204Y40005
X37704Y40485
X37564Y39975
X36734Y39995
X36324Y40525
X36944Y40805
X37354Y41175
X37724Y41655
X37354Y42725
X37724Y43165
X38064Y42905
X38754Y42775
X39214Y42485
X39374Y41995
X39264Y43045
X36694Y43055
X36734Y42325
X36304Y41725
X35634Y42155
X35524Y41545
X35464Y40505
X35074Y40005
X34674Y40515
X34664Y41465
X34574Y42175
X34024Y42245
X33404Y42155
X33134Y42155
X32634Y42085
X32634Y41395
X32634Y40895
X32634Y40395
X33454Y40515
X33414Y40895
X33434Y41395
X33214Y42655
X33534Y43245
X32634Y43145
X32634Y43745
X31644Y42105
X31634Y41395
X31634Y40895
X31634Y40395
X31634Y39895
X31634Y39395
X31634Y38895
X31634Y38395
X31634Y37895
X31634Y37395
X31634Y36895
X31634Y36395
X31634Y35895
X31634Y35395
X31634Y34895
X31634Y34445
X32634Y34445
X32634Y34895
X32634Y35395
X32634Y35895
X32634Y36395
X32634Y36895
X32634Y37395
X32634Y37895
X32634Y38395
X32634Y38895
X32634Y39395
X33454Y39815
X33434Y38895
X33434Y38395
X33234Y38055
X33234Y37655
X33434Y37395
X33434Y36895
X33434Y36395
X33434Y35895
X33434Y35395
X33434Y34895
X33434Y34445
X34371Y34209
X34584Y33605
X35684Y34215
X36327Y34172
X36634Y33755
X36634Y33255
X37134Y35045
X37134Y35545
X37884Y36655
X38574Y35155
X38534Y34545
X39264Y36415
X35874Y40005
X35334Y38395
X35634Y37435
X35234Y36945
X34984Y36595
X34534Y36745
X35048Y35659
X35384Y35595
X34384Y38895
X34514Y39515
X34644Y43255
X36634Y47445
X36634Y47945
X36327Y48362
X36734Y48735
X37234Y48735
X37134Y49235
X37134Y49735
X36534Y49735
X36564Y50185
X36314Y50425
X36594Y50735
X36314Y50995
X36484Y51345
X36834Y51145
X37234Y52035
X38184Y52235
X38134Y52635
X38134Y52932
X38134Y53196
X38644Y54195
X39204Y54195
X37704Y54675
X37564Y54165
X36734Y54185
X36324Y54715
X36944Y54995
X37354Y55365
X37724Y55845
X37354Y56915
X37724Y57355
X38064Y57095
X38754Y56965
X39214Y56675
X39374Y56185
X39264Y57235
X36694Y57245
X36734Y56515
X36304Y55915
X35634Y56345
X35524Y55735
X35464Y54695
X35074Y54195
X34674Y54705
X34664Y55655
X34574Y56365
X34024Y56435
X33404Y56345
X33134Y56345
X32634Y56275
X32634Y55585
X32634Y55085
X32634Y54585
X33454Y54705
X33414Y55085
X33434Y55585
X33214Y56845
X33534Y57435
X32634Y57335
X32634Y57935
X31644Y56295
X31634Y55585
X31634Y55085
X31634Y54585
X31634Y54085
X31634Y53585
X31634Y53085
X31634Y52585
X31634Y52085
X31634Y51585
X31634Y51085
X31634Y50585
X31634Y50085
X31634Y49585
X31634Y49085
X31634Y48635
X32634Y48635
X32634Y49085
X32634Y49585
X32634Y50085
X32634Y50585
X32634Y51085
X32634Y51585
X32634Y52085
X32634Y52585
X32634Y53085
X32634Y53585
X33454Y54005
X33434Y53085
X33434Y52585
X33234Y52245
X33234Y51845
X33434Y51585
X33434Y51085
X33434Y50585
X33434Y50085
X33434Y49585
X33434Y49085
X33434Y48635
X34371Y48399
X34584Y47795
X35684Y48405
X36534Y49235
X35384Y49785
X35048Y49849
X34984Y50785
X35234Y51135
X35634Y51625
X35334Y52585
X34384Y53085
X34514Y53705
X35874Y54195
X34644Y57445
X30944Y56295
X30634Y55585
X30634Y55085
X30634Y54585
X30634Y54085
X30634Y53585
X30634Y53085
X30634Y52585
X30634Y52085
X30634Y51585
X30634Y51085
X30634Y50585
X30634Y50085
X30634Y49585
X30634Y49085
X30634Y48635
X29884Y48635
X29884Y49585
X29884Y50085
X29884Y50585
X29884Y51085
X29884Y51585
X29884Y52085
X29884Y52585
X29884Y53085
X29884Y53585
X29884Y54085
X29884Y54585
X29884Y55085
X29884Y55585
X30384Y57035
X29184Y58435
X28114Y57365
X27574Y56525
X27134Y56185
X26584Y56485
X26034Y56255
X25234Y56045
X25334Y56835
X25334Y57335
X24634Y56835
X23934Y56835
X23934Y57335
X23064Y57235
X23014Y56675
X23174Y56185
X23944Y56135
X24634Y56045
X23934Y55335
X23934Y54585
X23004Y54195
X22444Y54195
X21934Y53196
X21934Y52932
X21934Y52635
X21984Y52235
X21034Y52035
X20634Y51145
X20284Y51345
X20114Y50995
X20394Y50735
X20114Y50425
X20364Y50185
X20334Y49735
X20334Y49235
X20534Y48735
X21034Y48735
X20934Y49235
X20934Y49735
X21684Y50845
X22374Y49345
X22334Y48735
X21434Y47945
X20934Y47945
X20934Y47445
X21434Y47445
X20434Y47445
X20434Y47945
X20127Y48362
X19484Y48405
X18384Y47795
X18171Y48399
X17234Y48635
X17234Y49085
X17234Y49585
X17234Y50085
X17234Y50585
X17234Y51085
X17234Y51585
X17034Y51845
X17034Y52245
X17234Y52585
X17234Y53085
X16434Y53085
X16434Y52585
X16434Y52085
X16434Y51585
X16434Y51085
X16434Y50585
X16434Y50085
X16434Y49585
X16434Y49085
X16434Y48635
X15434Y48635
X15434Y49085
X15434Y49585
X15434Y50085
X15434Y50585
X15434Y51085
X15434Y51585
X15434Y52085
X15434Y52585
X15434Y53085
X15434Y53585
X15434Y54085
X15434Y54585
X15434Y55085
X15434Y55585
X15444Y56295
X14744Y56295
X14434Y55585
X14434Y55085
X14434Y54585
X14434Y54085
X14434Y53585
X14434Y53085
X14434Y52585
X14434Y52085
X14434Y51585
X14434Y51085
X14434Y50585
X14434Y50085
X14434Y49585
X14434Y49085
X14434Y48635
X13684Y48635
X13684Y49585
X13684Y50085
X13684Y50585
X13684Y51085
X13684Y51585
X13684Y52085
X13684Y52585
X13684Y53085
X13684Y53585
X13684Y54085
X13684Y54585
X13684Y55085
X13684Y55585
X14184Y57035
X12984Y58435
X11914Y57365
X11374Y56525
X10934Y56185
X10384Y56485
X9834Y56255
X9034Y56045
X9134Y56835
X9134Y57335
X8434Y56835
X7734Y56835
X7734Y57335
X7744Y56135
X8434Y56045
X7734Y55335
X7734Y54585
X7734Y53085
X8234Y53085
X8234Y52035
X7734Y52035
X7734Y50485
X8234Y50485
X8734Y50485
X9234Y50585
X9234Y49835
X8734Y49835
X8234Y49835
X7734Y49835
X7734Y49085
X8234Y49085
X8734Y49085
X9234Y49085
X9234Y48545
X10134Y47445
X10184Y46845
X9634Y46845
X10784Y46845
X10784Y47445
X10784Y48245
X10534Y49135
X10634Y51535
X10634Y52135
X9934Y53032
X9934Y53435
X9934Y53835
X9725Y54225
X10934Y54185
X10934Y53785
X11454Y54205
X11634Y53795
X11944Y54165
X12284Y53775
X13034Y53485
X13034Y53085
X12234Y50935
X12284Y48445
X12284Y47645
X12284Y46845
X12984Y44245
X11914Y43175
X11374Y42335
X10934Y41995
X10384Y42295
X9834Y42065
X9034Y41855
X9134Y42645
X9134Y43145
X8434Y42645
X7734Y42645
X7734Y43145
X7744Y41945
X8434Y41855
X7734Y41145
X7734Y40395
X7734Y38895
X8234Y38895
X8234Y37845
X7734Y37845
X7734Y36295
X8234Y36295
X8734Y36295
X9234Y36395
X9234Y37145
X9934Y38842
X9934Y39245
X9934Y39645
X9725Y40035
X10934Y39995
X10934Y39595
X11454Y40015
X11634Y39605
X11944Y39975
X12284Y39585
X13034Y39295
X13034Y38895
X13684Y38895
X13684Y38395
X13684Y37895
X13684Y37395
X13684Y36895
X13684Y36395
X13684Y35895
X13684Y35395
X14434Y35395
X14434Y34895
X14434Y34445
X13684Y34445
X14434Y35895
X14434Y36395
X14434Y36895
X14434Y37395
X14434Y37895
X14434Y38395
X14434Y38895
X14434Y39395
X14434Y39895
X14434Y40395
X14434Y40895
X14434Y41395
X13684Y41395
X13684Y40895
X13684Y40395
X13684Y39895
X13684Y39395
X12484Y41395
X14184Y42845
X14744Y42105
X15444Y42105
X15434Y41395
X15434Y40895
X15434Y40395
X15434Y39895
X15434Y39395
X15434Y38895
X15434Y38395
X15434Y37895
X15434Y37395
X15434Y36895
X15434Y36395
X15434Y35895
X15434Y35395
X15434Y34895
X15434Y34445
X16434Y34445
X16434Y34895
X16434Y35395
X16434Y35895
X16434Y36395
X16434Y36895
X16434Y37395
X16434Y37895
X16434Y38395
X16434Y38895
X16434Y39395
X17254Y39815
X17254Y40515
X17214Y40895
X17234Y41395
X17204Y42155
X16934Y42155
X16434Y42085
X16434Y41395
X16434Y40895
X16434Y40395
X17234Y38895
X17234Y38395
X17034Y38055
X17034Y37655
X17234Y37395
X17234Y36895
X17234Y36395
X17234Y35895
X17234Y35395
X17234Y34895
X17234Y34445
X18171Y34209
X18384Y33605
X19484Y34215
X20127Y34172
X20434Y33755
X20434Y33255
X20934Y33255
X20934Y33755
X21434Y33755
X21434Y33255
X21034Y34545
X20534Y34545
X20334Y35045
X20334Y35545
X20364Y35995
X20114Y36235
X20394Y36545
X20114Y36805
X20284Y37155
X20634Y36955
X21034Y37845
X21984Y38045
X21934Y38445
X21934Y38742
X21934Y39006
X22444Y40005
X23004Y40005
X23934Y40395
X23934Y41145
X23944Y41945
X24634Y41855
X24634Y42645
X23934Y42645
X23934Y43145
X23064Y43045
X23014Y42485
X23174Y41995
X22554Y42775
X21864Y42905
X21524Y43165
X21154Y42725
X20534Y42325
X20494Y43055
X20104Y41725
X19434Y42155
X19324Y41545
X19264Y40505
X18874Y40005
X18474Y40515
X18464Y41465
X18374Y42175
X17824Y42245
X17014Y42655
X17334Y43245
X16434Y43145
X16434Y43745
X18444Y43255
X20124Y40525
X20534Y39995
X20744Y40805
X21154Y41175
X21524Y41655
X21504Y40485
X21364Y39975
X19674Y40005
X19134Y38395
X19434Y37435
X19034Y36945
X18784Y36595
X18334Y36745
X18848Y35659
X19184Y35595
X20934Y35545
X20934Y35045
X21684Y36655
X22374Y35155
X22334Y34545
X23064Y36415
X23934Y36295
X24434Y36295
X24934Y36295
X25434Y36395
X25434Y37145
X24434Y37845
X23934Y37845
X23934Y38895
X24434Y38895
X25925Y40035
X26134Y39645
X26134Y39245
X26134Y38842
X26834Y37945
X26834Y37345
X25434Y35645
X24934Y35645
X24434Y35645
X23934Y35645
X23934Y34895
X24434Y34895
X24934Y34895
X25434Y34895
X25434Y34355
X26334Y33255
X26384Y32655
X25834Y32655
X26984Y32655
X26984Y33255
X26984Y34055
X26734Y34945
X28484Y34255
X28484Y33455
X28484Y32655
X29884Y34445
X30634Y34445
X30634Y34895
X30634Y35395
X30634Y35895
X30634Y36395
X30634Y36895
X30634Y37395
X30634Y37895
X30634Y38395
X30634Y38895
X30634Y39395
X30634Y39895
X30634Y40395
X30634Y40895
X30634Y41395
X29884Y41395
X29884Y40895
X29884Y40395
X29884Y39895
X29884Y39395
X29884Y38895
X29884Y38395
X29884Y37895
X29884Y37395
X29884Y36895
X29884Y36395
X29884Y35895
X29884Y35395
X28434Y36745
X29234Y38895
X29234Y39295
X28484Y39585
X28144Y39975
X27834Y39605
X27654Y40015
X27134Y39995
X27134Y39595
X28684Y41395
X27574Y42335
X27134Y41995
X26584Y42295
X26034Y42065
X25234Y41855
X25334Y42645
X25334Y43145
X26434Y44245
X28114Y43175
X29184Y44245
X30384Y42845
X30944Y42105
X28484Y46845
X28484Y47645
X28484Y48445
X26984Y48245
X26984Y47445
X26984Y46845
X26384Y46845
X25834Y46845
X26334Y47445
X25434Y48545
X25434Y49085
X24934Y49085
X24434Y49085
X23934Y49085
X23934Y48535
X23934Y49835
X24434Y49835
X24934Y49835
X25434Y49835
X25434Y50585
X24934Y50485
X24434Y50485
X23934Y50485
X23064Y50605
X23934Y52035
X24434Y52035
X24434Y53085
X23934Y53085
X25434Y51335
X26134Y53032
X26134Y53435
X26134Y53835
X25925Y54225
X27134Y54185
X27134Y53785
X27654Y54205
X27834Y53795
X28144Y54165
X28484Y53775
X29234Y53485
X29234Y53085
X28434Y50935
X26834Y51535
X26834Y52135
X26734Y49135
X28684Y55585
X26434Y58435
X22554Y56965
X21864Y57095
X21524Y57355
X21154Y56915
X20534Y56515
X20104Y55915
X19434Y56345
X19324Y55735
X19264Y54695
X18874Y54195
X18474Y54705
X18464Y55655
X18374Y56365
X17824Y56435
X17204Y56345
X16934Y56345
X16434Y56275
X16434Y55585
X16434Y55085
X16434Y54585
X17254Y54705
X17214Y55085
X17234Y55585
X17014Y56845
X17334Y57435
X16434Y57335
X16434Y57935
X18444Y57445
X20124Y54715
X20534Y54185
X20744Y54995
X21154Y55365
X21524Y55845
X21504Y54675
X21364Y54165
X19674Y54195
X19134Y52585
X19434Y51625
X19034Y51135
X18784Y50785
X18334Y50935
X18848Y49849
X19184Y49785
X18184Y53085
X18314Y53705
X17254Y54005
X16434Y53585
X12484Y55585
X10234Y58435
X9234Y51335
X7734Y48535
X10234Y44245
X10634Y37945
X10634Y37345
X9234Y35645
X8734Y35645
X8234Y35645
X7734Y35645
X7734Y34895
X8234Y34895
X8734Y34895
X9234Y34895
X9234Y34355
X10134Y33255
X10184Y32655
X9634Y32655
X10784Y32655
X10784Y33255
X10784Y34055
X10534Y34945
X12284Y34255
X12284Y33455
X12284Y32655
X12984Y30055
X11914Y28985
X11374Y28145
X10934Y27805
X10384Y28105
X9834Y27875
X9034Y27665
X9134Y28455
X9134Y28955
X8434Y28455
X7734Y28455
X7734Y28955
X7744Y27755
X8434Y27665
X7734Y26955
X7734Y26205
X7734Y24705
X8234Y24705
X8234Y23655
X7734Y23655
X7734Y22105
X8234Y22105
X8734Y22105
X9234Y22205
X9234Y21455
X8734Y21455
X8234Y21455
X7734Y21455
X7734Y20705
X8234Y20705
X8734Y20705
X9234Y20705
X9234Y20165
X10134Y19065
X10184Y18465
X9634Y18465
X10784Y18465
X10784Y19065
X10784Y19865
X10534Y20755
X12284Y20065
X12284Y19265
X12284Y18465
X13684Y20255
X14434Y20255
X14434Y20705
X14434Y21205
X14434Y21705
X14434Y22205
X14434Y22705
X14434Y23205
X14434Y23705
X14434Y24205
X14434Y24705
X14434Y25205
X14434Y25705
X14434Y26205
X14434Y26705
X14434Y27205
X13684Y27205
X13684Y26705
X13684Y26205
X13684Y25705
X13684Y25205
X13684Y24705
X13684Y24205
X13684Y23705
X13684Y23205
X13684Y22705
X13684Y22205
X13684Y21705
X13684Y21205
X15434Y21205
X15434Y20705
X15434Y20255
X16434Y20255
X16434Y20705
X16434Y21205
X16434Y21705
X16434Y22205
X16434Y22705
X16434Y23205
X16434Y23705
X16434Y24205
X16434Y24705
X16434Y25205
X16434Y26205
X16434Y26705
X16434Y27205
X16434Y27895
X16934Y27965
X17204Y27965
X17014Y28465
X17334Y29055
X16434Y28955
X16434Y29555
X15444Y27915
X15434Y27205
X15434Y26705
X15434Y26205
X15434Y25705
X15434Y25205
X15434Y24705
X15434Y24205
X15434Y23705
X15434Y23205
X15434Y22705
X15434Y22205
X15434Y21705
X17034Y23465
X17234Y23205
X17234Y22705
X17234Y22205
X17234Y21705
X17234Y21205
X17234Y20705
X17234Y20255
X18171Y20019
X18384Y19415
X19484Y20025
X20127Y19982
X20434Y19565
X20434Y19065
X20934Y19065
X20934Y19565
X21434Y19565
X21434Y19065
X21034Y20355
X20534Y20355
X20334Y20855
X20334Y21355
X20364Y21805
X20114Y22045
X20394Y22355
X20114Y22615
X20284Y22965
X20634Y22765
X21034Y23655
X21984Y23855
X21934Y24255
X21934Y24552
X21934Y24816
X22444Y25815
X23004Y25815
X21504Y26295
X21364Y25785
X20534Y25805
X20124Y26335
X20744Y26615
X21154Y26985
X21524Y27465
X21154Y28535
X21524Y28975
X21864Y28715
X22554Y28585
X20534Y28135
X20494Y28865
X20104Y27535
X19434Y27965
X19324Y27355
X19264Y26315
X18874Y25815
X18474Y26325
X18464Y27275
X18374Y27985
X17824Y28055
X17234Y27205
X17214Y26705
X17254Y26325
X17254Y25625
X17234Y24705
X17234Y24205
X17034Y23865
X18184Y24705
X18314Y25325
X19134Y24205
X19434Y23245
X19034Y22755
X18784Y22405
X18334Y22555
X18848Y21469
X19184Y21405
X20934Y21355
X20934Y20855
X22374Y20965
X22334Y20355
X21684Y22465
X19674Y25815
X18444Y29065
X14744Y27915
X14184Y28655
X12484Y27205
X11944Y25785
X11634Y25415
X11454Y25825
X10934Y25805
X10934Y25405
X9934Y25455
X9934Y25055
X9934Y24652
X10634Y23755
X10634Y23155
X9234Y22955
X9725Y25845
X12284Y25395
X13034Y25105
X13034Y24705
X12234Y22555
X7734Y20155
X10234Y15865
X12984Y15865
X12284Y11205
X9725Y11655
X10534Y6565
X10784Y5675
X10784Y4875
X10784Y4275
X10184Y4275
X9634Y4275
X10134Y4875
X12284Y5075
X12284Y4275
X12284Y5875
X21684Y8275
X23934Y5965
X23934Y20155
X25434Y22955
X26134Y24652
X26134Y25055
X26134Y25455
X25925Y25845
X27134Y25805
X27134Y25405
X27654Y25825
X27834Y25415
X28144Y25785
X28484Y25395
X29234Y25105
X29234Y24705
X28434Y22555
X26834Y23155
X26834Y23755
X28684Y27205
X26434Y30055
X23934Y34345
X18184Y38895
X18314Y39515
X12234Y36745
X7734Y34345
X10234Y30055
X20494Y57245
X34534Y50935
X37134Y47945
X37134Y47445
X37634Y47445
X37634Y47945
X38534Y48735
X38574Y49345
X39264Y50605
X37884Y50845
X32634Y29555
X32634Y28955
X33214Y28465
X33534Y29055
X34644Y29065
X39264Y22225
T02
X34964Y19705
X34964Y5515
X18764Y5515
X18764Y19705
X18764Y33895
X18764Y48085
X34964Y48085
X34964Y33895
T03
X28912Y29204
X26636Y29204
X26636Y43394
X28912Y43394
X28912Y57584
X26636Y57584
X12712Y57584
X10436Y57584
X10436Y43394
X12712Y43394
X12712Y29204
X10436Y29204
X10436Y15014
X12712Y15014
X26636Y15014
X28912Y15014
T04
X29134Y18565
X30134Y18565
X31134Y18565
X32134Y18565
X33134Y18565
X34134Y18565
X35134Y18565
X36134Y18565
X36134Y16375
X35134Y16375
X34134Y16375
X33134Y16375
X32134Y16375
X31134Y16375
X37134Y16375
X36134Y4375
X35134Y4375
X34134Y4375
X33134Y4375
X32134Y4375
X31134Y4375
X30134Y4375
X29134Y4375
X20934Y16375
X19934Y16375
X18934Y16375
X17934Y16375
X16934Y16375
X15934Y16375
X14934Y16375
X14934Y18565
X15934Y18565
X16934Y18565
X17934Y18565
X18934Y18565
X19934Y18565
X13934Y18565
X12934Y18565
X14934Y30565
X15934Y30565
X16934Y30565
X17934Y30565
X18934Y30565
X19934Y30565
X20934Y30565
X19934Y32755
X18934Y32755
X17934Y32755
X16934Y32755
X15934Y32755
X14934Y32755
X13934Y32755
X12934Y32755
X14934Y44755
X15934Y44755
X16934Y44755
X17934Y44755
X18934Y44755
X19934Y44755
X20934Y44755
X19934Y46945
X18934Y46945
X17934Y46945
X16934Y46945
X15934Y46945
X14934Y46945
X13934Y46945
X12934Y46945
X14934Y58945
X15934Y58945
X16934Y58945
X17934Y58945
X18934Y58945
X19934Y58945
X20934Y58945
X29134Y46945
X30134Y46945
X31134Y46945
X32134Y46945
X33134Y46945
X34134Y46945
X35134Y46945
X36134Y46945
X36134Y44755
X35134Y44755
X34134Y44755
X33134Y44755
X32134Y44755
X31134Y44755
X37134Y44755
X36134Y32755
X35134Y32755
X34134Y32755
X33134Y32755
X32134Y32755
X31134Y32755
X30134Y32755
X29134Y32755
X31134Y30565
X32134Y30565
X33134Y30565
X34134Y30565
X35134Y30565
X36134Y30565
X37134Y30565
X19934Y4375
X18934Y4375
X17934Y4375
X16934Y4375
X15934Y4375
X14934Y4375
X13934Y4375
X12934Y4375
X31134Y58945
X32134Y58945
X33134Y58945
X34134Y58945
X35134Y58945
X36134Y58945
X37134Y58945
T05
X38634Y58435
X38634Y47445
X38634Y44245
X38634Y33255
X38634Y30055
X38634Y19065
X38634Y15865
X38634Y4875
X24634Y4875
X22434Y4875
X22434Y15865
X24634Y15865
X24634Y19065
X22434Y19065
X22434Y30055
X24634Y30055
X24634Y33255
X22434Y33255
X22434Y44245
X24634Y44245
X24634Y47445
X22434Y47445
X22434Y58435
X24634Y58435
X8434Y58435
X8434Y47445
X8434Y44245
X8434Y33255
X8434Y30055
X8434Y19065
X8434Y15865
X8434Y4875
M30
