%
M48
M72
T01C0.0120
T02C0.0200
T03C0.0256
T04C0.0400
T05C0.1300
%
T01
X15633Y9590
X15633Y10140
X16133Y10140
X16633Y10140
X17133Y10140
X17133Y9600
X18433Y10190
X18683Y9300
X18683Y8500
X18683Y7900
X18083Y7900
X17533Y7900
X18033Y8500
X20183Y8700
X20183Y7900
X20183Y9500
X21583Y9690
X22333Y9690
X22333Y10140
X22333Y10640
X21583Y10640
X21583Y11140
X21583Y11640
X22333Y11640
X22333Y11140
X22333Y12140
X21583Y12140
X21583Y12640
X22333Y12640
X22333Y13140
X21583Y13140
X21583Y13640
X21583Y14140
X22333Y14140
X22333Y13640
X22333Y14640
X21583Y14640
X21583Y15140
X22333Y15140
X22333Y15640
X21583Y15640
X21583Y16140
X21583Y16640
X22333Y16640
X22333Y16140
X23333Y16140
X23333Y16640
X24333Y16640
X24333Y16140
X24333Y15640
X25153Y15760
X25113Y16140
X25133Y16640
X25103Y17400
X24833Y17400
X24333Y17330
X24913Y17900
X25233Y18490
X24333Y18390
X24333Y18990
X25723Y17490
X26273Y17320
X26283Y16770
X26823Y16790
X27473Y16780
X27333Y17300
X28053Y16800
X28333Y17370
X28353Y17890
X29063Y17920
X29463Y18290
X29713Y17940
X30393Y17930
X30853Y18290
X31003Y17740
X31073Y17240
X29423Y16900
X29103Y16670
X29413Y16250
X28923Y16070
X28403Y15750
X28863Y15420
X29423Y15580
X29783Y15200
X30453Y15180
X31093Y15210
X29833Y14251
X29833Y13987
X29833Y13690
X29883Y13290
X28933Y13290
X28183Y12400
X28013Y12050
X28293Y11790
X28013Y11480
X28263Y11240
X28233Y10790
X28233Y10290
X28433Y9790
X28933Y9790
X28833Y10290
X28833Y10790
X30273Y10400
X30233Y9790
X29333Y9000
X28833Y9000
X28333Y9000
X28026Y9417
X27383Y9460
X26283Y8850
X26070Y9454
X25133Y9690
X25133Y10140
X25133Y10640
X25133Y11140
X25133Y11640
X25133Y12140
X25133Y12640
X24933Y12900
X24933Y13300
X24333Y13140
X24333Y12640
X24333Y12140
X24333Y11640
X24333Y11140
X24333Y10640
X24333Y10140
X24333Y9690
X23333Y9690
X23333Y10140
X23333Y10640
X23333Y11140
X23333Y11640
X23333Y12140
X23333Y12640
X23333Y13140
X23333Y13640
X23333Y14140
X23333Y14640
X23333Y15140
X23333Y15640
X24333Y14640
X24333Y14140
X24333Y13640
X25133Y13640
X25133Y14140
X26083Y14140
X27033Y13640
X27333Y12680
X26933Y12190
X26683Y11840
X26233Y11990
X26747Y10904
X27083Y10840
X28533Y12200
X29583Y11900
X30923Y11640
X29333Y8500
X28833Y8500
X28333Y8500
X20133Y11990
X18533Y12590
X18533Y13190
X17833Y14087
X17833Y14490
X17833Y14890
X17624Y15280
X18833Y15240
X18833Y14840
X19353Y15260
X19843Y15220
X19633Y14840
X20333Y14790
X20933Y14540
X20933Y14140
X20383Y16640
X19273Y17580
X18833Y17240
X18283Y17540
X17733Y17290
X16933Y17100
X16333Y17100
X15643Y17190
X15633Y16390
X15633Y15640
X15633Y14140
X16133Y14140
X16133Y13390
X15633Y13390
X16633Y12890
X17133Y12890
X17133Y12390
X16633Y12390
X16133Y12240
X15633Y12240
X15633Y11640
X16133Y11640
X16633Y11640
X17133Y11640
X17133Y10890
X16633Y10890
X16133Y10890
X15633Y10890
X25153Y15060
X26213Y14760
X27173Y15760
X27763Y15750
X29103Y14930
X26343Y18500
X23343Y17350
X22643Y17350
X22083Y18090
X20883Y19490
X19813Y18420
X18133Y19490
X17033Y18390
X17033Y17890
X16333Y17890
X15633Y17890
X15633Y18390
T02
X26663Y9140
T03
X20611Y18639
X18336Y18639
T04
X22833Y20000
X23833Y20000
X24833Y20000
X25833Y20000
X26833Y20000
X27833Y20000
X28833Y20000
X27833Y8000
X26833Y8000
X25833Y8000
X24833Y8000
X23833Y8000
X22833Y8000
X21833Y8000
X20833Y8000
T05
X16333Y8500
X30333Y8500
X30333Y19490
X16333Y19490
M30
