G75*
%MOIN*%
%OFA0B0*%
%FSLAX25Y25*%
%IPPOS*%
%LPD*%
%AMOC8*
5,1,8,0,0,1.08239X$1,22.5*
%
%ADD10C,0.13800*%
%ADD11R,0.03300X0.05800*%
%ADD12C,0.00500*%
%ADD13C,0.03300*%
%ADD14C,0.08200*%
%ADD15C,0.03359*%
%ADD16C,0.00600*%
D10*
X0084342Y0048750D03*
X0084342Y0158650D03*
X0084342Y0190650D03*
X0084342Y0300550D03*
X0084342Y0332550D03*
X0084342Y0442450D03*
X0084342Y0474450D03*
X0084342Y0584350D03*
X0224342Y0584350D03*
X0246342Y0584350D03*
X0246342Y0474450D03*
X0224342Y0474450D03*
X0224342Y0442450D03*
X0246342Y0442450D03*
X0246342Y0332550D03*
X0224342Y0332550D03*
X0224342Y0300550D03*
X0246342Y0300550D03*
X0246342Y0190650D03*
X0224342Y0190650D03*
X0224342Y0158650D03*
X0246342Y0158650D03*
X0246342Y0048750D03*
X0224342Y0048750D03*
X0386342Y0048750D03*
X0386342Y0158650D03*
X0386342Y0190650D03*
X0386342Y0300550D03*
X0386342Y0332550D03*
X0386342Y0442450D03*
X0386342Y0474450D03*
X0386342Y0584350D03*
D11*
X0375342Y0511350D03*
X0371342Y0511350D03*
X0371442Y0502350D03*
X0375442Y0502350D03*
X0352942Y0503350D03*
X0349742Y0503350D03*
X0371342Y0369450D03*
X0375342Y0369450D03*
X0375442Y0360450D03*
X0371442Y0360450D03*
X0352942Y0361450D03*
X0349742Y0361450D03*
X0371342Y0227550D03*
X0375342Y0227550D03*
X0375442Y0218550D03*
X0371442Y0218550D03*
X0352942Y0219550D03*
X0349742Y0219550D03*
X0371342Y0085650D03*
X0375342Y0085650D03*
X0375442Y0076650D03*
X0371442Y0076650D03*
X0352942Y0077650D03*
X0349742Y0077650D03*
X0260342Y0127650D03*
X0256342Y0127650D03*
X0252342Y0127650D03*
X0213342Y0085650D03*
X0209342Y0085650D03*
X0209442Y0076650D03*
X0213442Y0076650D03*
X0190942Y0077650D03*
X0187742Y0077650D03*
X0098342Y0127650D03*
X0094342Y0127650D03*
X0090342Y0127650D03*
X0090342Y0269550D03*
X0094342Y0269550D03*
X0098342Y0269550D03*
X0187742Y0219550D03*
X0190942Y0219550D03*
X0209442Y0218550D03*
X0213442Y0218550D03*
X0213342Y0227550D03*
X0209342Y0227550D03*
X0252342Y0269550D03*
X0256342Y0269550D03*
X0260342Y0269550D03*
X0213442Y0360450D03*
X0209442Y0360450D03*
X0209342Y0369450D03*
X0213342Y0369450D03*
X0190942Y0361450D03*
X0187742Y0361450D03*
X0252342Y0411450D03*
X0256342Y0411450D03*
X0260342Y0411450D03*
X0213442Y0502350D03*
X0209442Y0502350D03*
X0209342Y0511350D03*
X0213342Y0511350D03*
X0190942Y0503350D03*
X0187742Y0503350D03*
X0252342Y0553350D03*
X0256342Y0553350D03*
X0260342Y0553350D03*
X0098342Y0553350D03*
X0094342Y0553350D03*
X0090342Y0553350D03*
X0090342Y0411450D03*
X0094342Y0411450D03*
X0098342Y0411450D03*
D12*
X0097092Y0411636D02*
X0095592Y0411636D01*
X0095592Y0411950D02*
X0095592Y0410950D01*
X0097092Y0410950D01*
X0097092Y0411950D01*
X0095592Y0411950D01*
X0095592Y0411138D02*
X0097092Y0411138D01*
X0093092Y0411138D02*
X0091592Y0411138D01*
X0091592Y0410950D02*
X0093092Y0410950D01*
X0093092Y0411950D01*
X0091592Y0411950D01*
X0091592Y0410950D01*
X0091592Y0411636D02*
X0093092Y0411636D01*
X0093092Y0552850D02*
X0093092Y0553850D01*
X0091592Y0553850D01*
X0091592Y0552850D01*
X0093092Y0552850D01*
X0093092Y0553214D02*
X0091592Y0553214D01*
X0091592Y0553712D02*
X0093092Y0553712D01*
X0095592Y0553712D02*
X0097092Y0553712D01*
X0097092Y0553850D02*
X0097092Y0552850D01*
X0095592Y0552850D01*
X0095592Y0553850D01*
X0097092Y0553850D01*
X0097092Y0553214D02*
X0095592Y0553214D01*
X0210592Y0511850D02*
X0210592Y0510850D01*
X0212092Y0510850D01*
X0212092Y0511850D01*
X0210592Y0511850D01*
X0210592Y0511837D02*
X0212092Y0511837D01*
X0212092Y0511339D02*
X0210592Y0511339D01*
X0210692Y0502850D02*
X0210692Y0501850D01*
X0212192Y0501850D01*
X0212192Y0502850D01*
X0210692Y0502850D01*
X0210692Y0502366D02*
X0212192Y0502366D01*
X0212192Y0501867D02*
X0210692Y0501867D01*
X0253592Y0552850D02*
X0255092Y0552850D01*
X0255092Y0553850D01*
X0253592Y0553850D01*
X0253592Y0552850D01*
X0253592Y0553214D02*
X0255092Y0553214D01*
X0255092Y0553712D02*
X0253592Y0553712D01*
X0257592Y0553712D02*
X0259092Y0553712D01*
X0259092Y0553850D02*
X0259092Y0552850D01*
X0257592Y0552850D01*
X0257592Y0553850D01*
X0259092Y0553850D01*
X0259092Y0553214D02*
X0257592Y0553214D01*
X0257592Y0411950D02*
X0257592Y0410950D01*
X0259092Y0410950D01*
X0259092Y0411950D01*
X0257592Y0411950D01*
X0257592Y0411636D02*
X0259092Y0411636D01*
X0259092Y0411138D02*
X0257592Y0411138D01*
X0255092Y0411138D02*
X0253592Y0411138D01*
X0253592Y0410950D02*
X0255092Y0410950D01*
X0255092Y0411950D01*
X0253592Y0411950D01*
X0253592Y0410950D01*
X0253592Y0411636D02*
X0255092Y0411636D01*
X0212092Y0369950D02*
X0212092Y0368950D01*
X0210592Y0368950D01*
X0210592Y0369950D01*
X0212092Y0369950D01*
X0212092Y0369762D02*
X0210592Y0369762D01*
X0210592Y0369263D02*
X0212092Y0369263D01*
X0212192Y0360950D02*
X0212192Y0359950D01*
X0210692Y0359950D01*
X0210692Y0360950D01*
X0212192Y0360950D01*
X0212192Y0360788D02*
X0210692Y0360788D01*
X0210692Y0360290D02*
X0212192Y0360290D01*
X0253592Y0270050D02*
X0253592Y0269050D01*
X0255092Y0269050D01*
X0255092Y0270050D01*
X0253592Y0270050D01*
X0253592Y0269561D02*
X0255092Y0269561D01*
X0255092Y0269062D02*
X0253592Y0269062D01*
X0257592Y0269062D02*
X0259092Y0269062D01*
X0259092Y0269050D02*
X0259092Y0270050D01*
X0257592Y0270050D01*
X0257592Y0269050D01*
X0259092Y0269050D01*
X0259092Y0269561D02*
X0257592Y0269561D01*
X0212092Y0228050D02*
X0212092Y0227050D01*
X0210592Y0227050D01*
X0210592Y0228050D01*
X0212092Y0228050D01*
X0212092Y0227686D02*
X0210592Y0227686D01*
X0210592Y0227187D02*
X0212092Y0227187D01*
X0212192Y0219050D02*
X0212192Y0218050D01*
X0210692Y0218050D01*
X0210692Y0219050D01*
X0212192Y0219050D01*
X0212192Y0218713D02*
X0210692Y0218713D01*
X0210692Y0218214D02*
X0212192Y0218214D01*
X0253592Y0128150D02*
X0253592Y0127150D01*
X0255092Y0127150D01*
X0255092Y0128150D01*
X0253592Y0128150D01*
X0253592Y0127984D02*
X0255092Y0127984D01*
X0255092Y0127485D02*
X0253592Y0127485D01*
X0257592Y0127485D02*
X0259092Y0127485D01*
X0259092Y0127150D02*
X0259092Y0128150D01*
X0257592Y0128150D01*
X0257592Y0127150D01*
X0259092Y0127150D01*
X0259092Y0127984D02*
X0257592Y0127984D01*
X0212092Y0086150D02*
X0212092Y0085150D01*
X0210592Y0085150D01*
X0210592Y0086150D01*
X0212092Y0086150D01*
X0212092Y0086109D02*
X0210592Y0086109D01*
X0210592Y0085610D02*
X0212092Y0085610D01*
X0212192Y0077150D02*
X0212192Y0076150D01*
X0210692Y0076150D01*
X0210692Y0077150D01*
X0212192Y0077150D01*
X0212192Y0077135D02*
X0210692Y0077135D01*
X0210692Y0076637D02*
X0212192Y0076637D01*
X0097092Y0127150D02*
X0097092Y0128150D01*
X0095592Y0128150D01*
X0095592Y0127150D01*
X0097092Y0127150D01*
X0097092Y0127485D02*
X0095592Y0127485D01*
X0095592Y0127984D02*
X0097092Y0127984D01*
X0093092Y0127984D02*
X0091592Y0127984D01*
X0091592Y0128150D02*
X0091592Y0127150D01*
X0093092Y0127150D01*
X0093092Y0128150D01*
X0091592Y0128150D01*
X0091592Y0127485D02*
X0093092Y0127485D01*
X0093092Y0269050D02*
X0093092Y0270050D01*
X0091592Y0270050D01*
X0091592Y0269050D01*
X0093092Y0269050D01*
X0093092Y0269062D02*
X0091592Y0269062D01*
X0091592Y0269561D02*
X0093092Y0269561D01*
X0095592Y0269561D02*
X0097092Y0269561D01*
X0097092Y0270050D02*
X0097092Y0269050D01*
X0095592Y0269050D01*
X0095592Y0270050D01*
X0097092Y0270050D01*
X0097092Y0269062D02*
X0095592Y0269062D01*
X0372592Y0228050D02*
X0372592Y0227050D01*
X0374092Y0227050D01*
X0374092Y0228050D01*
X0372592Y0228050D01*
X0372592Y0227686D02*
X0374092Y0227686D01*
X0374092Y0227187D02*
X0372592Y0227187D01*
X0372692Y0219050D02*
X0372692Y0218050D01*
X0374192Y0218050D01*
X0374192Y0219050D01*
X0372692Y0219050D01*
X0372692Y0218713D02*
X0374192Y0218713D01*
X0374192Y0218214D02*
X0372692Y0218214D01*
X0372592Y0086150D02*
X0372592Y0085150D01*
X0374092Y0085150D01*
X0374092Y0086150D01*
X0372592Y0086150D01*
X0372592Y0086109D02*
X0374092Y0086109D01*
X0374092Y0085610D02*
X0372592Y0085610D01*
X0372692Y0077150D02*
X0372692Y0076150D01*
X0374192Y0076150D01*
X0374192Y0077150D01*
X0372692Y0077150D01*
X0372692Y0077135D02*
X0374192Y0077135D01*
X0374192Y0076637D02*
X0372692Y0076637D01*
X0372692Y0359950D02*
X0374192Y0359950D01*
X0374192Y0360950D01*
X0372692Y0360950D01*
X0372692Y0359950D01*
X0372692Y0360290D02*
X0374192Y0360290D01*
X0374192Y0360788D02*
X0372692Y0360788D01*
X0372592Y0368950D02*
X0374092Y0368950D01*
X0374092Y0369950D01*
X0372592Y0369950D01*
X0372592Y0368950D01*
X0372592Y0369263D02*
X0374092Y0369263D01*
X0374092Y0369762D02*
X0372592Y0369762D01*
X0372692Y0501850D02*
X0374192Y0501850D01*
X0374192Y0502850D01*
X0372692Y0502850D01*
X0372692Y0501850D01*
X0372692Y0501867D02*
X0374192Y0501867D01*
X0374192Y0502366D02*
X0372692Y0502366D01*
X0372592Y0510850D02*
X0374092Y0510850D01*
X0374092Y0511850D01*
X0372592Y0511850D01*
X0372592Y0510850D01*
X0372592Y0511339D02*
X0374092Y0511339D01*
X0374092Y0511837D02*
X0372592Y0511837D01*
D13*
X0393842Y0466950D03*
X0393842Y0325050D03*
X0393842Y0183150D03*
X0393842Y0041250D03*
X0238842Y0166150D03*
X0231842Y0183150D03*
X0238842Y0308050D03*
X0231842Y0325050D03*
X0238842Y0449950D03*
X0231842Y0466950D03*
X0238842Y0591850D03*
X0076842Y0591850D03*
X0076842Y0449950D03*
X0076842Y0308050D03*
X0076842Y0166150D03*
X0231842Y0041250D03*
D14*
X0199342Y0043750D03*
X0189342Y0043750D03*
X0179342Y0043750D03*
X0169342Y0043750D03*
X0159342Y0043750D03*
X0149342Y0043750D03*
X0139342Y0043750D03*
X0129342Y0043750D03*
X0149342Y0163750D03*
X0159342Y0163750D03*
X0169342Y0163750D03*
X0179342Y0163750D03*
X0189342Y0163750D03*
X0199342Y0163750D03*
X0209342Y0163750D03*
X0199342Y0185650D03*
X0189342Y0185650D03*
X0179342Y0185650D03*
X0169342Y0185650D03*
X0159342Y0185650D03*
X0149342Y0185650D03*
X0139342Y0185650D03*
X0129342Y0185650D03*
X0149342Y0305650D03*
X0159342Y0305650D03*
X0169342Y0305650D03*
X0179342Y0305650D03*
X0189342Y0305650D03*
X0199342Y0305650D03*
X0209342Y0305650D03*
X0199342Y0327550D03*
X0189342Y0327550D03*
X0179342Y0327550D03*
X0169342Y0327550D03*
X0159342Y0327550D03*
X0149342Y0327550D03*
X0139342Y0327550D03*
X0129342Y0327550D03*
X0149342Y0447550D03*
X0159342Y0447550D03*
X0169342Y0447550D03*
X0179342Y0447550D03*
X0189342Y0447550D03*
X0199342Y0447550D03*
X0209342Y0447550D03*
X0199342Y0469450D03*
X0189342Y0469450D03*
X0179342Y0469450D03*
X0169342Y0469450D03*
X0159342Y0469450D03*
X0149342Y0469450D03*
X0139342Y0469450D03*
X0129342Y0469450D03*
X0149342Y0589450D03*
X0159342Y0589450D03*
X0169342Y0589450D03*
X0179342Y0589450D03*
X0189342Y0589450D03*
X0199342Y0589450D03*
X0209342Y0589450D03*
X0291342Y0469450D03*
X0301342Y0469450D03*
X0311342Y0469450D03*
X0321342Y0469450D03*
X0331342Y0469450D03*
X0341342Y0469450D03*
X0351342Y0469450D03*
X0361342Y0469450D03*
X0361342Y0447550D03*
X0351342Y0447550D03*
X0341342Y0447550D03*
X0331342Y0447550D03*
X0321342Y0447550D03*
X0311342Y0447550D03*
X0371342Y0447550D03*
X0361342Y0327550D03*
X0351342Y0327550D03*
X0341342Y0327550D03*
X0331342Y0327550D03*
X0321342Y0327550D03*
X0311342Y0327550D03*
X0301342Y0327550D03*
X0291342Y0327550D03*
X0311342Y0305650D03*
X0321342Y0305650D03*
X0331342Y0305650D03*
X0341342Y0305650D03*
X0351342Y0305650D03*
X0361342Y0305650D03*
X0371342Y0305650D03*
X0361342Y0185650D03*
X0351342Y0185650D03*
X0341342Y0185650D03*
X0331342Y0185650D03*
X0321342Y0185650D03*
X0311342Y0185650D03*
X0301342Y0185650D03*
X0291342Y0185650D03*
X0311342Y0163750D03*
X0321342Y0163750D03*
X0331342Y0163750D03*
X0341342Y0163750D03*
X0351342Y0163750D03*
X0361342Y0163750D03*
X0371342Y0163750D03*
X0361342Y0043750D03*
X0351342Y0043750D03*
X0341342Y0043750D03*
X0331342Y0043750D03*
X0321342Y0043750D03*
X0311342Y0043750D03*
X0301342Y0043750D03*
X0291342Y0043750D03*
X0311342Y0589450D03*
X0321342Y0589450D03*
X0331342Y0589450D03*
X0341342Y0589450D03*
X0351342Y0589450D03*
X0361342Y0589450D03*
X0371342Y0589450D03*
D15*
X0289120Y0575839D03*
X0266364Y0575839D03*
X0266364Y0433939D03*
X0289120Y0433939D03*
X0289120Y0292039D03*
X0266364Y0292039D03*
X0266364Y0150139D03*
X0289120Y0150139D03*
X0127120Y0150139D03*
X0104364Y0150139D03*
X0104364Y0292039D03*
X0127120Y0292039D03*
X0127120Y0433939D03*
X0104364Y0433939D03*
X0104364Y0575839D03*
X0127120Y0575839D03*
D16*
X0131569Y0575918D02*
X0131569Y0571587D01*
X0131603Y0571304D01*
X0131704Y0571038D01*
X0131866Y0570804D01*
X0132079Y0570615D01*
X0132331Y0570483D01*
X0132607Y0570415D01*
X0132892Y0570415D01*
X0133169Y0570483D01*
X0133421Y0570615D01*
X0133634Y0570804D01*
X0133795Y0571038D01*
X0133896Y0571304D01*
X0133931Y0571587D01*
X0133931Y0575918D01*
X0133896Y0576200D01*
X0133795Y0576467D01*
X0133634Y0576701D01*
X0133421Y0576890D01*
X0133169Y0577022D01*
X0132892Y0577090D01*
X0132607Y0577090D01*
X0132331Y0577022D01*
X0132079Y0576890D01*
X0131866Y0576701D01*
X0131704Y0576467D01*
X0131603Y0576200D01*
X0131569Y0575918D01*
X0131608Y0576213D02*
X0133892Y0576213D01*
X0133931Y0575615D02*
X0131569Y0575615D01*
X0131569Y0575016D02*
X0133931Y0575016D01*
X0133931Y0574418D02*
X0131569Y0574418D01*
X0131569Y0573819D02*
X0133931Y0573819D01*
X0133931Y0573221D02*
X0131569Y0573221D01*
X0131569Y0572622D02*
X0133931Y0572622D01*
X0133931Y0572024D02*
X0131569Y0572024D01*
X0131588Y0571425D02*
X0133911Y0571425D01*
X0133649Y0570827D02*
X0131850Y0570827D01*
X0131991Y0576812D02*
X0133509Y0576812D01*
X0132892Y0587796D02*
X0132607Y0587796D01*
X0132331Y0587865D01*
X0132079Y0587997D01*
X0131866Y0588186D01*
X0131704Y0588420D01*
X0131603Y0588686D01*
X0131569Y0588969D01*
X0131569Y0591410D01*
X0131603Y0591692D01*
X0131704Y0591959D01*
X0131866Y0592193D01*
X0132079Y0592382D01*
X0132331Y0592514D01*
X0132607Y0592582D01*
X0132892Y0592582D01*
X0133169Y0592514D01*
X0133421Y0592382D01*
X0133634Y0592193D01*
X0133795Y0591959D01*
X0133896Y0591692D01*
X0133931Y0591410D01*
X0133931Y0588969D01*
X0133896Y0588686D01*
X0133795Y0588420D01*
X0133634Y0588186D01*
X0133421Y0587997D01*
X0133169Y0587865D01*
X0132892Y0587796D01*
X0133631Y0588183D02*
X0131868Y0588183D01*
X0131591Y0588782D02*
X0133908Y0588782D01*
X0133931Y0589380D02*
X0131569Y0589380D01*
X0131569Y0589979D02*
X0133931Y0589979D01*
X0133931Y0590577D02*
X0131569Y0590577D01*
X0131569Y0591176D02*
X0133931Y0591176D01*
X0133865Y0591774D02*
X0131634Y0591774D01*
X0132069Y0592373D02*
X0133431Y0592373D01*
X0099915Y0591410D02*
X0099881Y0591692D01*
X0099780Y0591959D01*
X0099618Y0592193D01*
X0099405Y0592382D01*
X0099153Y0592514D01*
X0098876Y0592582D01*
X0098592Y0592582D01*
X0098315Y0592514D01*
X0098063Y0592382D01*
X0097850Y0592193D01*
X0097688Y0591959D01*
X0097587Y0591692D01*
X0097553Y0591410D01*
X0097553Y0588969D01*
X0097587Y0588686D01*
X0097688Y0588420D01*
X0097850Y0588186D01*
X0098063Y0587997D01*
X0098315Y0587865D01*
X0098592Y0587796D01*
X0098876Y0587796D01*
X0099153Y0587865D01*
X0099405Y0587997D01*
X0099618Y0588186D01*
X0099780Y0588420D01*
X0099881Y0588686D01*
X0099915Y0588969D01*
X0099915Y0591410D01*
X0099915Y0591176D02*
X0097553Y0591176D01*
X0097553Y0590577D02*
X0099915Y0590577D01*
X0099915Y0589979D02*
X0097553Y0589979D01*
X0097553Y0589380D02*
X0099915Y0589380D01*
X0099892Y0588782D02*
X0097576Y0588782D01*
X0097852Y0588183D02*
X0099615Y0588183D01*
X0099850Y0591774D02*
X0097618Y0591774D01*
X0098053Y0592373D02*
X0099415Y0592373D01*
X0098876Y0577090D02*
X0099153Y0577022D01*
X0099405Y0576890D01*
X0099618Y0576701D01*
X0099780Y0576467D01*
X0099881Y0576200D01*
X0099915Y0575918D01*
X0099915Y0571587D01*
X0099881Y0571304D01*
X0099780Y0571038D01*
X0099618Y0570804D01*
X0099405Y0570615D01*
X0099153Y0570483D01*
X0098876Y0570415D01*
X0098592Y0570415D01*
X0098315Y0570483D01*
X0098063Y0570615D01*
X0097850Y0570804D01*
X0097688Y0571038D01*
X0097587Y0571304D01*
X0097553Y0571587D01*
X0097553Y0575918D01*
X0097587Y0576200D01*
X0097688Y0576467D01*
X0097850Y0576701D01*
X0098063Y0576890D01*
X0098315Y0577022D01*
X0098592Y0577090D01*
X0098876Y0577090D01*
X0099493Y0576812D02*
X0097975Y0576812D01*
X0097592Y0576213D02*
X0099876Y0576213D01*
X0099915Y0575615D02*
X0097553Y0575615D01*
X0097553Y0575016D02*
X0099915Y0575016D01*
X0099915Y0574418D02*
X0097553Y0574418D01*
X0097553Y0573819D02*
X0099915Y0573819D01*
X0099915Y0573221D02*
X0097553Y0573221D01*
X0097553Y0572622D02*
X0099915Y0572622D01*
X0099915Y0572024D02*
X0097553Y0572024D01*
X0097573Y0571425D02*
X0099895Y0571425D01*
X0099634Y0570827D02*
X0097834Y0570827D01*
X0098592Y0450682D02*
X0098315Y0450614D01*
X0098063Y0450482D01*
X0097850Y0450293D01*
X0097688Y0450059D01*
X0097587Y0449792D01*
X0097553Y0449510D01*
X0097553Y0447069D01*
X0097587Y0446786D01*
X0097688Y0446520D01*
X0097850Y0446286D01*
X0098063Y0446097D01*
X0098315Y0445965D01*
X0098592Y0445896D01*
X0098876Y0445896D01*
X0099153Y0445965D01*
X0099405Y0446097D01*
X0099618Y0446286D01*
X0099780Y0446520D01*
X0099881Y0446786D01*
X0099915Y0447069D01*
X0099915Y0449510D01*
X0099881Y0449792D01*
X0099780Y0450059D01*
X0099618Y0450293D01*
X0099405Y0450482D01*
X0099153Y0450614D01*
X0098876Y0450682D01*
X0098592Y0450682D01*
X0098147Y0450526D02*
X0099321Y0450526D01*
X0099830Y0449927D02*
X0097638Y0449927D01*
X0097553Y0449329D02*
X0099915Y0449329D01*
X0099915Y0448730D02*
X0097553Y0448730D01*
X0097553Y0448132D02*
X0099915Y0448132D01*
X0099915Y0447533D02*
X0097553Y0447533D01*
X0097569Y0446935D02*
X0099899Y0446935D01*
X0099653Y0446336D02*
X0097815Y0446336D01*
X0098592Y0435190D02*
X0098876Y0435190D01*
X0099153Y0435122D01*
X0099405Y0434990D01*
X0099618Y0434801D01*
X0099780Y0434567D01*
X0099881Y0434300D01*
X0099915Y0434018D01*
X0099915Y0429687D01*
X0099881Y0429404D01*
X0099780Y0429138D01*
X0099618Y0428904D01*
X0099405Y0428715D01*
X0099153Y0428583D01*
X0098876Y0428515D01*
X0098592Y0428515D01*
X0098315Y0428583D01*
X0098063Y0428715D01*
X0097850Y0428904D01*
X0097688Y0429138D01*
X0097587Y0429404D01*
X0097553Y0429687D01*
X0097553Y0434018D01*
X0097587Y0434300D01*
X0097688Y0434567D01*
X0097850Y0434801D01*
X0098063Y0434990D01*
X0098315Y0435122D01*
X0098592Y0435190D01*
X0098034Y0434964D02*
X0099433Y0434964D01*
X0099856Y0434366D02*
X0097612Y0434366D01*
X0097553Y0433767D02*
X0099915Y0433767D01*
X0099915Y0433169D02*
X0097553Y0433169D01*
X0097553Y0432570D02*
X0099915Y0432570D01*
X0099915Y0431972D02*
X0097553Y0431972D01*
X0097553Y0431373D02*
X0099915Y0431373D01*
X0099915Y0430775D02*
X0097553Y0430775D01*
X0097553Y0430176D02*
X0099915Y0430176D01*
X0099902Y0429578D02*
X0097566Y0429578D01*
X0097798Y0428979D02*
X0099670Y0428979D01*
X0131569Y0429687D02*
X0131569Y0434018D01*
X0131603Y0434300D01*
X0131704Y0434567D01*
X0131866Y0434801D01*
X0132079Y0434990D01*
X0132331Y0435122D01*
X0132607Y0435190D01*
X0132892Y0435190D01*
X0133169Y0435122D01*
X0133421Y0434990D01*
X0133634Y0434801D01*
X0133795Y0434567D01*
X0133896Y0434300D01*
X0133931Y0434018D01*
X0133931Y0429687D01*
X0133896Y0429404D01*
X0133795Y0429138D01*
X0133634Y0428904D01*
X0133421Y0428715D01*
X0133169Y0428583D01*
X0132892Y0428515D01*
X0132607Y0428515D01*
X0132331Y0428583D01*
X0132079Y0428715D01*
X0131866Y0428904D01*
X0131704Y0429138D01*
X0131603Y0429404D01*
X0131569Y0429687D01*
X0131582Y0429578D02*
X0133918Y0429578D01*
X0133931Y0430176D02*
X0131569Y0430176D01*
X0131569Y0430775D02*
X0133931Y0430775D01*
X0133931Y0431373D02*
X0131569Y0431373D01*
X0131569Y0431972D02*
X0133931Y0431972D01*
X0133931Y0432570D02*
X0131569Y0432570D01*
X0131569Y0433169D02*
X0133931Y0433169D01*
X0133931Y0433767D02*
X0131569Y0433767D01*
X0131628Y0434366D02*
X0133872Y0434366D01*
X0133449Y0434964D02*
X0132050Y0434964D01*
X0131813Y0428979D02*
X0133686Y0428979D01*
X0132892Y0445896D02*
X0132607Y0445896D01*
X0132331Y0445965D01*
X0132079Y0446097D01*
X0131866Y0446286D01*
X0131704Y0446520D01*
X0131603Y0446786D01*
X0131569Y0447069D01*
X0131569Y0449510D01*
X0131603Y0449792D01*
X0131704Y0450059D01*
X0131866Y0450293D01*
X0132079Y0450482D01*
X0132331Y0450614D01*
X0132607Y0450682D01*
X0132892Y0450682D01*
X0133169Y0450614D01*
X0133421Y0450482D01*
X0133634Y0450293D01*
X0133795Y0450059D01*
X0133896Y0449792D01*
X0133931Y0449510D01*
X0133931Y0447069D01*
X0133896Y0446786D01*
X0133795Y0446520D01*
X0133634Y0446286D01*
X0133421Y0446097D01*
X0133169Y0445965D01*
X0132892Y0445896D01*
X0133669Y0446336D02*
X0131831Y0446336D01*
X0131585Y0446935D02*
X0133914Y0446935D01*
X0133931Y0447533D02*
X0131569Y0447533D01*
X0131569Y0448132D02*
X0133931Y0448132D01*
X0133931Y0448730D02*
X0131569Y0448730D01*
X0131569Y0449329D02*
X0133931Y0449329D01*
X0133845Y0449927D02*
X0131654Y0449927D01*
X0132162Y0450526D02*
X0133337Y0450526D01*
X0132892Y0308782D02*
X0133169Y0308714D01*
X0133421Y0308582D01*
X0133634Y0308393D01*
X0133795Y0308159D01*
X0133896Y0307892D01*
X0133931Y0307610D01*
X0133931Y0305169D01*
X0133896Y0304886D01*
X0133795Y0304620D01*
X0133634Y0304386D01*
X0133421Y0304197D01*
X0133169Y0304065D01*
X0132892Y0303996D01*
X0132607Y0303996D01*
X0132331Y0304065D01*
X0132079Y0304197D01*
X0131866Y0304386D01*
X0131704Y0304620D01*
X0131603Y0304886D01*
X0131569Y0305169D01*
X0131569Y0307610D01*
X0131603Y0307892D01*
X0131704Y0308159D01*
X0131866Y0308393D01*
X0132079Y0308582D01*
X0132331Y0308714D01*
X0132607Y0308782D01*
X0132892Y0308782D01*
X0133236Y0308679D02*
X0132263Y0308679D01*
X0131674Y0308080D02*
X0133825Y0308080D01*
X0133931Y0307482D02*
X0131569Y0307482D01*
X0131569Y0306883D02*
X0133931Y0306883D01*
X0133931Y0306285D02*
X0131569Y0306285D01*
X0131569Y0305686D02*
X0133931Y0305686D01*
X0133921Y0305088D02*
X0131578Y0305088D01*
X0131794Y0304489D02*
X0133705Y0304489D01*
X0132892Y0293290D02*
X0133169Y0293222D01*
X0133421Y0293090D01*
X0133634Y0292901D01*
X0133795Y0292667D01*
X0133896Y0292400D01*
X0133931Y0292118D01*
X0133931Y0287787D01*
X0133896Y0287504D01*
X0133795Y0287238D01*
X0133634Y0287004D01*
X0133421Y0286815D01*
X0133169Y0286683D01*
X0132892Y0286615D01*
X0132607Y0286615D01*
X0132331Y0286683D01*
X0132079Y0286815D01*
X0131866Y0287004D01*
X0131704Y0287238D01*
X0131603Y0287504D01*
X0131569Y0287787D01*
X0131569Y0292118D01*
X0131603Y0292400D01*
X0131704Y0292667D01*
X0131866Y0292901D01*
X0132079Y0293090D01*
X0132331Y0293222D01*
X0132607Y0293290D01*
X0132892Y0293290D01*
X0133368Y0293117D02*
X0132131Y0293117D01*
X0131648Y0292519D02*
X0133852Y0292519D01*
X0133931Y0291920D02*
X0131569Y0291920D01*
X0131569Y0291322D02*
X0133931Y0291322D01*
X0133931Y0290723D02*
X0131569Y0290723D01*
X0131569Y0290125D02*
X0133931Y0290125D01*
X0133931Y0289526D02*
X0131569Y0289526D01*
X0131569Y0288928D02*
X0133931Y0288928D01*
X0133931Y0288329D02*
X0131569Y0288329D01*
X0131575Y0287731D02*
X0133924Y0287731D01*
X0133722Y0287132D02*
X0131777Y0287132D01*
X0099915Y0287787D02*
X0099881Y0287504D01*
X0099780Y0287238D01*
X0099618Y0287004D01*
X0099405Y0286815D01*
X0099153Y0286683D01*
X0098876Y0286615D01*
X0098592Y0286615D01*
X0098315Y0286683D01*
X0098063Y0286815D01*
X0097850Y0287004D01*
X0097688Y0287238D01*
X0097587Y0287504D01*
X0097553Y0287787D01*
X0097553Y0292118D01*
X0097587Y0292400D01*
X0097688Y0292667D01*
X0097850Y0292901D01*
X0098063Y0293090D01*
X0098315Y0293222D01*
X0098592Y0293290D01*
X0098876Y0293290D01*
X0099153Y0293222D01*
X0099405Y0293090D01*
X0099618Y0292901D01*
X0099780Y0292667D01*
X0099881Y0292400D01*
X0099915Y0292118D01*
X0099915Y0287787D01*
X0099908Y0287731D02*
X0097560Y0287731D01*
X0097553Y0288329D02*
X0099915Y0288329D01*
X0099915Y0288928D02*
X0097553Y0288928D01*
X0097553Y0289526D02*
X0099915Y0289526D01*
X0099915Y0290125D02*
X0097553Y0290125D01*
X0097553Y0290723D02*
X0099915Y0290723D01*
X0099915Y0291322D02*
X0097553Y0291322D01*
X0097553Y0291920D02*
X0099915Y0291920D01*
X0099836Y0292519D02*
X0097632Y0292519D01*
X0098116Y0293117D02*
X0099352Y0293117D01*
X0099707Y0287132D02*
X0097761Y0287132D01*
X0098592Y0303996D02*
X0098876Y0303996D01*
X0099153Y0304065D01*
X0099405Y0304197D01*
X0099618Y0304386D01*
X0099780Y0304620D01*
X0099881Y0304886D01*
X0099915Y0305169D01*
X0099915Y0307610D01*
X0099881Y0307892D01*
X0099780Y0308159D01*
X0099618Y0308393D01*
X0099405Y0308582D01*
X0099153Y0308714D01*
X0098876Y0308782D01*
X0098592Y0308782D01*
X0098315Y0308714D01*
X0098063Y0308582D01*
X0097850Y0308393D01*
X0097688Y0308159D01*
X0097587Y0307892D01*
X0097553Y0307610D01*
X0097553Y0305169D01*
X0097587Y0304886D01*
X0097688Y0304620D01*
X0097850Y0304386D01*
X0098063Y0304197D01*
X0098315Y0304065D01*
X0098592Y0303996D01*
X0097779Y0304489D02*
X0099689Y0304489D01*
X0099905Y0305088D02*
X0097563Y0305088D01*
X0097553Y0305686D02*
X0099915Y0305686D01*
X0099915Y0306285D02*
X0097553Y0306285D01*
X0097553Y0306883D02*
X0099915Y0306883D01*
X0099915Y0307482D02*
X0097553Y0307482D01*
X0097658Y0308080D02*
X0099810Y0308080D01*
X0099221Y0308679D02*
X0098247Y0308679D01*
X0098592Y0166882D02*
X0098315Y0166814D01*
X0098063Y0166682D01*
X0097850Y0166493D01*
X0097688Y0166259D01*
X0097587Y0165992D01*
X0097553Y0165710D01*
X0097553Y0163269D01*
X0097587Y0162986D01*
X0097688Y0162720D01*
X0097850Y0162486D01*
X0098063Y0162297D01*
X0098315Y0162165D01*
X0098592Y0162096D01*
X0098876Y0162096D01*
X0099153Y0162165D01*
X0099405Y0162297D01*
X0099618Y0162486D01*
X0099780Y0162720D01*
X0099881Y0162986D01*
X0099915Y0163269D01*
X0099915Y0165710D01*
X0099881Y0165992D01*
X0099780Y0166259D01*
X0099618Y0166493D01*
X0099405Y0166682D01*
X0099153Y0166814D01*
X0098876Y0166882D01*
X0098592Y0166882D01*
X0098385Y0166831D02*
X0099083Y0166831D01*
X0099790Y0166233D02*
X0097678Y0166233D01*
X0097553Y0165634D02*
X0099915Y0165634D01*
X0099915Y0165036D02*
X0097553Y0165036D01*
X0097553Y0164437D02*
X0099915Y0164437D01*
X0099915Y0163839D02*
X0097553Y0163839D01*
X0097556Y0163240D02*
X0099912Y0163240D01*
X0099726Y0162642D02*
X0097742Y0162642D01*
X0098592Y0151390D02*
X0098876Y0151390D01*
X0099153Y0151322D01*
X0099405Y0151190D01*
X0099618Y0151001D01*
X0099780Y0150767D01*
X0099881Y0150500D01*
X0099915Y0150218D01*
X0099915Y0145887D01*
X0099881Y0145604D01*
X0099780Y0145338D01*
X0099618Y0145104D01*
X0099405Y0144915D01*
X0099153Y0144783D01*
X0098876Y0144715D01*
X0098592Y0144715D01*
X0098315Y0144783D01*
X0098063Y0144915D01*
X0097850Y0145104D01*
X0097688Y0145338D01*
X0097587Y0145604D01*
X0097553Y0145887D01*
X0097553Y0150218D01*
X0097587Y0150500D01*
X0097688Y0150767D01*
X0097850Y0151001D01*
X0098063Y0151190D01*
X0098315Y0151322D01*
X0098592Y0151390D01*
X0098216Y0151270D02*
X0099252Y0151270D01*
X0099816Y0150672D02*
X0097652Y0150672D01*
X0097553Y0150073D02*
X0099915Y0150073D01*
X0099915Y0149475D02*
X0097553Y0149475D01*
X0097553Y0148876D02*
X0099915Y0148876D01*
X0099915Y0148278D02*
X0097553Y0148278D01*
X0097553Y0147679D02*
X0099915Y0147679D01*
X0099915Y0147081D02*
X0097553Y0147081D01*
X0097553Y0146482D02*
X0099915Y0146482D01*
X0099915Y0145884D02*
X0097553Y0145884D01*
X0097725Y0145285D02*
X0099743Y0145285D01*
X0131569Y0145887D02*
X0131569Y0150218D01*
X0131603Y0150500D01*
X0131704Y0150767D01*
X0131866Y0151001D01*
X0132079Y0151190D01*
X0132331Y0151322D01*
X0132607Y0151390D01*
X0132892Y0151390D01*
X0133169Y0151322D01*
X0133421Y0151190D01*
X0133634Y0151001D01*
X0133795Y0150767D01*
X0133896Y0150500D01*
X0133931Y0150218D01*
X0133931Y0145887D01*
X0133896Y0145604D01*
X0133795Y0145338D01*
X0133634Y0145104D01*
X0133421Y0144915D01*
X0133169Y0144783D01*
X0132892Y0144715D01*
X0132607Y0144715D01*
X0132331Y0144783D01*
X0132079Y0144915D01*
X0131866Y0145104D01*
X0131704Y0145338D01*
X0131603Y0145604D01*
X0131569Y0145887D01*
X0131569Y0145884D02*
X0133930Y0145884D01*
X0133931Y0146482D02*
X0131569Y0146482D01*
X0131569Y0147081D02*
X0133931Y0147081D01*
X0133931Y0147679D02*
X0131569Y0147679D01*
X0131569Y0148278D02*
X0133931Y0148278D01*
X0133931Y0148876D02*
X0131569Y0148876D01*
X0131569Y0149475D02*
X0133931Y0149475D01*
X0133931Y0150073D02*
X0131569Y0150073D01*
X0131668Y0150672D02*
X0133832Y0150672D01*
X0133267Y0151270D02*
X0132232Y0151270D01*
X0131741Y0145285D02*
X0133759Y0145285D01*
X0132892Y0162096D02*
X0132607Y0162096D01*
X0132331Y0162165D01*
X0132079Y0162297D01*
X0131866Y0162486D01*
X0131704Y0162720D01*
X0131603Y0162986D01*
X0131569Y0163269D01*
X0131569Y0165710D01*
X0131603Y0165992D01*
X0131704Y0166259D01*
X0131866Y0166493D01*
X0132079Y0166682D01*
X0132331Y0166814D01*
X0132607Y0166882D01*
X0132892Y0166882D01*
X0133169Y0166814D01*
X0133421Y0166682D01*
X0133634Y0166493D01*
X0133795Y0166259D01*
X0133896Y0165992D01*
X0133931Y0165710D01*
X0133931Y0163269D01*
X0133896Y0162986D01*
X0133795Y0162720D01*
X0133634Y0162486D01*
X0133421Y0162297D01*
X0133169Y0162165D01*
X0132892Y0162096D01*
X0133742Y0162642D02*
X0131758Y0162642D01*
X0131572Y0163240D02*
X0133927Y0163240D01*
X0133931Y0163839D02*
X0131569Y0163839D01*
X0131569Y0164437D02*
X0133931Y0164437D01*
X0133931Y0165036D02*
X0131569Y0165036D01*
X0131569Y0165634D02*
X0133931Y0165634D01*
X0133805Y0166233D02*
X0131694Y0166233D01*
X0132401Y0166831D02*
X0133099Y0166831D01*
X0259553Y0165710D02*
X0259553Y0163269D01*
X0259587Y0162986D01*
X0259688Y0162720D01*
X0259850Y0162486D01*
X0260063Y0162297D01*
X0260315Y0162165D01*
X0260592Y0162096D01*
X0260876Y0162096D01*
X0261153Y0162165D01*
X0261405Y0162297D01*
X0261618Y0162486D01*
X0261780Y0162720D01*
X0261881Y0162986D01*
X0261915Y0163269D01*
X0261915Y0165710D01*
X0261881Y0165992D01*
X0261780Y0166259D01*
X0261618Y0166493D01*
X0261405Y0166682D01*
X0261153Y0166814D01*
X0260876Y0166882D01*
X0260592Y0166882D01*
X0260315Y0166814D01*
X0260063Y0166682D01*
X0259850Y0166493D01*
X0259688Y0166259D01*
X0259587Y0165992D01*
X0259553Y0165710D01*
X0259553Y0165634D02*
X0261915Y0165634D01*
X0261915Y0165036D02*
X0259553Y0165036D01*
X0259553Y0164437D02*
X0261915Y0164437D01*
X0261915Y0163839D02*
X0259553Y0163839D01*
X0259556Y0163240D02*
X0261912Y0163240D01*
X0261726Y0162642D02*
X0259742Y0162642D01*
X0259678Y0166233D02*
X0261790Y0166233D01*
X0261083Y0166831D02*
X0260385Y0166831D01*
X0260592Y0151390D02*
X0260876Y0151390D01*
X0261153Y0151322D01*
X0261405Y0151190D01*
X0261618Y0151001D01*
X0261780Y0150767D01*
X0261881Y0150500D01*
X0261915Y0150218D01*
X0261915Y0145887D01*
X0261881Y0145604D01*
X0261780Y0145338D01*
X0261618Y0145104D01*
X0261405Y0144915D01*
X0261153Y0144783D01*
X0260876Y0144715D01*
X0260592Y0144715D01*
X0260315Y0144783D01*
X0260063Y0144915D01*
X0259850Y0145104D01*
X0259688Y0145338D01*
X0259587Y0145604D01*
X0259553Y0145887D01*
X0259553Y0150218D01*
X0259587Y0150500D01*
X0259688Y0150767D01*
X0259850Y0151001D01*
X0260063Y0151190D01*
X0260315Y0151322D01*
X0260592Y0151390D01*
X0260216Y0151270D02*
X0261252Y0151270D01*
X0261816Y0150672D02*
X0259652Y0150672D01*
X0259553Y0150073D02*
X0261915Y0150073D01*
X0261915Y0149475D02*
X0259553Y0149475D01*
X0259553Y0148876D02*
X0261915Y0148876D01*
X0261915Y0148278D02*
X0259553Y0148278D01*
X0259553Y0147679D02*
X0261915Y0147679D01*
X0261915Y0147081D02*
X0259553Y0147081D01*
X0259553Y0146482D02*
X0261915Y0146482D01*
X0261915Y0145884D02*
X0259553Y0145884D01*
X0259725Y0145285D02*
X0261743Y0145285D01*
X0293569Y0145887D02*
X0293569Y0150218D01*
X0293603Y0150500D01*
X0293704Y0150767D01*
X0293866Y0151001D01*
X0294079Y0151190D01*
X0294331Y0151322D01*
X0294607Y0151390D01*
X0294892Y0151390D01*
X0295169Y0151322D01*
X0295421Y0151190D01*
X0295634Y0151001D01*
X0295795Y0150767D01*
X0295896Y0150500D01*
X0295931Y0150218D01*
X0295931Y0145887D01*
X0295896Y0145604D01*
X0295795Y0145338D01*
X0295634Y0145104D01*
X0295421Y0144915D01*
X0295169Y0144783D01*
X0294892Y0144715D01*
X0294607Y0144715D01*
X0294331Y0144783D01*
X0294079Y0144915D01*
X0293866Y0145104D01*
X0293704Y0145338D01*
X0293603Y0145604D01*
X0293569Y0145887D01*
X0293569Y0145884D02*
X0295930Y0145884D01*
X0295931Y0146482D02*
X0293569Y0146482D01*
X0293569Y0147081D02*
X0295931Y0147081D01*
X0295931Y0147679D02*
X0293569Y0147679D01*
X0293569Y0148278D02*
X0295931Y0148278D01*
X0295931Y0148876D02*
X0293569Y0148876D01*
X0293569Y0149475D02*
X0295931Y0149475D01*
X0295931Y0150073D02*
X0293569Y0150073D01*
X0293668Y0150672D02*
X0295832Y0150672D01*
X0295267Y0151270D02*
X0294232Y0151270D01*
X0293741Y0145285D02*
X0295759Y0145285D01*
X0294892Y0162096D02*
X0294607Y0162096D01*
X0294331Y0162165D01*
X0294079Y0162297D01*
X0293866Y0162486D01*
X0293704Y0162720D01*
X0293603Y0162986D01*
X0293569Y0163269D01*
X0293569Y0165710D01*
X0293603Y0165992D01*
X0293704Y0166259D01*
X0293866Y0166493D01*
X0294079Y0166682D01*
X0294331Y0166814D01*
X0294607Y0166882D01*
X0294892Y0166882D01*
X0295169Y0166814D01*
X0295421Y0166682D01*
X0295634Y0166493D01*
X0295795Y0166259D01*
X0295896Y0165992D01*
X0295931Y0165710D01*
X0295931Y0163269D01*
X0295896Y0162986D01*
X0295795Y0162720D01*
X0295634Y0162486D01*
X0295421Y0162297D01*
X0295169Y0162165D01*
X0294892Y0162096D01*
X0295742Y0162642D02*
X0293758Y0162642D01*
X0293572Y0163240D02*
X0295927Y0163240D01*
X0295931Y0163839D02*
X0293569Y0163839D01*
X0293569Y0164437D02*
X0295931Y0164437D01*
X0295931Y0165036D02*
X0293569Y0165036D01*
X0293569Y0165634D02*
X0295931Y0165634D01*
X0295805Y0166233D02*
X0293694Y0166233D01*
X0294401Y0166831D02*
X0295099Y0166831D01*
X0294892Y0286615D02*
X0294607Y0286615D01*
X0294331Y0286683D01*
X0294079Y0286815D01*
X0293866Y0287004D01*
X0293704Y0287238D01*
X0293603Y0287504D01*
X0293569Y0287787D01*
X0293569Y0292118D01*
X0293603Y0292400D01*
X0293704Y0292667D01*
X0293866Y0292901D01*
X0294079Y0293090D01*
X0294331Y0293222D01*
X0294607Y0293290D01*
X0294892Y0293290D01*
X0295169Y0293222D01*
X0295421Y0293090D01*
X0295634Y0292901D01*
X0295795Y0292667D01*
X0295896Y0292400D01*
X0295931Y0292118D01*
X0295931Y0287787D01*
X0295896Y0287504D01*
X0295795Y0287238D01*
X0295634Y0287004D01*
X0295421Y0286815D01*
X0295169Y0286683D01*
X0294892Y0286615D01*
X0295722Y0287132D02*
X0293777Y0287132D01*
X0293575Y0287731D02*
X0295924Y0287731D01*
X0295931Y0288329D02*
X0293569Y0288329D01*
X0293569Y0288928D02*
X0295931Y0288928D01*
X0295931Y0289526D02*
X0293569Y0289526D01*
X0293569Y0290125D02*
X0295931Y0290125D01*
X0295931Y0290723D02*
X0293569Y0290723D01*
X0293569Y0291322D02*
X0295931Y0291322D01*
X0295931Y0291920D02*
X0293569Y0291920D01*
X0293648Y0292519D02*
X0295852Y0292519D01*
X0295368Y0293117D02*
X0294131Y0293117D01*
X0294607Y0303996D02*
X0294331Y0304065D01*
X0294079Y0304197D01*
X0293866Y0304386D01*
X0293704Y0304620D01*
X0293603Y0304886D01*
X0293569Y0305169D01*
X0293569Y0307610D01*
X0293603Y0307892D01*
X0293704Y0308159D01*
X0293866Y0308393D01*
X0294079Y0308582D01*
X0294331Y0308714D01*
X0294607Y0308782D01*
X0294892Y0308782D01*
X0295169Y0308714D01*
X0295421Y0308582D01*
X0295634Y0308393D01*
X0295795Y0308159D01*
X0295896Y0307892D01*
X0295931Y0307610D01*
X0295931Y0305169D01*
X0295896Y0304886D01*
X0295795Y0304620D01*
X0295634Y0304386D01*
X0295421Y0304197D01*
X0295169Y0304065D01*
X0294892Y0303996D01*
X0294607Y0303996D01*
X0293794Y0304489D02*
X0295705Y0304489D01*
X0295921Y0305088D02*
X0293578Y0305088D01*
X0293569Y0305686D02*
X0295931Y0305686D01*
X0295931Y0306285D02*
X0293569Y0306285D01*
X0293569Y0306883D02*
X0295931Y0306883D01*
X0295931Y0307482D02*
X0293569Y0307482D01*
X0293674Y0308080D02*
X0295825Y0308080D01*
X0295236Y0308679D02*
X0294263Y0308679D01*
X0261915Y0307610D02*
X0261881Y0307892D01*
X0261780Y0308159D01*
X0261618Y0308393D01*
X0261405Y0308582D01*
X0261153Y0308714D01*
X0260876Y0308782D01*
X0260592Y0308782D01*
X0260315Y0308714D01*
X0260063Y0308582D01*
X0259850Y0308393D01*
X0259688Y0308159D01*
X0259587Y0307892D01*
X0259553Y0307610D01*
X0259553Y0305169D01*
X0259587Y0304886D01*
X0259688Y0304620D01*
X0259850Y0304386D01*
X0260063Y0304197D01*
X0260315Y0304065D01*
X0260592Y0303996D01*
X0260876Y0303996D01*
X0261153Y0304065D01*
X0261405Y0304197D01*
X0261618Y0304386D01*
X0261780Y0304620D01*
X0261881Y0304886D01*
X0261915Y0305169D01*
X0261915Y0307610D01*
X0261915Y0307482D02*
X0259553Y0307482D01*
X0259553Y0306883D02*
X0261915Y0306883D01*
X0261915Y0306285D02*
X0259553Y0306285D01*
X0259553Y0305686D02*
X0261915Y0305686D01*
X0261905Y0305088D02*
X0259563Y0305088D01*
X0259779Y0304489D02*
X0261689Y0304489D01*
X0261810Y0308080D02*
X0259658Y0308080D01*
X0260247Y0308679D02*
X0261221Y0308679D01*
X0260876Y0293290D02*
X0261153Y0293222D01*
X0261405Y0293090D01*
X0261618Y0292901D01*
X0261780Y0292667D01*
X0261881Y0292400D01*
X0261915Y0292118D01*
X0261915Y0287787D01*
X0261881Y0287504D01*
X0261780Y0287238D01*
X0261618Y0287004D01*
X0261405Y0286815D01*
X0261153Y0286683D01*
X0260876Y0286615D01*
X0260592Y0286615D01*
X0260315Y0286683D01*
X0260063Y0286815D01*
X0259850Y0287004D01*
X0259688Y0287238D01*
X0259587Y0287504D01*
X0259553Y0287787D01*
X0259553Y0292118D01*
X0259587Y0292400D01*
X0259688Y0292667D01*
X0259850Y0292901D01*
X0260063Y0293090D01*
X0260315Y0293222D01*
X0260592Y0293290D01*
X0260876Y0293290D01*
X0261352Y0293117D02*
X0260116Y0293117D01*
X0259632Y0292519D02*
X0261836Y0292519D01*
X0261915Y0291920D02*
X0259553Y0291920D01*
X0259553Y0291322D02*
X0261915Y0291322D01*
X0261915Y0290723D02*
X0259553Y0290723D01*
X0259553Y0290125D02*
X0261915Y0290125D01*
X0261915Y0289526D02*
X0259553Y0289526D01*
X0259553Y0288928D02*
X0261915Y0288928D01*
X0261915Y0288329D02*
X0259553Y0288329D01*
X0259560Y0287731D02*
X0261908Y0287731D01*
X0261707Y0287132D02*
X0259761Y0287132D01*
X0260592Y0428515D02*
X0260315Y0428583D01*
X0260063Y0428715D01*
X0259850Y0428904D01*
X0259688Y0429138D01*
X0259587Y0429404D01*
X0259553Y0429687D01*
X0259553Y0434018D01*
X0259587Y0434300D01*
X0259688Y0434567D01*
X0259850Y0434801D01*
X0260063Y0434990D01*
X0260315Y0435122D01*
X0260592Y0435190D01*
X0260876Y0435190D01*
X0261153Y0435122D01*
X0261405Y0434990D01*
X0261618Y0434801D01*
X0261780Y0434567D01*
X0261881Y0434300D01*
X0261915Y0434018D01*
X0261915Y0429687D01*
X0261881Y0429404D01*
X0261780Y0429138D01*
X0261618Y0428904D01*
X0261405Y0428715D01*
X0261153Y0428583D01*
X0260876Y0428515D01*
X0260592Y0428515D01*
X0259798Y0428979D02*
X0261670Y0428979D01*
X0261902Y0429578D02*
X0259566Y0429578D01*
X0259553Y0430176D02*
X0261915Y0430176D01*
X0261915Y0430775D02*
X0259553Y0430775D01*
X0259553Y0431373D02*
X0261915Y0431373D01*
X0261915Y0431972D02*
X0259553Y0431972D01*
X0259553Y0432570D02*
X0261915Y0432570D01*
X0261915Y0433169D02*
X0259553Y0433169D01*
X0259553Y0433767D02*
X0261915Y0433767D01*
X0261856Y0434366D02*
X0259612Y0434366D01*
X0260034Y0434964D02*
X0261433Y0434964D01*
X0260876Y0445896D02*
X0261153Y0445965D01*
X0261405Y0446097D01*
X0261618Y0446286D01*
X0261780Y0446520D01*
X0261881Y0446786D01*
X0261915Y0447069D01*
X0261915Y0449510D01*
X0261881Y0449792D01*
X0261780Y0450059D01*
X0261618Y0450293D01*
X0261405Y0450482D01*
X0261153Y0450614D01*
X0260876Y0450682D01*
X0260592Y0450682D01*
X0260315Y0450614D01*
X0260063Y0450482D01*
X0259850Y0450293D01*
X0259688Y0450059D01*
X0259587Y0449792D01*
X0259553Y0449510D01*
X0259553Y0447069D01*
X0259587Y0446786D01*
X0259688Y0446520D01*
X0259850Y0446286D01*
X0260063Y0446097D01*
X0260315Y0445965D01*
X0260592Y0445896D01*
X0260876Y0445896D01*
X0261653Y0446336D02*
X0259815Y0446336D01*
X0259569Y0446935D02*
X0261899Y0446935D01*
X0261915Y0447533D02*
X0259553Y0447533D01*
X0259553Y0448132D02*
X0261915Y0448132D01*
X0261915Y0448730D02*
X0259553Y0448730D01*
X0259553Y0449329D02*
X0261915Y0449329D01*
X0261830Y0449927D02*
X0259638Y0449927D01*
X0260147Y0450526D02*
X0261321Y0450526D01*
X0293569Y0449510D02*
X0293569Y0447069D01*
X0293603Y0446786D01*
X0293704Y0446520D01*
X0293866Y0446286D01*
X0294079Y0446097D01*
X0294331Y0445965D01*
X0294607Y0445896D01*
X0294892Y0445896D01*
X0295169Y0445965D01*
X0295421Y0446097D01*
X0295634Y0446286D01*
X0295795Y0446520D01*
X0295896Y0446786D01*
X0295931Y0447069D01*
X0295931Y0449510D01*
X0295896Y0449792D01*
X0295795Y0450059D01*
X0295634Y0450293D01*
X0295421Y0450482D01*
X0295169Y0450614D01*
X0294892Y0450682D01*
X0294607Y0450682D01*
X0294331Y0450614D01*
X0294079Y0450482D01*
X0293866Y0450293D01*
X0293704Y0450059D01*
X0293603Y0449792D01*
X0293569Y0449510D01*
X0293569Y0449329D02*
X0295931Y0449329D01*
X0295931Y0448730D02*
X0293569Y0448730D01*
X0293569Y0448132D02*
X0295931Y0448132D01*
X0295931Y0447533D02*
X0293569Y0447533D01*
X0293585Y0446935D02*
X0295914Y0446935D01*
X0295669Y0446336D02*
X0293831Y0446336D01*
X0293654Y0449927D02*
X0295845Y0449927D01*
X0295337Y0450526D02*
X0294162Y0450526D01*
X0294607Y0435190D02*
X0294892Y0435190D01*
X0295169Y0435122D01*
X0295421Y0434990D01*
X0295634Y0434801D01*
X0295795Y0434567D01*
X0295896Y0434300D01*
X0295931Y0434018D01*
X0295931Y0429687D01*
X0295896Y0429404D01*
X0295795Y0429138D01*
X0295634Y0428904D01*
X0295421Y0428715D01*
X0295169Y0428583D01*
X0294892Y0428515D01*
X0294607Y0428515D01*
X0294331Y0428583D01*
X0294079Y0428715D01*
X0293866Y0428904D01*
X0293704Y0429138D01*
X0293603Y0429404D01*
X0293569Y0429687D01*
X0293569Y0434018D01*
X0293603Y0434300D01*
X0293704Y0434567D01*
X0293866Y0434801D01*
X0294079Y0434990D01*
X0294331Y0435122D01*
X0294607Y0435190D01*
X0294050Y0434964D02*
X0295449Y0434964D01*
X0295872Y0434366D02*
X0293628Y0434366D01*
X0293569Y0433767D02*
X0295931Y0433767D01*
X0295931Y0433169D02*
X0293569Y0433169D01*
X0293569Y0432570D02*
X0295931Y0432570D01*
X0295931Y0431972D02*
X0293569Y0431972D01*
X0293569Y0431373D02*
X0295931Y0431373D01*
X0295931Y0430775D02*
X0293569Y0430775D01*
X0293569Y0430176D02*
X0295931Y0430176D01*
X0295918Y0429578D02*
X0293582Y0429578D01*
X0293813Y0428979D02*
X0295686Y0428979D01*
X0294892Y0570415D02*
X0294607Y0570415D01*
X0294331Y0570483D01*
X0294079Y0570615D01*
X0293866Y0570804D01*
X0293704Y0571038D01*
X0293603Y0571304D01*
X0293569Y0571587D01*
X0293569Y0575918D01*
X0293603Y0576200D01*
X0293704Y0576467D01*
X0293866Y0576701D01*
X0294079Y0576890D01*
X0294331Y0577022D01*
X0294607Y0577090D01*
X0294892Y0577090D01*
X0295169Y0577022D01*
X0295421Y0576890D01*
X0295634Y0576701D01*
X0295795Y0576467D01*
X0295896Y0576200D01*
X0295931Y0575918D01*
X0295931Y0571587D01*
X0295896Y0571304D01*
X0295795Y0571038D01*
X0295634Y0570804D01*
X0295421Y0570615D01*
X0295169Y0570483D01*
X0294892Y0570415D01*
X0295649Y0570827D02*
X0293850Y0570827D01*
X0293588Y0571425D02*
X0295911Y0571425D01*
X0295931Y0572024D02*
X0293569Y0572024D01*
X0293569Y0572622D02*
X0295931Y0572622D01*
X0295931Y0573221D02*
X0293569Y0573221D01*
X0293569Y0573819D02*
X0295931Y0573819D01*
X0295931Y0574418D02*
X0293569Y0574418D01*
X0293569Y0575016D02*
X0295931Y0575016D01*
X0295931Y0575615D02*
X0293569Y0575615D01*
X0293608Y0576213D02*
X0295892Y0576213D01*
X0295509Y0576812D02*
X0293991Y0576812D01*
X0294607Y0587796D02*
X0294331Y0587865D01*
X0294079Y0587997D01*
X0293866Y0588186D01*
X0293704Y0588420D01*
X0293603Y0588686D01*
X0293569Y0588969D01*
X0293569Y0591410D01*
X0293603Y0591692D01*
X0293704Y0591959D01*
X0293866Y0592193D01*
X0294079Y0592382D01*
X0294331Y0592514D01*
X0294607Y0592582D01*
X0294892Y0592582D01*
X0295169Y0592514D01*
X0295421Y0592382D01*
X0295634Y0592193D01*
X0295795Y0591959D01*
X0295896Y0591692D01*
X0295931Y0591410D01*
X0295931Y0588969D01*
X0295896Y0588686D01*
X0295795Y0588420D01*
X0295634Y0588186D01*
X0295421Y0587997D01*
X0295169Y0587865D01*
X0294892Y0587796D01*
X0294607Y0587796D01*
X0293868Y0588183D02*
X0295631Y0588183D01*
X0295908Y0588782D02*
X0293591Y0588782D01*
X0293569Y0589380D02*
X0295931Y0589380D01*
X0295931Y0589979D02*
X0293569Y0589979D01*
X0293569Y0590577D02*
X0295931Y0590577D01*
X0295931Y0591176D02*
X0293569Y0591176D01*
X0293634Y0591774D02*
X0295865Y0591774D01*
X0295431Y0592373D02*
X0294069Y0592373D01*
X0261915Y0591410D02*
X0261881Y0591692D01*
X0261780Y0591959D01*
X0261618Y0592193D01*
X0261405Y0592382D01*
X0261153Y0592514D01*
X0260876Y0592582D01*
X0260592Y0592582D01*
X0260315Y0592514D01*
X0260063Y0592382D01*
X0259850Y0592193D01*
X0259688Y0591959D01*
X0259587Y0591692D01*
X0259553Y0591410D01*
X0259553Y0588969D01*
X0259587Y0588686D01*
X0259688Y0588420D01*
X0259850Y0588186D01*
X0260063Y0587997D01*
X0260315Y0587865D01*
X0260592Y0587796D01*
X0260876Y0587796D01*
X0261153Y0587865D01*
X0261405Y0587997D01*
X0261618Y0588186D01*
X0261780Y0588420D01*
X0261881Y0588686D01*
X0261915Y0588969D01*
X0261915Y0591410D01*
X0261915Y0591176D02*
X0259553Y0591176D01*
X0259553Y0590577D02*
X0261915Y0590577D01*
X0261915Y0589979D02*
X0259553Y0589979D01*
X0259553Y0589380D02*
X0261915Y0589380D01*
X0261892Y0588782D02*
X0259576Y0588782D01*
X0259852Y0588183D02*
X0261615Y0588183D01*
X0261850Y0591774D02*
X0259618Y0591774D01*
X0260053Y0592373D02*
X0261415Y0592373D01*
X0260876Y0577090D02*
X0261153Y0577022D01*
X0261405Y0576890D01*
X0261618Y0576701D01*
X0261780Y0576467D01*
X0261881Y0576200D01*
X0261915Y0575918D01*
X0261915Y0571587D01*
X0261881Y0571304D01*
X0261780Y0571038D01*
X0261618Y0570804D01*
X0261405Y0570615D01*
X0261153Y0570483D01*
X0260876Y0570415D01*
X0260592Y0570415D01*
X0260315Y0570483D01*
X0260063Y0570615D01*
X0259850Y0570804D01*
X0259688Y0571038D01*
X0259587Y0571304D01*
X0259553Y0571587D01*
X0259553Y0575918D01*
X0259587Y0576200D01*
X0259688Y0576467D01*
X0259850Y0576701D01*
X0260063Y0576890D01*
X0260315Y0577022D01*
X0260592Y0577090D01*
X0260876Y0577090D01*
X0261493Y0576812D02*
X0259975Y0576812D01*
X0259592Y0576213D02*
X0261876Y0576213D01*
X0261915Y0575615D02*
X0259553Y0575615D01*
X0259553Y0575016D02*
X0261915Y0575016D01*
X0261915Y0574418D02*
X0259553Y0574418D01*
X0259553Y0573819D02*
X0261915Y0573819D01*
X0261915Y0573221D02*
X0259553Y0573221D01*
X0259553Y0572622D02*
X0261915Y0572622D01*
X0261915Y0572024D02*
X0259553Y0572024D01*
X0259573Y0571425D02*
X0261895Y0571425D01*
X0261634Y0570827D02*
X0259834Y0570827D01*
M02*
