G75*
%MOIN*%
%OFA0B0*%
%FSLAX25Y25*%
%IPPOS*%
%LPD*%
%AMOC8*
5,1,8,0,0,1.08239X$1,22.5*
%
%ADD10C,0.13800*%
%ADD11R,0.03300X0.05800*%
%ADD12C,0.00500*%
%ADD13C,0.03300*%
%ADD14C,0.08200*%
%ADD15C,0.03359*%
%ADD16C,0.00600*%
D10*
X0163333Y0085000D03*
X0303333Y0085000D03*
X0303333Y0194900D03*
X0163333Y0194900D03*
D11*
X0169333Y0163900D03*
X0173333Y0163900D03*
X0177333Y0163900D03*
X0266733Y0113900D03*
X0269933Y0113900D03*
X0288433Y0112900D03*
X0292433Y0112900D03*
X0292333Y0121900D03*
X0288333Y0121900D03*
D12*
X0289583Y0121860D02*
X0291083Y0121860D01*
X0291083Y0121400D02*
X0291083Y0122400D01*
X0289583Y0122400D01*
X0289583Y0121400D01*
X0291083Y0121400D01*
X0291083Y0122359D02*
X0289583Y0122359D01*
X0289683Y0113400D02*
X0289683Y0112400D01*
X0291183Y0112400D01*
X0291183Y0113400D01*
X0289683Y0113400D01*
X0289683Y0113385D02*
X0291183Y0113385D01*
X0291183Y0112887D02*
X0289683Y0112887D01*
X0176083Y0163400D02*
X0176083Y0164400D01*
X0170583Y0164400D01*
X0170583Y0163400D01*
X0176083Y0163400D01*
X0176083Y0163735D02*
X0170583Y0163735D01*
X0170583Y0164234D02*
X0176083Y0164234D01*
D13*
X0155833Y0202400D03*
X0310833Y0077500D03*
D14*
X0278333Y0080000D03*
X0268333Y0080000D03*
X0258333Y0080000D03*
X0248333Y0080000D03*
X0238333Y0080000D03*
X0228333Y0080000D03*
X0218333Y0080000D03*
X0208333Y0080000D03*
X0228333Y0200000D03*
X0238333Y0200000D03*
X0248333Y0200000D03*
X0258333Y0200000D03*
X0268333Y0200000D03*
X0278333Y0200000D03*
X0288333Y0200000D03*
D15*
X0206111Y0186389D03*
X0183355Y0186389D03*
D16*
X0178907Y0186323D02*
X0176544Y0186323D01*
X0176544Y0186468D02*
X0176544Y0182137D01*
X0176579Y0181854D01*
X0176680Y0181588D01*
X0176841Y0181354D01*
X0177055Y0181165D01*
X0177307Y0181033D01*
X0177583Y0180965D01*
X0177868Y0180965D01*
X0178144Y0181033D01*
X0178396Y0181165D01*
X0178610Y0181354D01*
X0178771Y0181588D01*
X0178872Y0181854D01*
X0178907Y0182137D01*
X0178907Y0186468D01*
X0178872Y0186750D01*
X0178771Y0187017D01*
X0178610Y0187251D01*
X0178396Y0187440D01*
X0178144Y0187572D01*
X0177868Y0187640D01*
X0177583Y0187640D01*
X0177307Y0187572D01*
X0177055Y0187440D01*
X0176841Y0187251D01*
X0176680Y0187017D01*
X0176579Y0186750D01*
X0176544Y0186468D01*
X0176644Y0186922D02*
X0178807Y0186922D01*
X0178243Y0187520D02*
X0177208Y0187520D01*
X0176544Y0185725D02*
X0178907Y0185725D01*
X0178907Y0185126D02*
X0176544Y0185126D01*
X0176544Y0184528D02*
X0178907Y0184528D01*
X0178907Y0183929D02*
X0176544Y0183929D01*
X0176544Y0183331D02*
X0178907Y0183331D01*
X0178907Y0182732D02*
X0176544Y0182732D01*
X0176545Y0182134D02*
X0178906Y0182134D01*
X0178735Y0181535D02*
X0176716Y0181535D01*
X0177583Y0198346D02*
X0177868Y0198346D01*
X0178144Y0198415D01*
X0178396Y0198547D01*
X0178610Y0198736D01*
X0178771Y0198970D01*
X0178872Y0199236D01*
X0178907Y0199519D01*
X0178907Y0201960D01*
X0178872Y0202242D01*
X0178771Y0202509D01*
X0178610Y0202743D01*
X0178396Y0202932D01*
X0178144Y0203064D01*
X0177868Y0203132D01*
X0177583Y0203132D01*
X0177307Y0203064D01*
X0177055Y0202932D01*
X0176841Y0202743D01*
X0176680Y0202509D01*
X0176579Y0202242D01*
X0176544Y0201960D01*
X0176544Y0199519D01*
X0176579Y0199236D01*
X0176680Y0198970D01*
X0176841Y0198736D01*
X0177055Y0198547D01*
X0177307Y0198415D01*
X0177583Y0198346D01*
X0176734Y0198892D02*
X0178717Y0198892D01*
X0178903Y0199490D02*
X0176548Y0199490D01*
X0176544Y0200089D02*
X0178907Y0200089D01*
X0178907Y0200687D02*
X0176544Y0200687D01*
X0176544Y0201286D02*
X0178907Y0201286D01*
X0178907Y0201884D02*
X0176544Y0201884D01*
X0176670Y0202483D02*
X0178781Y0202483D01*
X0178074Y0203081D02*
X0177377Y0203081D01*
X0210560Y0201960D02*
X0210560Y0199519D01*
X0210594Y0199236D01*
X0210695Y0198970D01*
X0210857Y0198736D01*
X0211070Y0198547D01*
X0211322Y0198415D01*
X0211599Y0198346D01*
X0211884Y0198346D01*
X0212160Y0198415D01*
X0212412Y0198547D01*
X0212625Y0198736D01*
X0212787Y0198970D01*
X0212888Y0199236D01*
X0212922Y0199519D01*
X0212922Y0201960D01*
X0212888Y0202242D01*
X0212787Y0202509D01*
X0212625Y0202743D01*
X0212412Y0202932D01*
X0212160Y0203064D01*
X0211884Y0203132D01*
X0211599Y0203132D01*
X0211322Y0203064D01*
X0211070Y0202932D01*
X0210857Y0202743D01*
X0210695Y0202509D01*
X0210594Y0202242D01*
X0210560Y0201960D01*
X0210560Y0201884D02*
X0212922Y0201884D01*
X0212922Y0201286D02*
X0210560Y0201286D01*
X0210560Y0200687D02*
X0212922Y0200687D01*
X0212922Y0200089D02*
X0210560Y0200089D01*
X0210564Y0199490D02*
X0212919Y0199490D01*
X0212733Y0198892D02*
X0210749Y0198892D01*
X0210686Y0202483D02*
X0212797Y0202483D01*
X0212090Y0203081D02*
X0211392Y0203081D01*
X0211599Y0187640D02*
X0211884Y0187640D01*
X0212160Y0187572D01*
X0212412Y0187440D01*
X0212625Y0187251D01*
X0212787Y0187017D01*
X0212888Y0186750D01*
X0212922Y0186468D01*
X0212922Y0182137D01*
X0212888Y0181854D01*
X0212787Y0181588D01*
X0212625Y0181354D01*
X0212412Y0181165D01*
X0212160Y0181033D01*
X0211884Y0180965D01*
X0211599Y0180965D01*
X0211322Y0181033D01*
X0211070Y0181165D01*
X0210857Y0181354D01*
X0210695Y0181588D01*
X0210594Y0181854D01*
X0210560Y0182137D01*
X0210560Y0186468D01*
X0210594Y0186750D01*
X0210695Y0187017D01*
X0210857Y0187251D01*
X0211070Y0187440D01*
X0211322Y0187572D01*
X0211599Y0187640D01*
X0211223Y0187520D02*
X0212259Y0187520D01*
X0212823Y0186922D02*
X0210659Y0186922D01*
X0210560Y0186323D02*
X0212922Y0186323D01*
X0212922Y0185725D02*
X0210560Y0185725D01*
X0210560Y0185126D02*
X0212922Y0185126D01*
X0212922Y0184528D02*
X0210560Y0184528D01*
X0210560Y0183929D02*
X0212922Y0183929D01*
X0212922Y0183331D02*
X0210560Y0183331D01*
X0210560Y0182732D02*
X0212922Y0182732D01*
X0212922Y0182134D02*
X0210561Y0182134D01*
X0210732Y0181535D02*
X0212750Y0181535D01*
M02*
