G75*
%MOIN*%
%OFA0B0*%
%FSLAX25Y25*%
%IPPOS*%
%LPD*%
%AMOC8*
5,1,8,0,0,1.08239X$1,22.5*
%
%ADD10R,0.07874X0.04724*%
%ADD11R,0.05315X0.02362*%
%ADD12R,0.04331X0.03937*%
%ADD13C,0.00197*%
%ADD14R,0.06693X0.16535*%
%ADD15R,0.03937X0.04331*%
%ADD16C,0.01181*%
%ADD17R,0.02480X0.03268*%
%ADD18R,0.04724X0.02165*%
%ADD19R,0.04724X0.03150*%
%ADD20R,0.03543X0.02362*%
%ADD21R,0.00984X0.02402*%
%ADD22R,0.00984X0.02205*%
%ADD23R,0.01181X0.04000*%
%ADD24R,0.02362X0.04000*%
%ADD25R,0.02165X0.04000*%
%ADD26C,0.00039*%
%ADD27R,0.03543X0.03346*%
%ADD28R,0.06299X0.03150*%
%ADD29R,0.02559X0.03150*%
D10*
X0158865Y0127876D03*
X0158865Y0149924D03*
X0308302Y0147424D03*
X0308302Y0125376D03*
D11*
X0293833Y0130494D03*
X0293833Y0134431D03*
X0293833Y0138369D03*
X0293833Y0142306D03*
X0173333Y0140869D03*
X0173333Y0136931D03*
X0173333Y0132994D03*
X0173333Y0144806D03*
D12*
X0189987Y0143900D03*
X0196680Y0143900D03*
X0196680Y0137900D03*
X0189987Y0137900D03*
X0189987Y0131900D03*
X0196680Y0131900D03*
X0196680Y0125900D03*
X0189987Y0125900D03*
X0189987Y0119900D03*
X0196680Y0119900D03*
X0196680Y0113900D03*
X0189987Y0113900D03*
X0209987Y0101400D03*
X0216680Y0101400D03*
X0265987Y0149600D03*
X0272680Y0149600D03*
X0278787Y0149600D03*
X0285480Y0149600D03*
X0299987Y0119900D03*
X0306680Y0119900D03*
X0306680Y0113000D03*
X0299987Y0113000D03*
D13*
X0185231Y0098551D02*
X0175782Y0089102D01*
X0175782Y0098551D01*
X0185231Y0098551D01*
X0185123Y0098443D02*
X0175782Y0098443D01*
X0175782Y0098248D02*
X0184928Y0098248D01*
X0184732Y0098053D02*
X0175782Y0098053D01*
X0175782Y0097857D02*
X0184537Y0097857D01*
X0184342Y0097662D02*
X0175782Y0097662D01*
X0175782Y0097467D02*
X0184146Y0097467D01*
X0183951Y0097271D02*
X0175782Y0097271D01*
X0175782Y0097076D02*
X0183756Y0097076D01*
X0183560Y0096881D02*
X0175782Y0096881D01*
X0175782Y0096685D02*
X0183365Y0096685D01*
X0183170Y0096490D02*
X0175782Y0096490D01*
X0175782Y0096294D02*
X0182974Y0096294D01*
X0182779Y0096099D02*
X0175782Y0096099D01*
X0175782Y0095904D02*
X0182583Y0095904D01*
X0182388Y0095708D02*
X0175782Y0095708D01*
X0175782Y0095513D02*
X0182193Y0095513D01*
X0181997Y0095318D02*
X0175782Y0095318D01*
X0175782Y0095122D02*
X0181802Y0095122D01*
X0181607Y0094927D02*
X0175782Y0094927D01*
X0175782Y0094732D02*
X0181411Y0094732D01*
X0181216Y0094536D02*
X0175782Y0094536D01*
X0175782Y0094341D02*
X0181021Y0094341D01*
X0180825Y0094145D02*
X0175782Y0094145D01*
X0175782Y0093950D02*
X0180630Y0093950D01*
X0180435Y0093755D02*
X0175782Y0093755D01*
X0175782Y0093559D02*
X0180239Y0093559D01*
X0180044Y0093364D02*
X0175782Y0093364D01*
X0175782Y0093169D02*
X0179848Y0093169D01*
X0179653Y0092973D02*
X0175782Y0092973D01*
X0175782Y0092778D02*
X0179458Y0092778D01*
X0179262Y0092583D02*
X0175782Y0092583D01*
X0175782Y0092387D02*
X0179067Y0092387D01*
X0178872Y0092192D02*
X0175782Y0092192D01*
X0175782Y0091996D02*
X0178676Y0091996D01*
X0178481Y0091801D02*
X0175782Y0091801D01*
X0175782Y0091606D02*
X0178286Y0091606D01*
X0178090Y0091410D02*
X0175782Y0091410D01*
X0175782Y0091215D02*
X0177895Y0091215D01*
X0177699Y0091020D02*
X0175782Y0091020D01*
X0175782Y0090824D02*
X0177504Y0090824D01*
X0177309Y0090629D02*
X0175782Y0090629D01*
X0175782Y0090434D02*
X0177113Y0090434D01*
X0176918Y0090238D02*
X0175782Y0090238D01*
X0175782Y0090043D02*
X0176723Y0090043D01*
X0176527Y0089847D02*
X0175782Y0089847D01*
X0175782Y0089652D02*
X0176332Y0089652D01*
X0176137Y0089457D02*
X0175782Y0089457D01*
X0175782Y0089261D02*
X0175941Y0089261D01*
D14*
X0193617Y0090362D03*
D15*
X0264833Y0134054D03*
X0264833Y0140746D03*
X0285833Y0140746D03*
X0285833Y0134054D03*
X0265833Y0155554D03*
X0265833Y0162246D03*
X0220133Y0186654D03*
X0220133Y0193346D03*
X0198133Y0164946D03*
X0198133Y0158254D03*
X0190933Y0158054D03*
X0190933Y0164746D03*
X0169433Y0166246D03*
X0163533Y0166246D03*
X0163533Y0159554D03*
X0169433Y0159554D03*
D16*
X0297555Y0109331D02*
X0300311Y0109331D01*
X0300311Y0106575D01*
X0297555Y0106575D01*
X0297555Y0109331D01*
X0297555Y0107697D02*
X0300311Y0107697D01*
X0300311Y0108819D02*
X0297555Y0108819D01*
X0307055Y0109331D02*
X0309811Y0109331D01*
X0309811Y0106575D01*
X0307055Y0106575D01*
X0307055Y0109331D01*
X0307055Y0107697D02*
X0309811Y0107697D01*
X0309811Y0108819D02*
X0307055Y0108819D01*
X0307055Y0102425D02*
X0309811Y0102425D01*
X0309811Y0099669D01*
X0307055Y0099669D01*
X0307055Y0102425D01*
X0307055Y0100791D02*
X0309811Y0100791D01*
X0309811Y0101913D02*
X0307055Y0101913D01*
X0300311Y0102425D02*
X0297555Y0102425D01*
X0300311Y0102425D02*
X0300311Y0099669D01*
X0297555Y0099669D01*
X0297555Y0102425D01*
X0297555Y0100791D02*
X0300311Y0100791D01*
X0300311Y0101913D02*
X0297555Y0101913D01*
D17*
X0197861Y0106900D03*
X0188806Y0106900D03*
D18*
X0270215Y0133660D03*
X0270215Y0141140D03*
X0280452Y0141140D03*
X0280452Y0137400D03*
X0280452Y0133660D03*
D19*
X0259711Y0132994D03*
X0259711Y0128664D03*
X0259711Y0124333D03*
X0259711Y0120002D03*
X0259711Y0115672D03*
X0259711Y0111341D03*
X0259711Y0137325D03*
X0259711Y0149136D03*
X0259711Y0153467D03*
X0259711Y0157798D03*
X0259711Y0162128D03*
X0259711Y0166459D03*
X0206955Y0166459D03*
X0206955Y0162128D03*
X0206955Y0157798D03*
X0206955Y0153467D03*
X0206955Y0149136D03*
X0206955Y0137325D03*
X0206955Y0132994D03*
X0206955Y0128664D03*
X0206955Y0124333D03*
X0206955Y0120002D03*
X0206955Y0115672D03*
X0206955Y0111341D03*
D20*
X0211089Y0111341D03*
X0211089Y0115672D03*
X0211089Y0120002D03*
X0211089Y0124333D03*
X0211089Y0128664D03*
X0211089Y0132994D03*
X0211089Y0137325D03*
X0211089Y0149136D03*
X0211089Y0153467D03*
X0211089Y0157798D03*
X0211089Y0162128D03*
X0211089Y0166459D03*
X0255577Y0166459D03*
X0255577Y0162128D03*
X0255577Y0157798D03*
X0255577Y0153467D03*
X0255577Y0149136D03*
X0255577Y0137325D03*
X0255577Y0132994D03*
X0255577Y0128664D03*
X0255577Y0124333D03*
X0255577Y0120002D03*
X0255577Y0115672D03*
X0255577Y0111341D03*
D21*
X0195702Y0172794D03*
D22*
X0193733Y0172893D03*
X0191765Y0172893D03*
X0191765Y0169507D03*
X0193733Y0169507D03*
X0195702Y0169507D03*
D23*
X0195718Y0180094D03*
X0197686Y0180094D03*
X0199655Y0180094D03*
X0201623Y0180094D03*
X0193749Y0180094D03*
X0191781Y0180094D03*
X0189812Y0180094D03*
X0187844Y0180094D03*
D24*
X0182036Y0180094D03*
X0207430Y0180094D03*
D25*
X0204379Y0180094D03*
X0185088Y0180094D03*
D26*
X0180027Y0181518D02*
X0179881Y0181097D01*
X0179655Y0180712D01*
X0179359Y0180378D01*
X0179004Y0180109D01*
X0178602Y0179914D01*
X0178171Y0179801D01*
X0177725Y0179775D01*
X0177280Y0179801D01*
X0176849Y0179914D01*
X0176447Y0180109D01*
X0176092Y0180378D01*
X0175796Y0180712D01*
X0175570Y0181097D01*
X0175424Y0181518D01*
X0175363Y0181960D01*
X0175363Y0186684D01*
X0175444Y0187183D01*
X0175633Y0187651D01*
X0175922Y0188066D01*
X0176297Y0188406D01*
X0176737Y0188654D01*
X0177221Y0188798D01*
X0177725Y0188830D01*
X0178230Y0188798D01*
X0178714Y0188654D01*
X0179154Y0188406D01*
X0179528Y0188066D01*
X0179817Y0187651D01*
X0180007Y0187183D01*
X0180088Y0186684D01*
X0180088Y0181960D01*
X0180027Y0181518D01*
X0180027Y0181522D02*
X0175424Y0181522D01*
X0175418Y0181560D02*
X0180033Y0181560D01*
X0180038Y0181598D02*
X0175413Y0181598D01*
X0175408Y0181636D02*
X0180043Y0181636D01*
X0180048Y0181674D02*
X0175403Y0181674D01*
X0175397Y0181712D02*
X0180053Y0181712D01*
X0180059Y0181750D02*
X0175392Y0181750D01*
X0175387Y0181788D02*
X0180064Y0181788D01*
X0180069Y0181826D02*
X0175382Y0181826D01*
X0175377Y0181863D02*
X0180074Y0181863D01*
X0180080Y0181901D02*
X0175371Y0181901D01*
X0175366Y0181939D02*
X0180085Y0181939D01*
X0180088Y0181977D02*
X0175363Y0181977D01*
X0175363Y0182015D02*
X0180088Y0182015D01*
X0180088Y0182053D02*
X0175363Y0182053D01*
X0175363Y0182091D02*
X0180088Y0182091D01*
X0180088Y0182129D02*
X0175363Y0182129D01*
X0175363Y0182166D02*
X0180088Y0182166D01*
X0180088Y0182204D02*
X0175363Y0182204D01*
X0175363Y0182242D02*
X0180088Y0182242D01*
X0180088Y0182280D02*
X0175363Y0182280D01*
X0175363Y0182318D02*
X0180088Y0182318D01*
X0180088Y0182356D02*
X0175363Y0182356D01*
X0175363Y0182394D02*
X0180088Y0182394D01*
X0180088Y0182432D02*
X0175363Y0182432D01*
X0175363Y0182470D02*
X0180088Y0182470D01*
X0180088Y0182507D02*
X0175363Y0182507D01*
X0175363Y0182545D02*
X0180088Y0182545D01*
X0180088Y0182583D02*
X0175363Y0182583D01*
X0175363Y0182621D02*
X0180088Y0182621D01*
X0180088Y0182659D02*
X0175363Y0182659D01*
X0175363Y0182697D02*
X0180088Y0182697D01*
X0180088Y0182735D02*
X0175363Y0182735D01*
X0175363Y0182773D02*
X0180088Y0182773D01*
X0180088Y0182810D02*
X0175363Y0182810D01*
X0175363Y0182848D02*
X0180088Y0182848D01*
X0180088Y0182886D02*
X0175363Y0182886D01*
X0175363Y0182924D02*
X0180088Y0182924D01*
X0180088Y0182962D02*
X0175363Y0182962D01*
X0175363Y0183000D02*
X0180088Y0183000D01*
X0180088Y0183038D02*
X0175363Y0183038D01*
X0175363Y0183076D02*
X0180088Y0183076D01*
X0180088Y0183114D02*
X0175363Y0183114D01*
X0175363Y0183151D02*
X0180088Y0183151D01*
X0180088Y0183189D02*
X0175363Y0183189D01*
X0175363Y0183227D02*
X0180088Y0183227D01*
X0180088Y0183265D02*
X0175363Y0183265D01*
X0175363Y0183303D02*
X0180088Y0183303D01*
X0180088Y0183341D02*
X0175363Y0183341D01*
X0175363Y0183379D02*
X0180088Y0183379D01*
X0180088Y0183417D02*
X0175363Y0183417D01*
X0175363Y0183454D02*
X0180088Y0183454D01*
X0180088Y0183492D02*
X0175363Y0183492D01*
X0175363Y0183530D02*
X0180088Y0183530D01*
X0180088Y0183568D02*
X0175363Y0183568D01*
X0175363Y0183606D02*
X0180088Y0183606D01*
X0180088Y0183644D02*
X0175363Y0183644D01*
X0175363Y0183682D02*
X0180088Y0183682D01*
X0180088Y0183720D02*
X0175363Y0183720D01*
X0175363Y0183757D02*
X0180088Y0183757D01*
X0180088Y0183795D02*
X0175363Y0183795D01*
X0175363Y0183833D02*
X0180088Y0183833D01*
X0180088Y0183871D02*
X0175363Y0183871D01*
X0175363Y0183909D02*
X0180088Y0183909D01*
X0180088Y0183947D02*
X0175363Y0183947D01*
X0175363Y0183985D02*
X0180088Y0183985D01*
X0180088Y0184023D02*
X0175363Y0184023D01*
X0175363Y0184061D02*
X0180088Y0184061D01*
X0180088Y0184098D02*
X0175363Y0184098D01*
X0175363Y0184136D02*
X0180088Y0184136D01*
X0180088Y0184174D02*
X0175363Y0184174D01*
X0175363Y0184212D02*
X0180088Y0184212D01*
X0180088Y0184250D02*
X0175363Y0184250D01*
X0175363Y0184288D02*
X0180088Y0184288D01*
X0180088Y0184326D02*
X0175363Y0184326D01*
X0175363Y0184364D02*
X0180088Y0184364D01*
X0180088Y0184401D02*
X0175363Y0184401D01*
X0175363Y0184439D02*
X0180088Y0184439D01*
X0180088Y0184477D02*
X0175363Y0184477D01*
X0175363Y0184515D02*
X0180088Y0184515D01*
X0180088Y0184553D02*
X0175363Y0184553D01*
X0175363Y0184591D02*
X0180088Y0184591D01*
X0180088Y0184629D02*
X0175363Y0184629D01*
X0175363Y0184667D02*
X0180088Y0184667D01*
X0180088Y0184705D02*
X0175363Y0184705D01*
X0175363Y0184742D02*
X0180088Y0184742D01*
X0180088Y0184780D02*
X0175363Y0184780D01*
X0175363Y0184818D02*
X0180088Y0184818D01*
X0180088Y0184856D02*
X0175363Y0184856D01*
X0175363Y0184894D02*
X0180088Y0184894D01*
X0180088Y0184932D02*
X0175363Y0184932D01*
X0175363Y0184970D02*
X0180088Y0184970D01*
X0180088Y0185008D02*
X0175363Y0185008D01*
X0175363Y0185045D02*
X0180088Y0185045D01*
X0180088Y0185083D02*
X0175363Y0185083D01*
X0175363Y0185121D02*
X0180088Y0185121D01*
X0180088Y0185159D02*
X0175363Y0185159D01*
X0175363Y0185197D02*
X0180088Y0185197D01*
X0180088Y0185235D02*
X0175363Y0185235D01*
X0175363Y0185273D02*
X0180088Y0185273D01*
X0180088Y0185311D02*
X0175363Y0185311D01*
X0175363Y0185349D02*
X0180088Y0185349D01*
X0180088Y0185386D02*
X0175363Y0185386D01*
X0175363Y0185424D02*
X0180088Y0185424D01*
X0180088Y0185462D02*
X0175363Y0185462D01*
X0175363Y0185500D02*
X0180088Y0185500D01*
X0180088Y0185538D02*
X0175363Y0185538D01*
X0175363Y0185576D02*
X0180088Y0185576D01*
X0180088Y0185614D02*
X0175363Y0185614D01*
X0175363Y0185652D02*
X0180088Y0185652D01*
X0180088Y0185689D02*
X0175363Y0185689D01*
X0175363Y0185727D02*
X0180088Y0185727D01*
X0180088Y0185765D02*
X0175363Y0185765D01*
X0175363Y0185803D02*
X0180088Y0185803D01*
X0180088Y0185841D02*
X0175363Y0185841D01*
X0175363Y0185879D02*
X0180088Y0185879D01*
X0180088Y0185917D02*
X0175363Y0185917D01*
X0175363Y0185955D02*
X0180088Y0185955D01*
X0180088Y0185992D02*
X0175363Y0185992D01*
X0175363Y0186030D02*
X0180088Y0186030D01*
X0180088Y0186068D02*
X0175363Y0186068D01*
X0175363Y0186106D02*
X0180088Y0186106D01*
X0180088Y0186144D02*
X0175363Y0186144D01*
X0175363Y0186182D02*
X0180088Y0186182D01*
X0180088Y0186220D02*
X0175363Y0186220D01*
X0175363Y0186258D02*
X0180088Y0186258D01*
X0180088Y0186296D02*
X0175363Y0186296D01*
X0175363Y0186333D02*
X0180088Y0186333D01*
X0180088Y0186371D02*
X0175363Y0186371D01*
X0175363Y0186409D02*
X0180088Y0186409D01*
X0180088Y0186447D02*
X0175363Y0186447D01*
X0175363Y0186485D02*
X0180088Y0186485D01*
X0180088Y0186523D02*
X0175363Y0186523D01*
X0175363Y0186561D02*
X0180088Y0186561D01*
X0180088Y0186599D02*
X0175363Y0186599D01*
X0175363Y0186636D02*
X0180088Y0186636D01*
X0180088Y0186674D02*
X0175363Y0186674D01*
X0175368Y0186712D02*
X0180083Y0186712D01*
X0180077Y0186750D02*
X0175374Y0186750D01*
X0175380Y0186788D02*
X0180071Y0186788D01*
X0180065Y0186826D02*
X0175386Y0186826D01*
X0175392Y0186864D02*
X0180059Y0186864D01*
X0180053Y0186902D02*
X0175398Y0186902D01*
X0175404Y0186940D02*
X0180046Y0186940D01*
X0180040Y0186977D02*
X0175411Y0186977D01*
X0175417Y0187015D02*
X0180034Y0187015D01*
X0180028Y0187053D02*
X0175423Y0187053D01*
X0175429Y0187091D02*
X0180022Y0187091D01*
X0180016Y0187129D02*
X0175435Y0187129D01*
X0175441Y0187167D02*
X0180010Y0187167D01*
X0179998Y0187205D02*
X0175453Y0187205D01*
X0175468Y0187243D02*
X0179983Y0187243D01*
X0179968Y0187280D02*
X0175483Y0187280D01*
X0175499Y0187318D02*
X0179952Y0187318D01*
X0179937Y0187356D02*
X0175514Y0187356D01*
X0175529Y0187394D02*
X0179922Y0187394D01*
X0179906Y0187432D02*
X0175545Y0187432D01*
X0175560Y0187470D02*
X0179891Y0187470D01*
X0179876Y0187508D02*
X0175575Y0187508D01*
X0175591Y0187546D02*
X0179860Y0187546D01*
X0179845Y0187584D02*
X0175606Y0187584D01*
X0175621Y0187621D02*
X0179830Y0187621D01*
X0179812Y0187659D02*
X0175639Y0187659D01*
X0175665Y0187697D02*
X0179786Y0187697D01*
X0179759Y0187735D02*
X0175692Y0187735D01*
X0175718Y0187773D02*
X0179733Y0187773D01*
X0179706Y0187811D02*
X0175745Y0187811D01*
X0175771Y0187849D02*
X0179680Y0187849D01*
X0179654Y0187887D02*
X0175797Y0187887D01*
X0175824Y0187924D02*
X0179627Y0187924D01*
X0179601Y0187962D02*
X0175850Y0187962D01*
X0175877Y0188000D02*
X0179574Y0188000D01*
X0179548Y0188038D02*
X0175903Y0188038D01*
X0175934Y0188076D02*
X0179517Y0188076D01*
X0179476Y0188114D02*
X0175975Y0188114D01*
X0176017Y0188152D02*
X0179434Y0188152D01*
X0179392Y0188190D02*
X0176059Y0188190D01*
X0176100Y0188227D02*
X0179351Y0188227D01*
X0179309Y0188265D02*
X0176142Y0188265D01*
X0176184Y0188303D02*
X0179267Y0188303D01*
X0179225Y0188341D02*
X0176225Y0188341D01*
X0176267Y0188379D02*
X0179184Y0188379D01*
X0179134Y0188417D02*
X0176316Y0188417D01*
X0176384Y0188455D02*
X0179067Y0188455D01*
X0179000Y0188493D02*
X0176451Y0188493D01*
X0176518Y0188531D02*
X0178933Y0188531D01*
X0178865Y0188568D02*
X0176585Y0188568D01*
X0176653Y0188606D02*
X0178798Y0188606D01*
X0178731Y0188644D02*
X0176720Y0188644D01*
X0176832Y0188682D02*
X0178619Y0188682D01*
X0178491Y0188720D02*
X0176960Y0188720D01*
X0177088Y0188758D02*
X0178363Y0188758D01*
X0178236Y0188796D02*
X0177215Y0188796D01*
X0175436Y0181485D02*
X0180015Y0181485D01*
X0180002Y0181447D02*
X0175449Y0181447D01*
X0175462Y0181409D02*
X0179989Y0181409D01*
X0179976Y0181371D02*
X0175475Y0181371D01*
X0175488Y0181333D02*
X0179963Y0181333D01*
X0179950Y0181295D02*
X0175501Y0181295D01*
X0175515Y0181257D02*
X0179936Y0181257D01*
X0179923Y0181219D02*
X0175528Y0181219D01*
X0175541Y0181182D02*
X0179910Y0181182D01*
X0179897Y0181144D02*
X0175554Y0181144D01*
X0175567Y0181106D02*
X0179884Y0181106D01*
X0179864Y0181068D02*
X0175587Y0181068D01*
X0175609Y0181030D02*
X0179842Y0181030D01*
X0179820Y0180992D02*
X0175631Y0180992D01*
X0175654Y0180954D02*
X0179797Y0180954D01*
X0179775Y0180916D02*
X0175676Y0180916D01*
X0175698Y0180879D02*
X0179753Y0180879D01*
X0179731Y0180841D02*
X0175720Y0180841D01*
X0175742Y0180803D02*
X0179709Y0180803D01*
X0179686Y0180765D02*
X0175764Y0180765D01*
X0175787Y0180727D02*
X0179664Y0180727D01*
X0179635Y0180689D02*
X0175816Y0180689D01*
X0175849Y0180651D02*
X0179602Y0180651D01*
X0179568Y0180613D02*
X0175883Y0180613D01*
X0175917Y0180575D02*
X0179534Y0180575D01*
X0179501Y0180538D02*
X0175950Y0180538D01*
X0175984Y0180500D02*
X0179467Y0180500D01*
X0179433Y0180462D02*
X0176017Y0180462D01*
X0176051Y0180424D02*
X0179400Y0180424D01*
X0179366Y0180386D02*
X0176085Y0180386D01*
X0176131Y0180348D02*
X0179320Y0180348D01*
X0179270Y0180310D02*
X0176181Y0180310D01*
X0176231Y0180272D02*
X0179220Y0180272D01*
X0179170Y0180235D02*
X0176281Y0180235D01*
X0176331Y0180197D02*
X0179120Y0180197D01*
X0179070Y0180159D02*
X0176381Y0180159D01*
X0176431Y0180121D02*
X0179020Y0180121D01*
X0178950Y0180083D02*
X0176500Y0180083D01*
X0176578Y0180045D02*
X0178872Y0180045D01*
X0178794Y0180007D02*
X0176657Y0180007D01*
X0176735Y0179969D02*
X0178716Y0179969D01*
X0178638Y0179931D02*
X0176813Y0179931D01*
X0176927Y0179894D02*
X0178524Y0179894D01*
X0178379Y0179856D02*
X0177072Y0179856D01*
X0177217Y0179818D02*
X0178234Y0179818D01*
X0177812Y0179780D02*
X0177639Y0179780D01*
X0177725Y0197216D02*
X0177263Y0197263D01*
X0176818Y0197400D01*
X0176409Y0197621D01*
X0176051Y0197917D01*
X0175758Y0198278D01*
X0175540Y0198689D01*
X0175407Y0199135D01*
X0175363Y0199598D01*
X0175363Y0201960D01*
X0175410Y0202419D01*
X0175546Y0202859D01*
X0175765Y0203265D01*
X0176059Y0203620D01*
X0176417Y0203911D01*
X0176824Y0204127D01*
X0177266Y0204259D01*
X0177725Y0204302D01*
X0178249Y0204246D01*
X0178747Y0204074D01*
X0179194Y0203795D01*
X0179568Y0203424D01*
X0179850Y0202980D01*
X0180026Y0202483D01*
X0180088Y0201960D01*
X0180088Y0199598D01*
X0180030Y0199070D01*
X0179857Y0198567D01*
X0179576Y0198117D01*
X0179202Y0197739D01*
X0178754Y0197455D01*
X0178253Y0197277D01*
X0177725Y0197216D01*
X0177961Y0197243D02*
X0177457Y0197243D01*
X0177205Y0197281D02*
X0178264Y0197281D01*
X0178370Y0197319D02*
X0177082Y0197319D01*
X0176959Y0197357D02*
X0178477Y0197357D01*
X0178584Y0197395D02*
X0176836Y0197395D01*
X0176758Y0197433D02*
X0178691Y0197433D01*
X0178778Y0197471D02*
X0176688Y0197471D01*
X0176618Y0197508D02*
X0178838Y0197508D01*
X0178898Y0197546D02*
X0176548Y0197546D01*
X0176477Y0197584D02*
X0178958Y0197584D01*
X0179017Y0197622D02*
X0176408Y0197622D01*
X0176362Y0197660D02*
X0179077Y0197660D01*
X0179137Y0197698D02*
X0176316Y0197698D01*
X0176271Y0197736D02*
X0179196Y0197736D01*
X0179236Y0197774D02*
X0176225Y0197774D01*
X0176179Y0197811D02*
X0179274Y0197811D01*
X0179311Y0197849D02*
X0176133Y0197849D01*
X0176088Y0197887D02*
X0179349Y0197887D01*
X0179386Y0197925D02*
X0176045Y0197925D01*
X0176014Y0197963D02*
X0179424Y0197963D01*
X0179462Y0198001D02*
X0175983Y0198001D01*
X0175952Y0198039D02*
X0179499Y0198039D01*
X0179537Y0198077D02*
X0175922Y0198077D01*
X0175891Y0198115D02*
X0179574Y0198115D01*
X0179599Y0198152D02*
X0175860Y0198152D01*
X0175829Y0198190D02*
X0179622Y0198190D01*
X0179646Y0198228D02*
X0175798Y0198228D01*
X0175767Y0198266D02*
X0179669Y0198266D01*
X0179693Y0198304D02*
X0175744Y0198304D01*
X0175724Y0198342D02*
X0179717Y0198342D01*
X0179740Y0198380D02*
X0175704Y0198380D01*
X0175684Y0198418D02*
X0179764Y0198418D01*
X0179787Y0198455D02*
X0175664Y0198455D01*
X0175644Y0198493D02*
X0179811Y0198493D01*
X0179834Y0198531D02*
X0175624Y0198531D01*
X0175604Y0198569D02*
X0179858Y0198569D01*
X0179871Y0198607D02*
X0175584Y0198607D01*
X0175563Y0198645D02*
X0179884Y0198645D01*
X0179897Y0198683D02*
X0175543Y0198683D01*
X0175531Y0198721D02*
X0179910Y0198721D01*
X0179923Y0198759D02*
X0175519Y0198759D01*
X0175508Y0198796D02*
X0179936Y0198796D01*
X0179949Y0198834D02*
X0175497Y0198834D01*
X0175485Y0198872D02*
X0179962Y0198872D01*
X0179975Y0198910D02*
X0175474Y0198910D01*
X0175463Y0198948D02*
X0179988Y0198948D01*
X0180001Y0198986D02*
X0175451Y0198986D01*
X0175440Y0199024D02*
X0180015Y0199024D01*
X0180028Y0199062D02*
X0175429Y0199062D01*
X0175417Y0199099D02*
X0180034Y0199099D01*
X0180038Y0199137D02*
X0175407Y0199137D01*
X0175403Y0199175D02*
X0180042Y0199175D01*
X0180046Y0199213D02*
X0175400Y0199213D01*
X0175396Y0199251D02*
X0180050Y0199251D01*
X0180054Y0199289D02*
X0175392Y0199289D01*
X0175389Y0199327D02*
X0180058Y0199327D01*
X0180062Y0199365D02*
X0175385Y0199365D01*
X0175382Y0199403D02*
X0180066Y0199403D01*
X0180071Y0199440D02*
X0175378Y0199440D01*
X0175375Y0199478D02*
X0180075Y0199478D01*
X0180079Y0199516D02*
X0175371Y0199516D01*
X0175367Y0199554D02*
X0180083Y0199554D01*
X0180087Y0199592D02*
X0175364Y0199592D01*
X0175363Y0199630D02*
X0180088Y0199630D01*
X0180088Y0199668D02*
X0175363Y0199668D01*
X0175363Y0199706D02*
X0180088Y0199706D01*
X0180088Y0199743D02*
X0175363Y0199743D01*
X0175363Y0199781D02*
X0180088Y0199781D01*
X0180088Y0199819D02*
X0175363Y0199819D01*
X0175363Y0199857D02*
X0180088Y0199857D01*
X0180088Y0199895D02*
X0175363Y0199895D01*
X0175363Y0199933D02*
X0180088Y0199933D01*
X0180088Y0199971D02*
X0175363Y0199971D01*
X0175363Y0200009D02*
X0180088Y0200009D01*
X0180088Y0200046D02*
X0175363Y0200046D01*
X0175363Y0200084D02*
X0180088Y0200084D01*
X0180088Y0200122D02*
X0175363Y0200122D01*
X0175363Y0200160D02*
X0180088Y0200160D01*
X0180088Y0200198D02*
X0175363Y0200198D01*
X0175363Y0200236D02*
X0180088Y0200236D01*
X0180088Y0200274D02*
X0175363Y0200274D01*
X0175363Y0200312D02*
X0180088Y0200312D01*
X0180088Y0200350D02*
X0175363Y0200350D01*
X0175363Y0200387D02*
X0180088Y0200387D01*
X0180088Y0200425D02*
X0175363Y0200425D01*
X0175363Y0200463D02*
X0180088Y0200463D01*
X0180088Y0200501D02*
X0175363Y0200501D01*
X0175363Y0200539D02*
X0180088Y0200539D01*
X0180088Y0200577D02*
X0175363Y0200577D01*
X0175363Y0200615D02*
X0180088Y0200615D01*
X0180088Y0200653D02*
X0175363Y0200653D01*
X0175363Y0200690D02*
X0180088Y0200690D01*
X0180088Y0200728D02*
X0175363Y0200728D01*
X0175363Y0200766D02*
X0180088Y0200766D01*
X0180088Y0200804D02*
X0175363Y0200804D01*
X0175363Y0200842D02*
X0180088Y0200842D01*
X0180088Y0200880D02*
X0175363Y0200880D01*
X0175363Y0200918D02*
X0180088Y0200918D01*
X0180088Y0200956D02*
X0175363Y0200956D01*
X0175363Y0200994D02*
X0180088Y0200994D01*
X0180088Y0201031D02*
X0175363Y0201031D01*
X0175363Y0201069D02*
X0180088Y0201069D01*
X0180088Y0201107D02*
X0175363Y0201107D01*
X0175363Y0201145D02*
X0180088Y0201145D01*
X0180088Y0201183D02*
X0175363Y0201183D01*
X0175363Y0201221D02*
X0180088Y0201221D01*
X0180088Y0201259D02*
X0175363Y0201259D01*
X0175363Y0201297D02*
X0180088Y0201297D01*
X0180088Y0201334D02*
X0175363Y0201334D01*
X0175363Y0201372D02*
X0180088Y0201372D01*
X0180088Y0201410D02*
X0175363Y0201410D01*
X0175363Y0201448D02*
X0180088Y0201448D01*
X0180088Y0201486D02*
X0175363Y0201486D01*
X0175363Y0201524D02*
X0180088Y0201524D01*
X0180088Y0201562D02*
X0175363Y0201562D01*
X0175363Y0201600D02*
X0180088Y0201600D01*
X0180088Y0201638D02*
X0175363Y0201638D01*
X0175363Y0201675D02*
X0180088Y0201675D01*
X0180088Y0201713D02*
X0175363Y0201713D01*
X0175363Y0201751D02*
X0180088Y0201751D01*
X0180088Y0201789D02*
X0175363Y0201789D01*
X0175363Y0201827D02*
X0180088Y0201827D01*
X0180088Y0201865D02*
X0175363Y0201865D01*
X0175363Y0201903D02*
X0180088Y0201903D01*
X0180088Y0201941D02*
X0175363Y0201941D01*
X0175365Y0201978D02*
X0180085Y0201978D01*
X0180081Y0202016D02*
X0175369Y0202016D01*
X0175373Y0202054D02*
X0180077Y0202054D01*
X0180072Y0202092D02*
X0175377Y0202092D01*
X0175381Y0202130D02*
X0180068Y0202130D01*
X0180063Y0202168D02*
X0175385Y0202168D01*
X0175388Y0202206D02*
X0180059Y0202206D01*
X0180054Y0202244D02*
X0175392Y0202244D01*
X0175396Y0202281D02*
X0180050Y0202281D01*
X0180046Y0202319D02*
X0175400Y0202319D01*
X0175404Y0202357D02*
X0180041Y0202357D01*
X0180037Y0202395D02*
X0175408Y0202395D01*
X0175415Y0202433D02*
X0180032Y0202433D01*
X0180028Y0202471D02*
X0175426Y0202471D01*
X0175438Y0202509D02*
X0180017Y0202509D01*
X0180004Y0202547D02*
X0175450Y0202547D01*
X0175461Y0202585D02*
X0179990Y0202585D01*
X0179977Y0202622D02*
X0175473Y0202622D01*
X0175485Y0202660D02*
X0179964Y0202660D01*
X0179950Y0202698D02*
X0175496Y0202698D01*
X0175508Y0202736D02*
X0179937Y0202736D01*
X0179923Y0202774D02*
X0175520Y0202774D01*
X0175531Y0202812D02*
X0179910Y0202812D01*
X0179896Y0202850D02*
X0175543Y0202850D01*
X0175561Y0202888D02*
X0179883Y0202888D01*
X0179870Y0202925D02*
X0175582Y0202925D01*
X0175602Y0202963D02*
X0179856Y0202963D01*
X0179837Y0203001D02*
X0175623Y0203001D01*
X0175643Y0203039D02*
X0179813Y0203039D01*
X0179789Y0203077D02*
X0175664Y0203077D01*
X0175684Y0203115D02*
X0179765Y0203115D01*
X0179741Y0203153D02*
X0175705Y0203153D01*
X0175725Y0203191D02*
X0179717Y0203191D01*
X0179693Y0203229D02*
X0175745Y0203229D01*
X0175766Y0203266D02*
X0179668Y0203266D01*
X0179644Y0203304D02*
X0175798Y0203304D01*
X0175829Y0203342D02*
X0179620Y0203342D01*
X0179596Y0203380D02*
X0175860Y0203380D01*
X0175892Y0203418D02*
X0179572Y0203418D01*
X0179537Y0203456D02*
X0175923Y0203456D01*
X0175954Y0203494D02*
X0179498Y0203494D01*
X0179460Y0203532D02*
X0175986Y0203532D01*
X0176017Y0203569D02*
X0179422Y0203569D01*
X0179384Y0203607D02*
X0176048Y0203607D01*
X0176090Y0203645D02*
X0179346Y0203645D01*
X0179307Y0203683D02*
X0176136Y0203683D01*
X0176183Y0203721D02*
X0179269Y0203721D01*
X0179231Y0203759D02*
X0176229Y0203759D01*
X0176276Y0203797D02*
X0179192Y0203797D01*
X0179131Y0203835D02*
X0176323Y0203835D01*
X0176369Y0203873D02*
X0179070Y0203873D01*
X0179009Y0203910D02*
X0176416Y0203910D01*
X0176487Y0203948D02*
X0178949Y0203948D01*
X0178888Y0203986D02*
X0176558Y0203986D01*
X0176630Y0204024D02*
X0178827Y0204024D01*
X0178766Y0204062D02*
X0176701Y0204062D01*
X0176773Y0204100D02*
X0178671Y0204100D01*
X0178562Y0204138D02*
X0176860Y0204138D01*
X0176987Y0204176D02*
X0178452Y0204176D01*
X0178342Y0204213D02*
X0177114Y0204213D01*
X0177240Y0204251D02*
X0178196Y0204251D01*
X0177847Y0204289D02*
X0177586Y0204289D01*
X0209379Y0201960D02*
X0209379Y0199598D01*
X0209423Y0199135D01*
X0209556Y0198689D01*
X0209773Y0198278D01*
X0210067Y0197917D01*
X0210425Y0197621D01*
X0210834Y0197400D01*
X0211279Y0197263D01*
X0211741Y0197216D01*
X0212269Y0197277D01*
X0212769Y0197455D01*
X0213218Y0197739D01*
X0213592Y0198117D01*
X0213873Y0198567D01*
X0214046Y0199070D01*
X0214103Y0199598D01*
X0214103Y0201960D01*
X0214042Y0202483D01*
X0213866Y0202980D01*
X0213584Y0203424D01*
X0213210Y0203795D01*
X0212763Y0204074D01*
X0212265Y0204246D01*
X0211741Y0204302D01*
X0211282Y0204259D01*
X0210840Y0204127D01*
X0210433Y0203911D01*
X0210075Y0203620D01*
X0209781Y0203265D01*
X0209562Y0202859D01*
X0209426Y0202419D01*
X0209379Y0201960D01*
X0209381Y0201978D02*
X0214101Y0201978D01*
X0214103Y0201941D02*
X0209379Y0201941D01*
X0209379Y0201903D02*
X0214103Y0201903D01*
X0214103Y0201865D02*
X0209379Y0201865D01*
X0209379Y0201827D02*
X0214103Y0201827D01*
X0214103Y0201789D02*
X0209379Y0201789D01*
X0209379Y0201751D02*
X0214103Y0201751D01*
X0214103Y0201713D02*
X0209379Y0201713D01*
X0209379Y0201675D02*
X0214103Y0201675D01*
X0214103Y0201638D02*
X0209379Y0201638D01*
X0209379Y0201600D02*
X0214103Y0201600D01*
X0214103Y0201562D02*
X0209379Y0201562D01*
X0209379Y0201524D02*
X0214103Y0201524D01*
X0214103Y0201486D02*
X0209379Y0201486D01*
X0209379Y0201448D02*
X0214103Y0201448D01*
X0214103Y0201410D02*
X0209379Y0201410D01*
X0209379Y0201372D02*
X0214103Y0201372D01*
X0214103Y0201334D02*
X0209379Y0201334D01*
X0209379Y0201297D02*
X0214103Y0201297D01*
X0214103Y0201259D02*
X0209379Y0201259D01*
X0209379Y0201221D02*
X0214103Y0201221D01*
X0214103Y0201183D02*
X0209379Y0201183D01*
X0209379Y0201145D02*
X0214103Y0201145D01*
X0214103Y0201107D02*
X0209379Y0201107D01*
X0209379Y0201069D02*
X0214103Y0201069D01*
X0214103Y0201031D02*
X0209379Y0201031D01*
X0209379Y0200994D02*
X0214103Y0200994D01*
X0214103Y0200956D02*
X0209379Y0200956D01*
X0209379Y0200918D02*
X0214103Y0200918D01*
X0214103Y0200880D02*
X0209379Y0200880D01*
X0209379Y0200842D02*
X0214103Y0200842D01*
X0214103Y0200804D02*
X0209379Y0200804D01*
X0209379Y0200766D02*
X0214103Y0200766D01*
X0214103Y0200728D02*
X0209379Y0200728D01*
X0209379Y0200690D02*
X0214103Y0200690D01*
X0214103Y0200653D02*
X0209379Y0200653D01*
X0209379Y0200615D02*
X0214103Y0200615D01*
X0214103Y0200577D02*
X0209379Y0200577D01*
X0209379Y0200539D02*
X0214103Y0200539D01*
X0214103Y0200501D02*
X0209379Y0200501D01*
X0209379Y0200463D02*
X0214103Y0200463D01*
X0214103Y0200425D02*
X0209379Y0200425D01*
X0209379Y0200387D02*
X0214103Y0200387D01*
X0214103Y0200350D02*
X0209379Y0200350D01*
X0209379Y0200312D02*
X0214103Y0200312D01*
X0214103Y0200274D02*
X0209379Y0200274D01*
X0209379Y0200236D02*
X0214103Y0200236D01*
X0214103Y0200198D02*
X0209379Y0200198D01*
X0209379Y0200160D02*
X0214103Y0200160D01*
X0214103Y0200122D02*
X0209379Y0200122D01*
X0209379Y0200084D02*
X0214103Y0200084D01*
X0214103Y0200046D02*
X0209379Y0200046D01*
X0209379Y0200009D02*
X0214103Y0200009D01*
X0214103Y0199971D02*
X0209379Y0199971D01*
X0209379Y0199933D02*
X0214103Y0199933D01*
X0214103Y0199895D02*
X0209379Y0199895D01*
X0209379Y0199857D02*
X0214103Y0199857D01*
X0214103Y0199819D02*
X0209379Y0199819D01*
X0209379Y0199781D02*
X0214103Y0199781D01*
X0214103Y0199743D02*
X0209379Y0199743D01*
X0209379Y0199706D02*
X0214103Y0199706D01*
X0214103Y0199668D02*
X0209379Y0199668D01*
X0209379Y0199630D02*
X0214103Y0199630D01*
X0214103Y0199592D02*
X0209380Y0199592D01*
X0209383Y0199554D02*
X0214099Y0199554D01*
X0214095Y0199516D02*
X0209387Y0199516D01*
X0209390Y0199478D02*
X0214090Y0199478D01*
X0214086Y0199440D02*
X0209394Y0199440D01*
X0209397Y0199403D02*
X0214082Y0199403D01*
X0214078Y0199365D02*
X0209401Y0199365D01*
X0209405Y0199327D02*
X0214074Y0199327D01*
X0214070Y0199289D02*
X0209408Y0199289D01*
X0209412Y0199251D02*
X0214066Y0199251D01*
X0214062Y0199213D02*
X0209415Y0199213D01*
X0209419Y0199175D02*
X0214058Y0199175D01*
X0214053Y0199137D02*
X0209422Y0199137D01*
X0209433Y0199099D02*
X0214049Y0199099D01*
X0214043Y0199062D02*
X0209445Y0199062D01*
X0209456Y0199024D02*
X0214030Y0199024D01*
X0214017Y0198986D02*
X0209467Y0198986D01*
X0209478Y0198948D02*
X0214004Y0198948D01*
X0213991Y0198910D02*
X0209490Y0198910D01*
X0209501Y0198872D02*
X0213978Y0198872D01*
X0213965Y0198834D02*
X0209512Y0198834D01*
X0209524Y0198796D02*
X0213952Y0198796D01*
X0213939Y0198759D02*
X0209535Y0198759D01*
X0209546Y0198721D02*
X0213926Y0198721D01*
X0213913Y0198683D02*
X0209559Y0198683D01*
X0209579Y0198645D02*
X0213900Y0198645D01*
X0213886Y0198607D02*
X0209599Y0198607D01*
X0209619Y0198569D02*
X0213873Y0198569D01*
X0213850Y0198531D02*
X0209639Y0198531D01*
X0209659Y0198493D02*
X0213827Y0198493D01*
X0213803Y0198455D02*
X0209679Y0198455D01*
X0209699Y0198418D02*
X0213779Y0198418D01*
X0213756Y0198380D02*
X0209720Y0198380D01*
X0209740Y0198342D02*
X0213732Y0198342D01*
X0213709Y0198304D02*
X0209760Y0198304D01*
X0209783Y0198266D02*
X0213685Y0198266D01*
X0213662Y0198228D02*
X0209814Y0198228D01*
X0209845Y0198190D02*
X0213638Y0198190D01*
X0213614Y0198152D02*
X0209876Y0198152D01*
X0209906Y0198115D02*
X0213590Y0198115D01*
X0213552Y0198077D02*
X0209937Y0198077D01*
X0209968Y0198039D02*
X0213515Y0198039D01*
X0213477Y0198001D02*
X0209999Y0198001D01*
X0210030Y0197963D02*
X0213440Y0197963D01*
X0213402Y0197925D02*
X0210061Y0197925D01*
X0210103Y0197887D02*
X0213365Y0197887D01*
X0213327Y0197849D02*
X0210149Y0197849D01*
X0210195Y0197811D02*
X0213290Y0197811D01*
X0213252Y0197774D02*
X0210241Y0197774D01*
X0210286Y0197736D02*
X0213212Y0197736D01*
X0213152Y0197698D02*
X0210332Y0197698D01*
X0210378Y0197660D02*
X0213093Y0197660D01*
X0213033Y0197622D02*
X0210424Y0197622D01*
X0210493Y0197584D02*
X0212973Y0197584D01*
X0212914Y0197546D02*
X0210563Y0197546D01*
X0210633Y0197508D02*
X0212854Y0197508D01*
X0212794Y0197471D02*
X0210704Y0197471D01*
X0210774Y0197433D02*
X0212707Y0197433D01*
X0212600Y0197395D02*
X0210851Y0197395D01*
X0210974Y0197357D02*
X0212493Y0197357D01*
X0212386Y0197319D02*
X0211097Y0197319D01*
X0211220Y0197281D02*
X0212279Y0197281D01*
X0211977Y0197243D02*
X0211473Y0197243D01*
X0209385Y0202016D02*
X0214097Y0202016D01*
X0214092Y0202054D02*
X0209389Y0202054D01*
X0209393Y0202092D02*
X0214088Y0202092D01*
X0214084Y0202130D02*
X0209396Y0202130D01*
X0209400Y0202168D02*
X0214079Y0202168D01*
X0214075Y0202206D02*
X0209404Y0202206D01*
X0209408Y0202244D02*
X0214070Y0202244D01*
X0214066Y0202281D02*
X0209412Y0202281D01*
X0209416Y0202319D02*
X0214061Y0202319D01*
X0214057Y0202357D02*
X0209420Y0202357D01*
X0209424Y0202395D02*
X0214053Y0202395D01*
X0214048Y0202433D02*
X0209431Y0202433D01*
X0209442Y0202471D02*
X0214044Y0202471D01*
X0214033Y0202509D02*
X0209454Y0202509D01*
X0209466Y0202547D02*
X0214020Y0202547D01*
X0214006Y0202585D02*
X0209477Y0202585D01*
X0209489Y0202622D02*
X0213993Y0202622D01*
X0213979Y0202660D02*
X0209501Y0202660D01*
X0209512Y0202698D02*
X0213966Y0202698D01*
X0213952Y0202736D02*
X0209524Y0202736D01*
X0209536Y0202774D02*
X0213939Y0202774D01*
X0213926Y0202812D02*
X0209547Y0202812D01*
X0209559Y0202850D02*
X0213912Y0202850D01*
X0213899Y0202888D02*
X0209577Y0202888D01*
X0209598Y0202925D02*
X0213885Y0202925D01*
X0213872Y0202963D02*
X0209618Y0202963D01*
X0209638Y0203001D02*
X0213852Y0203001D01*
X0213828Y0203039D02*
X0209659Y0203039D01*
X0209679Y0203077D02*
X0213804Y0203077D01*
X0213780Y0203115D02*
X0209700Y0203115D01*
X0209720Y0203153D02*
X0213756Y0203153D01*
X0213732Y0203191D02*
X0209741Y0203191D01*
X0209761Y0203229D02*
X0213708Y0203229D01*
X0213684Y0203266D02*
X0209782Y0203266D01*
X0209813Y0203304D02*
X0213660Y0203304D01*
X0213636Y0203342D02*
X0209845Y0203342D01*
X0209876Y0203380D02*
X0213612Y0203380D01*
X0213588Y0203418D02*
X0209907Y0203418D01*
X0209939Y0203456D02*
X0213552Y0203456D01*
X0213514Y0203494D02*
X0209970Y0203494D01*
X0210001Y0203532D02*
X0213476Y0203532D01*
X0213438Y0203569D02*
X0210033Y0203569D01*
X0210064Y0203607D02*
X0213400Y0203607D01*
X0213361Y0203645D02*
X0210106Y0203645D01*
X0210152Y0203683D02*
X0213323Y0203683D01*
X0213285Y0203721D02*
X0210199Y0203721D01*
X0210245Y0203759D02*
X0213247Y0203759D01*
X0213208Y0203797D02*
X0210292Y0203797D01*
X0210338Y0203835D02*
X0213147Y0203835D01*
X0213086Y0203873D02*
X0210385Y0203873D01*
X0210431Y0203910D02*
X0213025Y0203910D01*
X0212964Y0203948D02*
X0210502Y0203948D01*
X0210574Y0203986D02*
X0212903Y0203986D01*
X0212843Y0204024D02*
X0210646Y0204024D01*
X0210717Y0204062D02*
X0212782Y0204062D01*
X0212687Y0204100D02*
X0210789Y0204100D01*
X0210876Y0204138D02*
X0212577Y0204138D01*
X0212468Y0204176D02*
X0211003Y0204176D01*
X0211129Y0204213D02*
X0212358Y0204213D01*
X0212212Y0204251D02*
X0211256Y0204251D01*
X0211602Y0204289D02*
X0211862Y0204289D01*
X0211741Y0188830D02*
X0212245Y0188798D01*
X0212730Y0188654D01*
X0213170Y0188406D01*
X0213544Y0188066D01*
X0213833Y0187651D01*
X0214023Y0187183D01*
X0214103Y0186684D01*
X0214103Y0181960D01*
X0214042Y0181518D01*
X0213896Y0181097D01*
X0213671Y0180712D01*
X0213375Y0180378D01*
X0213019Y0180109D01*
X0212618Y0179914D01*
X0212186Y0179801D01*
X0211741Y0179775D01*
X0211296Y0179801D01*
X0210864Y0179914D01*
X0210463Y0180109D01*
X0210108Y0180378D01*
X0209811Y0180712D01*
X0209586Y0181097D01*
X0209440Y0181518D01*
X0209379Y0181960D01*
X0209379Y0186684D01*
X0209460Y0187183D01*
X0209649Y0187651D01*
X0209938Y0188066D01*
X0210312Y0188406D01*
X0210753Y0188654D01*
X0211237Y0188798D01*
X0211741Y0188830D01*
X0211231Y0188796D02*
X0212251Y0188796D01*
X0212379Y0188758D02*
X0211103Y0188758D01*
X0210976Y0188720D02*
X0212507Y0188720D01*
X0212634Y0188682D02*
X0210848Y0188682D01*
X0210736Y0188644D02*
X0212747Y0188644D01*
X0212814Y0188606D02*
X0210668Y0188606D01*
X0210601Y0188568D02*
X0212881Y0188568D01*
X0212948Y0188531D02*
X0210534Y0188531D01*
X0210467Y0188493D02*
X0213016Y0188493D01*
X0213083Y0188455D02*
X0210399Y0188455D01*
X0210332Y0188417D02*
X0213150Y0188417D01*
X0213199Y0188379D02*
X0210283Y0188379D01*
X0210241Y0188341D02*
X0213241Y0188341D01*
X0213283Y0188303D02*
X0210200Y0188303D01*
X0210158Y0188265D02*
X0213325Y0188265D01*
X0213366Y0188227D02*
X0210116Y0188227D01*
X0210074Y0188190D02*
X0213408Y0188190D01*
X0213450Y0188152D02*
X0210033Y0188152D01*
X0209991Y0188114D02*
X0213491Y0188114D01*
X0213533Y0188076D02*
X0209949Y0188076D01*
X0209919Y0188038D02*
X0213564Y0188038D01*
X0213590Y0188000D02*
X0209892Y0188000D01*
X0209866Y0187962D02*
X0213616Y0187962D01*
X0213643Y0187924D02*
X0209840Y0187924D01*
X0209813Y0187887D02*
X0213669Y0187887D01*
X0213696Y0187849D02*
X0209787Y0187849D01*
X0209760Y0187811D02*
X0213722Y0187811D01*
X0213749Y0187773D02*
X0209734Y0187773D01*
X0209707Y0187735D02*
X0213775Y0187735D01*
X0213801Y0187697D02*
X0209681Y0187697D01*
X0209655Y0187659D02*
X0213828Y0187659D01*
X0213845Y0187621D02*
X0209637Y0187621D01*
X0209622Y0187584D02*
X0213861Y0187584D01*
X0213876Y0187546D02*
X0209606Y0187546D01*
X0209591Y0187508D02*
X0213891Y0187508D01*
X0213907Y0187470D02*
X0209576Y0187470D01*
X0209560Y0187432D02*
X0213922Y0187432D01*
X0213937Y0187394D02*
X0209545Y0187394D01*
X0209530Y0187356D02*
X0213953Y0187356D01*
X0213968Y0187318D02*
X0209514Y0187318D01*
X0209499Y0187280D02*
X0213983Y0187280D01*
X0213999Y0187243D02*
X0209484Y0187243D01*
X0209468Y0187205D02*
X0214014Y0187205D01*
X0214025Y0187167D02*
X0209457Y0187167D01*
X0209451Y0187129D02*
X0214032Y0187129D01*
X0214038Y0187091D02*
X0209445Y0187091D01*
X0209439Y0187053D02*
X0214044Y0187053D01*
X0214050Y0187015D02*
X0209432Y0187015D01*
X0209426Y0186977D02*
X0214056Y0186977D01*
X0214062Y0186940D02*
X0209420Y0186940D01*
X0209414Y0186902D02*
X0214068Y0186902D01*
X0214074Y0186864D02*
X0209408Y0186864D01*
X0209402Y0186826D02*
X0214081Y0186826D01*
X0214087Y0186788D02*
X0209396Y0186788D01*
X0209390Y0186750D02*
X0214093Y0186750D01*
X0214099Y0186712D02*
X0209384Y0186712D01*
X0209379Y0186674D02*
X0214103Y0186674D01*
X0214103Y0186636D02*
X0209379Y0186636D01*
X0209379Y0186599D02*
X0214103Y0186599D01*
X0214103Y0186561D02*
X0209379Y0186561D01*
X0209379Y0186523D02*
X0214103Y0186523D01*
X0214103Y0186485D02*
X0209379Y0186485D01*
X0209379Y0186447D02*
X0214103Y0186447D01*
X0214103Y0186409D02*
X0209379Y0186409D01*
X0209379Y0186371D02*
X0214103Y0186371D01*
X0214103Y0186333D02*
X0209379Y0186333D01*
X0209379Y0186296D02*
X0214103Y0186296D01*
X0214103Y0186258D02*
X0209379Y0186258D01*
X0209379Y0186220D02*
X0214103Y0186220D01*
X0214103Y0186182D02*
X0209379Y0186182D01*
X0209379Y0186144D02*
X0214103Y0186144D01*
X0214103Y0186106D02*
X0209379Y0186106D01*
X0209379Y0186068D02*
X0214103Y0186068D01*
X0214103Y0186030D02*
X0209379Y0186030D01*
X0209379Y0185992D02*
X0214103Y0185992D01*
X0214103Y0185955D02*
X0209379Y0185955D01*
X0209379Y0185917D02*
X0214103Y0185917D01*
X0214103Y0185879D02*
X0209379Y0185879D01*
X0209379Y0185841D02*
X0214103Y0185841D01*
X0214103Y0185803D02*
X0209379Y0185803D01*
X0209379Y0185765D02*
X0214103Y0185765D01*
X0214103Y0185727D02*
X0209379Y0185727D01*
X0209379Y0185689D02*
X0214103Y0185689D01*
X0214103Y0185652D02*
X0209379Y0185652D01*
X0209379Y0185614D02*
X0214103Y0185614D01*
X0214103Y0185576D02*
X0209379Y0185576D01*
X0209379Y0185538D02*
X0214103Y0185538D01*
X0214103Y0185500D02*
X0209379Y0185500D01*
X0209379Y0185462D02*
X0214103Y0185462D01*
X0214103Y0185424D02*
X0209379Y0185424D01*
X0209379Y0185386D02*
X0214103Y0185386D01*
X0214103Y0185349D02*
X0209379Y0185349D01*
X0209379Y0185311D02*
X0214103Y0185311D01*
X0214103Y0185273D02*
X0209379Y0185273D01*
X0209379Y0185235D02*
X0214103Y0185235D01*
X0214103Y0185197D02*
X0209379Y0185197D01*
X0209379Y0185159D02*
X0214103Y0185159D01*
X0214103Y0185121D02*
X0209379Y0185121D01*
X0209379Y0185083D02*
X0214103Y0185083D01*
X0214103Y0185045D02*
X0209379Y0185045D01*
X0209379Y0185008D02*
X0214103Y0185008D01*
X0214103Y0184970D02*
X0209379Y0184970D01*
X0209379Y0184932D02*
X0214103Y0184932D01*
X0214103Y0184894D02*
X0209379Y0184894D01*
X0209379Y0184856D02*
X0214103Y0184856D01*
X0214103Y0184818D02*
X0209379Y0184818D01*
X0209379Y0184780D02*
X0214103Y0184780D01*
X0214103Y0184742D02*
X0209379Y0184742D01*
X0209379Y0184705D02*
X0214103Y0184705D01*
X0214103Y0184667D02*
X0209379Y0184667D01*
X0209379Y0184629D02*
X0214103Y0184629D01*
X0214103Y0184591D02*
X0209379Y0184591D01*
X0209379Y0184553D02*
X0214103Y0184553D01*
X0214103Y0184515D02*
X0209379Y0184515D01*
X0209379Y0184477D02*
X0214103Y0184477D01*
X0214103Y0184439D02*
X0209379Y0184439D01*
X0209379Y0184401D02*
X0214103Y0184401D01*
X0214103Y0184364D02*
X0209379Y0184364D01*
X0209379Y0184326D02*
X0214103Y0184326D01*
X0214103Y0184288D02*
X0209379Y0184288D01*
X0209379Y0184250D02*
X0214103Y0184250D01*
X0214103Y0184212D02*
X0209379Y0184212D01*
X0209379Y0184174D02*
X0214103Y0184174D01*
X0214103Y0184136D02*
X0209379Y0184136D01*
X0209379Y0184098D02*
X0214103Y0184098D01*
X0214103Y0184061D02*
X0209379Y0184061D01*
X0209379Y0184023D02*
X0214103Y0184023D01*
X0214103Y0183985D02*
X0209379Y0183985D01*
X0209379Y0183947D02*
X0214103Y0183947D01*
X0214103Y0183909D02*
X0209379Y0183909D01*
X0209379Y0183871D02*
X0214103Y0183871D01*
X0214103Y0183833D02*
X0209379Y0183833D01*
X0209379Y0183795D02*
X0214103Y0183795D01*
X0214103Y0183757D02*
X0209379Y0183757D01*
X0209379Y0183720D02*
X0214103Y0183720D01*
X0214103Y0183682D02*
X0209379Y0183682D01*
X0209379Y0183644D02*
X0214103Y0183644D01*
X0214103Y0183606D02*
X0209379Y0183606D01*
X0209379Y0183568D02*
X0214103Y0183568D01*
X0214103Y0183530D02*
X0209379Y0183530D01*
X0209379Y0183492D02*
X0214103Y0183492D01*
X0214103Y0183454D02*
X0209379Y0183454D01*
X0209379Y0183417D02*
X0214103Y0183417D01*
X0214103Y0183379D02*
X0209379Y0183379D01*
X0209379Y0183341D02*
X0214103Y0183341D01*
X0214103Y0183303D02*
X0209379Y0183303D01*
X0209379Y0183265D02*
X0214103Y0183265D01*
X0214103Y0183227D02*
X0209379Y0183227D01*
X0209379Y0183189D02*
X0214103Y0183189D01*
X0214103Y0183151D02*
X0209379Y0183151D01*
X0209379Y0183114D02*
X0214103Y0183114D01*
X0214103Y0183076D02*
X0209379Y0183076D01*
X0209379Y0183038D02*
X0214103Y0183038D01*
X0214103Y0183000D02*
X0209379Y0183000D01*
X0209379Y0182962D02*
X0214103Y0182962D01*
X0214103Y0182924D02*
X0209379Y0182924D01*
X0209379Y0182886D02*
X0214103Y0182886D01*
X0214103Y0182848D02*
X0209379Y0182848D01*
X0209379Y0182810D02*
X0214103Y0182810D01*
X0214103Y0182773D02*
X0209379Y0182773D01*
X0209379Y0182735D02*
X0214103Y0182735D01*
X0214103Y0182697D02*
X0209379Y0182697D01*
X0209379Y0182659D02*
X0214103Y0182659D01*
X0214103Y0182621D02*
X0209379Y0182621D01*
X0209379Y0182583D02*
X0214103Y0182583D01*
X0214103Y0182545D02*
X0209379Y0182545D01*
X0209379Y0182507D02*
X0214103Y0182507D01*
X0214103Y0182470D02*
X0209379Y0182470D01*
X0209379Y0182432D02*
X0214103Y0182432D01*
X0214103Y0182394D02*
X0209379Y0182394D01*
X0209379Y0182356D02*
X0214103Y0182356D01*
X0214103Y0182318D02*
X0209379Y0182318D01*
X0209379Y0182280D02*
X0214103Y0182280D01*
X0214103Y0182242D02*
X0209379Y0182242D01*
X0209379Y0182204D02*
X0214103Y0182204D01*
X0214103Y0182166D02*
X0209379Y0182166D01*
X0209379Y0182129D02*
X0214103Y0182129D01*
X0214103Y0182091D02*
X0209379Y0182091D01*
X0209379Y0182053D02*
X0214103Y0182053D01*
X0214103Y0182015D02*
X0209379Y0182015D01*
X0209379Y0181977D02*
X0214103Y0181977D01*
X0214101Y0181939D02*
X0209382Y0181939D01*
X0209387Y0181901D02*
X0214095Y0181901D01*
X0214090Y0181863D02*
X0209392Y0181863D01*
X0209398Y0181826D02*
X0214085Y0181826D01*
X0214080Y0181788D02*
X0209403Y0181788D01*
X0209408Y0181750D02*
X0214074Y0181750D01*
X0214069Y0181712D02*
X0209413Y0181712D01*
X0209418Y0181674D02*
X0214064Y0181674D01*
X0214059Y0181636D02*
X0209424Y0181636D01*
X0209429Y0181598D02*
X0214054Y0181598D01*
X0214048Y0181560D02*
X0209434Y0181560D01*
X0209439Y0181522D02*
X0214043Y0181522D01*
X0214031Y0181485D02*
X0209452Y0181485D01*
X0209465Y0181447D02*
X0214018Y0181447D01*
X0214005Y0181409D02*
X0209478Y0181409D01*
X0209491Y0181371D02*
X0213992Y0181371D01*
X0213978Y0181333D02*
X0209504Y0181333D01*
X0209517Y0181295D02*
X0213965Y0181295D01*
X0213952Y0181257D02*
X0209530Y0181257D01*
X0209543Y0181219D02*
X0213939Y0181219D01*
X0213926Y0181182D02*
X0209557Y0181182D01*
X0209570Y0181144D02*
X0213913Y0181144D01*
X0213900Y0181106D02*
X0209583Y0181106D01*
X0209603Y0181068D02*
X0213880Y0181068D01*
X0213858Y0181030D02*
X0209625Y0181030D01*
X0209647Y0180992D02*
X0213835Y0180992D01*
X0213813Y0180954D02*
X0209669Y0180954D01*
X0209691Y0180916D02*
X0213791Y0180916D01*
X0213769Y0180879D02*
X0209714Y0180879D01*
X0209736Y0180841D02*
X0213747Y0180841D01*
X0213724Y0180803D02*
X0209758Y0180803D01*
X0209780Y0180765D02*
X0213702Y0180765D01*
X0213680Y0180727D02*
X0209802Y0180727D01*
X0209831Y0180689D02*
X0213651Y0180689D01*
X0213617Y0180651D02*
X0209865Y0180651D01*
X0209899Y0180613D02*
X0213584Y0180613D01*
X0213550Y0180575D02*
X0209932Y0180575D01*
X0209966Y0180538D02*
X0213516Y0180538D01*
X0213483Y0180500D02*
X0210000Y0180500D01*
X0210033Y0180462D02*
X0213449Y0180462D01*
X0213416Y0180424D02*
X0210067Y0180424D01*
X0210101Y0180386D02*
X0213382Y0180386D01*
X0213335Y0180348D02*
X0210147Y0180348D01*
X0210197Y0180310D02*
X0213285Y0180310D01*
X0213235Y0180272D02*
X0210247Y0180272D01*
X0210297Y0180235D02*
X0213185Y0180235D01*
X0213135Y0180197D02*
X0210347Y0180197D01*
X0210397Y0180159D02*
X0213085Y0180159D01*
X0213035Y0180121D02*
X0210447Y0180121D01*
X0210516Y0180083D02*
X0212966Y0180083D01*
X0212888Y0180045D02*
X0210594Y0180045D01*
X0210672Y0180007D02*
X0212810Y0180007D01*
X0212732Y0179969D02*
X0210750Y0179969D01*
X0210828Y0179931D02*
X0212654Y0179931D01*
X0212540Y0179894D02*
X0210942Y0179894D01*
X0211087Y0179856D02*
X0212395Y0179856D01*
X0212250Y0179818D02*
X0211232Y0179818D01*
X0211654Y0179780D02*
X0211828Y0179780D01*
D27*
X0182933Y0168183D03*
X0177333Y0168183D03*
X0177333Y0163617D03*
X0182933Y0163617D03*
X0270333Y0118283D03*
X0270333Y0113717D03*
D28*
X0308333Y0155701D03*
D29*
X0306463Y0168299D03*
X0310203Y0168299D03*
M02*
