M48
;GenerationSoftware,Autodesk,EAGLE,9.6.2*%
;CreationDate,2020-10-20T16:39:37Z*%
FMAT,2
ICI,OFF
METRIC,TZ,000.000
T7C0.305
T6C0.350
T5C0.400
T4C0.508
T3C0.650
T2C1.016
T1C3.302
%
G90
M71
T1
X49530Y2540
X85090Y34265
X96520Y34265
X96520Y2540
X132080Y2540
X132080Y74117
X85090Y74117
X132080Y34265
X2540Y74117
X2540Y42393
X38100Y42393
X96520Y74117
X96520Y42393
X2540Y34265
X2540Y2540
X38100Y2540
X38100Y74117
X49530Y74117
X38100Y34265
X49530Y34265
X49530Y42393
X85090Y2540
X85090Y42393
X132080Y42393
T2
X21590Y41123
X125730Y1270
X123190Y1270
X120650Y1270
X118110Y1270
X128270Y35560
X125730Y35560
X123190Y35560
X120650Y35560
X118110Y35560
X115570Y35560
X113030Y35560
X63500Y1270
X60960Y1270
X76200Y1270
X66040Y35560
X68580Y35560
X71120Y35560
X73660Y35560
X76200Y35560
X78740Y35560
X107950Y1270
X81280Y35560
X71120Y1270
X73660Y1270
X21590Y1270
X19050Y1270
X16510Y1270
X13970Y1270
X19050Y35560
X21590Y35560
X24130Y35560
X26670Y35560
X29210Y35560
X31750Y35560
X34290Y35560
X24130Y1270
X26670Y1270
X29210Y1270
X31750Y1270
X110490Y1270
X113030Y1270
X115570Y1270
X78740Y1270
X68580Y1270
X66040Y1270
X19050Y41123
X16510Y41123
X13970Y41123
X19050Y75413
X21590Y75413
X24130Y75413
X26670Y75413
X29210Y75413
X31750Y75413
X34290Y75413
X24130Y41123
X26670Y41123
X29210Y41123
X31750Y41123
X68580Y41123
X66040Y41123
X63500Y41123
X60960Y41123
X66040Y75413
X68580Y75413
X71120Y75413
X73660Y75413
X76200Y75413
X78740Y75413
X81280Y75413
X71120Y41123
X73660Y41123
X76200Y41123
X78740Y41123
X115570Y41123
X113030Y41123
X110490Y41123
X107950Y41123
X113030Y75413
X115570Y75413
X118110Y75413
X120650Y75413
X123190Y75413
X125730Y75413
X128270Y75413
X118110Y41123
X120650Y41123
X123190Y41123
X125730Y41123
T3
X54616Y71955
X107386Y71955
X101606Y71955
X60396Y71955
X13406Y32103
X7626Y32103
X60396Y32103
X54616Y32103
X107386Y32103
X101606Y32103
X13406Y71955
X7626Y71955
T4
X28778Y4166
X122758Y4166
X75768Y44018
X122758Y44018
X28778Y44018
X75768Y4166
T5
X108814Y35753
X100178Y35753
X100178Y31573
X108814Y31573
X14834Y31573
X61824Y35753
X53188Y35753
X53188Y31573
X61824Y75605
X53188Y75605
X53188Y71425
X61824Y71425
X61824Y31573
X6198Y31573
X6198Y35753
X14834Y35753
X108814Y71425
X14834Y75605
X6198Y75605
X6198Y71425
X14834Y71425
X108814Y75605
X100178Y75605
X100178Y71425
T6
X53721Y43536
X100711Y3683
X6731Y43536
X6731Y3683
X100711Y43536
X53721Y3683
T7
X34544Y14199
X32918Y10897
X28829Y23825
X31648Y24130
X31648Y23114
X29870Y21082
X31140Y21844
X32410Y21590
X32664Y20574
X30886Y20320
X32207Y26924
X32664Y29718
X32664Y30988
X34188Y30988
X34950Y32258
X33426Y32258
X31648Y30480
X34188Y20320
X35712Y20320
X33680Y18796
X34696Y18796
X35712Y18796
X36728Y18796
X37744Y18796
X35712Y17780
X37744Y17272
X31648Y27940
X31648Y29210
X30632Y28448
X30632Y26924
X29616Y27686
X28092Y26924
X39776Y30988
X37744Y30988
X35712Y30988
X762Y28702
X2540Y28702
X4318Y28702
X2540Y30734
X37236Y20320
X38760Y20320
X40030Y20320
X27635Y25705
X28981Y25019
X25552Y33020
X25552Y30226
X24028Y28956
X20726Y28956
X18186Y28956
X15900Y28956
X16916Y27432
X19710Y27432
X22758Y27432
X25552Y28194
X11409Y20778
X11836Y28956
X28092Y30226
X32537Y24384
X24841Y27178
X6326Y19279
X36830Y17146
X24816Y25146
X6833Y18771
X24333Y26416
X36830Y16477
X24130Y25146
X27635Y18440
X27813Y3429
X27686Y11405
X32207Y10109
X32240Y4870
X30607Y4978
X27270Y4962
X6121Y24181
X4089Y24130
X39700Y10566
X28991Y8645
X8128Y12929
X8128Y14453
X14097Y34265
X7112Y34265
X10820Y21285
X24384Y14732
X11532Y21666
X24384Y13716
X28829Y11024
X36195Y11532
X11481Y31928
X6096Y28727
X53340Y16731
X76708Y15596
X83820Y15723
X77470Y13157
X54864Y6833
X64008Y29693
X76835Y8484
X80518Y11938
X79197Y11557
X53340Y17755
X79832Y9500
X79629Y12446
X80264Y5817
X80010Y3810
X62865Y9246
X64770Y9246
X55499Y2540
X59182Y11405
X59868Y22403
X83947Y14707
X67310Y9246
X69850Y9246
X71882Y9246
X62865Y10516
X64770Y10516
X67310Y10516
X69850Y10516
X71882Y10516
X62865Y11786
X64770Y11786
X67310Y11786
X69850Y11786
X71882Y11786
X62865Y13056
X64770Y13056
X67310Y13056
X69850Y13056
X71882Y13056
X62865Y14326
X64770Y14326
X67310Y14326
X69850Y14326
X62865Y15596
X64770Y15596
X67310Y15596
X69850Y15596
X71882Y15596
X62865Y16866
X64770Y16866
X67310Y16866
X69850Y16866
X71882Y16866
X62865Y18136
X64770Y18136
X67310Y18136
X69850Y18136
X62865Y19406
X64770Y19406
X67310Y19406
X71933Y19202
X62865Y20676
X64770Y20676
X67310Y20676
X69850Y20676
X71933Y20980
X62865Y21946
X64770Y21946
X67310Y21946
X69850Y21946
X71831Y21946
X62865Y23216
X64770Y23216
X67310Y23216
X69850Y23216
X71882Y23216
X69850Y31471
X69850Y32995
X74295Y16866
X80010Y2540
X82550Y2540
X82550Y3810
X53848Y2540
X52578Y1016
X47777Y24613
X47752Y26391
X47752Y31471
X47752Y14199
X47752Y16866
X47752Y20676
X47752Y22581
X47752Y5309
X47752Y6706
X47752Y8611
X47752Y10262
X49022Y6706
X49022Y8611
X49022Y10262
X50292Y6706
X50292Y8611
X50292Y10262
X51562Y5334
X51562Y6706
X51562Y8611
X51562Y10516
X51562Y12421
X62865Y7976
X64770Y7976
X67310Y7976
X69850Y7976
X71882Y7976
X64770Y6706
X67310Y6706
X69850Y6706
X71882Y6706
X62865Y5563
X64770Y5563
X67310Y5563
X69850Y5563
X71882Y5563
X49530Y26391
X51308Y26391
X51308Y31471
X54331Y29032
X61214Y16866
X61214Y17882
X59309Y18618
X57658Y18669
X81280Y2540
X81280Y3810
X79756Y8357
X81280Y8357
X49022Y14199
X49022Y16866
X76530Y26213
X75006Y23393
X53975Y1016
X59309Y3048
X59309Y5080
X55499Y4572
X84938Y7366
X81280Y7087
X79756Y7087
X84836Y5817
X81534Y5817
X55499Y1016
X59309Y1016
X56744Y27889
X76454Y11913
X55880Y19660
X55880Y18644
X69850Y24968
X65557Y25019
X67335Y25019
X73381Y25375
X53772Y24740
X81534Y14199
X79908Y10897
X75819Y23825
X78638Y24130
X78638Y23114
X76860Y21082
X78130Y21844
X79400Y21590
X79654Y20574
X77876Y20320
X79197Y26924
X79654Y29718
X79654Y30988
X81178Y30988
X81940Y32258
X80416Y32258
X78638Y30480
X81178Y20320
X82702Y20320
X80670Y18796
X81686Y18796
X82702Y18796
X83718Y18796
X84734Y18796
X82702Y17780
X84734Y17272
X78638Y27940
X78638Y29210
X77622Y28448
X77622Y26924
X76606Y27686
X75082Y26924
X86766Y30988
X84734Y30988
X82702Y30988
X47752Y28702
X49530Y28702
X51308Y28702
X49530Y30734
X84226Y20320
X85750Y20320
X87020Y20320
X74625Y25705
X75971Y25019
X72542Y33020
X72542Y30226
X71018Y28956
X67716Y28956
X65176Y28956
X62890Y28956
X63906Y27432
X66700Y27432
X69748Y27432
X72542Y28194
X58399Y20778
X58826Y28956
X75082Y30226
X79527Y24384
X71831Y27178
X53316Y19279
X83820Y17146
X71806Y25146
X53823Y18771
X71323Y26416
X83820Y16477
X71120Y25146
X74625Y18440
X74803Y3429
X74676Y11405
X79197Y10109
X79230Y4870
X77597Y4978
X74260Y4962
X53111Y24181
X51079Y24130
X86690Y10566
X75981Y8645
X55118Y12929
X55118Y14453
X61087Y34265
X54102Y34265
X57810Y21285
X71374Y14732
X58522Y21666
X71374Y13716
X75819Y11024
X83185Y11532
X58471Y31928
X53086Y28727
X100330Y16731
X123698Y15596
X130810Y15723
X124460Y13157
X101854Y6833
X110998Y29693
X123825Y8484
X127508Y11938
X126187Y11557
X100330Y17755
X126822Y9500
X126619Y12446
X127254Y5817
X127000Y3810
X109855Y9246
X111760Y9246
X102489Y2540
X106172Y11405
X106858Y22403
X130937Y14707
X114300Y9246
X116840Y9246
X118872Y9246
X109855Y10516
X111760Y10516
X114300Y10516
X116840Y10516
X118872Y10516
X109855Y11786
X111760Y11786
X114300Y11786
X116840Y11786
X118872Y11786
X109855Y13056
X111760Y13056
X114300Y13056
X116840Y13056
X118872Y13056
X109855Y14326
X111760Y14326
X114300Y14326
X116840Y14326
X109855Y15596
X111760Y15596
X114300Y15596
X116840Y15596
X118872Y15596
X109855Y16866
X111760Y16866
X114300Y16866
X116840Y16866
X118872Y16866
X109855Y18136
X111760Y18136
X114300Y18136
X116840Y18136
X109855Y19406
X111760Y19406
X114300Y19406
X118923Y19202
X109855Y20676
X111760Y20676
X114300Y20676
X116840Y20676
X118923Y20980
X109855Y21946
X111760Y21946
X114300Y21946
X116840Y21946
X118821Y21946
X109855Y23216
X111760Y23216
X114300Y23216
X116840Y23216
X118872Y23216
X116840Y31471
X116840Y32995
X121285Y16866
X127000Y2540
X129540Y2540
X129540Y3810
X100838Y2540
X99568Y1016
X94767Y24613
X94742Y26391
X94742Y31471
X94742Y14199
X94742Y16866
X94742Y20676
X94742Y22581
X94742Y5309
X94742Y6706
X94742Y8611
X94742Y10262
X96012Y6706
X96012Y8611
X96012Y10262
X97282Y6706
X97282Y8611
X97282Y10262
X98552Y5334
X98552Y6706
X98552Y8611
X98552Y10516
X98552Y12421
X109855Y7976
X111760Y7976
X114300Y7976
X116840Y7976
X118872Y7976
X111760Y6706
X114300Y6706
X116840Y6706
X118872Y6706
X109855Y5563
X111760Y5563
X114300Y5563
X116840Y5563
X118872Y5563
X96520Y26391
X98298Y26391
X98298Y31471
X101321Y29032
X108204Y16866
X108204Y17882
X106299Y18618
X104648Y18669
X128270Y2540
X128270Y3810
X126746Y8357
X128270Y8357
X96012Y14199
X96012Y16866
X123520Y26213
X121996Y23393
X100965Y1016
X106299Y3048
X106299Y5080
X102489Y4572
X131928Y7366
X128270Y7087
X126746Y7087
X131826Y5817
X128524Y5817
X102489Y1016
X106299Y1016
X103734Y27889
X123444Y11913
X102870Y19660
X102870Y18644
X116840Y24968
X112547Y25019
X114325Y25019
X120371Y25375
X100762Y24740
X128524Y14199
X126898Y10897
X122809Y23825
X125628Y24130
X125628Y23114
X123850Y21082
X125120Y21844
X126390Y21590
X126644Y20574
X124866Y20320
X126187Y26924
X126644Y29718
X126644Y30988
X128168Y30988
X128930Y32258
X127406Y32258
X125628Y30480
X128168Y20320
X129692Y20320
X127660Y18796
X128676Y18796
X129692Y18796
X130708Y18796
X131724Y18796
X129692Y17780
X131724Y17272
X125628Y27940
X125628Y29210
X124612Y28448
X124612Y26924
X123596Y27686
X122072Y26924
X133756Y30988
X131724Y30988
X129692Y30988
X94742Y28702
X96520Y28702
X98298Y28702
X96520Y30734
X131216Y20320
X132740Y20320
X134010Y20320
X121615Y25705
X122961Y25019
X119532Y33020
X119532Y30226
X118008Y28956
X114706Y28956
X112166Y28956
X109880Y28956
X110896Y27432
X113690Y27432
X116738Y27432
X119532Y28194
X105389Y20778
X105816Y28956
X122072Y30226
X126517Y24384
X118821Y27178
X100306Y19279
X130810Y17146
X118796Y25146
X100813Y18771
X118313Y26416
X130810Y16477
X118110Y25146
X121615Y18440
X121793Y3429
X121666Y11405
X126187Y10109
X126220Y4870
X124587Y4978
X121250Y4962
X100101Y24181
X98069Y24130
X133680Y10566
X122971Y8645
X102108Y12929
X102108Y14453
X108077Y34265
X101092Y34265
X104800Y21285
X118364Y14732
X105512Y21666
X118364Y13716
X122809Y11024
X130175Y11532
X105461Y31928
X100076Y28727
X6350Y56583
X29718Y55448
X36830Y55575
X30480Y53010
X7874Y46685
X17018Y69545
X29845Y48336
X33528Y51791
X32207Y51410
X6350Y57607
X32842Y49352
X32639Y52299
X33274Y45669
X33020Y43663
X15875Y49098
X17780Y49098
X8509Y42393
X12192Y51257
X12878Y62255
X36957Y54559
X20320Y49098
X22860Y49098
X24892Y49098
X15875Y50368
X17780Y50368
X20320Y50368
X22860Y50368
X24892Y50368
X15875Y51638
X17780Y51638
X20320Y51638
X22860Y51638
X24892Y51638
X15875Y52908
X17780Y52908
X20320Y52908
X22860Y52908
X24892Y52908
X15875Y54178
X17780Y54178
X20320Y54178
X22860Y54178
X15875Y55448
X17780Y55448
X20320Y55448
X22860Y55448
X24892Y55448
X15875Y56718
X17780Y56718
X20320Y56718
X22860Y56718
X24892Y56718
X15875Y57988
X17780Y57988
X20320Y57988
X22860Y57988
X15875Y59258
X17780Y59258
X20320Y59258
X24943Y59055
X15875Y60528
X17780Y60528
X20320Y60528
X22860Y60528
X24943Y60833
X15875Y61798
X17780Y61798
X20320Y61798
X22860Y61798
X24841Y61798
X15875Y63068
X17780Y63068
X20320Y63068
X22860Y63068
X24892Y63068
X22860Y71323
X22860Y72847
X27305Y56718
X33020Y42393
X35560Y42393
X35560Y43663
X6858Y42393
X5588Y40869
X787Y64465
X762Y66243
X762Y71323
X762Y54051
X762Y56718
X762Y60528
X762Y62433
X762Y45161
X762Y46558
X762Y48463
X762Y50114
X2032Y46558
X2032Y48463
X2032Y50114
X3302Y46558
X3302Y48463
X3302Y50114
X4572Y45187
X4572Y46558
X4572Y48463
X4572Y50368
X4572Y52273
X15875Y47828
X17780Y47828
X20320Y47828
X22860Y47828
X24892Y47828
X17780Y46558
X20320Y46558
X22860Y46558
X24892Y46558
X15875Y45415
X17780Y45415
X20320Y45415
X22860Y45415
X24892Y45415
X2540Y66243
X4318Y66243
X4318Y71323
X7341Y68885
X14224Y56718
X14224Y57734
X12319Y58471
X10668Y58522
X34290Y42393
X34290Y43663
X32766Y48209
X34290Y48209
X2032Y54051
X2032Y56718
X29540Y66065
X28016Y63246
X6985Y40869
X12319Y42901
X12319Y44933
X8509Y44425
X37948Y47219
X34290Y46939
X32766Y46939
X37846Y45669
X34544Y45669
X8509Y40869
X12319Y40869
X9754Y67742
X29464Y51765
X8890Y59512
X8890Y58496
X22860Y64821
X18567Y64872
X20345Y64872
X26391Y65227
X6782Y64592
X34544Y54051
X32918Y50749
X28829Y63678
X31648Y63983
X31648Y62967
X29870Y60935
X31140Y61697
X32410Y61443
X32664Y60427
X30886Y60173
X32207Y66777
X32664Y69571
X32664Y70841
X34188Y70841
X34950Y72111
X33426Y72111
X31648Y70333
X34188Y60173
X35712Y60173
X33680Y58649
X34696Y58649
X35712Y58649
X36728Y58649
X37744Y58649
X35712Y57633
X37744Y57125
X31648Y67793
X31648Y69063
X30632Y68301
X30632Y66777
X29616Y67539
X28092Y66777
X39776Y70841
X37744Y70841
X35712Y70841
X762Y68555
X2540Y68555
X4318Y68555
X2540Y70587
X37236Y60173
X38760Y60173
X40030Y60173
X27635Y65557
X28981Y64872
X25552Y72873
X25552Y70079
X24028Y68809
X20726Y68809
X18186Y68809
X15900Y68809
X16916Y67285
X19710Y67285
X22758Y67285
X25552Y68047
X11409Y60631
X11836Y68809
X28092Y70079
X32537Y64237
X24841Y67031
X6326Y59131
X36830Y56999
X24816Y64999
X6833Y58623
X24333Y66269
X36830Y56329
X24130Y64999
X27635Y58293
X27813Y43282
X27686Y51257
X32207Y49962
X32240Y44722
X30607Y44831
X27270Y44815
X6121Y64033
X4089Y63983
X39700Y50419
X28991Y48498
X8128Y52781
X8128Y54305
X14097Y74117
X7112Y74117
X10820Y61138
X24384Y54585
X11532Y61519
X24384Y53569
X28829Y50876
X36195Y51384
X11481Y71780
X6096Y68580
X6350Y16731
X53340Y56583
X76708Y55448
X83820Y55575
X77470Y53010
X54864Y46685
X64008Y69545
X29718Y15596
X76835Y48336
X80518Y51791
X79197Y51410
X53340Y57607
X79832Y49352
X79629Y52299
X80264Y45669
X80010Y43663
X62865Y49098
X64770Y49098
X55499Y42393
X59182Y51257
X59868Y62255
X83947Y54559
X67310Y49098
X69850Y49098
X71882Y49098
X62865Y50368
X64770Y50368
X67310Y50368
X69850Y50368
X71882Y50368
X62865Y51638
X64770Y51638
X67310Y51638
X69850Y51638
X71882Y51638
X62865Y52908
X64770Y52908
X67310Y52908
X69850Y52908
X71882Y52908
X62865Y54178
X64770Y54178
X67310Y54178
X69850Y54178
X62865Y55448
X64770Y55448
X67310Y55448
X69850Y55448
X71882Y55448
X62865Y56718
X64770Y56718
X67310Y56718
X69850Y56718
X71882Y56718
X62865Y57988
X64770Y57988
X67310Y57988
X69850Y57988
X62865Y59258
X64770Y59258
X67310Y59258
X71933Y59055
X62865Y60528
X64770Y60528
X67310Y60528
X69850Y60528
X71933Y60833
X62865Y61798
X64770Y61798
X67310Y61798
X69850Y61798
X71831Y61798
X62865Y63068
X64770Y63068
X67310Y63068
X69850Y63068
X71882Y63068
X69850Y71323
X69850Y72847
X74295Y56718
X80010Y42393
X82550Y42393
X82550Y43663
X53848Y42393
X52578Y40869
X47777Y64465
X47752Y66243
X47752Y71323
X47752Y54051
X47752Y56718
X47752Y60528
X47752Y62433
X47752Y45161
X47752Y46558
X47752Y48463
X47752Y50114
X49022Y46558
X49022Y48463
X49022Y50114
X50292Y46558
X50292Y48463
X50292Y50114
X51562Y45187
X51562Y46558
X51562Y48463
X51562Y50368
X51562Y52273
X62865Y47828
X64770Y47828
X67310Y47828
X69850Y47828
X71882Y47828
X64770Y46558
X67310Y46558
X69850Y46558
X71882Y46558
X62865Y45415
X64770Y45415
X67310Y45415
X69850Y45415
X71882Y45415
X49530Y66243
X51308Y66243
X51308Y71323
X54331Y68885
X61214Y56718
X61214Y57734
X59309Y58471
X57658Y58522
X81280Y42393
X81280Y43663
X79756Y48209
X81280Y48209
X49022Y54051
X49022Y56718
X76530Y66065
X75006Y63246
X53975Y40869
X59309Y42901
X59309Y44933
X55499Y44425
X84938Y47219
X81280Y46939
X79756Y46939
X84836Y45669
X81534Y45669
X55499Y40869
X59309Y40869
X56744Y67742
X76454Y51765
X55880Y59512
X55880Y58496
X69850Y64821
X65557Y64872
X67335Y64872
X73381Y65227
X53772Y64592
X81534Y54051
X79908Y50749
X75819Y63678
X78638Y63983
X78638Y62967
X76860Y60935
X78130Y61697
X79400Y61443
X79654Y60427
X77876Y60173
X79197Y66777
X79654Y69571
X79654Y70841
X81178Y70841
X81940Y72111
X80416Y72111
X78638Y70333
X81178Y60173
X82702Y60173
X80670Y58649
X81686Y58649
X82702Y58649
X83718Y58649
X84734Y58649
X82702Y57633
X84734Y57125
X78638Y67793
X78638Y69063
X77622Y68301
X77622Y66777
X76606Y67539
X75082Y66777
X86766Y70841
X84734Y70841
X82702Y70841
X47752Y68555
X49530Y68555
X51308Y68555
X49530Y70587
X84226Y60173
X85750Y60173
X87020Y60173
X74625Y65557
X75971Y64872
X72542Y72873
X72542Y70079
X71018Y68809
X67716Y68809
X65176Y68809
X62890Y68809
X63906Y67285
X66700Y67285
X69748Y67285
X72542Y68047
X58399Y60631
X58826Y68809
X75082Y70079
X79527Y64237
X71831Y67031
X53316Y59131
X83820Y56999
X71806Y64999
X53823Y58623
X71323Y66269
X83820Y56329
X71120Y64999
X74625Y58293
X74803Y43282
X74676Y51257
X79197Y49962
X79230Y44722
X77597Y44831
X74260Y44815
X53111Y64033
X51079Y63983
X86690Y50419
X75981Y48498
X55118Y52781
X55118Y54305
X36830Y15723
X54102Y74117
X57810Y61138
X71374Y54585
X58522Y61519
X71374Y53569
X75819Y50876
X83185Y51384
X58471Y71780
X53086Y68580
X30480Y13157
X100330Y56583
X123698Y55448
X130810Y55575
X124460Y53010
X101854Y46685
X110998Y69545
X7874Y6833
X123825Y48336
X127508Y51791
X126187Y51410
X100330Y57607
X126822Y49352
X126619Y52299
X127254Y45669
X127000Y43663
X109855Y49098
X111760Y49098
X102489Y42393
X106172Y51257
X106858Y62255
X130937Y54559
X114300Y49098
X116840Y49098
X118872Y49098
X109855Y50368
X111760Y50368
X114300Y50368
X116840Y50368
X118872Y50368
X109855Y51638
X111760Y51638
X114300Y51638
X116840Y51638
X118872Y51638
X109855Y52908
X111760Y52908
X114300Y52908
X116840Y52908
X118872Y52908
X109855Y54178
X111760Y54178
X114300Y54178
X116840Y54178
X109855Y55448
X111760Y55448
X114300Y55448
X116840Y55448
X118872Y55448
X109855Y56718
X111760Y56718
X114300Y56718
X116840Y56718
X118872Y56718
X109855Y57988
X111760Y57988
X114300Y57988
X116840Y57988
X109855Y59258
X111760Y59258
X114300Y59258
X118923Y59055
X109855Y60528
X111760Y60528
X114300Y60528
X116840Y60528
X118923Y60833
X109855Y61798
X111760Y61798
X114300Y61798
X116840Y61798
X118821Y61798
X109855Y63068
X111760Y63068
X114300Y63068
X116840Y63068
X118872Y63068
X116840Y71323
X116840Y72847
X121285Y56718
X127000Y42393
X129540Y42393
X129540Y43663
X100838Y42393
X99568Y40869
X94767Y64465
X94742Y66243
X94742Y71323
X94742Y54051
X94742Y56718
X94742Y60528
X94742Y62433
X94742Y45161
X94742Y46558
X94742Y48463
X94742Y50114
X96012Y46558
X96012Y48463
X96012Y50114
X97282Y46558
X97282Y48463
X97282Y50114
X98552Y45187
X98552Y46558
X98552Y48463
X98552Y50368
X98552Y52273
X109855Y47828
X111760Y47828
X114300Y47828
X116840Y47828
X118872Y47828
X111760Y46558
X114300Y46558
X116840Y46558
X118872Y46558
X109855Y45415
X111760Y45415
X114300Y45415
X116840Y45415
X118872Y45415
X96520Y66243
X98298Y66243
X98298Y71323
X101321Y68885
X108204Y56718
X108204Y57734
X106299Y58471
X104648Y58522
X128270Y42393
X128270Y43663
X126746Y48209
X128270Y48209
X96012Y54051
X96012Y56718
X123520Y66065
X121996Y63246
X100965Y40869
X106299Y42901
X106299Y44933
X102489Y44425
X131928Y47219
X128270Y46939
X126746Y46939
X131826Y45669
X128524Y45669
X102489Y40869
X106299Y40869
X103734Y67742
X123444Y51765
X102870Y59512
X102870Y58496
X116840Y64821
X112547Y64872
X114325Y64872
X120371Y65227
X100762Y64592
X128524Y54051
X126898Y50749
X122809Y63678
X125628Y63983
X125628Y62967
X123850Y60935
X125120Y61697
X126390Y61443
X126644Y60427
X124866Y60173
X126187Y66777
X126644Y69571
X126644Y70841
X128168Y70841
X128930Y72111
X127406Y72111
X125628Y70333
X128168Y60173
X129692Y60173
X127660Y58649
X128676Y58649
X129692Y58649
X130708Y58649
X131724Y58649
X129692Y57633
X131724Y57125
X125628Y67793
X125628Y69063
X124612Y68301
X124612Y66777
X123596Y67539
X122072Y66777
X133756Y70841
X131724Y70841
X129692Y70841
X94742Y68555
X61087Y74117
X98298Y68555
X96520Y70587
X131216Y60173
X132740Y60173
X134010Y60173
X121615Y65557
X122961Y64872
X119532Y72873
X119532Y70079
X118008Y68809
X114706Y68809
X112166Y68809
X109880Y68809
X110896Y67285
X113690Y67285
X116738Y67285
X119532Y68047
X105389Y60631
X105816Y68809
X122072Y70079
X126517Y64237
X118821Y67031
X100306Y59131
X130810Y56999
X118796Y64999
X100813Y58623
X118313Y66269
X130810Y56329
X118110Y64999
X121615Y58293
X121793Y43282
X121666Y51257
X126187Y49962
X126220Y44722
X124587Y44831
X121250Y44815
X100101Y64033
X98069Y63983
X133680Y50419
X122971Y48498
X102108Y52781
X102108Y54305
X108077Y74117
X101092Y74117
X104800Y61138
X118364Y54585
X105512Y61519
X118364Y53569
X122809Y50876
X130175Y51384
X105461Y71780
X100076Y68580
X17018Y29693
X29845Y8484
X33528Y11938
X32207Y11557
X6350Y17755
X32842Y9500
X32639Y12446
X33274Y5817
X33020Y3810
X15875Y9246
X17780Y9246
X8509Y2540
X12192Y11405
X12878Y22403
X36957Y14707
X20320Y9246
X22860Y9246
X24892Y9246
X15875Y10516
X17780Y10516
X20320Y10516
X22860Y10516
X24892Y10516
X15875Y11786
X17780Y11786
X20320Y11786
X22860Y11786
X24892Y11786
X15875Y13056
X17780Y13056
X20320Y13056
X22860Y13056
X24892Y13056
X15875Y14326
X17780Y14326
X20320Y14326
X22860Y14326
X15875Y15596
X17780Y15596
X20320Y15596
X22860Y15596
X24892Y15596
X15875Y16866
X17780Y16866
X20320Y16866
X22860Y16866
X24892Y16866
X15875Y18136
X17780Y18136
X20320Y18136
X22860Y18136
X15875Y19406
X17780Y19406
X20320Y19406
X24943Y19202
X15875Y20676
X17780Y20676
X20320Y20676
X22860Y20676
X24943Y20980
X15875Y21946
X17780Y21946
X20320Y21946
X22860Y21946
X24841Y21946
X15875Y23216
X17780Y23216
X20320Y23216
X22860Y23216
X24892Y23216
X22860Y31471
X22860Y32995
X27305Y16866
X33020Y2540
X35560Y2540
X35560Y3810
X6858Y2540
X5588Y1016
X787Y24613
X762Y26391
X762Y31471
X762Y14199
X762Y16866
X762Y20676
X762Y22581
X762Y5309
X762Y6706
X762Y8611
X762Y10262
X2032Y6706
X2032Y8611
X2032Y10262
X3302Y6706
X3302Y8611
X3302Y10262
X4572Y5334
X4572Y6706
X4572Y8611
X4572Y10516
X4572Y12421
X15875Y7976
X17780Y7976
X20320Y7976
X22860Y7976
X24892Y7976
X17780Y6706
X20320Y6706
X22860Y6706
X24892Y6706
X15875Y5563
X17780Y5563
X20320Y5563
X22860Y5563
X24892Y5563
X2540Y26391
X4318Y26391
X4318Y31471
X7341Y29032
X14224Y16866
X14224Y17882
X12319Y18618
X10668Y18669
X34290Y2540
X34290Y3810
X32766Y8357
X34290Y8357
X2032Y14199
X2032Y16866
X29540Y26213
X28016Y23393
X6985Y1016
X12319Y3048
X12319Y5080
X8509Y4572
X37948Y7366
X34290Y7087
X32766Y7087
X37846Y5817
X34544Y5817
X8509Y1016
X12319Y1016
X9754Y27889
X29464Y11913
X8890Y19660
X8890Y18644
X22860Y24968
X18567Y25019
X20345Y25019
X26391Y25375
X6782Y24740
X96520Y68555
M30