G04 EAGLE Gerber RS-274X export*
G75*
%MOMM*%
%FSLAX34Y34*%
%LPD*%
%INSolderpaste Top*%
%IPPOS*%
%AMOC8*
5,1,8,0,0,1.08239X$1,22.5*%
G01*
%ADD10R,2.000000X1.200000*%
%ADD11R,1.350000X0.600000*%
%ADD12R,1.100000X1.000000*%
%ADD13R,1.700000X4.200000*%
%ADD14R,1.000000X1.100000*%
%ADD15C,0.300000*%
%ADD16R,0.630000X0.830000*%
%ADD17R,1.200000X0.550000*%
%ADD18R,1.200000X0.800000*%
%ADD19R,0.900000X0.600000*%
%ADD20R,0.250000X0.610000*%
%ADD21R,0.250000X0.560000*%
%ADD22R,0.300000X1.000000*%
%ADD23R,0.600000X1.000000*%
%ADD24R,0.900000X0.850000*%
%ADD25R,2.400000X1.100000*%
%ADD26R,7.000000X1.250000*%
%ADD27R,0.850000X0.900000*%

G36*
X996826Y434103D02*
X996826Y434103D01*
X996853Y434099D01*
X996894Y434117D01*
X996936Y434126D01*
X996972Y434152D01*
X996981Y434156D01*
X996985Y434161D01*
X996996Y434170D01*
X1020996Y458170D01*
X1021017Y458208D01*
X1021046Y458241D01*
X1021050Y458268D01*
X1021063Y458292D01*
X1021060Y458336D01*
X1021067Y458379D01*
X1021056Y458405D01*
X1021054Y458432D01*
X1021028Y458467D01*
X1021010Y458507D01*
X1020987Y458522D01*
X1020971Y458544D01*
X1020930Y458560D01*
X1020894Y458584D01*
X1020850Y458591D01*
X1020841Y458594D01*
X1020834Y458593D01*
X1020820Y458595D01*
X996820Y458595D01*
X996804Y458590D01*
X996787Y458593D01*
X996737Y458571D01*
X996686Y458556D01*
X996675Y458543D01*
X996659Y458536D01*
X996629Y458491D01*
X996594Y458451D01*
X996591Y458434D01*
X996582Y458420D01*
X996571Y458346D01*
X996571Y434346D01*
X996583Y434304D01*
X996586Y434260D01*
X996602Y434238D01*
X996610Y434212D01*
X996643Y434183D01*
X996669Y434148D01*
X996695Y434138D01*
X996715Y434120D01*
X996759Y434113D01*
X996799Y434098D01*
X996826Y434103D01*
G37*
G36*
X57026Y434103D02*
X57026Y434103D01*
X57053Y434099D01*
X57094Y434117D01*
X57136Y434126D01*
X57172Y434152D01*
X57181Y434156D01*
X57185Y434161D01*
X57196Y434170D01*
X81196Y458170D01*
X81217Y458208D01*
X81246Y458241D01*
X81250Y458268D01*
X81263Y458292D01*
X81260Y458336D01*
X81267Y458379D01*
X81256Y458405D01*
X81254Y458432D01*
X81228Y458467D01*
X81210Y458507D01*
X81187Y458522D01*
X81171Y458544D01*
X81130Y458560D01*
X81094Y458584D01*
X81050Y458591D01*
X81041Y458594D01*
X81034Y458593D01*
X81020Y458595D01*
X57020Y458595D01*
X57004Y458590D01*
X56987Y458593D01*
X56937Y458571D01*
X56886Y458556D01*
X56875Y458543D01*
X56859Y458536D01*
X56829Y458491D01*
X56794Y458451D01*
X56791Y458434D01*
X56782Y458420D01*
X56771Y458346D01*
X56771Y434346D01*
X56783Y434304D01*
X56786Y434260D01*
X56802Y434238D01*
X56810Y434212D01*
X56843Y434183D01*
X56869Y434148D01*
X56895Y434138D01*
X56915Y434120D01*
X56959Y434113D01*
X56999Y434098D01*
X57026Y434103D01*
G37*
G36*
X526926Y434103D02*
X526926Y434103D01*
X526953Y434099D01*
X526994Y434117D01*
X527036Y434126D01*
X527072Y434152D01*
X527081Y434156D01*
X527085Y434161D01*
X527096Y434170D01*
X551096Y458170D01*
X551117Y458208D01*
X551146Y458241D01*
X551150Y458268D01*
X551163Y458292D01*
X551160Y458336D01*
X551167Y458379D01*
X551156Y458405D01*
X551154Y458432D01*
X551128Y458467D01*
X551110Y458507D01*
X551087Y458522D01*
X551071Y458544D01*
X551030Y458560D01*
X550994Y458584D01*
X550950Y458591D01*
X550941Y458594D01*
X550934Y458593D01*
X550920Y458595D01*
X526920Y458595D01*
X526904Y458590D01*
X526887Y458593D01*
X526837Y458571D01*
X526786Y458556D01*
X526775Y458543D01*
X526759Y458536D01*
X526729Y458491D01*
X526694Y458451D01*
X526691Y458434D01*
X526682Y458420D01*
X526671Y458346D01*
X526671Y434346D01*
X526683Y434304D01*
X526686Y434260D01*
X526702Y434238D01*
X526710Y434212D01*
X526743Y434183D01*
X526769Y434148D01*
X526795Y434138D01*
X526815Y434120D01*
X526859Y434113D01*
X526899Y434098D01*
X526926Y434103D01*
G37*
G36*
X996826Y35577D02*
X996826Y35577D01*
X996853Y35573D01*
X996894Y35591D01*
X996936Y35600D01*
X996972Y35626D01*
X996981Y35630D01*
X996985Y35635D01*
X996996Y35644D01*
X1020996Y59644D01*
X1021017Y59682D01*
X1021046Y59715D01*
X1021050Y59742D01*
X1021063Y59766D01*
X1021060Y59810D01*
X1021067Y59853D01*
X1021056Y59879D01*
X1021054Y59906D01*
X1021028Y59941D01*
X1021010Y59981D01*
X1020987Y59996D01*
X1020971Y60018D01*
X1020930Y60034D01*
X1020894Y60058D01*
X1020850Y60065D01*
X1020841Y60068D01*
X1020834Y60067D01*
X1020820Y60069D01*
X996820Y60069D01*
X996804Y60064D01*
X996787Y60067D01*
X996737Y60045D01*
X996686Y60030D01*
X996675Y60017D01*
X996659Y60010D01*
X996629Y59965D01*
X996594Y59925D01*
X996591Y59908D01*
X996582Y59894D01*
X996571Y59820D01*
X996571Y35820D01*
X996583Y35778D01*
X996586Y35734D01*
X996602Y35712D01*
X996610Y35686D01*
X996643Y35657D01*
X996669Y35622D01*
X996695Y35612D01*
X996715Y35594D01*
X996759Y35587D01*
X996799Y35572D01*
X996826Y35577D01*
G37*
G36*
X526926Y35577D02*
X526926Y35577D01*
X526953Y35573D01*
X526994Y35591D01*
X527036Y35600D01*
X527072Y35626D01*
X527081Y35630D01*
X527085Y35635D01*
X527096Y35644D01*
X551096Y59644D01*
X551117Y59682D01*
X551146Y59715D01*
X551150Y59742D01*
X551163Y59766D01*
X551160Y59810D01*
X551167Y59853D01*
X551156Y59879D01*
X551154Y59906D01*
X551128Y59941D01*
X551110Y59981D01*
X551087Y59996D01*
X551071Y60018D01*
X551030Y60034D01*
X550994Y60058D01*
X550950Y60065D01*
X550941Y60068D01*
X550934Y60067D01*
X550920Y60069D01*
X526920Y60069D01*
X526904Y60064D01*
X526887Y60067D01*
X526837Y60045D01*
X526786Y60030D01*
X526775Y60017D01*
X526759Y60010D01*
X526729Y59965D01*
X526694Y59925D01*
X526691Y59908D01*
X526682Y59894D01*
X526671Y59820D01*
X526671Y35820D01*
X526683Y35778D01*
X526686Y35734D01*
X526702Y35712D01*
X526710Y35686D01*
X526743Y35657D01*
X526769Y35622D01*
X526795Y35612D01*
X526815Y35594D01*
X526859Y35587D01*
X526899Y35572D01*
X526926Y35577D01*
G37*
G36*
X57026Y35577D02*
X57026Y35577D01*
X57053Y35573D01*
X57094Y35591D01*
X57136Y35600D01*
X57172Y35626D01*
X57181Y35630D01*
X57185Y35635D01*
X57196Y35644D01*
X81196Y59644D01*
X81217Y59682D01*
X81246Y59715D01*
X81250Y59742D01*
X81263Y59766D01*
X81260Y59810D01*
X81267Y59853D01*
X81256Y59879D01*
X81254Y59906D01*
X81228Y59941D01*
X81210Y59981D01*
X81187Y59996D01*
X81171Y60018D01*
X81130Y60034D01*
X81094Y60058D01*
X81050Y60065D01*
X81041Y60068D01*
X81034Y60067D01*
X81020Y60069D01*
X57020Y60069D01*
X57004Y60064D01*
X56987Y60067D01*
X56937Y60045D01*
X56886Y60030D01*
X56875Y60017D01*
X56859Y60010D01*
X56829Y59965D01*
X56794Y59925D01*
X56791Y59908D01*
X56782Y59894D01*
X56771Y59820D01*
X56771Y35820D01*
X56783Y35778D01*
X56786Y35734D01*
X56802Y35712D01*
X56810Y35686D01*
X56843Y35657D01*
X56869Y35622D01*
X56895Y35612D01*
X56915Y35594D01*
X56959Y35587D01*
X56999Y35572D01*
X57026Y35577D01*
G37*
G36*
X1001960Y703559D02*
X1001960Y703559D01*
X1001963Y703555D01*
X1003071Y703725D01*
X1003077Y703731D01*
X1003082Y703728D01*
X1004124Y704140D01*
X1004128Y704147D01*
X1004133Y704145D01*
X1005058Y704779D01*
X1005060Y704787D01*
X1005066Y704786D01*
X1005826Y705610D01*
X1005827Y705618D01*
X1005833Y705618D01*
X1006390Y706590D01*
X1006390Y706594D01*
X1006391Y706595D01*
X1006389Y706597D01*
X1006389Y706598D01*
X1006395Y706600D01*
X1006722Y707672D01*
X1006721Y707677D01*
X1006723Y707678D01*
X1006721Y707681D01*
X1006724Y707683D01*
X1006805Y708800D01*
X1006804Y708803D01*
X1006805Y708804D01*
X1006805Y720804D01*
X1006800Y720811D01*
X1006804Y720815D01*
X1006585Y721759D01*
X1006579Y721765D01*
X1006581Y721770D01*
X1006158Y722642D01*
X1006150Y722645D01*
X1006152Y722651D01*
X1005545Y723407D01*
X1005537Y723409D01*
X1005537Y723415D01*
X1004777Y724016D01*
X1004768Y724016D01*
X1004767Y724022D01*
X1003892Y724440D01*
X1003884Y724438D01*
X1003882Y724443D01*
X1002936Y724656D01*
X1002929Y724652D01*
X1002925Y724657D01*
X1001956Y724653D01*
X1001955Y724653D01*
X1000887Y724634D01*
X1000886Y724634D01*
X1000880Y724630D01*
X1000876Y724633D01*
X999839Y724377D01*
X999834Y724370D01*
X999828Y724373D01*
X998874Y723892D01*
X998871Y723885D01*
X998865Y723886D01*
X998042Y723205D01*
X998040Y723197D01*
X998034Y723197D01*
X997383Y722350D01*
X997383Y722342D01*
X997377Y722341D01*
X996930Y721370D01*
X996932Y721362D01*
X996927Y721360D01*
X996708Y720314D01*
X996711Y720307D01*
X996707Y720304D01*
X996707Y708304D01*
X996710Y708299D01*
X996707Y708296D01*
X996887Y707201D01*
X996893Y707195D01*
X996890Y707190D01*
X997309Y706162D01*
X997316Y706158D01*
X997314Y706153D01*
X997952Y705244D01*
X997959Y705242D01*
X997959Y705236D01*
X998782Y704492D01*
X998790Y704491D01*
X998791Y704485D01*
X999759Y703943D01*
X999768Y703944D01*
X999770Y703938D01*
X1000834Y703625D01*
X1000842Y703628D01*
X1000845Y703623D01*
X1001953Y703555D01*
X1001960Y703559D01*
G37*
G36*
X532060Y703559D02*
X532060Y703559D01*
X532063Y703555D01*
X533171Y703725D01*
X533177Y703731D01*
X533182Y703728D01*
X534224Y704140D01*
X534228Y704147D01*
X534233Y704145D01*
X535158Y704779D01*
X535160Y704787D01*
X535166Y704786D01*
X535926Y705610D01*
X535927Y705618D01*
X535933Y705618D01*
X536490Y706590D01*
X536490Y706594D01*
X536491Y706595D01*
X536489Y706597D01*
X536489Y706598D01*
X536495Y706600D01*
X536822Y707672D01*
X536821Y707677D01*
X536823Y707678D01*
X536821Y707681D01*
X536824Y707683D01*
X536905Y708800D01*
X536904Y708803D01*
X536905Y708804D01*
X536905Y720804D01*
X536900Y720811D01*
X536904Y720815D01*
X536685Y721759D01*
X536679Y721765D01*
X536681Y721770D01*
X536258Y722642D01*
X536250Y722645D01*
X536252Y722651D01*
X535645Y723407D01*
X535637Y723409D01*
X535637Y723415D01*
X534877Y724016D01*
X534868Y724016D01*
X534867Y724022D01*
X533992Y724440D01*
X533984Y724438D01*
X533982Y724443D01*
X533036Y724656D01*
X533029Y724652D01*
X533025Y724657D01*
X532056Y724653D01*
X532055Y724653D01*
X530987Y724634D01*
X530986Y724634D01*
X530980Y724630D01*
X530976Y724633D01*
X529939Y724377D01*
X529934Y724370D01*
X529928Y724373D01*
X528974Y723892D01*
X528971Y723885D01*
X528965Y723886D01*
X528142Y723205D01*
X528140Y723197D01*
X528134Y723197D01*
X527483Y722350D01*
X527483Y722342D01*
X527477Y722341D01*
X527030Y721370D01*
X527032Y721362D01*
X527027Y721360D01*
X526808Y720314D01*
X526811Y720307D01*
X526807Y720304D01*
X526807Y708304D01*
X526810Y708299D01*
X526807Y708296D01*
X526987Y707201D01*
X526993Y707195D01*
X526990Y707190D01*
X527409Y706162D01*
X527416Y706158D01*
X527414Y706153D01*
X528052Y705244D01*
X528059Y705242D01*
X528059Y705236D01*
X528882Y704492D01*
X528890Y704491D01*
X528891Y704485D01*
X529859Y703943D01*
X529868Y703944D01*
X529870Y703938D01*
X530934Y703625D01*
X530942Y703628D01*
X530945Y703623D01*
X532053Y703555D01*
X532060Y703559D01*
G37*
G36*
X62160Y703559D02*
X62160Y703559D01*
X62163Y703555D01*
X63271Y703725D01*
X63277Y703731D01*
X63282Y703728D01*
X64324Y704140D01*
X64328Y704147D01*
X64333Y704145D01*
X65258Y704779D01*
X65260Y704787D01*
X65266Y704786D01*
X66026Y705610D01*
X66027Y705618D01*
X66033Y705618D01*
X66590Y706590D01*
X66590Y706594D01*
X66591Y706595D01*
X66589Y706597D01*
X66589Y706598D01*
X66595Y706600D01*
X66922Y707672D01*
X66921Y707677D01*
X66923Y707678D01*
X66921Y707681D01*
X66924Y707683D01*
X67005Y708800D01*
X67004Y708803D01*
X67005Y708804D01*
X67005Y720804D01*
X67000Y720811D01*
X67004Y720815D01*
X66785Y721759D01*
X66779Y721765D01*
X66781Y721770D01*
X66358Y722642D01*
X66350Y722645D01*
X66352Y722651D01*
X65745Y723407D01*
X65737Y723409D01*
X65737Y723415D01*
X64977Y724016D01*
X64968Y724016D01*
X64967Y724022D01*
X64092Y724440D01*
X64084Y724438D01*
X64082Y724443D01*
X63136Y724656D01*
X63129Y724652D01*
X63125Y724657D01*
X62156Y724653D01*
X62155Y724653D01*
X61087Y724634D01*
X61086Y724634D01*
X61080Y724630D01*
X61076Y724633D01*
X60039Y724377D01*
X60034Y724370D01*
X60028Y724373D01*
X59074Y723892D01*
X59071Y723885D01*
X59065Y723886D01*
X58242Y723205D01*
X58240Y723197D01*
X58234Y723197D01*
X57583Y722350D01*
X57583Y722342D01*
X57577Y722341D01*
X57130Y721370D01*
X57132Y721362D01*
X57127Y721360D01*
X56908Y720314D01*
X56911Y720307D01*
X56907Y720304D01*
X56907Y708304D01*
X56910Y708299D01*
X56907Y708296D01*
X57087Y707201D01*
X57093Y707195D01*
X57090Y707190D01*
X57509Y706162D01*
X57516Y706158D01*
X57514Y706153D01*
X58152Y705244D01*
X58159Y705242D01*
X58159Y705236D01*
X58982Y704492D01*
X58990Y704491D01*
X58991Y704485D01*
X59959Y703943D01*
X59968Y703944D01*
X59970Y703938D01*
X61034Y703625D01*
X61042Y703628D01*
X61045Y703623D01*
X62153Y703555D01*
X62160Y703559D01*
G37*
G36*
X62160Y305033D02*
X62160Y305033D01*
X62163Y305029D01*
X63271Y305199D01*
X63277Y305205D01*
X63282Y305202D01*
X64324Y305614D01*
X64328Y305621D01*
X64333Y305619D01*
X65258Y306253D01*
X65260Y306261D01*
X65266Y306260D01*
X66026Y307084D01*
X66027Y307092D01*
X66033Y307092D01*
X66590Y308064D01*
X66590Y308068D01*
X66591Y308069D01*
X66589Y308071D01*
X66589Y308072D01*
X66595Y308074D01*
X66922Y309146D01*
X66921Y309151D01*
X66923Y309152D01*
X66921Y309155D01*
X66924Y309157D01*
X67005Y310274D01*
X67004Y310277D01*
X67005Y310278D01*
X67005Y322278D01*
X67000Y322285D01*
X67004Y322289D01*
X66785Y323233D01*
X66779Y323239D01*
X66781Y323244D01*
X66358Y324116D01*
X66350Y324119D01*
X66352Y324125D01*
X65745Y324881D01*
X65737Y324883D01*
X65737Y324889D01*
X64977Y325490D01*
X64968Y325490D01*
X64967Y325496D01*
X64092Y325914D01*
X64084Y325912D01*
X64082Y325917D01*
X63136Y326130D01*
X63129Y326126D01*
X63125Y326131D01*
X62156Y326127D01*
X62155Y326127D01*
X61087Y326108D01*
X61086Y326108D01*
X61080Y326104D01*
X61076Y326107D01*
X60039Y325851D01*
X60034Y325844D01*
X60028Y325847D01*
X59074Y325366D01*
X59071Y325359D01*
X59065Y325360D01*
X58242Y324679D01*
X58240Y324671D01*
X58234Y324671D01*
X57583Y323824D01*
X57583Y323816D01*
X57577Y323815D01*
X57130Y322844D01*
X57132Y322836D01*
X57127Y322834D01*
X56908Y321788D01*
X56911Y321781D01*
X56907Y321778D01*
X56907Y309778D01*
X56910Y309773D01*
X56907Y309770D01*
X57087Y308675D01*
X57093Y308669D01*
X57090Y308664D01*
X57509Y307636D01*
X57516Y307632D01*
X57514Y307627D01*
X58152Y306718D01*
X58159Y306716D01*
X58159Y306710D01*
X58982Y305966D01*
X58990Y305965D01*
X58991Y305959D01*
X59959Y305417D01*
X59968Y305418D01*
X59970Y305412D01*
X61034Y305099D01*
X61042Y305102D01*
X61045Y305097D01*
X62153Y305029D01*
X62160Y305033D01*
G37*
G36*
X532060Y305033D02*
X532060Y305033D01*
X532063Y305029D01*
X533171Y305199D01*
X533177Y305205D01*
X533182Y305202D01*
X534224Y305614D01*
X534228Y305621D01*
X534233Y305619D01*
X535158Y306253D01*
X535160Y306261D01*
X535166Y306260D01*
X535926Y307084D01*
X535927Y307092D01*
X535933Y307092D01*
X536490Y308064D01*
X536490Y308068D01*
X536491Y308069D01*
X536489Y308071D01*
X536489Y308072D01*
X536495Y308074D01*
X536822Y309146D01*
X536821Y309151D01*
X536823Y309152D01*
X536821Y309155D01*
X536824Y309157D01*
X536905Y310274D01*
X536904Y310277D01*
X536905Y310278D01*
X536905Y322278D01*
X536900Y322285D01*
X536904Y322289D01*
X536685Y323233D01*
X536679Y323239D01*
X536681Y323244D01*
X536258Y324116D01*
X536250Y324119D01*
X536252Y324125D01*
X535645Y324881D01*
X535637Y324883D01*
X535637Y324889D01*
X534877Y325490D01*
X534868Y325490D01*
X534867Y325496D01*
X533992Y325914D01*
X533984Y325912D01*
X533982Y325917D01*
X533036Y326130D01*
X533029Y326126D01*
X533025Y326131D01*
X532056Y326127D01*
X532055Y326127D01*
X530987Y326108D01*
X530986Y326108D01*
X530980Y326104D01*
X530976Y326107D01*
X529939Y325851D01*
X529934Y325844D01*
X529928Y325847D01*
X528974Y325366D01*
X528971Y325359D01*
X528965Y325360D01*
X528142Y324679D01*
X528140Y324671D01*
X528134Y324671D01*
X527483Y323824D01*
X527483Y323816D01*
X527477Y323815D01*
X527030Y322844D01*
X527032Y322836D01*
X527027Y322834D01*
X526808Y321788D01*
X526811Y321781D01*
X526807Y321778D01*
X526807Y309778D01*
X526810Y309773D01*
X526807Y309770D01*
X526987Y308675D01*
X526993Y308669D01*
X526990Y308664D01*
X527409Y307636D01*
X527416Y307632D01*
X527414Y307627D01*
X528052Y306718D01*
X528059Y306716D01*
X528059Y306710D01*
X528882Y305966D01*
X528890Y305965D01*
X528891Y305959D01*
X529859Y305417D01*
X529868Y305418D01*
X529870Y305412D01*
X530934Y305099D01*
X530942Y305102D01*
X530945Y305097D01*
X532053Y305029D01*
X532060Y305033D01*
G37*
G36*
X1001960Y305033D02*
X1001960Y305033D01*
X1001963Y305029D01*
X1003071Y305199D01*
X1003077Y305205D01*
X1003082Y305202D01*
X1004124Y305614D01*
X1004128Y305621D01*
X1004133Y305619D01*
X1005058Y306253D01*
X1005060Y306261D01*
X1005066Y306260D01*
X1005826Y307084D01*
X1005827Y307092D01*
X1005833Y307092D01*
X1006390Y308064D01*
X1006390Y308068D01*
X1006391Y308069D01*
X1006389Y308071D01*
X1006389Y308072D01*
X1006395Y308074D01*
X1006722Y309146D01*
X1006721Y309151D01*
X1006723Y309152D01*
X1006721Y309155D01*
X1006724Y309157D01*
X1006805Y310274D01*
X1006804Y310277D01*
X1006805Y310278D01*
X1006805Y322278D01*
X1006800Y322285D01*
X1006804Y322289D01*
X1006585Y323233D01*
X1006579Y323239D01*
X1006581Y323244D01*
X1006158Y324116D01*
X1006150Y324119D01*
X1006152Y324125D01*
X1005545Y324881D01*
X1005537Y324883D01*
X1005537Y324889D01*
X1004777Y325490D01*
X1004768Y325490D01*
X1004767Y325496D01*
X1003892Y325914D01*
X1003884Y325912D01*
X1003882Y325917D01*
X1002936Y326130D01*
X1002929Y326126D01*
X1002925Y326131D01*
X1001956Y326127D01*
X1001955Y326127D01*
X1000887Y326108D01*
X1000886Y326108D01*
X1000880Y326104D01*
X1000876Y326107D01*
X999839Y325851D01*
X999834Y325844D01*
X999828Y325847D01*
X998874Y325366D01*
X998871Y325359D01*
X998865Y325360D01*
X998042Y324679D01*
X998040Y324671D01*
X998034Y324671D01*
X997383Y323824D01*
X997383Y323816D01*
X997377Y323815D01*
X996930Y322844D01*
X996932Y322836D01*
X996927Y322834D01*
X996708Y321788D01*
X996711Y321781D01*
X996707Y321778D01*
X996707Y309778D01*
X996710Y309773D01*
X996707Y309770D01*
X996887Y308675D01*
X996893Y308669D01*
X996890Y308664D01*
X997309Y307636D01*
X997316Y307632D01*
X997314Y307627D01*
X997952Y306718D01*
X997959Y306716D01*
X997959Y306710D01*
X998782Y305966D01*
X998790Y305965D01*
X998791Y305959D01*
X999759Y305417D01*
X999768Y305418D01*
X999770Y305412D01*
X1000834Y305099D01*
X1000842Y305102D01*
X1000845Y305097D01*
X1001953Y305029D01*
X1001960Y305033D01*
G37*
G36*
X1088458Y703558D02*
X1088458Y703558D01*
X1088462Y703555D01*
X1089507Y703673D01*
X1089513Y703679D01*
X1089518Y703675D01*
X1090512Y704023D01*
X1090516Y704030D01*
X1090521Y704028D01*
X1091413Y704588D01*
X1091416Y704595D01*
X1091421Y704595D01*
X1092165Y705339D01*
X1092167Y705347D01*
X1092172Y705347D01*
X1092732Y706239D01*
X1092732Y706246D01*
X1092733Y706247D01*
X1092737Y706248D01*
X1093085Y707242D01*
X1093082Y707250D01*
X1093087Y707253D01*
X1093205Y708299D01*
X1093203Y708302D01*
X1093205Y708304D01*
X1093205Y720304D01*
X1093202Y720309D01*
X1093205Y720312D01*
X1093047Y721308D01*
X1093041Y721314D01*
X1093044Y721319D01*
X1092669Y722255D01*
X1092662Y722259D01*
X1092664Y722265D01*
X1092090Y723094D01*
X1092082Y723097D01*
X1092083Y723102D01*
X1091339Y723783D01*
X1091330Y723784D01*
X1091330Y723790D01*
X1090453Y724288D01*
X1090445Y724287D01*
X1090442Y724292D01*
X1089477Y724583D01*
X1089469Y724580D01*
X1089466Y724585D01*
X1088459Y724653D01*
X1088457Y724652D01*
X1088456Y724653D01*
X1087375Y724644D01*
X1087368Y724639D01*
X1087364Y724643D01*
X1086312Y724394D01*
X1086307Y724387D01*
X1086302Y724390D01*
X1085332Y723913D01*
X1085329Y723905D01*
X1085323Y723907D01*
X1084484Y723226D01*
X1084482Y723218D01*
X1084476Y723218D01*
X1083810Y722368D01*
X1083809Y722359D01*
X1083804Y722358D01*
X1083343Y721381D01*
X1083345Y721373D01*
X1083340Y721370D01*
X1083108Y720315D01*
X1083111Y720307D01*
X1083107Y720304D01*
X1083107Y708304D01*
X1083111Y708299D01*
X1083107Y708296D01*
X1083300Y707190D01*
X1083306Y707185D01*
X1083303Y707180D01*
X1083736Y706145D01*
X1083743Y706141D01*
X1083741Y706136D01*
X1084394Y705223D01*
X1084402Y705221D01*
X1084401Y705215D01*
X1085240Y704471D01*
X1085249Y704470D01*
X1085249Y704465D01*
X1086233Y703926D01*
X1086241Y703927D01*
X1086243Y703922D01*
X1087322Y703615D01*
X1087330Y703618D01*
X1087333Y703613D01*
X1088453Y703555D01*
X1088458Y703558D01*
G37*
G36*
X618558Y703558D02*
X618558Y703558D01*
X618562Y703555D01*
X619607Y703673D01*
X619613Y703679D01*
X619618Y703675D01*
X620612Y704023D01*
X620616Y704030D01*
X620621Y704028D01*
X621513Y704588D01*
X621516Y704595D01*
X621521Y704595D01*
X622265Y705339D01*
X622267Y705347D01*
X622272Y705347D01*
X622832Y706239D01*
X622832Y706246D01*
X622833Y706247D01*
X622837Y706248D01*
X623185Y707242D01*
X623182Y707250D01*
X623187Y707253D01*
X623305Y708299D01*
X623303Y708302D01*
X623305Y708304D01*
X623305Y720304D01*
X623302Y720309D01*
X623305Y720312D01*
X623147Y721308D01*
X623141Y721314D01*
X623144Y721319D01*
X622769Y722255D01*
X622762Y722259D01*
X622764Y722265D01*
X622190Y723094D01*
X622182Y723097D01*
X622183Y723102D01*
X621439Y723783D01*
X621430Y723784D01*
X621430Y723790D01*
X620553Y724288D01*
X620545Y724287D01*
X620542Y724292D01*
X619577Y724583D01*
X619569Y724580D01*
X619566Y724585D01*
X618559Y724653D01*
X618557Y724652D01*
X618556Y724653D01*
X617475Y724644D01*
X617468Y724639D01*
X617464Y724643D01*
X616412Y724394D01*
X616407Y724387D01*
X616402Y724390D01*
X615432Y723913D01*
X615429Y723905D01*
X615423Y723907D01*
X614584Y723226D01*
X614582Y723218D01*
X614576Y723218D01*
X613910Y722368D01*
X613909Y722359D01*
X613904Y722358D01*
X613443Y721381D01*
X613445Y721373D01*
X613440Y721370D01*
X613208Y720315D01*
X613211Y720307D01*
X613207Y720304D01*
X613207Y708304D01*
X613211Y708299D01*
X613207Y708296D01*
X613400Y707190D01*
X613406Y707185D01*
X613403Y707180D01*
X613836Y706145D01*
X613843Y706141D01*
X613841Y706136D01*
X614494Y705223D01*
X614502Y705221D01*
X614501Y705215D01*
X615340Y704471D01*
X615349Y704470D01*
X615349Y704465D01*
X616333Y703926D01*
X616341Y703927D01*
X616343Y703922D01*
X617422Y703615D01*
X617430Y703618D01*
X617433Y703613D01*
X618553Y703555D01*
X618558Y703558D01*
G37*
G36*
X148658Y703558D02*
X148658Y703558D01*
X148662Y703555D01*
X149707Y703673D01*
X149713Y703679D01*
X149718Y703675D01*
X150712Y704023D01*
X150716Y704030D01*
X150721Y704028D01*
X151613Y704588D01*
X151616Y704595D01*
X151621Y704595D01*
X152365Y705339D01*
X152367Y705347D01*
X152372Y705347D01*
X152932Y706239D01*
X152932Y706246D01*
X152933Y706247D01*
X152937Y706248D01*
X153285Y707242D01*
X153282Y707250D01*
X153287Y707253D01*
X153405Y708299D01*
X153403Y708302D01*
X153405Y708304D01*
X153405Y720304D01*
X153402Y720309D01*
X153405Y720312D01*
X153247Y721308D01*
X153241Y721314D01*
X153244Y721319D01*
X152869Y722255D01*
X152862Y722259D01*
X152864Y722265D01*
X152290Y723094D01*
X152282Y723097D01*
X152283Y723102D01*
X151539Y723783D01*
X151530Y723784D01*
X151530Y723790D01*
X150653Y724288D01*
X150645Y724287D01*
X150642Y724292D01*
X149677Y724583D01*
X149669Y724580D01*
X149666Y724585D01*
X148659Y724653D01*
X148657Y724652D01*
X148656Y724653D01*
X147575Y724644D01*
X147568Y724639D01*
X147564Y724643D01*
X146512Y724394D01*
X146507Y724387D01*
X146502Y724390D01*
X145532Y723913D01*
X145529Y723905D01*
X145523Y723907D01*
X144684Y723226D01*
X144682Y723218D01*
X144676Y723218D01*
X144010Y722368D01*
X144009Y722359D01*
X144004Y722358D01*
X143543Y721381D01*
X143545Y721373D01*
X143540Y721370D01*
X143308Y720315D01*
X143311Y720307D01*
X143307Y720304D01*
X143307Y708304D01*
X143311Y708299D01*
X143307Y708296D01*
X143500Y707190D01*
X143506Y707185D01*
X143503Y707180D01*
X143936Y706145D01*
X143943Y706141D01*
X143941Y706136D01*
X144594Y705223D01*
X144602Y705221D01*
X144601Y705215D01*
X145440Y704471D01*
X145449Y704470D01*
X145449Y704465D01*
X146433Y703926D01*
X146441Y703927D01*
X146443Y703922D01*
X147522Y703615D01*
X147530Y703618D01*
X147533Y703613D01*
X148653Y703555D01*
X148658Y703558D01*
G37*
G36*
X1088458Y305032D02*
X1088458Y305032D01*
X1088462Y305029D01*
X1089507Y305147D01*
X1089513Y305153D01*
X1089518Y305149D01*
X1090512Y305497D01*
X1090516Y305504D01*
X1090521Y305502D01*
X1091413Y306062D01*
X1091416Y306069D01*
X1091421Y306069D01*
X1092165Y306813D01*
X1092167Y306821D01*
X1092172Y306821D01*
X1092732Y307713D01*
X1092732Y307720D01*
X1092733Y307721D01*
X1092737Y307722D01*
X1093085Y308716D01*
X1093082Y308724D01*
X1093087Y308727D01*
X1093205Y309773D01*
X1093203Y309776D01*
X1093205Y309778D01*
X1093205Y321778D01*
X1093202Y321783D01*
X1093205Y321786D01*
X1093047Y322782D01*
X1093041Y322788D01*
X1093044Y322793D01*
X1092669Y323729D01*
X1092662Y323733D01*
X1092664Y323739D01*
X1092090Y324568D01*
X1092082Y324571D01*
X1092083Y324576D01*
X1091339Y325257D01*
X1091330Y325258D01*
X1091330Y325264D01*
X1090453Y325762D01*
X1090445Y325761D01*
X1090442Y325766D01*
X1089477Y326057D01*
X1089469Y326054D01*
X1089466Y326059D01*
X1088459Y326127D01*
X1088457Y326126D01*
X1088456Y326127D01*
X1087375Y326118D01*
X1087368Y326113D01*
X1087364Y326117D01*
X1086312Y325868D01*
X1086307Y325861D01*
X1086302Y325864D01*
X1085332Y325387D01*
X1085329Y325379D01*
X1085323Y325381D01*
X1084484Y324700D01*
X1084482Y324692D01*
X1084476Y324692D01*
X1083810Y323842D01*
X1083809Y323833D01*
X1083804Y323832D01*
X1083343Y322855D01*
X1083345Y322847D01*
X1083340Y322844D01*
X1083108Y321789D01*
X1083111Y321781D01*
X1083107Y321778D01*
X1083107Y309778D01*
X1083111Y309773D01*
X1083107Y309770D01*
X1083300Y308664D01*
X1083306Y308659D01*
X1083303Y308654D01*
X1083736Y307619D01*
X1083743Y307615D01*
X1083741Y307610D01*
X1084394Y306697D01*
X1084402Y306695D01*
X1084401Y306689D01*
X1085240Y305945D01*
X1085249Y305944D01*
X1085249Y305939D01*
X1086233Y305400D01*
X1086241Y305401D01*
X1086243Y305396D01*
X1087322Y305089D01*
X1087330Y305092D01*
X1087333Y305087D01*
X1088453Y305029D01*
X1088458Y305032D01*
G37*
G36*
X618558Y305032D02*
X618558Y305032D01*
X618562Y305029D01*
X619607Y305147D01*
X619613Y305153D01*
X619618Y305149D01*
X620612Y305497D01*
X620616Y305504D01*
X620621Y305502D01*
X621513Y306062D01*
X621516Y306069D01*
X621521Y306069D01*
X622265Y306813D01*
X622267Y306821D01*
X622272Y306821D01*
X622832Y307713D01*
X622832Y307720D01*
X622833Y307721D01*
X622837Y307722D01*
X623185Y308716D01*
X623182Y308724D01*
X623187Y308727D01*
X623305Y309773D01*
X623303Y309776D01*
X623305Y309778D01*
X623305Y321778D01*
X623302Y321783D01*
X623305Y321786D01*
X623147Y322782D01*
X623141Y322788D01*
X623144Y322793D01*
X622769Y323729D01*
X622762Y323733D01*
X622764Y323739D01*
X622190Y324568D01*
X622182Y324571D01*
X622183Y324576D01*
X621439Y325257D01*
X621430Y325258D01*
X621430Y325264D01*
X620553Y325762D01*
X620545Y325761D01*
X620542Y325766D01*
X619577Y326057D01*
X619569Y326054D01*
X619566Y326059D01*
X618559Y326127D01*
X618557Y326126D01*
X618556Y326127D01*
X617475Y326118D01*
X617468Y326113D01*
X617464Y326117D01*
X616412Y325868D01*
X616407Y325861D01*
X616402Y325864D01*
X615432Y325387D01*
X615429Y325379D01*
X615423Y325381D01*
X614584Y324700D01*
X614582Y324692D01*
X614576Y324692D01*
X613910Y323842D01*
X613909Y323833D01*
X613904Y323832D01*
X613443Y322855D01*
X613445Y322847D01*
X613440Y322844D01*
X613208Y321789D01*
X613211Y321781D01*
X613207Y321778D01*
X613207Y309778D01*
X613211Y309773D01*
X613207Y309770D01*
X613400Y308664D01*
X613406Y308659D01*
X613403Y308654D01*
X613836Y307619D01*
X613843Y307615D01*
X613841Y307610D01*
X614494Y306697D01*
X614502Y306695D01*
X614501Y306689D01*
X615340Y305945D01*
X615349Y305944D01*
X615349Y305939D01*
X616333Y305400D01*
X616341Y305401D01*
X616343Y305396D01*
X617422Y305089D01*
X617430Y305092D01*
X617433Y305087D01*
X618553Y305029D01*
X618558Y305032D01*
G37*
G36*
X148658Y305032D02*
X148658Y305032D01*
X148662Y305029D01*
X149707Y305147D01*
X149713Y305153D01*
X149718Y305149D01*
X150712Y305497D01*
X150716Y305504D01*
X150721Y305502D01*
X151613Y306062D01*
X151616Y306069D01*
X151621Y306069D01*
X152365Y306813D01*
X152367Y306821D01*
X152372Y306821D01*
X152932Y307713D01*
X152932Y307720D01*
X152933Y307721D01*
X152937Y307722D01*
X153285Y308716D01*
X153282Y308724D01*
X153287Y308727D01*
X153405Y309773D01*
X153403Y309776D01*
X153405Y309778D01*
X153405Y321778D01*
X153402Y321783D01*
X153405Y321786D01*
X153247Y322782D01*
X153241Y322788D01*
X153244Y322793D01*
X152869Y323729D01*
X152862Y323733D01*
X152864Y323739D01*
X152290Y324568D01*
X152282Y324571D01*
X152283Y324576D01*
X151539Y325257D01*
X151530Y325258D01*
X151530Y325264D01*
X150653Y325762D01*
X150645Y325761D01*
X150642Y325766D01*
X149677Y326057D01*
X149669Y326054D01*
X149666Y326059D01*
X148659Y326127D01*
X148657Y326126D01*
X148656Y326127D01*
X147575Y326118D01*
X147568Y326113D01*
X147564Y326117D01*
X146512Y325868D01*
X146507Y325861D01*
X146502Y325864D01*
X145532Y325387D01*
X145529Y325379D01*
X145523Y325381D01*
X144684Y324700D01*
X144682Y324692D01*
X144676Y324692D01*
X144010Y323842D01*
X144009Y323833D01*
X144004Y323832D01*
X143543Y322855D01*
X143545Y322847D01*
X143540Y322844D01*
X143308Y321789D01*
X143311Y321781D01*
X143307Y321778D01*
X143307Y309778D01*
X143311Y309773D01*
X143307Y309770D01*
X143500Y308664D01*
X143506Y308659D01*
X143503Y308654D01*
X143936Y307619D01*
X143943Y307615D01*
X143941Y307610D01*
X144594Y306697D01*
X144602Y306695D01*
X144601Y306689D01*
X145440Y305945D01*
X145449Y305944D01*
X145449Y305939D01*
X146433Y305400D01*
X146441Y305401D01*
X146443Y305396D01*
X147522Y305089D01*
X147530Y305092D01*
X147533Y305087D01*
X148653Y305029D01*
X148658Y305032D01*
G37*
G36*
X62160Y748060D02*
X62160Y748060D01*
X62165Y748056D01*
X63302Y748263D01*
X63308Y748269D01*
X63313Y748266D01*
X64375Y748721D01*
X64379Y748728D01*
X64385Y748726D01*
X65320Y749406D01*
X65322Y749414D01*
X65328Y749413D01*
X66088Y750284D01*
X66088Y750292D01*
X66094Y750293D01*
X66641Y751312D01*
X66640Y751320D01*
X66645Y751322D01*
X66651Y751341D01*
X66664Y751390D01*
X66678Y751440D01*
X66691Y751489D01*
X66705Y751538D01*
X66718Y751587D01*
X66719Y751587D01*
X66718Y751587D01*
X66732Y751637D01*
X66746Y751686D01*
X66759Y751735D01*
X66773Y751784D01*
X66786Y751834D01*
X66800Y751883D01*
X66813Y751932D01*
X66827Y751981D01*
X66841Y752031D01*
X66854Y752080D01*
X66868Y752129D01*
X66952Y752436D01*
X66949Y752444D01*
X66954Y752447D01*
X67005Y753602D01*
X67004Y753603D01*
X67005Y753604D01*
X67005Y759604D01*
X67001Y759610D01*
X67004Y759613D01*
X66792Y760694D01*
X66786Y760699D01*
X66789Y760704D01*
X66342Y761710D01*
X66335Y761714D01*
X66337Y761720D01*
X65677Y762601D01*
X65669Y762604D01*
X65669Y762609D01*
X64830Y763322D01*
X64822Y763322D01*
X64821Y763328D01*
X63844Y763836D01*
X63836Y763835D01*
X63834Y763840D01*
X62769Y764118D01*
X62761Y764115D01*
X62758Y764119D01*
X61658Y764153D01*
X61652Y764150D01*
X61649Y764153D01*
X60574Y763998D01*
X60568Y763992D01*
X60563Y763995D01*
X59549Y763605D01*
X59545Y763598D01*
X59539Y763600D01*
X58637Y762993D01*
X58635Y762985D01*
X58629Y762986D01*
X57885Y762194D01*
X57884Y762186D01*
X57878Y762186D01*
X57329Y761248D01*
X57330Y761240D01*
X57324Y761238D01*
X56997Y760202D01*
X57000Y760194D01*
X56995Y760191D01*
X56907Y759108D01*
X56909Y759105D01*
X56907Y759104D01*
X56907Y753104D01*
X56910Y753100D01*
X56907Y753098D01*
X57057Y751965D01*
X57063Y751959D01*
X57060Y751954D01*
X57458Y750884D01*
X57465Y750880D01*
X57463Y750874D01*
X58090Y749919D01*
X58098Y749916D01*
X58097Y749911D01*
X58920Y749119D01*
X58928Y749118D01*
X58929Y749112D01*
X59908Y748523D01*
X59916Y748524D01*
X59918Y748519D01*
X61003Y748163D01*
X61011Y748166D01*
X61014Y748161D01*
X62151Y748055D01*
X62160Y748060D01*
G37*
G36*
X1001960Y748060D02*
X1001960Y748060D01*
X1001965Y748056D01*
X1003102Y748263D01*
X1003108Y748269D01*
X1003113Y748266D01*
X1004175Y748721D01*
X1004179Y748728D01*
X1004185Y748726D01*
X1005120Y749406D01*
X1005122Y749414D01*
X1005128Y749413D01*
X1005888Y750284D01*
X1005888Y750292D01*
X1005894Y750293D01*
X1006441Y751312D01*
X1006440Y751320D01*
X1006445Y751322D01*
X1006451Y751341D01*
X1006464Y751390D01*
X1006478Y751440D01*
X1006491Y751489D01*
X1006505Y751538D01*
X1006518Y751587D01*
X1006519Y751587D01*
X1006518Y751587D01*
X1006532Y751637D01*
X1006546Y751686D01*
X1006559Y751735D01*
X1006573Y751784D01*
X1006586Y751834D01*
X1006600Y751883D01*
X1006613Y751932D01*
X1006627Y751981D01*
X1006641Y752031D01*
X1006654Y752080D01*
X1006668Y752129D01*
X1006752Y752436D01*
X1006749Y752444D01*
X1006754Y752447D01*
X1006805Y753602D01*
X1006804Y753603D01*
X1006805Y753604D01*
X1006805Y759604D01*
X1006801Y759610D01*
X1006804Y759613D01*
X1006592Y760694D01*
X1006586Y760699D01*
X1006589Y760704D01*
X1006142Y761710D01*
X1006135Y761714D01*
X1006137Y761720D01*
X1005477Y762601D01*
X1005469Y762604D01*
X1005469Y762609D01*
X1004630Y763322D01*
X1004622Y763322D01*
X1004621Y763328D01*
X1003644Y763836D01*
X1003636Y763835D01*
X1003634Y763840D01*
X1002569Y764118D01*
X1002561Y764115D01*
X1002558Y764119D01*
X1001458Y764153D01*
X1001452Y764150D01*
X1001449Y764153D01*
X1000374Y763998D01*
X1000368Y763992D01*
X1000363Y763995D01*
X999349Y763605D01*
X999345Y763598D01*
X999339Y763600D01*
X998437Y762993D01*
X998435Y762985D01*
X998429Y762986D01*
X997685Y762194D01*
X997684Y762186D01*
X997678Y762186D01*
X997129Y761248D01*
X997130Y761240D01*
X997124Y761238D01*
X996797Y760202D01*
X996800Y760194D01*
X996795Y760191D01*
X996707Y759108D01*
X996709Y759105D01*
X996707Y759104D01*
X996707Y753104D01*
X996710Y753100D01*
X996707Y753098D01*
X996857Y751965D01*
X996863Y751959D01*
X996860Y751954D01*
X997258Y750884D01*
X997265Y750880D01*
X997263Y750874D01*
X997890Y749919D01*
X997898Y749916D01*
X997897Y749911D01*
X998720Y749119D01*
X998728Y749118D01*
X998729Y749112D01*
X999708Y748523D01*
X999716Y748524D01*
X999718Y748519D01*
X1000803Y748163D01*
X1000811Y748166D01*
X1000814Y748161D01*
X1001951Y748055D01*
X1001960Y748060D01*
G37*
G36*
X532060Y748060D02*
X532060Y748060D01*
X532065Y748056D01*
X533202Y748263D01*
X533208Y748269D01*
X533213Y748266D01*
X534275Y748721D01*
X534279Y748728D01*
X534285Y748726D01*
X535220Y749406D01*
X535222Y749414D01*
X535228Y749413D01*
X535988Y750284D01*
X535988Y750292D01*
X535994Y750293D01*
X536541Y751312D01*
X536540Y751320D01*
X536545Y751322D01*
X536551Y751341D01*
X536564Y751390D01*
X536578Y751440D01*
X536591Y751489D01*
X536605Y751538D01*
X536618Y751587D01*
X536619Y751587D01*
X536618Y751587D01*
X536632Y751637D01*
X536646Y751686D01*
X536659Y751735D01*
X536673Y751784D01*
X536686Y751834D01*
X536700Y751883D01*
X536713Y751932D01*
X536727Y751981D01*
X536741Y752031D01*
X536754Y752080D01*
X536768Y752129D01*
X536852Y752436D01*
X536849Y752444D01*
X536854Y752447D01*
X536905Y753602D01*
X536904Y753603D01*
X536905Y753604D01*
X536905Y759604D01*
X536901Y759610D01*
X536904Y759613D01*
X536692Y760694D01*
X536686Y760699D01*
X536689Y760704D01*
X536242Y761710D01*
X536235Y761714D01*
X536237Y761720D01*
X535577Y762601D01*
X535569Y762604D01*
X535569Y762609D01*
X534730Y763322D01*
X534722Y763322D01*
X534721Y763328D01*
X533744Y763836D01*
X533736Y763835D01*
X533734Y763840D01*
X532669Y764118D01*
X532661Y764115D01*
X532658Y764119D01*
X531558Y764153D01*
X531552Y764150D01*
X531549Y764153D01*
X530474Y763998D01*
X530468Y763992D01*
X530463Y763995D01*
X529449Y763605D01*
X529445Y763598D01*
X529439Y763600D01*
X528537Y762993D01*
X528535Y762985D01*
X528529Y762986D01*
X527785Y762194D01*
X527784Y762186D01*
X527778Y762186D01*
X527229Y761248D01*
X527230Y761240D01*
X527224Y761238D01*
X526897Y760202D01*
X526900Y760194D01*
X526895Y760191D01*
X526807Y759108D01*
X526809Y759105D01*
X526807Y759104D01*
X526807Y753104D01*
X526810Y753100D01*
X526807Y753098D01*
X526957Y751965D01*
X526963Y751959D01*
X526960Y751954D01*
X527358Y750884D01*
X527365Y750880D01*
X527363Y750874D01*
X527990Y749919D01*
X527998Y749916D01*
X527997Y749911D01*
X528820Y749119D01*
X528828Y749118D01*
X528829Y749112D01*
X529808Y748523D01*
X529816Y748524D01*
X529818Y748519D01*
X530903Y748163D01*
X530911Y748166D01*
X530914Y748161D01*
X532051Y748055D01*
X532060Y748060D01*
G37*
G36*
X532060Y349534D02*
X532060Y349534D01*
X532065Y349530D01*
X533202Y349737D01*
X533208Y349743D01*
X533213Y349740D01*
X534275Y350195D01*
X534279Y350202D01*
X534285Y350200D01*
X535220Y350880D01*
X535222Y350888D01*
X535228Y350887D01*
X535988Y351758D01*
X535988Y351766D01*
X535994Y351767D01*
X536541Y352786D01*
X536540Y352794D01*
X536545Y352796D01*
X536551Y352815D01*
X536564Y352864D01*
X536578Y352914D01*
X536591Y352963D01*
X536605Y353012D01*
X536618Y353061D01*
X536619Y353061D01*
X536618Y353061D01*
X536632Y353111D01*
X536646Y353160D01*
X536659Y353209D01*
X536673Y353258D01*
X536686Y353308D01*
X536700Y353357D01*
X536713Y353406D01*
X536727Y353455D01*
X536741Y353505D01*
X536754Y353554D01*
X536768Y353603D01*
X536852Y353910D01*
X536849Y353918D01*
X536854Y353921D01*
X536905Y355076D01*
X536904Y355077D01*
X536905Y355078D01*
X536905Y361078D01*
X536901Y361084D01*
X536904Y361087D01*
X536692Y362168D01*
X536686Y362173D01*
X536689Y362178D01*
X536242Y363184D01*
X536235Y363188D01*
X536237Y363194D01*
X535577Y364075D01*
X535569Y364078D01*
X535569Y364083D01*
X534730Y364796D01*
X534722Y364796D01*
X534721Y364802D01*
X533744Y365310D01*
X533736Y365309D01*
X533734Y365314D01*
X532669Y365592D01*
X532661Y365589D01*
X532658Y365593D01*
X531558Y365627D01*
X531552Y365624D01*
X531549Y365627D01*
X530474Y365472D01*
X530468Y365466D01*
X530463Y365469D01*
X529449Y365079D01*
X529445Y365072D01*
X529439Y365074D01*
X528537Y364467D01*
X528535Y364459D01*
X528529Y364460D01*
X527785Y363668D01*
X527784Y363660D01*
X527778Y363660D01*
X527229Y362722D01*
X527230Y362714D01*
X527224Y362712D01*
X526897Y361676D01*
X526900Y361668D01*
X526895Y361665D01*
X526807Y360582D01*
X526809Y360579D01*
X526807Y360578D01*
X526807Y354578D01*
X526810Y354574D01*
X526807Y354572D01*
X526957Y353439D01*
X526963Y353433D01*
X526960Y353428D01*
X527358Y352358D01*
X527365Y352354D01*
X527363Y352348D01*
X527990Y351393D01*
X527998Y351390D01*
X527997Y351385D01*
X528820Y350593D01*
X528828Y350592D01*
X528829Y350586D01*
X529808Y349997D01*
X529816Y349998D01*
X529818Y349993D01*
X530903Y349637D01*
X530911Y349640D01*
X530914Y349635D01*
X532051Y349529D01*
X532060Y349534D01*
G37*
G36*
X1001960Y349534D02*
X1001960Y349534D01*
X1001965Y349530D01*
X1003102Y349737D01*
X1003108Y349743D01*
X1003113Y349740D01*
X1004175Y350195D01*
X1004179Y350202D01*
X1004185Y350200D01*
X1005120Y350880D01*
X1005122Y350888D01*
X1005128Y350887D01*
X1005888Y351758D01*
X1005888Y351766D01*
X1005894Y351767D01*
X1006441Y352786D01*
X1006440Y352794D01*
X1006445Y352796D01*
X1006451Y352815D01*
X1006464Y352864D01*
X1006478Y352914D01*
X1006491Y352963D01*
X1006505Y353012D01*
X1006518Y353061D01*
X1006519Y353061D01*
X1006518Y353061D01*
X1006532Y353111D01*
X1006546Y353160D01*
X1006559Y353209D01*
X1006573Y353258D01*
X1006586Y353308D01*
X1006600Y353357D01*
X1006613Y353406D01*
X1006627Y353455D01*
X1006641Y353505D01*
X1006654Y353554D01*
X1006668Y353603D01*
X1006752Y353910D01*
X1006749Y353918D01*
X1006754Y353921D01*
X1006805Y355076D01*
X1006804Y355077D01*
X1006805Y355078D01*
X1006805Y361078D01*
X1006801Y361084D01*
X1006804Y361087D01*
X1006592Y362168D01*
X1006586Y362173D01*
X1006589Y362178D01*
X1006142Y363184D01*
X1006135Y363188D01*
X1006137Y363194D01*
X1005477Y364075D01*
X1005469Y364078D01*
X1005469Y364083D01*
X1004630Y364796D01*
X1004622Y364796D01*
X1004621Y364802D01*
X1003644Y365310D01*
X1003636Y365309D01*
X1003634Y365314D01*
X1002569Y365592D01*
X1002561Y365589D01*
X1002558Y365593D01*
X1001458Y365627D01*
X1001452Y365624D01*
X1001449Y365627D01*
X1000374Y365472D01*
X1000368Y365466D01*
X1000363Y365469D01*
X999349Y365079D01*
X999345Y365072D01*
X999339Y365074D01*
X998437Y364467D01*
X998435Y364459D01*
X998429Y364460D01*
X997685Y363668D01*
X997684Y363660D01*
X997678Y363660D01*
X997129Y362722D01*
X997130Y362714D01*
X997124Y362712D01*
X996797Y361676D01*
X996800Y361668D01*
X996795Y361665D01*
X996707Y360582D01*
X996709Y360579D01*
X996707Y360578D01*
X996707Y354578D01*
X996710Y354574D01*
X996707Y354572D01*
X996857Y353439D01*
X996863Y353433D01*
X996860Y353428D01*
X997258Y352358D01*
X997265Y352354D01*
X997263Y352348D01*
X997890Y351393D01*
X997898Y351390D01*
X997897Y351385D01*
X998720Y350593D01*
X998728Y350592D01*
X998729Y350586D01*
X999708Y349997D01*
X999716Y349998D01*
X999718Y349993D01*
X1000803Y349637D01*
X1000811Y349640D01*
X1000814Y349635D01*
X1001951Y349529D01*
X1001960Y349534D01*
G37*
G36*
X62160Y349534D02*
X62160Y349534D01*
X62165Y349530D01*
X63302Y349737D01*
X63308Y349743D01*
X63313Y349740D01*
X64375Y350195D01*
X64379Y350202D01*
X64385Y350200D01*
X65320Y350880D01*
X65322Y350888D01*
X65328Y350887D01*
X66088Y351758D01*
X66088Y351766D01*
X66094Y351767D01*
X66641Y352786D01*
X66640Y352794D01*
X66645Y352796D01*
X66651Y352815D01*
X66664Y352864D01*
X66678Y352914D01*
X66691Y352963D01*
X66705Y353012D01*
X66718Y353061D01*
X66719Y353061D01*
X66718Y353061D01*
X66732Y353111D01*
X66746Y353160D01*
X66759Y353209D01*
X66773Y353258D01*
X66786Y353308D01*
X66800Y353357D01*
X66813Y353406D01*
X66827Y353455D01*
X66841Y353505D01*
X66854Y353554D01*
X66868Y353603D01*
X66952Y353910D01*
X66949Y353918D01*
X66954Y353921D01*
X67005Y355076D01*
X67004Y355077D01*
X67005Y355078D01*
X67005Y361078D01*
X67001Y361084D01*
X67004Y361087D01*
X66792Y362168D01*
X66786Y362173D01*
X66789Y362178D01*
X66342Y363184D01*
X66335Y363188D01*
X66337Y363194D01*
X65677Y364075D01*
X65669Y364078D01*
X65669Y364083D01*
X64830Y364796D01*
X64822Y364796D01*
X64821Y364802D01*
X63844Y365310D01*
X63836Y365309D01*
X63834Y365314D01*
X62769Y365592D01*
X62761Y365589D01*
X62758Y365593D01*
X61658Y365627D01*
X61652Y365624D01*
X61649Y365627D01*
X60574Y365472D01*
X60568Y365466D01*
X60563Y365469D01*
X59549Y365079D01*
X59545Y365072D01*
X59539Y365074D01*
X58637Y364467D01*
X58635Y364459D01*
X58629Y364460D01*
X57885Y363668D01*
X57884Y363660D01*
X57878Y363660D01*
X57329Y362722D01*
X57330Y362714D01*
X57324Y362712D01*
X56997Y361676D01*
X57000Y361668D01*
X56995Y361665D01*
X56907Y360582D01*
X56909Y360579D01*
X56907Y360578D01*
X56907Y354578D01*
X56910Y354574D01*
X56907Y354572D01*
X57057Y353439D01*
X57063Y353433D01*
X57060Y353428D01*
X57458Y352358D01*
X57465Y352354D01*
X57463Y352348D01*
X58090Y351393D01*
X58098Y351390D01*
X58097Y351385D01*
X58920Y350593D01*
X58928Y350592D01*
X58929Y350586D01*
X59908Y349997D01*
X59916Y349998D01*
X59918Y349993D01*
X61003Y349637D01*
X61011Y349640D01*
X61014Y349635D01*
X62151Y349529D01*
X62160Y349534D01*
G37*
G36*
X1089098Y748161D02*
X1089098Y748161D01*
X1089104Y748166D01*
X1089109Y748163D01*
X1090194Y748519D01*
X1090199Y748526D01*
X1090204Y748523D01*
X1091183Y749112D01*
X1091186Y749120D01*
X1091192Y749119D01*
X1092015Y749911D01*
X1092016Y749919D01*
X1092022Y749919D01*
X1092649Y750874D01*
X1092648Y750882D01*
X1092654Y750884D01*
X1093052Y751954D01*
X1093050Y751962D01*
X1093055Y751965D01*
X1093205Y753098D01*
X1093202Y753102D01*
X1093205Y753104D01*
X1093205Y759104D01*
X1093202Y759108D01*
X1093205Y759110D01*
X1093055Y760243D01*
X1093049Y760249D01*
X1093052Y760254D01*
X1092654Y761324D01*
X1092647Y761328D01*
X1092649Y761334D01*
X1092022Y762289D01*
X1092014Y762292D01*
X1092015Y762297D01*
X1091192Y763089D01*
X1091184Y763090D01*
X1091183Y763096D01*
X1090204Y763685D01*
X1090196Y763684D01*
X1090194Y763689D01*
X1089109Y764045D01*
X1089101Y764043D01*
X1089098Y764047D01*
X1087961Y764153D01*
X1087954Y764149D01*
X1087950Y764153D01*
X1086862Y764008D01*
X1086856Y764002D01*
X1086851Y764005D01*
X1085823Y763622D01*
X1085818Y763615D01*
X1085813Y763617D01*
X1084896Y763014D01*
X1084893Y763006D01*
X1084887Y763007D01*
X1084127Y762215D01*
X1084126Y762207D01*
X1084120Y762206D01*
X1083556Y761265D01*
X1083557Y761257D01*
X1083551Y761255D01*
X1083210Y760212D01*
X1083212Y760204D01*
X1083208Y760201D01*
X1083107Y759109D01*
X1083109Y759106D01*
X1083107Y759104D01*
X1083107Y753104D01*
X1083109Y753101D01*
X1083107Y753100D01*
X1083208Y752007D01*
X1083213Y752001D01*
X1083210Y751996D01*
X1083551Y750953D01*
X1083558Y750948D01*
X1083556Y750943D01*
X1084120Y750002D01*
X1084128Y749999D01*
X1084127Y749993D01*
X1084887Y749201D01*
X1084895Y749200D01*
X1084896Y749194D01*
X1085813Y748592D01*
X1085821Y748592D01*
X1085823Y748587D01*
X1086851Y748203D01*
X1086859Y748205D01*
X1086862Y748200D01*
X1087950Y748055D01*
X1087957Y748059D01*
X1087961Y748055D01*
X1089098Y748161D01*
G37*
G36*
X619198Y748161D02*
X619198Y748161D01*
X619204Y748166D01*
X619209Y748163D01*
X620294Y748519D01*
X620299Y748526D01*
X620304Y748523D01*
X621283Y749112D01*
X621286Y749120D01*
X621292Y749119D01*
X622115Y749911D01*
X622116Y749919D01*
X622122Y749919D01*
X622749Y750874D01*
X622748Y750882D01*
X622754Y750884D01*
X623152Y751954D01*
X623150Y751962D01*
X623155Y751965D01*
X623305Y753098D01*
X623302Y753102D01*
X623305Y753104D01*
X623305Y759104D01*
X623302Y759108D01*
X623305Y759110D01*
X623155Y760243D01*
X623149Y760249D01*
X623152Y760254D01*
X622754Y761324D01*
X622747Y761328D01*
X622749Y761334D01*
X622122Y762289D01*
X622114Y762292D01*
X622115Y762297D01*
X621292Y763089D01*
X621284Y763090D01*
X621283Y763096D01*
X620304Y763685D01*
X620296Y763684D01*
X620294Y763689D01*
X619209Y764045D01*
X619201Y764043D01*
X619198Y764047D01*
X618061Y764153D01*
X618054Y764149D01*
X618050Y764153D01*
X616962Y764008D01*
X616956Y764002D01*
X616951Y764005D01*
X615923Y763622D01*
X615918Y763615D01*
X615913Y763617D01*
X614996Y763014D01*
X614993Y763006D01*
X614987Y763007D01*
X614227Y762215D01*
X614226Y762207D01*
X614220Y762206D01*
X613656Y761265D01*
X613657Y761257D01*
X613651Y761255D01*
X613310Y760212D01*
X613312Y760204D01*
X613308Y760201D01*
X613207Y759109D01*
X613209Y759106D01*
X613207Y759104D01*
X613207Y753104D01*
X613209Y753101D01*
X613207Y753100D01*
X613308Y752007D01*
X613313Y752001D01*
X613310Y751996D01*
X613651Y750953D01*
X613658Y750948D01*
X613656Y750943D01*
X614220Y750002D01*
X614228Y749999D01*
X614227Y749993D01*
X614987Y749201D01*
X614995Y749200D01*
X614996Y749194D01*
X615913Y748592D01*
X615921Y748592D01*
X615923Y748587D01*
X616951Y748203D01*
X616959Y748205D01*
X616962Y748200D01*
X618050Y748055D01*
X618057Y748059D01*
X618061Y748055D01*
X619198Y748161D01*
G37*
G36*
X149298Y748161D02*
X149298Y748161D01*
X149304Y748166D01*
X149309Y748163D01*
X150394Y748519D01*
X150399Y748526D01*
X150404Y748523D01*
X151383Y749112D01*
X151386Y749120D01*
X151392Y749119D01*
X152215Y749911D01*
X152216Y749919D01*
X152222Y749919D01*
X152849Y750874D01*
X152848Y750882D01*
X152854Y750884D01*
X153252Y751954D01*
X153250Y751962D01*
X153255Y751965D01*
X153405Y753098D01*
X153402Y753102D01*
X153405Y753104D01*
X153405Y759104D01*
X153402Y759108D01*
X153405Y759110D01*
X153255Y760243D01*
X153249Y760249D01*
X153252Y760254D01*
X152854Y761324D01*
X152847Y761328D01*
X152849Y761334D01*
X152222Y762289D01*
X152214Y762292D01*
X152215Y762297D01*
X151392Y763089D01*
X151384Y763090D01*
X151383Y763096D01*
X150404Y763685D01*
X150396Y763684D01*
X150394Y763689D01*
X149309Y764045D01*
X149301Y764043D01*
X149298Y764047D01*
X148161Y764153D01*
X148154Y764149D01*
X148150Y764153D01*
X147062Y764008D01*
X147056Y764002D01*
X147051Y764005D01*
X146023Y763622D01*
X146018Y763615D01*
X146013Y763617D01*
X145096Y763014D01*
X145093Y763006D01*
X145087Y763007D01*
X144327Y762215D01*
X144326Y762207D01*
X144320Y762206D01*
X143756Y761265D01*
X143757Y761257D01*
X143751Y761255D01*
X143410Y760212D01*
X143412Y760204D01*
X143408Y760201D01*
X143307Y759109D01*
X143309Y759106D01*
X143307Y759104D01*
X143307Y753104D01*
X143309Y753101D01*
X143307Y753100D01*
X143408Y752007D01*
X143413Y752001D01*
X143410Y751996D01*
X143751Y750953D01*
X143758Y750948D01*
X143756Y750943D01*
X144320Y750002D01*
X144328Y749999D01*
X144327Y749993D01*
X145087Y749201D01*
X145095Y749200D01*
X145096Y749194D01*
X146013Y748592D01*
X146021Y748592D01*
X146023Y748587D01*
X147051Y748203D01*
X147059Y748205D01*
X147062Y748200D01*
X148150Y748055D01*
X148157Y748059D01*
X148161Y748055D01*
X149298Y748161D01*
G37*
G36*
X619198Y349635D02*
X619198Y349635D01*
X619204Y349640D01*
X619209Y349637D01*
X620294Y349993D01*
X620299Y350000D01*
X620304Y349997D01*
X621283Y350586D01*
X621286Y350594D01*
X621292Y350593D01*
X622115Y351385D01*
X622116Y351393D01*
X622122Y351393D01*
X622749Y352348D01*
X622748Y352356D01*
X622754Y352358D01*
X623152Y353428D01*
X623150Y353436D01*
X623155Y353439D01*
X623305Y354572D01*
X623302Y354576D01*
X623305Y354578D01*
X623305Y360578D01*
X623302Y360582D01*
X623305Y360584D01*
X623155Y361717D01*
X623149Y361723D01*
X623152Y361728D01*
X622754Y362798D01*
X622747Y362802D01*
X622749Y362808D01*
X622122Y363763D01*
X622114Y363766D01*
X622115Y363771D01*
X621292Y364563D01*
X621284Y364564D01*
X621283Y364570D01*
X620304Y365159D01*
X620296Y365158D01*
X620294Y365163D01*
X619209Y365519D01*
X619201Y365517D01*
X619198Y365521D01*
X618061Y365627D01*
X618054Y365623D01*
X618050Y365627D01*
X616962Y365482D01*
X616956Y365476D01*
X616951Y365479D01*
X615923Y365096D01*
X615918Y365089D01*
X615913Y365091D01*
X614996Y364488D01*
X614993Y364480D01*
X614987Y364481D01*
X614227Y363689D01*
X614226Y363681D01*
X614220Y363680D01*
X613656Y362739D01*
X613657Y362731D01*
X613651Y362729D01*
X613310Y361686D01*
X613312Y361678D01*
X613308Y361675D01*
X613207Y360583D01*
X613209Y360580D01*
X613207Y360578D01*
X613207Y354578D01*
X613209Y354575D01*
X613207Y354574D01*
X613308Y353481D01*
X613313Y353475D01*
X613310Y353470D01*
X613651Y352427D01*
X613658Y352422D01*
X613656Y352417D01*
X614220Y351476D01*
X614228Y351473D01*
X614227Y351467D01*
X614987Y350675D01*
X614995Y350674D01*
X614996Y350668D01*
X615913Y350066D01*
X615921Y350066D01*
X615923Y350061D01*
X616951Y349677D01*
X616959Y349679D01*
X616962Y349674D01*
X618050Y349529D01*
X618057Y349533D01*
X618061Y349529D01*
X619198Y349635D01*
G37*
G36*
X149298Y349635D02*
X149298Y349635D01*
X149304Y349640D01*
X149309Y349637D01*
X150394Y349993D01*
X150399Y350000D01*
X150404Y349997D01*
X151383Y350586D01*
X151386Y350594D01*
X151392Y350593D01*
X152215Y351385D01*
X152216Y351393D01*
X152222Y351393D01*
X152849Y352348D01*
X152848Y352356D01*
X152854Y352358D01*
X153252Y353428D01*
X153250Y353436D01*
X153255Y353439D01*
X153405Y354572D01*
X153402Y354576D01*
X153405Y354578D01*
X153405Y360578D01*
X153402Y360582D01*
X153405Y360584D01*
X153255Y361717D01*
X153249Y361723D01*
X153252Y361728D01*
X152854Y362798D01*
X152847Y362802D01*
X152849Y362808D01*
X152222Y363763D01*
X152214Y363766D01*
X152215Y363771D01*
X151392Y364563D01*
X151384Y364564D01*
X151383Y364570D01*
X150404Y365159D01*
X150396Y365158D01*
X150394Y365163D01*
X149309Y365519D01*
X149301Y365517D01*
X149298Y365521D01*
X148161Y365627D01*
X148154Y365623D01*
X148150Y365627D01*
X147062Y365482D01*
X147056Y365476D01*
X147051Y365479D01*
X146023Y365096D01*
X146018Y365089D01*
X146013Y365091D01*
X145096Y364488D01*
X145093Y364480D01*
X145087Y364481D01*
X144327Y363689D01*
X144326Y363681D01*
X144320Y363680D01*
X143756Y362739D01*
X143757Y362731D01*
X143751Y362729D01*
X143410Y361686D01*
X143412Y361678D01*
X143408Y361675D01*
X143307Y360583D01*
X143309Y360580D01*
X143307Y360578D01*
X143307Y354578D01*
X143309Y354575D01*
X143307Y354574D01*
X143408Y353481D01*
X143413Y353475D01*
X143410Y353470D01*
X143751Y352427D01*
X143758Y352422D01*
X143756Y352417D01*
X144320Y351476D01*
X144328Y351473D01*
X144327Y351467D01*
X145087Y350675D01*
X145095Y350674D01*
X145096Y350668D01*
X146013Y350066D01*
X146021Y350066D01*
X146023Y350061D01*
X147051Y349677D01*
X147059Y349679D01*
X147062Y349674D01*
X148150Y349529D01*
X148157Y349533D01*
X148161Y349529D01*
X149298Y349635D01*
G37*
G36*
X1089098Y349635D02*
X1089098Y349635D01*
X1089104Y349640D01*
X1089109Y349637D01*
X1090194Y349993D01*
X1090199Y350000D01*
X1090204Y349997D01*
X1091183Y350586D01*
X1091186Y350594D01*
X1091192Y350593D01*
X1092015Y351385D01*
X1092016Y351393D01*
X1092022Y351393D01*
X1092649Y352348D01*
X1092648Y352356D01*
X1092654Y352358D01*
X1093052Y353428D01*
X1093050Y353436D01*
X1093055Y353439D01*
X1093205Y354572D01*
X1093202Y354576D01*
X1093205Y354578D01*
X1093205Y360578D01*
X1093202Y360582D01*
X1093205Y360584D01*
X1093055Y361717D01*
X1093049Y361723D01*
X1093052Y361728D01*
X1092654Y362798D01*
X1092647Y362802D01*
X1092649Y362808D01*
X1092022Y363763D01*
X1092014Y363766D01*
X1092015Y363771D01*
X1091192Y364563D01*
X1091184Y364564D01*
X1091183Y364570D01*
X1090204Y365159D01*
X1090196Y365158D01*
X1090194Y365163D01*
X1089109Y365519D01*
X1089101Y365517D01*
X1089098Y365521D01*
X1087961Y365627D01*
X1087954Y365623D01*
X1087950Y365627D01*
X1086862Y365482D01*
X1086856Y365476D01*
X1086851Y365479D01*
X1085823Y365096D01*
X1085818Y365089D01*
X1085813Y365091D01*
X1084896Y364488D01*
X1084893Y364480D01*
X1084887Y364481D01*
X1084127Y363689D01*
X1084126Y363681D01*
X1084120Y363680D01*
X1083556Y362739D01*
X1083557Y362731D01*
X1083551Y362729D01*
X1083210Y361686D01*
X1083212Y361678D01*
X1083208Y361675D01*
X1083107Y360583D01*
X1083109Y360580D01*
X1083107Y360578D01*
X1083107Y354578D01*
X1083109Y354575D01*
X1083107Y354574D01*
X1083208Y353481D01*
X1083213Y353475D01*
X1083210Y353470D01*
X1083551Y352427D01*
X1083558Y352422D01*
X1083556Y352417D01*
X1084120Y351476D01*
X1084128Y351473D01*
X1084127Y351467D01*
X1084887Y350675D01*
X1084895Y350674D01*
X1084896Y350668D01*
X1085813Y350066D01*
X1085821Y350066D01*
X1085823Y350061D01*
X1086851Y349677D01*
X1086859Y349679D01*
X1086862Y349674D01*
X1087950Y349529D01*
X1087957Y349533D01*
X1087961Y349529D01*
X1089098Y349635D01*
G37*
D10*
X14050Y183956D03*
X14050Y127956D03*
D11*
X50800Y170956D03*
X50800Y160956D03*
X50800Y150956D03*
X50800Y140956D03*
D10*
X393620Y127956D03*
X393620Y183956D03*
D11*
X356870Y140956D03*
X356870Y150956D03*
X356870Y160956D03*
X356870Y170956D03*
D12*
X110100Y144526D03*
X93100Y144526D03*
X110100Y129286D03*
X93100Y129286D03*
X93100Y114046D03*
X110100Y114046D03*
D13*
X102320Y39020D03*
D14*
X59944Y214258D03*
X59944Y231258D03*
X74676Y214258D03*
X74676Y231258D03*
D15*
X366324Y69660D02*
X373324Y69660D01*
X373324Y62660D01*
X366324Y62660D01*
X366324Y69660D01*
X366324Y65510D02*
X373324Y65510D01*
X373324Y68360D02*
X366324Y68360D01*
X366324Y87200D02*
X373324Y87200D01*
X373324Y80200D01*
X366324Y80200D01*
X366324Y87200D01*
X366324Y83050D02*
X373324Y83050D01*
X373324Y85900D02*
X366324Y85900D01*
D16*
X90100Y81026D03*
X113100Y81026D03*
D12*
X110100Y98806D03*
X93100Y98806D03*
X372500Y96520D03*
X389500Y96520D03*
X110100Y175006D03*
X93100Y175006D03*
X110100Y159766D03*
X93100Y159766D03*
D14*
X283972Y149996D03*
X283972Y166996D03*
D12*
X160900Y67056D03*
X143900Y67056D03*
D15*
X390454Y69660D02*
X397454Y69660D01*
X397454Y62660D01*
X390454Y62660D01*
X390454Y69660D01*
X390454Y65510D02*
X397454Y65510D01*
X397454Y68360D02*
X390454Y68360D01*
X390454Y87200D02*
X397454Y87200D01*
X397454Y80200D01*
X390454Y80200D01*
X390454Y87200D01*
X390454Y83050D02*
X397454Y83050D01*
X397454Y85900D02*
X390454Y85900D01*
D12*
X389500Y114046D03*
X372500Y114046D03*
D17*
X323643Y148996D03*
X323643Y158496D03*
X323643Y167996D03*
X297641Y167996D03*
X297641Y148996D03*
D14*
X337312Y166996D03*
X337312Y149996D03*
X92964Y250816D03*
X92964Y233816D03*
X111252Y251324D03*
X111252Y234324D03*
X169672Y326000D03*
X169672Y309000D03*
D18*
X270200Y92306D03*
D19*
X259700Y92306D03*
D18*
X270200Y103306D03*
D19*
X259700Y103306D03*
D18*
X270200Y114306D03*
D19*
X259700Y114306D03*
D18*
X270200Y125306D03*
D19*
X259700Y125306D03*
D18*
X270200Y136306D03*
D19*
X259700Y136306D03*
D18*
X270200Y147306D03*
D19*
X259700Y147306D03*
D18*
X270200Y158306D03*
D19*
X259700Y158306D03*
D18*
X270200Y188306D03*
D19*
X259700Y188306D03*
D18*
X270200Y199306D03*
D19*
X259700Y199306D03*
D18*
X270200Y210306D03*
D19*
X259700Y210306D03*
D18*
X270200Y221306D03*
D19*
X259700Y221306D03*
D18*
X270200Y232306D03*
D19*
X259700Y232306D03*
D18*
X136200Y158306D03*
D19*
X146700Y158306D03*
D18*
X136200Y147306D03*
D19*
X146700Y147306D03*
D18*
X136200Y136306D03*
D19*
X146700Y136306D03*
D18*
X136200Y125306D03*
D19*
X146700Y125306D03*
D18*
X136200Y114306D03*
D19*
X146700Y114306D03*
D18*
X136200Y103306D03*
D19*
X146700Y103306D03*
D18*
X136200Y92306D03*
D19*
X146700Y92306D03*
D18*
X136200Y232306D03*
D19*
X146700Y232306D03*
D18*
X136200Y221306D03*
D19*
X146700Y221306D03*
D18*
X136200Y210306D03*
D19*
X146700Y210306D03*
D18*
X136200Y199306D03*
D19*
X146700Y199306D03*
D18*
X136200Y188306D03*
D19*
X146700Y188306D03*
D20*
X105076Y271258D03*
D21*
X100076Y271508D03*
X95076Y271508D03*
X95076Y262908D03*
X100076Y262908D03*
X105076Y262908D03*
D22*
X97656Y309978D03*
X102656Y309978D03*
D23*
X72906Y309978D03*
X80656Y309978D03*
D22*
X87656Y309978D03*
X92656Y309978D03*
X112656Y309978D03*
X107656Y309978D03*
D23*
X137406Y309978D03*
X129656Y309978D03*
D22*
X122656Y309978D03*
X117656Y309978D03*
D14*
X75184Y257946D03*
X75184Y274946D03*
X60452Y257946D03*
X60452Y274946D03*
D24*
X297180Y109940D03*
X297180Y98340D03*
D25*
X322214Y256540D03*
D26*
X369114Y299590D03*
X369114Y213490D03*
D24*
X283972Y220938D03*
X283972Y209338D03*
D27*
X312716Y190500D03*
X324316Y190500D03*
X297900Y190500D03*
X286300Y190500D03*
D10*
X483950Y183956D03*
X483950Y127956D03*
D11*
X520700Y170956D03*
X520700Y160956D03*
X520700Y150956D03*
X520700Y140956D03*
D10*
X863520Y127956D03*
X863520Y183956D03*
D11*
X826770Y140956D03*
X826770Y150956D03*
X826770Y160956D03*
X826770Y170956D03*
D12*
X580000Y144526D03*
X563000Y144526D03*
X580000Y129286D03*
X563000Y129286D03*
X563000Y114046D03*
X580000Y114046D03*
D13*
X572220Y39020D03*
D14*
X529844Y214258D03*
X529844Y231258D03*
X544576Y214258D03*
X544576Y231258D03*
D15*
X836224Y69660D02*
X843224Y69660D01*
X843224Y62660D01*
X836224Y62660D01*
X836224Y69660D01*
X836224Y65510D02*
X843224Y65510D01*
X843224Y68360D02*
X836224Y68360D01*
X836224Y87200D02*
X843224Y87200D01*
X843224Y80200D01*
X836224Y80200D01*
X836224Y87200D01*
X836224Y83050D02*
X843224Y83050D01*
X843224Y85900D02*
X836224Y85900D01*
D16*
X560000Y81026D03*
X583000Y81026D03*
D12*
X580000Y98806D03*
X563000Y98806D03*
X842400Y96520D03*
X859400Y96520D03*
X580000Y175006D03*
X563000Y175006D03*
X580000Y159766D03*
X563000Y159766D03*
D14*
X753872Y149996D03*
X753872Y166996D03*
D12*
X630800Y67056D03*
X613800Y67056D03*
D15*
X860354Y69660D02*
X867354Y69660D01*
X867354Y62660D01*
X860354Y62660D01*
X860354Y69660D01*
X860354Y65510D02*
X867354Y65510D01*
X867354Y68360D02*
X860354Y68360D01*
X860354Y87200D02*
X867354Y87200D01*
X867354Y80200D01*
X860354Y80200D01*
X860354Y87200D01*
X860354Y83050D02*
X867354Y83050D01*
X867354Y85900D02*
X860354Y85900D01*
D12*
X859400Y114046D03*
X842400Y114046D03*
D17*
X793543Y148996D03*
X793543Y158496D03*
X793543Y167996D03*
X767541Y167996D03*
X767541Y148996D03*
D14*
X807212Y166996D03*
X807212Y149996D03*
X562864Y250816D03*
X562864Y233816D03*
X581152Y251324D03*
X581152Y234324D03*
X639572Y326000D03*
X639572Y309000D03*
D18*
X740100Y92306D03*
D19*
X729600Y92306D03*
D18*
X740100Y103306D03*
D19*
X729600Y103306D03*
D18*
X740100Y114306D03*
D19*
X729600Y114306D03*
D18*
X740100Y125306D03*
D19*
X729600Y125306D03*
D18*
X740100Y136306D03*
D19*
X729600Y136306D03*
D18*
X740100Y147306D03*
D19*
X729600Y147306D03*
D18*
X740100Y158306D03*
D19*
X729600Y158306D03*
D18*
X740100Y188306D03*
D19*
X729600Y188306D03*
D18*
X740100Y199306D03*
D19*
X729600Y199306D03*
D18*
X740100Y210306D03*
D19*
X729600Y210306D03*
D18*
X740100Y221306D03*
D19*
X729600Y221306D03*
D18*
X740100Y232306D03*
D19*
X729600Y232306D03*
D18*
X606100Y158306D03*
D19*
X616600Y158306D03*
D18*
X606100Y147306D03*
D19*
X616600Y147306D03*
D18*
X606100Y136306D03*
D19*
X616600Y136306D03*
D18*
X606100Y125306D03*
D19*
X616600Y125306D03*
D18*
X606100Y114306D03*
D19*
X616600Y114306D03*
D18*
X606100Y103306D03*
D19*
X616600Y103306D03*
D18*
X606100Y92306D03*
D19*
X616600Y92306D03*
D18*
X606100Y232306D03*
D19*
X616600Y232306D03*
D18*
X606100Y221306D03*
D19*
X616600Y221306D03*
D18*
X606100Y210306D03*
D19*
X616600Y210306D03*
D18*
X606100Y199306D03*
D19*
X616600Y199306D03*
D18*
X606100Y188306D03*
D19*
X616600Y188306D03*
D20*
X574976Y271258D03*
D21*
X569976Y271508D03*
X564976Y271508D03*
X564976Y262908D03*
X569976Y262908D03*
X574976Y262908D03*
D22*
X567556Y309978D03*
X572556Y309978D03*
D23*
X542806Y309978D03*
X550556Y309978D03*
D22*
X557556Y309978D03*
X562556Y309978D03*
X582556Y309978D03*
X577556Y309978D03*
D23*
X607306Y309978D03*
X599556Y309978D03*
D22*
X592556Y309978D03*
X587556Y309978D03*
D14*
X545084Y257946D03*
X545084Y274946D03*
X530352Y257946D03*
X530352Y274946D03*
D24*
X767080Y109940D03*
X767080Y98340D03*
D25*
X792114Y256540D03*
D26*
X839014Y299590D03*
X839014Y213490D03*
D24*
X753872Y220938D03*
X753872Y209338D03*
D27*
X782616Y190500D03*
X794216Y190500D03*
X767800Y190500D03*
X756200Y190500D03*
D10*
X953850Y183956D03*
X953850Y127956D03*
D11*
X990600Y170956D03*
X990600Y160956D03*
X990600Y150956D03*
X990600Y140956D03*
D10*
X1333420Y127956D03*
X1333420Y183956D03*
D11*
X1296670Y140956D03*
X1296670Y150956D03*
X1296670Y160956D03*
X1296670Y170956D03*
D12*
X1049900Y144526D03*
X1032900Y144526D03*
X1049900Y129286D03*
X1032900Y129286D03*
X1032900Y114046D03*
X1049900Y114046D03*
D13*
X1042120Y39020D03*
D14*
X999744Y214258D03*
X999744Y231258D03*
X1014476Y214258D03*
X1014476Y231258D03*
D15*
X1306124Y69660D02*
X1313124Y69660D01*
X1313124Y62660D01*
X1306124Y62660D01*
X1306124Y69660D01*
X1306124Y65510D02*
X1313124Y65510D01*
X1313124Y68360D02*
X1306124Y68360D01*
X1306124Y87200D02*
X1313124Y87200D01*
X1313124Y80200D01*
X1306124Y80200D01*
X1306124Y87200D01*
X1306124Y83050D02*
X1313124Y83050D01*
X1313124Y85900D02*
X1306124Y85900D01*
D16*
X1029900Y81026D03*
X1052900Y81026D03*
D12*
X1049900Y98806D03*
X1032900Y98806D03*
X1312300Y96520D03*
X1329300Y96520D03*
X1049900Y175006D03*
X1032900Y175006D03*
X1049900Y159766D03*
X1032900Y159766D03*
D14*
X1223772Y149996D03*
X1223772Y166996D03*
D12*
X1100700Y67056D03*
X1083700Y67056D03*
D15*
X1330254Y69660D02*
X1337254Y69660D01*
X1337254Y62660D01*
X1330254Y62660D01*
X1330254Y69660D01*
X1330254Y65510D02*
X1337254Y65510D01*
X1337254Y68360D02*
X1330254Y68360D01*
X1330254Y87200D02*
X1337254Y87200D01*
X1337254Y80200D01*
X1330254Y80200D01*
X1330254Y87200D01*
X1330254Y83050D02*
X1337254Y83050D01*
X1337254Y85900D02*
X1330254Y85900D01*
D12*
X1329300Y114046D03*
X1312300Y114046D03*
D17*
X1263443Y148996D03*
X1263443Y158496D03*
X1263443Y167996D03*
X1237441Y167996D03*
X1237441Y148996D03*
D14*
X1277112Y166996D03*
X1277112Y149996D03*
X1032764Y250816D03*
X1032764Y233816D03*
X1051052Y251324D03*
X1051052Y234324D03*
X1109472Y326000D03*
X1109472Y309000D03*
D18*
X1210000Y92306D03*
D19*
X1199500Y92306D03*
D18*
X1210000Y103306D03*
D19*
X1199500Y103306D03*
D18*
X1210000Y114306D03*
D19*
X1199500Y114306D03*
D18*
X1210000Y125306D03*
D19*
X1199500Y125306D03*
D18*
X1210000Y136306D03*
D19*
X1199500Y136306D03*
D18*
X1210000Y147306D03*
D19*
X1199500Y147306D03*
D18*
X1210000Y158306D03*
D19*
X1199500Y158306D03*
D18*
X1210000Y188306D03*
D19*
X1199500Y188306D03*
D18*
X1210000Y199306D03*
D19*
X1199500Y199306D03*
D18*
X1210000Y210306D03*
D19*
X1199500Y210306D03*
D18*
X1210000Y221306D03*
D19*
X1199500Y221306D03*
D18*
X1210000Y232306D03*
D19*
X1199500Y232306D03*
D18*
X1076000Y158306D03*
D19*
X1086500Y158306D03*
D18*
X1076000Y147306D03*
D19*
X1086500Y147306D03*
D18*
X1076000Y136306D03*
D19*
X1086500Y136306D03*
D18*
X1076000Y125306D03*
D19*
X1086500Y125306D03*
D18*
X1076000Y114306D03*
D19*
X1086500Y114306D03*
D18*
X1076000Y103306D03*
D19*
X1086500Y103306D03*
D18*
X1076000Y92306D03*
D19*
X1086500Y92306D03*
D18*
X1076000Y232306D03*
D19*
X1086500Y232306D03*
D18*
X1076000Y221306D03*
D19*
X1086500Y221306D03*
D18*
X1076000Y210306D03*
D19*
X1086500Y210306D03*
D18*
X1076000Y199306D03*
D19*
X1086500Y199306D03*
D18*
X1076000Y188306D03*
D19*
X1086500Y188306D03*
D20*
X1044876Y271258D03*
D21*
X1039876Y271508D03*
X1034876Y271508D03*
X1034876Y262908D03*
X1039876Y262908D03*
X1044876Y262908D03*
D22*
X1037456Y309978D03*
X1042456Y309978D03*
D23*
X1012706Y309978D03*
X1020456Y309978D03*
D22*
X1027456Y309978D03*
X1032456Y309978D03*
X1052456Y309978D03*
X1047456Y309978D03*
D23*
X1077206Y309978D03*
X1069456Y309978D03*
D22*
X1062456Y309978D03*
X1057456Y309978D03*
D14*
X1014984Y257946D03*
X1014984Y274946D03*
X1000252Y257946D03*
X1000252Y274946D03*
D24*
X1236980Y109940D03*
X1236980Y98340D03*
D25*
X1262014Y256540D03*
D26*
X1308914Y299590D03*
X1308914Y213490D03*
D24*
X1223772Y220938D03*
X1223772Y209338D03*
D27*
X1252516Y190500D03*
X1264116Y190500D03*
X1237700Y190500D03*
X1226100Y190500D03*
D10*
X14050Y582482D03*
X14050Y526482D03*
D11*
X50800Y569482D03*
X50800Y559482D03*
X50800Y549482D03*
X50800Y539482D03*
D10*
X393620Y526482D03*
X393620Y582482D03*
D11*
X356870Y539482D03*
X356870Y549482D03*
X356870Y559482D03*
X356870Y569482D03*
D12*
X110100Y543052D03*
X93100Y543052D03*
X110100Y527812D03*
X93100Y527812D03*
X93100Y512572D03*
X110100Y512572D03*
D13*
X102320Y437546D03*
D14*
X59944Y612784D03*
X59944Y629784D03*
X74676Y612784D03*
X74676Y629784D03*
D15*
X366324Y468186D02*
X373324Y468186D01*
X373324Y461186D01*
X366324Y461186D01*
X366324Y468186D01*
X366324Y464036D02*
X373324Y464036D01*
X373324Y466886D02*
X366324Y466886D01*
X366324Y485726D02*
X373324Y485726D01*
X373324Y478726D01*
X366324Y478726D01*
X366324Y485726D01*
X366324Y481576D02*
X373324Y481576D01*
X373324Y484426D02*
X366324Y484426D01*
D16*
X90100Y479552D03*
X113100Y479552D03*
D12*
X110100Y497332D03*
X93100Y497332D03*
X372500Y495046D03*
X389500Y495046D03*
X110100Y573532D03*
X93100Y573532D03*
X110100Y558292D03*
X93100Y558292D03*
D14*
X283972Y548522D03*
X283972Y565522D03*
D12*
X160900Y465582D03*
X143900Y465582D03*
D15*
X390454Y468186D02*
X397454Y468186D01*
X397454Y461186D01*
X390454Y461186D01*
X390454Y468186D01*
X390454Y464036D02*
X397454Y464036D01*
X397454Y466886D02*
X390454Y466886D01*
X390454Y485726D02*
X397454Y485726D01*
X397454Y478726D01*
X390454Y478726D01*
X390454Y485726D01*
X390454Y481576D02*
X397454Y481576D01*
X397454Y484426D02*
X390454Y484426D01*
D12*
X389500Y512572D03*
X372500Y512572D03*
D17*
X323643Y547522D03*
X323643Y557022D03*
X323643Y566522D03*
X297641Y566522D03*
X297641Y547522D03*
D14*
X337312Y565522D03*
X337312Y548522D03*
X92964Y649342D03*
X92964Y632342D03*
X111252Y649850D03*
X111252Y632850D03*
X169672Y724526D03*
X169672Y707526D03*
D18*
X270200Y490832D03*
D19*
X259700Y490832D03*
D18*
X270200Y501832D03*
D19*
X259700Y501832D03*
D18*
X270200Y512832D03*
D19*
X259700Y512832D03*
D18*
X270200Y523832D03*
D19*
X259700Y523832D03*
D18*
X270200Y534832D03*
D19*
X259700Y534832D03*
D18*
X270200Y545832D03*
D19*
X259700Y545832D03*
D18*
X270200Y556832D03*
D19*
X259700Y556832D03*
D18*
X270200Y586832D03*
D19*
X259700Y586832D03*
D18*
X270200Y597832D03*
D19*
X259700Y597832D03*
D18*
X270200Y608832D03*
D19*
X259700Y608832D03*
D18*
X270200Y619832D03*
D19*
X259700Y619832D03*
D18*
X270200Y630832D03*
D19*
X259700Y630832D03*
D18*
X136200Y556832D03*
D19*
X146700Y556832D03*
D18*
X136200Y545832D03*
D19*
X146700Y545832D03*
D18*
X136200Y534832D03*
D19*
X146700Y534832D03*
D18*
X136200Y523832D03*
D19*
X146700Y523832D03*
D18*
X136200Y512832D03*
D19*
X146700Y512832D03*
D18*
X136200Y501832D03*
D19*
X146700Y501832D03*
D18*
X136200Y490832D03*
D19*
X146700Y490832D03*
D18*
X136200Y630832D03*
D19*
X146700Y630832D03*
D18*
X136200Y619832D03*
D19*
X146700Y619832D03*
D18*
X136200Y608832D03*
D19*
X146700Y608832D03*
D18*
X136200Y597832D03*
D19*
X146700Y597832D03*
D18*
X136200Y586832D03*
D19*
X146700Y586832D03*
D20*
X105076Y669784D03*
D21*
X100076Y670034D03*
X95076Y670034D03*
X95076Y661434D03*
X100076Y661434D03*
X105076Y661434D03*
D22*
X97656Y708504D03*
X102656Y708504D03*
D23*
X72906Y708504D03*
X80656Y708504D03*
D22*
X87656Y708504D03*
X92656Y708504D03*
X112656Y708504D03*
X107656Y708504D03*
D23*
X137406Y708504D03*
X129656Y708504D03*
D22*
X122656Y708504D03*
X117656Y708504D03*
D14*
X75184Y656472D03*
X75184Y673472D03*
X60452Y656472D03*
X60452Y673472D03*
D24*
X297180Y508466D03*
X297180Y496866D03*
D25*
X322214Y655066D03*
D26*
X369114Y698116D03*
X369114Y612016D03*
D24*
X283972Y619464D03*
X283972Y607864D03*
D27*
X312716Y589026D03*
X324316Y589026D03*
X297900Y589026D03*
X286300Y589026D03*
D10*
X483950Y582482D03*
X483950Y526482D03*
D11*
X520700Y569482D03*
X520700Y559482D03*
X520700Y549482D03*
X520700Y539482D03*
D10*
X863520Y526482D03*
X863520Y582482D03*
D11*
X826770Y539482D03*
X826770Y549482D03*
X826770Y559482D03*
X826770Y569482D03*
D12*
X580000Y543052D03*
X563000Y543052D03*
X580000Y527812D03*
X563000Y527812D03*
X563000Y512572D03*
X580000Y512572D03*
D13*
X572220Y437546D03*
D14*
X529844Y612784D03*
X529844Y629784D03*
X544576Y612784D03*
X544576Y629784D03*
D15*
X836224Y468186D02*
X843224Y468186D01*
X843224Y461186D01*
X836224Y461186D01*
X836224Y468186D01*
X836224Y464036D02*
X843224Y464036D01*
X843224Y466886D02*
X836224Y466886D01*
X836224Y485726D02*
X843224Y485726D01*
X843224Y478726D01*
X836224Y478726D01*
X836224Y485726D01*
X836224Y481576D02*
X843224Y481576D01*
X843224Y484426D02*
X836224Y484426D01*
D16*
X560000Y479552D03*
X583000Y479552D03*
D12*
X580000Y497332D03*
X563000Y497332D03*
X842400Y495046D03*
X859400Y495046D03*
X580000Y573532D03*
X563000Y573532D03*
X580000Y558292D03*
X563000Y558292D03*
D14*
X753872Y548522D03*
X753872Y565522D03*
D12*
X630800Y465582D03*
X613800Y465582D03*
D15*
X860354Y468186D02*
X867354Y468186D01*
X867354Y461186D01*
X860354Y461186D01*
X860354Y468186D01*
X860354Y464036D02*
X867354Y464036D01*
X867354Y466886D02*
X860354Y466886D01*
X860354Y485726D02*
X867354Y485726D01*
X867354Y478726D01*
X860354Y478726D01*
X860354Y485726D01*
X860354Y481576D02*
X867354Y481576D01*
X867354Y484426D02*
X860354Y484426D01*
D12*
X859400Y512572D03*
X842400Y512572D03*
D17*
X793543Y547522D03*
X793543Y557022D03*
X793543Y566522D03*
X767541Y566522D03*
X767541Y547522D03*
D14*
X807212Y565522D03*
X807212Y548522D03*
X562864Y649342D03*
X562864Y632342D03*
X581152Y649850D03*
X581152Y632850D03*
X639572Y724526D03*
X639572Y707526D03*
D18*
X740100Y490832D03*
D19*
X729600Y490832D03*
D18*
X740100Y501832D03*
D19*
X729600Y501832D03*
D18*
X740100Y512832D03*
D19*
X729600Y512832D03*
D18*
X740100Y523832D03*
D19*
X729600Y523832D03*
D18*
X740100Y534832D03*
D19*
X729600Y534832D03*
D18*
X740100Y545832D03*
D19*
X729600Y545832D03*
D18*
X740100Y556832D03*
D19*
X729600Y556832D03*
D18*
X740100Y586832D03*
D19*
X729600Y586832D03*
D18*
X740100Y597832D03*
D19*
X729600Y597832D03*
D18*
X740100Y608832D03*
D19*
X729600Y608832D03*
D18*
X740100Y619832D03*
D19*
X729600Y619832D03*
D18*
X740100Y630832D03*
D19*
X729600Y630832D03*
D18*
X606100Y556832D03*
D19*
X616600Y556832D03*
D18*
X606100Y545832D03*
D19*
X616600Y545832D03*
D18*
X606100Y534832D03*
D19*
X616600Y534832D03*
D18*
X606100Y523832D03*
D19*
X616600Y523832D03*
D18*
X606100Y512832D03*
D19*
X616600Y512832D03*
D18*
X606100Y501832D03*
D19*
X616600Y501832D03*
D18*
X606100Y490832D03*
D19*
X616600Y490832D03*
D18*
X606100Y630832D03*
D19*
X616600Y630832D03*
D18*
X606100Y619832D03*
D19*
X616600Y619832D03*
D18*
X606100Y608832D03*
D19*
X616600Y608832D03*
D18*
X606100Y597832D03*
D19*
X616600Y597832D03*
D18*
X606100Y586832D03*
D19*
X616600Y586832D03*
D20*
X574976Y669784D03*
D21*
X569976Y670034D03*
X564976Y670034D03*
X564976Y661434D03*
X569976Y661434D03*
X574976Y661434D03*
D22*
X567556Y708504D03*
X572556Y708504D03*
D23*
X542806Y708504D03*
X550556Y708504D03*
D22*
X557556Y708504D03*
X562556Y708504D03*
X582556Y708504D03*
X577556Y708504D03*
D23*
X607306Y708504D03*
X599556Y708504D03*
D22*
X592556Y708504D03*
X587556Y708504D03*
D14*
X545084Y656472D03*
X545084Y673472D03*
X530352Y656472D03*
X530352Y673472D03*
D24*
X767080Y508466D03*
X767080Y496866D03*
D25*
X792114Y655066D03*
D26*
X839014Y698116D03*
X839014Y612016D03*
D24*
X753872Y619464D03*
X753872Y607864D03*
D27*
X782616Y589026D03*
X794216Y589026D03*
X767800Y589026D03*
X756200Y589026D03*
D10*
X953850Y582482D03*
X953850Y526482D03*
D11*
X990600Y569482D03*
X990600Y559482D03*
X990600Y549482D03*
X990600Y539482D03*
D10*
X1333420Y526482D03*
X1333420Y582482D03*
D11*
X1296670Y539482D03*
X1296670Y549482D03*
X1296670Y559482D03*
X1296670Y569482D03*
D12*
X1049900Y543052D03*
X1032900Y543052D03*
X1049900Y527812D03*
X1032900Y527812D03*
X1032900Y512572D03*
X1049900Y512572D03*
D13*
X1042120Y437546D03*
D14*
X999744Y612784D03*
X999744Y629784D03*
X1014476Y612784D03*
X1014476Y629784D03*
D15*
X1306124Y468186D02*
X1313124Y468186D01*
X1313124Y461186D01*
X1306124Y461186D01*
X1306124Y468186D01*
X1306124Y464036D02*
X1313124Y464036D01*
X1313124Y466886D02*
X1306124Y466886D01*
X1306124Y485726D02*
X1313124Y485726D01*
X1313124Y478726D01*
X1306124Y478726D01*
X1306124Y485726D01*
X1306124Y481576D02*
X1313124Y481576D01*
X1313124Y484426D02*
X1306124Y484426D01*
D16*
X1029900Y479552D03*
X1052900Y479552D03*
D12*
X1049900Y497332D03*
X1032900Y497332D03*
X1312300Y495046D03*
X1329300Y495046D03*
X1049900Y573532D03*
X1032900Y573532D03*
X1049900Y558292D03*
X1032900Y558292D03*
D14*
X1223772Y548522D03*
X1223772Y565522D03*
D12*
X1100700Y465582D03*
X1083700Y465582D03*
D15*
X1330254Y468186D02*
X1337254Y468186D01*
X1337254Y461186D01*
X1330254Y461186D01*
X1330254Y468186D01*
X1330254Y464036D02*
X1337254Y464036D01*
X1337254Y466886D02*
X1330254Y466886D01*
X1330254Y485726D02*
X1337254Y485726D01*
X1337254Y478726D01*
X1330254Y478726D01*
X1330254Y485726D01*
X1330254Y481576D02*
X1337254Y481576D01*
X1337254Y484426D02*
X1330254Y484426D01*
D12*
X1329300Y512572D03*
X1312300Y512572D03*
D17*
X1263443Y547522D03*
X1263443Y557022D03*
X1263443Y566522D03*
X1237441Y566522D03*
X1237441Y547522D03*
D14*
X1277112Y565522D03*
X1277112Y548522D03*
X1032764Y649342D03*
X1032764Y632342D03*
X1051052Y649850D03*
X1051052Y632850D03*
X1109472Y724526D03*
X1109472Y707526D03*
D18*
X1210000Y490832D03*
D19*
X1199500Y490832D03*
D18*
X1210000Y501832D03*
D19*
X1199500Y501832D03*
D18*
X1210000Y512832D03*
D19*
X1199500Y512832D03*
D18*
X1210000Y523832D03*
D19*
X1199500Y523832D03*
D18*
X1210000Y534832D03*
D19*
X1199500Y534832D03*
D18*
X1210000Y545832D03*
D19*
X1199500Y545832D03*
D18*
X1210000Y556832D03*
D19*
X1199500Y556832D03*
D18*
X1210000Y586832D03*
D19*
X1199500Y586832D03*
D18*
X1210000Y597832D03*
D19*
X1199500Y597832D03*
D18*
X1210000Y608832D03*
D19*
X1199500Y608832D03*
D18*
X1210000Y619832D03*
D19*
X1199500Y619832D03*
D18*
X1210000Y630832D03*
D19*
X1199500Y630832D03*
D18*
X1076000Y556832D03*
D19*
X1086500Y556832D03*
D18*
X1076000Y545832D03*
D19*
X1086500Y545832D03*
D18*
X1076000Y534832D03*
D19*
X1086500Y534832D03*
D18*
X1076000Y523832D03*
D19*
X1086500Y523832D03*
D18*
X1076000Y512832D03*
D19*
X1086500Y512832D03*
D18*
X1076000Y501832D03*
D19*
X1086500Y501832D03*
D18*
X1076000Y490832D03*
D19*
X1086500Y490832D03*
D18*
X1076000Y630832D03*
D19*
X1086500Y630832D03*
D18*
X1076000Y619832D03*
D19*
X1086500Y619832D03*
D18*
X1076000Y608832D03*
D19*
X1086500Y608832D03*
D18*
X1076000Y597832D03*
D19*
X1086500Y597832D03*
D18*
X1076000Y586832D03*
D19*
X1086500Y586832D03*
D20*
X1044876Y669784D03*
D21*
X1039876Y670034D03*
X1034876Y670034D03*
X1034876Y661434D03*
X1039876Y661434D03*
X1044876Y661434D03*
D22*
X1037456Y708504D03*
X1042456Y708504D03*
D23*
X1012706Y708504D03*
X1020456Y708504D03*
D22*
X1027456Y708504D03*
X1032456Y708504D03*
X1052456Y708504D03*
X1047456Y708504D03*
D23*
X1077206Y708504D03*
X1069456Y708504D03*
D22*
X1062456Y708504D03*
X1057456Y708504D03*
D14*
X1014984Y656472D03*
X1014984Y673472D03*
X1000252Y656472D03*
X1000252Y673472D03*
D24*
X1236980Y508466D03*
X1236980Y496866D03*
D25*
X1262014Y655066D03*
D26*
X1308914Y698116D03*
X1308914Y612016D03*
D24*
X1223772Y619464D03*
X1223772Y607864D03*
D27*
X1252516Y589026D03*
X1264116Y589026D03*
X1237700Y589026D03*
X1226100Y589026D03*
M02*
