G04 EAGLE Gerber RS-274X export*
G75*
%MOMM*%
%FSLAX34Y34*%
%LPD*%
%INSoldermask Bottom*%
%IPPOS*%
%AMOC8*
5,1,8,0,0,1.08239X$1,22.5*%
G01*
%ADD10C,3.505200*%
%ADD11R,0.863600X1.473200*%
%ADD12C,0.838200*%
%ADD13R,0.838200X1.473200*%
%ADD14C,2.082800*%
%ADD15C,0.853200*%
%ADD16C,1.219200*%
%ADD17C,1.203200*%
%ADD18C,1.270000*%
%ADD19C,1.703200*%

G36*
X987490Y622439D02*
X987490Y622439D01*
X987556Y622441D01*
X987599Y622459D01*
X987646Y622467D01*
X987703Y622501D01*
X987763Y622526D01*
X987798Y622557D01*
X987839Y622582D01*
X987881Y622633D01*
X987929Y622677D01*
X987951Y622719D01*
X987980Y622756D01*
X988001Y622818D01*
X988032Y622877D01*
X988040Y622931D01*
X988052Y622968D01*
X988051Y623008D01*
X988059Y623062D01*
X988059Y625602D01*
X988048Y625667D01*
X988046Y625733D01*
X988028Y625776D01*
X988020Y625823D01*
X987986Y625880D01*
X987961Y625940D01*
X987930Y625975D01*
X987905Y626016D01*
X987854Y626058D01*
X987810Y626106D01*
X987768Y626128D01*
X987731Y626157D01*
X987669Y626178D01*
X987610Y626209D01*
X987556Y626217D01*
X987519Y626229D01*
X987479Y626228D01*
X987425Y626236D01*
X983615Y626236D01*
X983550Y626225D01*
X983484Y626223D01*
X983441Y626205D01*
X983394Y626197D01*
X983337Y626163D01*
X983277Y626138D01*
X983242Y626107D01*
X983201Y626082D01*
X983160Y626031D01*
X983111Y625987D01*
X983089Y625945D01*
X983060Y625908D01*
X983039Y625846D01*
X983008Y625787D01*
X983000Y625733D01*
X982988Y625696D01*
X982988Y625693D01*
X982989Y625656D01*
X982981Y625602D01*
X982981Y623062D01*
X982992Y622997D01*
X982994Y622931D01*
X983012Y622888D01*
X983020Y622841D01*
X983054Y622784D01*
X983079Y622724D01*
X983110Y622689D01*
X983135Y622648D01*
X983186Y622607D01*
X983230Y622558D01*
X983272Y622536D01*
X983309Y622507D01*
X983371Y622486D01*
X983430Y622455D01*
X983484Y622447D01*
X983521Y622435D01*
X983561Y622436D01*
X983615Y622428D01*
X987425Y622428D01*
X987490Y622439D01*
G37*
G36*
X47690Y622439D02*
X47690Y622439D01*
X47756Y622441D01*
X47799Y622459D01*
X47846Y622467D01*
X47903Y622501D01*
X47963Y622526D01*
X47998Y622557D01*
X48039Y622582D01*
X48081Y622633D01*
X48129Y622677D01*
X48151Y622719D01*
X48180Y622756D01*
X48201Y622818D01*
X48232Y622877D01*
X48240Y622931D01*
X48252Y622968D01*
X48251Y623008D01*
X48259Y623062D01*
X48259Y625602D01*
X48248Y625667D01*
X48246Y625733D01*
X48228Y625776D01*
X48220Y625823D01*
X48186Y625880D01*
X48161Y625940D01*
X48130Y625975D01*
X48105Y626016D01*
X48054Y626058D01*
X48010Y626106D01*
X47968Y626128D01*
X47931Y626157D01*
X47869Y626178D01*
X47810Y626209D01*
X47756Y626217D01*
X47719Y626229D01*
X47679Y626228D01*
X47625Y626236D01*
X43815Y626236D01*
X43750Y626225D01*
X43684Y626223D01*
X43641Y626205D01*
X43594Y626197D01*
X43537Y626163D01*
X43477Y626138D01*
X43442Y626107D01*
X43401Y626082D01*
X43360Y626031D01*
X43311Y625987D01*
X43289Y625945D01*
X43260Y625908D01*
X43239Y625846D01*
X43208Y625787D01*
X43200Y625733D01*
X43188Y625696D01*
X43188Y625693D01*
X43189Y625656D01*
X43181Y625602D01*
X43181Y623062D01*
X43192Y622997D01*
X43194Y622931D01*
X43212Y622888D01*
X43220Y622841D01*
X43254Y622784D01*
X43279Y622724D01*
X43310Y622689D01*
X43335Y622648D01*
X43386Y622607D01*
X43430Y622558D01*
X43472Y622536D01*
X43509Y622507D01*
X43571Y622486D01*
X43630Y622455D01*
X43684Y622447D01*
X43721Y622435D01*
X43761Y622436D01*
X43815Y622428D01*
X47625Y622428D01*
X47690Y622439D01*
G37*
G36*
X527750Y622439D02*
X527750Y622439D01*
X527816Y622441D01*
X527859Y622459D01*
X527906Y622467D01*
X527963Y622501D01*
X528023Y622526D01*
X528058Y622557D01*
X528099Y622582D01*
X528141Y622633D01*
X528189Y622677D01*
X528211Y622719D01*
X528240Y622756D01*
X528261Y622818D01*
X528292Y622877D01*
X528300Y622931D01*
X528312Y622968D01*
X528311Y623008D01*
X528319Y623062D01*
X528319Y625602D01*
X528308Y625667D01*
X528306Y625733D01*
X528288Y625776D01*
X528280Y625823D01*
X528246Y625880D01*
X528221Y625940D01*
X528190Y625975D01*
X528165Y626016D01*
X528114Y626058D01*
X528070Y626106D01*
X528028Y626128D01*
X527991Y626157D01*
X527929Y626178D01*
X527870Y626209D01*
X527816Y626217D01*
X527779Y626229D01*
X527739Y626228D01*
X527685Y626236D01*
X523875Y626236D01*
X523810Y626225D01*
X523744Y626223D01*
X523701Y626205D01*
X523654Y626197D01*
X523597Y626163D01*
X523537Y626138D01*
X523502Y626107D01*
X523461Y626082D01*
X523420Y626031D01*
X523371Y625987D01*
X523349Y625945D01*
X523320Y625908D01*
X523299Y625846D01*
X523268Y625787D01*
X523260Y625733D01*
X523248Y625696D01*
X523248Y625693D01*
X523249Y625656D01*
X523241Y625602D01*
X523241Y623062D01*
X523252Y622997D01*
X523254Y622931D01*
X523272Y622888D01*
X523280Y622841D01*
X523314Y622784D01*
X523339Y622724D01*
X523370Y622689D01*
X523395Y622648D01*
X523446Y622607D01*
X523490Y622558D01*
X523532Y622536D01*
X523569Y622507D01*
X523631Y622486D01*
X523690Y622455D01*
X523744Y622447D01*
X523781Y622435D01*
X523821Y622436D01*
X523875Y622428D01*
X527685Y622428D01*
X527750Y622439D01*
G37*
G36*
X57850Y622439D02*
X57850Y622439D01*
X57916Y622441D01*
X57959Y622459D01*
X58006Y622467D01*
X58063Y622501D01*
X58123Y622526D01*
X58158Y622557D01*
X58199Y622582D01*
X58241Y622633D01*
X58289Y622677D01*
X58311Y622719D01*
X58340Y622756D01*
X58361Y622818D01*
X58392Y622877D01*
X58400Y622931D01*
X58412Y622968D01*
X58411Y623008D01*
X58419Y623062D01*
X58419Y625602D01*
X58408Y625667D01*
X58406Y625733D01*
X58388Y625776D01*
X58380Y625823D01*
X58346Y625880D01*
X58321Y625940D01*
X58290Y625975D01*
X58265Y626016D01*
X58214Y626058D01*
X58170Y626106D01*
X58128Y626128D01*
X58091Y626157D01*
X58029Y626178D01*
X57970Y626209D01*
X57916Y626217D01*
X57879Y626229D01*
X57839Y626228D01*
X57785Y626236D01*
X53975Y626236D01*
X53910Y626225D01*
X53844Y626223D01*
X53801Y626205D01*
X53754Y626197D01*
X53697Y626163D01*
X53637Y626138D01*
X53602Y626107D01*
X53561Y626082D01*
X53520Y626031D01*
X53471Y625987D01*
X53449Y625945D01*
X53420Y625908D01*
X53399Y625846D01*
X53368Y625787D01*
X53360Y625733D01*
X53348Y625696D01*
X53348Y625693D01*
X53349Y625656D01*
X53341Y625602D01*
X53341Y623062D01*
X53352Y622997D01*
X53354Y622931D01*
X53372Y622888D01*
X53380Y622841D01*
X53414Y622784D01*
X53439Y622724D01*
X53470Y622689D01*
X53495Y622648D01*
X53546Y622607D01*
X53590Y622558D01*
X53632Y622536D01*
X53669Y622507D01*
X53731Y622486D01*
X53790Y622455D01*
X53844Y622447D01*
X53881Y622435D01*
X53921Y622436D01*
X53975Y622428D01*
X57785Y622428D01*
X57850Y622439D01*
G37*
G36*
X997650Y622439D02*
X997650Y622439D01*
X997716Y622441D01*
X997759Y622459D01*
X997806Y622467D01*
X997863Y622501D01*
X997923Y622526D01*
X997958Y622557D01*
X997999Y622582D01*
X998041Y622633D01*
X998089Y622677D01*
X998111Y622719D01*
X998140Y622756D01*
X998161Y622818D01*
X998192Y622877D01*
X998200Y622931D01*
X998212Y622968D01*
X998211Y623008D01*
X998219Y623062D01*
X998219Y625602D01*
X998208Y625667D01*
X998206Y625733D01*
X998188Y625776D01*
X998180Y625823D01*
X998146Y625880D01*
X998121Y625940D01*
X998090Y625975D01*
X998065Y626016D01*
X998014Y626058D01*
X997970Y626106D01*
X997928Y626128D01*
X997891Y626157D01*
X997829Y626178D01*
X997770Y626209D01*
X997716Y626217D01*
X997679Y626229D01*
X997639Y626228D01*
X997585Y626236D01*
X993775Y626236D01*
X993710Y626225D01*
X993644Y626223D01*
X993601Y626205D01*
X993554Y626197D01*
X993497Y626163D01*
X993437Y626138D01*
X993402Y626107D01*
X993361Y626082D01*
X993320Y626031D01*
X993271Y625987D01*
X993249Y625945D01*
X993220Y625908D01*
X993199Y625846D01*
X993168Y625787D01*
X993160Y625733D01*
X993148Y625696D01*
X993148Y625693D01*
X993149Y625656D01*
X993141Y625602D01*
X993141Y623062D01*
X993152Y622997D01*
X993154Y622931D01*
X993172Y622888D01*
X993180Y622841D01*
X993214Y622784D01*
X993239Y622724D01*
X993270Y622689D01*
X993295Y622648D01*
X993346Y622607D01*
X993390Y622558D01*
X993432Y622536D01*
X993469Y622507D01*
X993531Y622486D01*
X993590Y622455D01*
X993644Y622447D01*
X993681Y622435D01*
X993721Y622436D01*
X993775Y622428D01*
X997585Y622428D01*
X997650Y622439D01*
G37*
G36*
X517590Y622439D02*
X517590Y622439D01*
X517656Y622441D01*
X517699Y622459D01*
X517746Y622467D01*
X517803Y622501D01*
X517863Y622526D01*
X517898Y622557D01*
X517939Y622582D01*
X517981Y622633D01*
X518029Y622677D01*
X518051Y622719D01*
X518080Y622756D01*
X518101Y622818D01*
X518132Y622877D01*
X518140Y622931D01*
X518152Y622968D01*
X518151Y623008D01*
X518159Y623062D01*
X518159Y625602D01*
X518148Y625667D01*
X518146Y625733D01*
X518128Y625776D01*
X518120Y625823D01*
X518086Y625880D01*
X518061Y625940D01*
X518030Y625975D01*
X518005Y626016D01*
X517954Y626058D01*
X517910Y626106D01*
X517868Y626128D01*
X517831Y626157D01*
X517769Y626178D01*
X517710Y626209D01*
X517656Y626217D01*
X517619Y626229D01*
X517579Y626228D01*
X517525Y626236D01*
X513715Y626236D01*
X513650Y626225D01*
X513584Y626223D01*
X513541Y626205D01*
X513494Y626197D01*
X513437Y626163D01*
X513377Y626138D01*
X513342Y626107D01*
X513301Y626082D01*
X513260Y626031D01*
X513211Y625987D01*
X513189Y625945D01*
X513160Y625908D01*
X513139Y625846D01*
X513108Y625787D01*
X513100Y625733D01*
X513088Y625696D01*
X513088Y625693D01*
X513089Y625656D01*
X513081Y625602D01*
X513081Y623062D01*
X513092Y622997D01*
X513094Y622931D01*
X513112Y622888D01*
X513120Y622841D01*
X513154Y622784D01*
X513179Y622724D01*
X513210Y622689D01*
X513235Y622648D01*
X513286Y622607D01*
X513330Y622558D01*
X513372Y622536D01*
X513409Y622507D01*
X513471Y622486D01*
X513530Y622455D01*
X513584Y622447D01*
X513621Y622435D01*
X513661Y622436D01*
X513715Y622428D01*
X517525Y622428D01*
X517590Y622439D01*
G37*
G36*
X1289750Y515759D02*
X1289750Y515759D01*
X1289816Y515761D01*
X1289859Y515779D01*
X1289906Y515787D01*
X1289963Y515821D01*
X1290023Y515846D01*
X1290058Y515877D01*
X1290099Y515902D01*
X1290141Y515953D01*
X1290189Y515997D01*
X1290211Y516039D01*
X1290240Y516076D01*
X1290261Y516138D01*
X1290292Y516197D01*
X1290300Y516251D01*
X1290312Y516288D01*
X1290311Y516328D01*
X1290319Y516382D01*
X1290319Y518922D01*
X1290308Y518987D01*
X1290306Y519053D01*
X1290288Y519096D01*
X1290280Y519143D01*
X1290246Y519200D01*
X1290221Y519260D01*
X1290190Y519295D01*
X1290165Y519336D01*
X1290114Y519378D01*
X1290070Y519426D01*
X1290028Y519448D01*
X1289991Y519477D01*
X1289929Y519498D01*
X1289870Y519529D01*
X1289816Y519537D01*
X1289779Y519549D01*
X1289739Y519548D01*
X1289685Y519556D01*
X1285875Y519556D01*
X1285810Y519545D01*
X1285744Y519543D01*
X1285701Y519525D01*
X1285654Y519517D01*
X1285597Y519483D01*
X1285537Y519458D01*
X1285502Y519427D01*
X1285461Y519402D01*
X1285420Y519351D01*
X1285371Y519307D01*
X1285349Y519265D01*
X1285320Y519228D01*
X1285299Y519166D01*
X1285268Y519107D01*
X1285260Y519053D01*
X1285248Y519016D01*
X1285248Y519013D01*
X1285249Y518976D01*
X1285241Y518922D01*
X1285241Y516382D01*
X1285252Y516317D01*
X1285254Y516251D01*
X1285272Y516208D01*
X1285280Y516161D01*
X1285314Y516104D01*
X1285339Y516044D01*
X1285370Y516009D01*
X1285395Y515968D01*
X1285446Y515927D01*
X1285490Y515878D01*
X1285532Y515856D01*
X1285569Y515827D01*
X1285631Y515806D01*
X1285690Y515775D01*
X1285744Y515767D01*
X1285781Y515755D01*
X1285821Y515756D01*
X1285875Y515748D01*
X1289685Y515748D01*
X1289750Y515759D01*
G37*
G36*
X349950Y515759D02*
X349950Y515759D01*
X350016Y515761D01*
X350059Y515779D01*
X350106Y515787D01*
X350163Y515821D01*
X350223Y515846D01*
X350258Y515877D01*
X350299Y515902D01*
X350341Y515953D01*
X350389Y515997D01*
X350411Y516039D01*
X350440Y516076D01*
X350461Y516138D01*
X350492Y516197D01*
X350500Y516251D01*
X350512Y516288D01*
X350511Y516328D01*
X350519Y516382D01*
X350519Y518922D01*
X350508Y518987D01*
X350506Y519053D01*
X350488Y519096D01*
X350480Y519143D01*
X350446Y519200D01*
X350421Y519260D01*
X350390Y519295D01*
X350365Y519336D01*
X350314Y519378D01*
X350270Y519426D01*
X350228Y519448D01*
X350191Y519477D01*
X350129Y519498D01*
X350070Y519529D01*
X350016Y519537D01*
X349979Y519549D01*
X349939Y519548D01*
X349885Y519556D01*
X346075Y519556D01*
X346010Y519545D01*
X345944Y519543D01*
X345901Y519525D01*
X345854Y519517D01*
X345797Y519483D01*
X345737Y519458D01*
X345702Y519427D01*
X345661Y519402D01*
X345620Y519351D01*
X345571Y519307D01*
X345549Y519265D01*
X345520Y519228D01*
X345499Y519166D01*
X345468Y519107D01*
X345460Y519053D01*
X345448Y519016D01*
X345448Y519013D01*
X345449Y518976D01*
X345441Y518922D01*
X345441Y516382D01*
X345452Y516317D01*
X345454Y516251D01*
X345472Y516208D01*
X345480Y516161D01*
X345514Y516104D01*
X345539Y516044D01*
X345570Y516009D01*
X345595Y515968D01*
X345646Y515927D01*
X345690Y515878D01*
X345732Y515856D01*
X345769Y515827D01*
X345831Y515806D01*
X345890Y515775D01*
X345944Y515767D01*
X345981Y515755D01*
X346021Y515756D01*
X346075Y515748D01*
X349885Y515748D01*
X349950Y515759D01*
G37*
G36*
X819850Y515759D02*
X819850Y515759D01*
X819916Y515761D01*
X819959Y515779D01*
X820006Y515787D01*
X820063Y515821D01*
X820123Y515846D01*
X820158Y515877D01*
X820199Y515902D01*
X820241Y515953D01*
X820289Y515997D01*
X820311Y516039D01*
X820340Y516076D01*
X820361Y516138D01*
X820392Y516197D01*
X820400Y516251D01*
X820412Y516288D01*
X820411Y516328D01*
X820419Y516382D01*
X820419Y518922D01*
X820408Y518987D01*
X820406Y519053D01*
X820388Y519096D01*
X820380Y519143D01*
X820346Y519200D01*
X820321Y519260D01*
X820290Y519295D01*
X820265Y519336D01*
X820214Y519378D01*
X820170Y519426D01*
X820128Y519448D01*
X820091Y519477D01*
X820029Y519498D01*
X819970Y519529D01*
X819916Y519537D01*
X819879Y519549D01*
X819839Y519548D01*
X819785Y519556D01*
X815975Y519556D01*
X815910Y519545D01*
X815844Y519543D01*
X815801Y519525D01*
X815754Y519517D01*
X815697Y519483D01*
X815637Y519458D01*
X815602Y519427D01*
X815561Y519402D01*
X815520Y519351D01*
X815471Y519307D01*
X815449Y519265D01*
X815420Y519228D01*
X815399Y519166D01*
X815368Y519107D01*
X815360Y519053D01*
X815348Y519016D01*
X815348Y519013D01*
X815349Y518976D01*
X815341Y518922D01*
X815341Y516382D01*
X815352Y516317D01*
X815354Y516251D01*
X815372Y516208D01*
X815380Y516161D01*
X815414Y516104D01*
X815439Y516044D01*
X815470Y516009D01*
X815495Y515968D01*
X815546Y515927D01*
X815590Y515878D01*
X815632Y515856D01*
X815669Y515827D01*
X815731Y515806D01*
X815790Y515775D01*
X815844Y515767D01*
X815881Y515755D01*
X815921Y515756D01*
X815975Y515748D01*
X819785Y515748D01*
X819850Y515759D01*
G37*
G36*
X1290004Y492899D02*
X1290004Y492899D01*
X1290070Y492901D01*
X1290113Y492919D01*
X1290160Y492927D01*
X1290217Y492961D01*
X1290277Y492986D01*
X1290312Y493017D01*
X1290353Y493042D01*
X1290395Y493093D01*
X1290443Y493137D01*
X1290465Y493179D01*
X1290494Y493216D01*
X1290515Y493278D01*
X1290546Y493337D01*
X1290554Y493391D01*
X1290566Y493428D01*
X1290565Y493468D01*
X1290573Y493522D01*
X1290573Y496062D01*
X1290562Y496127D01*
X1290560Y496193D01*
X1290542Y496236D01*
X1290534Y496283D01*
X1290500Y496340D01*
X1290475Y496400D01*
X1290444Y496435D01*
X1290419Y496476D01*
X1290368Y496518D01*
X1290324Y496566D01*
X1290282Y496588D01*
X1290245Y496617D01*
X1290183Y496638D01*
X1290124Y496669D01*
X1290070Y496677D01*
X1290033Y496689D01*
X1289993Y496688D01*
X1289939Y496696D01*
X1286129Y496696D01*
X1286064Y496685D01*
X1285998Y496683D01*
X1285955Y496665D01*
X1285908Y496657D01*
X1285851Y496623D01*
X1285791Y496598D01*
X1285756Y496567D01*
X1285715Y496542D01*
X1285674Y496491D01*
X1285625Y496447D01*
X1285603Y496405D01*
X1285574Y496368D01*
X1285553Y496306D01*
X1285522Y496247D01*
X1285514Y496193D01*
X1285502Y496156D01*
X1285502Y496153D01*
X1285503Y496116D01*
X1285495Y496062D01*
X1285495Y493522D01*
X1285506Y493457D01*
X1285508Y493391D01*
X1285526Y493348D01*
X1285534Y493301D01*
X1285568Y493244D01*
X1285593Y493184D01*
X1285624Y493149D01*
X1285649Y493108D01*
X1285700Y493067D01*
X1285744Y493018D01*
X1285786Y492996D01*
X1285823Y492967D01*
X1285885Y492946D01*
X1285944Y492915D01*
X1285998Y492907D01*
X1286035Y492895D01*
X1286075Y492896D01*
X1286129Y492888D01*
X1289939Y492888D01*
X1290004Y492899D01*
G37*
G36*
X350204Y492899D02*
X350204Y492899D01*
X350270Y492901D01*
X350313Y492919D01*
X350360Y492927D01*
X350417Y492961D01*
X350477Y492986D01*
X350512Y493017D01*
X350553Y493042D01*
X350595Y493093D01*
X350643Y493137D01*
X350665Y493179D01*
X350694Y493216D01*
X350715Y493278D01*
X350746Y493337D01*
X350754Y493391D01*
X350766Y493428D01*
X350765Y493468D01*
X350773Y493522D01*
X350773Y496062D01*
X350762Y496127D01*
X350760Y496193D01*
X350742Y496236D01*
X350734Y496283D01*
X350700Y496340D01*
X350675Y496400D01*
X350644Y496435D01*
X350619Y496476D01*
X350568Y496518D01*
X350524Y496566D01*
X350482Y496588D01*
X350445Y496617D01*
X350383Y496638D01*
X350324Y496669D01*
X350270Y496677D01*
X350233Y496689D01*
X350193Y496688D01*
X350139Y496696D01*
X346329Y496696D01*
X346264Y496685D01*
X346198Y496683D01*
X346155Y496665D01*
X346108Y496657D01*
X346051Y496623D01*
X345991Y496598D01*
X345956Y496567D01*
X345915Y496542D01*
X345874Y496491D01*
X345825Y496447D01*
X345803Y496405D01*
X345774Y496368D01*
X345753Y496306D01*
X345722Y496247D01*
X345714Y496193D01*
X345702Y496156D01*
X345702Y496153D01*
X345703Y496116D01*
X345695Y496062D01*
X345695Y493522D01*
X345706Y493457D01*
X345708Y493391D01*
X345726Y493348D01*
X345734Y493301D01*
X345768Y493244D01*
X345793Y493184D01*
X345824Y493149D01*
X345849Y493108D01*
X345900Y493067D01*
X345944Y493018D01*
X345986Y492996D01*
X346023Y492967D01*
X346085Y492946D01*
X346144Y492915D01*
X346198Y492907D01*
X346235Y492895D01*
X346275Y492896D01*
X346329Y492888D01*
X350139Y492888D01*
X350204Y492899D01*
G37*
G36*
X820104Y492899D02*
X820104Y492899D01*
X820170Y492901D01*
X820213Y492919D01*
X820260Y492927D01*
X820317Y492961D01*
X820377Y492986D01*
X820412Y493017D01*
X820453Y493042D01*
X820495Y493093D01*
X820543Y493137D01*
X820565Y493179D01*
X820594Y493216D01*
X820615Y493278D01*
X820646Y493337D01*
X820654Y493391D01*
X820666Y493428D01*
X820665Y493468D01*
X820673Y493522D01*
X820673Y496062D01*
X820662Y496127D01*
X820660Y496193D01*
X820642Y496236D01*
X820634Y496283D01*
X820600Y496340D01*
X820575Y496400D01*
X820544Y496435D01*
X820519Y496476D01*
X820468Y496518D01*
X820424Y496566D01*
X820382Y496588D01*
X820345Y496617D01*
X820283Y496638D01*
X820224Y496669D01*
X820170Y496677D01*
X820133Y496689D01*
X820093Y496688D01*
X820039Y496696D01*
X816229Y496696D01*
X816164Y496685D01*
X816098Y496683D01*
X816055Y496665D01*
X816008Y496657D01*
X815951Y496623D01*
X815891Y496598D01*
X815856Y496567D01*
X815815Y496542D01*
X815774Y496491D01*
X815725Y496447D01*
X815703Y496405D01*
X815674Y496368D01*
X815653Y496306D01*
X815622Y496247D01*
X815614Y496193D01*
X815602Y496156D01*
X815602Y496153D01*
X815603Y496116D01*
X815595Y496062D01*
X815595Y493522D01*
X815606Y493457D01*
X815608Y493391D01*
X815626Y493348D01*
X815634Y493301D01*
X815668Y493244D01*
X815693Y493184D01*
X815724Y493149D01*
X815749Y493108D01*
X815800Y493067D01*
X815844Y493018D01*
X815886Y492996D01*
X815923Y492967D01*
X815985Y492946D01*
X816044Y492915D01*
X816098Y492907D01*
X816135Y492895D01*
X816175Y492896D01*
X816229Y492888D01*
X820039Y492888D01*
X820104Y492899D01*
G37*
G36*
X987490Y223913D02*
X987490Y223913D01*
X987556Y223915D01*
X987599Y223933D01*
X987646Y223941D01*
X987703Y223975D01*
X987763Y224000D01*
X987798Y224031D01*
X987839Y224056D01*
X987881Y224107D01*
X987929Y224151D01*
X987951Y224193D01*
X987980Y224230D01*
X988001Y224292D01*
X988032Y224351D01*
X988040Y224405D01*
X988052Y224442D01*
X988051Y224482D01*
X988059Y224536D01*
X988059Y227076D01*
X988048Y227141D01*
X988046Y227207D01*
X988028Y227250D01*
X988020Y227297D01*
X987986Y227354D01*
X987961Y227414D01*
X987930Y227449D01*
X987905Y227490D01*
X987854Y227532D01*
X987810Y227580D01*
X987768Y227602D01*
X987731Y227631D01*
X987669Y227652D01*
X987610Y227683D01*
X987556Y227691D01*
X987519Y227703D01*
X987479Y227702D01*
X987425Y227710D01*
X983615Y227710D01*
X983550Y227699D01*
X983484Y227697D01*
X983441Y227679D01*
X983394Y227671D01*
X983337Y227637D01*
X983277Y227612D01*
X983242Y227581D01*
X983201Y227556D01*
X983160Y227505D01*
X983111Y227461D01*
X983089Y227419D01*
X983060Y227382D01*
X983039Y227320D01*
X983008Y227261D01*
X983000Y227207D01*
X982988Y227170D01*
X982988Y227167D01*
X982989Y227130D01*
X982981Y227076D01*
X982981Y224536D01*
X982992Y224471D01*
X982994Y224405D01*
X983012Y224362D01*
X983020Y224315D01*
X983054Y224258D01*
X983079Y224198D01*
X983110Y224163D01*
X983135Y224122D01*
X983186Y224081D01*
X983230Y224032D01*
X983272Y224010D01*
X983309Y223981D01*
X983371Y223960D01*
X983430Y223929D01*
X983484Y223921D01*
X983521Y223909D01*
X983561Y223910D01*
X983615Y223902D01*
X987425Y223902D01*
X987490Y223913D01*
G37*
G36*
X997650Y223913D02*
X997650Y223913D01*
X997716Y223915D01*
X997759Y223933D01*
X997806Y223941D01*
X997863Y223975D01*
X997923Y224000D01*
X997958Y224031D01*
X997999Y224056D01*
X998041Y224107D01*
X998089Y224151D01*
X998111Y224193D01*
X998140Y224230D01*
X998161Y224292D01*
X998192Y224351D01*
X998200Y224405D01*
X998212Y224442D01*
X998211Y224482D01*
X998219Y224536D01*
X998219Y227076D01*
X998208Y227141D01*
X998206Y227207D01*
X998188Y227250D01*
X998180Y227297D01*
X998146Y227354D01*
X998121Y227414D01*
X998090Y227449D01*
X998065Y227490D01*
X998014Y227532D01*
X997970Y227580D01*
X997928Y227602D01*
X997891Y227631D01*
X997829Y227652D01*
X997770Y227683D01*
X997716Y227691D01*
X997679Y227703D01*
X997639Y227702D01*
X997585Y227710D01*
X993775Y227710D01*
X993710Y227699D01*
X993644Y227697D01*
X993601Y227679D01*
X993554Y227671D01*
X993497Y227637D01*
X993437Y227612D01*
X993402Y227581D01*
X993361Y227556D01*
X993320Y227505D01*
X993271Y227461D01*
X993249Y227419D01*
X993220Y227382D01*
X993199Y227320D01*
X993168Y227261D01*
X993160Y227207D01*
X993148Y227170D01*
X993148Y227167D01*
X993149Y227130D01*
X993141Y227076D01*
X993141Y224536D01*
X993152Y224471D01*
X993154Y224405D01*
X993172Y224362D01*
X993180Y224315D01*
X993214Y224258D01*
X993239Y224198D01*
X993270Y224163D01*
X993295Y224122D01*
X993346Y224081D01*
X993390Y224032D01*
X993432Y224010D01*
X993469Y223981D01*
X993531Y223960D01*
X993590Y223929D01*
X993644Y223921D01*
X993681Y223909D01*
X993721Y223910D01*
X993775Y223902D01*
X997585Y223902D01*
X997650Y223913D01*
G37*
G36*
X527750Y223913D02*
X527750Y223913D01*
X527816Y223915D01*
X527859Y223933D01*
X527906Y223941D01*
X527963Y223975D01*
X528023Y224000D01*
X528058Y224031D01*
X528099Y224056D01*
X528141Y224107D01*
X528189Y224151D01*
X528211Y224193D01*
X528240Y224230D01*
X528261Y224292D01*
X528292Y224351D01*
X528300Y224405D01*
X528312Y224442D01*
X528311Y224482D01*
X528319Y224536D01*
X528319Y227076D01*
X528308Y227141D01*
X528306Y227207D01*
X528288Y227250D01*
X528280Y227297D01*
X528246Y227354D01*
X528221Y227414D01*
X528190Y227449D01*
X528165Y227490D01*
X528114Y227532D01*
X528070Y227580D01*
X528028Y227602D01*
X527991Y227631D01*
X527929Y227652D01*
X527870Y227683D01*
X527816Y227691D01*
X527779Y227703D01*
X527739Y227702D01*
X527685Y227710D01*
X523875Y227710D01*
X523810Y227699D01*
X523744Y227697D01*
X523701Y227679D01*
X523654Y227671D01*
X523597Y227637D01*
X523537Y227612D01*
X523502Y227581D01*
X523461Y227556D01*
X523420Y227505D01*
X523371Y227461D01*
X523349Y227419D01*
X523320Y227382D01*
X523299Y227320D01*
X523268Y227261D01*
X523260Y227207D01*
X523248Y227170D01*
X523248Y227167D01*
X523249Y227130D01*
X523241Y227076D01*
X523241Y224536D01*
X523252Y224471D01*
X523254Y224405D01*
X523272Y224362D01*
X523280Y224315D01*
X523314Y224258D01*
X523339Y224198D01*
X523370Y224163D01*
X523395Y224122D01*
X523446Y224081D01*
X523490Y224032D01*
X523532Y224010D01*
X523569Y223981D01*
X523631Y223960D01*
X523690Y223929D01*
X523744Y223921D01*
X523781Y223909D01*
X523821Y223910D01*
X523875Y223902D01*
X527685Y223902D01*
X527750Y223913D01*
G37*
G36*
X517590Y223913D02*
X517590Y223913D01*
X517656Y223915D01*
X517699Y223933D01*
X517746Y223941D01*
X517803Y223975D01*
X517863Y224000D01*
X517898Y224031D01*
X517939Y224056D01*
X517981Y224107D01*
X518029Y224151D01*
X518051Y224193D01*
X518080Y224230D01*
X518101Y224292D01*
X518132Y224351D01*
X518140Y224405D01*
X518152Y224442D01*
X518151Y224482D01*
X518159Y224536D01*
X518159Y227076D01*
X518148Y227141D01*
X518146Y227207D01*
X518128Y227250D01*
X518120Y227297D01*
X518086Y227354D01*
X518061Y227414D01*
X518030Y227449D01*
X518005Y227490D01*
X517954Y227532D01*
X517910Y227580D01*
X517868Y227602D01*
X517831Y227631D01*
X517769Y227652D01*
X517710Y227683D01*
X517656Y227691D01*
X517619Y227703D01*
X517579Y227702D01*
X517525Y227710D01*
X513715Y227710D01*
X513650Y227699D01*
X513584Y227697D01*
X513541Y227679D01*
X513494Y227671D01*
X513437Y227637D01*
X513377Y227612D01*
X513342Y227581D01*
X513301Y227556D01*
X513260Y227505D01*
X513211Y227461D01*
X513189Y227419D01*
X513160Y227382D01*
X513139Y227320D01*
X513108Y227261D01*
X513100Y227207D01*
X513088Y227170D01*
X513088Y227167D01*
X513089Y227130D01*
X513081Y227076D01*
X513081Y224536D01*
X513092Y224471D01*
X513094Y224405D01*
X513112Y224362D01*
X513120Y224315D01*
X513154Y224258D01*
X513179Y224198D01*
X513210Y224163D01*
X513235Y224122D01*
X513286Y224081D01*
X513330Y224032D01*
X513372Y224010D01*
X513409Y223981D01*
X513471Y223960D01*
X513530Y223929D01*
X513584Y223921D01*
X513621Y223909D01*
X513661Y223910D01*
X513715Y223902D01*
X517525Y223902D01*
X517590Y223913D01*
G37*
G36*
X57850Y223913D02*
X57850Y223913D01*
X57916Y223915D01*
X57959Y223933D01*
X58006Y223941D01*
X58063Y223975D01*
X58123Y224000D01*
X58158Y224031D01*
X58199Y224056D01*
X58241Y224107D01*
X58289Y224151D01*
X58311Y224193D01*
X58340Y224230D01*
X58361Y224292D01*
X58392Y224351D01*
X58400Y224405D01*
X58412Y224442D01*
X58411Y224482D01*
X58419Y224536D01*
X58419Y227076D01*
X58408Y227141D01*
X58406Y227207D01*
X58388Y227250D01*
X58380Y227297D01*
X58346Y227354D01*
X58321Y227414D01*
X58290Y227449D01*
X58265Y227490D01*
X58214Y227532D01*
X58170Y227580D01*
X58128Y227602D01*
X58091Y227631D01*
X58029Y227652D01*
X57970Y227683D01*
X57916Y227691D01*
X57879Y227703D01*
X57839Y227702D01*
X57785Y227710D01*
X53975Y227710D01*
X53910Y227699D01*
X53844Y227697D01*
X53801Y227679D01*
X53754Y227671D01*
X53697Y227637D01*
X53637Y227612D01*
X53602Y227581D01*
X53561Y227556D01*
X53520Y227505D01*
X53471Y227461D01*
X53449Y227419D01*
X53420Y227382D01*
X53399Y227320D01*
X53368Y227261D01*
X53360Y227207D01*
X53348Y227170D01*
X53348Y227167D01*
X53349Y227130D01*
X53341Y227076D01*
X53341Y224536D01*
X53352Y224471D01*
X53354Y224405D01*
X53372Y224362D01*
X53380Y224315D01*
X53414Y224258D01*
X53439Y224198D01*
X53470Y224163D01*
X53495Y224122D01*
X53546Y224081D01*
X53590Y224032D01*
X53632Y224010D01*
X53669Y223981D01*
X53731Y223960D01*
X53790Y223929D01*
X53844Y223921D01*
X53881Y223909D01*
X53921Y223910D01*
X53975Y223902D01*
X57785Y223902D01*
X57850Y223913D01*
G37*
G36*
X47690Y223913D02*
X47690Y223913D01*
X47756Y223915D01*
X47799Y223933D01*
X47846Y223941D01*
X47903Y223975D01*
X47963Y224000D01*
X47998Y224031D01*
X48039Y224056D01*
X48081Y224107D01*
X48129Y224151D01*
X48151Y224193D01*
X48180Y224230D01*
X48201Y224292D01*
X48232Y224351D01*
X48240Y224405D01*
X48252Y224442D01*
X48251Y224482D01*
X48259Y224536D01*
X48259Y227076D01*
X48248Y227141D01*
X48246Y227207D01*
X48228Y227250D01*
X48220Y227297D01*
X48186Y227354D01*
X48161Y227414D01*
X48130Y227449D01*
X48105Y227490D01*
X48054Y227532D01*
X48010Y227580D01*
X47968Y227602D01*
X47931Y227631D01*
X47869Y227652D01*
X47810Y227683D01*
X47756Y227691D01*
X47719Y227703D01*
X47679Y227702D01*
X47625Y227710D01*
X43815Y227710D01*
X43750Y227699D01*
X43684Y227697D01*
X43641Y227679D01*
X43594Y227671D01*
X43537Y227637D01*
X43477Y227612D01*
X43442Y227581D01*
X43401Y227556D01*
X43360Y227505D01*
X43311Y227461D01*
X43289Y227419D01*
X43260Y227382D01*
X43239Y227320D01*
X43208Y227261D01*
X43200Y227207D01*
X43188Y227170D01*
X43188Y227167D01*
X43189Y227130D01*
X43181Y227076D01*
X43181Y224536D01*
X43192Y224471D01*
X43194Y224405D01*
X43212Y224362D01*
X43220Y224315D01*
X43254Y224258D01*
X43279Y224198D01*
X43310Y224163D01*
X43335Y224122D01*
X43386Y224081D01*
X43430Y224032D01*
X43472Y224010D01*
X43509Y223981D01*
X43571Y223960D01*
X43630Y223929D01*
X43684Y223921D01*
X43721Y223909D01*
X43761Y223910D01*
X43815Y223902D01*
X47625Y223902D01*
X47690Y223913D01*
G37*
G36*
X1289750Y117233D02*
X1289750Y117233D01*
X1289816Y117235D01*
X1289859Y117253D01*
X1289906Y117261D01*
X1289963Y117295D01*
X1290023Y117320D01*
X1290058Y117351D01*
X1290099Y117376D01*
X1290141Y117427D01*
X1290189Y117471D01*
X1290211Y117513D01*
X1290240Y117550D01*
X1290261Y117612D01*
X1290292Y117671D01*
X1290300Y117725D01*
X1290312Y117762D01*
X1290311Y117802D01*
X1290319Y117856D01*
X1290319Y120396D01*
X1290308Y120461D01*
X1290306Y120527D01*
X1290288Y120570D01*
X1290280Y120617D01*
X1290246Y120674D01*
X1290221Y120734D01*
X1290190Y120769D01*
X1290165Y120810D01*
X1290114Y120852D01*
X1290070Y120900D01*
X1290028Y120922D01*
X1289991Y120951D01*
X1289929Y120972D01*
X1289870Y121003D01*
X1289816Y121011D01*
X1289779Y121023D01*
X1289739Y121022D01*
X1289685Y121030D01*
X1285875Y121030D01*
X1285810Y121019D01*
X1285744Y121017D01*
X1285701Y120999D01*
X1285654Y120991D01*
X1285597Y120957D01*
X1285537Y120932D01*
X1285502Y120901D01*
X1285461Y120876D01*
X1285420Y120825D01*
X1285371Y120781D01*
X1285349Y120739D01*
X1285320Y120702D01*
X1285299Y120640D01*
X1285268Y120581D01*
X1285260Y120527D01*
X1285248Y120490D01*
X1285248Y120487D01*
X1285249Y120450D01*
X1285241Y120396D01*
X1285241Y117856D01*
X1285252Y117791D01*
X1285254Y117725D01*
X1285272Y117682D01*
X1285280Y117635D01*
X1285314Y117578D01*
X1285339Y117518D01*
X1285370Y117483D01*
X1285395Y117442D01*
X1285446Y117401D01*
X1285490Y117352D01*
X1285532Y117330D01*
X1285569Y117301D01*
X1285631Y117280D01*
X1285690Y117249D01*
X1285744Y117241D01*
X1285781Y117229D01*
X1285821Y117230D01*
X1285875Y117222D01*
X1289685Y117222D01*
X1289750Y117233D01*
G37*
G36*
X349950Y117233D02*
X349950Y117233D01*
X350016Y117235D01*
X350059Y117253D01*
X350106Y117261D01*
X350163Y117295D01*
X350223Y117320D01*
X350258Y117351D01*
X350299Y117376D01*
X350341Y117427D01*
X350389Y117471D01*
X350411Y117513D01*
X350440Y117550D01*
X350461Y117612D01*
X350492Y117671D01*
X350500Y117725D01*
X350512Y117762D01*
X350511Y117802D01*
X350519Y117856D01*
X350519Y120396D01*
X350508Y120461D01*
X350506Y120527D01*
X350488Y120570D01*
X350480Y120617D01*
X350446Y120674D01*
X350421Y120734D01*
X350390Y120769D01*
X350365Y120810D01*
X350314Y120852D01*
X350270Y120900D01*
X350228Y120922D01*
X350191Y120951D01*
X350129Y120972D01*
X350070Y121003D01*
X350016Y121011D01*
X349979Y121023D01*
X349939Y121022D01*
X349885Y121030D01*
X346075Y121030D01*
X346010Y121019D01*
X345944Y121017D01*
X345901Y120999D01*
X345854Y120991D01*
X345797Y120957D01*
X345737Y120932D01*
X345702Y120901D01*
X345661Y120876D01*
X345620Y120825D01*
X345571Y120781D01*
X345549Y120739D01*
X345520Y120702D01*
X345499Y120640D01*
X345468Y120581D01*
X345460Y120527D01*
X345448Y120490D01*
X345448Y120487D01*
X345449Y120450D01*
X345441Y120396D01*
X345441Y117856D01*
X345452Y117791D01*
X345454Y117725D01*
X345472Y117682D01*
X345480Y117635D01*
X345514Y117578D01*
X345539Y117518D01*
X345570Y117483D01*
X345595Y117442D01*
X345646Y117401D01*
X345690Y117352D01*
X345732Y117330D01*
X345769Y117301D01*
X345831Y117280D01*
X345890Y117249D01*
X345944Y117241D01*
X345981Y117229D01*
X346021Y117230D01*
X346075Y117222D01*
X349885Y117222D01*
X349950Y117233D01*
G37*
G36*
X819850Y117233D02*
X819850Y117233D01*
X819916Y117235D01*
X819959Y117253D01*
X820006Y117261D01*
X820063Y117295D01*
X820123Y117320D01*
X820158Y117351D01*
X820199Y117376D01*
X820241Y117427D01*
X820289Y117471D01*
X820311Y117513D01*
X820340Y117550D01*
X820361Y117612D01*
X820392Y117671D01*
X820400Y117725D01*
X820412Y117762D01*
X820411Y117802D01*
X820419Y117856D01*
X820419Y120396D01*
X820408Y120461D01*
X820406Y120527D01*
X820388Y120570D01*
X820380Y120617D01*
X820346Y120674D01*
X820321Y120734D01*
X820290Y120769D01*
X820265Y120810D01*
X820214Y120852D01*
X820170Y120900D01*
X820128Y120922D01*
X820091Y120951D01*
X820029Y120972D01*
X819970Y121003D01*
X819916Y121011D01*
X819879Y121023D01*
X819839Y121022D01*
X819785Y121030D01*
X815975Y121030D01*
X815910Y121019D01*
X815844Y121017D01*
X815801Y120999D01*
X815754Y120991D01*
X815697Y120957D01*
X815637Y120932D01*
X815602Y120901D01*
X815561Y120876D01*
X815520Y120825D01*
X815471Y120781D01*
X815449Y120739D01*
X815420Y120702D01*
X815399Y120640D01*
X815368Y120581D01*
X815360Y120527D01*
X815348Y120490D01*
X815348Y120487D01*
X815349Y120450D01*
X815341Y120396D01*
X815341Y117856D01*
X815352Y117791D01*
X815354Y117725D01*
X815372Y117682D01*
X815380Y117635D01*
X815414Y117578D01*
X815439Y117518D01*
X815470Y117483D01*
X815495Y117442D01*
X815546Y117401D01*
X815590Y117352D01*
X815632Y117330D01*
X815669Y117301D01*
X815731Y117280D01*
X815790Y117249D01*
X815844Y117241D01*
X815881Y117229D01*
X815921Y117230D01*
X815975Y117222D01*
X819785Y117222D01*
X819850Y117233D01*
G37*
G36*
X820104Y94373D02*
X820104Y94373D01*
X820170Y94375D01*
X820213Y94393D01*
X820260Y94401D01*
X820317Y94435D01*
X820377Y94460D01*
X820412Y94491D01*
X820453Y94516D01*
X820495Y94567D01*
X820543Y94611D01*
X820565Y94653D01*
X820594Y94690D01*
X820615Y94752D01*
X820646Y94811D01*
X820654Y94865D01*
X820666Y94902D01*
X820665Y94942D01*
X820673Y94996D01*
X820673Y97536D01*
X820662Y97601D01*
X820660Y97667D01*
X820642Y97710D01*
X820634Y97757D01*
X820600Y97814D01*
X820575Y97874D01*
X820544Y97909D01*
X820519Y97950D01*
X820468Y97992D01*
X820424Y98040D01*
X820382Y98062D01*
X820345Y98091D01*
X820283Y98112D01*
X820224Y98143D01*
X820170Y98151D01*
X820133Y98163D01*
X820093Y98162D01*
X820039Y98170D01*
X816229Y98170D01*
X816164Y98159D01*
X816098Y98157D01*
X816055Y98139D01*
X816008Y98131D01*
X815951Y98097D01*
X815891Y98072D01*
X815856Y98041D01*
X815815Y98016D01*
X815774Y97965D01*
X815725Y97921D01*
X815703Y97879D01*
X815674Y97842D01*
X815653Y97780D01*
X815622Y97721D01*
X815614Y97667D01*
X815602Y97630D01*
X815602Y97627D01*
X815603Y97590D01*
X815595Y97536D01*
X815595Y94996D01*
X815606Y94931D01*
X815608Y94865D01*
X815626Y94822D01*
X815634Y94775D01*
X815668Y94718D01*
X815693Y94658D01*
X815724Y94623D01*
X815749Y94582D01*
X815800Y94541D01*
X815844Y94492D01*
X815886Y94470D01*
X815923Y94441D01*
X815985Y94420D01*
X816044Y94389D01*
X816098Y94381D01*
X816135Y94369D01*
X816175Y94370D01*
X816229Y94362D01*
X820039Y94362D01*
X820104Y94373D01*
G37*
G36*
X1290004Y94373D02*
X1290004Y94373D01*
X1290070Y94375D01*
X1290113Y94393D01*
X1290160Y94401D01*
X1290217Y94435D01*
X1290277Y94460D01*
X1290312Y94491D01*
X1290353Y94516D01*
X1290395Y94567D01*
X1290443Y94611D01*
X1290465Y94653D01*
X1290494Y94690D01*
X1290515Y94752D01*
X1290546Y94811D01*
X1290554Y94865D01*
X1290566Y94902D01*
X1290565Y94942D01*
X1290573Y94996D01*
X1290573Y97536D01*
X1290562Y97601D01*
X1290560Y97667D01*
X1290542Y97710D01*
X1290534Y97757D01*
X1290500Y97814D01*
X1290475Y97874D01*
X1290444Y97909D01*
X1290419Y97950D01*
X1290368Y97992D01*
X1290324Y98040D01*
X1290282Y98062D01*
X1290245Y98091D01*
X1290183Y98112D01*
X1290124Y98143D01*
X1290070Y98151D01*
X1290033Y98163D01*
X1289993Y98162D01*
X1289939Y98170D01*
X1286129Y98170D01*
X1286064Y98159D01*
X1285998Y98157D01*
X1285955Y98139D01*
X1285908Y98131D01*
X1285851Y98097D01*
X1285791Y98072D01*
X1285756Y98041D01*
X1285715Y98016D01*
X1285674Y97965D01*
X1285625Y97921D01*
X1285603Y97879D01*
X1285574Y97842D01*
X1285553Y97780D01*
X1285522Y97721D01*
X1285514Y97667D01*
X1285502Y97630D01*
X1285502Y97627D01*
X1285503Y97590D01*
X1285495Y97536D01*
X1285495Y94996D01*
X1285506Y94931D01*
X1285508Y94865D01*
X1285526Y94822D01*
X1285534Y94775D01*
X1285568Y94718D01*
X1285593Y94658D01*
X1285624Y94623D01*
X1285649Y94582D01*
X1285700Y94541D01*
X1285744Y94492D01*
X1285786Y94470D01*
X1285823Y94441D01*
X1285885Y94420D01*
X1285944Y94389D01*
X1285998Y94381D01*
X1286035Y94369D01*
X1286075Y94370D01*
X1286129Y94362D01*
X1289939Y94362D01*
X1290004Y94373D01*
G37*
G36*
X350204Y94373D02*
X350204Y94373D01*
X350270Y94375D01*
X350313Y94393D01*
X350360Y94401D01*
X350417Y94435D01*
X350477Y94460D01*
X350512Y94491D01*
X350553Y94516D01*
X350595Y94567D01*
X350643Y94611D01*
X350665Y94653D01*
X350694Y94690D01*
X350715Y94752D01*
X350746Y94811D01*
X350754Y94865D01*
X350766Y94902D01*
X350765Y94942D01*
X350773Y94996D01*
X350773Y97536D01*
X350762Y97601D01*
X350760Y97667D01*
X350742Y97710D01*
X350734Y97757D01*
X350700Y97814D01*
X350675Y97874D01*
X350644Y97909D01*
X350619Y97950D01*
X350568Y97992D01*
X350524Y98040D01*
X350482Y98062D01*
X350445Y98091D01*
X350383Y98112D01*
X350324Y98143D01*
X350270Y98151D01*
X350233Y98163D01*
X350193Y98162D01*
X350139Y98170D01*
X346329Y98170D01*
X346264Y98159D01*
X346198Y98157D01*
X346155Y98139D01*
X346108Y98131D01*
X346051Y98097D01*
X345991Y98072D01*
X345956Y98041D01*
X345915Y98016D01*
X345874Y97965D01*
X345825Y97921D01*
X345803Y97879D01*
X345774Y97842D01*
X345753Y97780D01*
X345722Y97721D01*
X345714Y97667D01*
X345702Y97630D01*
X345702Y97627D01*
X345703Y97590D01*
X345695Y97536D01*
X345695Y94996D01*
X345706Y94931D01*
X345708Y94865D01*
X345726Y94822D01*
X345734Y94775D01*
X345768Y94718D01*
X345793Y94658D01*
X345824Y94623D01*
X345849Y94582D01*
X345900Y94541D01*
X345944Y94492D01*
X345986Y94470D01*
X346023Y94441D01*
X346085Y94420D01*
X346144Y94389D01*
X346198Y94381D01*
X346235Y94369D01*
X346275Y94370D01*
X346329Y94362D01*
X350139Y94362D01*
X350204Y94373D01*
G37*
D10*
X25400Y342646D03*
D11*
X61214Y225806D03*
X50800Y225806D03*
X40386Y225806D03*
X353441Y96266D03*
X343027Y96266D03*
D12*
X400050Y6350D03*
X6350Y361696D03*
D10*
X25400Y25400D03*
X381000Y25400D03*
D13*
X296164Y98806D03*
X288036Y98806D03*
D14*
X215900Y12700D03*
X190500Y12700D03*
X165100Y12700D03*
X139700Y12700D03*
X190500Y355600D03*
X215900Y355600D03*
X241300Y355600D03*
X266700Y355600D03*
X292100Y355600D03*
X317500Y355600D03*
X342900Y355600D03*
D11*
X353187Y119126D03*
X342773Y119126D03*
D14*
X241300Y12700D03*
X266700Y12700D03*
X292100Y12700D03*
X317500Y12700D03*
D15*
X134056Y321028D03*
X76256Y321028D03*
D10*
X381000Y342646D03*
D16*
X77470Y38100D03*
D10*
X495300Y342646D03*
D11*
X531114Y225806D03*
X520700Y225806D03*
X510286Y225806D03*
X823341Y96266D03*
X812927Y96266D03*
D12*
X869950Y6350D03*
X476250Y361696D03*
D10*
X495300Y25400D03*
X850900Y25400D03*
D13*
X766064Y98806D03*
X757936Y98806D03*
D14*
X685800Y12700D03*
X660400Y12700D03*
X635000Y12700D03*
X609600Y12700D03*
X660400Y355600D03*
X685800Y355600D03*
X711200Y355600D03*
X736600Y355600D03*
X762000Y355600D03*
X787400Y355600D03*
X812800Y355600D03*
D11*
X823087Y119126D03*
X812673Y119126D03*
D14*
X711200Y12700D03*
X736600Y12700D03*
X762000Y12700D03*
X787400Y12700D03*
D15*
X603956Y321028D03*
X546156Y321028D03*
D10*
X850900Y342646D03*
D16*
X547370Y38100D03*
D10*
X965200Y342646D03*
D11*
X1001014Y225806D03*
X990600Y225806D03*
X980186Y225806D03*
X1293241Y96266D03*
X1282827Y96266D03*
D12*
X1339850Y6350D03*
X946150Y361696D03*
D10*
X965200Y25400D03*
X1320800Y25400D03*
D13*
X1235964Y98806D03*
X1227836Y98806D03*
D14*
X1155700Y12700D03*
X1130300Y12700D03*
X1104900Y12700D03*
X1079500Y12700D03*
X1130300Y355600D03*
X1155700Y355600D03*
X1181100Y355600D03*
X1206500Y355600D03*
X1231900Y355600D03*
X1257300Y355600D03*
X1282700Y355600D03*
D11*
X1292987Y119126D03*
X1282573Y119126D03*
D14*
X1181100Y12700D03*
X1206500Y12700D03*
X1231900Y12700D03*
X1257300Y12700D03*
D15*
X1073856Y321028D03*
X1016056Y321028D03*
D10*
X1320800Y342646D03*
D16*
X1017270Y38100D03*
D10*
X25400Y741172D03*
D11*
X61214Y624332D03*
X50800Y624332D03*
X40386Y624332D03*
X353441Y494792D03*
X343027Y494792D03*
D12*
X400050Y404876D03*
X6350Y760222D03*
D10*
X25400Y423926D03*
X381000Y423926D03*
D13*
X296164Y497332D03*
X288036Y497332D03*
D14*
X215900Y411226D03*
X190500Y411226D03*
X165100Y411226D03*
X139700Y411226D03*
X190500Y754126D03*
X215900Y754126D03*
X241300Y754126D03*
X266700Y754126D03*
X292100Y754126D03*
X317500Y754126D03*
X342900Y754126D03*
D11*
X353187Y517652D03*
X342773Y517652D03*
D14*
X241300Y411226D03*
X266700Y411226D03*
X292100Y411226D03*
X317500Y411226D03*
D15*
X134056Y719554D03*
X76256Y719554D03*
D10*
X381000Y741172D03*
D16*
X77470Y436626D03*
D10*
X495300Y741172D03*
D11*
X531114Y624332D03*
X520700Y624332D03*
X510286Y624332D03*
X823341Y494792D03*
X812927Y494792D03*
D12*
X869950Y404876D03*
X476250Y760222D03*
D10*
X495300Y423926D03*
X850900Y423926D03*
D13*
X766064Y497332D03*
X757936Y497332D03*
D14*
X685800Y411226D03*
X660400Y411226D03*
X635000Y411226D03*
X609600Y411226D03*
X660400Y754126D03*
X685800Y754126D03*
X711200Y754126D03*
X736600Y754126D03*
X762000Y754126D03*
X787400Y754126D03*
X812800Y754126D03*
D11*
X823087Y517652D03*
X812673Y517652D03*
D14*
X711200Y411226D03*
X736600Y411226D03*
X762000Y411226D03*
X787400Y411226D03*
D15*
X603956Y719554D03*
X546156Y719554D03*
D10*
X850900Y741172D03*
D16*
X547370Y436626D03*
D10*
X965200Y741172D03*
D11*
X1001014Y624332D03*
X990600Y624332D03*
X980186Y624332D03*
X1293241Y494792D03*
X1282827Y494792D03*
D12*
X1339850Y404876D03*
X946150Y760222D03*
D10*
X965200Y423926D03*
X1320800Y423926D03*
D13*
X1235964Y497332D03*
X1227836Y497332D03*
D14*
X1155700Y411226D03*
X1130300Y411226D03*
X1104900Y411226D03*
X1079500Y411226D03*
X1130300Y754126D03*
X1155700Y754126D03*
X1181100Y754126D03*
X1206500Y754126D03*
X1231900Y754126D03*
X1257300Y754126D03*
X1282700Y754126D03*
D11*
X1292987Y517652D03*
X1282573Y517652D03*
D14*
X1181100Y411226D03*
X1206500Y411226D03*
X1231900Y411226D03*
X1257300Y411226D03*
D15*
X1073856Y719554D03*
X1016056Y719554D03*
D10*
X1320800Y741172D03*
D16*
X1017270Y436626D03*
D17*
X127000Y812927D03*
X1322705Y812927D03*
D18*
X117945Y-26035D02*
X117948Y-25813D01*
X117956Y-25591D01*
X117970Y-25369D01*
X117989Y-25147D01*
X118013Y-24927D01*
X118043Y-24706D01*
X118078Y-24487D01*
X118119Y-24268D01*
X118165Y-24051D01*
X118216Y-23835D01*
X118273Y-23620D01*
X118335Y-23406D01*
X118402Y-23195D01*
X118474Y-22984D01*
X118552Y-22776D01*
X118634Y-22570D01*
X118722Y-22366D01*
X118814Y-22163D01*
X118912Y-21964D01*
X119014Y-21767D01*
X119121Y-21572D01*
X119233Y-21380D01*
X119350Y-21191D01*
X119471Y-21004D01*
X119597Y-20821D01*
X119727Y-20641D01*
X119862Y-20464D01*
X120000Y-20291D01*
X120143Y-20121D01*
X120291Y-19954D01*
X120442Y-19791D01*
X120597Y-19632D01*
X120756Y-19477D01*
X120919Y-19326D01*
X121086Y-19178D01*
X121256Y-19035D01*
X121429Y-18897D01*
X121606Y-18762D01*
X121786Y-18632D01*
X121969Y-18506D01*
X122156Y-18385D01*
X122345Y-18268D01*
X122537Y-18156D01*
X122732Y-18049D01*
X122929Y-17947D01*
X123128Y-17849D01*
X123331Y-17757D01*
X123535Y-17669D01*
X123741Y-17587D01*
X123949Y-17509D01*
X124160Y-17437D01*
X124371Y-17370D01*
X124585Y-17308D01*
X124800Y-17251D01*
X125016Y-17200D01*
X125233Y-17154D01*
X125452Y-17113D01*
X125671Y-17078D01*
X125892Y-17048D01*
X126112Y-17024D01*
X126334Y-17005D01*
X126556Y-16991D01*
X126778Y-16983D01*
X127000Y-16980D01*
X127222Y-16983D01*
X127444Y-16991D01*
X127666Y-17005D01*
X127888Y-17024D01*
X128108Y-17048D01*
X128329Y-17078D01*
X128548Y-17113D01*
X128767Y-17154D01*
X128984Y-17200D01*
X129200Y-17251D01*
X129415Y-17308D01*
X129629Y-17370D01*
X129840Y-17437D01*
X130051Y-17509D01*
X130259Y-17587D01*
X130465Y-17669D01*
X130669Y-17757D01*
X130872Y-17849D01*
X131071Y-17947D01*
X131268Y-18049D01*
X131463Y-18156D01*
X131655Y-18268D01*
X131844Y-18385D01*
X132031Y-18506D01*
X132214Y-18632D01*
X132394Y-18762D01*
X132571Y-18897D01*
X132744Y-19035D01*
X132914Y-19178D01*
X133081Y-19326D01*
X133244Y-19477D01*
X133403Y-19632D01*
X133558Y-19791D01*
X133709Y-19954D01*
X133857Y-20121D01*
X134000Y-20291D01*
X134138Y-20464D01*
X134273Y-20641D01*
X134403Y-20821D01*
X134529Y-21004D01*
X134650Y-21191D01*
X134767Y-21380D01*
X134879Y-21572D01*
X134986Y-21767D01*
X135088Y-21964D01*
X135186Y-22163D01*
X135278Y-22366D01*
X135366Y-22570D01*
X135448Y-22776D01*
X135526Y-22984D01*
X135598Y-23195D01*
X135665Y-23406D01*
X135727Y-23620D01*
X135784Y-23835D01*
X135835Y-24051D01*
X135881Y-24268D01*
X135922Y-24487D01*
X135957Y-24706D01*
X135987Y-24927D01*
X136011Y-25147D01*
X136030Y-25369D01*
X136044Y-25591D01*
X136052Y-25813D01*
X136055Y-26035D01*
X136052Y-26257D01*
X136044Y-26479D01*
X136030Y-26701D01*
X136011Y-26923D01*
X135987Y-27143D01*
X135957Y-27364D01*
X135922Y-27583D01*
X135881Y-27802D01*
X135835Y-28019D01*
X135784Y-28235D01*
X135727Y-28450D01*
X135665Y-28664D01*
X135598Y-28875D01*
X135526Y-29086D01*
X135448Y-29294D01*
X135366Y-29500D01*
X135278Y-29704D01*
X135186Y-29907D01*
X135088Y-30106D01*
X134986Y-30303D01*
X134879Y-30498D01*
X134767Y-30690D01*
X134650Y-30879D01*
X134529Y-31066D01*
X134403Y-31249D01*
X134273Y-31429D01*
X134138Y-31606D01*
X134000Y-31779D01*
X133857Y-31949D01*
X133709Y-32116D01*
X133558Y-32279D01*
X133403Y-32438D01*
X133244Y-32593D01*
X133081Y-32744D01*
X132914Y-32892D01*
X132744Y-33035D01*
X132571Y-33173D01*
X132394Y-33308D01*
X132214Y-33438D01*
X132031Y-33564D01*
X131844Y-33685D01*
X131655Y-33802D01*
X131463Y-33914D01*
X131268Y-34021D01*
X131071Y-34123D01*
X130872Y-34221D01*
X130669Y-34313D01*
X130465Y-34401D01*
X130259Y-34483D01*
X130051Y-34561D01*
X129840Y-34633D01*
X129629Y-34700D01*
X129415Y-34762D01*
X129200Y-34819D01*
X128984Y-34870D01*
X128767Y-34916D01*
X128548Y-34957D01*
X128329Y-34992D01*
X128108Y-35022D01*
X127888Y-35046D01*
X127666Y-35065D01*
X127444Y-35079D01*
X127222Y-35087D01*
X127000Y-35090D01*
X126778Y-35087D01*
X126556Y-35079D01*
X126334Y-35065D01*
X126112Y-35046D01*
X125892Y-35022D01*
X125671Y-34992D01*
X125452Y-34957D01*
X125233Y-34916D01*
X125016Y-34870D01*
X124800Y-34819D01*
X124585Y-34762D01*
X124371Y-34700D01*
X124160Y-34633D01*
X123949Y-34561D01*
X123741Y-34483D01*
X123535Y-34401D01*
X123331Y-34313D01*
X123128Y-34221D01*
X122929Y-34123D01*
X122732Y-34021D01*
X122537Y-33914D01*
X122345Y-33802D01*
X122156Y-33685D01*
X121969Y-33564D01*
X121786Y-33438D01*
X121606Y-33308D01*
X121429Y-33173D01*
X121256Y-33035D01*
X121086Y-32892D01*
X120919Y-32744D01*
X120756Y-32593D01*
X120597Y-32438D01*
X120442Y-32279D01*
X120291Y-32116D01*
X120143Y-31949D01*
X120000Y-31779D01*
X119862Y-31606D01*
X119727Y-31429D01*
X119597Y-31249D01*
X119471Y-31066D01*
X119350Y-30879D01*
X119233Y-30690D01*
X119121Y-30498D01*
X119014Y-30303D01*
X118912Y-30106D01*
X118814Y-29907D01*
X118722Y-29704D01*
X118634Y-29500D01*
X118552Y-29294D01*
X118474Y-29086D01*
X118402Y-28875D01*
X118335Y-28664D01*
X118273Y-28450D01*
X118216Y-28235D01*
X118165Y-28019D01*
X118119Y-27802D01*
X118078Y-27583D01*
X118043Y-27364D01*
X118013Y-27143D01*
X117989Y-26923D01*
X117970Y-26701D01*
X117956Y-26479D01*
X117948Y-26257D01*
X117945Y-26035D01*
D19*
X127000Y-26035D03*
M02*
